<?xml version="1.0" encoding="iso-8859-1"?>
<!-- Generator: Adobe Illustrator 19.0.0, SVG Export Plug-In . SVG Version: 6.00 Build 0)  -->
<svg xmlns="http://www.w3.org/2000/svg" xmlns:xlink="http://www.w3.org/1999/xlink" version="1.1" id="Layer_1" x="0px" y="0px" viewBox="0 0 290.625 290.625" style="enable-background:new 0 0 290.625 290.625;" xml:space="preserve" width="512px" height="512px">
<g>
	<g>
		<g>
			<path d="M276.563,281.25V60.938h-16.645l-37.5-42.188h-25.542V0H14.062v281.25H4.687v9.375h103.125h18.75h37.5h9.375h37.5h9.375     h37.5h18.75h9.375v-9.375H276.563z M218.213,28.125l29.16,32.813h-50.498V46.875H187.5v14.063h-50.498l29.17-32.813H218.213z      M135.938,42.188v-9.375h13.519l-8.334,9.375H135.938z M107.812,281.25H56.25v-70.313h51.563V281.25z M107.812,154.688h-18.75     v-9.375h18.75V154.688z M107.812,117.188h-18.75v-9.375h18.75V117.188z M107.812,79.688h-18.75v-9.375h18.75V79.688z      M79.687,60.938v28.125h28.125v9.375H79.687v28.125h28.125v9.375H79.687v28.125h28.125v18.75h-75v9.375h75v9.375h-75v9.375     h14.063v70.313H23.437V9.375H187.5v9.375h-25.542l-4.167,4.688h-31.228v28.125h6.23l-8.334,9.375h-7.27h-9.375H79.687z      M154.688,281.25h-18.75v-28.125c0-5.17,4.205-9.375,9.375-9.375c5.17,0,9.375,4.205,9.375,9.375V281.25z M201.563,281.25h-18.75     v-28.125c0-5.17,4.205-9.375,9.375-9.375c5.17,0,9.375,4.205,9.375,9.375V281.25z M248.438,281.25h-18.75v-28.125     c0-5.17,4.205-9.375,9.375-9.375c5.17,0,9.375,4.205,9.375,9.375V281.25z M267.188,281.25h-9.375v-28.125     c0-10.341-8.409-18.75-18.75-18.75s-18.75,8.409-18.75,18.75v28.125h-9.375v-28.125c0-10.341-8.409-18.75-18.75-18.75     s-18.75,8.409-18.75,18.75v28.125h-9.375v-28.125c0-10.341-8.409-18.75-18.75-18.75s-18.75,8.409-18.75,18.75v28.125h-9.375     V164.063v-28.125v-9.375V98.438v-9.375v-18.75h150V281.25z" fill="#006DF0"/>
			<path d="M164.063,192.188h-37.5v28.125h37.5V192.188z M154.688,210.938h-18.75v-9.375h18.75V210.938z" fill="#006DF0"/>
			<path d="M210.938,192.188h-37.5v28.125h37.5V192.188z M201.563,210.938h-18.75v-9.375h18.75V210.938z" fill="#006DF0"/>
			<path d="M257.813,192.188h-37.5v28.125h37.5V192.188z M248.438,210.938h-18.75v-9.375h18.75V210.938z" fill="#006DF0"/>
			<path d="M164.063,154.688h-37.5v28.125h37.5V154.688z M154.688,173.438h-18.75v-9.375h18.75V173.438z" fill="#006DF0"/>
			<path d="M210.938,154.688h-37.5v28.125h37.5V154.688z M201.563,173.438h-18.75v-9.375h18.75V173.438z" fill="#006DF0"/>
			<path d="M257.813,154.688h-37.5v28.125h37.5V154.688z M248.438,173.438h-18.75v-9.375h18.75V173.438z" fill="#006DF0"/>
			<path d="M164.063,117.188h-37.5v28.125h37.5V117.188z M154.688,135.938h-18.75v-9.375h18.75V135.938z" fill="#006DF0"/>
			<path d="M210.938,117.188h-37.5v28.125h37.5V117.188z M201.563,135.938h-18.75v-9.375h18.75V135.938z" fill="#006DF0"/>
			<path d="M257.813,117.188h-37.5v28.125h37.5V117.188z M248.438,135.938h-18.75v-9.375h18.75V135.938z" fill="#006DF0"/>
			<path d="M164.063,79.688h-37.5v28.125h37.5V79.688z M154.688,98.438h-18.75v-9.375h18.75V98.438z" fill="#006DF0"/>
			<path d="M210.938,79.688h-37.5v28.125h37.5V79.688z M201.563,98.438h-18.75v-9.375h18.75V98.438z" fill="#006DF0"/>
			<path d="M257.813,79.688h-37.5v28.125h37.5V79.688z M248.438,98.438h-18.75v-9.375h18.75V98.438z" fill="#006DF0"/>
			<path d="M32.812,164.063h37.5v-28.125h-37.5V164.063z M42.187,145.313h18.75v9.375h-18.75V145.313z" fill="#006DF0"/>
			<path d="M32.812,126.563h37.5V98.438h-37.5V126.563z M42.187,107.813h18.75v9.375h-18.75V107.813z" fill="#006DF0"/>
			<path d="M32.812,89.063h37.5V60.938h-37.5V89.063z M42.187,70.313h18.75v9.375h-18.75V70.313z" fill="#006DF0"/>
			<path d="M32.812,51.563h37.5V23.438h-37.5V51.563z M42.187,32.813h18.75v9.375h-18.75V32.813z" fill="#006DF0"/>
			<path d="M79.687,51.563h37.5V23.438h-37.5V51.563z M89.062,32.813h18.75v9.375h-18.75V32.813z" fill="#006DF0"/>
		</g>
	</g>
</g>
<g>
</g>
<g>
</g>
<g>
</g>
<g>
</g>
<g>
</g>
<g>
</g>
<g>
</g>
<g>
</g>
<g>
</g>
<g>
</g>
<g>
</g>
<g>
</g>
<g>
</g>
<g>
</g>
<g>
</g>
</svg>
