<?xml version="1.0" encoding="iso-8859-1"?>
<!-- Generator: Adobe Illustrator 19.1.0, SVG Export Plug-In . SVG Version: 6.00 Build 0)  -->
<svg version="1.1" id="Capa_1" xmlns="http://www.w3.org/2000/svg" xmlns:xlink="http://www.w3.org/1999/xlink" x="0px" y="0px"
	 viewBox="0 0 491.857 491.857" style="enable-background:new 0 0 491.857 491.857;" xml:space="preserve">
<g>
	<g>
		<g>
			<path d="M463.343,126.287H322.366V77.545c0-9.789-7.935-17.724-17.724-17.724H167.275c-9.789,0-17.724,7.935-17.724,17.724
				v48.742H28.513C12.766,126.287,0,134.222,0,144.012v88.623h66.466v-26.587h53.174v26.587h265.869v-26.587h53.173v26.587h53.175
				v-88.623C491.858,134.222,479.091,126.287,463.343,126.287z M176.138,98.223c0-6.527,5.29-11.817,11.817-11.817h91.577
				c6.527,0,11.816,5.29,11.816,11.817v28.064h-115.21L176.138,98.223L176.138,98.223z"/>
			<path d="M438.684,272.515h-53.173v-26.587H119.642v26.587H66.466v-26.587H0V414.31c0,9.79,12.766,17.726,28.513,17.726h434.83
				c15.748,0,28.514-7.936,28.514-17.725V245.929h-53.174v26.586H438.684z"/>
		</g>
	</g>
	<g>
	</g>
	<g>
	</g>
	<g>
	</g>
	<g>
	</g>
	<g>
	</g>
	<g>
	</g>
	<g>
	</g>
	<g>
	</g>
	<g>
	</g>
	<g>
	</g>
	<g>
	</g>
	<g>
	</g>
	<g>
	</g>
	<g>
	</g>
	<g>
	</g>
</g>
<g>
</g>
<g>
</g>
<g>
</g>
<g>
</g>
<g>
</g>
<g>
</g>
<g>
</g>
<g>
</g>
<g>
</g>
<g>
</g>
<g>
</g>
<g>
</g>
<g>
</g>
<g>
</g>
<g>
</g>
</svg>
