<?xml version="1.0" encoding="iso-8859-1"?>
<!-- Generator: Adobe Illustrator 19.0.0, SVG Export Plug-In . SVG Version: 6.00 Build 0)  -->
<svg version="1.1" id="Layer_1" xmlns="http://www.w3.org/2000/svg" xmlns:xlink="http://www.w3.org/1999/xlink" x="0px" y="0px"
	 viewBox="0 0 512 512" style="enable-background:new 0 0 512 512;" xml:space="preserve">
<circle style="fill:#4AB8A1;" cx="256" cy="256" r="256"/>
<path style="fill:#3AA68F;" d="M487.124,366.172L412.632,179.78c-7.556-20.852-27.204-35.78-50.54-35.78H152.568
	c-29.944,0-56.572,24.536-56.572,54.684v114.632c0,7.612,1.708,14.864,4.728,21.448l64.108,160.46
	c28.332,10.796,59.04,16.768,91.168,16.768C357.936,512,445.944,452.416,487.124,366.172z"/>
<path style="fill:#318C79;" d="M369.06,152H159.536c-29.944,0-57.836,24.536-57.836,54.684v114.632
	c0,30.148,27.892,54.684,57.836,54.684H369.06c29.944,0,52.64-24.536,52.64-54.684V206.684C421.7,176.536,399.004,152,369.06,152z"
	/>
<path style="fill:#FFD464;" d="M361.06,144H151.536c-29.944,0-57.836,24.536-57.836,54.684v114.632
	c0,30.148,27.892,54.684,57.836,54.684H361.06c29.944,0,52.64-24.536,52.64-54.684V198.684C413.7,168.536,391.004,144,361.06,144z"
	/>
<rect x="93.7" y="200" style="fill:#3B3B3B;" width="320" height="28"/>
<polygon style="fill:#45433E;" points="230.636,200 96,200 96,228 219.324,228 "/>
<g>
</g>
<g>
</g>
<g>
</g>
<g>
</g>
<g>
</g>
<g>
</g>
<g>
</g>
<g>
</g>
<g>
</g>
<g>
</g>
<g>
</g>
<g>
</g>
<g>
</g>
<g>
</g>
<g>
</g>
</svg>
