<?xml version="1.0" encoding="utf-8"?>
<!-- Generator: Adobe Illustrator 16.0.0, SVG Export Plug-In . SVG Version: 6.00 Build 0)  -->
<!DOCTYPE svg PUBLIC "-//W3C//DTD SVG 1.1//EN" "http://www.w3.org/Graphics/SVG/1.1/DTD/svg11.dtd">
<svg version="1.1" id="Capa_1" xmlns="http://www.w3.org/2000/svg" xmlns:xlink="http://www.w3.org/1999/xlink" x="0px" y="0px"
	 width="600px" height="600px" viewBox="0 0 600 600" enable-background="new 0 0 600 600" xml:space="preserve">
<circle fill="none" stroke="#2980B9" stroke-width="9" stroke-miterlimit="10" cx="300" cy="300" r="286"/>
<g>
	<g id="phone-missed">
		<path fill="none" stroke="#2980B9" stroke-width="9" stroke-miterlimit="10" d="M229.544,218.85l69.198,69.198l88.07-88.07
			l-12.582-12.582l-75.488,75.489l-56.617-56.616h44.035v-18.873h-75.489v75.489h18.873V218.85z M445.945,359.762
			c-37.744-36.485-90.587-59.133-147.203-59.133c-56.617,0-109.459,22.646-147.204,59.133c-2.517,2.517-3.774,5.032-3.774,8.808
			c0,3.773,1.258,6.291,3.774,8.807l31.454,31.454c2.517,2.517,5.033,3.774,8.807,3.774s6.291-1.259,8.807-3.774
			c10.065-8.807,21.389-17.614,33.97-23.905c3.774-2.516,7.548-6.291,7.548-11.323v-39.003c17.614-6.29,37.745-8.807,57.875-8.807
			c20.131,0,40.262,3.774,57.875,8.807v39.003c0,5.032,2.517,8.808,7.549,11.323c12.582,6.291,23.904,13.84,33.971,23.905
			c2.516,2.517,5.033,3.774,8.807,3.774c3.775,0,6.291-1.259,8.807-3.774l31.455-31.454c2.516-2.516,3.773-5.032,3.773-8.807
			S448.461,362.278,445.945,359.762z"/>
	</g>
</g>
</svg>
