<?xml version="1.0" encoding="utf-8"?>
<!-- Generator: Adobe Illustrator 16.0.0, SVG Export Plug-In . SVG Version: 6.00 Build 0)  -->
<!DOCTYPE svg PUBLIC "-//W3C//DTD SVG 1.1//EN" "http://www.w3.org/Graphics/SVG/1.1/DTD/svg11.dtd">
<svg version="1.1" id="Capa_1" xmlns="http://www.w3.org/2000/svg" xmlns:xlink="http://www.w3.org/1999/xlink" x="0px" y="0px"
	 width="600px" height="600px" viewBox="0 0 600 600" enable-background="new 0 0 600 600" xml:space="preserve">
<circle fill="none" stroke="#2980B9" stroke-width="9" stroke-miterlimit="10" cx="300" cy="300" r="286"/>
<g>
	<g>
		<path fill="#2980B9" d="M243.263,270.585h9.225v-9.225c0-12.915,10.147-23.063,23.062-23.063h5.996l12.915,34.131
			c0.462,1.384,2.307,2.769,4.152,2.769c1.844,0,3.69-1.384,5.074-2.769l12.914-34.131h5.073c12.915,0,23.063,10.147,23.063,23.063
			v9.225h9.226v-9.225c0-17.989-14.299-32.286-32.288-32.286H275.55c-17.988,0-32.287,14.297-32.287,32.286V270.585L243.263,270.585
			z M299.073,257.67l-7.38-19.373h14.76L299.073,257.67z"/>
		<rect x="293.999" y="284.422" fill="#2980B9" width="9.225" height="9.225"/>
		<rect x="293.999" y="302.871" fill="#2980B9" width="9.225" height="9.225"/>
		<path fill="#2980B9" d="M293.999,224.461h9.225c12.915,0,23.063-10.147,23.063-23.062v-13.838
			c0-12.915-10.147-23.062-23.063-23.062h-9.225c-12.915,0-23.062,10.147-23.062,23.062V201.4
			C270.938,214.314,281.084,224.461,293.999,224.461z M280.162,187.562c0-7.841,5.996-13.837,13.837-13.837h9.225
			c7.841,0,13.838,5.996,13.838,13.837V201.4c0,7.841-5.997,13.836-13.838,13.836h-9.225c-7.841,0-13.837-5.996-13.837-13.836
			V187.562z"/>
		<path fill="#2980B9" d="M386.246,344.383h-46.123c-17.988,0-32.287,14.299-32.287,32.286v64.573h9.226v-64.573
			c0-12.914,10.147-23.062,23.062-23.062h46.123c12.916,0,23.063,10.147,23.063,23.062v64.573h9.225v-64.573
			C418.533,358.682,404.234,344.383,386.246,344.383z"/>
		<rect x="330.898" y="390.506" fill="#2980B9" width="9.225" height="50.736"/>
		<rect x="386.246" y="390.506" fill="#2980B9" width="9.226" height="50.736"/>
		<path fill="#2980B9" d="M257.101,344.383h-46.124c-17.988,0-32.287,14.299-32.287,32.286v64.573h9.225v-64.573
			c0-12.914,10.147-23.062,23.062-23.062h46.124c12.915,0,23.062,10.147,23.062,23.062v64.573h9.225v-64.573
			C289.387,358.682,275.089,344.383,257.101,344.383z"/>
		<path fill="#2980B9" d="M206.364,302.871v13.837c0,12.916,10.147,23.063,23.063,23.063h9.224c7.841,0,14.298-3.69,18.45-9.225
			h83.022c4.151,5.534,10.607,9.225,18.449,9.225h9.225c12.915,0,23.063-10.146,23.063-23.063v-13.837
			c0-12.915-10.147-23.062-23.063-23.062h-9.225c-12.915,0-23.063,10.147-23.063,23.062v13.837c0,1.385,0,3.229,0.461,4.612h-5.072
			v-46.123h-9.226v46.123H275.55v-46.123h-9.225v46.123h-5.074c0.461-1.383,0.461-3.228,0.461-4.612v-13.837
			c0-12.915-10.147-23.062-23.062-23.062h-9.224C216.512,279.81,206.364,289.957,206.364,302.871z M344.735,302.871
			c0-7.841,5.995-13.837,13.837-13.837h9.225c7.841,0,13.837,5.996,13.837,13.837v13.837c0,7.842-5.996,13.838-13.837,13.838h-9.225
			c-7.842,0-13.837-5.996-13.837-13.838V302.871z M215.589,302.871c0-7.841,5.996-13.837,13.838-13.837h9.224
			c7.841,0,13.837,5.996,13.837,13.837v13.837c0,7.842-5.997,13.838-13.837,13.838h-9.224c-7.842,0-13.838-5.996-13.838-13.838
			V302.871z"/>
		<rect x="201.751" y="390.506" fill="#2980B9" width="9.225" height="50.736"/>
		<rect x="257.101" y="390.506" fill="#2980B9" width="9.224" height="50.736"/>
		<path fill="#2980B9" d="M169.465,330.546h23.062v-9.226h-27.674c-2.768,0-4.613,1.846-4.613,4.612v27.675
			c0,2.768,1.845,4.613,4.613,4.613h9.225v-9.226h-4.613V330.546z"/>
		<path fill="#2980B9" d="M432.37,321.32h-32.286v9.226h27.673v18.449h-9.224v9.226h13.837c2.769,0,4.612-1.846,4.612-4.613v-27.675
			C436.982,323.166,435.139,321.32,432.37,321.32z"/>
		<rect x="289.387" y="348.995" fill="#2980B9" width="18.449" height="9.226"/>
		<rect x="381.634" y="182.95" fill="#2980B9" width="32.286" height="9.224"/>
		<rect x="381.634" y="201.4" fill="#2980B9" width="46.123" height="9.224"/>
		<rect x="381.634" y="219.849" fill="#2980B9" width="46.123" height="9.226"/>
		<rect x="183.302" y="182.95" fill="#2980B9" width="32.287" height="9.224"/>
		<rect x="169.465" y="201.4" fill="#2980B9" width="46.124" height="9.224"/>
		<rect x="169.465" y="219.849" fill="#2980B9" width="46.124" height="9.226"/>
		<rect x="381.634" y="238.298" fill="#2980B9" width="9.226" height="9.226"/>
		<rect x="400.084" y="238.298" fill="#2980B9" width="9.225" height="9.226"/>
		<rect x="418.533" y="238.298" fill="#2980B9" width="9.224" height="9.226"/>
		<rect x="169.465" y="238.298" fill="#2980B9" width="9.225" height="9.226"/>
		<rect x="187.915" y="238.298" fill="#2980B9" width="9.225" height="9.226"/>
		<rect x="206.364" y="238.298" fill="#2980B9" width="9.225" height="9.226"/>
		<path fill="#2980B9" d="M353.961,192.174h13.836v-9.224h-18.449c-2.768,0-4.612,1.844-4.612,4.612v32.287h9.226V192.174z"/>
		<path fill="#2980B9" d="M243.263,219.849h9.225v-32.287c0-2.768-1.845-4.612-4.613-4.612h-18.449v9.224h13.836V219.849z"/>
	</g>
</g>
</svg>
