<?xml version="1.0" encoding="utf-8"?>
<!-- Generator: Adobe Illustrator 16.0.0, SVG Export Plug-In . SVG Version: 6.00 Build 0)  -->
<!DOCTYPE svg PUBLIC "-//W3C//DTD SVG 1.1//EN" "http://www.w3.org/Graphics/SVG/1.1/DTD/svg11.dtd">
<svg version="1.1" id="Capa_1" xmlns="http://www.w3.org/2000/svg" xmlns:xlink="http://www.w3.org/1999/xlink" x="0px" y="0px"
	 width="600px" height="600px" viewBox="0 0 600 600" enable-background="new 0 0 600 600" xml:space="preserve">
<circle fill="none" stroke="#26A69A" stroke-width="9" stroke-miterlimit="10" cx="300" cy="300" r="286"/>
<g>
	<path fill="none" stroke="#26A69A" stroke-width="9" stroke-miterlimit="10" d="M298,494.108
		c-106.967,0-193.989-87.024-193.989-193.989c0-106.966,87.022-193.989,193.989-193.989c106.965,0,193.988,87.022,193.988,193.989
		C491.988,407.086,404.965,494.108,298,494.108z"/>
	<path fill="none" stroke="#26A69A" stroke-width="9" stroke-miterlimit="10" d="M350.211,300.119
		c0-28.789-23.422-52.212-52.211-52.212s-52.212,23.423-52.212,52.212S269.21,352.331,298,352.331
		C326.789,352.331,350.211,328.908,350.211,300.119z"/>
	<path fill="none" stroke="#26A69A" stroke-width="9" stroke-miterlimit="10" d="M460.107,337.57
		c-0.002-0.001-0.011-0.003-0.011-0.003c-40.944-10.927-84.979,0.877-114.915,30.813c-25.767,25.767-38.188,61.33-34.08,97.573
		c0,0.001,0,0.002,0,0.004c0,0.001,0,0.002,0,0.004c0.354,3.094,2.977,5.373,6.016,5.373c0.232,0,0.465-0.015,0.699-0.041
		c34.528-3.96,66.705-18.133,93.041-40.985c26.094-22.64,44.604-52.14,53.528-85.311C465.258,341.766,463.342,338.44,460.107,337.57
		z"/>
	<path fill="none" stroke="#26A69A" stroke-width="9" stroke-miterlimit="10" d="M135.901,337.567c-0.001,0-0.002,0.001-0.002,0.001
		c-0.003,0.001-0.006,0.001-0.009,0.002c-3.233,0.87-5.149,4.194-4.279,7.43c8.925,33.169,27.435,62.668,53.529,85.311
		c26.337,22.852,58.511,37.023,93.041,40.984c0.235,0.025,0.468,0.04,0.699,0.04c3.038,0,5.661-2.28,6.015-5.373
		c0-0.001,0-0.002,0-0.004c0-0.001,0.001-0.001,0.001-0.003c4.107-36.243-8.313-71.808-34.08-97.574
		C220.881,338.444,176.85,326.638,135.901,337.567z"/>
	<path fill="none" stroke="#26A69A" stroke-width="9" stroke-miterlimit="10" d="M419.002,177.467
		c-32.445-32.014-75.42-49.645-121.004-49.645c-45.583,0-88.556,17.631-121.003,49.645c-32.414,31.981-50.623,74.648-51.271,120.14
		c-0.036,2.574,1.556,4.891,3.973,5.777c0.683,0.251,1.389,0.372,2.088,0.372c1.775,0,3.504-0.779,4.678-2.206
		c36.133-43.813,96.521-69.969,161.536-69.969c65.015,0,125.4,26.156,161.535,69.969c1.639,1.986,4.35,2.72,6.768,1.832
		c2.416-0.886,4.009-3.201,3.972-5.776C469.625,252.115,451.416,209.448,419.002,177.467z"/>
</g>
</svg>
