<?xml version="1.0" encoding="utf-8"?>
<!-- Generator: Adobe Illustrator 16.0.0, SVG Export Plug-In . SVG Version: 6.00 Build 0)  -->
<!DOCTYPE svg PUBLIC "-//W3C//DTD SVG 1.1//EN" "http://www.w3.org/Graphics/SVG/1.1/DTD/svg11.dtd">
<svg version="1.1" id="Capa_1" xmlns="http://www.w3.org/2000/svg" xmlns:xlink="http://www.w3.org/1999/xlink" x="0px" y="0px"
	 width="600px" height="600px" viewBox="0 0 600 600" enable-background="new 0 0 600 600" xml:space="preserve">
<circle fill="none" stroke="#26A69A" stroke-width="9" stroke-miterlimit="10" cx="300" cy="300" r="286"/>
<g id="beautician">
	<g>
		<path fill="none" stroke="#26A69A" stroke-width="9" stroke-miterlimit="10" d="M429.195,251.701
			c0.214-3.276-3.606-11.573-10.251-22.188c2.771-10.256,5.229-22.57,4.147-31.008c-2.177-17.005-13.971-49.562-40.113-54.075
			c-11.619-1.999-27,2.085-40.256,7.072c-12.108-6.958-24.507-11.425-36.494-11.425c-15.886,0-29.618,8.289-39.464,16.669
			c-7.379-2.428-13.721-3.22-18.533-1.851c-10.164,2.897-18.034,16.828-22.08,25.622c-4.984-1.927-9.065-2.596-11.933-1.636
			c-15.05,5.055-25.733,47.094-27.042,54.504c-0.161,0.859,1.987,3.422,5.798,7.202c-5.13,18.063-5.478,31.616-4.61,35.109
			c1.354,5.371,7.161,8.339,7.038,15.418c-0.251,14.231-25.132,37.777-25.132,47.886c0,7.561,20.073,10.32,20.073,10.32
			s1.665,4.66-1.694,13.694c-3.35,9.058,6.236,19.554,9.117,23.224c2.835,3.646,0.561,25.262,2.887,31.631
			c2.344,6.346,8.851,10.006,20.982,5.854c13.184-4.498,29.427-11.108,35.3-9.37c12.811,30.147-18.064,45.567-18.064,45.567h162.402
			c0,0-47.125-37.873-46.135-79.389c0.071-3.064,0.973-6.226,2.401-9.564c10.149-0.192,33.716-8.514,35.903-25.08
			c0.216-1.678-0.604-4.239-2.125-7.397c13.708-7.584,37.876-23.178,37.876-38.825c0-3.546-3.466-9.817-9.453-17.824
			C423.788,272.35,428.695,259.497,429.195,251.701z M312.57,287.597c-1.602-21.611-16.954-30.653-16.954-30.653
			s-7.731,25.816,3.862,36.48c-9.974,5.34-38.446-4.385-38.595-14.818c-0.128-10.42,26.412-24.958,26.412-24.958
			s-37.099,1.378-36.71,11.354c-10.624-5.525-13.721-22.96,1.309-33.444c11.046-7.717,34.385,12.65,34.385,12.65
			s-17.211-27.348-29.174-20.899c5.334-16.276,30.307-28.867,50.149-18.003c-24.636,6.03-12.13,36.348-12.13,36.348
			s4.9-26.931,15.614-30.436c15.919-5.223,31.924,16.18,24.166,29.097c-11.947-4.792-34.747,9.5-34.747,9.5
			s31.323,1.886,36.934,11.419C342.684,270.771,324.326,286.728,312.57,287.597z"/>
	</g>
</g>
</svg>
