<?xml version="1.0" encoding="utf-8"?>
<!-- Generator: Adobe Illustrator 16.0.0, SVG Export Plug-In . SVG Version: 6.00 Build 0)  -->
<!DOCTYPE svg PUBLIC "-//W3C//DTD SVG 1.1//EN" "http://www.w3.org/Graphics/SVG/1.1/DTD/svg11.dtd">
<svg version="1.1" id="Capa_1" xmlns="http://www.w3.org/2000/svg" xmlns:xlink="http://www.w3.org/1999/xlink" x="0px" y="0px"
	 width="600px" height="600px" viewBox="0 0 600 600" enable-background="new 0 0 600 600" xml:space="preserve">
<circle fill="none" stroke="#26A69A" stroke-width="9" stroke-miterlimit="10" cx="300" cy="300" r="286"/>
<path id="XMLID_975_" fill="#26A69A" d="M301.744,264.905c0,3.05-2.475,5.524-5.524,5.524c-37.541,0-68.083,30.541-68.083,68.082
	c0,3.051-2.473,5.523-5.522,5.523c-3.051,0-5.524-2.474-5.524-5.523c0-43.632,35.499-79.13,79.131-79.13
	C299.271,259.382,301.744,261.855,301.744,264.905z M448.965,257.551c-16.188-32.578-43.707-57.9-77.486-71.308
	c-2.834-1.125-6.047,0.26-7.172,3.097c-1.125,2.834,0.262,6.045,3.096,7.171c31.244,12.399,56.696,35.822,71.67,65.954
	c0.965,1.942,2.92,3.068,4.951,3.068c0.825,0,1.664-0.188,2.453-0.58C449.209,263.598,450.322,260.283,448.965,257.551z
	 M408.819,263.24c1.06,1.624,2.827,2.505,4.631,2.505c1.035,0,2.082-0.291,3.014-0.899c2.556-1.668,3.273-5.091,1.606-7.645
	c-11.508-17.627-27.475-31.981-46.174-41.51c-2.718-1.385-6.045-0.304-7.43,2.414c-1.386,2.718-0.304,6.044,2.413,7.429
	C383.863,234.19,398.366,247.228,408.819,263.24z M440.638,408.639c0,10.914-8.88,19.793-19.794,19.793H180.909
	c-10.915,0-19.793-8.879-19.793-19.793s8.878-19.795,19.793-19.795h60.734v-11.822h-54.93c-3.05,0-5.523-2.473-5.523-5.523v-28.54
	c0-31.845,12.484-61.866,35.154-84.534c21.353-21.354,49.231-33.67,79.009-35.026v-30.221h-1.611
	c-10.914,0-19.793-8.88-19.793-19.794s8.879-19.793,19.793-19.793h14.271c10.913,0,19.793,8.879,19.793,19.793
	s-8.88,19.794-19.793,19.794H306.4v30.22c29.776,1.357,57.656,13.674,79.01,35.026c22.67,22.669,35.154,52.69,35.154,84.533v28.542
	c0,3.05-2.476,5.522-5.525,5.522h-54.928v11.823h60.731C431.758,388.844,440.638,397.725,440.638,408.639z M300.876,182.128h7.136
	c4.822,0,8.746-3.924,8.746-8.747c0-4.823-3.924-8.747-8.746-8.747h-14.27c-4.822,0-8.746,3.924-8.746,8.747
	c0,4.823,3.924,8.747,8.746,8.747H300.876z M354.587,365.974h54.929v-23.017c0-59.904-48.734-108.64-108.64-108.64
	c-59.903,0-108.638,48.735-108.638,108.64v23.017H354.587z M252.69,377.021v11.822h96.373v-11.822H252.69z M429.591,408.639
	c0-4.821-3.924-8.747-8.747-8.747H180.909c-4.823,0-8.746,3.926-8.746,8.747c0,4.823,3.923,8.746,8.746,8.746h239.935
	C425.667,417.385,429.591,413.462,429.591,408.639z"/>
</svg>
