<?xml version="1.0" encoding="utf-8"?>
<!-- Generator: Adobe Illustrator 16.0.0, SVG Export Plug-In . SVG Version: 6.00 Build 0)  -->
<!DOCTYPE svg PUBLIC "-//W3C//DTD SVG 1.1//EN" "http://www.w3.org/Graphics/SVG/1.1/DTD/svg11.dtd">
<svg version="1.1" id="Capa_1" xmlns="http://www.w3.org/2000/svg" xmlns:xlink="http://www.w3.org/1999/xlink" x="0px" y="0px"
	 width="600px" height="600px" viewBox="0 0 600 600" enable-background="new 0 0 600 600" xml:space="preserve">
<circle fill="none" stroke="#26A69A" stroke-width="9" stroke-miterlimit="10" cx="300" cy="300" r="286"/>
<g>
	<path fill="#26A69A" d="M182.252,206.64c6.211,5.033,14.21,7.591,23.793,7.591c20.779,0,37.684-16.905,37.684-37.685
		c0-9.886-3.244-18.275-9.628-24.99c1.13-1.511,1.757-3.059,1.908-4.676c0.512-5.483-4.717-9.581-8.695-12.187
		c-7.304-4.783-15.211-7.209-23.503-7.209c-4.884,0-9.907,0.854-14.93,2.538c-8.583,2.876-19.773,10.134-25.444,21.874
		c-4.559,9.44-4.792,19.967-0.692,31.288C168.541,199.188,180.04,205.541,182.252,206.64z M236.918,184.233h-7.987
		c-6.926,0-12.56,5.634-12.56,12.56v3.73c0,1.619,1.313,2.933,2.934,2.933c1.62,0,2.933-1.313,2.933-2.933v-3.73
		c0-3.69,3.002-6.693,6.693-6.693h5.892c-0.86,1.82-1.89,3.544-3.065,5.156h-4.375c-1.62,0-2.933,1.313-2.933,2.934
		c0,1.284,0.832,2.365,1.982,2.761c-5.525,4.623-12.636,7.413-20.387,7.413c-7.287,0-13.437-1.667-18.324-4.961
		c2.393-5.821-0.439-14.454-1.13-16.381c-0.308-0.858-0.997-1.523-1.864-1.802c-2.451-0.788-4.098-3.049-4.098-5.626
		c0-3.257,2.649-5.906,5.907-5.906c3.258,0,5.907,2.649,5.907,5.906v13.108c0,1.619,1.313,2.933,2.933,2.933h8.536
		c1.543,0,2.824-1.197,2.927-2.737c0.07-1.059-0.093-2.369-0.32-4.182c-1.282-10.241-1.539-21.63,11.728-27.142
		c4.929-2.047,8.74-4.03,11.559-6.029c5.412,5.651,8.058,12.542,8.058,21.001C237.863,179.196,237.532,181.771,236.918,184.233z
		 M168.719,154.448c4.879-10.101,14.577-16.368,22.026-18.864c4.42-1.483,8.817-2.233,13.066-2.233
		c7.131,0,13.957,2.103,20.289,6.249c4.07,2.666,6.225,5.058,6.068,6.735c-0.115,1.23-1.726,4.652-14.173,9.822
		c-18.504,7.687-16.258,25.627-15.299,33.288c0.014,0.107,0.027,0.216,0.041,0.323h-2.429v-10.175
		c0-6.491-5.282-11.773-11.773-11.773c-6.492,0-11.773,5.282-11.773,11.773c0,4.606,2.642,8.705,6.711,10.634
		c0.963,3.167,1.614,7.239,1.148,9.822c-3.628-2.423-10.49-8.173-14.362-18.864C164.719,171.407,164.873,162.411,168.719,154.448z"
		/>
	<path fill="#26A69A" d="M468.829,339.569h-2.858c0.761-1.395,1.19-2.991,1.19-4.688v-22.544c0-5.423-4.411-9.835-9.834-9.835
		h-27.549v-10.984c0-5.422-4.412-9.835-9.834-9.835h-3.395v-5.329c3.45-1.528,5.866-4.98,5.866-8.991v-68.669
		c0-5.422-4.412-9.834-9.834-9.834h-10.007c-5.423,0-9.835,4.412-9.835,9.834v60.128l-2.512,1.366l-3.74-6.67
		c-0.793-1.413-2.581-1.915-3.994-1.124l-9.932,5.569c-0.68,0.381-1.179,1.016-1.391,1.765c-0.21,0.749-0.113,1.551,0.266,2.229
		l3.635,6.48l-2.67,1.453l-3.75-6.688c-0.793-1.413-2.58-1.915-3.993-1.124l-9.933,5.569c-0.679,0.381-1.179,1.015-1.389,1.764
		c-0.212,0.749-0.115,1.551,0.266,2.229l3.644,6.498l-2.726,1.482l-3.567-6.359c-0.791-1.412-2.58-1.916-3.992-1.124l-9.932,5.569
		c-0.679,0.38-1.179,1.015-1.39,1.764s-0.115,1.551,0.267,2.229l3.459,6.17l-5.138,2.796c-0.942,0.514-1.53,1.502-1.53,2.577v46.325
		h-41.376c-4.867-5.172-6.024-10.004-6.118-13.195l1.186,0.717c0.461,0.28,0.987,0.423,1.518,0.423c0.235,0,0.47-0.026,0.702-0.085
		c0.755-0.186,1.405-0.664,1.808-1.329l9.166-15.157l12.8,7.74c0.665,0.403,1.464,0.525,2.22,0.339
		c0.756-0.188,1.405-0.665,1.81-1.33l9.285-15.354c2.805-4.641,1.313-10.699-3.327-13.505l-14.395-8.704
		c-2.285-1.449-4.766-1.917-7.176-1.354c-2.037,0.475-3.992,1.711-5.63,3.488c-1.264-1.635-2.823-3.086-4.662-4.263l-55.645-35.587
		c-0.024-0.19-0.067-0.381-0.13-0.57c-5.211-15.428-19.021-26.204-33.581-26.204h-5.199c-16.296,0-28.333,13.536-30.665,34.485
		c-0.012,0.107-0.018,0.216-0.018,0.324v89.124h-20.809c-5.422,0-9.834,4.411-9.834,9.834v4.141c0,5.423,4.412,9.835,9.834,9.835
		h1.122v102.4c0,1.619,1.313,2.933,2.933,2.933H469.52c1.62,0,2.935-1.313,2.935-2.933V362.682c3.633-1.446,6.211-4.991,6.211-9.135
		v-4.141C478.664,343.981,474.252,339.569,468.829,339.569z M382.807,258.946l1.357,2.422l-4.814,2.7l-1.357-2.422L382.807,258.946z
		 M364.973,268.631l1.356,2.422l-4.813,2.701l-1.358-2.422L364.973,268.631z M347.273,278.69l1.358,2.422l-4.813,2.7l-1.359-2.421
		L347.273,278.69z M461.296,312.338v22.544c0,2.188-1.781,3.969-3.969,3.969h-1.955v-15.758c0-1.62-1.313-2.934-2.935-2.934
		c-1.62,0-2.933,1.313-2.933,2.934v15.758H421.67c-2.188,0-3.968-1.779-3.968-3.969v-22.544c0-2.188,1.78-3.969,3.968-3.969h35.657
		C459.516,308.369,461.296,310.149,461.296,312.338z M398.973,339.569c-2.205,0-4.619-2.138-4.619-4.343v-33.99h10.983
		c1.62,0,2.933-1.313,2.933-2.932c0-1.62-1.313-2.934-2.933-2.934h-10.983v-3.853c0-2.188,1.779-3.969,3.968-3.969h21.624
		c2.188,0,3.969,1.781,3.969,3.969v10.984h-2.243c-5.422,0-9.834,4.412-9.834,9.835v22.544c0,1.696,0.432,3.294,1.19,4.688
		L398.973,339.569L398.973,339.569z M398.607,198.694c0-2.188,1.779-3.969,3.969-3.969h3.05v58.835c0,1.619,1.313,2.934,2.933,2.934
		c1.62,0,2.935-1.314,2.935-2.934v-58.835h1.091c2.188,0,3.968,1.781,3.968,3.969v68.669c0,2.188-1.78,3.969-3.968,3.969h-10.007
		c-2.188,0-3.969-1.78-3.969-3.969L398.607,198.694L398.607,198.694z M338.564,294.986l54.177-29.486v1.862
		c0,5.423,4.412,9.835,9.835,9.835h8.107v4.486h-12.364c-5.423,0-9.835,4.411-9.835,9.834v43.708c0,1.546,0.38,3.02,1.033,4.344
		h-8.601c0.927-1.5,1.472-3.26,1.472-5.147V323.38c0-5.423-4.412-9.835-9.835-9.835H355.3c-5.422,0-9.834,4.412-9.834,9.835v11.042
		c0,1.889,0.544,3.648,1.472,5.147h-8.373V294.986z M364.445,328.269h12.076v6.154c0,2.188-1.778,3.968-3.967,3.968H355.3
		c-2.188,0-3.969-1.779-3.969-3.968V323.38c0-2.188,1.781-3.968,3.969-3.968h17.255c1.851,0,3.403,1.273,3.842,2.99h-11.951
		c-1.619,0-2.934,1.313-2.934,2.934C361.514,326.955,362.826,328.269,364.445,328.269z M240.789,339.569l-2.359-50.901l32.118,20.54
		c2.154,1.378,4.547,2.278,7.038,2.679c-0.769,3.576-0.36,7.793,2.056,10.626c-0.564,3.162-0.831,9.738,4.162,17.058
		L240.789,339.569L240.789,339.569z M320.678,299.299l-7.768,12.846l-3.578-2.164l9.518-16.423l0.486,0.293
		C321.207,294.982,321.809,297.427,320.678,299.299z M298.344,287.746c1.032-1.707,2.484-2.957,3.789-3.262
		c0.557-0.13,1.443-0.207,2.717,0.605c0.021,0.013,0.041,0.025,0.063,0.038l8.917,5.393l-9.519,16.424l-4.2-2.542
		c-0.666-0.402-1.464-0.524-2.22-0.338c-0.755,0.187-1.406,0.664-1.808,1.33l-9.167,15.157l-2.408-1.456
		c-1.731-1.302-1.705-4.92-0.824-7.245c5.092-0.872,9.606-3.822,12.45-8.269c3.081-4.819,3.645-10.538,2.033-15.604
		C298.227,287.901,298.291,287.83,298.344,287.746z M291.191,300.422c-2.34,3.657-6.331,5.84-10.679,5.84
		c-2.41,0-4.762-0.689-6.804-1.996l-76.989-49.238c-5.879-3.761-7.603-11.604-3.843-17.482c2.339-3.657,6.33-5.841,10.678-5.841
		c2.41,0,4.763,0.69,6.805,1.997l76.989,49.239C293.227,286.7,294.952,294.543,291.191,300.422z M171.138,250.61
		c1.543-13.465,8.953-29.108,24.816-29.108h5.198c9.571,0,19.072,6.058,24.683,15.135l-12.316-7.878
		c-2.988-1.91-6.433-2.92-9.965-2.92c-6.358,0-12.197,3.194-15.62,8.546c-5.503,8.604-2.979,20.081,5.625,25.585l38.82,24.827
		l1.119,24.148h-9.158c-1.62,0-2.934,1.313-2.934,2.934s1.313,2.934,2.934,2.934h9.43l1.148,24.758h-63.78V250.61z M151.45,462.847
		v-31.401h136.562c1.62,0,2.933-1.313,2.933-2.934s-1.313-2.933-2.933-2.933H151.45v-15.528h37.182c1.62,0,2.933-1.313,2.933-2.934
		c0-1.619-1.313-2.934-2.933-2.934H151.45V363.38h259.233v23.724c0,1.619,1.313,2.934,2.935,2.934s2.933-1.313,2.933-2.934V363.38
		h19.669v64.442c0,1.619,1.314,2.933,2.935,2.933s2.934-1.313,2.934-2.933V363.38h24.5v99.467H151.45L151.45,462.847z
		 M472.798,353.545c0,2.188-1.78,3.969-3.969,3.969H144.462c-2.188,0-3.968-1.78-3.968-3.969v-4.141c0-2.188,1.781-3.97,3.968-3.97
		h324.367c2.188,0,3.969,1.781,3.969,3.97V353.545z"/>
</g>
</svg>
