<?xml version="1.0" encoding="utf-8"?>
<!-- Generator: Adobe Illustrator 16.0.0, SVG Export Plug-In . SVG Version: 6.00 Build 0)  -->
<!DOCTYPE svg PUBLIC "-//W3C//DTD SVG 1.1//EN" "http://www.w3.org/Graphics/SVG/1.1/DTD/svg11.dtd">
<svg version="1.1" id="Capa_1" xmlns="http://www.w3.org/2000/svg" xmlns:xlink="http://www.w3.org/1999/xlink" x="0px" y="0px"
	 width="600px" height="600px" viewBox="0 0 600 600" enable-background="new 0 0 600 600" xml:space="preserve">
<circle fill="none" stroke="#26A69A" stroke-width="9" stroke-miterlimit="10" cx="300" cy="300" r="286"/>
<g>
	<g>
		<path fill="none" stroke="#26A69A" stroke-width="9" stroke-miterlimit="10" d="M195.53,231.919
			c0.524-0.256,1.034-0.532,1.527-0.809c0.25,0.33,0.513,0.646,0.821,0.949l28.894,28.901c1.808-2.121,4.47-3.457,7.355-3.457
			c0.934,0,1.864,0.134,2.76,0.4l3.604,1.072l2.242-7.544l-32.114-32.116c-0.51-0.504-1.058-0.927-1.649-1.289l0.076-0.332
			c0.076-0.306,0.175-0.535,0.268-0.799c0.074-0.196,0.152-0.403,0.225-0.62c0.093-0.21,0.186-0.434,0.28-0.666
			c0.16-0.388,0.329-0.808,0.547-1.234l0.603-1.226l0.687-1.213c0.29-0.558,0.617-1.042,0.991-1.595
			c0.2-0.293,0.4-0.599,0.605-0.907c0.18-0.241,0.37-0.487,0.556-0.741c0.468-0.618,0.904-1.204,1.378-1.71l0.331-0.365
			c0.627-0.685,1.254-1.392,1.984-1.994c0.232-0.207,0.407-0.368,0.592-0.531c0.247-0.229,0.497-0.464,0.763-0.675l1.408-1.022
			c0.047-0.027,0.08-0.057,0.111-0.088c0.563-0.45,1.239-0.831,1.961-1.233c0.289-0.158,0.57-0.314,0.854-0.484
			c0.604-0.388,1.228-0.638,1.891-0.903c0.334-0.141,0.662-0.274,0.996-0.417c0.192-0.076,0.39-0.165,0.583-0.251
			c0.21-0.086,0.417-0.19,0.627-0.243l1.548-0.435c0.307-0.076,0.664-0.179,1.025-0.284c0.503-0.147,0.99-0.286,1.317-0.33
			l4.144-0.606c0.603-0.087,1.137-0.368,1.549-0.774c0.449-0.454,0.75-1.069,0.792-1.744c0.089-1.289-0.73-2.466-1.967-2.829
			l-4.083-1.162c-0.71-0.213-1.465-0.324-2.192-0.43c-0.324-0.05-0.655-0.098-1.005-0.156l-1.788-0.277
			c-0.561-0.091-1.087-0.104-1.555-0.114c-0.184-0.006-0.37-0.01-0.563-0.019c-0.468-0.007-0.807-0.025-1.157-0.042
			c-1.041-0.043-2.219-0.089-3.47,0.074l-0.792,0.064c-1.198,0.1-2.57,0.21-3.947,0.541l-2.209,0.446
			c-0.679,0.168-1.248,0.344-1.818,0.521l-0.697,0.213c-1.597,0.443-3.108,1.077-4.57,1.694l-0.201,0.084
			c-1.255,0.52-2.394,1.127-3.494,1.713l-0.914,0.486c-0.063,0.032-0.112,0.068-0.176,0.101c-0.353,0.22-0.714,0.437-1.065,0.65
			c-0.953,0.577-1.946,1.175-2.863,1.856l-1.527,1.09c-0.033,0.027-0.183,0.136-0.22,0.167l-1.512,1.207
			c-0.407,0.314-0.783,0.633-1.143,0.948c-2.722,0.453-5.338,1.716-7.436,3.82l-3.237,3.231c-1.49,1.492-2.888,3.584-4.04,5.929
			c-5.075-0.975-11.96,6.519-22.229,16.784l22.963,22.952C186.625,246.271,196.511,236.993,195.53,231.919z"/>
		<path fill="none" stroke="#26A69A" stroke-width="9" stroke-miterlimit="10" d="M375.591,230.496l14.468,2.798l14.725-18.591
			c2.688-3.374,7.16-4.918,11.334-3.931v-8.006H394.37v17.397h-23.42L375.591,230.496z"/>
		<path fill="none" stroke="#26A69A" stroke-width="9" stroke-miterlimit="10" d="M222.438,262.312l-23.311-23.883
			c-3.192,4.396-6.354,8.957-11.27,13.838l-6.573,6.566v54.824h-7.072v76.11c0,24.015,19.478,43.486,43.496,43.486h161.996
			c24.021,0,43.485-19.469,43.485-43.486v-76.11h-7.072v-55.726c-0.392,0.536-0.777,1.077-1.195,1.601
			c-6.051,7.644-14.082,13.144-23.084,16.073h2.541v38.052h-50.975h-7.289l27.301-37.225c0.496-0.633,0.951-1.288,1.375-1.958
			c15.253,3.823,32.033-1.269,42.414-14.368c7.574-9.563,10.52-21.908,8.074-33.88c-0.271-1.356-1.313-2.43-2.656-2.754
			c-1.35-0.317-2.76,0.169-3.623,1.251l-17.598,22.217l-22.879-4.429l-9.554-21.261l17.605-22.219
			c0.86-1.083,1.012-2.572,0.393-3.807c-0.623-1.239-1.903-2.004-3.282-1.965c-12.22,0.36-23.564,6.049-31.142,15.611
			c-10.368,13.093-11.49,30.585-4.299,44.553c-0.543,0.573-1.077,1.181-1.593,1.827l-35.327,42.029l8.55,8.551
			c2.216,2.216,3.766,4.9,4.592,7.826h-3.813c-0.696-1.92-1.797-3.722-3.344-5.262l-48.631-48.642l-1.264,4.24l3.295,0.981
			c2.48,0.733,4.524,2.391,5.755,4.663c1.23,2.271,1.503,4.892,0.768,7.369c-0.397,1.327-1.079,2.553-1.979,3.587
			c0.254,2.272,0.061,4.573-0.609,6.787l-4.367,14.709l11.566,11.559h-3.706h-8.095h-8.123l8.588-28.912
			c0.737-2.462,0.675-4.974-0.016-7.263c1.21-0.617,2.181-1.712,2.601-3.118c0.805-2.726-0.748-5.596-3.476-6.402l-7.633-2.272
			l20.749-69.837l0.653,0.194l5.375-10.406l2.108-16.229l-8.958-2.658l-6.972,14.789l-1.12,11.667l0.663,0.198l-20.75,69.841
			l-7.944-2.359c-2.719-0.81-5.594,0.744-6.402,3.47c-0.389,1.317-0.229,2.665,0.348,3.804c-1.911,1.551-3.399,3.68-4.154,6.218
			l-11.653,39.284h-7.767h-3.136"/>
	</g>
</g>
</svg>
