<?xml version="1.0" encoding="iso-8859-1"?>
<!-- Generator: Adobe Illustrator 19.0.0, SVG Export Plug-In . SVG Version: 6.00 Build 0)  -->
<svg version="1.1" id="Layer_1" xmlns="http://www.w3.org/2000/svg" xmlns:xlink="http://www.w3.org/1999/xlink" x="0px" y="0px"
	 viewBox="0 0 473.931 473.931" style="enable-background:new 0 0 473.931 473.931;" xml:space="preserve">
<circle style="fill:#A2D4DE;" cx="236.966" cy="236.966" r="236.966"/>
<path style="fill:#98C8D0;" d="M210.751,219.537h-77.776V74.319c0-5.265,4.269-9.53,9.527-9.53h58.719
	c5.257,0,9.527,4.266,9.527,9.53v145.218H210.751z"/>
<path style="fill:#8BBEC3;" d="M132.975,74.319c0-5.265,4.269-9.53,9.527-9.53h58.719c5.257,0,9.527,4.266,9.527,9.53H132.975z"/>
<g>
	<path style="fill:#E1E0E0;" d="M146.688,216.132c-0.64,0-1.16-0.513-1.16-1.156v-7.147c0-0.636,0.52-1.16,1.16-1.16h16.505
		c0.644,0,1.164,0.524,1.164,1.16v7.147c0,0.644-0.52,1.156-1.164,1.156H146.688z"/>
	<path style="fill:#E1E0E0;" d="M180.529,216.132c-0.636,0-1.156-0.513-1.156-1.156v-7.147c0-0.636,0.52-1.16,1.156-1.16h16.512
		c0.632,0,1.152,0.524,1.152,1.16v7.147c0,0.644-0.52,1.156-1.152,1.156H180.529z"/>
	<path style="fill:#E1E0E0;" d="M180.529,197.09c-0.636,0-1.156-0.516-1.156-1.16v-7.147c0-0.636,0.52-1.156,1.156-1.156h4.209
		c0.636,0,1.16,0.52,1.16,1.156v7.147c0,0.644-0.524,1.16-1.16,1.16H180.529z"/>
	<path style="fill:#E1E0E0;" d="M192.832,197.09c-0.64,0-1.156-0.516-1.156-1.16v-7.147c0-0.636,0.516-1.156,1.156-1.156h4.213
		c0.632,0,1.152,0.52,1.152,1.156v7.147c0,0.644-0.52,1.16-1.152,1.16H192.832z"/>
	<path style="fill:#E1E0E0;" d="M146.673,197.09c-0.64,0-1.164-0.516-1.164-1.16v-7.147c0-0.636,0.524-1.156,1.164-1.156h4.206
		c0.64,0,1.16,0.52,1.16,1.156v7.147c0,0.644-0.52,1.16-1.16,1.16H146.673z"/>
	<path style="fill:#E1E0E0;" d="M158.972,197.09c-0.632,0-1.16-0.516-1.16-1.16v-7.147c0-0.636,0.528-1.156,1.16-1.156h4.209
		c0.64,0,1.164,0.52,1.164,1.156v7.147c0,0.644-0.524,1.16-1.164,1.16H158.972z"/>
	<path style="fill:#E1E0E0;" d="M180.529,172.488c-0.636,0-1.156-0.52-1.156-1.156v-7.147c0-0.636,0.52-1.16,1.156-1.16h4.209
		c0.636,0,1.16,0.524,1.16,1.16v7.147c0,0.636-0.524,1.156-1.16,1.156H180.529z"/>
	<path style="fill:#E1E0E0;" d="M192.832,172.488c-0.64,0-1.156-0.52-1.156-1.156v-7.147c0-0.636,0.516-1.16,1.156-1.16h4.213
		c0.632,0,1.152,0.524,1.152,1.16v7.147c0,0.636-0.52,1.156-1.152,1.156H192.832z"/>
	<path style="fill:#E1E0E0;" d="M146.673,172.488c-0.64,0-1.164-0.52-1.164-1.156v-7.147c0-0.636,0.524-1.16,1.164-1.16h4.206
		c0.64,0,1.16,0.524,1.16,1.16v7.147c0,0.636-0.52,1.156-1.16,1.156H146.673z"/>
	<path style="fill:#E1E0E0;" d="M158.972,172.488c-0.632,0-1.16-0.52-1.16-1.156v-7.147c0-0.636,0.528-1.16,1.16-1.16h4.209
		c0.64,0,1.164,0.524,1.164,1.16v7.147c0,0.636-0.524,1.156-1.164,1.156H158.972z"/>
	<path style="fill:#E1E0E0;" d="M180.529,147.889c-0.636,0-1.156-0.528-1.156-1.16v-7.143c0-0.636,0.52-1.164,1.156-1.164h4.209
		c0.636,0,1.16,0.528,1.16,1.164v7.143c0,0.632-0.524,1.16-1.16,1.16H180.529z"/>
	<path style="fill:#E1E0E0;" d="M192.832,147.889c-0.64,0-1.156-0.528-1.156-1.16v-7.143c0-0.636,0.516-1.164,1.156-1.164h4.213
		c0.632,0,1.152,0.528,1.152,1.164v7.143c0,0.632-0.52,1.16-1.152,1.16H192.832z"/>
	<path style="fill:#E1E0E0;" d="M146.673,147.889c-0.64,0-1.164-0.528-1.164-1.16v-7.143c0-0.636,0.524-1.164,1.164-1.164h4.206
		c0.64,0,1.16,0.528,1.16,1.164v7.143c0,0.632-0.52,1.16-1.16,1.16H146.673z"/>
	<path style="fill:#E1E0E0;" d="M158.972,147.889c-0.632,0-1.16-0.528-1.16-1.16v-7.143c0-0.636,0.528-1.164,1.16-1.164h4.209
		c0.64,0,1.164,0.528,1.164,1.164v7.143c0,0.632-0.524,1.16-1.164,1.16H158.972z"/>
	<path style="fill:#E1E0E0;" d="M180.529,123.291c-0.636,0-1.156-0.524-1.156-1.156v-7.147c0-0.636,0.52-1.156,1.156-1.156h4.209
		c0.636,0,1.16,0.52,1.16,1.156v7.147c0,0.632-0.524,1.156-1.16,1.156H180.529z"/>
	<path style="fill:#E1E0E0;" d="M192.832,123.291c-0.64,0-1.156-0.524-1.156-1.156v-7.147c0-0.636,0.516-1.156,1.156-1.156h4.213
		c0.632,0,1.152,0.52,1.152,1.156v7.147c0,0.632-0.52,1.156-1.152,1.156H192.832z"/>
	<path style="fill:#E1E0E0;" d="M146.673,123.291c-0.64,0-1.164-0.524-1.164-1.156v-7.147c0-0.636,0.524-1.156,1.164-1.156h4.206
		c0.64,0,1.16,0.52,1.16,1.156v7.147c0,0.632-0.52,1.156-1.16,1.156H146.673z"/>
	<path style="fill:#E1E0E0;" d="M158.972,123.291c-0.632,0-1.16-0.524-1.16-1.156v-7.147c0-0.636,0.528-1.156,1.16-1.156h4.209
		c0.64,0,1.164,0.52,1.164,1.156v7.147c0,0.632-0.524,1.156-1.164,1.156H158.972z"/>
	<path style="fill:#E1E0E0;" d="M180.529,98.685c-0.636,0-1.156-0.516-1.156-1.156v-7.143c0-0.644,0.52-1.167,1.156-1.167h4.209
		c0.636,0,1.16,0.524,1.16,1.167v7.143c0,0.64-0.524,1.156-1.16,1.156H180.529z"/>
	<path style="fill:#E1E0E0;" d="M192.832,98.685c-0.64,0-1.156-0.516-1.156-1.156v-7.143c0-0.644,0.516-1.167,1.156-1.167h4.213
		c0.632,0,1.152,0.524,1.152,1.167v7.143c0,0.64-0.52,1.156-1.152,1.156H192.832z"/>
	<path style="fill:#E1E0E0;" d="M146.673,98.685c-0.64,0-1.164-0.516-1.164-1.156v-7.143c0-0.644,0.524-1.167,1.164-1.167h4.206
		c0.64,0,1.16,0.524,1.16,1.167v7.143c0,0.64-0.52,1.156-1.16,1.156H146.673z"/>
	<path style="fill:#E1E0E0;" d="M158.972,98.685c-0.632,0-1.16-0.516-1.16-1.156v-7.143c0-0.644,0.528-1.167,1.16-1.167h4.209
		c0.64,0,1.164,0.524,1.164,1.167v7.143c0,0.64-0.524,1.156-1.164,1.156H158.972z"/>
</g>
<path style="fill:#8BBEC3;" d="M168.114,207.559c0-0.505,0.415-0.92,0.913-0.92h5.654c0.501,0,0.917,0.415,0.917,0.92v11.977h-7.484
	V207.559z"/>
<circle style="fill:#CDCCCB;" cx="169.277" cy="213.131" r="0.468"/>
<path style="fill:#98C8D0;" d="M339.898,219.537h-77.765V74.319c0-5.265,4.269-9.53,9.523-9.53h58.727
	c5.257,0,9.515,4.266,9.515,9.53V219.537z"/>
<path style="fill:#8BBEC3;" d="M262.133,74.319c0-5.265,4.269-9.53,9.523-9.53h58.727c5.257,0,9.515,4.266,9.515,9.53H262.133z"/>
<g>
	<path style="fill:#E1E0E0;" d="M275.835,216.132c-0.632,0-1.149-0.513-1.149-1.156v-7.147c0-0.636,0.516-1.16,1.149-1.16h16.512
		c0.64,0,1.16,0.524,1.16,1.16v7.147c0,0.644-0.52,1.156-1.16,1.156H275.835z"/>
	<path style="fill:#E1E0E0;" d="M309.687,216.132c-0.644,0-1.164-0.513-1.164-1.156v-7.147c0-0.636,0.52-1.16,1.164-1.16h16.509
		c0.64,0,1.156,0.524,1.156,1.16v7.147c0,0.644-0.516,1.156-1.156,1.156H309.687z"/>
	<path style="fill:#E1E0E0;" d="M309.687,197.09c-0.644,0-1.164-0.516-1.164-1.16v-7.147c0-0.636,0.52-1.156,1.164-1.156h4.206
		c0.64,0,1.164,0.52,1.164,1.156v7.147c0,0.644-0.524,1.16-1.164,1.16H309.687z"/>
	<path style="fill:#E1E0E0;" d="M321.982,197.09c-0.632,0-1.16-0.516-1.16-1.16v-7.147c0-0.636,0.528-1.156,1.16-1.156h4.213
		c0.64,0,1.156,0.52,1.156,1.156v7.147c0,0.644-0.516,1.16-1.156,1.16H321.982z"/>
	<path style="fill:#E1E0E0;" d="M275.82,197.09c-0.636,0-1.156-0.516-1.156-1.16v-7.147c0-0.636,0.52-1.156,1.156-1.156h4.217
		c0.632,0,1.156,0.52,1.156,1.156v7.147c0,0.644-0.524,1.16-1.156,1.16H275.82z"/>
	<path style="fill:#E1E0E0;" d="M288.119,197.09c-0.632,0-1.149-0.516-1.149-1.16v-7.147c0-0.636,0.516-1.156,1.149-1.156h4.209
		c0.644,0,1.164,0.52,1.164,1.156v7.147c0,0.644-0.52,1.16-1.164,1.16H288.119z"/>
	<path style="fill:#E1E0E0;" d="M309.687,172.488c-0.644,0-1.164-0.52-1.164-1.156v-7.147c0-0.636,0.52-1.16,1.164-1.16h4.206
		c0.64,0,1.164,0.524,1.164,1.16v7.147c0,0.636-0.524,1.156-1.164,1.156H309.687z"/>
	<path style="fill:#E1E0E0;" d="M321.982,172.488c-0.632,0-1.16-0.52-1.16-1.156v-7.147c0-0.636,0.528-1.16,1.16-1.16h4.213
		c0.64,0,1.156,0.524,1.156,1.16v7.147c0,0.636-0.516,1.156-1.156,1.156H321.982z"/>
	<path style="fill:#E1E0E0;" d="M275.82,172.488c-0.636,0-1.156-0.52-1.156-1.156v-7.147c0-0.636,0.52-1.16,1.156-1.16h4.217
		c0.632,0,1.156,0.524,1.156,1.16v7.147c0,0.636-0.524,1.156-1.156,1.156H275.82z"/>
	<path style="fill:#E1E0E0;" d="M288.119,172.488c-0.632,0-1.149-0.52-1.149-1.156v-7.147c0-0.636,0.516-1.16,1.149-1.16h4.209
		c0.644,0,1.164,0.524,1.164,1.16v7.147c0,0.636-0.52,1.156-1.164,1.156H288.119z"/>
	<path style="fill:#E1E0E0;" d="M309.687,147.889c-0.644,0-1.164-0.528-1.164-1.16v-7.143c0-0.636,0.52-1.164,1.164-1.164h4.206
		c0.64,0,1.164,0.528,1.164,1.164v7.143c0,0.632-0.524,1.16-1.164,1.16H309.687z"/>
	<path style="fill:#E1E0E0;" d="M321.982,147.889c-0.632,0-1.16-0.528-1.16-1.16v-7.143c0-0.636,0.528-1.164,1.16-1.164h4.213
		c0.64,0,1.156,0.528,1.156,1.164v7.143c0,0.632-0.516,1.16-1.156,1.16H321.982z"/>
	<path style="fill:#E1E0E0;" d="M275.82,147.889c-0.636,0-1.156-0.528-1.156-1.16v-7.143c0-0.636,0.52-1.164,1.156-1.164h4.217
		c0.632,0,1.156,0.528,1.156,1.164v7.143c0,0.632-0.524,1.16-1.156,1.16H275.82z"/>
	<path style="fill:#E1E0E0;" d="M288.119,147.889c-0.632,0-1.149-0.528-1.149-1.16v-7.143c0-0.636,0.516-1.164,1.149-1.164h4.209
		c0.644,0,1.164,0.528,1.164,1.164v7.143c0,0.632-0.52,1.16-1.164,1.16H288.119z"/>
	<path style="fill:#E1E0E0;" d="M309.687,123.291c-0.644,0-1.164-0.524-1.164-1.156v-7.147c0-0.636,0.52-1.156,1.164-1.156h4.206
		c0.64,0,1.164,0.52,1.164,1.156v7.147c0,0.632-0.524,1.156-1.164,1.156H309.687z"/>
	<path style="fill:#E1E0E0;" d="M321.982,123.291c-0.632,0-1.16-0.524-1.16-1.156v-7.147c0-0.636,0.528-1.156,1.16-1.156h4.213
		c0.64,0,1.156,0.52,1.156,1.156v7.147c0,0.632-0.516,1.156-1.156,1.156H321.982z"/>
	<path style="fill:#E1E0E0;" d="M275.82,123.291c-0.636,0-1.156-0.524-1.156-1.156v-7.147c0-0.636,0.52-1.156,1.156-1.156h4.217
		c0.632,0,1.156,0.52,1.156,1.156v7.147c0,0.632-0.524,1.156-1.156,1.156H275.82z"/>
	<path style="fill:#E1E0E0;" d="M288.119,123.291c-0.632,0-1.149-0.524-1.149-1.156v-7.147c0-0.636,0.516-1.156,1.149-1.156h4.209
		c0.644,0,1.164,0.52,1.164,1.156v7.147c0,0.632-0.52,1.156-1.164,1.156H288.119z"/>
	<path style="fill:#E1E0E0;" d="M309.687,98.685c-0.644,0-1.164-0.516-1.164-1.156v-7.143c0-0.644,0.52-1.167,1.164-1.167h4.206
		c0.64,0,1.164,0.524,1.164,1.167v7.143c0,0.64-0.524,1.156-1.164,1.156H309.687z"/>
	<path style="fill:#E1E0E0;" d="M321.982,98.685c-0.632,0-1.16-0.516-1.16-1.156v-7.143c0-0.644,0.528-1.167,1.16-1.167h4.213
		c0.64,0,1.156,0.524,1.156,1.167v7.143c0,0.64-0.516,1.156-1.156,1.156H321.982z"/>
	<path style="fill:#E1E0E0;" d="M275.82,98.685c-0.636,0-1.156-0.516-1.156-1.156v-7.143c0-0.644,0.52-1.167,1.156-1.167h4.217
		c0.632,0,1.156,0.524,1.156,1.167v7.143c0,0.64-0.524,1.156-1.156,1.156H275.82z"/>
	<path style="fill:#E1E0E0;" d="M288.119,98.685c-0.632,0-1.149-0.516-1.149-1.156v-7.143c0-0.644,0.516-1.167,1.149-1.167h4.209
		c0.644,0,1.164,0.524,1.164,1.167v7.143c0,0.64-0.52,1.156-1.164,1.156H288.119z"/>
</g>
<path style="fill:#8BBEC3;" d="M297.272,207.559c0-0.505,0.408-0.92,0.917-0.92h5.646c0.505,0,0.913,0.415,0.913,0.92v11.977h-7.476
	L297.272,207.559L297.272,207.559z"/>
<circle style="fill:#CDCCCB;" cx="298.443" cy="213.131" r="0.468"/>
<path style="fill:#A6CED1;" d="M290.05,242.552H185.558V47.442c0-7.072,5.729-12.801,12.801-12.801h78.895
	c7.068,0,12.797,5.729,12.797,12.801V242.552L290.05,242.552z"/>
<path style="fill:#8BBEC3;" d="M185.558,47.442c0-7.072,5.729-12.801,12.801-12.801h78.895c7.068,0,12.797,5.729,12.797,12.801
	H185.558z"/>
<g>
	<path style="fill:#E1E0E0;" d="M203.982,237.976c-0.857,0-1.553-0.696-1.553-1.553v-9.598c0-0.857,0.7-1.557,1.553-1.557h22.181
		c0.857,0,1.557,0.703,1.557,1.557v9.598c0,0.857-0.7,1.553-1.557,1.553H203.982z"/>
	<path style="fill:#E1E0E0;" d="M249.444,237.976c-0.857,0-1.553-0.696-1.553-1.553v-9.598c0-0.857,0.7-1.557,1.553-1.557h22.185
		c0.857,0,1.557,0.703,1.557,1.557v9.598c0,0.857-0.7,1.553-1.557,1.553H249.444z"/>
	<path style="fill:#E1E0E0;" d="M249.444,212.386c-0.857,0-1.553-0.7-1.553-1.553v-9.601c0-0.857,0.7-1.557,1.553-1.557h5.661
		c0.857,0,1.553,0.703,1.553,1.557v9.601c0,0.857-0.696,1.553-1.553,1.553L249.444,212.386L249.444,212.386z"/>
	<path style="fill:#E1E0E0;" d="M265.976,212.386c-0.861,0-1.557-0.7-1.557-1.553v-9.601c0-0.857,0.696-1.557,1.557-1.557h5.654
		c0.857,0,1.557,0.703,1.557,1.557v9.601c0,0.857-0.7,1.553-1.557,1.553L265.976,212.386L265.976,212.386z"/>
	<path style="fill:#E1E0E0;" d="M203.96,212.386c-0.857,0-1.557-0.7-1.557-1.553v-9.601c0-0.857,0.7-1.557,1.557-1.557h5.658
		c0.857,0,1.557,0.703,1.557,1.557v9.601c0,0.857-0.7,1.553-1.557,1.553L203.96,212.386L203.96,212.386z"/>
	<path style="fill:#E1E0E0;" d="M220.483,212.386c-0.857,0-1.557-0.7-1.557-1.553v-9.601c0-0.857,0.703-1.557,1.557-1.557h5.654
		c0.861,0,1.56,0.703,1.56,1.557v9.601c0,0.857-0.7,1.553-1.56,1.553L220.483,212.386L220.483,212.386z"/>
	<path style="fill:#E1E0E0;" d="M249.444,179.335c-0.857,0-1.553-0.696-1.553-1.557v-9.594c0-0.857,0.7-1.557,1.553-1.557h5.661
		c0.857,0,1.553,0.7,1.553,1.557v9.594c0,0.861-0.696,1.557-1.553,1.557H249.444z"/>
	<path style="fill:#E1E0E0;" d="M265.976,179.335c-0.861,0-1.557-0.696-1.557-1.557v-9.594c0-0.857,0.696-1.557,1.557-1.557h5.654
		c0.857,0,1.557,0.7,1.557,1.557v9.594c0,0.861-0.7,1.557-1.557,1.557H265.976z"/>
	<path style="fill:#E1E0E0;" d="M203.96,179.335c-0.857,0-1.557-0.696-1.557-1.557v-9.594c0-0.857,0.7-1.557,1.557-1.557h5.658
		c0.857,0,1.557,0.7,1.557,1.557v9.594c0,0.861-0.7,1.557-1.557,1.557H203.96z"/>
	<path style="fill:#E1E0E0;" d="M220.483,179.335c-0.857,0-1.557-0.696-1.557-1.557v-9.594c0-0.857,0.703-1.557,1.557-1.557h5.654
		c0.861,0,1.56,0.7,1.56,1.557v9.594c0,0.861-0.7,1.557-1.56,1.557H220.483z"/>
	<path style="fill:#E1E0E0;" d="M249.444,146.284c-0.857,0-1.553-0.7-1.553-1.56v-9.594c0-0.857,0.7-1.557,1.553-1.557h5.661
		c0.857,0,1.553,0.7,1.553,1.557v9.594c0,0.861-0.696,1.56-1.553,1.56H249.444z"/>
	<path style="fill:#E1E0E0;" d="M265.976,146.284c-0.861,0-1.557-0.7-1.557-1.56v-9.594c0-0.857,0.696-1.557,1.557-1.557h5.654
		c0.857,0,1.557,0.7,1.557,1.557v9.594c0,0.861-0.7,1.56-1.557,1.56H265.976z"/>
	<path style="fill:#E1E0E0;" d="M203.96,146.284c-0.857,0-1.557-0.7-1.557-1.56v-9.594c0-0.857,0.7-1.557,1.557-1.557h5.658
		c0.857,0,1.557,0.7,1.557,1.557v9.594c0,0.861-0.7,1.56-1.557,1.56H203.96z"/>
	<path style="fill:#E1E0E0;" d="M220.483,146.284c-0.857,0-1.557-0.7-1.557-1.56v-9.594c0-0.857,0.703-1.557,1.557-1.557h5.654
		c0.861,0,1.56,0.7,1.56,1.557v9.594c0,0.861-0.7,1.56-1.56,1.56H220.483z"/>
	<path style="fill:#E1E0E0;" d="M249.444,113.233c-0.857,0-1.553-0.703-1.553-1.557v-9.601c0-0.857,0.7-1.549,1.553-1.549h5.661
		c0.857,0,1.553,0.696,1.553,1.549v9.601c0,0.857-0.696,1.557-1.553,1.557L249.444,113.233L249.444,113.233z"/>
	<path style="fill:#E1E0E0;" d="M265.976,113.233c-0.861,0-1.557-0.703-1.557-1.557v-9.601c0-0.857,0.696-1.549,1.557-1.549h5.654
		c0.857,0,1.557,0.696,1.557,1.549v9.601c0,0.857-0.7,1.557-1.557,1.557L265.976,113.233L265.976,113.233z"/>
	<path style="fill:#E1E0E0;" d="M203.96,113.233c-0.857,0-1.557-0.703-1.557-1.557v-9.601c0-0.857,0.7-1.549,1.557-1.549h5.658
		c0.857,0,1.557,0.696,1.557,1.549v9.601c0,0.857-0.7,1.557-1.557,1.557L203.96,113.233L203.96,113.233z"/>
	<path style="fill:#E1E0E0;" d="M220.483,113.233c-0.857,0-1.557-0.703-1.557-1.557v-9.601c0-0.857,0.703-1.549,1.557-1.549h5.654
		c0.861,0,1.56,0.696,1.56,1.549v9.601c0,0.857-0.7,1.557-1.56,1.557L220.483,113.233L220.483,113.233z"/>
	<path style="fill:#E1E0E0;" d="M249.444,80.182c-0.857,0-1.553-0.7-1.553-1.557v-9.598c0-0.857,0.7-1.557,1.553-1.557h5.661
		c0.857,0,1.553,0.7,1.553,1.557v9.598c0,0.857-0.696,1.557-1.553,1.557H249.444z"/>
	<path style="fill:#E1E0E0;" d="M265.976,80.182c-0.861,0-1.557-0.7-1.557-1.557v-9.598c0-0.857,0.696-1.557,1.557-1.557h5.654
		c0.857,0,1.557,0.7,1.557,1.557v9.598c0,0.857-0.7,1.557-1.557,1.557H265.976z"/>
	<path style="fill:#E1E0E0;" d="M203.96,80.182c-0.857,0-1.557-0.7-1.557-1.557v-9.598c0-0.857,0.7-1.557,1.557-1.557h5.658
		c0.857,0,1.557,0.7,1.557,1.557v9.598c0,0.857-0.7,1.557-1.557,1.557H203.96z"/>
	<path style="fill:#E1E0E0;" d="M220.483,80.182c-0.857,0-1.557-0.7-1.557-1.557v-9.598c0-0.857,0.703-1.557,1.557-1.557h5.654
		c0.861,0,1.56,0.7,1.56,1.557v9.598c0,0.857-0.7,1.557-1.56,1.557H220.483z"/>
</g>
<path style="fill:#8BBEC3;" d="M232.767,226.451c0-0.677,0.554-1.227,1.235-1.227h7.588c0.674,0,1.224,0.55,1.224,1.227v16.101
	h-10.05v-16.101H232.767z"/>
<circle style="fill:#CDCCCB;" cx="234.346" cy="233.935" r="0.621"/>
<path style="fill:#FBBF96;" d="M294.862,211.806l-28.58-19.547c0,0-3.633-4.412-17.747-5.47
	c-22.275-1.665-66.495-11.854-66.495-11.854c-27.24,8.09-24.834,32.25-24.834,32.25l71.299,13.642c0,0,32.823-2.552,41.002,2.563
	c19.876,12.396,29.732-8.06,29.732-8.06L294.862,211.806z"/>
<path style="fill:#FDD6B2;" d="M280.097,201.643l19.061,12.232c0,0-4.296,4.034-7.951,3.499
	C287.165,216.775,278.641,207.454,280.097,201.643z"/>
<path style="fill:#EDAC80;" d="M291.958,219.926l-34.17-9.077l-32.198-3.977l22.87-1.212c0,0,9.377-0.632,16.385,3.098
	C270.264,211.638,291.958,219.926,291.958,219.926z"/>
<g>
	<path style="fill:#FDD6B2;" d="M260.079,197.67c-0.614-0.135-0.969-0.745-0.834-1.351l1.265-5.56
		c0.146-0.614,0.76-0.988,1.351-0.834l0,0c0.614,0.142,0.988,0.76,0.842,1.358l-1.265,5.564
		C261.298,197.46,260.692,197.838,260.079,197.67L260.079,197.67z"/>
	<path style="fill:#FDD6B2;" d="M256.55,194.025c-0.614-0.153-0.98-0.752-0.827-1.366l0.591-3.005
		c0.135-0.606,0.752-0.973,1.351-0.834l0,0c0.617,0.146,0.98,0.763,0.842,1.366l-0.58,3.001
		C257.77,193.801,257.156,194.167,256.55,194.025L256.55,194.025z"/>
</g>
<path style="fill:#FBBF96;" d="M298.622,345.784c8.296-5.152,30.638-27.685,25.493-35.992l0,0
	c-5.145-8.288-16.045-10.836-24.336-5.691l-64.167,39.158c-8.296,5.149-12.396,13.1-7.244,21.384l0,0
	c5.149,8.299,11.76,8.426,22.963,3.566L298.622,345.784z"/>
<path style="fill:#EDAC80;" d="M272.524,324.688l-46.518,33.141c-0.247-8.221,3.48-10.739,8.217-13.676l51.011-33.433
	C284.037,312.452,274.376,323.412,272.524,324.688z"/>
<g>
	<path style="fill:#F1A977;" d="M223.099,235.147l15.94-13.497l-3.405-26.843l84.844-28.999l80.773,86.139
		c0,0-21.706,34.144-43.453,54.282c-21.747,20.138-60.197,40.168-60.197,40.168L223.099,235.147z"/>
	<path style="fill:#F1A977;" d="M316.95,297.129c8.288-5.141,10.832-16.033,5.691-24.333l0,0
		c-5.141-8.299-16.037-10.847-24.333-5.691l-90.85,56.358c-8.299,5.145-10.847,16.033-5.699,24.333l0,0
		c5.141,8.292,16.037,10.84,24.333,5.699L316.95,297.129z"/>
</g>
<path style="fill:#EDAC80;" d="M239.817,307.797l-40.714,31.023c-0.116-6.96,2.687-11.831,7.427-14.769l36.639-23.625
	C241.972,302.166,241.669,306.54,239.817,307.797z"/>
<g>
	<path style="fill:#F1A977;" d="M237.157,262.971c7.121-5.078,31.341-18.716,26.263-25.822l4.707-23.307
		c-5.078-7.113-55.228,27.667-59.236,30.503l-90.958,62.117c-10.222,7.311-11.88,17.201-6.791,24.321l0,0
		c5.07,7.113,14.967,8.763,22.076,3.682L237.157,262.971z"/>
	<path style="fill:#F1A977;" d="M296.201,344.493c7.719-3.412,10.069-14.686,6.077-21.163l0,0c-3.981-6.481-12.86-8.239-19.846-3.94
		l-96.721,58.502c-6.975,4.288-9.407,13.021-5.418,19.498l0,0c3.989,6.469,12.576,7.562,18.23,4.591l98.101-57.735"/>
</g>
<path style="fill:#EDAC80;" d="M275.001,324.257l-45.29,30.241c-5.343,3.173-43.311,23.861-39.315,21.414l98.139-61.095
	C287.506,316.224,276.553,323.202,275.001,324.257z"/>
<path style="fill:#F1A977;" d="M254.87,295.681c9.343-4.561,11.723-18.548,6.511-26.338l0,0c-5.205-7.787-16.228-9.545-24.613-3.933
	l-116.384,76.508c-8.397,5.605-10.978,16.464-5.766,24.258l0,0c5.205,7.779,15.828,8.737,22.656,4.804l118.112-75.632"/>
<path style="fill:#EDAC80;" d="M227.828,271.745l-54.349,39.333c-6.447,4.157-52.224,31.393-47.423,28.187l118.004-79.767
	C242.855,261.28,229.707,270.38,227.828,271.745z"/>
<path style="fill:#F1A977;" d="M273.111,320.407c8.823-4.486,10.885-17.852,5.796-25.186l0,0c-5.078-7.33-15.596-8.842-23.502-3.368
	l-109.682,74.648c-7.914,5.459-10.211,15.85-5.13,23.191l0,0c5.078,7.338,15.207,8.075,21.657,4.224l111.344-73.825"/>
<path style="fill:#EDAC80;" d="M246.982,298.027l-51.172,38.286c-6.065,4.056-49.257,30.686-44.733,27.566l111.183-77.776
	C261.137,287.824,248.752,296.695,246.982,298.027z"/>
<path style="fill:#FBBF96;" d="M177.591,345.784c-8.295-5.152-30.638-27.685-25.493-35.992l0,0
	c5.145-8.288,16.041-10.836,24.336-5.691l64.164,39.158c8.292,5.149,12.396,13.1,7.244,21.384l0,0
	c-5.149,8.299-11.764,8.426-22.963,3.566L177.591,345.784z"/>
<path style="fill:#EDAC80;" d="M203.69,324.688l46.514,33.141c0.247-8.221-3.48-10.739-8.213-13.676l-51.015-33.433
	C192.173,312.452,201.834,323.412,203.69,324.688z"/>
<g>
	<path style="fill:#FBBF96;" d="M253.111,235.147l-15.936-13.497l3.405-26.843l-84.844-28.999l-80.77,86.139
		c0,0,21.706,34.144,43.453,54.282s60.197,40.168,60.197,40.168L253.111,235.147z"/>
	<path style="fill:#FBBF96;" d="M159.264,297.129c-8.288-5.141-10.832-16.033-5.691-24.333l0,0
		c5.141-8.299,16.037-10.847,24.333-5.691l90.846,56.358c8.303,5.145,10.851,16.033,5.702,24.333l0,0
		c-5.141,8.292-16.041,10.84-24.333,5.699L159.264,297.129z"/>
</g>
<path style="fill:#EDAC80;" d="M236.393,307.797l40.718,31.023c0.116-6.96-2.687-11.831-7.427-14.769l-36.639-23.625
	C234.242,302.166,234.545,306.54,236.393,307.797z"/>
<path style="fill:#FBBF96;" d="M239.054,262.971c-7.117-5.078-31.341-18.716-26.26-25.822l-4.707-23.307
	c5.078-7.113,55.221,27.667,59.236,30.503l90.958,62.121c10.219,7.311,11.88,17.201,6.791,24.321l0,0
	c-5.074,7.113-14.971,8.763-22.076,3.682L239.054,262.971z"/>
<g>
	<path style="fill:#FDD6B2;" d="M341.907,327.165l6.361,4.524c4.505,3.207,10.967,1.893,14.421-2.945
		c3.461-4.834,2.604-11.36-1.908-14.567l-6.35-4.524c0,0-3.311,1.381-7.409,7.248C341.93,324.167,342.42,324.818,341.907,327.165z"
		/>
	<path style="fill:#FDD6B2;" d="M293.328,294.211c-0.516-0.37-0.629-1.081-0.266-1.594l11.577-16.209
		c0.374-0.52,1.074-0.651,1.598-0.269l0,0c0.509,0.359,0.632,1.081,0.262,1.598l-11.566,16.217
		C294.559,294.462,293.844,294.578,293.328,294.211L293.328,294.211z"/>
	<path style="fill:#FDD6B2;" d="M291.73,286.716c-0.453-0.318-0.569-0.947-0.236-1.399l5.717-8.026
		c0.326-0.453,0.962-0.561,1.407-0.236l0,0c0.471,0.333,0.558,0.965,0.236,1.414l-5.706,8.019
		C292.815,286.941,292.183,287.053,291.73,286.716L291.73,286.716z"/>
</g>
<path style="fill:#FBBF96;" d="M180.012,344.493c-7.719-3.412-10.069-14.686-6.08-21.163l0,0c3.981-6.481,12.864-8.239,19.85-3.94
	l96.717,58.502c6.978,4.288,9.407,13.021,5.422,19.498l0,0c-3.989,6.469-12.576,7.562-18.234,4.591l-98.101-57.739"/>
<path style="fill:#EDAC80;" d="M201.213,324.257l45.29,30.241c5.343,3.173,43.311,23.861,39.315,21.414l-98.139-61.099
	C188.708,316.224,199.657,323.202,201.213,324.257z"/>
<g>
	<path style="fill:#FDD6B2;" d="M275.079,395.889l5.788,3.543c4.108,2.514,9.62,0.988,12.344-3.405
		c2.717-4.4,1.59-10.005-2.518-12.527l-5.781-3.536c0,0-2.784,1.392-5.994,6.709C274.93,393.289,275.39,393.809,275.079,395.889z"/>
	<path style="fill:#FDD6B2;" d="M233.145,372.126c-0.471-0.288-0.606-0.902-0.303-1.369l9.302-14.604
		c0.292-0.46,0.913-0.599,1.373-0.307l0,0c0.46,0.299,0.591,0.917,0.299,1.369l-9.313,14.604
		C234.208,372.29,233.602,372.429,233.145,372.126L233.145,372.126z"/>
	<path style="fill:#FDD6B2;" d="M231.417,365.693c-0.415-0.258-0.539-0.79-0.273-1.212l4.599-7.214
		c0.262-0.412,0.804-0.535,1.212-0.273l0,0c0.419,0.266,0.528,0.801,0.269,1.212l-4.599,7.222
		C232.375,365.832,231.821,365.963,231.417,365.693L231.417,365.693z"/>
</g>
<path style="fill:#FBBF96;" d="M221.344,295.681c-9.343-4.561-11.723-18.548-6.507-26.338l0,0
	c5.205-7.787,16.224-9.545,24.613-3.933l116.384,76.508c8.393,5.605,10.978,16.464,5.766,24.258l0,0
	c-5.205,7.779-15.828,8.737-22.656,4.804l-118.116-75.628"/>
<path style="fill:#EDAC80;" d="M248.386,271.745l54.349,39.333c6.447,4.157,52.224,31.393,47.423,28.187l-118.004-79.767
	C233.362,261.28,246.507,270.38,248.386,271.745z"/>
<g>
	<path style="fill:#FDD6B2;" d="M336.018,363.37l6.956,4.625c4.935,3.289,11.805,1.665,15.356-3.618
		c3.543-5.291,2.417-12.243-2.529-15.528l-6.937-4.632c0,0-3.495,1.579-7.701,7.989C335.943,360.159,336.493,360.822,336.018,363.37
		z"/>
	<path style="fill:#FDD6B2;" d="M285.485,332.171c-0.572-0.389-0.703-1.149-0.326-1.71l12.138-17.545
		c0.385-0.561,1.149-0.703,1.706-0.314l0,0c0.558,0.393,0.7,1.156,0.311,1.703l-12.138,17.553
		C286.787,332.41,286.039,332.556,285.485,332.171L285.485,332.171z"/>
	<path style="fill:#FDD6B2;" d="M283.648,324.167c-0.494-0.344-0.617-1.007-0.269-1.508l5.987-8.673
		c0.348-0.49,1.029-0.614,1.504-0.281l0,0c0.505,0.352,0.61,1.018,0.284,1.515l-6.002,8.677
		C284.815,324.388,284.131,324.508,283.648,324.167L283.648,324.167z"/>
</g>
<path style="fill:#FBBF96;" d="M203.103,320.407c-8.819-4.486-10.881-17.852-5.796-25.186l0,0c5.078-7.33,15.599-8.842,23.506-3.368
	l109.682,74.648c7.914,5.459,10.211,15.85,5.13,23.191l0,0c-5.078,7.338-15.207,8.075-21.657,4.224L202.62,320.093"/>
<path style="fill:#EDAC80;" d="M229.231,298.027l51.169,38.286c6.069,4.056,49.26,30.686,44.736,27.566l-111.183-77.776
	C215.073,287.824,227.462,296.695,229.231,298.027z"/>
<g>
	<path style="fill:#FDD6B2;" d="M311.303,386.625l6.556,4.516c4.647,3.207,11.214,1.762,14.675-3.207
		c3.457-4.991,2.492-11.633-2.163-14.836l-6.548-4.528c0,0-3.349,1.459-7.446,7.498C311.281,383.564,311.79,384.204,311.303,386.625
		z"/>
	<path style="fill:#FDD6B2;" d="M263.644,356.133c-0.535-0.37-0.659-1.1-0.284-1.631l11.831-16.531
		c0.374-0.531,1.1-0.644,1.624-0.262l0,0c0.528,0.374,0.655,1.104,0.269,1.624l-11.824,16.531
		C264.879,356.391,264.157,356.519,263.644,356.133L263.644,356.133z"/>
	<path style="fill:#FDD6B2;" d="M262.017,348.481c-0.464-0.326-0.576-0.965-0.236-1.433l5.841-8.168
		c0.333-0.464,0.984-0.572,1.437-0.247l0,0c0.471,0.341,0.561,0.98,0.243,1.448l-5.845,8.168
		C263.124,348.717,262.477,348.826,262.017,348.481L262.017,348.481z"/>
</g>
<g>
	<path style="fill:#F5B78C;" d="M248.632,260.011c-3.936-1.205-6.297-4.935-5.362-9.018c0.561-2.477-3.218-3.693-3.794-1.19
		c-1.411,6.166,1.848,12.135,7.97,13.994C249.893,264.542,251.083,260.756,248.632,260.011L248.632,260.011z"/>
	<path style="fill:#F5B78C;" d="M230.451,293.29c-6.541-2.69-9.489-9.235-7.281-15.932c0.804-2.432-3.087-3.203-3.88-0.801
		c-2.728,8.277,1.355,16.988,9.403,20.28C231.035,297.803,232.831,294.256,230.451,293.29L230.451,293.29z"/>
	<path style="fill:#F5B78C;" d="M208.573,315.849c-4.655-1.833-7.094-6.615-5.575-11.446c0.76-2.417-2.919-3.895-3.689-1.448
		c-2.17,6.87,1.044,13.931,7.813,16.583C209.501,320.482,210.96,316.781,208.573,315.849L208.573,315.849z"/>
	<path style="fill:#F5B78C;" d="M185.389,340.983c-3.398-1.456-5.366-4.999-4.093-8.629c0.834-2.38-2.713-4.183-3.555-1.774
		c-1.949,5.583,0.296,11.57,5.871,13.957C185.958,345.552,187.747,342.004,185.389,340.983L185.389,340.983z"/>
</g>
<path style="fill:#EBF3F6;" d="M96.35,278.421l-78.083-60.77c-7.255-5.658-6.155-19.191,2.462-30.26l54.14-69.574
	c8.61-11.068,21.47-15.461,28.725-9.811l78.091,60.774C188.944,174.426,103.613,284.067,96.35,278.421z"/>
<path style="fill:#F1A977;" d="M181.352,211.806l28.58-19.547c0,0,3.633-4.412,17.743-5.47
	c22.278-1.665,66.495-11.854,66.495-11.854c27.24,8.09,24.838,32.25,24.838,32.25l-71.299,13.642c0,0-32.826-2.552-41.002,2.563
	c-19.876,12.396-29.732-8.06-29.732-8.06L181.352,211.806z"/>
<path style="fill:#FDD6B2;" d="M196.117,201.643l-19.061,12.232c0,0,4.296,4.034,7.947,3.499
	C189.045,216.775,197.572,207.454,196.117,201.643z"/>
<path style="fill:#EDAC80;" d="M184.256,219.926l34.17-9.077l32.194-3.977l-22.87-1.212c0,0-9.373-0.632-16.381,3.098
	C205.946,211.638,184.256,219.926,184.256,219.926z"/>
<g>
	<path style="fill:#FDD6B2;" d="M216.135,197.67c0.61-0.135,0.969-0.745,0.834-1.351l-1.265-5.56
		c-0.146-0.614-0.763-0.988-1.355-0.834l0,0c-0.614,0.142-0.984,0.76-0.842,1.358l1.268,5.564
		C214.915,197.46,215.522,197.838,216.135,197.67L216.135,197.67z"/>
	<path style="fill:#FDD6B2;" d="M219.664,194.025c0.614-0.153,0.98-0.752,0.827-1.366l-0.591-3.005
		c-0.135-0.606-0.752-0.973-1.355-0.834l0,0c-0.614,0.146-0.977,0.763-0.838,1.366l0.58,3.001
		C218.444,193.801,219.054,194.167,219.664,194.025L219.664,194.025z"/>
</g>
<path style="fill:#EBF3F6;" d="M387.108,278.421l78.083-60.766c7.255-5.658,6.155-19.191-2.458-30.26l-54.14-69.574
	c-8.614-11.068-21.47-15.461-28.729-9.811l-78.083,60.774C294.518,174.426,379.852,284.067,387.108,278.421z"/>
<path style="fill:#5399AA;" d="M174.07,156.847L69.694,69.088C32.58,106.068,7.701,155.283,1.527,210.163l79.213,66.607
	C88.624,282.907,181.962,162.972,174.07,156.847z"/>
<path style="fill:#37848C;" d="M397.974,274.275l74.547-63.026c-5.934-55.03-30.686-104.414-67.718-141.573l-100.171,84.676
	C296.748,160.477,390.086,280.411,397.974,274.275z"/>
<g>
</g>
<g>
</g>
<g>
</g>
<g>
</g>
<g>
</g>
<g>
</g>
<g>
</g>
<g>
</g>
<g>
</g>
<g>
</g>
<g>
</g>
<g>
</g>
<g>
</g>
<g>
</g>
<g>
</g>
</svg>
