<?xml version="1.0" encoding="iso-8859-1"?>
<!-- Generator: Adobe Illustrator 16.0.0, SVG Export Plug-In . SVG Version: 6.00 Build 0)  -->
<!DOCTYPE svg PUBLIC "-//W3C//DTD SVG 1.1//EN" "http://www.w3.org/Graphics/SVG/1.1/DTD/svg11.dtd">
<svg xmlns="http://www.w3.org/2000/svg" xmlns:xlink="http://www.w3.org/1999/xlink" version="1.1" id="Capa_1" x="0px" y="0px" width="512px" height="512px" viewBox="0 0 451 451" style="enable-background:new 0 0 451 451;" xml:space="preserve">
<g>
	<g>
		<g>
			<path d="M110.278,163.165c1.102,0.988,2.578,1.486,4.049,1.371l15.676-1.236c1.047-0.082,2.039-0.463,2.871-1.098     c1.363-1.043,2.16-2.69,2.129-4.406c-0.332-18.607,7.963-35.768,22.754-47.078c12.295-9.402,27.861-13.502,43.043-11.41     l-2.506,3.674c-1.088,1.597-1.244,3.67-0.406,5.41c0.838,1.74,2.555,2.912,4.482,3.059l40.297,3.027     c1.328,0.1,2.644-0.289,3.703-1.1c0.463-0.355,0.859-0.778,1.187-1.252c1.088-1.598,1.243-3.669,0.405-5.41l-17.521-36.418     c-0.839-1.74-2.559-2.91-4.484-3.057c-1.904-0.143-3.809,0.77-4.887,2.354l-4.164,6.102     c-26.141-7.761-53.518-2.709-75.277,13.931c-21.566,16.492-33.959,42.534-33.148,69.662     C108.524,160.767,109.181,162.179,110.278,163.165z" fill="#764cba"/>
			<path d="M381.28,292.251c-1.104-0.987-2.578-1.486-4.049-1.369l-15.68,1.233c-1.047,0.082-2.037,0.461-2.867,1.097     c-1.363,1.045-2.16,2.692-2.129,4.41c0.33,18.606-7.963,35.767-22.754,47.075c-12.295,9.401-27.859,13.505-43.043,11.41     l2.506-3.674c1.086-1.598,1.244-3.671,0.406-5.41c-0.838-1.74-2.557-2.912-4.48-3.059l-40.299-3.026     c-1.909-0.146-3.834,0.795-4.889,2.354c-1.09,1.595-1.244,3.668-0.406,5.407l17.521,36.419c0.838,1.739,2.555,2.911,4.481,3.059     c1.905,0.143,3.812-0.771,4.89-2.354l4.162-6.104c26.143,7.762,53.518,2.709,75.275-13.932     c21.568-16.492,33.959-42.533,33.148-69.662C383.036,294.649,382.38,293.239,381.28,292.251z" fill="#764cba"/>
			<path d="M120.396,182.894c-36.833,0-57.219,19.086-56.845,55.865c0.54,50.371,21.944,80.929,56.845,80.396     c0,0,56.818,2.305,56.818-80.396C177.215,201.979,158.02,182.894,120.396,182.894z" fill="#764cba"/>
			<path d="M220.897,357.388l-56.774-22.637l-13.294-11.203c-3.511-2.967-8.698-2.748-11.956,0.489l-18.482,18.382l-18.537-18.388     c-3.258-3.231-8.438-3.44-11.945-0.483l-13.297,11.203L19.838,357.39C1.555,364.671,1.57,429.415,0,435.358h240.764     C239.193,429.429,239.188,364.661,220.897,357.388z" fill="#764cba"/>
			<path d="M330.631,15.642c-36.833,0-57.219,19.086-56.845,55.865c0.54,50.371,21.944,80.929,56.845,80.396     c0,0,56.818,2.304,56.818-80.396C387.449,34.728,368.254,15.642,330.631,15.642z" fill="#764cba"/>
			<path d="M431.132,190.136l-56.772-22.637l-13.294-11.203c-3.513-2.966-8.698-2.748-11.956,0.49l-18.482,18.381L312.09,156.78     c-3.258-3.232-8.438-3.441-11.945-0.484l-13.297,11.203l-56.771,22.639c-18.283,7.281-18.268,72.025-19.838,77.969H451     C449.429,262.177,449.422,197.409,431.132,190.136z" fill="#764cba"/>
		</g>
	</g>
</g>
<g>
</g>
<g>
</g>
<g>
</g>
<g>
</g>
<g>
</g>
<g>
</g>
<g>
</g>
<g>
</g>
<g>
</g>
<g>
</g>
<g>
</g>
<g>
</g>
<g>
</g>
<g>
</g>
<g>
</g>
</svg>
