<?xml version="1.0" encoding="utf-8"?>
<!-- Generator: Adobe Illustrator 16.0.0, SVG Export Plug-In . SVG Version: 6.00 Build 0)  -->
<!DOCTYPE svg PUBLIC "-//W3C//DTD SVG 1.1//EN" "http://www.w3.org/Graphics/SVG/1.1/DTD/svg11.dtd">
<svg version="1.1" id="Capa_1" xmlns="http://www.w3.org/2000/svg" xmlns:xlink="http://www.w3.org/1999/xlink" x="0px" y="0px"
	 width="512px" height="512px" viewBox="0 0 512 512" enable-background="new 0 0 512 512" xml:space="preserve">
<g>
	<g>
		<g>
			<path fill="#34EAD4" d="M125.194,185.234c1.251,1.122,2.926,1.687,4.596,1.556l17.796-1.403c1.189-0.093,2.315-0.526,3.259-1.247
				c1.547-1.184,2.452-3.054,2.417-5.002c-0.377-21.124,9.04-40.606,25.832-53.445c13.958-10.674,31.629-15.329,48.865-12.954
				l-2.845,4.171c-1.235,1.813-1.412,4.167-0.461,6.142c0.951,1.975,2.9,3.306,5.088,3.473l45.747,3.437
				c1.508,0.113,3.002-0.328,4.205-1.249c0.525-0.403,0.975-0.883,1.347-1.421c1.235-1.814,1.411-4.165,0.46-6.142l-19.891-41.344
				c-0.953-1.975-2.905-3.304-5.091-3.47c-2.161-0.163-4.324,0.874-5.548,2.672l-4.727,6.928
				c-29.677-8.811-60.757-3.076-85.458,15.815c-24.483,18.723-38.552,48.287-37.631,79.084
				C123.203,182.512,123.948,184.114,125.194,185.234z"/>
			<path fill="#34EAD4" d="M432.85,331.779c-1.253-1.12-2.926-1.687-4.597-1.554l-17.801,1.399
				c-1.188,0.093-2.313,0.523-3.255,1.245c-1.547,1.187-2.451,3.057-2.416,5.007c0.374,21.122-9.041,40.604-25.832,53.442
				c-13.958,10.672-31.627,15.331-48.865,12.953l2.846-4.171c1.232-1.814,1.412-4.168,0.461-6.142
				c-0.951-1.976-2.903-3.307-5.086-3.473l-45.75-3.436c-2.167-0.166-4.353,0.902-5.551,2.672c-1.236,1.812-1.412,4.164-0.461,6.139
				l19.892,41.345c0.951,1.975,2.9,3.305,5.087,3.473c2.162,0.162,4.328-0.875,5.551-2.672l4.726-6.93
				c29.679,8.812,60.757,3.075,85.456-15.816c24.485-18.723,38.553-48.286,37.632-79.084
				C434.844,334.502,434.099,332.901,432.85,331.779z"/>
			<path fill="#34EAD4" d="M136.68,207.631c-41.815,0-64.958,21.667-64.534,63.421c0.613,57.184,24.912,91.875,64.534,91.27
				c0,0,64.503,2.617,64.503-91.27C201.184,229.298,179.393,207.631,136.68,207.631z"/>
			<path fill="#34EAD4" d="M250.774,405.727l-64.453-25.699l-15.092-12.718c-3.986-3.368-9.875-3.12-13.573,0.555l-20.982,20.868
				l-21.044-20.875c-3.699-3.668-9.58-3.905-13.561-0.548l-15.096,12.718l-64.453,25.701C1.765,413.994,1.782,487.495,0,494.242
				h273.328C271.545,487.512,271.539,413.983,250.774,405.727z"/>
			<path fill="#34EAD4" d="M375.351,17.758c-41.815,0-64.958,21.667-64.534,63.421c0.613,57.184,24.912,91.875,64.534,91.27
				c0,0,64.503,2.616,64.503-91.27C439.854,39.425,418.063,17.758,375.351,17.758z"/>
			<path fill="#34EAD4" d="M489.444,215.853l-64.45-25.699l-15.092-12.719c-3.988-3.367-9.875-3.119-13.573,0.557l-20.981,20.867
				l-21.046-20.874c-3.698-3.669-9.579-3.906-13.561-0.55l-15.096,12.719l-64.449,25.701c-20.756,8.266-20.739,81.767-22.521,88.514
				H512C510.217,297.638,510.209,224.109,489.444,215.853z"/>
		</g>
	</g>
</g>
</svg>
