<?xml version="1.0" encoding="utf-8"?>
<!-- Generator: Adobe Illustrator 16.0.0, SVG Export Plug-In . SVG Version: 6.00 Build 0)  -->
<!DOCTYPE svg PUBLIC "-//W3C//DTD SVG 1.1//EN" "http://www.w3.org/Graphics/SVG/1.1/DTD/svg11.dtd">
<svg version="1.1" id="Capa_1" xmlns="http://www.w3.org/2000/svg" xmlns:xlink="http://www.w3.org/1999/xlink" x="0px" y="0px"
	 width="512px" height="512px" viewBox="0 0 512 512" enable-background="new 0 0 512 512" xml:space="preserve">
<g>
	<g>
		<path fill="#34EAD4" d="M503.467,136.533c5.12,0,8.533-3.413,8.533-8.533V8.533C512,3.413,508.587,0,503.467,0H315.733
			c-5.12,0-8.533,3.413-8.533,8.533v51.2H204.8v-51.2c0-5.12-3.413-8.533-8.533-8.533H8.533C3.413,0,0,3.413,0,8.533V128
			c0,5.12,3.413,8.533,8.533,8.533h76.8V179.2h-76.8c-5.12,0-8.533,3.413-8.533,8.533V307.2c0,5.12,3.413,8.533,8.533,8.533h153.6
			v-17.067H17.067V196.267h179.2V179.2H102.4v-42.667h93.867c5.12,0,8.533-3.413,8.533-8.533V76.8h102.4V128
			c0,5.12,3.413,8.533,8.533,8.533h85.333V179.2h-85.333v17.066h179.2v102.399H349.867v17.067h153.6c5.12,0,8.533-3.413,8.533-8.533
			V187.733c0-5.12-3.413-8.533-8.533-8.533h-85.333v-42.667H503.467z M187.733,119.467H17.067v-102.4h170.667V119.467z
			 M324.267,17.066h170.667v102.4H324.267V17.066z"/>
		<path fill="#34EAD4" d="M298.666,332.8h-85.333c-33.28,0-59.733,26.453-59.733,59.733V512h17.066V392.533
			c0-23.894,18.773-42.666,42.667-42.666h11.093l23.893,63.146c0.854,2.56,4.267,5.12,7.68,5.12s6.826-2.561,9.387-5.12
			l23.894-63.146h9.386c23.895,0,42.668,18.772,42.668,42.666V512H358.4V392.533C358.4,359.253,331.947,332.8,298.666,332.8z
			 M256.854,385.707l-13.653-35.84h27.307L256.854,385.707z"/>
		<rect x="247.467" y="435.2" fill="#34EAD4" width="17.066" height="17.066"/>
		<rect x="247.467" y="469.333" fill="#34EAD4" width="17.066" height="17.067"/>
		<path fill="#34EAD4" d="M247.467,324.267h17.066c23.894,0,42.667-18.773,42.667-42.667V256c0-23.894-18.773-42.667-42.667-42.667
			h-17.066c-23.894,0-42.667,18.773-42.667,42.667v25.6C204.8,305.493,223.573,324.267,247.467,324.267z M221.867,256
			c0-14.507,11.093-25.6,25.6-25.6h17.066c14.507,0,25.6,11.093,25.6,25.6v25.6c0,14.507-11.093,25.601-25.6,25.601h-17.066
			c-14.507,0-25.6-11.094-25.6-25.601V256z"/>
		<rect x="196.267" y="418.134" fill="#34EAD4" width="17.067" height="93.866"/>
		<rect x="298.666" y="418.134" fill="#34EAD4" width="17.067" height="93.866"/>
		<rect x="42.667" y="42.667" fill="#34EAD4" width="85.333" height="17.067"/>
		<rect x="42.667" y="76.8" fill="#34EAD4" width="119.467" height="17.067"/>
		<rect x="349.867" y="221.867" fill="#34EAD4" width="85.333" height="17.067"/>
		<rect x="349.867" y="256" fill="#34EAD4" width="119.466" height="17.066"/>
		<rect x="349.867" y="42.667" fill="#34EAD4" width="17.066" height="17.067"/>
		<rect x="384" y="42.667" fill="#34EAD4" width="17.066" height="17.067"/>
		<rect x="418.134" y="42.667" fill="#34EAD4" width="17.066" height="17.067"/>
		<rect x="452.267" y="42.667" fill="#34EAD4" width="17.066" height="17.067"/>
		<rect x="349.867" y="76.8" fill="#34EAD4" width="17.066" height="17.067"/>
		<rect x="384" y="76.8" fill="#34EAD4" width="17.066" height="17.067"/>
		<rect x="418.134" y="76.8" fill="#34EAD4" width="17.066" height="17.067"/>
		<rect x="452.267" y="76.8" fill="#34EAD4" width="17.066" height="17.067"/>
		<rect x="42.667" y="221.867" fill="#34EAD4" width="17.067" height="17.067"/>
		<rect x="76.8" y="221.867" fill="#34EAD4" width="17.067" height="17.067"/>
		<rect x="110.934" y="221.867" fill="#34EAD4" width="17.066" height="17.067"/>
		<rect x="145.067" y="221.867" fill="#34EAD4" width="17.066" height="17.067"/>
		<rect x="42.667" y="256" fill="#34EAD4" width="17.067" height="17.066"/>
		<rect x="76.8" y="256" fill="#34EAD4" width="17.067" height="17.066"/>
		<rect x="110.934" y="256" fill="#34EAD4" width="17.066" height="17.066"/>
		<rect x="145.067" y="256" fill="#34EAD4" width="17.066" height="17.066"/>
	</g>
</g>
</svg>
