<?xml version="1.0" encoding="iso-8859-1"?>
<!-- Generator: Adobe Illustrator 19.0.0, SVG Export Plug-In . SVG Version: 6.00 Build 0)  -->
<svg xmlns="http://www.w3.org/2000/svg" xmlns:xlink="http://www.w3.org/1999/xlink" version="1.1" id="Capa_1" x="0px" y="0px" viewBox="0 0 60 60" style="enable-background:new 0 0 60 60;" xml:space="preserve" width="512px" height="512px">
<g>
	<g>
		<path d="M59,16c0.6,0,1-0.4,1-1V1c0-0.6-0.4-1-1-1H37c-0.6,0-1,0.4-1,1v6H24V1c0-0.6-0.4-1-1-1H1C0.4,0,0,0.4,0,1v14    c0,0.6,0.4,1,1,1h9v5H1c-0.6,0-1,0.4-1,1v14c0,0.6,0.4,1,1,1h18v-2H2V23h21v-2H12v-5h11c0.6,0,1-0.4,1-1V9h12v6c0,0.6,0.4,1,1,1    h10v5H37v2h21v12H41v2h18c0.6,0,1-0.4,1-1V22c0-0.6-0.4-1-1-1H49v-5H59z M22,14H2V2h20V14z M38,2h20v12H38V2z" fill="#764cba"/>
		<path d="M35,39H25c-3.9,0-7,3.1-7,7v14h2V46c0-2.8,2.2-5,5-5h1.3l2.8,7.4c0.1,0.3,0.5,0.6,0.9,0.6s0.8-0.3,1.1-0.6l2.8-7.4H35    c2.8,0,5,2.2,5,5v14h2V46C42,42.1,38.9,39,35,39z M30.1,45.2L28.5,41h3.2L30.1,45.2z" fill="#764cba"/>
		<rect x="29" y="51" width="2" height="2" fill="#764cba"/>
		<rect x="29" y="55" width="2" height="2" fill="#764cba"/>
		<path d="M29,38h2c2.8,0,5-2.2,5-5v-3c0-2.8-2.2-5-5-5h-2c-2.8,0-5,2.2-5,5v3C24,35.8,26.2,38,29,38z M26,30c0-1.7,1.3-3,3-3h2    c1.7,0,3,1.3,3,3v3c0,1.7-1.3,3-3,3h-2c-1.7,0-3-1.3-3-3V30z" fill="#764cba"/>
		<rect x="23" y="49" width="2" height="11" fill="#764cba"/>
		<rect x="35" y="49" width="2" height="11" fill="#764cba"/>
		<rect x="5" y="5" width="10" height="2" fill="#764cba"/>
		<rect x="5" y="9" width="14" height="2" fill="#764cba"/>
		<rect x="41" y="26" width="10" height="2" fill="#764cba"/>
		<rect x="41" y="30" width="14" height="2" fill="#764cba"/>
		<rect x="41" y="5" width="2" height="2" fill="#764cba"/>
		<rect x="45" y="5" width="2" height="2" fill="#764cba"/>
		<rect x="49" y="5" width="2" height="2" fill="#764cba"/>
		<rect x="53" y="5" width="2" height="2" fill="#764cba"/>
		<rect x="41" y="9" width="2" height="2" fill="#764cba"/>
		<rect x="45" y="9" width="2" height="2" fill="#764cba"/>
		<rect x="49" y="9" width="2" height="2" fill="#764cba"/>
		<rect x="53" y="9" width="2" height="2" fill="#764cba"/>
		<rect x="5" y="26" width="2" height="2" fill="#764cba"/>
		<rect x="9" y="26" width="2" height="2" fill="#764cba"/>
		<rect x="13" y="26" width="2" height="2" fill="#764cba"/>
		<rect x="17" y="26" width="2" height="2" fill="#764cba"/>
		<rect x="5" y="30" width="2" height="2" fill="#764cba"/>
		<rect x="9" y="30" width="2" height="2" fill="#764cba"/>
		<rect x="13" y="30" width="2" height="2" fill="#764cba"/>
		<rect x="17" y="30" width="2" height="2" fill="#764cba"/>
	</g>
</g>
<g>
</g>
<g>
</g>
<g>
</g>
<g>
</g>
<g>
</g>
<g>
</g>
<g>
</g>
<g>
</g>
<g>
</g>
<g>
</g>
<g>
</g>
<g>
</g>
<g>
</g>
<g>
</g>
<g>
</g>
</svg>
