<?xml version="1.0" encoding="utf-8"?>
<!-- Generator: Adobe Illustrator 16.0.0, SVG Export Plug-In . SVG Version: 6.00 Build 0)  -->
<!DOCTYPE svg PUBLIC "-//W3C//DTD SVG 1.1//EN" "http://www.w3.org/Graphics/SVG/1.1/DTD/svg11.dtd">
<svg version="1.1" id="Capa_1" xmlns="http://www.w3.org/2000/svg" xmlns:xlink="http://www.w3.org/1999/xlink" x="0px" y="0px"
	 width="512px" height="512px" viewBox="0 0 512 512" enable-background="new 0 0 512 512" xml:space="preserve">
<g>
	<path fill="#34EAD4" d="M255.995,152.517c57.062,0,103.483,46.424,103.483,103.483c0,8.234,6.678,14.913,14.912,14.913
		s14.914-6.679,14.914-14.913c0-73.506-59.804-133.309-133.31-133.309S122.684,182.494,122.684,256s59.803,133.309,133.309,133.309
		c47.199,0,91.33-25.339,115.167-66.131c4.155-7.111,1.76-16.243-5.352-20.4c-7.108-4.151-16.242-1.758-20.4,5.351
		c-18.512,31.678-52.774,51.355-89.418,51.355c-57.062,0-103.483-46.424-103.483-103.483
		C152.507,198.941,198.933,152.517,255.995,152.517z"/>
	<path fill="#34EAD4" d="M511.26,236.253C501.914,111.832,401.088,10.616,276.731,0.811C201.561-5.118,128.027,21.915,74.97,74.975
		C21.91,128.035-5.123,201.573,0.805,276.736c9.771,123.895,110.562,224.686,234.454,234.453c6.828,0.54,13.63,0.803,20.416,0.803
		c67.925,0,133.105-26.727,181.346-74.964c5.823-5.826,5.823-15.269,0-21.09s-15.266-5.826-21.09-0.003
		c-46.881,46.879-111.876,70.763-178.326,65.521c-109.418-8.627-198.436-97.645-207.066-207.065
		C25.3,207.94,49.18,142.94,96.059,96.064c46.878-46.879,111.867-70.769,178.326-65.52
		c109.832,8.657,198.879,98.055,207.133,207.941c1.131,15.055,0.798,30.179-0.986,44.953c-1.894,15.668-11.379,29.341-25.372,36.568
		c-12.663,6.545-26.891,6.52-39.037-0.064c-7.24-3.932-16.295-1.24-20.217,6.003c-3.927,7.24-1.24,16.292,6.003,20.217
		c20.965,11.366,45.362,11.49,66.941,0.346c22.776-11.767,38.214-34.007,41.291-59.49
		C512.159,270.316,512.534,253.239,511.26,236.253z"/>
</g>
</svg>
