<?xml version="1.0" encoding="utf-8"?>
<!-- Generator: Adobe Illustrator 16.0.0, SVG Export Plug-In . SVG Version: 6.00 Build 0)  -->
<!DOCTYPE svg PUBLIC "-//W3C//DTD SVG 1.1//EN" "http://www.w3.org/Graphics/SVG/1.1/DTD/svg11.dtd">
<svg version="1.1" id="Capa_1" xmlns="http://www.w3.org/2000/svg" xmlns:xlink="http://www.w3.org/1999/xlink" x="0px" y="0px"
	 width="512px" height="512px" viewBox="0 0 512 512" enable-background="new 0 0 512 512" xml:space="preserve">
<g>
	<g id="icons_20_">
		<path fill="#34EAD4" d="M390.205,62.114c-12.859,0-23.289,10.424-23.289,23.291V186.34c0,4.283-3.489,7.767-7.766,7.767
			c-4.275,0-7.764-3.483-7.764-7.767V38.821c0-12.868-10.434-23.293-23.293-23.293s-23.292,10.427-23.292,23.293v131.992
			c0,4.282-3.487,7.763-7.765,7.763c-4.276,0-7.765-3.481-7.765-7.763V23.293C289.27,10.426,278.847,0,265.98,0
			c-12.867,0-23.292,10.427-23.292,23.293v147.521c0,4.282-3.481,7.763-7.763,7.763c-4.285,0-4.986-3.481-4.986-7.763V54.35
			c0-12.868-10.425-23.293-23.293-23.293c-12.867,0-23.293,10.426-23.293,23.293c0,0,0.216,85.527,0.216,94.281
			c0,8.753,2.837,12.297,4.24,14.144c17.513,23.068,34.041,44.824,36.374,47.843c13.246,17.139,14.476,9.564,47.451,17.443
			c0.023,0.002,0.042,0.011,0.063,0.014c0.004,0.003,0.008,0.003,0.012,0.005c0.004,0.002,0.004,0.002,0.004,0.002
			c2.104,0.482,4.161,1.081,6.178,1.778c16.278,5.585,53.415,19.333,53.415,19.333c7.015,2.496,10.786,9.737,8.44,16.203
			c-2.41,6.411-9.991,9.611-17.064,7.134c0,0-14.957-4.309-16.457-4.762c-1.499-0.457-5.566-1.231-1.992,3.394
			c3.574,4.624,47.992,62.089,47.992,62.089c3.447,4.456,2.626,10.858-1.83,14.297c-4.453,3.447-10.855,2.626-14.298-1.83
			l-31.167-40.317c-1.148-1.483-2.32-2.503-3.806-1.358c-1.481,1.148-1.755,3.281-0.608,4.77l39.479,51.073
			c3.443,4.455,2.627,10.853-1.83,14.298c-4.455,3.444-10.852,2.624-14.295-1.829l-39.486-51.079
			c-1.145-1.48-3.281-1.755-4.764-0.61c-1.479,1.144-1.757,3.285-0.611,4.768l35.326,45.699c3.442,4.455,2.62,10.861-1.831,14.298
			c-4.454,3.444-10.855,2.623-14.296-1.831l-39.482-51.075c-1.145-1.484-3.284-1.753-4.763-0.606
			c-1.481,1.141-1.76,3.281-0.611,4.765l27.011,34.944c3.445,4.456,2.622,10.854-1.832,14.302
			c-4.448,3.437-10.853,2.624-14.299-1.831c0,0-49.417-63.938-56.1-72.584c-0.123-0.156-0.253-0.327-0.383-0.503
			c-22.129-28.975-9.358-42.593-24.068-63.171l-1.92-2.564c-4.397-5.72-11.506-15.238-19.727-26.338l-10.117-13.508
			c-9.318-14.36-27.501-19.176-40.824-10.949c-13.276,8.416-16.575,26.773-7.377,41.088c0,0,47.941,76.763,69.55,109.607
			c2.678,4.077,5.564,8.036,8.686,11.854c0.002,0.002,0.003,0.005,0.005,0.008c0.004,0.006,0.01,0.011,0.012,0.015
			c0.032,0.039,0.064,0.079,0.094,0.117c25.926,33.304,43.052,62.778,43.052,91.832c0,9.88-0.151,31.976-0.421,45.434
			c-0.161,8.045-1.967,17.569,12.325,17.569c14.292,0,109.852,0,119.331,0c12.147,0,11.855-9.104,11.955-13.102
			c1.23-49.348,0.317-12.474,0.317-49.9c0-62.144,44.369-66.999,44.867-152.513c0.01-0.5,0.014-0.986,0.014-1.445
			c0-24.963,0-209.636,0-209.636C413.499,72.539,403.063,62.114,390.205,62.114z"/>
	</g>
</g>
</svg>
