<?xml version="1.0" encoding="utf-8"?>
<!-- Generator: Adobe Illustrator 16.0.0, SVG Export Plug-In . SVG Version: 6.00 Build 0)  -->
<!DOCTYPE svg PUBLIC "-//W3C//DTD SVG 1.1//EN" "http://www.w3.org/Graphics/SVG/1.1/DTD/svg11.dtd">
<svg version="1.1" id="Layer_1" xmlns="http://www.w3.org/2000/svg" xmlns:xlink="http://www.w3.org/1999/xlink" x="0px" y="0px"
	 width="512px" height="512px" viewBox="0 0 512 512" enable-background="new 0 0 512 512" xml:space="preserve">
<g>
	<path fill="#34EAD4" d="M79.591,106.663c5.665,4.322,13.757,3.234,18.081-2.427C135.72,54.386,193.427,25.798,256,25.798
		c62.572,0,120.28,28.589,158.329,78.438c2.539,3.326,6.378,5.072,10.264,5.072c2.728,0,5.48-0.862,7.816-2.645
		c5.661-4.323,6.747-12.417,2.427-18.08C391.864,32.287,326.682,0,256,0S120.136,32.287,77.166,88.583
		C72.844,94.246,73.93,102.34,79.591,106.663z"/>
	<path fill="#34EAD4" d="M393.114,175.47c0,22.212,18.073,40.286,40.286,40.286s40.286-18.073,40.286-40.286
		c0-22.213-18.074-40.286-40.286-40.286C411.188,135.184,393.114,153.255,393.114,175.47z"/>
	<path fill="#34EAD4" d="M474.629,229.125c-0.093-0.031-10.243-3.146-10.243-3.146c-3.676-1.122-7.668-0.431-10.745,1.873
		l-20.24,15.155l-20.24-15.155c-3.079-2.305-7.073-2.997-10.745-1.873c0,0-10.15,3.115-10.243,3.146
		c-16.333,5.446-27.306,20.669-27.306,37.884v60.904c0,2.35,0.687,4.647,1.979,6.609l20.425,31.083v81.631
		c0,6.649,5.389,12.038,12.038,12.038h68.186c6.648,0,12.038-5.389,12.038-12.038v-81.631l20.425-31.083
		c1.291-1.964,1.979-4.262,1.979-6.609v-60.904C501.936,249.794,490.962,234.57,474.629,229.125L474.629,229.125z"/>
	<path fill="#34EAD4" d="M78.6,215.755c22.213,0,40.286-18.073,40.286-40.286c0-22.213-18.073-40.286-40.286-40.286
		c-22.212,0-40.288,18.072-40.288,40.286C38.312,197.684,56.386,215.755,78.6,215.755z"/>
	<path fill="#34EAD4" d="M119.829,229.125c-0.093-0.031-10.243-3.146-10.243-3.146c-3.677-1.122-7.667-0.431-10.745,1.873
		L78.6,243.005l-20.24-15.155c-3.077-2.305-7.073-2.997-10.745-1.873c0,0-10.15,3.115-10.244,3.146
		c-16.332,5.446-27.305,20.669-27.305,37.884v60.904c0,2.35,0.686,4.647,1.979,6.609l20.425,31.083v81.631
		c0,6.649,5.389,12.038,12.038,12.038h68.184c6.649,0,12.038-5.389,12.038-12.038v-81.631l20.425-31.083
		c1.291-1.964,1.979-4.262,1.979-6.609v-60.904C147.134,249.794,136.159,234.57,119.829,229.125z"/>
	<path fill="#34EAD4" d="M307.962,118.692c0-28.651-23.311-51.962-51.962-51.962s-51.962,23.311-51.962,51.962
		c0,28.653,23.311,51.962,51.962,51.962S307.962,147.346,307.962,118.692z"/>
	<path fill="#34EAD4" d="M313.073,195.837l-0.086-0.028l-14.831-4.551c-2.34-0.719-4.839,0.519-5.68,2.827l-31.186,85.566
		c-1.801,4.936-8.78,4.936-10.58,0l-31.186-85.566c-0.679-1.864-2.438-3.032-4.323-3.032c-0.447,0-16.17,4.749-16.17,4.749
		c-18.946,6.313-31.603,23.876-31.603,43.736v90.515c0,0.898,0.264,1.777,0.757,2.529l32.541,49.518v125.293
		c0,2.545,2.062,4.606,4.606,4.606h101.336c2.544,0,4.606-2.062,4.606-4.606V382.101l32.541-49.518
		c0.492-0.752,0.756-1.631,0.756-2.529v-90.753C344.57,219.527,331.863,201.994,313.073,195.837L313.073,195.837z"/>
	<path fill="#34EAD4" d="M268.185,194.036c-1.288-1.403-3.172-2.11-5.079-2.11h-14.213c-1.905,0-3.79,0.707-5.079,2.11
		c-1.994,2.174-2.284,5.313-0.869,7.766l7.597,11.454l-3.556,30.004l7.004,18.632c0.683,1.873,3.333,1.873,4.017,0l7.004-18.632
		l-3.556-30.004l7.597-11.454C270.469,199.349,270.18,196.21,268.185,194.036z"/>
</g>
</svg>
