<?xml version="1.0" encoding="iso-8859-1"?>
<!-- Generator: Adobe Illustrator 19.0.0, SVG Export Plug-In . SVG Version: 6.00 Build 0)  -->
<svg version="1.1" id="Layer_1" xmlns="http://www.w3.org/2000/svg" xmlns:xlink="http://www.w3.org/1999/xlink" x="0px" y="0px"
	 viewBox="0 0 517.062 517.062" style="enable-background:new 0 0 517.062 517.062;" xml:space="preserve">
<circle style="fill:#3DB39E;" cx="256" cy="258.531" r="256"/>
<path style="fill:#37A18E;" d="M499.43,179.284c-7.25-22.287-17.449-43.228-30.172-62.362l-224.087,233.4l0.451,25.974l10.578-0.067
	L499.43,179.284L499.43,179.284z"/>
<path style="fill:#F8F8F8;" d="M512.389,103.303l-45.65-45.102c-6.231-6.159-16.338-6.159-22.569,0L249.032,259.202l-84.152-83.149
	c-6.241-6.159-16.338-6.159-22.574,0l-40.463,39.982c-6.231,6.154-6.231,16.138,0,22.292l135.06,133.432
	c3.599,3.558,8.479,4.992,13.169,4.439c4.69,0.548,9.569-0.881,13.169-4.439l249.149-246.159
	C518.62,119.441,518.62,109.462,512.389,103.303L512.389,103.303z"/>
<path style="fill:#EBEBEB;" d="M263.24,371.76l249.149-246.159c6.231-6.159,6.231-16.138,0-22.298l-7.45-7.363L248.648,348.024
	L107.5,210.439l-5.652,5.591c-6.231,6.154-6.231,16.138,0,22.292L236.902,371.76c3.599,3.558,8.479,4.992,13.169,4.439
	C254.761,376.752,259.64,375.324,263.24,371.76L263.24,371.76z"/>
<g>
</g>
<g>
</g>
<g>
</g>
<g>
</g>
<g>
</g>
<g>
</g>
<g>
</g>
<g>
</g>
<g>
</g>
<g>
</g>
<g>
</g>
<g>
</g>
<g>
</g>
<g>
</g>
<g>
</g>
</svg>
