<?xml version="1.0" encoding="utf-8"?>
<!-- Generator: Adobe Illustrator 16.0.0, SVG Export Plug-In . SVG Version: 6.00 Build 0)  -->
<!DOCTYPE svg PUBLIC "-//W3C//DTD SVG 1.1//EN" "http://www.w3.org/Graphics/SVG/1.1/DTD/svg11.dtd">
<svg version="1.1" id="Capa_1" xmlns="http://www.w3.org/2000/svg" xmlns:xlink="http://www.w3.org/1999/xlink" x="0px" y="0px"
	 width="512px" height="512px" viewBox="0 0 512 512" enable-background="new 0 0 512 512" xml:space="preserve">
<g id="XMLID_129_">
	<path id="XMLID_134_" fill="#34EAD4" d="M495.621,5.917H223.448c-9.055,0-16.378,7.347-16.378,16.388v115.591l11.842-13.846
		c5.623-6.583,13.037-10.643,20.916-12.338V38.687H479.24v213.985H239.829v-35.82l-7.376,8.625
		c-6.446,7.521-15.545,12.188-25.383,13.108v30.47c0,9.041,7.323,16.379,16.378,16.379h88.394l-44.908,203.885
		c-2.012,9.143,3.767,18.185,12.917,20.202c9.067,1.992,18.186-3.768,20.179-12.901l46.512-211.185h27.039l46.512,211.185
		c1.742,7.906,8.756,13.302,16.533,13.293c1.207,0,2.441-0.123,3.664-0.392c9.15-2.018,14.928-11.059,12.897-20.202l-44.903-203.885
		h87.339c9.047,0,16.379-7.338,16.379-16.379V22.306C512,13.264,504.668,5.917,495.621,5.917z"/>
	<path id="XMLID_132_" fill="#34EAD4" d="M365.517,101.605c-1.291-3.254-4.951-4.852-8.202-3.563l-96.498,34.06
		c-8.856-6.857-21.633-5.632-29.019,2.958l-30.62,35.758l-27.15-23.273c0.179,1.922,0.586,3.79,0.586,5.761v50.523l15.105,12.943
		c8.964,7.677,22.374,6.491,29.869-2.3l36.452-42.626l29.399-17.199l77.369-45.267C365.482,107.837,366.668,104.542,365.517,101.605
		z"/>
	<path id="XMLID_131_" fill="#34EAD4" d="M115.009,110.665H96.825c-13.923,0-26.166,6.767-33.948,17.082l-55.818,51.39
		c-8.697,7.748-9.486,21.167-1.654,29.917l45.54,50.831c7.764,8.693,21.204,9.462,29.9,1.648c8.719-7.814,9.456-21.198,1.643-29.907
		l-31.39-35.052l44.585-39.897l-25.967,35.28l25.401,28.36c14.036,15.685,12.713,39.785-2.965,53.832
		c-10.704,9.596-25.312,11.847-37.975,7.422c0,0,0.196,97.987,0.196,202.927c0,14.036,11.377,25.414,25.414,25.414
		c14.022,0,25.414-11.378,25.414-25.414c0-104.907,0-45.041,0-151.463h16.952c0,106.345,0,46.523,0,151.463
		c0,7.327-2.043,14.113-5.301,20.12c4.264,3.279,9.571,5.293,15.354,5.293c14.044,0,25.421-11.377,25.421-25.413
		c0-104.907,0.032-60.929,0.032-331.193C157.663,129.754,138.572,110.665,115.009,110.665z"/>
	<path id="XMLID_130_" fill="#34EAD4" d="M83.271,95.413c6.795,3.532,14.424,5.724,22.619,5.724c8.216,0,15.845-2.192,22.66-5.73
		c15.907-8.241,26.871-24.648,26.871-43.797c0-27.354-22.176-49.523-49.532-49.523c-27.353,0-49.523,22.168-49.523,49.523
		C56.367,70.77,67.343,87.183,83.271,95.413z"/>
</g>
</svg>
