<?xml version="1.0" encoding="iso-8859-1"?>
<svg xmlns="http://www.w3.org/2000/svg" xmlns:xlink="http://www.w3.org/1999/xlink" version="1.1" viewBox="0 0 511 511" enable-background="new 0 0 511 511" width="512px" height="512px">
  <g>
    <path d="M471.5,28H455V11.5c0-4.142-3.358-7.5-7.5-7.5s-7.5,3.358-7.5,7.5V28H71V11.5C71,7.358,67.642,4,63.5,4S56,7.358,56,11.5   V28H39.5C17.72,28,0,45.72,0,67.5v400C0,489.28,17.72,507,39.5,507h432c21.78,0,39.5-17.72,39.5-39.5v-400   C511,45.72,493.28,28,471.5,28z M39.5,43H56v17.909C42.241,64.284,32,76.715,32,91.5c0,17.369,14.131,31.5,31.5,31.5   S95,108.869,95,91.5c0-14.785-10.241-27.216-24-30.591V43h369v17.909c-13.759,3.374-24,15.806-24,30.591   c0,17.369,14.131,31.5,31.5,31.5S479,108.869,479,91.5c0-14.785-10.241-27.216-24-30.591V43h16.5c13.509,0,24.5,10.991,24.5,24.5   V140H15V67.5C15,53.991,25.991,43,39.5,43z M63.5,99c4.142,0,7.5-3.358,7.5-7.5V76.822c5.334,2.737,9,8.282,9,14.678   c0,9.098-7.402,16.5-16.5,16.5S47,100.598,47,91.5c0-6.396,3.666-11.942,9-14.678V91.5C56,95.642,59.358,99,63.5,99z M447.5,99   c4.142,0,7.5-3.358,7.5-7.5V76.822c5.334,2.737,9,8.282,9,14.678c0,9.098-7.402,16.5-16.5,16.5S431,100.598,431,91.5   c0-6.396,3.666-11.942,9-14.678V91.5C440,95.642,443.358,99,447.5,99z M471.5,492h-432C25.991,492,15,481.009,15,467.5V155h481   v312.5C496,481.009,485.009,492,471.5,492z" fill="#006DF0"/>
    <path d="m255.5,212c-17.369,0-31.5,14.131-31.5,31.5s14.131,31.5 31.5,31.5 31.5-14.131 31.5-31.5-14.131-31.5-31.5-31.5zm0,48c-9.098,0-16.5-7.402-16.5-16.5s7.402-16.5 16.5-16.5 16.5,7.402 16.5,16.5-7.402,16.5-16.5,16.5z" fill="#006DF0"/>
    <path d="m175.5,212c-17.369,0-31.5,14.131-31.5,31.5s14.131,31.5 31.5,31.5 31.5-14.131 31.5-31.5-14.131-31.5-31.5-31.5zm0,48c-9.098,0-16.5-7.402-16.5-16.5s7.402-16.5 16.5-16.5 16.5,7.402 16.5,16.5-7.402,16.5-16.5,16.5z" fill="#006DF0"/>
    <path d="m95.5,212c-17.369,0-31.5,14.131-31.5,31.5s14.131,31.5 31.5,31.5 31.5-14.131 31.5-31.5-14.131-31.5-31.5-31.5zm0,15c6.396,0 11.942,3.666 14.679,9h-29.358c2.737-5.334 8.283-9 14.679-9zm0,33c-6.396,0-11.942-3.666-14.679-9h29.357c-2.736,5.334-8.282,9-14.678,9z" fill="#006DF0"/>
    <path d="m335.5,212c-17.369,0-31.5,14.131-31.5,31.5s14.131,31.5 31.5,31.5 31.5-14.131 31.5-31.5-14.131-31.5-31.5-31.5zm0,48c-9.098,0-16.5-7.402-16.5-16.5s7.402-16.5 16.5-16.5 16.5,7.402 16.5,16.5-7.402,16.5-16.5,16.5z" fill="#006DF0"/>
    <path d="m415.5,212c-17.369,0-31.5,14.131-31.5,31.5s14.131,31.5 31.5,31.5 31.5-14.131 31.5-31.5-14.131-31.5-31.5-31.5zm0,48c-9.098,0-16.5-7.402-16.5-16.5s7.402-16.5 16.5-16.5 16.5,7.402 16.5,16.5-7.402,16.5-16.5,16.5z" fill="#006DF0"/>
    <path d="m255.5,292c-17.369,0-31.5,14.131-31.5,31.5s14.131,31.5 31.5,31.5 31.5-14.131 31.5-31.5-14.131-31.5-31.5-31.5zm0,48c-9.098,0-16.5-7.402-16.5-16.5s7.402-16.5 16.5-16.5 16.5,7.402 16.5,16.5-7.402,16.5-16.5,16.5z" fill="#006DF0"/>
    <path d="m175.5,292c-17.369,0-31.5,14.131-31.5,31.5s14.131,31.5 31.5,31.5 31.5-14.131 31.5-31.5-14.131-31.5-31.5-31.5zm0,48c-9.098,0-16.5-7.402-16.5-16.5s7.402-16.5 16.5-16.5 16.5,7.402 16.5,16.5-7.402,16.5-16.5,16.5z" fill="#006DF0"/>
    <path d="m95.5,292c-17.369,0-31.5,14.131-31.5,31.5s14.131,31.5 31.5,31.5 31.5-14.131 31.5-31.5-14.131-31.5-31.5-31.5zm0,48c-9.098,0-16.5-7.402-16.5-16.5s7.402-16.5 16.5-16.5 16.5,7.402 16.5,16.5-7.402,16.5-16.5,16.5z" fill="#006DF0"/>
    <path d="m335.5,292c-17.369,0-31.5,14.131-31.5,31.5s14.131,31.5 31.5,31.5 31.5-14.131 31.5-31.5-14.131-31.5-31.5-31.5zm0,15c6.396,0 11.942,3.666 14.679,9h-29.357c2.736-5.334 8.282-9 14.678-9zm0,33c-6.396,0-11.942-3.666-14.679-9h29.357c-2.736,5.334-8.282,9-14.678,9z" fill="#006DF0"/>
    <path d="m415.5,292c-17.369,0-31.5,14.131-31.5,31.5s14.131,31.5 31.5,31.5 31.5-14.131 31.5-31.5-14.131-31.5-31.5-31.5zm0,48c-9.098,0-16.5-7.402-16.5-16.5s7.402-16.5 16.5-16.5 16.5,7.402 16.5,16.5-7.402,16.5-16.5,16.5z" fill="#006DF0"/>
    <path d="m255.5,372c-17.369,0-31.5,14.131-31.5,31.5s14.131,31.5 31.5,31.5 31.5-14.131 31.5-31.5-14.131-31.5-31.5-31.5zm0,15c6.396,0 11.942,3.666 14.679,9h-29.357c2.736-5.334 8.282-9 14.678-9zm0,33c-6.396,0-11.942-3.666-14.679-9h29.357c-2.736,5.334-8.282,9-14.678,9z" fill="#006DF0"/>
    <path d="m175.5,372c-17.369,0-31.5,14.131-31.5,31.5s14.131,31.5 31.5,31.5 31.5-14.131 31.5-31.5-14.131-31.5-31.5-31.5zm0,48c-9.098,0-16.5-7.402-16.5-16.5s7.402-16.5 16.5-16.5 16.5,7.402 16.5,16.5-7.402,16.5-16.5,16.5z" fill="#006DF0"/>
    <path d="m95.5,372c-17.369,0-31.5,14.131-31.5,31.5s14.131,31.5 31.5,31.5 31.5-14.131 31.5-31.5-14.131-31.5-31.5-31.5zm0,48c-9.098,0-16.5-7.402-16.5-16.5s7.402-16.5 16.5-16.5 16.5,7.402 16.5,16.5-7.402,16.5-16.5,16.5z" fill="#006DF0"/>
    <path d="m335.5,372c-17.369,0-31.5,14.131-31.5,31.5s14.131,31.5 31.5,31.5 31.5-14.131 31.5-31.5-14.131-31.5-31.5-31.5zm0,48c-9.098,0-16.5-7.402-16.5-16.5s7.402-16.5 16.5-16.5 16.5,7.402 16.5,16.5-7.402,16.5-16.5,16.5z" fill="#006DF0"/>
    <path d="m415.5,372c-17.369,0-31.5,14.131-31.5,31.5s14.131,31.5 31.5,31.5 31.5-14.131 31.5-31.5-14.131-31.5-31.5-31.5zm0,48c-9.098,0-16.5-7.402-16.5-16.5s7.402-16.5 16.5-16.5 16.5,7.402 16.5,16.5-7.402,16.5-16.5,16.5z" fill="#006DF0"/>
  </g>
</svg>
