<?xml version="1.0" encoding="iso-8859-1"?>
<svg xmlns="http://www.w3.org/2000/svg" xmlns:xlink="http://www.w3.org/1999/xlink" version="1.1" viewBox="0 0 463.001 463.001" enable-background="new 0 0 463.001 463.001" width="512px" height="512px">
  <g>
    <g>
      <path d="m351,417.234v-55.224c0-19.099-7.438-37.054-20.941-50.559l-57.941-57.941c-5.88-5.879-9.117-13.695-9.117-22.01s3.237-16.131 9.117-22.01l57.941-57.941c13.504-13.505 20.941-31.46 20.941-50.559v-55.224c9.29-3.138 16-11.93 16-22.266 0-12.958-10.542-23.5-23.5-23.5h-224c-12.958,0-23.5,10.542-23.5,23.5 0,10.336 6.71,19.128 16,22.266v55.225c0,19.099 7.438,37.054 20.941,50.559l57.941,57.941c5.88,5.879 9.117,13.695 9.117,22.01s-3.237,16.131-9.117,22.01l-57.941,57.941c-13.503,13.504-20.941,31.459-20.941,50.558v55.225c-9.29,3.138-16,11.93-16,22.266 0,12.958 10.542,23.5 23.5,23.5h224c12.958,0 23.5-10.542 23.5-23.5 0-10.337-6.709-19.129-16-22.267zm-231.499-402.234h224c4.687,0 8.5,3.813 8.5,8.5s-3.813,8.5-8.5,8.5h-224c-4.687,0-8.5-3.813-8.5-8.5s3.813-8.5 8.5-8.5zm24.048,307.059l57.941-57.941c8.712-8.713 13.51-20.296 13.51-32.617s-4.798-23.904-13.51-32.617l-57.941-57.941c-10.672-10.672-16.549-24.861-16.549-39.953v-53.99h209v53.99c0,15.092-5.877,29.28-16.549,39.951l-57.941,57.941c-8.712,8.714-13.51,20.297-13.51,32.618s4.798,23.904 13.51,32.617l57.941,57.941c10.672,10.671 16.549,24.86 16.549,39.952v53.99h-209v-53.99c0.001-15.092 5.878-29.281 16.549-39.951zm199.951,125.941h-224c-4.687,0-8.5-3.813-8.5-8.5s3.813-8.5 8.5-8.5h224c4.687,0 8.5,3.813 8.5,8.5s-3.812,8.5-8.5,8.5z" fill="#006DF0"/>
      <path d="m151.501,399h160c4.143,0 7.5-3.357 7.5-7.5v-29.49c0-10.551-4.108-20.47-11.568-27.931l-27.883-27.883c-1.407-1.406-3.314-2.196-5.304-2.196h-35.245v-103.305c2.827-5.039 6.345-9.688 10.49-13.832l38.06-38.059c2.145-2.146 2.786-5.371 1.625-8.174-1.16-2.803-3.896-4.63-6.929-4.63h-101.49c-3.033,0-5.769,1.827-6.929,4.63-1.161,2.803-0.52,6.028 1.625,8.174l38.059,38.059c4.145,4.145 7.663,8.794 10.489,13.833v103.304h-35.245c-1.989,0-3.896,0.79-5.304,2.197l-27.882,27.882c-7.461,7.461-11.569,17.381-11.569,27.931v29.49c-5.68434e-14,4.143 3.356,7.5 7.5,7.5zm47.362-248h65.276l-25.256,25.255c-2.673,2.674-5.138,5.518-7.383,8.513-2.243-2.995-4.709-5.839-7.382-8.513l-25.255-25.255zm-39.862,211.01c0-6.544 2.549-12.696 7.177-17.323l25.683-25.687h79.277l25.686,25.687c4.628,4.627 7.176,10.779 7.176,17.323v21.99h-145v-21.99z" fill="#006DF0"/>
    </g>
  </g>
</svg>
