<?xml version="1.0" encoding="iso-8859-1"?>
<!-- Generator: Adobe Illustrator 17.1.0, SVG Export Plug-In . SVG Version: 6.00 Build 0)  -->
<!DOCTYPE svg PUBLIC "-//W3C//DTD SVG 1.1//EN" "http://www.w3.org/Graphics/SVG/1.1/DTD/svg11.dtd">
<svg xmlns="http://www.w3.org/2000/svg" xmlns:xlink="http://www.w3.org/1999/xlink" version="1.1" id="Capa_1" x="0px" y="0px" viewBox="0 0 442.691 442.691" style="enable-background:new 0 0 442.691 442.691;" xml:space="preserve" width="512px" height="512px">
<path d="M156.546,286.223c0,5.523-4.476,10-9.999,10.001l-19.505,0.002c-5.523,0-10-4.476-10.001-9.999  c0-5.523,4.476-10,9.999-10.001l19.505-0.002C152.068,276.223,156.546,280.7,156.546,286.223z M39.737,108.193  c-0.18-3.691-0.2-7.466-0.056-11.32c1.39-37.11,26.92-58.382,54.748-65.307c16.416-3.957,30.701-1.155,31.171-1.033  c29.592,5.614,57.995,27.142,59.463,66.34c1.388,37.1-12.44,67.066-37.938,82.214c-10.718,6.367-22.736,9.551-34.753,9.551  c-12.017,0-24.035-3.184-34.753-9.551c-22.788-13.539-36.255-38.911-37.869-70.636C39.744,108.365,39.74,108.279,39.737,108.193z   M118.585,86.817c12.57,12.143,30.042,16.692,46.532,12.068c-0.011-0.42-0.024-0.843-0.041-1.265  c-0.895-23.895-15.535-38.518-33.437-44.869C129.392,65.56,124.958,77.085,118.585,86.817z M105.46,101.951  c-1.039,0.906-2.106,1.781-3.198,2.624c-11.949,9.223-26.49,14.164-41.283,14.261c3.355,19.446,12.671,34.629,26.855,43.056  c15.137,8.992,33.941,8.992,49.076,0c13.968-8.298,23.216-23.15,26.698-42.172C142.681,123.337,121.349,116.896,105.46,101.951z   M59.628,98.829c10.858,0.207,21.625-3.304,30.414-10.087c2.487-1.919,5.125-4.328,7.698-7.33c0.209-0.277,0.434-0.544,0.674-0.802  c5.792-7.027,11.156-17.133,13.584-31.504c-24.008,1.1-48.481,14.988-51.955,43.715C59.855,94.377,59.639,98.427,59.628,98.829z   M407.482,273.95c-8.271-44.661-50.437-64.716-88.555-64.716c-0.003,0,0,0-0.003,0c-38.118,0-80.285,20.056-88.559,64.716  l-23.565,127.265c-0.542,2.921,0.245,6.031,2.145,8.315s4.717,3.704,7.688,3.704h132.462c5.522,0,10-4.477,10-10  c0-5.523-4.478-10-10-10H228.656l21.376-115.495c6.18-33.363,39.056-48.338,68.895-48.338c29.839,0,62.711,14.913,68.89,48.275  l23.568,127.223c0.893,4.815,5.095,8.175,9.821,8.175c0.604,0,1.218-0.058,1.833-0.172c5.431-1.006,9.018-6.256,8.012-11.687  L407.482,273.95z M442.684,161.366c-0.127,3.451-2.025,6.592-5.021,8.309c-10.222,5.858-21.809,9.528-34.439,10.907  c-5.485,0.598-10.428-3.365-11.027-8.855c-0.599-5.49,3.366-10.427,8.856-11.026c4.358-0.476,8.542-1.291,12.526-2.438  c-8.772-8.411-17.101-18.906-24.491-30.806c-5.108,22.806-17.302,40.922-35.329,51.631c-10.717,6.367-22.736,9.551-34.753,9.551  c-12.019,0-24.034-3.183-34.754-9.552c-18.111-10.76-30.335-28.997-35.398-51.956c-6.96,11.265-15.223,22.132-24.582,31.127  c2.925,0.842,5.957,1.506,9.088,1.99c5.458,0.844,9.199,5.952,8.355,11.41c-0.844,5.459-5.963,9.199-11.41,8.355  c-10.98-1.698-21.114-5.176-30.12-10.337c-2.996-1.717-4.894-4.858-5.021-8.309s1.535-6.722,4.396-8.655  c16.193-10.936,32.21-32.096,43.448-56.903c1.726-3.81,7.167-20.664,8.908-24.71c9.278-21.553,28.772-34.554,49.49-39.617  c12.251-3.684,30.361-1.07,30.834-0.948c22.616,4.29,44.534,17.875,54.266,41.536c1.667,4.053,7.022,20.868,8.687,24.491  c11.243,24.473,27.181,45.404,43.094,56.15C441.149,154.644,442.811,157.916,442.684,161.366z M266.263,98.829  c10.896,0.212,21.626-3.304,30.414-10.087c2.481-1.915,5.113-4.318,7.682-7.31c0.218-0.291,0.454-0.572,0.707-0.842  c5.787-7.026,11.143-17.126,13.569-31.485c-24.087,1.104-48.641,15.079-51.99,43.994C266.476,94.569,266.274,98.427,266.263,98.829z   M370.244,119.72c-20.928,3.619-42.259-2.823-58.148-17.768c-1.039,0.906-2.106,1.781-3.198,2.624  c-11.949,9.223-26.49,14.163-41.283,14.261c3.354,19.446,12.671,34.629,26.854,43.056c15.135,8.992,33.941,8.992,49.076,0  C357.513,153.593,366.762,138.742,370.244,119.72z M371.754,98.885c-0.012-0.42-0.025-0.843-0.041-1.265  c-0.893-23.895-15.532-38.518-33.436-44.869c-2.249,12.809-6.684,24.335-13.057,34.067  C337.792,98.961,355.259,103.51,371.754,98.885z M353.181,276.224l-19.506,0.002c-5.522,0-10,4.478-9.999,10.001  c0.001,5.523,4.479,10,10.001,9.999l19.506-0.002c5.522,0,10-4.478,9.999-10.001C363.181,280.7,358.704,276.223,353.181,276.224z   M112.292,209.234c-0.002,0,0,0-0.001,0c-38.119,0-80.286,20.056-88.558,64.716L0.167,401.215c-0.541,2.921,0.245,6.031,2.145,8.315  s4.717,3.704,7.688,3.704h131.689c5.523,0,10-4.477,10-10c0-5.523-4.477-10-10-10H22.022l21.376-115.496  c6.179-33.363,39.054-48.338,68.894-48.337c29.838,0,62.711,14.913,68.889,48.274c1.006,5.431,6.221,9.007,11.654,8.002  c5.431-1.006,9.018-6.291,8.012-11.722C192.576,229.294,150.411,209.234,112.292,209.234z" fill="#006DF0"/>
<g>
</g>
<g>
</g>
<g>
</g>
<g>
</g>
<g>
</g>
<g>
</g>
<g>
</g>
<g>
</g>
<g>
</g>
<g>
</g>
<g>
</g>
<g>
</g>
<g>
</g>
<g>
</g>
<g>
</g>
</svg>
