<?xml version="1.0" encoding="iso-8859-1"?>
<!-- Generator: Adobe Illustrator 19.0.0, SVG Export Plug-In . SVG Version: 6.00 Build 0)  -->
<svg xmlns="http://www.w3.org/2000/svg" xmlns:xlink="http://www.w3.org/1999/xlink" version="1.1" id="Capa_1" x="0px" y="0px" viewBox="0 0 60 60" style="enable-background:new 0 0 60 60;" xml:space="preserve" width="512px" height="512px">
<g>
	<g>
		<path d="M20,21c0-2.8,2.2-5,5-5h1.3l2.8,7.4c0.1,0.3,0.5,0.6,0.9,0.6s0.8-0.3,1.1-0.6l2.8-7.4H35c2.8,0,5,2.2,5,5v10h2V21    c0-3.9-3.1-7-7-7H25c-3.9,0-7,3.1-7,7v10h2L20,21L20,21z M30.1,20.2L28.5,16h3.2L30.1,20.2z" fill="#006DF0"/>
		<rect x="29" y="25" width="2" height="2" fill="#006DF0"/>
		<rect x="29" y="29" width="2" height="2" fill="#006DF0"/>
		<path d="M29,13h2c2.8,0,5-2.2,5-5V5c0-2.8-2.2-5-5-5h-2c-2.8,0-5,2.2-5,5v3C24,10.8,26.2,13,29,13z M26,5c0-1.7,1.3-3,3-3h2    c1.7,0,3,1.3,3,3v3c0,1.7-1.3,3-3,3h-2c-1.7,0-3-1.3-3-3V5z" fill="#006DF0"/>
		<rect x="23" y="24" width="2" height="7" fill="#006DF0"/>
		<rect x="35" y="24" width="2" height="7" fill="#006DF0"/>
		<path d="M17,50H7c-3.9,0-7,3.1-7,7v3h2v-3c0-2.8,2.2-5,5-5h1.3l2.8,7.4c0.1,0.3,0.5,0.6,0.9,0.6s0.8-0.3,1.1-0.6l2.8-7.4H17    c2.8,0,5,2.2,5,5v3h2v-3C24,53.1,20.9,50,17,50z M12.1,56.2L10.5,52h3.2L12.1,56.2z" fill="#006DF0"/>
		<path d="M11,49h2c2.8,0,5-2.2,5-5v-3c0-2.8-2.2-5-5-5h-2c-2.8,0-5,2.2-5,5v3C6,46.8,8.2,49,11,49z M8,41c0-1.7,1.3-3,3-3h2    c1.7,0,3,1.3,3,3v3c0,1.7-1.3,3-3,3h-2c-1.7,0-3-1.3-3-3V41z" fill="#006DF0"/>
		<path d="M53,50H43c-3.9,0-7,3.1-7,7v3h2v-3c0-2.8,2.2-5,5-5h1.3l2.8,7.4c0.1,0.3,0.5,0.6,0.9,0.6s0.8-0.3,1.1-0.6l2.8-7.4H53    c2.8,0,5,2.2,5,5v3h2v-3C60,53.1,56.9,50,53,50z M48.1,56.2L46.5,52h3.2L48.1,56.2z" fill="#006DF0"/>
		<path d="M42,44c0,2.8,2.2,5,5,5h2c2.8,0,5-2.2,5-5v-3c0-2.8-2.2-5-5-5h-2c-2.8,0-5,2.2-5,5V44z M44,41c0-1.7,1.3-3,3-3h2    c1.7,0,3,1.3,3,3v3c0,1.7-1.3,3-3,3h-2c-1.7,0-3-1.3-3-3V41z" fill="#006DF0"/>
		<polygon points="20,45 40,45 40,43 31,43 31,34 29,34 29,43 20,43   " fill="#006DF0"/>
	</g>
</g>
<g>
</g>
<g>
</g>
<g>
</g>
<g>
</g>
<g>
</g>
<g>
</g>
<g>
</g>
<g>
</g>
<g>
</g>
<g>
</g>
<g>
</g>
<g>
</g>
<g>
</g>
<g>
</g>
<g>
</g>
</svg>
