<?xml version="1.0" encoding="utf-8"?>
<!-- Generator: Adobe Illustrator 16.0.0, SVG Export Plug-In . SVG Version: 6.00 Build 0)  -->
<!DOCTYPE svg PUBLIC "-//W3C//DTD SVG 1.1//EN" "http://www.w3.org/Graphics/SVG/1.1/DTD/svg11.dtd">
<svg version="1.1" id="Layer_1" xmlns="http://www.w3.org/2000/svg" xmlns:xlink="http://www.w3.org/1999/xlink" x="0px" y="0px"
	 width="556.205px" height="537.426px" viewBox="0 0 556.205 537.426" enable-background="new 0 0 556.205 537.426"
	 xml:space="preserve">
<circle display="none" fill="#FFFFFF" cx="273.139" cy="277.831" r="235.542"/>
<circle display="none" fill="none" stroke="#FFFFFF" stroke-width="3" stroke-miterlimit="10" cx="272.983" cy="278.373" r="250"/>
<g display="none">
	<g display="inline">
		<path fill="#FFFFFF" d="M555.483,278.627c-0.072,52.206-14.406,103.672-41.529,148.294
			c-26.254,43.191-64.117,78.915-108.544,102.954c-46.164,24.979-98.927,36.38-151.281,33.554
			c-51.719-2.792-102.109-20.106-144.862-49.276c-41.771-28.501-75.471-68.235-97.127-113.896
			c-22.585-47.619-31.121-101.282-25.388-153.608c5.608-51.181,25.612-100.282,56.786-141.194
			c30.73-40.331,72.421-72.084,119.359-91.201C211.826-5.674,266.145-11.383,318.207-2.612
			c50.517,8.51,98.222,31.022,137.181,64.235c38.598,32.904,68.021,76.081,84.595,124.004
			C550.313,215.499,555.439,247.035,555.483,278.627c0.003,1.935,3.003,1.935,3,0c-0.071-51.697-13.988-102.752-40.379-147.221
			c-25.529-43.016-62.424-78.971-105.88-103.688C367.202,2.111,315.502-10.623,263.766-9.55
			C212.285-8.481,161.554,6.708,117.855,33.904C75.384,60.337,40.192,97.962,16.397,141.938
			c-24.708,45.665-36.346,97.767-34.123,149.591c2.201,51.31,18.456,101.563,46.491,144.564
			c27.326,41.915,65.667,76.33,110.15,99.193c46.274,23.784,98.747,34.322,150.62,30.946c51.124-3.326,100.883-20.63,143.183-49.491
			c41.345-28.209,74.969-67.254,96.891-112.23c19.063-39.11,28.813-82.405,28.874-125.885
			C558.486,276.692,555.486,276.692,555.483,278.627z"/>
	</g>
</g>
<g>
	<circle fill="#FFFFFF" cx="268.706" cy="268.713" r="213.987"/>
	<g>
		<g>
			<g>
				<path fill="#FFFFFF" d="M1.984,271.918c-0.84-72.815,27.86-145.712,85.363-198.979S219.728-3.379,292.266,3.021l1.938-1.796
					c-5.05-0.476-10.127-0.829-15.237-1.023C207.246-2.542,138.749,22.811,86.095,71.586S2.932,186.722,0.188,258.446
					c-0.195,5.107-0.23,10.197-0.144,15.27L1.984,271.918z"/>
				<path fill="#FFFFFF" d="M499.062,133.969l1.436-1.331c-9.742-16.523-21.32-32.123-34.668-46.532
					c-18.986-20.495-40.646-37.617-64.238-51.07l-1.5,1.389c23.395,13.214,45.172,30.194,64.385,50.935
					C477.935,101.89,489.447,117.537,499.062,133.969z"/>
				<path fill="#FFFFFF" d="M533.378,235.467c10.238,82.395-17.9,168.412-83.324,229.021
					c-107.951,99.998-277.129,93.529-377.126-14.424c-19.214-20.74-34.481-43.748-45.869-68.084l-1.501,1.389
					c11.612,24.551,27.03,47.453,46.016,67.949c48.776,52.658,115.139,83.166,186.858,85.906
					c71.722,2.744,140.22-22.605,192.876-71.385c52.652-48.773,83.162-115.135,85.904-186.859
					c0.584-15.249-0.115-30.349-2.027-45.188L533.378,235.467z"/>
			</g>
			<g>
				<path fill="#FFFFFF" d="M74.736,162.39c8.154-14.876,18.145-29.041,30.021-42.154c80.194-88.55,216.303-97.007,306.803-20.371
					l1.186-1.312c-43.313-36.724-98.076-55.342-155.069-52.521c-59.479,2.946-114.254,28.877-154.229,73.019
					c-12.097,13.358-22.389,27.905-30.796,43.338H74.736z"/>
				<path fill="#FFFFFF" d="M47.985,255.963h-1.884c-0.436,7.867-0.475,15.799-0.079,23.777
					c2.822,56.988,26.757,109.65,67.582,149.123l1.188-1.311C67.02,381.303,44.459,318.141,47.985,255.963z"/>
				<path fill="#FFFFFF" d="M464.789,162.39c-2.242-4.128-4.621-8.188-7.127-12.174l-1.299,1.433
					c2.203,3.529,4.285,7.115,6.271,10.741H464.789z"/>
				<path fill="#FFFFFF" d="M491.285,255.963H489.4c3.309,57.154-15.373,115.543-56.748,161.23
					c-67.791,74.852-175.529,92.455-261.902,49.826l-1.296,1.432c33.795,16.861,71.518,24.863,110.275,22.943
					c59.481-2.943,114.254-28.877,154.233-73.016c39.973-44.141,60.367-101.209,57.424-160.691
					C491.357,257.112,491.318,256.538,491.285,255.963z"/>
			</g>
			<g>
				<path fill="#FFFFFF" d="M358.962,490.295c3.252-1.357,6.516-2.805,9.703-4.307l-0.756-1.598c-3.16,1.49-6.4,2.93-9.627,4.277
					L358.962,490.295z"/>
				<path fill="#FFFFFF" d="M75.152,411.061l-1.415,1.055c2.104,2.826,4.3,5.641,6.521,8.357l1.367-1.115
					C79.42,416.658,77.243,413.865,75.152,411.061z"/>
				<path fill="#FFFFFF" d="M63.342,393.66l-1.504,0.928c1.843,2.99,3.778,5.984,5.754,8.893l1.462-0.992
					C67.092,399.6,65.171,396.629,63.342,393.66z"/>
				<path fill="#FFFFFF" d="M37.742,336.076l-1.694,0.498c0.992,3.387,2.07,6.791,3.208,10.119l1.671-0.57
					C39.797,342.818,38.726,339.438,37.742,336.076z"/>
				<path fill="#FFFFFF" d="M103.164,442.436l-1.209,1.287c2.564,2.406,5.222,4.791,7.896,7.09l1.15-1.336
					C108.345,447.193,105.709,444.824,103.164,442.436z"/>
				<path fill="#FFFFFF" d="M53.116,375.268l-1.582,0.789c1.575,3.15,3.242,6.313,4.953,9.391l1.542-0.859
					C56.33,381.531,54.677,378.396,53.116,375.268z"/>
				<path fill="#FFFFFF" d="M44.556,356.016l-1.644,0.646c1.288,3.281,2.665,6.576,4.096,9.789l1.612-0.713
					C47.202,362.545,45.834,359.275,44.556,356.016z"/>
				<path fill="#FFFFFF" d="M339.029,497.594c3.359-1.063,6.74-2.213,10.045-3.424l-0.605-1.658c-3.281,1.201-6.637,2.348-9.973,3.4
					L339.029,497.594z"/>
				<path fill="#FFFFFF" d="M297.396,505.029l0.229,1.752c3.496-0.459,7.026-1.002,10.495-1.611l-0.305-1.74
					C304.369,504.037,300.864,504.576,297.396,505.029z"/>
				<path fill="#FFFFFF" d="M318.15,501.375l0.379,1.725c3.441-0.764,6.91-1.613,10.311-2.527l-0.455-1.701
					C325.009,499.773,321.566,500.619,318.15,501.375z"/>
				<path fill="#FFFFFF" d="M119.142,456.164l-1.09,1.389c2.772,2.178,5.629,4.322,8.491,6.373l1.028-1.438
					C124.729,460.455,121.895,458.324,119.142,456.164z"/>
				<path fill="#FFFFFF" d="M136.271,468.441l-0.965,1.48c2.953,1.924,5.989,3.811,9.023,5.604l0.897-1.52
					C142.216,472.223,139.204,470.355,136.271,468.441z"/>
				<path fill="#FFFFFF" d="M180.057,490.932c-2.216-0.863-4.427-1.748-6.603-2.672l-0.688,1.625
					c2.486,1.057,5.02,2.064,7.552,3.041L180.057,490.932z"/>
				<path fill="#FFFFFF" d="M154.421,479.172l-0.831,1.557c3.112,1.658,6.304,3.271,9.485,4.789l0.76-1.592
					C160.677,482.416,157.51,480.814,154.421,479.172z"/>
				<path fill="#FFFFFF" d="M88.462,427.361l-1.316,1.178c2.344,2.623,4.779,5.232,7.237,7.752l1.265-1.232
					C93.206,432.559,90.789,429.967,88.462,427.361z"/>
				<path fill="#FFFFFF" d="M82.212,117.646l-1.363-1.122c-2.24,2.729-4.445,5.54-6.555,8.352l1.416,1.059
					C77.801,123.143,79.99,120.354,82.212,117.646z"/>
				<path fill="#FFFFFF" d="M110.517,86.251c-2.672,2.283-5.332,4.662-7.907,7.068l1.205,1.29c2.558-2.389,5.196-4.75,7.848-7.016
					L110.517,86.251z"/>
				<path fill="#FFFFFF" d="M95.019,100.731c-2.461,2.512-4.903,5.114-7.257,7.74l1.313,1.179c2.339-2.606,4.761-5.191,7.204-7.684
					L95.019,100.731z"/>
				<path fill="#FFFFFF" d="M125.71,74.302c-2.354,1.707-4.7,3.455-6.984,5.239l1.086,1.391c2.018-1.575,4.084-3.119,6.16-4.635
					L125.71,74.302z"/>
				<path fill="#FFFFFF" d="M224.579,34.282l-0.309-1.738c-3.128,0.553-6.281,1.187-9.398,1.867l0.23,1.755
					C218.243,35.478,221.423,34.84,224.579,34.282z"/>
				<path fill="#FFFFFF" d="M276.5,506.861l0.228,1.758c3.44-0.156,6.919-0.383,10.348-0.682l-0.154-1.76
					C283.469,506.48,279.961,506.709,276.5,506.861z"/>
				<path fill="#FFFFFF" d="M68.113,133.509c-1.987,2.91-3.938,5.902-5.798,8.898l1.502,0.931c1.844-2.973,3.78-5.946,5.754-8.834
					L68.113,133.509z"/>
				<path fill="#FFFFFF" d="M56.916,151.554c-1.722,3.071-3.402,6.226-4.991,9.378l1.574,0.795c1.58-3.129,3.246-6.261,4.957-9.31
					L56.916,151.554z"/>
				<path fill="#FFFFFF" d="M33.417,210.659c-0.856,3.423-1.646,6.916-2.351,10.379l1.731,0.351
					c0.697-3.438,1.481-6.903,2.333-10.301L33.417,210.659z"/>
				<path fill="#FFFFFF" d="M47.348,170.523c-1.448,3.218-2.844,6.511-4.146,9.789l1.639,0.651c1.296-3.253,2.681-6.521,4.117-9.715
					L47.348,170.523z"/>
				<path fill="#FFFFFF" d="M39.491,190.276c-1.157,3.334-2.257,6.739-3.265,10.123l1.693,0.504c1-3.358,2.09-6.739,3.24-10.047
					L39.491,190.276z"/>
				<path fill="#FFFFFF" d="M496.343,337.518c1.014-3.385,1.963-6.836,2.824-10.254l-1.715-0.432
					c-0.852,3.395-1.797,6.818-2.801,10.184L496.343,337.518z"/>
				<path fill="#FFFFFF" d="M484.126,172.167l1.617-0.714c-1.428-3.218-2.947-6.45-4.52-9.608l-1.582,0.787
					C481.205,165.767,482.712,168.976,484.126,172.167z"/>
				<path fill="#FFFFFF" d="M451.183,118.511l1.369-1.115c-2.225-2.73-4.539-5.446-6.879-8.073l-1.318,1.176
					C446.677,113.104,448.974,115.801,451.183,118.511z"/>
				<path fill="#FFFFFF" d="M378.166,481.252c3.105-1.635,6.221-3.369,9.254-5.141l-0.891-1.525c-3.01,1.764-6.102,3.48-9.188,5.104
					L378.166,481.252z"/>
				<path fill="#FFFFFF" d="M463.738,135.391l1.461-0.99c-1.971-2.913-4.035-5.818-6.133-8.642l-1.418,1.054
					C459.73,129.616,461.779,132.501,463.738,135.391z"/>
				<path fill="#FFFFFF" d="M267.033,30.576l0.003-1.765c-3.519-0.007-7.088,0.066-10.613,0.216l0.076,1.763
					C259.996,30.641,263.541,30.569,267.033,30.576z"/>
				<path fill="#FFFFFF" d="M234.993,32.671l0.514-0.068c3.477-0.454,7.004-0.835,10.479-1.135l-0.153-1.759
					c-3.499,0.302-7.047,0.688-10.556,1.145l-0.511,0.066L234.993,32.671z"/>
				<path fill="#FFFFFF" d="M288.079,31.545l0.161-1.757c-3.509-0.318-7.073-0.561-10.591-0.723l-0.081,1.762
					C281.063,30.989,284.599,31.229,288.079,31.545z"/>
				<path fill="#FFFFFF" d="M349.632,45.593l0.619-1.653c-3.316-1.241-6.693-2.419-10.041-3.505l-0.545,1.68
					C342.988,43.191,346.341,44.362,349.632,45.593z"/>
				<path fill="#FFFFFF" d="M329.55,39.083l0.469-1.703c-3.395-0.937-6.865-1.81-10.318-2.599l-0.391,1.722
					C322.734,37.284,326.181,38.152,329.55,39.083z"/>
				<path fill="#FFFFFF" d="M308.957,34.383l0.318-1.736c-3.473-0.631-7-1.191-10.487-1.664l-0.236,1.749
					C302.013,33.202,305.513,33.757,308.957,34.383z"/>
				<path fill="#FFFFFF" d="M474.742,153.305l1.541-0.856c-1.707-3.077-3.504-6.156-5.338-9.145l-1.508,0.924
					C471.259,147.196,473.044,150.25,474.742,153.305z"/>
				<path fill="#FFFFFF" d="M444.712,429.391c2.354-2.621,4.684-5.326,6.92-8.045l-1.363-1.125c-2.221,2.701-4.531,5.387-6.873,7.99
					L444.712,429.391z"/>
				<path fill="#FFFFFF" d="M458.195,413c2.111-2.814,4.197-5.715,6.188-8.625l-1.453-1c-1.98,2.891-4.049,5.771-6.146,8.563
					L458.195,413z"/>
				<path fill="#FFFFFF" d="M470.189,395.482c1.865-2.994,3.684-6.07,5.412-9.141l-1.539-0.865
					c-1.715,3.047-3.521,6.102-5.369,9.072L470.189,395.482z"/>
				<path fill="#FFFFFF" d="M396.443,470.563c2.949-1.906,5.902-3.906,8.77-5.945l-1.02-1.441c-2.852,2.027-5.781,4.014-8.709,5.9
					L396.443,470.563z"/>
				<path fill="#FFFFFF" d="M480.605,376.969c1.594-3.148,3.133-6.373,4.586-9.586l-1.611-0.729
					c-1.438,3.191-2.969,6.395-4.551,9.52L480.605,376.969z"/>
				<path fill="#FFFFFF" d="M413.714,458.287c2.771-2.16,5.535-4.414,8.219-6.705l-1.146-1.342c-2.664,2.273-5.408,4.51-8.158,6.656
					L413.714,458.287z"/>
				<path fill="#FFFFFF" d="M429.849,444.527c2.576-2.406,5.131-4.896,7.596-7.406l-1.262-1.236
					c-2.445,2.492-4.982,4.965-7.541,7.348L429.849,444.527z"/>
				<path fill="#FFFFFF" d="M501.796,232.685l1.744-0.268c-0.535-3.499-1.152-7.016-1.832-10.455l-1.734,0.343
					C500.652,225.719,501.265,229.21,501.796,232.685z"/>
				<path fill="#FFFFFF" d="M489.345,357.6c1.309-3.273,2.561-6.627,3.723-9.961l-1.668-0.58c-1.152,3.309-2.396,6.637-3.693,9.885
					L489.345,357.6z"/>
				<path fill="#FFFFFF" d="M491.8,191.79l1.672-0.569c-1.137-3.335-2.363-6.69-3.645-9.97l-1.645,0.642
					C489.457,185.148,490.673,188.478,491.8,191.79z"/>
				<path fill="#FFFFFF" d="M497.701,212.016l1.715-0.419c-0.834-3.417-1.756-6.867-2.742-10.252l-1.697,0.494
					C495.955,205.201,496.873,208.623,497.701,212.016z"/>
				<path fill="#FFFFFF" d="M505.837,253.521c-0.223-3.498-0.533-7.056-0.918-10.574l-1.754,0.191
					c0.379,3.491,0.686,7.023,0.912,10.498L505.837,253.521z"/>
				<path fill="#FFFFFF" d="M501.527,316.885c0.703-3.451,1.342-6.965,1.891-10.445l-1.744-0.277
					c-0.545,3.455-1.176,6.945-1.875,10.371L501.527,316.885z"/>
				<path fill="#FFFFFF" d="M504.843,295.918c0.393-3.498,0.717-7.057,0.953-10.574l-1.762-0.117
					c-0.238,3.49-0.553,7.02-0.947,10.494L504.843,295.918z"/>
				<path fill="#FFFFFF" d="M506.281,274.739c0.084-3.524,0.086-7.096,0.014-10.614l-1.764,0.038
					c0.07,3.491,0.066,7.037-0.016,10.537L506.281,274.739z"/>
			</g>
		</g>
		<g>
			<defs>
				<circle id="SVGID_1_" cx="268.706" cy="268.713" r="213.987"/>
			</defs>
			<clipPath id="SVGID_2_">
				<use xlink:href="#SVGID_1_"  overflow="visible"/>
			</clipPath>
			<rect x="34.867" y="292.115" clip-path="url(#SVGID_2_)" fill="#B0B0B0" width="479.748" height="200.811"/>
		</g>
		<g display="none">
			<rect x="331.931" y="385.121" display="inline" fill="#F1F1F1" width="224.273" height="66.117"/>
			<g display="inline">
				<rect x="440.431" y="393.428" fill="#152B38" width="9.518" height="9.521"/>
				<rect x="456.806" y="393.428" fill="#152B38" width="9.516" height="9.521"/>
			</g>
			<rect x="443.544" y="406.756" display="inline" fill="#152B38" width="9.521" height="9.52"/>
			<rect x="459.917" y="406.756" display="inline" fill="#152B38" width="9.52" height="9.52"/>
			<rect x="523.787" y="433.41" display="inline" fill="#152B38" width="9.52" height="9.516"/>
			<rect x="540.16" y="433.41" display="inline" fill="#152B38" width="9.516" height="9.516"/>
			<rect x="440.431" y="393.428" display="inline" fill="#152B38" width="9.518" height="9.521"/>
			<rect x="456.806" y="393.428" display="inline" fill="#152B38" width="9.516" height="9.521"/>
			<rect x="449.775" y="420.08" display="inline" fill="#152B38" width="9.518" height="9.52"/>
			<rect x="466.146" y="420.08" display="inline" fill="#152B38" width="9.52" height="9.52"/>
			<rect x="440.431" y="433.41" display="inline" fill="#152B38" width="9.518" height="9.516"/>
			<rect x="456.806" y="433.41" display="inline" fill="#152B38" width="9.516" height="9.516"/>
			<g display="inline">
				<rect x="473.908" y="393.428" fill="#152B38" width="9.52" height="9.521"/>
				<rect x="490.277" y="393.428" fill="#152B38" width="9.521" height="9.521"/>
				<rect x="506.648" y="393.428" fill="#152B38" width="9.523" height="9.521"/>
			</g>
			<rect x="476.398" y="406.756" display="inline" fill="#152B38" width="9.52" height="9.52"/>
			<rect x="492.771" y="406.756" display="inline" fill="#152B38" width="9.52" height="9.52"/>
			<rect x="509.14" y="406.756" display="inline" fill="#152B38" width="9.521" height="22.844"/>
			<g display="inline">
				<rect x="483.029" y="420.08" fill="#152B38" width="9.52" height="9.52"/>
			</g>
			<g display="inline">
				<rect x="499.798" y="420.08" fill="#152B38" width="11.611" height="9.52"/>
			</g>
			<g display="inline">
				<rect x="473.908" y="433.41" fill="#152B38" width="9.52" height="9.516"/>
				<rect x="490.277" y="433.41" fill="#152B38" width="9.521" height="9.516"/>
				<rect x="506.648" y="433.41" fill="#152B38" width="9.523" height="9.516"/>
			</g>
			<rect x="341.21" y="393.428" display="inline" fill="#152B38" width="9.516" height="9.521"/>
			<rect x="357.583" y="393.428" display="inline" fill="#152B38" width="9.518" height="9.521"/>
			<rect x="341.21" y="406.756" display="inline" fill="#152B38" width="12.434" height="9.52"/>
			<rect x="360.074" y="406.756" display="inline" fill="#152B38" width="9.52" height="9.52"/>
			<rect x="341.21" y="420.08" display="inline" fill="#152B38" width="18.863" height="9.52"/>
			<rect x="366.925" y="420.08" display="inline" fill="#152B38" width="9.518" height="9.52"/>
			<rect x="373.576" y="393.428" display="inline" fill="#152B38" width="9.52" height="9.521"/>
			<rect x="389.947" y="393.428" display="inline" fill="#152B38" width="9.518" height="9.521"/>
			<rect x="376.066" y="406.756" display="inline" fill="#152B38" width="9.52" height="9.52"/>
			<rect x="392.437" y="406.756" display="inline" fill="#152B38" width="9.52" height="9.52"/>
			<rect x="382.919" y="420.08" display="inline" fill="#152B38" width="9.518" height="9.52"/>
			<rect x="399.291" y="420.08" display="inline" fill="#152B38" width="9.52" height="9.52"/>
			<rect x="341.21" y="433.41" display="inline" fill="#152B38" width="9.516" height="9.516"/>
			<rect x="357.583" y="433.41" display="inline" fill="#152B38" width="9.518" height="9.516"/>
			<rect x="373.576" y="433.41" display="inline" fill="#152B38" width="59.779" height="9.516"/>
			<rect x="407.462" y="393.428" display="inline" fill="#152B38" width="9.52" height="9.521"/>
			<rect x="423.835" y="393.428" display="inline" fill="#152B38" width="9.52" height="9.521"/>
			<rect x="409.955" y="406.756" display="inline" fill="#152B38" width="9.518" height="9.52"/>
			<rect x="426.328" y="406.756" display="inline" fill="#152B38" width="9.518" height="9.52"/>
			<rect x="416.806" y="420.08" display="inline" fill="#152B38" width="9.521" height="9.52"/>
			<rect x="433.179" y="420.08" display="inline" fill="#152B38" width="9.518" height="9.52"/>
			<rect x="523.787" y="393.428" display="inline" fill="#152B38" width="9.52" height="9.521"/>
			<rect x="540.16" y="393.428" display="inline" fill="#152B38" width="9.516" height="9.521"/>
			<rect x="523.787" y="406.756" display="inline" fill="#152B38" width="9.52" height="9.52"/>
			<rect x="540.16" y="406.756" display="inline" fill="#152B38" width="9.516" height="9.52"/>
			<rect x="523.787" y="420.08" display="inline" fill="#152B38" width="9.52" height="9.52"/>
			<rect x="540.16" y="420.08" display="inline" fill="#152B38" width="9.516" height="9.52"/>
		</g>
	</g>
</g>
<g>
	<rect x="225.962" y="143.407" fill="#FFFFFF" width="6.63" height="18.043"/>
	<rect x="308.001" y="143.407" fill="#FFFFFF" width="6.633" height="18.043"/>
	<path fill="#1B384C" d="M416.003,362.145c0,8.063-6.537,14.604-14.602,14.604H138.591c-8.064,0-14.602-6.541-14.602-14.604V170.512
		c0-8.062,6.538-14.599,14.602-14.599h262.811c8.064,0,14.602,6.537,14.602,14.599V362.145z"/>
	<path fill="#152B38" d="M401.8,353.652c0,7.042-5.9,12.751-13.178,12.751h-237.25c-7.278,0-13.179-5.709-13.179-12.751V186.302
		c0-7.04,5.901-12.747,13.179-12.747h237.25c7.277,0,13.178,5.707,13.178,12.747V353.652z"/>
	<g>
		<path fill="#152B38" d="M416.003,264.423c0,4.248-6.537,7.685-14.602,7.685H138.591c-8.064,0-14.602-3.437-14.602-7.685V163.594
			c0-4.243,6.538-7.681,14.602-7.681h262.811c8.064,0,14.602,3.438,14.602,7.681V264.423z"/>
		<path fill="#1B384C" d="M401.402,272.987H138.591c-8.681,0-15.482-3.761-15.482-8.564V163.594c0-4.801,6.801-8.561,15.482-8.561
			h262.811c8.682,0,15.482,3.76,15.482,8.561v100.829C416.884,269.227,410.083,272.987,401.402,272.987z M138.591,156.792
			c-7.438,0-13.72,3.114-13.72,6.802v100.829c0,3.689,6.282,6.805,13.72,6.805h262.811c7.439,0,13.721-3.115,13.721-6.805V163.594
			c0-3.688-6.281-6.802-13.721-6.802H138.591z"/>
	</g>
	<g>
		<path fill="#1B384C" d="M135.686,155.506c-0.581,0.813-0.914,1.692-0.914,2.616v95.55c0,4.024,6.052,7.282,13.522,7.282h243.403
			c7.471,0,13.523-3.258,13.523-7.282v-95.55c0-0.924-0.33-1.803-0.914-2.616H135.686z"/>
	</g>
	<g>
		<rect x="254.788" y="254.768" fill="#FFFFFF" width="30.418" height="30.421"/>
		<rect x="254.788" y="269.067" fill="#152B38" width="30.418" height="1.823"/>
		<rect x="266.346" y="267.14" fill="#152B38" width="7.302" height="6.896"/>
	</g>
	<g>
		<path fill="#1B384C" d="M233.582,147.367v-15.771c0-3.703,3.011-6.715,6.714-6.715h59.399c3.703,0,6.716,3.012,6.716,6.715v15.771
			h8.801v-15.771c0-8.556-6.961-15.517-15.517-15.517h-59.399c-8.554,0-15.516,6.961-15.516,15.517v15.771H233.582z"/>
	</g>
	<rect x="185.801" y="153.746" fill="#1B384C" width="58.674" height="5.941"/>
	<rect x="295.815" y="153.746" fill="#1B384C" width="58.674" height="5.941"/>
</g>
</svg>
