<?xml version="1.0" encoding="utf-8"?>
<!-- Generator: Adobe Illustrator 16.0.0, SVG Export Plug-In . SVG Version: 6.00 Build 0)  -->
<!DOCTYPE svg PUBLIC "-//W3C//DTD SVG 1.1//EN" "http://www.w3.org/Graphics/SVG/1.1/DTD/svg11.dtd">
<svg version="1.1" id="Layer_1" xmlns="http://www.w3.org/2000/svg" xmlns:xlink="http://www.w3.org/1999/xlink" x="0px" y="0px"
	 width="556.205px" height="537.426px" viewBox="0 0 556.205 537.426" enable-background="new 0 0 556.205 537.426"
	 xml:space="preserve">
<circle display="none" fill="#FFFFFF" cx="273.139" cy="277.831" r="235.542"/>
<circle display="none" fill="none" stroke="#FFFFFF" stroke-width="3" stroke-miterlimit="10" cx="272.983" cy="278.373" r="250"/>
<g display="none">
	<g display="inline">
		<path fill="#FFFFFF" d="M555.483,278.627c-0.072,52.206-14.406,103.672-41.529,148.294
			c-26.254,43.191-64.117,78.915-108.544,102.954c-46.164,24.979-98.927,36.38-151.281,33.554
			c-51.719-2.792-102.109-20.106-144.862-49.276c-41.771-28.501-75.471-68.235-97.127-113.896
			c-22.585-47.619-31.121-101.282-25.388-153.608c5.608-51.181,25.612-100.282,56.786-141.194
			c30.73-40.331,72.421-72.084,119.359-91.201C211.826-5.674,266.145-11.383,318.207-2.612
			c50.517,8.51,98.222,31.022,137.181,64.235c38.598,32.904,68.021,76.081,84.595,124.004
			C550.313,215.499,555.439,247.035,555.483,278.627c0.003,1.935,3.003,1.935,3,0c-0.071-51.697-13.988-102.752-40.379-147.221
			c-25.529-43.016-62.424-78.971-105.88-103.688C367.202,2.111,315.502-10.623,263.766-9.55
			C212.285-8.481,161.554,6.708,117.855,33.904C75.384,60.337,40.192,97.962,16.397,141.938
			c-24.708,45.665-36.346,97.767-34.123,149.591c2.201,51.31,18.456,101.563,46.491,144.564
			c27.326,41.915,65.667,76.33,110.15,99.193c46.274,23.784,98.747,34.322,150.62,30.946c51.124-3.326,100.883-20.63,143.183-49.491
			c41.345-28.209,74.969-67.254,96.891-112.23c19.063-39.11,28.813-82.405,28.874-125.885
			C558.486,276.692,555.486,276.692,555.483,278.627z"/>
	</g>
</g>
<g>
	<circle fill="#FFFFFF" cx="268.706" cy="268.713" r="213.987"/>
	<g>
		<g>
			<g>
				<path fill="#FFFFFF" d="M1.984,271.918c-0.84-72.815,27.86-145.712,85.363-198.979S219.728-3.379,292.266,3.021l1.938-1.796
					c-5.05-0.476-10.127-0.829-15.237-1.023C207.246-2.542,138.749,22.811,86.095,71.586S2.932,186.722,0.188,258.446
					c-0.195,5.107-0.23,10.197-0.144,15.27L1.984,271.918z"/>
				<path fill="#FFFFFF" d="M499.062,133.969l1.436-1.331c-9.742-16.523-21.32-32.123-34.668-46.532
					c-18.986-20.495-40.646-37.617-64.238-51.07l-1.5,1.389c23.395,13.214,45.172,30.194,64.385,50.935
					C477.935,101.89,489.447,117.537,499.062,133.969z"/>
				<path fill="#FFFFFF" d="M533.378,235.467c10.238,82.395-17.9,168.412-83.324,229.021
					c-107.951,99.998-277.129,93.529-377.126-14.424c-19.214-20.74-34.481-43.748-45.869-68.084l-1.501,1.389
					c11.612,24.551,27.03,47.453,46.016,67.949c48.776,52.658,115.139,83.166,186.858,85.906
					c71.722,2.744,140.22-22.605,192.876-71.385c52.652-48.773,83.162-115.135,85.904-186.859
					c0.584-15.249-0.115-30.349-2.027-45.188L533.378,235.467z"/>
			</g>
			<g>
				<path fill="#FFFFFF" d="M74.736,162.39c8.154-14.876,18.145-29.041,30.021-42.154c80.194-88.55,216.303-97.007,306.803-20.371
					l1.186-1.312c-43.313-36.724-98.076-55.342-155.069-52.521c-59.479,2.946-114.254,28.877-154.229,73.019
					c-12.097,13.358-22.389,27.905-30.796,43.338H74.736z"/>
				<path fill="#FFFFFF" d="M47.985,255.963h-1.884c-0.436,7.867-0.475,15.799-0.079,23.777
					c2.822,56.988,26.757,109.65,67.582,149.123l1.188-1.311C67.02,381.303,44.459,318.141,47.985,255.963z"/>
				<path fill="#FFFFFF" d="M464.789,162.39c-2.242-4.128-4.621-8.188-7.127-12.174l-1.299,1.433
					c2.203,3.529,4.285,7.115,6.271,10.741H464.789z"/>
				<path fill="#FFFFFF" d="M491.285,255.963H489.4c3.309,57.154-15.373,115.543-56.748,161.23
					c-67.791,74.852-175.529,92.455-261.902,49.826l-1.296,1.432c33.795,16.861,71.518,24.863,110.275,22.943
					c59.481-2.943,114.254-28.877,154.233-73.016c39.973-44.141,60.367-101.209,57.424-160.691
					C491.357,257.112,491.318,256.538,491.285,255.963z"/>
			</g>
			<g>
				<path fill="#FFFFFF" d="M358.962,490.295c3.252-1.357,6.516-2.805,9.703-4.307l-0.756-1.598c-3.16,1.49-6.4,2.93-9.627,4.277
					L358.962,490.295z"/>
				<path fill="#FFFFFF" d="M75.152,411.061l-1.415,1.055c2.104,2.826,4.3,5.641,6.521,8.357l1.367-1.115
					C79.42,416.658,77.243,413.865,75.152,411.061z"/>
				<path fill="#FFFFFF" d="M63.342,393.66l-1.504,0.928c1.843,2.99,3.778,5.984,5.754,8.893l1.462-0.992
					C67.092,399.6,65.171,396.629,63.342,393.66z"/>
				<path fill="#FFFFFF" d="M37.742,336.076l-1.694,0.498c0.992,3.387,2.07,6.791,3.208,10.119l1.671-0.57
					C39.797,342.818,38.726,339.438,37.742,336.076z"/>
				<path fill="#FFFFFF" d="M103.164,442.436l-1.209,1.287c2.564,2.406,5.222,4.791,7.896,7.09l1.15-1.336
					C108.345,447.193,105.709,444.824,103.164,442.436z"/>
				<path fill="#FFFFFF" d="M53.116,375.268l-1.582,0.789c1.575,3.15,3.242,6.313,4.953,9.391l1.542-0.859
					C56.33,381.531,54.677,378.396,53.116,375.268z"/>
				<path fill="#FFFFFF" d="M44.556,356.016l-1.644,0.646c1.288,3.281,2.665,6.576,4.096,9.789l1.612-0.713
					C47.202,362.545,45.834,359.275,44.556,356.016z"/>
				<path fill="#FFFFFF" d="M339.029,497.594c3.359-1.063,6.74-2.213,10.045-3.424l-0.605-1.658c-3.281,1.201-6.637,2.348-9.973,3.4
					L339.029,497.594z"/>
				<path fill="#FFFFFF" d="M297.396,505.029l0.229,1.752c3.496-0.459,7.026-1.002,10.495-1.611l-0.305-1.74
					C304.369,504.037,300.864,504.576,297.396,505.029z"/>
				<path fill="#FFFFFF" d="M318.15,501.375l0.379,1.725c3.441-0.764,6.91-1.613,10.311-2.527l-0.455-1.701
					C325.009,499.773,321.566,500.619,318.15,501.375z"/>
				<path fill="#FFFFFF" d="M119.142,456.164l-1.09,1.389c2.772,2.178,5.629,4.322,8.491,6.373l1.028-1.438
					C124.729,460.455,121.895,458.324,119.142,456.164z"/>
				<path fill="#FFFFFF" d="M136.271,468.441l-0.965,1.48c2.953,1.924,5.989,3.811,9.023,5.604l0.897-1.52
					C142.216,472.223,139.204,470.355,136.271,468.441z"/>
				<path fill="#FFFFFF" d="M180.057,490.932c-2.216-0.863-4.427-1.748-6.603-2.672l-0.688,1.625
					c2.486,1.057,5.02,2.064,7.552,3.041L180.057,490.932z"/>
				<path fill="#FFFFFF" d="M154.421,479.172l-0.831,1.557c3.112,1.658,6.304,3.271,9.485,4.789l0.76-1.592
					C160.677,482.416,157.51,480.814,154.421,479.172z"/>
				<path fill="#FFFFFF" d="M88.462,427.361l-1.316,1.178c2.344,2.623,4.779,5.232,7.237,7.752l1.265-1.232
					C93.206,432.559,90.789,429.967,88.462,427.361z"/>
				<path fill="#FFFFFF" d="M82.212,117.646l-1.363-1.122c-2.24,2.729-4.445,5.54-6.555,8.352l1.416,1.059
					C77.801,123.143,79.99,120.354,82.212,117.646z"/>
				<path fill="#FFFFFF" d="M110.517,86.251c-2.672,2.283-5.332,4.662-7.907,7.068l1.205,1.29c2.558-2.389,5.196-4.75,7.848-7.016
					L110.517,86.251z"/>
				<path fill="#FFFFFF" d="M95.019,100.731c-2.461,2.512-4.903,5.114-7.257,7.74l1.313,1.179c2.339-2.606,4.761-5.191,7.204-7.684
					L95.019,100.731z"/>
				<path fill="#FFFFFF" d="M125.71,74.302c-2.354,1.707-4.7,3.455-6.984,5.239l1.086,1.391c2.018-1.575,4.084-3.119,6.16-4.635
					L125.71,74.302z"/>
				<path fill="#FFFFFF" d="M224.579,34.282l-0.309-1.738c-3.128,0.553-6.281,1.187-9.398,1.867l0.23,1.755
					C218.243,35.478,221.423,34.84,224.579,34.282z"/>
				<path fill="#FFFFFF" d="M276.5,506.861l0.228,1.758c3.44-0.156,6.919-0.383,10.348-0.682l-0.154-1.76
					C283.469,506.48,279.961,506.709,276.5,506.861z"/>
				<path fill="#FFFFFF" d="M68.113,133.509c-1.987,2.91-3.938,5.902-5.798,8.898l1.502,0.931c1.844-2.973,3.78-5.946,5.754-8.834
					L68.113,133.509z"/>
				<path fill="#FFFFFF" d="M56.916,151.554c-1.722,3.071-3.402,6.226-4.991,9.378l1.574,0.795c1.58-3.129,3.246-6.261,4.957-9.31
					L56.916,151.554z"/>
				<path fill="#FFFFFF" d="M33.417,210.659c-0.856,3.423-1.646,6.916-2.351,10.379l1.731,0.351
					c0.697-3.438,1.481-6.903,2.333-10.301L33.417,210.659z"/>
				<path fill="#FFFFFF" d="M47.348,170.523c-1.448,3.218-2.844,6.511-4.146,9.789l1.639,0.651c1.296-3.253,2.681-6.521,4.117-9.715
					L47.348,170.523z"/>
				<path fill="#FFFFFF" d="M39.491,190.276c-1.157,3.334-2.257,6.739-3.265,10.123l1.693,0.504c1-3.358,2.09-6.739,3.24-10.047
					L39.491,190.276z"/>
				<path fill="#FFFFFF" d="M496.343,337.518c1.014-3.385,1.963-6.836,2.824-10.254l-1.715-0.432
					c-0.852,3.395-1.797,6.818-2.801,10.184L496.343,337.518z"/>
				<path fill="#FFFFFF" d="M484.126,172.167l1.617-0.714c-1.428-3.218-2.947-6.45-4.52-9.608l-1.582,0.787
					C481.205,165.767,482.712,168.976,484.126,172.167z"/>
				<path fill="#FFFFFF" d="M451.183,118.511l1.369-1.115c-2.225-2.73-4.539-5.446-6.879-8.073l-1.318,1.176
					C446.677,113.104,448.974,115.801,451.183,118.511z"/>
				<path fill="#FFFFFF" d="M378.166,481.252c3.105-1.635,6.221-3.369,9.254-5.141l-0.891-1.525c-3.01,1.764-6.102,3.48-9.188,5.104
					L378.166,481.252z"/>
				<path fill="#FFFFFF" d="M463.738,135.391l1.461-0.99c-1.971-2.913-4.035-5.818-6.133-8.642l-1.418,1.054
					C459.73,129.616,461.779,132.501,463.738,135.391z"/>
				<path fill="#FFFFFF" d="M267.033,30.576l0.003-1.765c-3.519-0.007-7.088,0.066-10.613,0.216l0.076,1.763
					C259.996,30.641,263.541,30.569,267.033,30.576z"/>
				<path fill="#FFFFFF" d="M234.993,32.671l0.514-0.068c3.477-0.454,7.004-0.835,10.479-1.135l-0.153-1.759
					c-3.499,0.302-7.047,0.688-10.556,1.145l-0.511,0.066L234.993,32.671z"/>
				<path fill="#FFFFFF" d="M288.079,31.545l0.161-1.757c-3.509-0.318-7.073-0.561-10.591-0.723l-0.081,1.762
					C281.063,30.989,284.599,31.229,288.079,31.545z"/>
				<path fill="#FFFFFF" d="M349.632,45.593l0.619-1.653c-3.316-1.241-6.693-2.419-10.041-3.505l-0.545,1.68
					C342.988,43.191,346.341,44.362,349.632,45.593z"/>
				<path fill="#FFFFFF" d="M329.55,39.083l0.469-1.703c-3.395-0.937-6.865-1.81-10.318-2.599l-0.391,1.722
					C322.734,37.284,326.181,38.152,329.55,39.083z"/>
				<path fill="#FFFFFF" d="M308.957,34.383l0.318-1.736c-3.473-0.631-7-1.191-10.487-1.664l-0.236,1.749
					C302.013,33.202,305.513,33.757,308.957,34.383z"/>
				<path fill="#FFFFFF" d="M474.742,153.305l1.541-0.856c-1.707-3.077-3.504-6.156-5.338-9.145l-1.508,0.924
					C471.259,147.196,473.044,150.25,474.742,153.305z"/>
				<path fill="#FFFFFF" d="M444.712,429.391c2.354-2.621,4.684-5.326,6.92-8.045l-1.363-1.125c-2.221,2.701-4.531,5.387-6.873,7.99
					L444.712,429.391z"/>
				<path fill="#FFFFFF" d="M458.195,413c2.111-2.814,4.197-5.715,6.188-8.625l-1.453-1c-1.98,2.891-4.049,5.771-6.146,8.563
					L458.195,413z"/>
				<path fill="#FFFFFF" d="M470.189,395.482c1.865-2.994,3.684-6.07,5.412-9.141l-1.539-0.865
					c-1.715,3.047-3.521,6.102-5.369,9.072L470.189,395.482z"/>
				<path fill="#FFFFFF" d="M396.443,470.563c2.949-1.906,5.902-3.906,8.77-5.945l-1.02-1.441c-2.852,2.027-5.781,4.014-8.709,5.9
					L396.443,470.563z"/>
				<path fill="#FFFFFF" d="M480.605,376.969c1.594-3.148,3.133-6.373,4.586-9.586l-1.611-0.729
					c-1.438,3.191-2.969,6.395-4.551,9.52L480.605,376.969z"/>
				<path fill="#FFFFFF" d="M413.714,458.287c2.771-2.16,5.535-4.414,8.219-6.705l-1.146-1.342c-2.664,2.273-5.408,4.51-8.158,6.656
					L413.714,458.287z"/>
				<path fill="#FFFFFF" d="M429.849,444.527c2.576-2.406,5.131-4.896,7.596-7.406l-1.262-1.236
					c-2.445,2.492-4.982,4.965-7.541,7.348L429.849,444.527z"/>
				<path fill="#FFFFFF" d="M501.796,232.685l1.744-0.268c-0.535-3.499-1.152-7.016-1.832-10.455l-1.734,0.343
					C500.652,225.719,501.265,229.21,501.796,232.685z"/>
				<path fill="#FFFFFF" d="M489.345,357.6c1.309-3.273,2.561-6.627,3.723-9.961l-1.668-0.58c-1.152,3.309-2.396,6.637-3.693,9.885
					L489.345,357.6z"/>
				<path fill="#FFFFFF" d="M491.8,191.79l1.672-0.569c-1.137-3.335-2.363-6.69-3.645-9.97l-1.645,0.642
					C489.457,185.148,490.673,188.478,491.8,191.79z"/>
				<path fill="#FFFFFF" d="M497.701,212.016l1.715-0.419c-0.834-3.417-1.756-6.867-2.742-10.252l-1.697,0.494
					C495.955,205.201,496.873,208.623,497.701,212.016z"/>
				<path fill="#FFFFFF" d="M505.837,253.521c-0.223-3.498-0.533-7.056-0.918-10.574l-1.754,0.191
					c0.379,3.491,0.686,7.023,0.912,10.498L505.837,253.521z"/>
				<path fill="#FFFFFF" d="M501.527,316.885c0.703-3.451,1.342-6.965,1.891-10.445l-1.744-0.277
					c-0.545,3.455-1.176,6.945-1.875,10.371L501.527,316.885z"/>
				<path fill="#FFFFFF" d="M504.843,295.918c0.393-3.498,0.717-7.057,0.953-10.574l-1.762-0.117
					c-0.238,3.49-0.553,7.02-0.947,10.494L504.843,295.918z"/>
				<path fill="#FFFFFF" d="M506.281,274.739c0.084-3.524,0.086-7.096,0.014-10.614l-1.764,0.038
					c0.07,3.491,0.066,7.037-0.016,10.537L506.281,274.739z"/>
			</g>
		</g>
		<g>
			<defs>
				<circle id="SVGID_1_" cx="268.706" cy="268.713" r="213.987"/>
			</defs>
			<clipPath id="SVGID_2_">
				<use xlink:href="#SVGID_1_"  overflow="visible"/>
			</clipPath>
			<rect x="34.867" y="292.115" clip-path="url(#SVGID_2_)" fill="#B0B0B0" width="479.748" height="200.811"/>
			<path display="none" clip-path="url(#SVGID_2_)" fill="#FFFFFF" d="M534.458,323.242l-16.865-0.008
				c-5.057,0-9.174-3.598-9.238-8.045h-0.008v-28.723h-1.061l-0.002,12.299l-0.002,16.516h0.006
				c0.125,4.994,4.691,9.025,10.305,9.025l16.865,0.008c5.098,0,9.246,3.658,9.246,8.154v1.492c0,4.5-4.148,8.158-9.246,8.158
				l-199.379-0.004c-5.689,0-10.316,4.141-10.316,9.227v1.492c0,5.086,4.627,9.225,10.316,9.225l16.865,0.01
				c5.057,0,9.172,3.598,9.238,8.047l0.014,0.1l-0.002,16.514h1.066l-0.002-16.514l-0.006-0.105
				c-0.07-5.035-4.664-9.113-10.309-9.113l-16.865-0.006c-5.098,0-9.246-3.66-9.246-8.156v-1.492c0-4.498,4.148-8.158,9.246-8.158
				l199.379,0.004c5.688,0,10.316-4.139,10.316-9.227v-1.492C544.775,327.383,540.146,323.242,534.458,323.242z"/>
			<g display="none" clip-path="url(#SVGID_2_)">
				<path display="inline" fill="#FFFFFF" d="M315.998,418.553c0,15.975-12.947,28.922-28.922,28.922
					c-15.977,0-28.924-12.947-28.924-28.922s12.947-28.922,28.924-28.922C303.05,389.631,315.998,402.578,315.998,418.553z"/>
				<g display="inline">
					<g>
						<path fill="#DBDADA" d="M311.015,395.115c-1.252-1.252-3.279-1.252-4.533,0l-6.995,6.994
							c-8.028-5.85-19.342-5.154-26.588,2.09c-8.015,8.016-8.015,21.016,0,29.031c8.019,8.016,21.016,8.016,29.034,0
							c7.246-7.246,7.939-18.559,2.088-26.586l6.994-6.996C312.267,398.396,312.267,396.369,311.015,395.115z"/>
						<g>
							<path fill="#152B38" d="M297.719,408.412c-5.689-5.689-14.914-5.689-20.604,0c-5.69,5.691-5.691,14.914,0,20.605
								c5.69,5.689,14.915,5.689,20.604,0C303.412,423.326,303.412,414.104,297.719,408.412z"/>
						</g>
					</g>
					<path opacity="0.2" fill="#FFFFFF" d="M311.015,395.115c-1.252-1.252-3.279-1.252-4.533,0l-6.995,6.994
						c-3.752-2.734-8.222-4.02-12.659-3.895v41.016c5.448,0.154,10.946-1.842,15.105-6c7.246-7.246,7.939-18.559,2.088-26.586
						l6.994-6.996C312.267,398.396,312.267,396.369,311.015,395.115z"/>
				</g>
			</g>
			<g display="none" clip-path="url(#SVGID_2_)">
				<g display="inline">
					<polygon fill="#F76031" points="415.47,212.207 415.47,205.11 376.402,205.11 376.402,212.207 370.49,212.207 370.49,278.887 
						499.103,278.887 499.103,212.207 					"/>
					<rect x="376.298" y="216.294" fill="#FFFFFF" width="116.996" height="47.057"/>
					<g>
						<g>
							<rect x="380.927" y="219.972" fill="#B0B0B0" width="47.768" height="1.187"/>
							<rect x="380.927" y="223.327" fill="#B0B0B0" width="105.555" height="1.188"/>
							<rect x="380.927" y="226.028" fill="#B0B0B0" width="105.555" height="1.189"/>
							<rect x="380.927" y="228.729" fill="#B0B0B0" width="105.555" height="1.188"/>
							<rect x="380.927" y="231.429" fill="#B0B0B0" width="105.555" height="1.19"/>
						</g>
						<g>
							<rect x="380.927" y="234.135" fill="#B0B0B0" width="105.555" height="1.188"/>
							<rect x="380.927" y="236.836" fill="#B0B0B0" width="105.555" height="1.188"/>
							<rect x="380.927" y="239.535" fill="#B0B0B0" width="105.555" height="1.189"/>
							<rect x="380.927" y="242.238" fill="#B0B0B0" width="105.555" height="1.187"/>
						</g>
						<g>
							<rect x="380.927" y="244.922" fill="#B0B0B0" width="105.555" height="1.191"/>
							<rect x="380.927" y="247.625" fill="#B0B0B0" width="105.555" height="1.19"/>
							<rect x="380.927" y="250.327" fill="#B0B0B0" width="105.555" height="1.188"/>
						</g>
					</g>
					<g>
						<path fill="#F76031" d="M505.017,301.248H364.578v-72.811h140.439V301.248z"/>
					</g>
				</g>
				<g display="inline">
					<polygon fill="#FFD11D" points="445.455,232.769 445.455,225.672 406.39,225.672 406.39,232.769 400.476,232.769 
						400.476,299.449 529.089,299.449 529.089,232.769 					"/>
					<rect x="406.283" y="236.855" fill="#FFFFFF" width="116.998" height="47.055"/>
					<g>
						<g>
							<rect x="410.914" y="240.532" fill="#B0B0B0" width="47.768" height="1.188"/>
							<rect x="410.914" y="243.888" fill="#B0B0B0" width="105.555" height="1.188"/>
							<rect x="410.914" y="246.589" fill="#B0B0B0" width="105.555" height="1.189"/>
							<rect x="410.914" y="249.291" fill="#B0B0B0" width="105.555" height="1.188"/>
							<rect x="410.914" y="251.99" fill="#B0B0B0" width="105.555" height="1.19"/>
						</g>
						<g>
							<rect x="410.914" y="254.696" fill="#B0B0B0" width="105.555" height="1.188"/>
							<rect x="410.914" y="257.396" fill="#B0B0B0" width="105.555" height="1.189"/>
							<rect x="410.914" y="260.095" fill="#B0B0B0" width="105.555" height="1.188"/>
							<rect x="410.914" y="262.798" fill="#B0B0B0" width="105.555" height="1.188"/>
						</g>
						<g>
							<rect x="410.914" y="265.484" fill="#B0B0B0" width="105.555" height="1.19"/>
							<rect x="410.914" y="268.186" fill="#B0B0B0" width="105.555" height="1.189"/>
							<rect x="410.914" y="270.887" fill="#B0B0B0" width="105.555" height="1.189"/>
						</g>
					</g>
					<g>
						<path fill="#FFD11D" d="M535.005,321.809H394.562v-72.81h140.443V321.809z"/>
					</g>
				</g>
			</g>
			<g display="none" clip-path="url(#SVGID_2_)">
				<g display="inline">
					<g>
						<rect x="257.623" y="176.84" fill="#152B38" width="32.93" height="137.867"/>
						<g>
							<circle fill="#161D21" cx="273.868" cy="297.166" r="7.291"/>
							<path fill="#FFFFFF" d="M273.868,305.402c-4.543,0-8.239-3.695-8.239-8.236c0-4.543,3.696-8.238,8.239-8.238
								s8.238,3.695,8.238,8.238C282.106,301.707,278.411,305.402,273.868,305.402z M273.868,290.828
								c-3.497,0-6.34,2.842-6.34,6.338s2.843,6.34,6.34,6.34c3.496,0,6.34-2.844,6.34-6.34S277.364,290.828,273.868,290.828z"/>
						</g>
						<rect x="264.61" y="180.62" fill="#FFFFFF" width="19.343" height="97.435"/>
						<g>
							<g>
								<rect x="266.006" y="193.06" fill="#B0B0B0" width="7.077" height="1.708"/>
								<rect x="266.006" y="200.051" fill="#B0B0B0" width="15.64" height="1.708"/>
								<rect x="266.006" y="203.934" fill="#B0B0B0" width="15.64" height="1.708"/>
								<rect x="266.006" y="207.816" fill="#B0B0B0" width="15.64" height="1.707"/>
								<rect x="266.006" y="211.699" fill="#B0B0B0" width="15.64" height="1.709"/>
							</g>
							<g>
								<rect x="266.006" y="215.588" fill="#B0B0B0" width="15.64" height="1.708"/>
								<rect x="266.006" y="219.471" fill="#B0B0B0" width="15.64" height="1.708"/>
								<rect x="266.006" y="223.354" fill="#B0B0B0" width="15.64" height="1.708"/>
								<rect x="266.006" y="227.238" fill="#B0B0B0" width="15.64" height="1.708"/>
							</g>
							<g>
								<rect x="266.006" y="231.101" fill="#B0B0B0" width="15.64" height="1.707"/>
								<rect x="266.006" y="234.983" fill="#B0B0B0" width="15.64" height="1.709"/>
								<rect x="266.006" y="238.867" fill="#B0B0B0" width="15.64" height="1.709"/>
							</g>
						</g>
					</g>
					<g>
						<rect x="223.354" y="176.84" fill="#FF5527" width="32.929" height="137.867"/>
						<g>
							<circle fill="#161D21" cx="239.598" cy="297.166" r="7.29"/>
							<path fill="#FFFFFF" d="M239.598,305.402c-4.543,0-8.241-3.695-8.241-8.236c0-4.543,3.698-8.238,8.241-8.238
								s8.238,3.695,8.238,8.238C247.836,301.707,244.141,305.402,239.598,305.402z M239.598,290.828
								c-3.496,0-6.34,2.842-6.34,6.338s2.844,6.34,6.34,6.34c3.495,0,6.341-2.844,6.341-6.34S243.093,290.828,239.598,290.828z"/>
						</g>
						<rect x="230.339" y="180.62" fill="#FFFFFF" width="19.342" height="97.435"/>
						<g>
							<g>
								<rect x="231.735" y="193.06" fill="#B0B0B0" width="7.078" height="1.708"/>
								<rect x="231.735" y="200.051" fill="#B0B0B0" width="15.641" height="1.708"/>
								<rect x="231.735" y="203.934" fill="#B0B0B0" width="15.641" height="1.708"/>
								<rect x="231.735" y="207.816" fill="#B0B0B0" width="15.641" height="1.707"/>
								<rect x="231.735" y="211.699" fill="#B0B0B0" width="15.641" height="1.709"/>
							</g>
							<g>
								<rect x="231.735" y="215.588" fill="#B0B0B0" width="15.641" height="1.708"/>
								<rect x="231.735" y="219.471" fill="#B0B0B0" width="15.641" height="1.708"/>
								<rect x="231.735" y="223.354" fill="#B0B0B0" width="15.641" height="1.708"/>
								<rect x="231.735" y="227.238" fill="#B0B0B0" width="15.641" height="1.708"/>
							</g>
							<g>
								<rect x="231.735" y="231.101" fill="#B0B0B0" width="15.641" height="1.707"/>
								<rect x="231.735" y="234.983" fill="#B0B0B0" width="15.641" height="1.709"/>
								<rect x="231.735" y="238.867" fill="#B0B0B0" width="15.641" height="1.709"/>
							</g>
						</g>
					</g>
					<g>
						<rect x="291.894" y="176.84" fill="#FF5527" width="32.93" height="137.867"/>
						<g>
							<path fill="#161D21" d="M315.429,297.166c0,4.025-3.264,7.289-7.291,7.289c-4.023,0-7.291-3.264-7.291-7.289
								c0-4.027,3.267-7.289,7.291-7.289C312.166,289.877,315.429,293.139,315.429,297.166z"/>
							<path fill="#FFFFFF" d="M308.138,305.402c-4.543,0-8.239-3.695-8.239-8.236c0-4.543,3.696-8.238,8.239-8.238
								s8.24,3.695,8.24,8.238C316.378,301.707,312.681,305.402,308.138,305.402z M308.138,290.828c-3.494,0-6.34,2.842-6.34,6.338
								s2.846,6.34,6.34,6.34c3.496,0,6.344-2.844,6.344-6.34S311.634,290.828,308.138,290.828z"/>
						</g>
						<rect x="298.88" y="180.62" fill="#FFFFFF" width="19.344" height="97.435"/>
						<g>
							<g>
								<rect x="300.275" y="193.06" fill="#B0B0B0" width="7.08" height="1.708"/>
								<rect x="300.275" y="200.051" fill="#B0B0B0" width="15.64" height="1.708"/>
								<rect x="300.275" y="203.934" fill="#B0B0B0" width="15.64" height="1.708"/>
								<rect x="300.275" y="207.816" fill="#B0B0B0" width="15.64" height="1.707"/>
								<rect x="300.275" y="211.699" fill="#B0B0B0" width="15.64" height="1.709"/>
							</g>
							<g>
								<rect x="300.275" y="215.588" fill="#B0B0B0" width="15.64" height="1.708"/>
								<rect x="300.275" y="219.471" fill="#B0B0B0" width="15.64" height="1.708"/>
								<rect x="300.275" y="223.354" fill="#B0B0B0" width="15.64" height="1.708"/>
								<rect x="300.275" y="227.238" fill="#B0B0B0" width="15.64" height="1.708"/>
							</g>
							<g>
								<rect x="300.275" y="231.101" fill="#B0B0B0" width="15.64" height="1.707"/>
								<rect x="300.275" y="234.983" fill="#B0B0B0" width="15.64" height="1.709"/>
								<rect x="300.275" y="238.867" fill="#B0B0B0" width="15.64" height="1.709"/>
							</g>
						</g>
					</g>
					<g>
						<rect x="326.166" y="176.84" fill="#2FBCBC" width="32.93" height="137.867"/>
						<g>
							<circle fill="#161D21" cx="342.409" cy="297.166" r="7.29"/>
							<path fill="#FFFFFF" d="M342.41,305.402c-4.543,0-8.238-3.695-8.238-8.236c0-4.543,3.695-8.238,8.238-8.238
								s8.238,3.695,8.238,8.238C350.648,301.707,346.953,305.402,342.41,305.402z M342.41,290.828c-3.496,0-6.34,2.842-6.34,6.338
								s2.844,6.34,6.34,6.34s6.342-2.844,6.342-6.34S345.906,290.828,342.41,290.828z"/>
						</g>
						<rect x="333.152" y="180.62" fill="#FFFFFF" width="19.344" height="97.435"/>
						<g>
							<g>
								<rect x="334.546" y="193.06" fill="#B0B0B0" width="7.078" height="1.708"/>
								<rect x="334.546" y="200.051" fill="#B0B0B0" width="15.641" height="1.708"/>
								<rect x="334.546" y="203.934" fill="#B0B0B0" width="15.641" height="1.708"/>
								<rect x="334.546" y="207.816" fill="#B0B0B0" width="15.641" height="1.707"/>
								<rect x="334.546" y="211.699" fill="#B0B0B0" width="15.641" height="1.709"/>
							</g>
							<g>
								<rect x="334.546" y="215.588" fill="#B0B0B0" width="15.641" height="1.708"/>
								<rect x="334.546" y="219.471" fill="#B0B0B0" width="15.641" height="1.708"/>
								<rect x="334.546" y="223.354" fill="#B0B0B0" width="15.641" height="1.708"/>
								<rect x="334.546" y="227.238" fill="#B0B0B0" width="15.641" height="1.708"/>
							</g>
							<g>
								<rect x="334.546" y="231.101" fill="#B0B0B0" width="15.641" height="1.707"/>
								<rect x="334.546" y="234.983" fill="#B0B0B0" width="15.641" height="1.709"/>
								<rect x="334.546" y="238.867" fill="#B0B0B0" width="15.641" height="1.709"/>
							</g>
						</g>
					</g>
				</g>
				<g display="inline">
					<g>
						<path fill="#FF5527" d="M93.546,222.896c0,0.125-0.134,0.228-0.295,0.228h-4.605c-0.161,0-0.293-0.102-0.293-0.228v-6.541
							c0-0.124,0.132-0.229,0.293-0.229h4.605c0.161,0,0.295,0.103,0.295,0.227V222.896z"/>
						<path fill="#F1F1F1" d="M92.956,216.127h-1.66v6.998h1.66c0.163,0,0.295-0.104,0.295-0.228v-6.542
							C93.251,216.23,93.119,216.127,92.956,216.127z"/>
						<polygon fill="#152B38" points="165.637,216.127 161.964,216.127 113.671,216.127 105.7,216.127 93.104,216.127 
							93.104,223.125 105.7,223.125 113.671,223.125 161.964,223.125 165.637,223.125 181.628,223.125 181.628,216.127 						"/>
						<polygon fill="#152B38" points="165.637,218.687 161.964,218.687 113.671,218.687 105.7,218.687 93.104,218.687 
							93.104,220.563 105.7,220.563 113.671,220.563 161.964,220.563 165.637,220.563 181.628,220.563 181.628,218.687 						"/>
						<polygon fill="#FFFFFF" points="181.585,223.144 179.103,219.625 181.585,216.106 192.928,219.625 						"/>
						<polygon fill="#161D21" points="188.196,218.157 188.196,221.092 192.928,219.625 						"/>
						<polygon fill="#F1F1F1" points="181.585,223.144 179.103,219.625 181.585,216.106 192.928,219.625 						"/>
						<polygon fill="#152B38" points="188.196,218.157 188.196,221.092 192.928,219.625 						"/>
					</g>
					<g>
						<path fill="#152B38" d="M206.177,267.255v-3.203H75.075c-4.438,0-8.035,3.597-8.035,8.035v7.504
							c0,4.438,3.598,8.037,8.035,8.037h131.102v-3.205h-3.627v-17.168H206.177z"/>
						<path fill="#F1F1F1" d="M202.751,267.255H77.081c-2.818,0-5.104,2.286-5.104,5.105v6.958c0,2.82,2.285,5.105,5.104,5.105
							h125.67V267.255z"/>
						<polygon fill="#FF5527" points="91.814,285.238 88.479,280.912 85.143,285.238 85.143,274.674 91.814,274.674 						"/>
					</g>
					<g>
						<g>
							<path fill="#2FBCBC" d="M189.898,228.951v-5.471H82.147c-3.646,0-6.604,6.14-6.604,13.717v12.818
								c0,7.576,2.957,13.719,6.604,13.719h107.751v-5.471h-2.981v-29.313H189.898z"/>
							<path fill="#F1F1F1" d="M187.082,228.951H83.798c-2.318,0-4.196,3.902-4.196,8.717v11.878c0,4.814,1.878,8.718,4.196,8.718
								h103.284V228.951z"/>
						</g>
						<polygon fill="#FF5527" points="103.208,261.844 100.233,257.991 97.26,261.844 97.26,252.43 103.208,252.43 						"/>
					</g>
					<g>
						<g>
							<rect x="65.605" y="288.119" fill="#FF5527" width="130.067" height="26.539"/>
							<rect x="79.54" y="288.119" fill="#FFFFFF" width="3.293" height="26.539"/>
							<rect x="176.885" y="288.119" fill="#FFFFFF" width="3.292" height="26.539"/>
							<rect x="85.62" y="288.119" fill="#FFFFFF" width="10.093" height="26.539"/>
							<rect x="163.421" y="288.119" fill="#FFFFFF" width="10.092" height="26.539"/>
						</g>
						<g opacity="0.2">
							<rect x="65.605" y="301.143" fill="#FFFFFF" width="130.067" height="13.516"/>
							<rect x="89.478" y="301.143" fill="#FFFFFF" width="3.293" height="13.516"/>
							<rect x="172.624" y="301.143" fill="#FFFFFF" width="3.293" height="13.516"/>
						</g>
					</g>
				</g>
			</g>
			<g display="none" clip-path="url(#SVGID_2_)">
				<rect x="197.128" y="237.173" display="inline" fill="#FFFFFF" width="4.133" height="11.248"/>
				<rect x="248.271" y="237.173" display="inline" fill="#FFFFFF" width="4.136" height="11.248"/>
				<path display="inline" fill="#1B384C" d="M315.601,373.535c0,5.025-4.076,9.104-9.104,9.104H142.661
					c-5.028,0-9.104-4.078-9.104-9.104V254.07c0-5.026,4.075-9.101,9.104-9.101h163.836c5.027,0,9.104,4.075,9.104,9.101V373.535z"
					/>
				<path display="inline" fill="#152B38" d="M306.746,368.24c0,4.391-3.678,7.949-8.214,7.949H150.628
					c-4.537,0-8.216-3.559-8.216-7.949V263.914c0-4.389,3.679-7.946,8.216-7.946h147.903c4.537,0,8.214,3.558,8.214,7.946V368.24z"
					/>
				<g display="inline">
					<path fill="#152B38" d="M315.601,312.615c0,2.648-4.076,4.791-9.104,4.791H142.661c-5.028,0-9.104-2.143-9.104-4.791v-62.858
						c0-2.645,4.075-4.788,9.104-4.788h163.836c5.027,0,9.104,2.143,9.104,4.788V312.615z"/>
					<path fill="#1B384C" d="M306.498,317.953H142.661c-5.413,0-9.652-2.344-9.652-5.338v-62.858c0-2.993,4.239-5.336,9.652-5.336
						h163.836c5.412,0,9.652,2.344,9.652,5.336v62.858C316.15,315.609,311.91,317.953,306.498,317.953z M142.661,245.517
						c-4.638,0-8.555,1.941-8.555,4.24v62.858c0,2.299,3.917,4.242,8.555,4.242h163.836c4.637,0,8.553-1.943,8.553-4.242v-62.858
						c0-2.299-3.916-4.24-8.553-4.24H142.661z"/>
				</g>
				<g display="inline">
					<path fill="#1B384C" d="M140.849,244.715c-0.362,0.507-0.569,1.055-0.569,1.631v59.566c0,2.51,3.772,4.541,8.429,4.541h151.74
						c4.657,0,8.43-2.031,8.43-4.541v-59.566c0-0.576-0.207-1.124-0.57-1.631H140.849z"/>
				</g>
				<g display="inline">
					<rect x="215.098" y="306.596" fill="#FFFFFF" width="18.962" height="18.965"/>
					<rect x="215.098" y="315.51" fill="#152B38" width="18.962" height="1.137"/>
					<rect x="222.303" y="314.309" fill="#152B38" width="4.552" height="4.299"/>
				</g>
				<g display="inline">
					<path fill="#1B384C" d="M201.878,239.642v-9.831c0-2.309,1.877-4.186,4.186-4.186h37.029c2.309,0,4.188,1.877,4.188,4.186
						v9.831h5.486v-9.831c0-5.334-4.34-9.673-9.674-9.673h-37.029c-5.332,0-9.673,4.339-9.673,9.673v9.831H201.878z"/>
				</g>
				<rect x="172.091" y="243.619" display="inline" fill="#1B384C" width="36.578" height="3.704"/>
				<rect x="240.675" y="243.619" display="inline" fill="#1B384C" width="36.577" height="3.704"/>
			</g>
		</g>
		<g display="none">
			<rect x="331.931" y="385.121" display="inline" fill="#F1F1F1" width="224.273" height="66.117"/>
			<g display="inline">
				<rect x="440.431" y="393.428" fill="#152B38" width="9.518" height="9.521"/>
				<rect x="456.806" y="393.428" fill="#152B38" width="9.516" height="9.521"/>
			</g>
			<rect x="443.544" y="406.756" display="inline" fill="#152B38" width="9.521" height="9.52"/>
			<rect x="459.917" y="406.756" display="inline" fill="#152B38" width="9.52" height="9.52"/>
			<rect x="523.787" y="433.41" display="inline" fill="#152B38" width="9.52" height="9.516"/>
			<rect x="540.16" y="433.41" display="inline" fill="#152B38" width="9.516" height="9.516"/>
			<rect x="440.431" y="393.428" display="inline" fill="#152B38" width="9.518" height="9.521"/>
			<rect x="456.806" y="393.428" display="inline" fill="#152B38" width="9.516" height="9.521"/>
			<rect x="449.775" y="420.08" display="inline" fill="#152B38" width="9.518" height="9.52"/>
			<rect x="466.146" y="420.08" display="inline" fill="#152B38" width="9.52" height="9.52"/>
			<rect x="440.431" y="433.41" display="inline" fill="#152B38" width="9.518" height="9.516"/>
			<rect x="456.806" y="433.41" display="inline" fill="#152B38" width="9.516" height="9.516"/>
			<g display="inline">
				<rect x="473.908" y="393.428" fill="#152B38" width="9.52" height="9.521"/>
				<rect x="490.277" y="393.428" fill="#152B38" width="9.521" height="9.521"/>
				<rect x="506.648" y="393.428" fill="#152B38" width="9.523" height="9.521"/>
			</g>
			<rect x="476.398" y="406.756" display="inline" fill="#152B38" width="9.52" height="9.52"/>
			<rect x="492.771" y="406.756" display="inline" fill="#152B38" width="9.52" height="9.52"/>
			<rect x="509.14" y="406.756" display="inline" fill="#152B38" width="9.521" height="22.844"/>
			<g display="inline">
				<rect x="483.029" y="420.08" fill="#152B38" width="9.52" height="9.52"/>
			</g>
			<g display="inline">
				<rect x="499.798" y="420.08" fill="#152B38" width="11.611" height="9.52"/>
			</g>
			<g display="inline">
				<rect x="473.908" y="433.41" fill="#152B38" width="9.52" height="9.516"/>
				<rect x="490.277" y="433.41" fill="#152B38" width="9.521" height="9.516"/>
				<rect x="506.648" y="433.41" fill="#152B38" width="9.523" height="9.516"/>
			</g>
			<rect x="341.21" y="393.428" display="inline" fill="#152B38" width="9.516" height="9.521"/>
			<rect x="357.583" y="393.428" display="inline" fill="#152B38" width="9.518" height="9.521"/>
			<rect x="341.21" y="406.756" display="inline" fill="#152B38" width="12.434" height="9.52"/>
			<rect x="360.074" y="406.756" display="inline" fill="#152B38" width="9.52" height="9.52"/>
			<rect x="341.21" y="420.08" display="inline" fill="#152B38" width="18.863" height="9.52"/>
			<rect x="366.925" y="420.08" display="inline" fill="#152B38" width="9.518" height="9.52"/>
			<rect x="373.576" y="393.428" display="inline" fill="#152B38" width="9.52" height="9.521"/>
			<rect x="389.947" y="393.428" display="inline" fill="#152B38" width="9.518" height="9.521"/>
			<rect x="376.066" y="406.756" display="inline" fill="#152B38" width="9.52" height="9.52"/>
			<rect x="392.437" y="406.756" display="inline" fill="#152B38" width="9.52" height="9.52"/>
			<rect x="382.919" y="420.08" display="inline" fill="#152B38" width="9.518" height="9.52"/>
			<rect x="399.291" y="420.08" display="inline" fill="#152B38" width="9.52" height="9.52"/>
			<rect x="341.21" y="433.41" display="inline" fill="#152B38" width="9.516" height="9.516"/>
			<rect x="357.583" y="433.41" display="inline" fill="#152B38" width="9.518" height="9.516"/>
			<rect x="373.576" y="433.41" display="inline" fill="#152B38" width="59.779" height="9.516"/>
			<rect x="407.462" y="393.428" display="inline" fill="#152B38" width="9.52" height="9.521"/>
			<rect x="423.835" y="393.428" display="inline" fill="#152B38" width="9.52" height="9.521"/>
			<rect x="409.955" y="406.756" display="inline" fill="#152B38" width="9.518" height="9.52"/>
			<rect x="426.328" y="406.756" display="inline" fill="#152B38" width="9.518" height="9.52"/>
			<rect x="416.806" y="420.08" display="inline" fill="#152B38" width="9.521" height="9.52"/>
			<rect x="433.179" y="420.08" display="inline" fill="#152B38" width="9.518" height="9.52"/>
			<rect x="523.787" y="393.428" display="inline" fill="#152B38" width="9.52" height="9.521"/>
			<rect x="540.16" y="393.428" display="inline" fill="#152B38" width="9.516" height="9.521"/>
			<rect x="523.787" y="406.756" display="inline" fill="#152B38" width="9.52" height="9.52"/>
			<rect x="540.16" y="406.756" display="inline" fill="#152B38" width="9.516" height="9.52"/>
			<rect x="523.787" y="420.08" display="inline" fill="#152B38" width="9.52" height="9.52"/>
			<rect x="540.16" y="420.08" display="inline" fill="#152B38" width="9.516" height="9.52"/>
		</g>
	</g>
</g>
<g>
	<g opacity="0.2">
		<path fill="#48423B" d="M379.738,145.303h-57.507c0-2.92-1.787-5.289-3.992-5.289h-56.48c-2.205,0-3.991,2.368-3.991,5.289
			h-58.315c-2.205,0-3.992,1.788-3.992,3.992v245.881c0,2.203,1.787,3.99,3.992,3.99h180.286c2.203,0,3.991-1.787,3.991-3.99
			V149.294C383.729,147.09,381.941,145.303,379.738,145.303z"/>
	</g>
	<path fill="#FF7989" d="M379.738,399.166H199.452c-2.205,0-3.992-1.787-3.992-3.99V149.294c0-2.204,1.787-3.992,3.992-3.992
		h180.286c2.203,0,3.991,1.788,3.991,3.992v245.881C383.729,397.379,381.941,399.166,379.738,399.166z"/>
	<polygon fill="#CAC8C8" points="377.843,387.945 208.002,387.945 208.002,154.305 341.804,154.305 377.843,154.305 
		377.843,193.756 	"/>
	<path fill="#FF4957" d="M322.231,145.303c0,2.921-1.787,5.289-3.992,5.289h-56.48c-2.205,0-3.991-2.368-3.991-5.289l0,0
		c0-2.921,1.786-5.289,3.991-5.289h56.48C320.444,140.014,322.231,142.382,322.231,145.303L322.231,145.303z"/>
	<g opacity="0.2">
		<polygon fill="#5A5550" points="294.164,170.684 164.637,170.684 164.637,404.326 334.478,404.326 334.478,211.797 		"/>
	</g>
	<polygon fill="#FFFFFF" stroke="#C4C4C4" stroke-miterlimit="10" points="335.496,211.012 335.496,403.541 165.655,403.541 
		165.655,169.898 295.181,169.898 	"/>
	<polygon fill="#EEEEEE" points="335.496,211.012 295.181,211.012 295.181,169.898 	"/>
	<rect x="192.531" y="223.388" fill="#CAC8C8" width="118.417" height="7.583"/>
	<rect x="192.531" y="242.547" fill="#CAC8C8" width="118.816" height="2.167"/>
	<rect x="192.531" y="250.56" fill="#CAC8C8" width="118.816" height="2.165"/>
	<rect x="192.531" y="258.635" fill="#CAC8C8" width="59.408" height="2.169"/>
	<rect x="192.531" y="266.714" fill="#CAC8C8" width="118.816" height="2.166"/>
	<rect x="192.531" y="274.792" fill="#CAC8C8" width="118.816" height="2.167"/>
	<rect x="192.531" y="282.869" fill="#CAC8C8" width="59.408" height="2.166"/>
	<rect x="192.531" y="290.945" fill="#CAC8C8" width="91.873" height="2.168"/>
	<rect x="192.531" y="299.025" fill="#CAC8C8" width="91.873" height="2.164"/>
	<rect x="192.531" y="307.1" fill="#CAC8C8" width="118.816" height="2.17"/>
	<rect x="192.531" y="315.18" fill="#CAC8C8" width="118.816" height="2.164"/>
	<rect x="192.531" y="323.256" fill="#CAC8C8" width="118.816" height="2.168"/>
	<rect x="192.531" y="331.336" fill="#CAC8C8" width="58.044" height="2.164"/>
	<rect x="192.531" y="339.41" fill="#CAC8C8" width="118.816" height="2.168"/>
	<rect x="192.531" y="347.488" fill="#CAC8C8" width="118.816" height="2.166"/>
	<rect x="192.531" y="356.174" fill="#CAC8C8" width="118.816" height="2.168"/>
	<polygon fill="#00B447" points="308.942,370.787 296.122,383.617 291.276,378.771 288.64,381.404 293.487,386.252 296.122,388.885 
		298.748,386.252 311.576,373.422 	"/>
</g>
</svg>
