<?xml version="1.0" encoding="iso-8859-1"?>
<!-- Generator: Adobe Illustrator 18.0.0, SVG Export Plug-In . SVG Version: 6.00 Build 0)  -->
<!DOCTYPE svg PUBLIC "-//W3C//DTD SVG 1.1//EN" "http://www.w3.org/Graphics/SVG/1.1/DTD/svg11.dtd">
<svg xmlns="http://www.w3.org/2000/svg" xmlns:xlink="http://www.w3.org/1999/xlink" version="1.1" id="Capa_1" x="0px" y="0px" viewBox="0 0 436.74 436.74" style="enable-background:new 0 0 436.74 436.74;" xml:space="preserve" width="512px" height="512px">
<g>
	<path d="M278.079,339.563c-4.034-0.93-8.062,1.589-8.992,5.625l-8.68,37.687H16.924l22.956-99.67h185.494   c4.142,0,7.5-3.358,7.5-7.5s-3.358-7.5-7.5-7.5H39.88l-22.956-99.67h243.484l11.055,48c0.93,4.037,4.956,6.556,8.992,5.625   c4.037-0.93,6.555-4.956,5.625-8.992l-12.007-52.134l26.023-112.987c0.513-2.227-0.018-4.565-1.44-6.354s-3.583-2.83-5.868-2.83   H33.911c-3.494,0-6.524,2.412-7.309,5.817L0.192,159.352c-0.255,1.107-0.255,2.259,0,3.366l26.023,112.987L0.192,388.692   c-0.513,2.227,0.018,4.565,1.44,6.354s3.583,2.83,5.868,2.83h258.876c3.494,0,6.524-2.412,7.309-5.817l10.02-43.503   C284.634,344.519,282.116,340.493,278.079,339.563z M39.88,53.865h243.484l-22.956,99.67H16.924L39.88,53.865z" fill="#006DF0"/>
	<path d="M62.997,93.201h128.994c4.142,0,7.5-3.358,7.5-7.5s-3.358-7.5-7.5-7.5H62.997c-4.142,0-7.5,3.358-7.5,7.5   S58.855,93.201,62.997,93.201z" fill="#006DF0"/>
	<path d="M49.498,129.199h128.994c4.142,0,7.5-3.358,7.5-7.5s-3.358-7.5-7.5-7.5H49.498c-4.142,0-7.5,3.358-7.5,7.5   S45.356,129.199,49.498,129.199z" fill="#006DF0"/>
	<path d="M199.491,315.041c0-4.142-3.358-7.5-7.5-7.5H62.997c-4.142,0-7.5,3.358-7.5,7.5s3.358,7.5,7.5,7.5h128.994   C196.133,322.541,199.491,319.183,199.491,315.041z" fill="#006DF0"/>
	<path d="M49.498,343.539c-4.142,0-7.5,3.358-7.5,7.5s3.358,7.5,7.5,7.5h128.994c4.142,0,7.5-3.358,7.5-7.5s-3.358-7.5-7.5-7.5   H49.498z" fill="#006DF0"/>
	<path d="M185.991,200.371c0-4.142-3.358-7.5-7.5-7.5H49.498c-4.142,0-7.5,3.358-7.5,7.5s3.358,7.5,7.5,7.5h128.994   C182.633,207.871,185.991,204.513,185.991,200.371z" fill="#006DF0"/>
	<path d="M62.997,243.869h128.994c4.142,0,7.5-3.358,7.5-7.5s-3.358-7.5-7.5-7.5H62.997c-4.142,0-7.5,3.358-7.5,7.5   S58.855,243.869,62.997,243.869z" fill="#006DF0"/>
	<path d="M216.135,100.333c0.526,2.63,2.417,4.779,4.958,5.636c0.784,0.264,1.592,0.393,2.395,0.393   c1.801,0,3.572-0.649,4.963-1.876l25.499-22.499c3.106-2.74,3.402-7.48,0.661-10.586c-2.74-3.105-7.479-3.402-10.586-0.661   L228.29,84.624l-0.446-2.232c-0.813-4.061-4.759-6.696-8.826-5.883c-4.062,0.813-6.695,4.764-5.883,8.826L216.135,100.333z" fill="#006DF0"/>
	<path d="M223.867,222.752c0.37,0,0.742-0.027,1.114-0.083c2.652-0.398,4.891-2.183,5.869-4.68l12.411-31.66   c1.512-3.856-0.389-8.208-4.245-9.72c-3.857-1.514-8.208,0.389-9.72,4.245l-7.659,19.538l-1.417-1.782   c-2.577-3.242-7.295-3.782-10.538-1.204c-3.242,2.577-3.782,7.295-1.204,10.538l9.518,11.975   C219.431,221.724,221.601,222.752,223.867,222.752z" fill="#006DF0"/>
	<path d="M224.687,258.6c1.435,1.805,3.604,2.833,5.87,2.833c0.37,0,0.742-0.027,1.114-0.083c2.652-0.398,4.891-2.183,5.869-4.68   l12.411-31.66c1.512-3.856-0.389-8.208-4.245-9.72c-3.858-1.514-8.208,0.389-9.72,4.245l-7.659,19.538l-1.417-1.782   c-2.577-3.242-7.294-3.782-10.538-1.204c-3.242,2.577-3.782,7.295-1.204,10.538L224.687,258.6z" fill="#006DF0"/>
	<path d="M434.71,178.7l-38.241-40.765c-1.361-1.451-3.242-2.301-5.23-2.365c-1.998-0.056-3.92,0.666-5.371,2.026L242.563,272.029   c-0.919,0.862-1.606,1.941-1.997,3.139l-18.072,55.272c-0.852,2.604-0.216,5.464,1.659,7.462c1.437,1.531,3.425,2.369,5.47,2.369   c0.623,0,1.251-0.078,1.871-0.237l56.313-14.508c1.22-0.314,2.341-0.931,3.26-1.793l143.305-134.433   C437.392,186.467,437.544,181.721,434.71,178.7z M241.004,322.094l9.884-30.229l20.914,22.294L241.004,322.094z M286.274,307.662   l-27.978-29.825l132.365-124.17l27.979,29.825L286.274,307.662z" fill="#006DF0"/>
</g>
<g>
</g>
<g>
</g>
<g>
</g>
<g>
</g>
<g>
</g>
<g>
</g>
<g>
</g>
<g>
</g>
<g>
</g>
<g>
</g>
<g>
</g>
<g>
</g>
<g>
</g>
<g>
</g>
<g>
</g>
</svg>
