<?xml version="1.0" encoding="iso-8859-1"?>
<!-- Generator: Adobe Illustrator 19.1.0, SVG Export Plug-In . SVG Version: 6.00 Build 0)  -->
<svg xmlns="http://www.w3.org/2000/svg" xmlns:xlink="http://www.w3.org/1999/xlink" version="1.1" id="Capa_1" x="0px" y="0px" viewBox="0 0 304.728 304.728" style="enable-background:new 0 0 304.728 304.728;" xml:space="preserve" width="512px" height="512px">
<g>
	<path d="M289.204,0v304.728H135.5c-3.554,0-6.427-2.873-6.427-6.427s2.873-6.427,6.427-6.427h140.851V12.854H134.96   c-3.554,0-6.427-2.879-6.427-6.427c0-3.554,2.873-6.427,6.427-6.427H289.204z M130.821,158.794H21.951   c-3.554,0-6.427-2.873-6.427-6.427c0-3.554,2.873-6.427,6.427-6.427h108.871V97.733c0-7.834,5-11.395,9.66-11.395   c1.845,0,4.704,0.566,7.879,3.207l62.205,52.051c3.31,2.757,5.193,6.677,5.193,10.771s-1.883,8.014-5.193,10.771l-62.205,52.077   c-3.168,2.635-6.028,3.188-7.879,3.188c-4.659,0-9.66-3.573-9.66-11.388V158.794z M143.675,202.297l58.645-49.03   c0.366-0.308,0.578-0.643,0.578-0.919c0-0.276-0.212-0.611-0.578-0.919l-58.6-49.017L143.675,202.297z" fill="#006DF0"/>
</g>
<g>
</g>
<g>
</g>
<g>
</g>
<g>
</g>
<g>
</g>
<g>
</g>
<g>
</g>
<g>
</g>
<g>
</g>
<g>
</g>
<g>
</g>
<g>
</g>
<g>
</g>
<g>
</g>
<g>
</g>
</svg>
