<?xml version="1.0" encoding="iso-8859-1"?>
<!-- Generator: Adobe Illustrator 19.0.0, SVG Export Plug-In . SVG Version: 6.00 Build 0)  -->
<svg xmlns="http://www.w3.org/2000/svg" xmlns:xlink="http://www.w3.org/1999/xlink" version="1.1" id="Layer_1" x="0px" y="0px" viewBox="0 0 512 512" style="enable-background:new 0 0 512 512;" xml:space="preserve" width="512px" height="512px">
<g>
	<g>
		<path d="M462.291,0h-350.56c-5.632,0-10.199,4.566-10.199,10.199V359.23l-52.328,52.328c-12.923,12.923-12.923,33.953,0,46.877    c6.462,6.462,14.951,9.693,23.439,9.693s16.978-3.231,23.439-9.693l5.449-5.449v48.815c0,5.633,4.567,10.199,10.199,10.199    h266.562c2.705,0,5.298-1.075,7.212-2.987l83.997-83.998c1.912-1.912,2.987-4.506,2.987-7.212V10.199    C472.49,4.566,467.923,0,462.291,0z M81.659,444.01c-4.972,4.972-13.06,4.971-18.03,0c-4.97-4.971-4.97-13.059,0-18.029    l97.722-97.722l18.03,18.03L81.659,444.01z M388.475,477.196l-0.046-49.257l49.259,0.045L388.475,477.196z M452.092,407.598    l-73.863-0.067c-0.003,0-0.006,0-0.009,0c-2.705,0-5.299,1.075-7.212,2.987c-1.914,1.914-2.99,4.513-2.987,7.221l0.068,73.863    H121.931v-59.015l79.086-79.086c3.983-3.983,3.983-10.441,0-14.424l-9.328-9.328l19.504-19.504    c20.975,17.513,47.951,28.068,77.349,28.068c66.643,0,120.861-54.218,120.861-120.861S355.183,96.593,288.541,96.593    S167.68,150.81,167.68,217.453c0,29.917,10.932,57.326,29.003,78.453l-19.419,19.419l-8.701-8.701    c-1.913-1.912-4.507-2.987-7.212-2.987c-2.705,0-5.299,1.075-7.212,2.987l-32.208,32.208V20.398h330.161V407.598z     M188.079,217.453c0-55.395,45.067-100.462,100.462-100.462c55.395,0,100.462,45.067,100.462,100.462    s-45.067,100.462-100.462,100.462C233.146,317.915,188.079,272.848,188.079,217.453z" fill="#006DF0"/>
	</g>
</g>
<g>
	<g>
		<path d="M346.166,207.764H231.935c-5.632,0-10.199,4.566-10.199,10.199c0,5.633,4.567,10.199,10.199,10.199h114.231    c5.632,0,10.199-4.566,10.199-10.199C356.365,212.33,351.798,207.764,346.166,207.764z" fill="#006DF0"/>
	</g>
</g>
<g>
	<g>
		<path d="M346.166,247.541H231.935c-5.632,0-10.199,4.566-10.199,10.199s4.567,10.199,10.199,10.199h114.231    c5.633,0,10.199-4.566,10.199-10.199S351.798,247.541,346.166,247.541z" fill="#006DF0"/>
	</g>
</g>
<g>
	<g>
		<path d="M277.832,166.967h-45.896c-5.632,0-10.199,4.566-10.199,10.199c0,5.633,4.567,10.199,10.199,10.199h45.896    c5.632,0,10.199-4.566,10.199-10.199C288.031,171.533,283.464,166.967,277.832,166.967z" fill="#006DF0"/>
	</g>
</g>
<g>
	<g>
		<path d="M314.549,166.967h-6.12c-5.632,0-10.199,4.566-10.199,10.199c0,5.633,4.567,10.199,10.199,10.199h6.12    c5.632,0,10.199-4.566,10.199-10.199C324.748,171.533,320.181,166.967,314.549,166.967z" fill="#006DF0"/>
	</g>
</g>
<g>
</g>
<g>
</g>
<g>
</g>
<g>
</g>
<g>
</g>
<g>
</g>
<g>
</g>
<g>
</g>
<g>
</g>
<g>
</g>
<g>
</g>
<g>
</g>
<g>
</g>
<g>
</g>
<g>
</g>
</svg>
