<?xml version="1.0" encoding="iso-8859-1"?>
<!-- Generator: Adobe Illustrator 17.1.0, SVG Export Plug-In . SVG Version: 6.00 Build 0)  -->
<!DOCTYPE svg PUBLIC "-//W3C//DTD SVG 1.1//EN" "http://www.w3.org/Graphics/SVG/1.1/DTD/svg11.dtd">
<svg xmlns="http://www.w3.org/2000/svg" xmlns:xlink="http://www.w3.org/1999/xlink" version="1.1" id="Capa_1" x="0px" y="0px" viewBox="0 0 446.846 446.846" style="enable-background:new 0 0 446.846 446.846;" xml:space="preserve" width="512px" height="512px">
<path id="XMLID_2086_" d="M309.974,184.931c0,4.971-4.029,9-9,9s-9-4.029-9-9v-20c0-4.971,4.029-9,9-9s9,4.029,9,9V184.931z   M272.784,246.394l-19.318,5.177c-4.801,1.287-7.65,6.222-6.364,11.023c1.078,4.021,4.714,6.673,8.688,6.673  c0.771,0,1.555-0.1,2.335-0.309l19.318-5.177c4.801-1.287,7.65-6.222,6.364-11.023S277.584,245.107,272.784,246.394z   M309.974,109.931c0-4.971-4.029-9-9-9s-9,4.029-9,9v20c0,4.971,4.029,9,9,9s9-4.029,9-9V109.931z M171.168,266.506l-19.328-5.141  c-4.806-1.276-9.733,1.581-11.011,6.384c-1.277,4.804,1.581,9.733,6.384,11.011l19.328,5.141c0.775,0.206,1.553,0.305,2.319,0.305  c3.98,0,7.62-2.661,8.692-6.689C178.829,272.714,175.971,267.784,171.168,266.506z M112.841,250.992  c-4.803-1.279-9.734,1.58-11.011,6.383c-1.278,4.804,1.58,9.733,6.383,11.011l5.176,1.377c0.775,0.207,1.554,0.305,2.32,0.305  c3.979,0,7.62-2.661,8.691-6.688c1.278-4.804-1.58-9.733-6.383-11.011L112.841,250.992z M219.658,260.629l-19.318,5.176  c-4.801,1.287-7.651,6.222-6.364,11.022c1.078,4.021,4.714,6.673,8.688,6.673c0.771,0,1.555-0.1,2.335-0.309l19.318-5.176  c4.801-1.287,7.651-6.222,6.364-11.022C229.394,262.192,224.456,259.344,219.658,260.629z M300.974,210.931c-4.971,0-9,4.029-9,9v20  c0,4.971,4.029,9,9,9s9-4.029,9-9v-20C309.974,214.96,305.945,210.931,300.974,210.931z M259.601,41.256  C259.601,18.507,278.108,0,300.855,0c22.748,0,41.255,18.507,41.255,41.256c0,22.748-18.507,41.255-41.255,41.255  C278.108,82.511,259.601,64.004,259.601,41.256z M277.601,41.256c0,12.823,10.432,23.255,23.254,23.255  c12.823,0,23.255-10.432,23.255-23.255c0-12.823-10.432-23.256-23.255-23.256C288.033,18,277.601,28.433,277.601,41.256z   M299.785,50.256h2.143c4.971,0,9-4.029,9-9s-4.029-9-9-9h-2.143c-4.971,0-9,4.029-9,9S294.814,50.256,299.785,50.256z   M436.155,403.521L436.047,96.78c0-0.151-0.004-0.301-0.011-0.452c-0.91-17.98-13.175-33.183-30.521-37.83l-38.867-10.415  c-4.803-1.288-9.736,1.563-11.023,6.364c-1.287,4.801,1.563,9.736,6.364,11.023l38.867,10.415  c9.557,2.561,16.6,11.238,17.191,21.146l0.023,66.192l-71.413-19.162c-4.802-1.29-9.737,1.559-11.025,6.36  c-1.289,4.801,1.559,9.737,6.36,11.025l76.084,20.416l0.03,84.018l-71.449-19.171c-4.801-1.291-9.737,1.559-11.025,6.36  s1.559,9.737,6.36,11.025l76.121,20.425l0.031,86.951c-3.723-2.536-7.926-4.499-12.516-5.729l-92.831-24.883  c-0.618-0.166-1.241-0.316-1.869-0.452V290.7c0-4.971-4.029-9-9-9s-9,4.029-9,9v49.703c-0.63,0.137-1.255,0.288-1.875,0.454  L185.91,369.03v-46.028c0-4.971-4.029-9-9-9s-9,4.029-9,9v46.05L60.894,340.584v-36.053c0-4.971-4.029-9-9-9s-9,4.029-9,9v42.972  c0,4.08,2.744,7.649,6.687,8.698l124.818,33.203c1.6,0.464,3.44,0.462,5.038-0.004l116.274-31.156c1.846-0.495,3.779-0.761,5.72-0.8  c0.329,0.019,0.664,0.018,0.991,0c1.939,0.039,3.872,0.305,5.719,0.799l92.826,24.882c9.864,2.644,16.551,11.287,17.188,20.954  c0.003,0.228,0.015,0.452,0.035,0.675c0.083,2.256-0.166,4.562-0.779,6.854c-3.317,12.382-16.095,19.758-28.483,16.442  l-76.734-20.535v-14.422l77.116,21.27c4.788,1.322,9.747-1.491,11.069-6.283c1.322-4.792-1.491-9.748-6.283-11.069L305.587,372.6  c-2.709-0.748-5.61-0.186-7.846,1.516c-2.235,1.702-3.547,4.351-3.547,7.16v33.148c0,4.075,2.737,7.641,6.673,8.694l83.407,22.32  c3.561,0.953,7.138,1.408,10.661,1.408c18.216,0,34.931-12.172,39.863-30.58C435.941,412.002,436.368,407.71,436.155,403.521z   M51.894,280.463c-22.749,0-41.256-18.507-41.256-41.255s18.507-41.255,41.256-41.255c22.748,0,41.254,18.507,41.254,41.255  S74.642,280.463,51.894,280.463z M51.894,262.463c12.822,0,23.254-10.432,23.254-23.255s-10.432-23.255-23.254-23.255  c-12.823,0-23.256,10.432-23.256,23.255S39.071,262.463,51.894,262.463z M42.894,173.884v-32.191c-0.007-0.2-0.007-0.402,0-0.604  V40.063c0-2.798,1.301-5.437,3.521-7.14c2.22-1.703,5.105-2.279,7.808-1.553L176.91,64.24l58.285-15.617  c4.799-1.285,9.736,1.563,11.022,6.364c1.286,4.801-1.563,9.736-6.364,11.022L185.91,80.463v82.685l69.146-18.528  c4.803-1.288,9.736,1.563,11.023,6.364c1.287,4.801-1.563,9.736-6.364,11.022l-73.805,19.776v45.148c0,4.971-4.029,9-9,9  s-9-4.029-9-9v-45.147l-107.016-28.67v20.769c0,4.971-4.029,9-9,9S42.894,178.854,42.894,173.884z M60.894,134.48l107.016,28.67  V80.463L60.894,51.792V134.48z M61.965,239.208c0-4.971-4.029-9-9-9h-2.142c-4.971,0-9,4.029-9,9s4.029,9,9,9h2.142  C57.936,248.208,61.965,244.178,61.965,239.208z" fill="#006DF0"/>
<g>
</g>
<g>
</g>
<g>
</g>
<g>
</g>
<g>
</g>
<g>
</g>
<g>
</g>
<g>
</g>
<g>
</g>
<g>
</g>
<g>
</g>
<g>
</g>
<g>
</g>
<g>
</g>
<g>
</g>
</svg>
