<?xml version="1.0" encoding="iso-8859-1"?>
<!-- Generator: Adobe Illustrator 19.0.0, SVG Export Plug-In . SVG Version: 6.00 Build 0)  -->
<svg version="1.1" id="Layer_1" xmlns="http://www.w3.org/2000/svg" xmlns:xlink="http://www.w3.org/1999/xlink" x="0px" y="0px"
	 viewBox="0 0 512 512" style="enable-background:new 0 0 512 512;" xml:space="preserve">
<circle style="fill:#31BAFD;" cx="256" cy="256" r="256"/>
<path style="fill:#2B9ED8;" d="M260.937,511.938c137.463-2.601,248.399-113.54,251.001-251.001l-99.063-99.062l-39.553,46.09
	L267.29,101.935l-101.738,80.858l81.353,81.353l-147.78,85.98L260.937,511.938z"/>
<polygon style="fill:#CFDBE6;" points="140.154,196.353 144.291,201.869 255.857,118.194 255.857,109.575 "/>
<polygon style="fill:#B8C9D9;" points="256,109.468 255.857,109.575 255.857,118.194 256,118.088 367.709,201.869 371.846,196.353 
	"/>
<circle style="fill:#FF6472;" cx="256" cy="113.778" r="16.377"/>
<path style="fill:#D24146;" d="M256,97.401c-0.048,0-0.095,0.007-0.143,0.007v32.74c0.048,0,0.095,0.007,0.143,0.007
	c9.045,0,16.377-7.332,16.377-16.377S265.045,97.401,256,97.401z"/>
<rect x="99.125" y="161.875" style="fill:#324A5E;" width="313.751" height="188.251"/>
<rect x="255.862" y="161.875" style="fill:#2B3B4E;" width="157.013" height="188.251"/>
<g>
	<path style="fill:#FC6F58;" d="M182.158,318.061h-22.985c-12.198,0-22.123-9.925-22.123-22.125v-11.492
		c0-2.857,2.315-5.172,5.172-5.172s5.172,2.315,5.172,5.172v11.492c0,6.497,5.284,11.781,11.779,11.781h22.985
		c6.497,0,11.781-5.284,11.781-11.781v-96.825c0-2.857,2.315-5.172,5.172-5.172c2.857,0,5.172,2.315,5.172,5.172v96.825
		C204.283,308.136,194.358,318.061,182.158,318.061z"/>
	<path style="fill:#FC6F58;" d="M266.487,318.061h-20.975c-12.752,0-23.128-10.376-23.128-23.128v-77.865
		c0-12.752,10.376-23.128,23.128-23.128h20.975c12.753,0,23.13,10.376,23.13,23.128v77.865
		C289.616,307.684,279.24,318.061,266.487,318.061z M245.512,204.283c-7.049,0-12.784,5.735-12.784,12.784v77.865
		c0,7.049,5.735,12.784,12.784,12.784h20.975c7.051,0,12.786-5.735,12.786-12.784v-77.865c0-7.049-5.735-12.784-12.786-12.784
		H245.512z"/>
</g>
<g>
	<path style="fill:#D24146;" d="M266.487,193.939h-10.63v10.343h10.63c7.051,0,12.786,5.735,12.786,12.784v77.865
		c0,7.049-5.735,12.784-12.786,12.784h-10.63v10.343h10.63c12.753,0,23.13-10.376,23.13-23.128v-77.865
		C289.616,204.316,279.24,193.939,266.487,193.939z"/>
	<path style="fill:#D24146;" d="M374.949,237.037v-18.963c0-13.309-10.826-24.135-24.135-24.135h-37.926
		c-2.857,0-5.172,2.315-5.172,5.172v113.778c0,2.857,2.315,5.172,5.172,5.172h37.926c13.309,0,24.135-10.826,24.135-24.135v-18.963
		c0-7.692-3.631-14.541-9.254-18.963C371.319,251.578,374.949,244.729,374.949,237.037z M364.606,274.963v18.963
		c0,7.604-6.187,13.791-13.791,13.791h-32.754v-46.545h32.754C358.419,261.172,364.606,267.359,364.606,274.963z M318.061,250.828
		v-46.545h32.754c7.604,0,13.791,6.187,13.791,13.791v18.963c0,7.604-6.187,13.791-13.791,13.791H318.061z"/>
</g>
<g>
</g>
<g>
</g>
<g>
</g>
<g>
</g>
<g>
</g>
<g>
</g>
<g>
</g>
<g>
</g>
<g>
</g>
<g>
</g>
<g>
</g>
<g>
</g>
<g>
</g>
<g>
</g>
<g>
</g>
</svg>
