<?xml version="1.0" encoding="iso-8859-1"?>
<!-- Generator: Adobe Illustrator 19.0.0, SVG Export Plug-In . SVG Version: 6.00 Build 0)  -->
<svg version="1.1" id="Layer_1" xmlns="http://www.w3.org/2000/svg" xmlns:xlink="http://www.w3.org/1999/xlink" x="0px" y="0px"
	 viewBox="0 0 512 512" style="enable-background:new 0 0 512 512;" xml:space="preserve">
<circle style="fill:#FF8E31;" cx="256" cy="256" r="256"/>
<path style="fill:#ED7425;" d="M504.317,318.461c-26.33,105.032-117.54,184.323-228.534,192.801L136.735,372.219l-2.813-2.808
	c-1.172-2.312-0.878-4.938,0.509-6.917l8.996-12.649c2.342-3.292,4.355-6.876,5.96-10.719c1.615-3.878,2.747-7.823,3.476-11.779
	l3.182-17.992l2.821-15.864l3.51-19.722l9.805-55.112c2.23-12.439,8.632-24.174,19.054-32.916
	c10.419-8.73,23.114-13.012,35.727-13.012h1.208v-22.236h0.074c-2.742-1.756-4.941-4.096-6.584-6.735l-9.51-15.204l-1.39-2.196
	c-0.732-1.503-1.17-3.254-1.17-5.043c0-6.405,5.194-11.594,11.633-11.594c3.215,0,6.139,1.313,8.223,3.433l4.099,4.096l0.038,0.041
	c1.644-4.424,5.85-7.57,10.824-7.57c0.73,0,1.464,0.069,2.156,0.218c0.366,0.077,0.694,0.182,1.024,0.287
	c0.33,0.077,0.66,0.189,0.986,0.294c0.369,0.148,0.735,0.33,1.096,0.512c0.256,0.156,0.517,0.261,0.773,0.402
	c0.325,0.223,0.622,0.44,0.952,0.666c0.108,0.108,0.253,0.177,0.402,0.289c0.108,0.113,0.253,0.218,0.399,0.366l0.768,0.765
	c0.143,0.148,0.256,0.294,0.361,0.407l3.407,3.364l0.036,0.036c1.608-4.424,5.85-7.606,10.824-7.606
	c0.773,0,1.539,0.069,2.271,0.218c0.512,0.113,1.024,0.287,1.539,0.479c0.182,0.069,0.366,0.105,0.548,0.182
	c0.548,0.182,1.024,0.471,1.539,0.765c0.105,0.072,0.253,0.148,0.399,0.218c0.44,0.294,0.806,0.625,1.211,0.955l0.435,0.33
	l0.113,0.105c0.113,0.113,0.218,0.218,0.294,0.287l0.253,0.261c0.148,0.148,0.256,0.294,0.366,0.407l3.4,3.364l0.038,0.036
	c1.613-4.424,5.855-7.606,10.826-7.606c2.819,0,5.379,1.016,7.391,2.668c0.148,0.113,0.256,0.218,0.399,0.366l1.17,1.172
	L504.317,318.461z"/>
<path style="fill:#FFFFFF;" d="M339.82,218.642c-2.209-12.426-8.617-24.174-19.039-32.904c-10.429-8.737-23.114-13-35.732-13
	h-58.089c-12.613,0-25.3,4.262-35.738,13c-10.427,8.73-16.832,20.48-19.036,32.904l-19.331,108.69
	c-0.701,3.971-1.843,7.91-3.466,11.781c-1.623,3.868-3.63,7.442-5.972,10.721l-8.983,12.641c-1.4,1.979-1.682,4.636-0.499,6.938
	c1.19,2.291,3.515,3.61,5.929,3.61H372.14c2.414,0,4.741-1.321,5.926-3.61c1.18-2.301,0.906-4.959-0.492-6.938l-8.998-12.641
	c-2.324-3.279-4.339-6.856-5.962-10.729c-1.623-3.863-2.762-7.803-3.469-11.773L339.82,218.642z"/>
<path style="fill:#C1D354;" d="M256,229.486c-23.959,0-43.389,19.433-43.389,43.405c0,23.962,19.428,43.389,43.389,43.389
	s43.395-19.428,43.395-43.389C299.395,248.919,279.962,229.486,256,229.486z M259.569,297.001v4.531
	c0,0.955-0.392,1.797-1.011,2.514c-0.707,0.668-1.59,1.006-2.465,1.006h-0.786c-0.899,0-1.792-0.338-2.458-1.006
	c-0.671-0.717-1.004-1.559-1.004-2.514v-3.983c-5.281-0.23-10.422-1.669-13.394-3.405l2.35-9.18
	c3.31,1.841,7.956,3.469,13.087,3.469c4.495,0,7.539-1.777,7.539-4.91c0-2.985-2.504-4.902-8.325-6.833
	c-8.428-2.852-14.188-6.804-14.188-14.49c0-6.912,4.89-12.355,13.322-14.019v-3.976c0-0.886,0.323-1.805,1.014-2.445
	c0.66-0.717,1.564-1.019,2.465-1.019h0.745c0.899,0,1.81,0.302,2.509,1.019c0.66,0.64,0.978,1.559,0.978,2.445v3.464
	c5.307,0.21,8.847,1.334,11.443,2.591l-2.307,8.878c-2.028-0.814-5.65-2.655-11.328-2.655c-5.125,0-6.776,2.204-6.776,4.426
	c0,2.591,2.772,4.214,9.462,6.771c9.382,3.3,13.125,7.621,13.125,14.733C273.556,289.449,268.621,295.447,259.569,297.001z"/>
<path style="fill:#FFFFFF;" d="M302.397,121.308c0,1.805-0.417,3.538-1.147,5.056c0,0.02-0.028,0.044-0.051,0.056l-1.334,2.115
	c-0.031,0.069-0.072,0.12-0.118,0.161l-9.393,15.05c-1.938,3.11-4.657,5.788-8.09,7.683c-3.423,1.897-7.137,2.788-10.796,2.788
	h-30.943c-3.663,0-7.373-0.891-10.79-2.788c-3.423-1.897-6.149-4.572-8.095-7.677l-9.503-15.219l-1.377-2.171
	c-0.742-1.518-1.16-3.251-1.16-5.056c0-6.413,5.189-11.594,11.594-11.594c6.408,0,11.594,5.181,11.594,11.594
	c0-6.413,5.204-11.594,11.61-11.594c6.418,0,11.594,5.181,11.594,11.594c0-6.413,5.187-11.594,11.594-11.594
	c6.413,0,11.617,5.181,11.617,11.594c0-6.413,5.184-11.594,11.594-11.594C297.216,109.714,302.397,114.895,302.397,121.308z"/>
<rect x="228.173" y="150.49" style="fill:#34495E;" width="55.634" height="22.249"/>
<g>
</g>
<g>
</g>
<g>
</g>
<g>
</g>
<g>
</g>
<g>
</g>
<g>
</g>
<g>
</g>
<g>
</g>
<g>
</g>
<g>
</g>
<g>
</g>
<g>
</g>
<g>
</g>
<g>
</g>
</svg>
