<?xml version="1.0" encoding="iso-8859-1"?>
<!-- Generator: Adobe Illustrator 19.0.0, SVG Export Plug-In . SVG Version: 6.00 Build 0)  -->
<svg version="1.1" id="Layer_1" xmlns="http://www.w3.org/2000/svg" xmlns:xlink="http://www.w3.org/1999/xlink" x="0px" y="0px"
	 viewBox="0 0 512 512" style="enable-background:new 0 0 512 512;" xml:space="preserve">
<circle style="fill:#E9EFF4;" cx="256" cy="256" r="256"/>
<path style="fill:#CFDBE6;" d="M157.917,343.65l161.035,160.54c87.568-22.144,157.153-89.407,182.594-175.611L274.103,103.434
	l-29.996,10.343l-26.893,10.343l19.394,19.394l-9.718,71.778L157.917,343.65z"/>
<circle style="fill:#31BAFD;" cx="245.657" cy="256" r="113.778"/>
<path style="fill:#2B9ED8;" d="M245.658,142.222c-0.386,0-0.765,0.026-1.15,0.029v227.497c0.384,0.003,0.764,0.029,1.15,0.029
	c62.838,0,113.778-50.94,113.778-113.778S308.496,142.222,245.658,142.222z"/>
<path style="fill:#825956;" d="M256.002,132.343v-8.221h18.101v-20.687h-56.889v20.687h18.101v8.221
	C171.699,137.621,121.537,191.045,121.537,256c0,68.441,55.68,124.121,124.121,124.121S369.78,324.441,369.78,256
	C369.78,191.045,319.617,137.621,256.002,132.343z M245.658,359.434c-57.034,0-103.434-46.401-103.434-103.434
	s46.401-103.434,103.434-103.434S349.093,198.966,349.093,256S302.692,359.434,245.658,359.434z"/>
<path style="fill:#734B46;" d="M256.002,132.343v-8.221h18.101v-20.687h-29.594v49.161c0.384-0.003,0.765-0.029,1.15-0.029
	c57.034,0,103.434,46.401,103.434,103.434s-46.401,103.434-103.434,103.434c-0.386,0-0.765-0.024-1.15-0.029v20.687
	c0.384,0.003,0.765,0.029,1.15,0.029c68.441,0,124.121-55.68,124.121-124.121C369.78,191.045,319.617,137.621,256.002,132.343z"/>
<path style="fill:#F9B54C;" d="M420.633,342.712v-32.065H402.58c-1.514-5.884-3.855-11.431-6.868-16.534l12.779-12.779
	l-22.673-22.673l-12.779,12.779c-5.103-3.015-10.652-5.354-16.534-6.868v-18.054h-32.065v18.053
	c-5.884,1.514-11.431,3.855-16.534,6.868l-12.779-12.779l-22.673,22.673l12.779,12.779c-3.015,5.103-5.354,10.652-6.868,16.534
	H260.31v32.065h18.053c1.514,5.884,3.855,11.431,6.868,16.534l-12.779,12.779l22.673,22.673l12.779-12.779
	c5.103,3.015,10.652,5.354,16.534,6.868v18.056h32.065v-18.053c5.884-1.514,11.431-3.855,16.534-6.868l12.779,12.779l22.673-22.673
	l-12.779-12.779c3.015-5.103,5.354-10.652,6.868-16.534h18.056V342.712z M340.471,358.745c-17.71,0-32.065-14.355-32.065-32.065
	c0-17.71,14.355-32.065,32.065-32.065c17.71,0,32.065,14.355,32.065,32.065C372.536,344.39,358.181,358.745,340.471,358.745z"/>
<path style="fill:#F4A200;" d="M420.633,342.712v-32.065H402.58c-1.514-5.884-3.855-11.431-6.868-16.534l12.779-12.779
	l-22.673-22.673l-12.779,12.779c-5.103-3.015-10.652-5.354-16.534-6.868v-18.054h-16.606v48.126
	c0.193-0.003,0.381-0.029,0.574-0.029c17.71,0,32.065,14.357,32.065,32.065c0,17.708-14.355,32.065-32.065,32.065
	c-0.195,0-0.381-0.026-0.574-0.029v48.126h16.606v-18.053c5.884-1.514,11.431-3.855,16.534-6.868l12.779,12.779l22.673-22.673
	l-12.779-12.779c3.015-5.103,5.354-10.65,6.868-16.534h18.053V342.712z"/>
<path style="fill:#D35933;" d="M245.658,262.034h-28.444c-3.332,0-6.034-2.701-6.034-6.034s2.701-6.034,6.034-6.034h22.411v-50.855
	c0-3.332,2.701-6.034,6.034-6.034s6.034,2.701,6.034,6.034V256C251.692,259.332,248.991,262.034,245.658,262.034z"/>
<path style="fill:#E9EFF4;" d="M245.658,262.034h-28.444c-3.332,0-6.034-2.701-6.034-6.034s2.701-6.034,6.034-6.034h22.411v-50.855
	c0-3.332,2.701-6.034,6.034-6.034s6.034,2.701,6.034,6.034V256C251.692,259.332,248.991,262.034,245.658,262.034z"/>
<path style="fill:#CFDBE6;" d="M245.658,193.077c-0.395,0-0.777,0.043-1.15,0.116v68.841h1.15c3.332,0,6.034-2.701,6.034-6.034
	v-56.889C251.692,195.779,248.991,193.077,245.658,193.077z"/>
<g>
</g>
<g>
</g>
<g>
</g>
<g>
</g>
<g>
</g>
<g>
</g>
<g>
</g>
<g>
</g>
<g>
</g>
<g>
</g>
<g>
</g>
<g>
</g>
<g>
</g>
<g>
</g>
<g>
</g>
</svg>
