<?xml version="1.0" encoding="utf-8"?>
<!-- Generator: Adobe Illustrator 16.0.0, SVG Export Plug-In . SVG Version: 6.00 Build 0)  -->
<!DOCTYPE svg PUBLIC "-//W3C//DTD SVG 1.1//EN" "http://www.w3.org/Graphics/SVG/1.1/DTD/svg11.dtd">
<svg version="1.1" id="Capa_1" xmlns="http://www.w3.org/2000/svg" xmlns:xlink="http://www.w3.org/1999/xlink" x="0px" y="0px"
	 width="512px" height="512px" viewBox="0 0 512 512" enable-background="new 0 0 512 512" xml:space="preserve">
<g>
	<path fill="none" stroke="#2980B9" stroke-width="9" stroke-miterlimit="10" d="M464.132,186.896"/>
	<path fill="none" stroke="#2980B9" stroke-width="9" stroke-miterlimit="10" d="M426.463,92.993
		c-22.354-24.103-48.849-43.083-78.748-56.417c-30.958-13.803-63.976-20.803-98.138-20.803c-64.426,0-124.996,25.088-170.551,70.645
		C33.47,131.975,8.381,192.544,8.381,256.97c0,64.426,25.089,124.996,70.645,170.55c45.556,45.558,106.125,70.646,170.551,70.646
		c64.427,0,124.997-25.088,170.551-70.646c45.557-45.554,70.646-106.124,70.646-170.55c0-25.592-3.991-50.792-11.858-74.898"/>
	<path fill="none" stroke="#2980B9" stroke-width="9" stroke-miterlimit="10" d="M415.06,103.569"/>
	<path fill="#2980B9" stroke="#2980B9" stroke-width="9" stroke-miterlimit="10" d="M475.223,256.971"/>
	<path fill="#2980B9" stroke="#2980B9" stroke-width="9" stroke-miterlimit="10" d="M220.062,357.174"/>
	<path fill="#2980B9" stroke="#2980B9" stroke-width="9" stroke-miterlimit="10" d="M115.363,263.473"/>
	<path fill="#2980B9" stroke="#2980B9" stroke-width="9" stroke-miterlimit="10" d="M104.357,263.469"/>
	<path fill="none" stroke="#2980B9" stroke-width="9" stroke-miterlimit="10" d="M437.32,117.926L214.564,340.68l-88.201-88.201
		c-4.406-4.411-10.266-6.84-16.503-6.84s-12.099,2.429-16.501,6.837c-4.408,4.409-6.836,10.268-6.836,16.5
		c0,6.231,2.428,12.091,6.836,16.501l104.702,104.702c4.404,4.41,10.267,6.84,16.503,6.84c6.236,0,12.098-2.43,16.5-6.836
		l268.099-268.1c4.409-4.409,6.837-10.269,6.837-16.501c0-6.232-2.428-12.092-6.834-16.497c-4.404-4.41-10.266-6.839-16.503-6.839
		c-6.236,0-12.099,2.429-16.501,6.836l-6.961,6.96"/>
</g>
</svg>
