<?xml version="1.0" encoding="utf-8"?>
<!-- Generator: Adobe Illustrator 16.0.0, SVG Export Plug-In . SVG Version: 6.00 Build 0)  -->
<!DOCTYPE svg PUBLIC "-//W3C//DTD SVG 1.1//EN" "http://www.w3.org/Graphics/SVG/1.1/DTD/svg11.dtd">
<svg version="1.1" id="Capa_1" xmlns="http://www.w3.org/2000/svg" xmlns:xlink="http://www.w3.org/1999/xlink" x="0px" y="0px"
	 width="600px" height="600px" viewBox="0 0 600 600" enable-background="new 0 0 600 600" xml:space="preserve">
<path fill="#2980B9" stroke="#2980B9" stroke-width="3" stroke-miterlimit="10" d="M455.192,188.88h-84.066V173.18
	c4.917-1.68,8.917-5.659,10.466-10.798c1.262-4.193,0.816-8.626-1.255-12.484c-2.073-3.858-5.524-6.679-9.717-7.941
	c-19.314-5.815-42.179-8.888-66.12-8.888s-46.806,3.073-66.12,8.888c-4.193,1.262-7.644,4.083-9.716,7.941
	c-2.072,3.858-2.518,8.292-1.255,12.487c1.267,4.201,4.093,7.655,7.959,9.728c0.812,0.435,1.65,0.792,2.506,1.082v15.687h-84.067
	c-15.195,0-27.557,12.362-27.557,27.557v97.119c0,8.827,4.235,16.957,11.163,22.122v92.845c0,15.195,12.362,27.558,27.557,27.558
	H444.03c15.194,0,27.558-12.362,27.558-27.558v-92.845c6.928-5.165,11.162-13.295,11.162-22.122v-97.119
	C482.75,201.243,470.388,188.88,455.192,188.88z M237.884,154.849c0.749-1.396,1.997-2.416,3.513-2.872
	c18.349-5.524,40.169-8.445,63.103-8.445c22.935,0,44.755,2.92,63.104,8.445c1.518,0.456,2.764,1.476,3.515,2.872
	c0.749,1.395,0.91,3,0.454,4.515c-0.75,2.487-3.082,4.225-5.673,4.225c-0.579,0-1.154-0.085-1.715-0.255
	c-17.249-5.194-37.887-7.941-59.685-7.941c-21.797,0-42.436,2.747-59.691,7.942c-1.51,0.457-3.106,0.298-4.497-0.448
	c-1.4-0.75-2.424-2.002-2.883-3.522C236.972,157.849,237.133,156.244,237.884,154.849z M248.339,173.208
	c16.183-4.807,35.584-7.349,56.161-7.349c20.578,0,39.981,2.543,56.16,7.349v15.673H248.339V173.208z M444.03,445.615H164.97
	c-9.424,0-17.092-7.668-17.092-17.092v-87.546c42.979,17.697,88.226,27.907,134.646,30.382v1.352
	c0,12.117,9.858,21.976,21.976,21.976c12.118,0,21.977-9.858,21.977-21.976v-1.353c46.421-2.475,91.667-12.684,134.646-30.381
	v87.546C461.123,437.947,453.455,445.615,444.03,445.615z M360.66,357.543c-11.313,1.595-22.721,2.708-34.201,3.335
	c-0.356-11.809-10.066-21.305-21.959-21.305c-11.892,0-21.602,9.496-21.959,21.305c-11.48-0.627-22.886-1.74-34.201-3.335v-46.226
	c0-6.346,5.164-11.51,11.511-11.51h89.3c6.346,0,11.51,5.164,11.51,11.51V357.543z M316.012,361.549v11.162
	c0,6.348-5.164,11.512-11.512,11.512c-6.347,0-11.512-5.164-11.512-11.512v-11.162c0-6.348,5.165-11.512,11.512-11.512
	C310.848,350.037,316.012,355.201,316.012,361.549z M472.285,313.557c0,6.881-4.162,13.1-10.603,15.844
	c-29.206,12.442-59.514,21.31-90.557,26.528v-44.611c0-12.117-9.858-21.976-21.976-21.976h-89.3
	c-12.118,0-21.976,9.858-21.976,21.976v44.611c-31.044-5.218-61.351-14.086-90.557-26.528c-6.442-2.744-10.604-8.963-10.604-15.844
	v-97.119c0-9.425,7.668-17.092,17.093-17.092h301.385c9.425,0,17.093,7.667,17.093,17.092V313.557z"/>
<circle fill="none" stroke="#2980B9" stroke-width="14" stroke-miterlimit="10" cx="306.5" cy="303.5" r="286"/>
</svg>
