<?xml version="1.0" encoding="utf-8"?>
<!-- Generator: Adobe Illustrator 16.0.0, SVG Export Plug-In . SVG Version: 6.00 Build 0)  -->
<!DOCTYPE svg PUBLIC "-//W3C//DTD SVG 1.1//EN" "http://www.w3.org/Graphics/SVG/1.1/DTD/svg11.dtd">
<svg version="1.1" id="Capa_1" xmlns="http://www.w3.org/2000/svg" xmlns:xlink="http://www.w3.org/1999/xlink" x="0px" y="0px"
	 width="600px" height="600px" viewBox="0 0 600 600" enable-background="new 0 0 600 600" xml:space="preserve">
<circle fill="none" stroke="#2980B9" stroke-width="9" stroke-miterlimit="10" cx="300" cy="300" r="286"/>
<g>
	<path fill="none" stroke="#2980B9" stroke-width="9" stroke-miterlimit="10" d="M300,514c-53.294,0-104.51-16.415-148.154-47.477
		c-2.327-1.66-3.568-4.499-3.196-7.339c0.372-2.839,2.296-5.259,4.996-6.252c64.326-23.816,74.706-43.147,74.706-80.198
		c0-9.79-2.203-13.002-6.175-18.835c-5.259-7.665-12.458-18.169-17.517-45.599c-0.745-3.941-1.381-4.252-4.902-5.959
		c-9.402-4.529-18.044-11.047-20.31-40.773c0-14.398,4.965-22.357,9.076-26.5c-0.899-5.119-2.374-13.947-3.754-23.567
		c-7.028-43.085-7.339-95.853,53.264-120.382c52.813-21.411,94.968-9.712,108.203,4.235c9.371,0.295,33.544,2.747,50.362,22.311
		c25.879,30.099,17.641,98.723,14.816,117.326c4.127,4.05,9.139,11.899,9.139,25.987c-2.266,30.316-10.907,36.849-20.324,41.363
		c-3.538,1.707-4.174,2.002-4.903,5.959c-5.058,27.43-12.241,37.934-17.501,45.599c-3.988,5.818-6.176,9.045-6.176,18.835
		c0,37.051,10.381,56.382,74.706,80.198c2.699,0.993,4.623,3.397,4.996,6.252c0.372,2.855-0.869,5.679-3.196,7.339
		C404.51,497.585,353.295,514,300,514z"/>
</g>
</svg>
