<?xml version="1.0" encoding="utf-8"?>
<!-- Generator: Adobe Illustrator 16.0.0, SVG Export Plug-In . SVG Version: 6.00 Build 0)  -->
<!DOCTYPE svg PUBLIC "-//W3C//DTD SVG 1.1//EN" "http://www.w3.org/Graphics/SVG/1.1/DTD/svg11.dtd">
<svg version="1.1" id="Capa_1" xmlns="http://www.w3.org/2000/svg" xmlns:xlink="http://www.w3.org/1999/xlink" x="0px" y="0px"
	 width="600px" height="600px" viewBox="0 0 600 600" enable-background="new 0 0 600 600" xml:space="preserve">
<circle fill="none" stroke="#FFFFFF" stroke-width="9" stroke-miterlimit="10" cx="300" cy="300" r="286"/>
<g>
	<path fill="#FFFFFF" d="M260.944,140.633l-71.669,71.664v245.839l24.567-12.283l19.655,9.827l19.654-9.827l19.654,9.827
		l19.654-9.827l19.655,9.827l19.651-9.827l19.657,9.827l19.652-9.827l24.567,12.28v-317.5H260.944z M258.065,157.407v52.015h-52.02
		L258.065,157.407z M385.817,442.231l-14.741-7.365l-19.652,9.827l-19.657-9.827l-19.651,9.827l-19.655-9.827l-19.654,9.827
		l-19.654-9.827l-19.654,9.827l-19.655-9.827l-14.74,7.371V219.25h68.789v-68.79h117.926V442.231z"/>
	<path fill="#FFFFFF" d="M238.41,238.904v9.827h34.331c0.119,0,11.489,0.197,22.786,4.785c6.204,2.521,10.996,5.877,14.527,9.955
		H238.41v9.828h77.198c0.937,3.021,1.419,6.294,1.419,9.826c0,10.241-3.109,18.328-9.243,24.038
		c-12.682,11.802-34.403,10.382-34.979,10.356H238.41v11.989l65.784,60.122l6.632-7.257l-60.22-55.031l21.832-0.011
		c1.081,0.068,26.135,1.784,42-12.936c8.236-7.642,12.417-18.166,12.417-31.271c0-3.557-0.458-6.785-1.155-9.826h20.811v-9.828
		h-24.53c-3.479-6.274-8.529-11.114-14.308-14.74h38.841v-9.827h-73.702H238.41z"/>
</g>
</svg>
