<?xml version="1.0" encoding="iso-8859-1"?>
<!-- Generator: Adobe Illustrator 19.0.0, SVG Export Plug-In . SVG Version: 6.00 Build 0)  -->
<svg version="1.1" id="Layer_1" xmlns="http://www.w3.org/2000/svg" xmlns:xlink="http://www.w3.org/1999/xlink" x="0px" y="0px"
	 viewBox="0 0 473.931 473.931" style="enable-background:new 0 0 473.931 473.931;" xml:space="preserve">
<circle style="fill:#F2BE3E;" cx="236.966" cy="236.966" r="236.966"/>
<g>
	<rect x="87.565" y="209.875" style="fill:#3F3F3E;" width="306.682" height="80.197"/>
	<path style="fill:#82725A;" d="M87.617,214.324c0,0,87.31,34.331,152.656,34.331c71.415,0,153.925-34.652,153.925-34.652v-42.218
		c0-21.418-21.096-20.467-21.096-20.467h-265.44c-20.778,0-20.041,20.467-20.041,20.467v42.54H87.617z M261.16,238.627
		l-41.249-0.322c0,0,0.314-4.572,0.314-10.23c0-5.65,4.587-10.237,10.234-10.237h20.471c5.654,0,10.23,4.587,10.23,10.237
		C261.16,233.737,261.16,238.627,261.16,238.627z M394.194,324.867v-99.026c0,0-66.409,33.152-154.359,33.152
		c-80.901,0-152.222-34.121-152.222-34.121v99.995c0,20.789,19.719,20.471,19.719,20.471h266.084
		C395.47,345.338,394.194,324.867,394.194,324.867z M260.842,279.569c0,5.635-4.576,9.901-10.23,9.901h-20.471
		c-5.65,0-10.23-4.266-10.23-9.901c0-5.669,0-10.563,0-10.563l41.249-0.322C261.16,268.685,260.842,273.904,260.842,279.569z"/>
	<path style="fill:#5B4F3F;" d="M87.617,214.324c0,0,87.31,34.331,152.656,34.331c71.415,0,153.925-34.652,153.925-34.652v-42.218
		c0-21.418-21.096-20.467-21.096-20.467h-265.44c-20.778,0-20.041,20.467-20.041,20.467v42.54H87.617z M261.16,238.627
		l-41.249-0.322c0,0,0.314-4.572,0.314-10.23c0-5.65,4.587-10.237,10.234-10.237h20.471c5.654,0,10.23,4.587,10.23,10.237
		C261.16,233.737,261.16,238.627,261.16,238.627z"/>
	<path style="fill:#3F3F3E;" d="M291.543,151.317v-20.782c0-21.107-19.824-20.149-19.824-20.149h-62.046
		c-19.51,0-20.146,20.467-20.146,20.467v20.46h102.015V151.317z M209.673,140.447c0-9.272,10.234-9.912,10.234-9.912h41.249
		c10.877,0,10.237,11.184,10.237,11.184l-0.318,9.594h-61.402V140.447z"/>
</g>
<g>
</g>
<g>
</g>
<g>
</g>
<g>
</g>
<g>
</g>
<g>
</g>
<g>
</g>
<g>
</g>
<g>
</g>
<g>
</g>
<g>
</g>
<g>
</g>
<g>
</g>
<g>
</g>
<g>
</g>
</svg>
