<?xml version="1.0" encoding="utf-8"?>
<!-- Generator: Adobe Illustrator 16.0.0, SVG Export Plug-In . SVG Version: 6.00 Build 0)  -->
<!DOCTYPE svg PUBLIC "-//W3C//DTD SVG 1.1//EN" "http://www.w3.org/Graphics/SVG/1.1/DTD/svg11.dtd">
<svg version="1.1" id="Layer_1" xmlns="http://www.w3.org/2000/svg" xmlns:xlink="http://www.w3.org/1999/xlink" x="0px" y="0px"
	 width="1366px" height="786px" viewBox="0 0 1366 786" enable-background="new 0 0 1366 786" xml:space="preserve">
<path fill="#BDFFDE" d="M518.939,761.019v-47.745c0-90.609,73.454-164.061,164.061-164.061l0,0
	c90.609,0,164.061,73.454,164.061,164.061v49.608"/>
<path fill="#2ECA86" d="M847.061,786c-12.765,0-23.118-10.352-23.118-23.118v-49.608c0-77.717-63.227-140.945-140.944-140.945
	c-77.717,0-140.943,63.229-140.943,140.945v47.745c0,12.765-10.351,23.118-23.118,23.118c-12.769,0-23.118-10.352-23.118-23.118
	v-47.745c0-103.212,83.969-187.182,187.179-187.182s187.179,83.969,187.179,187.182v49.608C870.179,775.648,859.827,786,847.061,786
	z"/>
<circle fill="#BDFFDE" cx="683" cy="423.978" r="123.887"/>
<g>
	<path fill="#2ECA86" d="M683,570.979c-81.058,0-147.004-65.946-147.004-147.005c0-81.06,65.946-147.001,147.004-147.001
		s147.005,65.943,147.005,147.004S764.058,570.979,683,570.979z M683,323.207c-55.563,0-100.768,45.204-100.768,100.768
		S627.437,524.744,683,524.744s100.77-45.207,100.77-100.77C783.77,368.413,738.563,323.207,683,323.207z"/>
	<path fill="#2ECA86" d="M847.061,786H437.951c-58,0-105.187-47.187-105.187-105.186V105.186C332.765,47.186,379.951,0,437.951,0
		h490.098c58,0,105.187,47.186,105.187,105.186v552.508c0,12.766-10.352,23.118-23.118,23.118s-23.118-10.352-23.118-23.118V105.186
		c0-32.505-26.444-58.95-58.95-58.95H437.951c-32.506,0-58.951,26.445-58.951,58.95v575.629c0,32.506,26.445,58.95,58.951,58.95
		h409.109c12.765,0,23.118,10.352,23.118,23.118S859.827,786,847.061,786z"/>
	<path fill="#2ECA86" d="M485.343,224.242h-129.46c-12.768,0-23.118-10.352-23.118-23.118v-95.938
		C332.765,47.186,379.951,0,437.951,0h95.938c12.768,0,23.118,10.352,23.118,23.118v129.458
		C557.007,192.094,524.857,224.242,485.343,224.242z M379,178.006h106.342c14.021,0,25.43-11.409,25.43-25.43V46.236h-72.821
		c-32.506,0-58.951,26.445-58.951,58.95V178.006z"/>
	<path fill="#2ECA86" d="M746.574,208.062H619.426c-12.768,0-23.117-10.352-23.117-23.118s10.35-23.118,23.117-23.118h127.148
		c12.765,0,23.117,10.352,23.117,23.118S759.339,208.062,746.574,208.062z"/>
</g>
</svg>
