<?xml version="1.0" encoding="iso-8859-1"?>
<!-- Generator: Adobe Illustrator 19.0.0, SVG Export Plug-In . SVG Version: 6.00 Build 0)  -->
<svg version="1.1" id="Layer_1" xmlns="http://www.w3.org/2000/svg" xmlns:xlink="http://www.w3.org/1999/xlink" x="0px" y="0px"
	 viewBox="0 0 512 512" style="enable-background:new 0 0 512 512;" xml:space="preserve">
<path style="fill:#FEE187;" d="M149.131,495.727v-31.101c0-59.023,47.848-106.869,106.869-106.869l0,0
	c59.023,0,106.869,47.848,106.869,106.869v32.315"/>
<path style="fill:#FFC61B;" d="M362.869,512c-8.315,0-15.059-6.743-15.059-15.059v-32.315c0-50.625-41.186-91.812-91.811-91.812
	s-91.811,41.187-91.811,91.812v31.101c0,8.315-6.742,15.059-15.059,15.059c-8.317,0-15.059-6.743-15.059-15.059v-31.101
	c0-67.232,54.697-121.93,121.928-121.93s121.928,54.697,121.928,121.93v32.315C377.928,505.257,371.185,512,362.869,512z"/>
<circle style="fill:#FEE187;" cx="256" cy="276.179" r="80.7"/>
<g>
	<path style="fill:#FFC61B;" d="M256,371.935c-52.801,0-95.758-42.957-95.758-95.759S203.199,180.42,256,180.42
		s95.759,42.955,95.759,95.758S308.801,371.935,256,371.935z M256,210.537c-36.194,0-65.64,29.446-65.64,65.64
		s29.446,65.641,65.64,65.641s65.641-29.448,65.641-65.641S292.194,210.537,256,210.537z"/>
	<path style="fill:#FFC61B;" d="M362.869,512H96.375c-37.781,0-68.518-30.737-68.518-68.518V68.518C27.857,30.737,58.594,0,96.375,0
		h319.25c37.781,0,68.518,30.737,68.518,68.518v359.904c0,8.315-6.743,15.059-15.059,15.059s-15.059-6.743-15.059-15.059V68.518
		c0-21.174-17.226-38.4-38.4-38.4H96.375c-21.174,0-38.4,17.226-38.4,38.4v374.965c0,21.174,17.226,38.4,38.4,38.4h266.494
		c8.315,0,15.059,6.743,15.059,15.059S371.185,512,362.869,512z"/>
	<path style="fill:#FFC61B;" d="M127.246,146.071H42.916c-8.317,0-15.059-6.743-15.059-15.059V68.518
		C27.857,30.737,58.594,0,96.375,0h62.494c8.317,0,15.059,6.743,15.059,15.059v84.329
		C173.928,125.13,152.986,146.071,127.246,146.071z M57.975,115.953h69.271c9.133,0,16.565-7.432,16.565-16.565V30.118H96.375
		c-21.174,0-38.4,17.226-38.4,38.4V115.953z"/>
	<path style="fill:#FFC61B;" d="M297.412,135.531h-82.824c-8.317,0-15.059-6.743-15.059-15.059s6.742-15.059,15.059-15.059h82.824
		c8.315,0,15.059,6.743,15.059,15.059S305.727,135.531,297.412,135.531z"/>
</g>
<g>
</g>
<g>
</g>
<g>
</g>
<g>
</g>
<g>
</g>
<g>
</g>
<g>
</g>
<g>
</g>
<g>
</g>
<g>
</g>
<g>
</g>
<g>
</g>
<g>
</g>
<g>
</g>
<g>
</g>
</svg>
