<?xml version="1.0" encoding="iso-8859-1"?>
<!-- Generator: Adobe Illustrator 19.0.0, SVG Export Plug-In . SVG Version: 6.00 Build 0)  -->
<svg version="1.1" id="Layer_1" xmlns="http://www.w3.org/2000/svg" xmlns:xlink="http://www.w3.org/1999/xlink" x="0px" y="0px"
	 viewBox="0 0 511.998 511.998" style="enable-background:new 0 0 511.998 511.998;" xml:space="preserve">
<path style="fill:#E6EAEA;" d="M274.546,311.425L232.255,44.912c-0.684-4.312-4.735-7.255-9.046-6.569L6.666,72.703
	c-2.071,0.328-3.927,1.466-5.158,3.162c-1.232,1.697-1.739,3.814-1.41,5.884l42.291,266.514c0.329,2.071,1.466,3.927,3.162,5.159
	c1.359,0.987,2.986,1.508,4.645,1.508c0.412,0,0.826-0.033,1.239-0.098l216.544-34.361c2.07-0.328,3.927-1.466,5.159-3.162
	C274.367,315.612,274.875,313.496,274.546,311.425z"/>
<g>
	<path style="fill:#F0353D;" d="M68.439,147.117c-3.82,0-7.18-2.775-7.798-6.668c-0.684-4.312,2.257-8.363,6.569-9.047l116.6-18.503
		c4.312-0.689,8.363,2.257,9.047,6.569c0.685,4.312-2.257,8.363-6.569,9.047L69.687,147.018
		C69.268,147.086,68.85,147.117,68.439,147.117z"/>
	<path style="fill:#F0353D;" d="M79.012,213.747c-3.82,0-7.18-2.775-7.798-6.668c-0.684-4.312,2.257-8.363,6.569-9.046l116.6-18.503
		c4.308-0.688,8.362,2.257,9.047,6.569c0.684,4.312-2.257,8.363-6.569,9.046l-116.6,18.503
		C79.841,213.714,79.424,213.747,79.012,213.747z"/>
	<path style="fill:#F0353D;" d="M89.584,280.375c-3.82,0-7.18-2.775-7.798-6.668c-0.684-4.312,2.257-8.363,6.569-9.046l116.6-18.503
		c4.31-0.686,8.362,2.257,9.046,6.569c0.684,4.312-2.257,8.363-6.569,9.046L90.833,280.276
		C90.414,280.342,89.996,280.375,89.584,280.375z"/>
</g>
<path style="fill:#CDD4D5;" d="M508.736,132.551L331.321,3.729c-1.696-1.232-3.813-1.738-5.884-1.41
	c-2.07,0.328-3.927,1.466-5.158,3.162L161.73,223.84c-1.232,1.697-1.739,3.814-1.41,5.884c0.329,2.071,1.466,3.927,3.163,5.159
	l177.417,128.821c1.403,1.018,3.027,1.509,4.638,1.509c2.444,0,4.856-1.131,6.404-3.261l158.548-218.358
	C513.055,140.059,512.27,135.115,508.736,132.551z"/>
<g>
	<path style="fill:#F0353D;" d="M423.506,171.716c-1.611,0-3.235-0.49-4.638-1.509l-95.531-69.366
		c-3.534-2.566-4.319-7.509-1.753-11.043c2.567-3.533,7.509-4.317,11.043-1.752l95.532,69.366c3.534,2.566,4.319,7.509,1.753,11.043
		C428.363,170.584,425.951,171.716,423.506,171.716z"/>
	<path style="fill:#F0353D;" d="M383.869,226.305c-1.611,0-3.235-0.49-4.638-1.509L283.7,155.43
		c-3.534-2.566-4.319-7.509-1.753-11.043c2.567-3.533,7.509-4.317,11.043-1.752l95.532,69.366c3.533,2.566,4.319,7.509,1.753,11.043
		C388.726,225.173,386.314,226.305,383.869,226.305z"/>
	<path style="fill:#F0353D;" d="M344.231,280.895c-1.611,0-3.235-0.49-4.638-1.509l-95.532-69.366
		c-3.533-2.566-4.318-7.509-1.752-11.043c2.565-3.533,7.508-4.318,11.043-1.752l95.53,69.366c3.534,2.566,4.319,7.509,1.753,11.043
		C349.089,279.762,346.677,280.895,344.231,280.895z"/>
</g>
<path style="fill:#E6EAEA;" d="M328.349,154.01H109.098c-4.366,0-7.906,3.54-7.906,7.906v269.848c0,4.366,3.54,7.906,7.906,7.906
	h219.252c4.367,0,7.906-3.54,7.906-7.906V161.916C336.255,157.55,332.716,154.01,328.349,154.01z"/>
<path style="fill:#CDD4D5;" d="M109.098,154.01c-4.366,0-7.906,3.54-7.906,7.906v269.848c0,4.366,3.54,7.906,7.906,7.906h109.626
	V154.01H109.098z"/>
<g>
	<path style="fill:#F0353D;" d="M277.753,237.283H159.694c-4.366,0-7.906-3.54-7.906-7.906s3.54-7.906,7.906-7.906h118.059
		c4.367,0,7.906,3.54,7.906,7.906S282.12,237.283,277.753,237.283z"/>
	<path style="fill:#F0353D;" d="M277.753,304.746H159.694c-4.366,0-7.906-3.54-7.906-7.906s3.54-7.906,7.906-7.906h118.059
		c4.367,0,7.906,3.54,7.906,7.906S282.12,304.746,277.753,304.746z"/>
	<path style="fill:#F0353D;" d="M277.753,372.208H159.694c-4.366,0-7.906-3.54-7.906-7.906s3.54-7.906,7.906-7.906h118.059
		c4.367,0,7.906,3.54,7.906,7.906S282.12,372.208,277.753,372.208z"/>
</g>
<path style="fill:#365558;" d="M378.946,422.804c-2.023,0-4.047-0.772-5.591-2.316l-33.731-33.731c-3.087-3.087-3.087-8.093,0-11.18
	c3.089-3.087,8.093-3.087,11.181,0l33.731,33.731c3.087,3.087,3.087,8.093,0,11.18C382.992,422.032,380.969,422.804,378.946,422.804
	z"/>
<g>
	<path style="fill:#4ACFD9;" d="M286.185,221.472c-55.508,0-100.666,45.158-100.666,100.666s45.158,100.666,100.666,100.666
		s100.666-45.158,100.666-100.666S341.693,221.472,286.185,221.472z"/>
	<path style="fill:#4ACFD9;" d="M215.037,250.99c-18.228,18.228-29.518,43.395-29.518,71.148
		c0,55.508,45.158,100.666,100.666,100.666c27.753,0,52.92-11.289,71.148-29.518L215.037,250.99z"/>
</g>
<path style="fill:#E6EAEA;" d="M286.185,255.203c-36.908,0-66.935,30.027-66.935,66.935s30.027,66.935,66.935,66.935
	s66.935-30.027,66.935-66.935S323.094,255.203,286.185,255.203z"/>
<path style="fill:#FF8C29;" d="M471.51,472.43l-71.555-71.554c-1.483-1.483-3.493-2.316-5.591-2.316
	c-2.097,0-4.107,0.833-5.591,2.316l-23.851,23.851c-3.087,3.087-3.087,8.093,0,11.181l71.554,71.554
	c1.544,1.544,3.567,2.316,5.591,2.316c2.023,0,4.047-0.773,5.591-2.316l23.852-23.852c1.482-1.482,2.315-3.493,2.315-5.59
	C473.825,475.923,472.992,473.913,471.51,472.43z"/>
<path style="fill:#FFFFFF;" d="M442.191,473.401c-2.023,0-4.047-0.772-5.591-2.316l-37.947-37.947c-3.087-3.087-3.087-8.093,0-11.18
	c3.089-3.087,8.093-3.087,11.181,0l37.947,37.947c3.087,3.087,3.087,8.093,0,11.18C446.238,472.629,444.214,473.401,442.191,473.401
	z"/>
<g>
	<path style="fill:#365558;" d="M281.969,355.342c-2.023,0-4.047-0.772-5.591-2.316c-3.087-3.087-3.087-8.093,0-11.18l21.082-21.082
		c3.088-3.087,8.093-3.087,11.181,0s3.087,8.093,0,11.18l-21.082,21.082C286.016,354.57,283.992,355.342,281.969,355.342z"/>
	<path style="fill:#365558;" d="M271.428,323.719c-2.023,0-4.047-0.772-5.591-2.316c-3.087-3.087-3.087-8.093,0-11.18l23.19-23.19
		c3.089-3.087,8.093-3.087,11.181,0c3.087,3.087,3.087,8.093,0,11.18l-23.19,23.19C275.475,322.948,273.451,323.719,271.428,323.719
		z"/>
</g>
<g>
</g>
<g>
</g>
<g>
</g>
<g>
</g>
<g>
</g>
<g>
</g>
<g>
</g>
<g>
</g>
<g>
</g>
<g>
</g>
<g>
</g>
<g>
</g>
<g>
</g>
<g>
</g>
<g>
</g>
</svg>
