<?xml version="1.0" encoding="iso-8859-1"?>
<!-- Generator: Adobe Illustrator 19.0.0, SVG Export Plug-In . SVG Version: 6.00 Build 0)  -->
<svg version="1.1" id="Layer_1" xmlns="http://www.w3.org/2000/svg" xmlns:xlink="http://www.w3.org/1999/xlink" x="0px" y="0px"
	 viewBox="0 0 512.037 512.037" style="enable-background:new 0 0 512.037 512.037;" xml:space="preserve">
<g transform="translate(0 -1)">
	<path style="fill:#A3AAAF;" d="M105.95,513.037c-5.297,0-8.828-3.531-8.828-8.828V389.451c0-5.297,3.531-8.828,8.828-8.828
		s8.828,3.531,8.828,8.828v114.759C114.777,509.506,111.246,513.037,105.95,513.037"/>
	<path style="fill:#F4BA48;" d="M379.605,204.072H128.019c-22.069,0-39.724-17.655-39.724-39.724v-48.552
		c0-9.71,7.945-18.538,17.655-17.655l273.655,17.655c24.717,0,44.138,19.421,44.138,44.138S404.322,204.072,379.605,204.072
		 M476.708,27.52L35.329,1.037C15.908,0.154,0.019,15.161,0.019,34.582v72.386c0,11.476,0.883,23.834,2.648,35.31l30.014,224.221
		c1.766,13.241,13.241,22.952,26.483,22.952h452.855V106.968V62.83C512.018,43.409,496.129,28.403,476.708,27.52"/>
	<g>
		<path style="fill:#565656;" d="M476.708,283.52h-88.276c-5.297,0-8.828-3.531-8.828-8.828s3.531-8.828,8.828-8.828h88.276
			c5.297,0,8.828,3.531,8.828,8.828S482.005,283.52,476.708,283.52"/>
		<path style="fill:#565656;" d="M476.708,318.83h-70.621c-5.297,0-8.828-3.531-8.828-8.828c0-5.297,3.531-8.828,8.828-8.828h70.621
			c5.297,0,8.828,3.531,8.828,8.828C485.536,315.299,482.005,318.83,476.708,318.83"/>
		<path style="fill:#565656;" d="M476.708,354.14h-52.966c-5.297,0-8.828-3.531-8.828-8.828s3.531-8.828,8.828-8.828h52.966
			c5.297,0,8.828,3.531,8.828,8.828S482.005,354.14,476.708,354.14"/>
		<path style="fill:#565656;" d="M194.225,424.761h158.897v-35.31H194.225V424.761z"/>
	</g>
	<path style="fill:#E0E0E0;" d="M44.156,460.072h370.759v-35.31H44.156V460.072z"/>
	<g>
		<path style="fill:#565656;" d="M88.294,274.692v70.621h70.621C158.915,310.003,123.605,274.692,88.294,274.692"/>
		<path style="fill:#565656;" d="M220.708,105.203l-97.103-6.179v34.428h97.103V105.203z"/>
		<path style="fill:#565656;" d="M135.963,46.94L371.66,61.065c18.538,0.883,34.428-14.124,34.428-32.662v-5.297L105.95,5.451v9.71
			C105.95,31.934,119.191,46.058,135.963,46.94"/>
	</g>
</g>
<g>
</g>
<g>
</g>
<g>
</g>
<g>
</g>
<g>
</g>
<g>
</g>
<g>
</g>
<g>
</g>
<g>
</g>
<g>
</g>
<g>
</g>
<g>
</g>
<g>
</g>
<g>
</g>
<g>
</g>
</svg>
