<?xml version="1.0" encoding="iso-8859-1"?>
<!-- Generator: Adobe Illustrator 19.0.0, SVG Export Plug-In . SVG Version: 6.00 Build 0)  -->
<svg version="1.1" id="Layer_1" xmlns="http://www.w3.org/2000/svg" xmlns:xlink="http://www.w3.org/1999/xlink" x="0px" y="0px"
	 viewBox="0 0 509.287 509.287" style="enable-background:new 0 0 509.287 509.287;" xml:space="preserve">
<circle style="fill:#6EB1E1;" cx="254.644" cy="254.644" r="254.644"/>
<rect x="208.53" y="251.253" style="fill:#F0BA7A;" width="90.872" height="55.269"/>
<polygon style="fill:#F1F3F7;" points="254.644,300.079 183.099,291.942 254.644,509.287 326.188,291.942 "/>
<polygon style="fill:#D54232;" points="254.644,300.079 221.754,326.527 241.081,360.095 268.207,360.095 287.534,326.527 "/>
<polygon style="fill:#F0582F;" points="268.207,360.095 241.081,360.095 218.702,474.702 254.644,509.287 290.585,474.702 "/>
<ellipse style="fill:#414753;" cx="254.644" cy="132.917" rx="115.285" ry="118.336"/>
<path style="fill:#F7CFA2;" d="M309.913,88.837c-29.499,35.942-55.269,44.079-55.269,44.079
	c18.988-11.189,35.942-51.878,35.942-51.878c-26.787,44.079-90.872,53.913-119.693,55.947v52.217
	c0,46.453,37.637,83.751,83.751,83.751c46.453,0,83.751-37.637,83.751-83.751v-56.286
	C310.591,113.928,309.913,88.837,309.913,88.837z"/>
<path style="fill:#646B79;" d="M27.804,353.992L25.43,365.86c41.367,84.768,128.17,143.428,229.213,143.428l-71.544-217.007
	L27.804,353.992z"/>
<polygon style="fill:#FCFCFD;" points="207.852,258.713 183.099,291.942 219.719,353.992 254.644,300.079 "/>
<path style="fill:#4F5565;" d="M156.313,302.792l-36.281,75.613l36.62,15.258l-23.396,40.689l73.24,70.527
	c15.597,3.052,31.534,4.408,47.809,4.408L182.76,292.281L156.313,302.792z"/>
<path style="fill:#646B79;" d="M483.857,365.86l-2.374-11.868l-155.295-62.05l-71.544,217.007
	C355.348,509.287,442.49,450.628,483.857,365.86z"/>
<polygon style="fill:#FCFCFD;" points="301.436,258.713 326.188,291.942 289.568,353.992 254.644,300.079 "/>
<path style="fill:#4F5565;" d="M376.032,434.013l-23.396-40.689l36.62-15.258l-36.281-75.613l-26.448-10.511l-71.544,217.007
	c16.275,0,32.551-1.695,47.809-4.408L376.032,434.013z"/>
<g>
</g>
<g>
</g>
<g>
</g>
<g>
</g>
<g>
</g>
<g>
</g>
<g>
</g>
<g>
</g>
<g>
</g>
<g>
</g>
<g>
</g>
<g>
</g>
<g>
</g>
<g>
</g>
<g>
</g>
</svg>
