<?xml version="1.0" encoding="iso-8859-1"?>
<!-- Generator: Adobe Illustrator 19.0.0, SVG Export Plug-In . SVG Version: 6.00 Build 0)  -->
<svg version="1.1" id="Layer_1" xmlns="http://www.w3.org/2000/svg" xmlns:xlink="http://www.w3.org/1999/xlink" x="0px" y="0px"
	 viewBox="0 0 473.931 473.931" style="enable-background:new 0 0 473.931 473.931;" xml:space="preserve">
<circle style="fill:#4ABC96;" cx="236.966" cy="236.966" r="236.966"/>
<path style="fill:#6D6868;" d="M193.352,366.809H68.953V134.513c0-8.419,6.821-15.236,15.233-15.236h93.933
	c8.411,0,15.233,6.817,15.233,15.236V366.809z"/>
<path style="fill:#5F5E5E;" d="M68.953,134.513c0-8.419,6.821-15.236,15.233-15.236h93.933c8.411,0,15.233,6.817,15.233,15.236
	H68.953z"/>
<g>
	<path style="fill:#E1E0E0;" d="M90.88,361.357c-1.022,0-1.848-0.823-1.848-1.848v-11.431c0-1.014,0.827-1.848,1.848-1.848h26.409
		c1.021,0,1.856,0.834,1.856,1.848v11.431c0,1.025-0.834,1.848-1.856,1.848H90.88z"/>
	<path style="fill:#E1E0E0;" d="M145.016,361.357c-1.021,0-1.852-0.823-1.852-1.848v-11.431c0-1.014,0.831-1.848,1.852-1.848h26.417
		c1.014,0,1.841,0.834,1.841,1.848v11.431c0,1.025-0.831,1.848-1.841,1.848H145.016z"/>
	<path style="fill:#E1E0E0;" d="M145.016,330.895c-1.021,0-1.852-0.827-1.852-1.848v-11.431c0-1.022,0.831-1.856,1.852-1.856h6.731
		c1.018,0,1.856,0.834,1.856,1.856v11.431c0,1.022-0.838,1.848-1.856,1.848H145.016z"/>
	<path style="fill:#E1E0E0;" d="M164.69,330.895c-1.018,0-1.852-0.827-1.852-1.848v-11.431c0-1.022,0.834-1.856,1.852-1.856h6.743
		c1.014,0,1.841,0.834,1.841,1.856v11.431c0,1.022-0.831,1.848-1.841,1.848H164.69z"/>
	<path style="fill:#E1E0E0;" d="M90.857,330.895c-1.021,0-1.852-0.827-1.852-1.848v-11.431c0-1.022,0.831-1.856,1.852-1.856h6.731
		c1.022,0,1.852,0.834,1.852,1.856v11.431c0,1.022-0.831,1.848-1.852,1.848H90.857z"/>
	<path style="fill:#E1E0E0;" d="M110.528,330.895c-1.014,0-1.852-0.827-1.852-1.848v-11.431c0-1.022,0.838-1.856,1.852-1.856h6.731
		c1.025,0,1.856,0.834,1.856,1.856v11.431c0,1.022-0.831,1.848-1.856,1.848H110.528z"/>
	<path style="fill:#E1E0E0;" d="M145.016,291.539c-1.021,0-1.852-0.827-1.852-1.848V278.26c0-1.014,0.831-1.848,1.852-1.848h6.731
		c1.018,0,1.856,0.834,1.856,1.848v11.431c0,1.022-0.838,1.848-1.856,1.848H145.016z"/>
	<path style="fill:#E1E0E0;" d="M164.69,291.539c-1.018,0-1.852-0.827-1.852-1.848V278.26c0-1.014,0.834-1.848,1.852-1.848h6.743
		c1.014,0,1.841,0.834,1.841,1.848v11.431c0,1.022-0.831,1.848-1.841,1.848H164.69z"/>
	<path style="fill:#E1E0E0;" d="M90.857,291.539c-1.021,0-1.852-0.827-1.852-1.848V278.26c0-1.014,0.831-1.848,1.852-1.848h6.731
		c1.022,0,1.852,0.834,1.852,1.848v11.431c0,1.022-0.831,1.848-1.852,1.848H90.857z"/>
	<path style="fill:#E1E0E0;" d="M110.528,291.539c-1.014,0-1.852-0.827-1.852-1.848V278.26c0-1.014,0.838-1.848,1.852-1.848h6.731
		c1.025,0,1.856,0.834,1.856,1.848v11.431c0,1.022-0.831,1.848-1.856,1.848H110.528z"/>
	<path style="fill:#E1E0E0;" d="M145.016,252.195c-1.021,0-1.852-0.834-1.852-1.848v-11.435c0-1.014,0.831-1.852,1.852-1.852h6.731
		c1.018,0,1.856,0.838,1.856,1.852v11.435c0,1.014-0.838,1.848-1.856,1.848L145.016,252.195L145.016,252.195z"/>
	<path style="fill:#E1E0E0;" d="M164.69,252.195c-1.018,0-1.852-0.834-1.852-1.848v-11.435c0-1.014,0.834-1.852,1.852-1.852h6.743
		c1.014,0,1.841,0.838,1.841,1.852v11.435c0,1.014-0.831,1.848-1.841,1.848L164.69,252.195L164.69,252.195z"/>
	<path style="fill:#E1E0E0;" d="M90.857,252.195c-1.021,0-1.852-0.834-1.852-1.848v-11.435c0-1.014,0.831-1.852,1.852-1.852h6.731
		c1.022,0,1.852,0.838,1.852,1.852v11.435c0,1.014-0.831,1.848-1.852,1.848L90.857,252.195L90.857,252.195z"/>
	<path style="fill:#E1E0E0;" d="M110.528,252.195c-1.014,0-1.852-0.834-1.852-1.848v-11.435c0-1.014,0.838-1.852,1.852-1.852h6.731
		c1.025,0,1.856,0.838,1.856,1.852v11.435c0,1.014-0.831,1.848-1.856,1.848L110.528,252.195L110.528,252.195z"/>
	<path style="fill:#E1E0E0;" d="M145.016,212.839c-1.021,0-1.852-0.831-1.852-1.841v-11.442c0-1.014,0.831-1.841,1.852-1.841h6.731
		c1.018,0,1.856,0.831,1.856,1.841v11.442c0,1.014-0.838,1.841-1.856,1.841H145.016z"/>
	<path style="fill:#E1E0E0;" d="M164.69,212.839c-1.018,0-1.852-0.831-1.852-1.841v-11.442c0-1.014,0.834-1.841,1.852-1.841h6.743
		c1.014,0,1.841,0.831,1.841,1.841v11.442c0,1.014-0.831,1.841-1.841,1.841H164.69z"/>
	<path style="fill:#E1E0E0;" d="M90.857,212.839c-1.021,0-1.852-0.831-1.852-1.841v-11.442c0-1.014,0.831-1.841,1.852-1.841h6.731
		c1.022,0,1.852,0.831,1.852,1.841v11.442c0,1.014-0.831,1.841-1.852,1.841H90.857z"/>
	<path style="fill:#E1E0E0;" d="M110.528,212.839c-1.014,0-1.852-0.831-1.852-1.841v-11.442c0-1.014,0.838-1.841,1.852-1.841h6.731
		c1.025,0,1.856,0.831,1.856,1.841v11.442c0,1.014-0.831,1.841-1.856,1.841H110.528z"/>
	<path style="fill:#E1E0E0;" d="M145.016,173.494c-1.021,0-1.852-0.827-1.852-1.848v-11.431c0-1.021,0.831-1.856,1.852-1.856h6.731
		c1.018,0,1.856,0.834,1.856,1.856v11.431c0,1.021-0.838,1.848-1.856,1.848H145.016z"/>
	<path style="fill:#E1E0E0;" d="M164.69,173.494c-1.018,0-1.852-0.827-1.852-1.848v-11.431c0-1.021,0.834-1.856,1.852-1.856h6.743
		c1.014,0,1.841,0.834,1.841,1.856v11.431c0,1.021-0.831,1.848-1.841,1.848H164.69z"/>
	<path style="fill:#E1E0E0;" d="M90.857,173.494c-1.021,0-1.852-0.827-1.852-1.848v-11.431c0-1.021,0.831-1.856,1.852-1.856h6.731
		c1.022,0,1.852,0.834,1.852,1.856v11.431c0,1.021-0.831,1.848-1.852,1.848H90.857z"/>
	<path style="fill:#E1E0E0;" d="M110.528,173.494c-1.014,0-1.852-0.827-1.852-1.848v-11.431c0-1.021,0.838-1.856,1.852-1.856h6.731
		c1.025,0,1.856,0.834,1.856,1.856v11.431c0,1.021-0.831,1.848-1.856,1.848H110.528z"/>
</g>
<path style="fill:#4D4C4C;" d="M125.158,347.647c0-0.812,0.659-1.471,1.467-1.471h9.033c0.808,0,1.467,0.659,1.467,1.471v19.162
	h-11.962v-19.162H125.158z"/>
<circle style="fill:#CDCCCB;" cx="127.033" cy="356.552" r="0.741"/>
<path style="fill:#6D6868;" d="M399.942,366.809H275.547V134.513c0-8.419,6.821-15.236,15.225-15.236h93.937
	c8.411,0,15.229,6.817,15.229,15.236v232.296H399.942z"/>
<path style="fill:#5F5E5E;" d="M275.547,134.513c0-8.419,6.821-15.236,15.225-15.236h93.937c8.411,0,15.229,6.817,15.229,15.236
	H275.547z"/>
<g>
	<path style="fill:#E1E0E0;" d="M297.466,361.357c-1.014,0-1.841-0.823-1.841-1.848v-11.431c0-1.014,0.827-1.848,1.841-1.848h26.409
		c1.025,0,1.86,0.834,1.86,1.848v11.431c0,1.025-0.834,1.848-1.86,1.848H297.466z"/>
	<path style="fill:#E1E0E0;" d="M351.606,361.357c-1.022,0-1.852-0.823-1.852-1.848v-11.431c0-1.014,0.831-1.848,1.852-1.848h26.413
		c1.022,0,1.845,0.834,1.845,1.848v11.431c0,1.025-0.823,1.848-1.845,1.848H351.606z"/>
	<path style="fill:#E1E0E0;" d="M351.606,330.895c-1.022,0-1.852-0.827-1.852-1.848v-11.431c0-1.022,0.831-1.856,1.852-1.856h6.735
		c1.018,0,1.856,0.834,1.856,1.856v11.431c0,1.022-0.838,1.848-1.856,1.848H351.606z"/>
	<path style="fill:#E1E0E0;" d="M371.284,330.895c-1.018,0-1.86-0.827-1.86-1.848v-11.431c0-1.022,0.842-1.856,1.86-1.856h6.735
		c1.022,0,1.845,0.834,1.845,1.856v11.431c0,1.022-0.823,1.848-1.845,1.848H371.284z"/>
	<path style="fill:#E1E0E0;" d="M297.444,330.895c-1.018,0-1.848-0.827-1.848-1.848v-11.431c0-1.022,0.831-1.856,1.848-1.856h6.743
		c1.014,0,1.852,0.834,1.852,1.856v11.431c0,1.022-0.838,1.848-1.852,1.848H297.444z"/>
	<path style="fill:#E1E0E0;" d="M317.118,330.895c-1.014,0-1.841-0.827-1.841-1.848v-11.431c0-1.022,0.827-1.856,1.841-1.856h6.735
		c1.022,0,1.856,0.834,1.856,1.856v11.431c0,1.022-0.834,1.848-1.856,1.848H317.118z"/>
	<path style="fill:#E1E0E0;" d="M351.606,291.539c-1.022,0-1.852-0.827-1.852-1.848V278.26c0-1.014,0.831-1.848,1.852-1.848h6.735
		c1.018,0,1.856,0.834,1.856,1.848v11.431c0,1.022-0.838,1.848-1.856,1.848H351.606z"/>
	<path style="fill:#E1E0E0;" d="M371.284,291.539c-1.018,0-1.86-0.827-1.86-1.848V278.26c0-1.014,0.842-1.848,1.86-1.848h6.735
		c1.022,0,1.845,0.834,1.845,1.848v11.431c0,1.022-0.823,1.848-1.845,1.848H371.284z"/>
	<path style="fill:#E1E0E0;" d="M297.444,291.539c-1.018,0-1.848-0.827-1.848-1.848V278.26c0-1.014,0.831-1.848,1.848-1.848h6.743
		c1.014,0,1.852,0.834,1.852,1.848v11.431c0,1.022-0.838,1.848-1.852,1.848H297.444z"/>
	<path style="fill:#E1E0E0;" d="M317.118,291.539c-1.014,0-1.841-0.827-1.841-1.848V278.26c0-1.014,0.827-1.848,1.841-1.848h6.735
		c1.022,0,1.856,0.834,1.856,1.848v11.431c0,1.022-0.834,1.848-1.856,1.848H317.118z"/>
	<path style="fill:#E1E0E0;" d="M351.606,252.195c-1.022,0-1.852-0.834-1.852-1.848v-11.435c0-1.014,0.831-1.852,1.852-1.852h6.735
		c1.018,0,1.856,0.838,1.856,1.852v11.435c0,1.014-0.838,1.848-1.856,1.848L351.606,252.195L351.606,252.195z"/>
	<path style="fill:#E1E0E0;" d="M371.284,252.195c-1.018,0-1.86-0.834-1.86-1.848v-11.435c0-1.014,0.842-1.852,1.86-1.852h6.735
		c1.022,0,1.845,0.838,1.845,1.852v11.435c0,1.014-0.823,1.848-1.845,1.848L371.284,252.195L371.284,252.195z"/>
	<path style="fill:#E1E0E0;" d="M297.444,252.195c-1.018,0-1.848-0.834-1.848-1.848v-11.435c0-1.014,0.831-1.852,1.848-1.852h6.743
		c1.014,0,1.852,0.838,1.852,1.852v11.435c0,1.014-0.838,1.848-1.852,1.848L297.444,252.195L297.444,252.195z"/>
	<path style="fill:#E1E0E0;" d="M317.118,252.195c-1.014,0-1.841-0.834-1.841-1.848v-11.435c0-1.014,0.827-1.852,1.841-1.852h6.735
		c1.022,0,1.856,0.838,1.856,1.852v11.435c0,1.014-0.834,1.848-1.856,1.848L317.118,252.195L317.118,252.195z"/>
	<path style="fill:#E1E0E0;" d="M351.606,212.839c-1.022,0-1.852-0.831-1.852-1.841v-11.442c0-1.014,0.831-1.841,1.852-1.841h6.735
		c1.018,0,1.856,0.831,1.856,1.841v11.442c0,1.014-0.838,1.841-1.856,1.841H351.606z"/>
	<path style="fill:#E1E0E0;" d="M371.284,212.839c-1.018,0-1.86-0.831-1.86-1.841v-11.442c0-1.014,0.842-1.841,1.86-1.841h6.735
		c1.022,0,1.845,0.831,1.845,1.841v11.442c0,1.014-0.823,1.841-1.845,1.841H371.284z"/>
	<path style="fill:#E1E0E0;" d="M297.444,212.839c-1.018,0-1.848-0.831-1.848-1.841v-11.442c0-1.014,0.831-1.841,1.848-1.841h6.743
		c1.014,0,1.852,0.831,1.852,1.841v11.442c0,1.014-0.838,1.841-1.852,1.841H297.444z"/>
	<path style="fill:#E1E0E0;" d="M317.118,212.839c-1.014,0-1.841-0.831-1.841-1.841v-11.442c0-1.014,0.827-1.841,1.841-1.841h6.735
		c1.022,0,1.856,0.831,1.856,1.841v11.442c0,1.014-0.834,1.841-1.856,1.841H317.118z"/>
	<path style="fill:#E1E0E0;" d="M351.606,173.494c-1.022,0-1.852-0.827-1.852-1.848v-11.431c0-1.021,0.831-1.856,1.852-1.856h6.735
		c1.018,0,1.856,0.834,1.856,1.856v11.431c0,1.021-0.838,1.848-1.856,1.848H351.606z"/>
	<path style="fill:#E1E0E0;" d="M371.284,173.494c-1.018,0-1.86-0.827-1.86-1.848v-11.431c0-1.021,0.842-1.856,1.86-1.856h6.735
		c1.022,0,1.845,0.834,1.845,1.856v11.431c0,1.021-0.823,1.848-1.845,1.848H371.284z"/>
	<path style="fill:#E1E0E0;" d="M297.444,173.494c-1.018,0-1.848-0.827-1.848-1.848v-11.431c0-1.021,0.831-1.856,1.848-1.856h6.743
		c1.014,0,1.852,0.834,1.852,1.856v11.431c0,1.021-0.838,1.848-1.852,1.848H297.444z"/>
	<path style="fill:#E1E0E0;" d="M317.118,173.494c-1.014,0-1.841-0.827-1.841-1.848v-11.431c0-1.021,0.827-1.856,1.841-1.856h6.735
		c1.022,0,1.856,0.834,1.856,1.856v11.431c0,1.021-0.834,1.848-1.856,1.848H317.118z"/>
</g>
<path style="fill:#4D4C4C;" d="M331.744,347.647c0-0.812,0.659-1.471,1.474-1.471h9.025c0.808,0,1.47,0.659,1.47,1.471v19.162
	h-11.97V347.647z"/>
<circle style="fill:#CDCCCB;" cx="333.615" cy="356.552" r="0.745"/>
<path style="fill:#868787;" d="M320.201,403.612H153.068V91.516c0-11.304,9.164-20.464,20.467-20.464h126.202
	c11.304,0,20.467,9.156,20.467,20.464v312.096H320.201z"/>
<path style="fill:#787878;" d="M153.068,91.516c0-11.304,9.164-20.464,20.467-20.464h126.202c11.304,0,20.467,9.156,20.467,20.464
	H153.068z"/>
<g>
	<path style="fill:#E1E0E0;" d="M182.531,396.294c-1.373,0-2.488-1.111-2.488-2.485v-15.356c0-1.373,1.115-2.492,2.488-2.492h35.476
		c1.373,0,2.492,1.119,2.492,2.492v15.356c0,1.373-1.119,2.485-2.492,2.485L182.531,396.294L182.531,396.294z"/>
	<path style="fill:#E1E0E0;" d="M255.255,396.294c-1.373,0-2.488-1.111-2.488-2.485v-15.356c0-1.373,1.115-2.492,2.488-2.492h35.479
		c1.373,0,2.488,1.119,2.488,2.492v15.356c0,1.373-1.115,2.485-2.488,2.485L255.255,396.294L255.255,396.294z"/>
	<path style="fill:#E1E0E0;" d="M255.255,355.366c-1.373,0-2.488-1.115-2.488-2.488v-15.356c0-1.373,1.115-2.492,2.488-2.492h9.048
		c1.373,0,2.488,1.119,2.488,2.492v15.356c0,1.373-1.115,2.488-2.488,2.488L255.255,355.366L255.255,355.366z"/>
	<path style="fill:#E1E0E0;" d="M281.695,355.366c-1.373,0-2.492-1.115-2.492-2.488v-15.356c0-1.373,1.119-2.492,2.492-2.492h9.044
		c1.373,0,2.488,1.119,2.488,2.492v15.356c0,1.373-1.115,2.488-2.488,2.488L281.695,355.366L281.695,355.366z"/>
	<path style="fill:#E1E0E0;" d="M182.493,355.366c-1.373,0-2.488-1.115-2.488-2.488v-15.356c0-1.373,1.115-2.492,2.488-2.492h9.044
		c1.373,0,2.492,1.119,2.492,2.492v15.356c0,1.373-1.119,2.488-2.492,2.488L182.493,355.366L182.493,355.366z"/>
	<path style="fill:#E1E0E0;" d="M208.929,355.366c-1.373,0-2.492-1.115-2.492-2.488v-15.356c0-1.373,1.119-2.492,2.492-2.492h9.04
		c1.373,0,2.492,1.119,2.492,2.492v15.356c0,1.373-1.119,2.488-2.492,2.488L208.929,355.366L208.929,355.366z"/>
	<path style="fill:#E1E0E0;" d="M255.255,302.495c-1.373,0-2.488-1.111-2.488-2.485v-15.356c0-1.373,1.115-2.492,2.488-2.492h9.048
		c1.373,0,2.488,1.119,2.488,2.492v15.356c0,1.373-1.115,2.485-2.488,2.485H255.255z"/>
	<path style="fill:#E1E0E0;" d="M281.695,302.495c-1.373,0-2.492-1.111-2.492-2.485v-15.356c0-1.373,1.119-2.492,2.492-2.492h9.044
		c1.373,0,2.488,1.119,2.488,2.492v15.356c0,1.373-1.115,2.485-2.488,2.485H281.695z"/>
	<path style="fill:#E1E0E0;" d="M182.493,302.495c-1.373,0-2.488-1.111-2.488-2.485v-15.356c0-1.373,1.115-2.492,2.488-2.492h9.044
		c1.373,0,2.492,1.119,2.492,2.492v15.356c0,1.373-1.119,2.485-2.492,2.485H182.493z"/>
	<path style="fill:#E1E0E0;" d="M208.929,302.495c-1.373,0-2.492-1.111-2.492-2.485v-15.356c0-1.373,1.119-2.492,2.492-2.492h9.04
		c1.373,0,2.492,1.119,2.492,2.492v15.356c0,1.373-1.119,2.485-2.492,2.485H208.929z"/>
	<path style="fill:#E1E0E0;" d="M255.255,249.628c-1.373,0-2.488-1.115-2.488-2.488v-15.352c0-1.377,1.115-2.492,2.488-2.492h9.048
		c1.373,0,2.488,1.115,2.488,2.492v15.352c0,1.373-1.115,2.488-2.488,2.488H255.255z"/>
	<path style="fill:#E1E0E0;" d="M281.695,249.628c-1.373,0-2.492-1.115-2.492-2.488v-15.352c0-1.377,1.119-2.492,2.492-2.492h9.044
		c1.373,0,2.488,1.115,2.488,2.492v15.352c0,1.373-1.115,2.488-2.488,2.488H281.695z"/>
	<path style="fill:#E1E0E0;" d="M182.493,249.628c-1.373,0-2.488-1.115-2.488-2.488v-15.352c0-1.377,1.115-2.492,2.488-2.492h9.044
		c1.373,0,2.492,1.115,2.492,2.492v15.352c0,1.373-1.119,2.488-2.492,2.488H182.493z"/>
	<path style="fill:#E1E0E0;" d="M208.929,249.628c-1.373,0-2.492-1.115-2.492-2.488v-15.352c0-1.377,1.119-2.492,2.492-2.492h9.04
		c1.373,0,2.492,1.115,2.492,2.492v15.352c0,1.373-1.119,2.488-2.492,2.488H208.929z"/>
	<path style="fill:#E1E0E0;" d="M255.255,196.76c-1.373,0-2.488-1.119-2.488-2.492v-15.356c0-1.373,1.115-2.485,2.488-2.485h9.048
		c1.373,0,2.488,1.111,2.488,2.485v15.356c0,1.373-1.115,2.492-2.488,2.492H255.255z"/>
	<path style="fill:#E1E0E0;" d="M281.695,196.76c-1.373,0-2.492-1.119-2.492-2.492v-15.356c0-1.373,1.119-2.485,2.492-2.485h9.044
		c1.373,0,2.488,1.111,2.488,2.485v15.356c0,1.373-1.115,2.492-2.488,2.492H281.695z"/>
	<path style="fill:#E1E0E0;" d="M182.493,196.76c-1.373,0-2.488-1.119-2.488-2.492v-15.356c0-1.373,1.115-2.485,2.488-2.485h9.044
		c1.373,0,2.492,1.111,2.492,2.485v15.356c0,1.373-1.119,2.492-2.492,2.492H182.493z"/>
	<path style="fill:#E1E0E0;" d="M208.929,196.76c-1.373,0-2.492-1.119-2.492-2.492v-15.356c0-1.373,1.119-2.485,2.492-2.485h9.04
		c1.373,0,2.492,1.111,2.492,2.485v15.356c0,1.373-1.119,2.492-2.492,2.492H208.929z"/>
	<path style="fill:#E1E0E0;" d="M255.255,143.889c-1.373,0-2.488-1.115-2.488-2.488v-15.356c0-1.373,1.115-2.488,2.488-2.488h9.048
		c1.373,0,2.488,1.115,2.488,2.488v15.356c0,1.373-1.115,2.488-2.488,2.488H255.255z"/>
	<path style="fill:#E1E0E0;" d="M281.695,143.889c-1.373,0-2.492-1.115-2.492-2.488v-15.356c0-1.373,1.119-2.488,2.492-2.488h9.044
		c1.373,0,2.488,1.115,2.488,2.488v15.356c0,1.373-1.115,2.488-2.488,2.488H281.695z"/>
	<path style="fill:#E1E0E0;" d="M182.493,143.889c-1.373,0-2.488-1.115-2.488-2.488v-15.356c0-1.373,1.115-2.488,2.488-2.488h9.044
		c1.373,0,2.492,1.115,2.492,2.488v15.356c0,1.373-1.119,2.488-2.492,2.488H182.493z"/>
	<path style="fill:#E1E0E0;" d="M208.929,143.889c-1.373,0-2.492-1.115-2.492-2.488v-15.356c0-1.373,1.119-2.488,2.492-2.488h9.04
		c1.373,0,2.492,1.115,2.492,2.488v15.356c0,1.373-1.119,2.488-2.492,2.488H208.929z"/>
</g>
<path style="fill:#4D4C4C;" d="M228.577,377.865c0-1.081,0.879-1.964,1.968-1.964h12.131c1.089,0,1.968,0.883,1.968,1.964v25.747
	h-16.071v-25.747H228.577z"/>
<circle style="fill:#CDCCCB;" cx="231.091" cy="389.817" r="0.995"/>
<g>
</g>
<g>
</g>
<g>
</g>
<g>
</g>
<g>
</g>
<g>
</g>
<g>
</g>
<g>
</g>
<g>
</g>
<g>
</g>
<g>
</g>
<g>
</g>
<g>
</g>
<g>
</g>
<g>
</g>
</svg>
