<svg data-name="Layer 1" xmlns="http://www.w3.org/2000/svg" width="864" height="430" viewBox="0 0 864 430"><title>bg_rects</title><g opacity=".05"><path opacity=".92" d="M756 86l54-86H702l54 86"/><path opacity=".4" d="M756 258l54-86-54-86-54 86 54 86"/><path opacity=".63" d="M810 172l54-86-54-86-54 86 54 86"/><path opacity=".16" d="M810 344l54-86-54-86-54 86 54 86"/><path d="M324 86l54-86H270l54 86"/><path opacity=".3" d="M324 258l54-86-54-86-54 86 54 86"/><path opacity=".73" d="M378 172l54-86-54-86-54 86 54 86"/><path opacity=".16" d="M378 344l54-86-54-86-54 86 54 86"/><path opacity=".8" d="M540 86l54-86H486l54 86"/><path opacity=".4" d="M540 258l54-86-54-86-54 86 54 86"/><path opacity=".56" d="M594 172l54-86-54-86-54 86 54 86"/><path opacity=".16" d="M594 344l54-86-54-86-54 86 54 86"/><path opacity=".84" d="M108 86l54-86H54l54 86"/><path opacity=".48" d="M108 258l54-86-54-86-54 86 54 86"/><path opacity=".68" d="M162 172l54-86-54-86-54 86 54 86"/><path opacity=".16" d="M162 344l54-86-54-86-54 86 54 86"/><path d="M648 86l54-86H594l54 86"/><path opacity=".3" d="M648 258l54-86-54-86-54 86 54 86"/><path opacity=".7" d="M702 172l54-86-54-86-54 86 54 86"/><path opacity=".24" d="M702 344l54-86-54-86-54 86 54 86"/><path d="M216 86l54-86H162l54 86"/><path opacity=".44" d="M216 258l54-86-54-86-54 86 54 86"/><path opacity=".6" d="M270 172l54-86-54-86-54 86 54 86"/><path opacity=".2" d="M270 344l54-86-54-86-54 86 54 86"/><path opacity=".9" d="M432 86l54-86H378l54 86"/><path opacity=".46" d="M432 258l54-86-54-86-54 86 54 86"/><path opacity=".68" d="M486 172l54-86-54-86-54 86 54 86"/><path opacity=".12" d="M486 344l54-86-54-86-54 86 54 86"/><path opacity=".96" d="M0 86L54 0H0v86"/><path opacity=".48" d="M0 258l54-86L0 86v172"/><path opacity=".08" d="M756 430l54-86-54-86-54 86 54 86M324 430l54-86-54-86-54 86 54 86M540 430l54-86-54-86-54 86 54 86M108 430l54-86-54-86-54 86 54 86"/><path opacity=".04" d="M648 430l54-86-54-86-54 86 54 86M216 430l54-86-54-86-54 86 54 86"/><path opacity=".08" d="M432 430l54-86-54-86-54 86 54 86M0 430l54-86-54-86v172"/><path opacity=".64" d="M54 172l54-86L54 0 0 86l54 86"/><path opacity=".12" d="M54 344l54-86-54-86-54 86 54 86"/><path opacity=".96" d="M864 86L810 0h54v86"/><path opacity=".48" d="M864 258l-54-86 54-86v172"/><path opacity=".08" d="M864 430l-54-86 54-86v172"/></g></svg>