<?xml version="1.0" encoding="iso-8859-1"?>
<!-- Generator: Adobe Illustrator 16.0.0, SVG Export Plug-In . SVG Version: 6.00 Build 0)  -->
<!DOCTYPE svg PUBLIC "-//W3C//DTD SVG 1.1//EN" "http://www.w3.org/Graphics/SVG/1.1/DTD/svg11.dtd">
<svg version="1.1" id="Capa_1" xmlns="http://www.w3.org/2000/svg" xmlns:xlink="http://www.w3.org/1999/xlink" x="0px" y="0px"
	 width="792px" height="792px" viewBox="0 0 792 792" style="enable-background:new 0 0 792 792;" xml:space="preserve">
<g>
	<path d="M635.733,182.58H521.668c-7.607-68.901-39.626-118.542-80.986-148.876h195.052c9.292,0,16.852-7.559,16.852-16.852
		C652.585,7.56,645.025,0,635.733,0H156.267c-9.293,0-16.852,7.56-16.852,16.852c0,9.293,7.559,16.852,16.852,16.852h203.814
		c54.456,10.063,116.472,55.371,127.932,148.876H156.267c-9.293,0-16.852,7.56-16.852,16.853c0,9.292,7.559,16.852,16.852,16.852
		h333.912c-0.674,46.849-16.707,84.838-48.148,112.861c-89.124,79.205-271.078,58.982-272.859,58.838
		c-6.741-0.674-13.626,2.696-16.852,8.859c-3.274,6.115-2.408,13.626,2.119,18.923l319.949,370.408
		c3.322,3.852,8.04,5.826,12.759,5.826c3.9,0,7.849-1.348,11.026-4.093c7.029-6.066,7.8-16.707,1.733-23.785L206.197,424.095
		c63.364,1.638,184.795-4.478,258.174-69.719c38.953-34.619,58.838-81.179,59.512-138.091h111.851
		c9.292,0,16.852-7.56,16.852-16.852C652.585,190.14,645.074,182.58,635.733,182.58z"/>
</g>
<g>
</g>
<g>
</g>
<g>
</g>
<g>
</g>
<g>
</g>
<g>
</g>
<g>
</g>
<g>
</g>
<g>
</g>
<g>
</g>
<g>
</g>
<g>
</g>
<g>
</g>
<g>
</g>
<g>
</g>
</svg>
