<?xml version="1.0" encoding="iso-8859-1"?>
<!-- Generator: Adobe Illustrator 19.0.0, SVG Export Plug-In . SVG Version: 6.00 Build 0)  -->
<svg version="1.1" id="Layer_1" xmlns="http://www.w3.org/2000/svg" xmlns:xlink="http://www.w3.org/1999/xlink" x="0px" y="0px"
	 viewBox="0 0 512 512" style="enable-background:new 0 0 512 512;" xml:space="preserve">
<path style="fill:#155A8E;" d="M169.578,124.511l0.002-0.044h-1.711H33.243h-0.23v0.006c-17.906,0.124-32.385,14.674-32.385,32.609
	v149.752c0,10.118,8.202,18.32,18.32,18.32h23.826l6.646,136.613c1.36,27.954,24.42,49.92,52.407,49.92
	c27.391,0,49.962-21.499,51.292-48.858l6.697-137.674h22.346c10.118,0,18.32-8.202,18.32-18.32V157.08
	C200.485,139.642,186.797,125.4,169.578,124.511z"/>
<path style="fill:#124D7A;" d="M169.578,124.511l0.002-0.044h-1.711h-67.313v387.189c0.424,0.01,0.845,0.031,1.272,0.031
	c27.391,0,49.962-21.499,51.292-48.858l6.697-137.674h22.346c10.118,0,18.32-8.202,18.32-18.32V157.08
	C200.485,139.642,186.797,125.4,169.578,124.511z"/>
<circle style="fill:#1A6FAF;" cx="412.182" cy="52.901" r="52.274"/>
<path style="fill:#124D7A;" d="M480.466,124.825l0.002-0.044h-1.711H344.131h-0.23v0.006c-17.906,0.124-32.385,14.674-32.385,32.609
	v149.752c0,10.118,8.202,18.32,18.32,18.32h23.826l6.646,136.613c1.36,27.954,24.42,49.92,52.407,49.92
	c27.391,0,49.962-21.499,51.292-48.858l6.697-137.674h22.346c10.118,0,18.32-8.202,18.32-18.32V157.395
	C511.373,139.955,497.685,125.714,480.466,124.825z"/>
<path style="fill:#1E80CD;" d="M325.022,124.197l0.002-0.044h-1.711H188.687h-0.23v0.006c-17.906,0.124-32.385,14.674-32.385,32.609
	V306.52c0,10.118,8.202,18.32,18.32,18.32h23.826l6.646,136.613c1.36,27.954,24.42,49.92,52.407,49.92
	c27.391,0,49.962-21.499,51.292-48.858l6.697-137.674h22.346c10.118,0,18.32-8.202,18.32-18.32V156.766
	C355.929,139.328,342.241,125.086,325.022,124.197z"/>
<g>
	<circle style="fill:#1A6FAF;" cx="256.738" cy="52.274" r="52.274"/>
	<circle style="fill:#1A6FAF;" cx="101.294" cy="52.584" r="52.274"/>
	<path style="fill:#1A6FAF;" d="M325.022,124.197l0.002-0.044h-1.711h-67.314v387.189c0.424,0.01,0.845,0.031,1.272,0.031
		c27.391,0,49.962-21.499,51.292-48.858l6.697-137.674h22.346c10.118,0,18.32-8.202,18.32-18.32V156.766
		C355.929,139.328,342.241,125.086,325.022,124.197z"/>
</g>
<path style="fill:#D5D3DA;" d="M281.091,246.576c0.288,3.217-0.578,6.431-2.445,9.067l-17.674,24.973
	c-1.143,1.614-2.997,2.574-4.974,2.574c-1.977,0-3.832-0.959-4.974-2.574l-17.674-24.973c-1.865-2.636-2.732-5.85-2.445-9.067
	l8.437-94.39h33.309L281.091,246.576z"/>
<path style="fill:#155A8E;" d="M480.466,124.825l0.002-0.044h-1.711h-67.314v387.189c0.424,0.01,0.845,0.031,1.272,0.031
	c27.391,0,49.962-21.499,51.292-48.858l6.697-137.674h22.346c10.118,0,18.32-8.202,18.32-18.32V157.395
	C511.373,139.955,497.685,125.714,480.466,124.825z"/>
<g>
	<path style="fill:#17649D;" d="M101.296,0.314V104.86c28.869,0,52.272-23.403,52.272-52.272
		C153.569,23.717,130.165,0.314,101.296,0.314z"/>
	<path style="fill:#17649D;" d="M309.012,52.272C309.012,23.403,285.609,0,256.74,0c-0.249,0-0.493,0.016-0.741,0.019v104.508
		c0.248,0.003,0.492,0.019,0.741,0.019C285.609,104.546,309.012,81.143,309.012,52.272z"/>
	<path style="fill:#17649D;" d="M412.184,0.628v104.546c28.869,0,52.272-23.403,52.272-52.272
		C464.456,24.032,441.053,0.628,412.184,0.628z"/>
</g>
<path style="fill:#BAB8BE;" d="M278.648,255.642c1.865-2.636,2.732-5.85,2.445-9.067l-8.437-94.39h-16.655v131.004
	c1.977,0,3.832-0.959,4.973-2.574L278.648,255.642z"/>
<path style="fill:#EBEAF2;" d="M228.542,134.278c-2.379,2.379-2.379,6.238,0,8.617l23.149,23.149c2.379,2.379,6.238,2.379,8.617,0
	l23.149-23.149c2.379-2.379,2.379-6.238,0-8.617l-10.126-10.126h-34.663L228.542,134.278z"/>
<path style="fill:#D5D3DA;" d="M283.457,134.278l-10.126-10.126h-17.332v43.675c1.559,0,3.119-0.595,4.308-1.784l23.149-23.149
	C285.837,140.516,285.837,136.657,283.457,134.278z"/>
<g>
</g>
<g>
</g>
<g>
</g>
<g>
</g>
<g>
</g>
<g>
</g>
<g>
</g>
<g>
</g>
<g>
</g>
<g>
</g>
<g>
</g>
<g>
</g>
<g>
</g>
<g>
</g>
<g>
</g>
</svg>
