<?xml version="1.0" encoding="iso-8859-1"?>
<!-- Generator: Adobe Illustrator 19.0.0, SVG Export Plug-In . SVG Version: 6.00 Build 0)  -->
<svg version="1.1" id="Layer_1" xmlns="http://www.w3.org/2000/svg" xmlns:xlink="http://www.w3.org/1999/xlink" x="0px" y="0px"
	 viewBox="0 0 512 512" style="enable-background:new 0 0 512 512;" xml:space="preserve">
<g transform="translate(1 1)">
	<path style="fill:#FFFFFF;" d="M481.987,120.173c-8.533-6.827-19.627-10.24-30.72-10.24h-8.533v162.133h-51.2V109.933H118.467
		v162.133h-51.2V109.933h-8.533c-11.093,0-22.187,3.413-30.72,10.24c-12.8,9.387-20.48,24.747-20.48,40.96V434.2h20.48
		c21.333,0,39.253,17.92,39.253,39.253v20.48h375.467v-20.48c0-21.333,17.92-39.253,39.253-39.253h20.48V161.133
		C502.467,144.92,494.787,129.56,481.987,120.173L481.987,120.173z M118.467,357.4c0,14.507-11.093,25.6-25.6,25.6
		s-25.6-11.093-25.6-25.6v-34.133h51.2V357.4L118.467,357.4z M442.733,357.4c0,14.507-11.093,25.6-25.6,25.6
		c-14.507,0-25.6-11.093-25.6-25.6v-34.133h51.2V357.4L442.733,357.4z"/>
	<path style="fill:#0096E6;" d="M442.733,502.467H67.267c-5.12,0-8.533-3.413-8.533-8.533v-20.48c0-17.067-13.653-30.72-30.72-30.72
		H7.533C2.413,442.733-1,439.32-1,434.2V161.133c0-18.773,8.533-36.693,23.893-47.787c10.24-7.68,23.04-11.947,35.84-11.947h8.533
		c5.12,0,8.533,3.413,8.533,8.533v153.6h34.133v-153.6c0-5.12,3.413-8.533,8.533-8.533h273.067c5.12,0,8.533,3.413,8.533,8.533
		v153.6H434.2v-153.6c0-5.12,3.413-8.533,8.533-8.533h8.533c12.8,0,25.6,4.267,35.84,11.947l0,0
		C502.467,124.44,511,142.36,511,161.133V434.2c0,5.12-3.413,8.533-8.533,8.533h-20.48c-17.067,0-30.72,13.653-30.72,30.72v20.48
		C451.267,499.053,447.853,502.467,442.733,502.467z M75.8,485.4h358.4v-11.947c0-26.453,21.333-47.787,47.787-47.787h11.947
		V161.133c0-13.653-5.973-26.453-17.067-34.133l0,0c-7.68-5.12-16.213-8.533-25.6-8.533v153.6c0,5.12-3.413,8.533-8.533,8.533h-51.2
		c-5.12,0-8.533-3.413-8.533-8.533v-153.6H127v153.6c0,5.12-3.413,8.533-8.533,8.533h-51.2c-5.12,0-8.533-3.413-8.533-8.533v-153.6
		c-9.387,0-17.92,3.413-25.6,8.533c-11.093,7.68-17.067,20.48-17.067,34.133v264.533h11.947c26.453,0,47.787,21.333,47.787,47.787
		V485.4z M417.133,391.533c-18.773,0-34.133-15.36-34.133-34.133v-34.133c0-5.12,3.413-8.533,8.533-8.533h51.2
		c5.12,0,8.533,3.413,8.533,8.533V357.4C451.267,376.173,435.907,391.533,417.133,391.533z M400.067,331.8v25.6
		c0,9.387,7.68,17.067,17.067,17.067s17.067-7.68,17.067-17.067v-25.6H400.067z M92.867,391.533
		c-18.773,0-34.133-15.36-34.133-34.133v-34.133c0-5.12,3.413-8.533,8.533-8.533h51.2c5.12,0,8.533,3.413,8.533,8.533V357.4
		C127,376.173,111.64,391.533,92.867,391.533z M75.8,331.8v25.6c0,9.387,7.68,17.067,17.067,17.067s17.067-7.68,17.067-17.067v-25.6
		H75.8z"/>
	<path style="fill:#D0E8F9;" d="M67.267,493.933H45.08c-20.48,0-37.547-17.067-37.547-37.547V434.2h20.48
		c21.333,0,39.253,17.92,39.253,39.253V493.933L67.267,493.933z"/>
	<path style="fill:#0096E6;" d="M75.8,502.467H45.08c-25.6,0-46.08-20.48-46.08-46.08v-30.72h29.013
		c26.453,0,47.787,21.333,47.787,47.787V502.467z M16.067,442.733v13.653c0,16.213,12.8,29.013,29.013,29.013h13.653v-11.947
		c0-17.067-13.653-30.72-30.72-30.72H16.067z"/>
	<path style="fill:#D0E8F9;" d="M502.467,434.2v22.187c0,20.48-17.067,37.547-37.547,37.547h-22.187v-20.48
		c0-21.333,17.92-39.253,39.253-39.253H502.467L502.467,434.2z"/>
	<path style="fill:#0096E6;" d="M464.92,502.467H434.2v-29.013c0-26.453,21.333-47.787,47.787-47.787H511v30.72
		C511,481.987,490.52,502.467,464.92,502.467z M451.267,485.4h13.653c16.213,0,29.013-12.8,29.013-29.013v-13.653h-11.947
		c-17.067,0-30.72,13.653-30.72,30.72V485.4z"/>
	<polygon style="fill:#FFFFFF;" points="144.067,84.333 212.333,84.333 212.333,109.933 144.067,109.933 	"/>
	<path style="fill:#0096E6;" d="M220.867,118.467h-85.333V75.8h85.333V118.467z M152.6,101.4h51.2v-8.533h-51.2V101.4z"/>
	<polygon style="fill:#FFFFFF;" points="297.667,84.333 365.933,84.333 365.933,109.933 297.667,109.933 	"/>
	<path style="fill:#0096E6;" d="M374.467,118.467h-85.333V75.8h85.333V118.467z M306.2,101.4h51.2v-8.533h-51.2V101.4z"/>
	<path style="fill:#D0E8F9;" d="M314.733,62.147v22.187h34.133v-17.92c0-28.16-22.187-50.347-50.347-50.347h-87.04
		c-28.16,0-50.347,22.187-50.347,50.347v17.92h34.133V62.147c0-9.387,9.387-16.213,18.773-11.947
		c26.453,11.093,56.32,11.093,82.773,0C305.347,46.787,314.733,52.76,314.733,62.147L314.733,62.147z"/>
	<path style="fill:#0096E6;" d="M357.4,92.867h-51.2v-30.72c0-1.707-1.707-3.413-1.707-3.413c-0.853,0-2.56-1.707-4.267-0.853
		c-29.013,11.947-60.587,11.947-88.747,0c-2.56-0.853-4.267,0-4.267,0.853c-1.707,0-3.413,1.707-3.413,3.413v30.72h-51.2V66.413
		c0-32.427,26.453-58.88,58.88-58.88h87.04c32.427,0,58.88,26.453,58.88,58.88V92.867z M323.267,75.8h17.067v-9.387
		c0-23.04-18.773-41.813-41.813-41.813h-87.04c-23.04,0-41.813,18.773-41.813,41.813V75.8h17.067V62.147
		c0-7.68,3.413-14.507,9.387-17.92c5.973-4.267,13.653-5.12,20.48-1.707c24.747,10.24,51.2,10.24,75.947,0
		c6.827-2.56,14.507-1.707,20.48,1.707c6.827,4.267,10.24,11.093,10.24,17.92V75.8z"/>
	<polygon style="fill:#D0E8F9;" points="212.333,186.733 297.667,186.733 297.667,220.867 212.333,220.867 	"/>
	<g>
		<path style="fill:#0096E6;" d="M306.2,229.4H203.8v-51.2h102.4V229.4z M220.867,212.333h68.267v-17.067h-68.267V212.333z"/>
		<path style="fill:#0096E6;" d="M144.067,331.8h-102.4v-25.6H7.533v-17.067h34.133v-25.6h102.4v25.6h230.4V306.2h-230.4V331.8z
			 M58.733,314.733H127V280.6H58.733V314.733z M502.467,306.2H459.8v-17.067h42.667V306.2z"/>
	</g>
	<path style="fill:#D0E8F9;" d="M118.467,272.067V99.693c0-8.533-6.827-15.36-15.36-15.36h-20.48c-8.533,0-15.36,6.827-15.36,15.36
		v172.373H118.467L118.467,272.067z"/>
	<path style="fill:#0096E6;" d="M127,280.6H58.733V99.693c0-12.8,11.093-23.893,23.893-23.893h20.48
		c12.8,0,23.893,11.093,23.893,23.893V280.6z M75.8,263.533h34.133V99.693c0-3.413-3.413-6.827-6.827-6.827h-20.48
		c-3.413,0-6.827,3.413-6.827,6.827V263.533z"/>
	<path style="fill:#D0E8F9;" d="M67.267,323.267V357.4c0,14.507,11.093,25.6,25.6,25.6s25.6-11.093,25.6-25.6v-34.133H67.267
		L67.267,323.267z"/>
	<g>
		<path style="fill:#0096E6;" d="M92.867,391.533c-18.773,0-34.133-15.36-34.133-34.133v-42.667H127V357.4
			C127,376.173,111.64,391.533,92.867,391.533z M75.8,331.8v25.6c0,9.387,7.68,17.067,17.067,17.067s17.067-7.68,17.067-17.067
			v-25.6H75.8z"/>
		<path style="fill:#0096E6;" d="M92.867,297.667c-5.12,0-8.533-3.413-8.533-8.533V255c0-5.12,3.413-8.533,8.533-8.533
			S101.4,249.88,101.4,255v34.133C101.4,294.253,97.987,297.667,92.867,297.667z"/>
		<path style="fill:#0096E6;" d="M101.4,220.867c0,5.12-3.413,8.533-8.533,8.533s-8.533-3.413-8.533-8.533
			c0-5.12,3.413-8.533,8.533-8.533S101.4,215.747,101.4,220.867"/>
		<path style="fill:#0096E6;" d="M101.4,348.867c0,5.12-3.413,8.533-8.533,8.533s-8.533-3.413-8.533-8.533
			c0-5.12,3.413-8.533,8.533-8.533S101.4,343.747,101.4,348.867"/>
		<path style="fill:#0096E6;" d="M468.333,331.8h-102.4v-68.267h102.4V331.8z M383,314.733h68.267V280.6H383V314.733z"/>
	</g>
	<path style="fill:#D0E8F9;" d="M442.733,272.067V99.693c0-8.533-6.827-15.36-15.36-15.36h-20.48c-8.533,0-15.36,6.827-15.36,15.36
		v172.373H442.733L442.733,272.067z"/>
	<path style="fill:#0096E6;" d="M451.267,280.6H383V99.693c0-12.8,11.093-23.893,23.893-23.893h20.48
		c12.8,0,23.893,11.093,23.893,23.893V280.6z M400.067,263.533H434.2V99.693c0-3.413-3.413-6.827-6.827-6.827h-20.48
		c-3.413,0-6.827,3.413-6.827,6.827V263.533z"/>
	<path style="fill:#D0E8F9;" d="M391.533,323.267V357.4c0,14.507,11.093,25.6,25.6,25.6c14.507,0,25.6-11.093,25.6-25.6v-34.133
		H391.533L391.533,323.267z"/>
	<g>
		<path style="fill:#0096E6;" d="M417.133,391.533c-18.773,0-34.133-15.36-34.133-34.133v-42.667h68.267V357.4
			C451.267,376.173,435.907,391.533,417.133,391.533z M400.067,331.8v25.6c0,9.387,7.68,17.067,17.067,17.067
			s17.067-7.68,17.067-17.067v-25.6H400.067z"/>
		<path style="fill:#0096E6;" d="M417.133,297.667c-5.12,0-8.533-3.413-8.533-8.533V255c0-5.12,3.413-8.533,8.533-8.533
			s8.533,3.413,8.533,8.533v34.133C425.667,294.253,422.253,297.667,417.133,297.667z"/>
		<path style="fill:#0096E6;" d="M425.667,220.867c0,5.12-3.413,8.533-8.533,8.533s-8.533-3.413-8.533-8.533
			c0-5.12,3.413-8.533,8.533-8.533S425.667,215.747,425.667,220.867"/>
		<path style="fill:#0096E6;" d="M425.667,348.867c0,5.12-3.413,8.533-8.533,8.533s-8.533-3.413-8.533-8.533
			c0-5.12,3.413-8.533,8.533-8.533S425.667,343.747,425.667,348.867"/>
		<rect x="246.467" y="297.667" style="fill:#0096E6;" width="17.067" height="196.267"/>
	</g>
</g>
<g>
</g>
<g>
</g>
<g>
</g>
<g>
</g>
<g>
</g>
<g>
</g>
<g>
</g>
<g>
</g>
<g>
</g>
<g>
</g>
<g>
</g>
<g>
</g>
<g>
</g>
<g>
</g>
<g>
</g>
</svg>
