<?xml version="1.0" encoding="utf-8"?>
<!-- Generator: Adobe Illustrator 16.0.0, SVG Export Plug-In . SVG Version: 6.00 Build 0)  -->
<!DOCTYPE svg PUBLIC "-//W3C//DTD SVG 1.1//EN" "http://www.w3.org/Graphics/SVG/1.1/DTD/svg11.dtd">
<svg version="1.1" id="Layer_1" xmlns="http://www.w3.org/2000/svg" xmlns:xlink="http://www.w3.org/1999/xlink" x="0px" y="0px"
	 width="1366px" height="786px" viewBox="0 0 1366 786" enable-background="new 0 0 1366 786" xml:space="preserve">
<g transform="translate(1 1)">
	<path fill="#FFFFFF" d="M1030.461,185.02c-13.1-10.48-30.131-15.72-47.16-15.72h-13.1v248.9h-78.6v-248.9H472.4v248.9h-78.6v-248.9
		h-13.1c-17.03,0-34.061,5.24-47.16,15.72c-19.65,14.411-31.44,37.99-31.44,62.88v419.2h31.44c32.75,0,60.26,27.511,60.26,60.26
		v31.44h576.4v-31.44c0-32.749,27.51-60.26,60.26-60.26h31.439v-419.2C1061.9,223.01,1050.11,199.43,1030.461,185.02
		L1030.461,185.02z M472.4,549.2c0,22.271-17.029,39.3-39.3,39.3s-39.3-17.029-39.3-39.3v-52.399h78.6V549.2L472.4,549.2z
		 M970.199,549.2c0,22.271-17.029,39.3-39.3,39.3s-39.3-17.029-39.3-39.3v-52.399h78.6V549.2L970.199,549.2z"/>
	<path fill="#2ECA86" d="M970.199,771.9H393.801c-7.86,0-13.1-5.239-13.1-13.1v-31.439c0-26.201-20.959-47.16-47.16-47.16H302.1
		c-7.86-0.002-13.1-5.241-13.1-13.102v-419.2c0-28.819,13.1-56.33,36.68-73.36c15.72-11.79,35.37-18.341,55.02-18.341h13.1
		c7.86,0,13.1,5.24,13.1,13.1v235.8h52.399v-235.8c0-7.86,5.239-13.1,13.1-13.1h419.2c7.86,0,13.1,5.24,13.1,13.1v235.8H957.1
		v-235.8c0-7.86,5.24-13.1,13.1-13.1h13.1c19.65,0,39.3,6.551,55.021,18.341l0,0C1061.9,191.57,1075,219.08,1075,247.899v419.2
		c0,7.86-5.239,13.1-13.1,13.1h-31.439c-26.201,0-47.16,20.96-47.16,47.16v31.44C983.301,766.659,978.06,771.9,970.199,771.9z
		 M406.9,745.7H957.1v-18.341c0-40.609,32.75-73.36,73.361-73.36h18.34v-406.1c0-20.959-9.169-40.609-26.2-52.399l0,0
		c-11.79-7.86-24.89-13.1-39.3-13.1v235.8c0,7.86-5.24,13.1-13.1,13.1h-78.6c-7.86,0-13.1-5.239-13.1-13.1V182.4H485.5v235.8
		c0,7.86-5.239,13.1-13.1,13.1h-78.6c-7.86,0-13.1-5.239-13.1-13.1V182.4c-14.411,0-27.51,5.24-39.3,13.1
		c-17.029,11.79-26.2,31.44-26.2,52.399v406.1h18.34c40.609,0,73.36,32.749,73.36,73.36L406.9,745.7L406.9,745.7z M930.899,601.6
		c-28.819,0-52.399-23.58-52.399-52.399v-52.399c0-7.86,5.239-13.1,13.1-13.1h78.6c7.86,0,13.1,5.239,13.1,13.1V549.2
		C983.301,578.02,959.721,601.6,930.899,601.6z M904.7,509.9v39.3c0,14.41,11.79,26.2,26.201,26.2c14.41,0,26.2-11.79,26.2-26.2
		v-39.3H904.7z M433.101,601.6c-28.819,0-52.399-23.58-52.399-52.399v-52.399c0-7.86,5.239-13.1,13.1-13.1h78.6
		c7.86,0,13.1,5.239,13.1,13.1V549.2C485.5,578.02,461.92,601.6,433.101,601.6z M406.9,509.9v39.3c0,14.41,11.79,26.2,26.2,26.2
		s26.2-11.79,26.2-26.2v-39.3H406.9z"/>
	<path fill="#BDFFDE" d="M393.801,758.8H359.74c-31.44,0-57.641-26.201-57.641-57.641V667.1h31.44
		c32.75,0,60.259,27.511,60.259,60.26v31.44H393.801z"/>
	<path fill="#2ECA86" d="M406.9,771.9h-47.16c-39.3,0-70.74-31.439-70.74-70.74v-47.159h44.54c40.609,0,73.361,32.749,73.361,73.36
		V771.9z M315.201,680.199v20.96c0,24.89,19.65,44.539,44.54,44.539h20.959v-18.34c0-26.201-20.959-47.16-47.16-47.16
		L315.201,680.199L315.201,680.199z"/>
	<path fill="#BDFFDE" d="M1061.9,667.1v34.061c0,31.44-26.2,57.641-57.641,57.641h-34.061v-31.439c0-32.75,27.51-60.26,60.26-60.26
		h31.441V667.1z"/>
	<path fill="#2ECA86" d="M1004.26,771.9H957.1v-44.539c0-40.609,32.75-73.36,73.361-73.36H1075v47.159
		C1075,740.461,1043.561,771.9,1004.26,771.9z M983.301,745.7h20.959c24.89,0,44.54-19.65,44.54-44.54v-20.959h-18.341
		c-26.2,0-47.16,20.959-47.16,47.16V745.7H983.301z"/>
	<polygon fill="#FFFFFF" points="511.7,130 616.5,130 616.5,169.299 511.7,169.299 	"/>
	<path fill="#2ECA86" d="M629.601,182.4h-131v-65.5h131V182.4z M524.8,156.2H603.4v-13.1H524.8V156.2z"/>
	<polygon fill="#FFFFFF" points="747.5,130 852.3,130 852.3,169.299 747.5,169.299 	"/>
	<path fill="#2ECA86" d="M865.4,182.4H734.401v-65.5H865.4V182.4z M760.6,156.2H839.2v-13.1H760.6V156.2z"/>
	<path fill="#BDFFDE" d="M773.699,95.94v34.061h52.399v-27.51c0-43.23-34.061-77.291-77.29-77.291h-133.62
		c-43.23,0-77.29,34.061-77.29,77.291v27.51h52.398V95.94c0-14.41,14.411-24.89,28.82-18.34c40.609,17.029,86.46,17.029,127.069,0
		C759.291,72.36,773.699,81.53,773.699,95.94L773.699,95.94z"/>
	<path fill="#2ECA86" d="M839.2,143.101H760.6V95.94c0-2.621-2.62-5.239-2.62-5.239c-1.31,0-3.93-2.621-6.551-1.31
		c-44.539,18.34-93.011,18.34-136.24,0c-3.93-1.31-6.551,0-6.551,1.31c-2.62,0-5.239,2.62-5.239,5.239v47.16h-78.6v-40.611
		c0-49.78,40.609-90.39,90.39-90.39h133.62c49.78,0,90.39,40.609,90.39,90.39v40.611H839.2z M786.801,116.9h26.2v-14.411
		c0-35.37-28.819-64.189-64.189-64.189h-133.62c-35.37,0-64.189,28.82-64.189,64.189V116.9h26.2V95.94
		c0-11.79,5.24-22.271,14.411-27.51c9.169-6.551,20.959-7.86,31.439-2.621c37.991,15.72,78.601,15.72,116.591,0
		c10.48-3.93,22.271-2.621,31.44,2.621c10.48,6.55,15.72,17.029,15.72,27.51V116.9H786.801z"/>
	<polygon fill="#BDFFDE" points="616.5,287.2 747.5,287.2 747.5,339.601 616.5,339.601 	"/>
	<g>
		<path fill="#2ECA86" d="M760.6,352.7H603.4v-78.6H760.6V352.7z M629.601,326.499h104.801v-26.2H629.601V326.499z"/>
		<path fill="#2ECA86" d="M511.7,509.9H354.5V470.6H302.1v-26.2h52.399v-39.3h157.2v39.3h353.699v26.2H511.699L511.7,509.9
			L511.7,509.9z M380.699,483.699H485.5V431.3H380.699V483.699z M1061.9,470.6h-65.5v-26.2h65.5V470.6L1061.9,470.6z"/>
	</g>
	<path fill="#BDFFDE" d="M472.4,418.2V153.58c0-13.1-10.48-23.58-23.58-23.58h-31.439c-13.1,0-23.58,10.48-23.58,23.58v264.62
		L472.4,418.2L472.4,418.2z"/>
	<path fill="#2ECA86" d="M485.5,431.3H380.699V153.58c0-19.65,17.029-36.68,36.68-36.68h31.44c19.649,0,36.679,17.03,36.679,36.68
		V431.3H485.5z M406.9,405.1H459.3V153.58c0-5.24-5.24-10.48-10.48-10.48h-31.44c-5.239,0-10.48,5.239-10.48,10.48V405.1H406.9z"/>
	<path fill="#BDFFDE" d="M393.801,496.801V549.2c0,22.271,17.029,39.3,39.3,39.3s39.3-17.029,39.3-39.3v-52.399H393.801
		L393.801,496.801z"/>
	<g>
		<path fill="#2ECA86" d="M433.101,601.6c-28.819,0-52.399-23.58-52.399-52.399v-65.501H485.5V549.2
			C485.5,578.02,461.92,601.6,433.101,601.6z M406.9,509.9v39.3c0,14.41,11.79,26.2,26.2,26.2s26.2-11.79,26.2-26.2v-39.3H406.9z"/>
		<path fill="#2ECA86" d="M433.101,457.5c-7.86,0-13.1-5.239-13.1-13.099V392c0-7.86,5.239-13.1,13.1-13.1s13.1,5.239,13.1,13.1
			v52.399C446.2,452.26,440.961,457.5,433.101,457.5z"/>
		<path fill="#2ECA86" d="M446.2,339.601c0,7.86-5.239,13.1-13.1,13.1s-13.1-5.239-13.1-13.1s5.239-13.1,13.1-13.1
			S446.2,331.74,446.2,339.601"/>
		<path fill="#2ECA86" d="M446.2,536.101c0,7.86-5.239,13.1-13.1,13.1s-13.1-5.239-13.1-13.1s5.239-13.1,13.1-13.1
			S446.2,528.24,446.2,536.101"/>
		<path fill="#2ECA86" d="M1009.5,509.9H852.3V405.1h157.2V509.9z M878.5,483.699h104.801V431.3H878.5V483.699z"/>
	</g>
	<path fill="#BDFFDE" d="M970.199,418.2V153.58c0-13.1-10.48-23.58-23.58-23.58H915.18c-13.1,0-23.58,10.48-23.58,23.58v264.62
		L970.199,418.2L970.199,418.2z"/>
	<path fill="#2ECA86" d="M983.301,431.3H878.5V153.58c0-19.65,17.029-36.68,36.68-36.68h31.439c19.65,0,36.68,17.03,36.68,36.68
		V431.3H983.301z M904.7,405.1H957.1V153.58c0-5.24-5.239-10.48-10.48-10.48H915.18c-5.24,0-10.48,5.239-10.48,10.48L904.7,405.1
		L904.7,405.1z"/>
	<path fill="#BDFFDE" d="M891.6,496.801V549.2c0,22.271,17.029,39.3,39.3,39.3s39.3-17.029,39.3-39.3v-52.399H891.6L891.6,496.801z"
		/>
	<g>
		<path fill="#2ECA86" d="M930.899,601.6c-28.819,0-52.399-23.58-52.399-52.399v-65.501h104.801V549.2
			C983.301,578.02,959.721,601.6,930.899,601.6z M904.7,509.9v39.3c0,14.41,11.79,26.2,26.201,26.2c14.41,0,26.2-11.79,26.2-26.2
			v-39.3H904.7z"/>
		<path fill="#2ECA86" d="M930.899,457.5c-7.86,0-13.1-5.239-13.1-13.099V392c0-7.86,5.239-13.1,13.1-13.1s13.1,5.239,13.1,13.1
			v52.399C944,452.26,938.76,457.5,930.899,457.5z"/>
		<path fill="#2ECA86" d="M944,339.601c0,7.86-5.239,13.1-13.099,13.1c-7.86,0-13.1-5.239-13.1-13.1s5.239-13.1,13.1-13.1
			C938.761,326.501,944,331.74,944,339.601"/>
		<path fill="#2ECA86" d="M944,536.101c0,7.86-5.239,13.1-13.099,13.1c-7.86,0-13.1-5.239-13.1-13.1s5.239-13.1,13.1-13.1
			C938.761,523.001,944,528.24,944,536.101"/>
		<rect x="668.9" y="457.5" fill="#2ECA86" width="26.2" height="301.301"/>
	</g>
</g>
</svg>
