<?xml version="1.0" encoding="iso-8859-1"?>
<!-- Generator: Adobe Illustrator 18.0.0, SVG Export Plug-In . SVG Version: 6.00 Build 0)  -->
<!DOCTYPE svg PUBLIC "-//W3C//DTD SVG 1.1//EN" "http://www.w3.org/Graphics/SVG/1.1/DTD/svg11.dtd">
<svg xmlns="http://www.w3.org/2000/svg" xmlns:xlink="http://www.w3.org/1999/xlink" version="1.1" id="Capa_1" x="0px" y="0px" viewBox="0 0 71.079 71.079" style="enable-background:new 0 0 71.079 71.079;" xml:space="preserve" width="512px" height="512px">
<path d="M5.469,31.587c0.687,0.272,1.406,0.41,2.14,0.41c2.4,0,4.522-1.442,5.406-3.674l2.767-6.98  c0.594-1.478,1.268-3.151,0.558-4.804c-0.531-1.237-1.748-2.219-3.722-3c-1.178-0.466-2.185-0.693-3.079-0.693  c-2.928,0-3.839,2.336-4.57,4.214L2.204,24.04C1.024,27.021,2.488,30.407,5.469,31.587z M4.063,24.777l2.768-6.991  c0.732-1.878,1.219-2.94,2.707-2.94c0.629,0,1.417,0.186,2.343,0.552c1.433,0.567,2.314,1.217,2.621,1.93  c0.265,0.618,0.118,1.366-0.16,2.176l-2.418-0.958c-0.513-0.202-1.095,0.047-1.298,0.562c-0.203,0.513,0.048,1.094,0.562,1.298  l2.432,0.964l-0.786,1.984l-2.432-0.963c-0.512-0.204-1.094,0.048-1.298,0.562c-0.203,0.514,0.048,1.095,0.562,1.298l2.432,0.963  l-0.733,1.85l-2.431-0.963c-0.512-0.203-1.095,0.047-1.298,0.562c-0.203,0.513,0.048,1.094,0.562,1.298l2.163,0.857  c-0.704,0.738-1.682,1.182-2.751,1.182c-0.48,0-0.952-0.09-1.403-0.269C4.25,28.953,3.29,26.732,4.063,24.777z M17.774,16.878  c0.204-0.514,0.786-0.764,1.298-0.562l11.383,4.508c0.247,0.098,0.444,0.289,0.55,0.533c0.105,0.243,0.109,0.519,0.012,0.765  l-6.26,15.806c-0.155,0.393-0.532,0.632-0.93,0.632c-0.123,0-0.247-0.023-0.368-0.071l-11.383-4.508  c-0.514-0.203-0.765-0.784-0.562-1.298c0.203-0.514,0.785-0.764,1.298-0.562l10.453,4.14l5.523-13.946l-10.453-4.14  C17.822,17.973,17.571,17.392,17.774,16.878z M71.009,39.305l-3.928,9.917c-0.037,0.093-0.088,0.176-0.147,0.251  c-0.003,0.004-0.005,0.009-0.008,0.013c-0.013,0.016-0.032,0.026-0.046,0.042c-0.189,0.204-0.451,0.326-0.729,0.326  c-0.123,0-0.247-0.023-0.368-0.071c-0.385-0.152-0.623-0.517-0.632-0.907c-0.003-0.13,0.019-0.263,0.07-0.391l0,0  c0.253-0.641-0.062-1.368-0.702-1.622c-0.639-0.252-1.369,0.061-1.623,0.702c-0.046,0.117-0.117,0.215-0.197,0.303  c-0.023,0.025-0.049,0.045-0.075,0.068c-0.066,0.058-0.136,0.106-0.214,0.145c-0.03,0.015-0.058,0.03-0.089,0.042  c-0.098,0.038-0.2,0.061-0.305,0.067c-0.012,0.001-0.023,0.005-0.036,0.005c-0.005,0-0.01,0.002-0.015,0.002  c-0.123,0-0.248-0.023-0.368-0.071c-0.514-0.204-0.765-0.785-0.562-1.298c0.123-0.31,0.118-0.65-0.015-0.957  c-0.133-0.306-0.376-0.542-0.687-0.666c-0.64-0.252-1.369,0.061-1.623,0.703c-0.046,0.117-0.117,0.215-0.197,0.303  c-0.023,0.025-0.049,0.045-0.074,0.067c-0.066,0.059-0.137,0.107-0.215,0.146c-0.029,0.015-0.057,0.03-0.087,0.041  c-0.098,0.038-0.201,0.062-0.307,0.067c-0.012,0.001-0.023,0.005-0.035,0.005c-0.005,0-0.009,0.002-0.014,0.002  c-0.123,0-0.248-0.023-0.368-0.071c-0.514-0.204-0.765-0.785-0.562-1.298c0.123-0.31,0.118-0.649-0.015-0.956  s-0.377-0.543-0.688-0.666c-0.31-0.123-0.649-0.119-0.957,0.015c-0.306,0.132-0.542,0.376-0.665,0.686  c-0.046,0.117-0.116,0.215-0.196,0.302c-0.024,0.026-0.05,0.047-0.077,0.07c-0.064,0.057-0.133,0.104-0.208,0.143  c-0.032,0.016-0.061,0.032-0.094,0.045c-0.094,0.036-0.191,0.057-0.292,0.064c-0.017,0.001-0.032,0.007-0.049,0.007  c-0.005,0-0.009,0.002-0.014,0.002c-0.123,0-0.247-0.023-0.368-0.071c-0.514-0.203-0.765-0.784-0.562-1.297  c0.254-0.641-0.062-1.369-0.702-1.623c-0.313-0.124-0.65-0.117-0.956,0.015c-0.307,0.132-0.543,0.376-0.666,0.687  c-0.046,0.117-0.117,0.215-0.197,0.303c-0.023,0.025-0.049,0.045-0.074,0.068c-0.065,0.058-0.135,0.106-0.212,0.145  c-0.03,0.015-0.058,0.031-0.09,0.043c-0.096,0.037-0.197,0.06-0.301,0.066c-0.014,0.001-0.026,0.006-0.04,0.006  c-0.005,0-0.01,0.002-0.015,0.002c-0.123,0-0.247-0.023-0.368-0.071c-0.514-0.203-0.765-0.784-0.562-1.297  c0.254-0.641-0.062-1.369-0.702-1.623c-0.638-0.252-1.369,0.061-1.623,0.702c-0.046,0.117-0.117,0.215-0.198,0.303  c-0.023,0.025-0.049,0.045-0.074,0.067c-0.066,0.058-0.136,0.106-0.213,0.145c-0.03,0.015-0.059,0.031-0.091,0.043  c-0.095,0.036-0.194,0.059-0.298,0.065c-0.015,0.001-0.029,0.006-0.044,0.007c-0.004,0-0.008,0.002-0.012,0.002  c-0.123,0-0.248-0.023-0.368-0.071c-0.514-0.204-0.765-0.785-0.562-1.298c0.123-0.31,0.118-0.65-0.015-0.956  c-0.132-0.306-0.376-0.542-0.687-0.666c-0.313-0.124-0.651-0.118-0.957,0.015c-0.307,0.133-0.543,0.377-0.666,0.688  c-0.046,0.117-0.117,0.215-0.197,0.303c-0.024,0.026-0.05,0.046-0.076,0.069c-0.065,0.057-0.134,0.105-0.211,0.143  c-0.031,0.016-0.061,0.032-0.093,0.044c-0.094,0.036-0.191,0.057-0.292,0.064c-0.017,0.001-0.032,0.007-0.049,0.007  c-0.004,0-0.008,0.002-0.012,0.002c-0.123,0-0.248-0.023-0.368-0.071c-0.514-0.204-0.765-0.785-0.562-1.298  c0.123-0.31,0.118-0.649-0.015-0.956s-0.377-0.543-0.688-0.666c-0.311-0.123-0.648-0.118-0.957,0.015  c-0.306,0.132-0.542,0.376-0.665,0.687c-0.046,0.117-0.116,0.215-0.196,0.303c-0.023,0.026-0.049,0.046-0.075,0.068  c-0.065,0.058-0.135,0.106-0.212,0.145c-0.03,0.015-0.058,0.03-0.089,0.042c-0.098,0.038-0.201,0.062-0.308,0.067  c-0.011,0.001-0.021,0.005-0.032,0.005c-0.006,0-0.011,0.003-0.017,0.003c-0.123,0-0.247-0.023-0.368-0.07  c-0.513-0.203-0.765-0.784-0.562-1.298c0.253-0.641-0.062-1.369-0.702-1.623c-0.31-0.123-0.649-0.119-0.957,0.015  c-0.306,0.132-0.542,0.376-0.665,0.686c-0.046,0.117-0.117,0.215-0.197,0.303c-0.023,0.025-0.049,0.045-0.074,0.068  c-0.065,0.058-0.135,0.106-0.212,0.145c-0.03,0.015-0.058,0.031-0.09,0.043c-0.096,0.037-0.197,0.06-0.301,0.066  c-0.014,0.001-0.026,0.006-0.04,0.006c-0.005,0-0.01,0.002-0.015,0.002c-0.123,0-0.247-0.023-0.368-0.071  c-0.514-0.203-0.765-0.784-0.562-1.297c0.254-0.641-0.062-1.369-0.702-1.623c-0.639-0.251-1.368,0.061-1.623,0.703  c-0.204,0.514-0.79,0.764-1.298,0.561c-0.514-0.204-0.765-0.785-0.562-1.298c0.661-1.666,2.552-2.485,4.219-1.825  c0.812,0.322,1.418,0.939,1.755,1.677c0.781-0.32,1.64-0.333,2.429-0.02c0.812,0.322,1.418,0.938,1.754,1.677  c0.782-0.321,1.64-0.333,2.43-0.02c0.788,0.312,1.406,0.908,1.756,1.677c0.781-0.321,1.64-0.332,2.428-0.02  c0.788,0.312,1.406,0.908,1.756,1.677c0.751-0.308,1.615-0.343,2.427-0.02c0.812,0.322,1.418,0.939,1.755,1.677  c0.781-0.32,1.64-0.333,2.429-0.02c0.812,0.322,1.418,0.939,1.755,1.677c0.782-0.321,1.64-0.333,2.429-0.02  c0.789,0.312,1.407,0.909,1.757,1.678c0.751-0.309,1.615-0.344,2.428-0.021c0.788,0.312,1.406,0.908,1.756,1.678  c0.75-0.308,1.614-0.343,2.427-0.021c0.412,0.163,0.771,0.403,1.07,0.694l2.456-6.2L32.056,24.954  c-0.514-0.203-0.765-0.784-0.562-1.298c0.203-0.514,0.785-0.765,1.298-0.562l37.655,14.913c0.247,0.098,0.444,0.289,0.55,0.533  C71.103,38.783,71.106,39.058,71.009,39.305z M0,42.226c0-0.552,0.447-1,1-1h42.22c0.553,0,1,0.448,1,1s-0.447,1-1,1H1  C0.447,43.226,0,42.779,0,42.226z M70,57.234c0,0.552-0.447,1-1,1H1c-0.553,0-1-0.448-1-1s0.447-1,1-1h68  C69.553,56.234,70,56.682,70,57.234z M47.403,52.505c-0.553,0-1-0.448-1-1v-7.622c0-0.552,0.447-1,1-1s1,0.448,1,1v7.622  C48.403,52.057,47.956,52.505,47.403,52.505z M21.266,46.775H4.334c-0.553,0-1-0.448-1-1s0.447-1,1-1h16.932c0.553,0,1,0.448,1,1  S21.818,46.775,21.266,46.775z M8.219,51.505c0-0.552,0.447-1,1-1H31.5c0.553,0,1,0.448,1,1s-0.447,1-1,1H9.219  C8.666,52.505,8.219,52.057,8.219,51.505z M36.864,48.694h-8.368c-0.553,0-1-0.448-1-1s0.447-1,1-1h8.368c0.553,0,1,0.448,1,1  S37.417,48.694,36.864,48.694z M57.246,54.984c-0.553,0-1-0.448-1-1s0.447-1,1-1h8.368c0.553,0,1,0.448,1,1s-0.447,1-1,1H57.246z   M40.042,54.984c2.421,0,4.178-1.078,4.178-2.563s-1.757-2.563-4.178-2.563s-4.178,1.078-4.178,2.563S37.621,54.984,40.042,54.984z   M40.042,51.859c1.171,0,1.91,0.352,2.132,0.563c-0.222,0.21-0.961,0.563-2.132,0.563s-1.91-0.352-2.132-0.563  C38.132,52.211,38.871,51.859,40.042,51.859z M58.014,30.306c-0.315-0.453-0.205-1.076,0.248-1.392l3.133-2.187  c0.452-0.317,1.077-0.205,1.393,0.248c0.315,0.453,0.205,1.076-0.248,1.392l-3.133,2.187c-0.174,0.122-0.374,0.18-0.571,0.18  C58.52,30.734,58.208,30.585,58.014,30.306z M52.435,27.2l0.478-4.283c0.063-0.549,0.568-0.945,1.105-0.883  c0.55,0.061,0.944,0.556,0.884,1.104l-0.478,4.283c-0.058,0.511-0.49,0.889-0.993,0.889c-0.037,0-0.074-0.002-0.111-0.006  C52.769,28.244,52.374,27.749,52.435,27.2z M44.498,23.139c-0.249-0.493-0.051-1.094,0.442-1.343s1.094-0.05,1.343,0.443l1.347,2.67  c0.249,0.493,0.051,1.094-0.442,1.343c-0.145,0.073-0.298,0.107-0.449,0.107c-0.366,0-0.718-0.201-0.894-0.55L44.498,23.139z   M19.061,33.452c-0.516-0.199-0.772-0.778-0.573-1.293c0.198-0.516,0.779-0.771,1.292-0.573l2.81,1.083  c0.516,0.199,0.772,0.778,0.573,1.293c-0.152,0.397-0.531,0.641-0.933,0.641c-0.12,0-0.241-0.022-0.359-0.067L19.061,33.452z   M31.034,26.846c0.101-0.258,0.39-0.386,0.647-0.285l34.81,13.542c0.257,0.1,0.385,0.39,0.284,0.647  c-0.077,0.198-0.266,0.319-0.466,0.319c-0.061,0-0.122-0.011-0.182-0.034l-34.81-13.542C31.062,27.393,30.934,27.104,31.034,26.846z  " fill="#32c763"/>
<g>
</g>
<g>
</g>
<g>
</g>
<g>
</g>
<g>
</g>
<g>
</g>
<g>
</g>
<g>
</g>
<g>
</g>
<g>
</g>
<g>
</g>
<g>
</g>
<g>
</g>
<g>
</g>
<g>
</g>
</svg>
