<?xml version="1.0" encoding="iso-8859-1"?>
<!-- Generator: Adobe Illustrator 19.0.0, SVG Export Plug-In . SVG Version: 6.00 Build 0)  -->
<svg version="1.1" id="Layer_1" xmlns="http://www.w3.org/2000/svg" xmlns:xlink="http://www.w3.org/1999/xlink" x="0px" y="0px"
	 viewBox="0 0 512 512" style="enable-background:new 0 0 512 512;" xml:space="preserve">
<g>
	<path style="fill:#64C37D;" d="M256,512C114.842,512,0,397.158,0,256S114.842,0,256,0s256,114.842,256,256S397.158,512,256,512z
		 M256,54.857C145.09,54.857,54.857,145.09,54.857,256S145.09,457.143,256,457.143S457.143,366.91,457.143,256
		S366.91,54.857,256,54.857z"/>
	<path style="fill:#64C37D;" d="M256,374.857c-15.148,0-27.429-12.281-27.429-27.429V164.571c0-15.148,12.281-27.429,27.429-27.429
		c15.148,0,27.429,12.281,27.429,27.429v182.857C283.429,362.576,271.148,374.857,256,374.857z"/>
</g>
<g>
</g>
<g>
</g>
<g>
</g>
<g>
</g>
<g>
</g>
<g>
</g>
<g>
</g>
<g>
</g>
<g>
</g>
<g>
</g>
<g>
</g>
<g>
</g>
<g>
</g>
<g>
</g>
<g>
</g>
</svg>
