<?xml version="1.0" encoding="iso-8859-1"?>
<!-- Generator: Adobe Illustrator 19.0.0, SVG Export Plug-In . SVG Version: 6.00 Build 0)  -->
<svg version="1.1" id="Layer_1" xmlns="http://www.w3.org/2000/svg" xmlns:xlink="http://www.w3.org/1999/xlink" x="0px" y="0px"
	 viewBox="0 0 512 512" style="enable-background:new 0 0 512 512;" xml:space="preserve">
<circle style="fill:#45B39C;" cx="256" cy="256" r="256"/>
<path style="fill:#E27C3E;" d="M311.815,117c-5.402,0-10.381,4.584-10.381,9.985v137.926c0,5.403-3.864,9.089-9.267,9.089h-72.303
	c-5.403,0-10.431-3.686-10.431-9.089V126.985c0-5.401-3.815-9.985-9.216-9.985h-23.94c-5.403,0-6.542-2.881-2.528-6.498
	l74.972-67.554c4.012-3.618,10.578-3.599,14.592,0.021l74.968,67.523c4.014,3.616,2.875,6.509-2.528,6.509h-23.938V117z"/>
<path style="opacity:0.3;fill:#5D5D5D;enable-background:new    ;" d="M209.198,126.794c0-5.4-3.578-9.794-8.979-9.794h-23.94
	c-5.403,0-6.542-2.881-2.528-6.498l74.972-67.554c4.012-3.618,10.578-3.599,14.592,0.021l28.882,26.111l-82.842,130.736
	L209.198,126.794z"/>
<path style="fill:#E3E8E8;" d="M393.435,289.195c0-0.021,0-0.04,0-0.061c0-54.968-44.523-99.531-99.494-99.531
	c-37.85,0-70.744,21.128-87.573,52.232c-3.842-0.636-7.774-0.972-11.796-0.972c-35.04,0-64.203,25.12-70.484,58.333
	C94.9,303.717,72.56,329.282,72.56,359.738C72.56,393.39,99.843,421,133.495,421c0.028,0,0.057,0,0.084,0l-0.087-0.1l234.475-0.398
	c37.585,0,68.013-30.553,68.013-68.136C435.978,323.819,417.435,299.297,393.435,289.195z"/>
<path style="fill:#F5FAFA;" d="M413.435,343.182c0-0.012,0-0.023,0-0.035c0-32.416-25.734-58.696-58.151-58.696
	c-22.321,0-41.458,12.46-51.385,30.801c-2.265-0.375-4.452-0.572-6.825-0.572c-20.663,0-37.795,14.814-41.502,34.4
	c-17.213,2.665-30.352,17.787-30.352,35.746c0,19.848,16.125,36.174,35.968,36.174c0.017,0,0.033,0,0.049,0l-0.051-0.106
	l138.272-0.257c22.165,0,39.588-18.028,39.588-40.191C439.045,363.611,429.435,349.139,413.435,343.182z"/>
<g>
</g>
<g>
</g>
<g>
</g>
<g>
</g>
<g>
</g>
<g>
</g>
<g>
</g>
<g>
</g>
<g>
</g>
<g>
</g>
<g>
</g>
<g>
</g>
<g>
</g>
<g>
</g>
<g>
</g>
</svg>
