<?xml version="1.0" encoding="utf-8"?>
<!-- Generator: Adobe Illustrator 16.0.0, SVG Export Plug-In . SVG Version: 6.00 Build 0)  -->
<!DOCTYPE svg PUBLIC "-//W3C//DTD SVG 1.1//EN" "http://www.w3.org/Graphics/SVG/1.1/DTD/svg11.dtd">
<svg version="1.1" id="Capa_1" xmlns="http://www.w3.org/2000/svg" xmlns:xlink="http://www.w3.org/1999/xlink" x="0px" y="0px"
	 width="500px" height="500px" viewBox="0 0 500 500" enable-background="new 0 0 500 500" xml:space="preserve">
<g>
	<circle fill="#F6A200" cx="250.002" cy="249.998" r="249.998"/>
	<g>
		<g>
			<defs>
				<circle id="SVGID_1_" cx="250.002" cy="249.998" r="249.998"/>
			</defs>
			<clipPath id="SVGID_2_">
				<use xlink:href="#SVGID_1_"  overflow="visible"/>
			</clipPath>
			<g clip-path="url(#SVGID_2_)">
				<path fill="#F1C9A5" d="M369.728,403.874c-16.115-30.507-119.726-49.65-119.726-49.65s-103.611,19.144-119.726,49.65
					C118.365,446.209,108.401,500,108.401,500h141.601h141.601C391.603,500,384.871,442.323,369.728,403.874z"/>
				<path fill="#E4B692" d="M250.002,354.224c0,0,103.61,19.144,119.726,49.65C384.875,442.323,391.603,500,391.603,500H250.002
					V354.224z"/>
				<rect x="221.795" y="292.205" fill="#F1C9A5" width="56.413" height="94.41"/>
				<rect x="250.002" y="292.205" fill="#E4B692" width="28.206" height="94.41"/>
				<path opacity="0.1" fill="#DDAC8C" enable-background="new    " d="M221.795,335.95c5.074,14.563,25.547,22.911,40.584,22.911
					c5.439,0,10.73-0.911,15.828-2.58v-64.079h-56.413V335.95z"/>
				<path fill="#F1C9A5" d="M322.529,232.63c0-58.968-32.472-92.5-72.527-92.5c-40.056,0-72.527,33.532-72.527,92.5
					c0,79.317,32.471,106.777,72.527,106.777C290.055,339.407,322.529,308.642,322.529,232.63z"/>
				<path fill="#E4B692" d="M311.487,273.521c-13.147-1.379-22.024-15.542-19.8-31.622c2.2-16.094,14.65-28.044,27.806-26.676
					c13.142,1.368,22.004,15.528,19.786,31.622C337.076,262.943,324.636,274.882,311.487,273.521z"/>
				<path fill="#F1C9A5" d="M161.235,246.849c-2.221-16.094,6.645-30.254,19.779-31.622c13.162-1.371,25.612,10.579,27.819,26.676
					c2.217,16.081-6.666,30.248-19.804,31.623C175.879,274.882,163.438,262.943,161.235,246.849z"/>
				<path fill="#E4B692" d="M322.529,232.63c0-58.968-32.472-92.5-72.527-92.5v199.277
					C290.055,339.407,322.529,308.642,322.529,232.63z"/>
				<path fill="#593731" d="M180.241,252.167c0,0,9.974-19.171,14.229-56.019c30.092,28.593,65.544,33.169,112.404,0
					c1.153,26.866,9.01,43.624,18.221,56.019c5.668-46.421,18.188-69.301,13.984-93.698c-31.231,5.167-42.228-20.501-89.081-20.501
					c-46.859,0-57.286,24.69-86.404,22.483C163.598,189.438,177.475,204.883,180.241,252.167z"/>
				<path fill="#CD3E40" d="M369.728,403.874c-10.327-19.548-56.555-34.42-88.449-42.588c-1.239,16.201-14.755,28.974-31.276,28.974
					c-16.519,0-30.033-12.769-31.277-28.974c-31.895,8.168-78.122,23.04-88.449,42.588C118.365,446.209,108.401,500,108.401,500
					h141.601h141.601C391.603,500,384.871,442.323,369.728,403.874z"/>
			</g>
		</g>
	</g>
</g>
</svg>
