<?xml version="1.0" encoding="utf-8"?>
<!-- Generator: Adobe Illustrator 16.0.0, SVG Export Plug-In . SVG Version: 6.00 Build 0)  -->
<!DOCTYPE svg PUBLIC "-//W3C//DTD SVG 1.1//EN" "http://www.w3.org/Graphics/SVG/1.1/DTD/svg11.dtd">
<svg version="1.1" id="Capa_1" xmlns="http://www.w3.org/2000/svg" xmlns:xlink="http://www.w3.org/1999/xlink" x="0px" y="0px"
	 width="500px" height="500px" viewBox="0 0 500 500" enable-background="new 0 0 500 500" xml:space="preserve">
<g>
	<circle fill="#594A80" cx="250.002" cy="249.998" r="249.998"/>
	<g>
		<g>
			<defs>
				<circle id="SVGID_1_" cx="250.002" cy="249.998" r="249.998"/>
			</defs>
			<clipPath id="SVGID_2_">
				<use xlink:href="#SVGID_1_"  overflow="visible"/>
			</clipPath>
			<g clip-path="url(#SVGID_2_)">
				<path fill="#481813" d="M156.224,259.22c0,40.78-22.376,41.835-20.784,68.839c1.772,29.905,25.146,29.975,25.146,50.534
					c0,20.553-21.496,43.6-2.452,65.733c83.731,0,91.902,0,91.902,0V194.943L156.224,259.22z"/>
				<path fill="#481813" d="M343.772,257.869c0,40.781,22.38,41.834,20.784,68.839c-1.768,29.905-25.143,29.975-25.143,50.534
					c0,20.553,21.492,43.6,2.452,65.734c-83.734,0-91.906,0-91.906,0v-249.38L343.772,257.869z"/>
				<g>
					<ellipse fill="#481813" cx="250.002" cy="216.618" rx="102.35" ry="103.016"/>
					<path fill="#F1C9A5" d="M369.728,403.874c-16.115-30.507-119.726-49.65-119.726-49.65s-103.611,19.144-119.726,49.65
						C118.365,446.209,108.401,500,108.401,500h141.601h141.601C391.603,500,384.871,442.323,369.728,403.874z"/>
					<path fill="#E4B692" d="M250.002,354.224c0,0,103.61,19.144,119.726,49.65C384.875,442.323,391.603,500,391.603,500H250.002
						V354.224z"/>
					<rect x="221.795" y="292.202" fill="#F1C9A5" width="56.413" height="94.41"/>
					<rect x="250.002" y="292.202" fill="#E4B692" width="28.206" height="94.41"/>
					<path opacity="0.1" fill="#DDAC8C" enable-background="new    " d="M221.795,335.95c5.074,14.563,25.547,22.911,40.584,22.911
						c5.439,0,10.733-0.911,15.828-2.58v-64.079h-56.413V335.95z"/>
					<path fill="#F1C9A5" d="M322.529,232.63c0-58.968-32.472-92.5-72.527-92.5c-40.056,0-72.527,33.532-72.527,92.5
						c0,58.968,32.471,106.777,72.527,106.777C290.055,339.407,322.529,291.602,322.529,232.63z"/>
					<path fill="#E4B692" d="M311.487,273.515c-13.147-1.465-22.024-16.519-19.796-33.611c2.199-17.106,14.65-29.806,27.806-28.352
						c13.141,1.458,22.003,16.505,19.786,33.611C337.076,262.27,324.636,274.958,311.487,273.515z"/>
					<path fill="#F1C9A5" d="M161.235,245.163c-2.221-17.106,6.645-32.157,19.779-33.611c13.158-1.454,25.612,11.245,27.819,28.352
						c2.217,17.093-6.666,32.15-19.804,33.611C175.879,274.958,163.438,262.27,161.235,245.163z"/>
					<path fill="#E4B692" d="M322.529,232.63c0-58.968-32.472-92.5-72.527-92.5v199.277
						C290.055,339.407,322.529,291.602,322.529,232.63z"/>
				</g>
				<path fill="#481813" d="M328.515,225.975c0-0.176,0.01-0.346,0.01-0.518c0-45.744-30.969-94.016-74.315-94.016
					c-43.348,0-82.651,48.269-82.651,94.013c0,0.176,0.01,0.345,0.01,0.518h156.946V225.975z"/>
				<path fill="#EB1B3A" d="M391.603,500c0,0-6.728-57.677-21.875-96.126c-8.839-16.733-43.979-30.034-73.931-38.644l-45.902,36.028
					l-47.747-35.435c-29.477,8.624-63.237,21.703-71.871,38.053c-11.912,42.335-21.875,96.127-21.875,96.127h141.601h141.601V500z"
					/>
			</g>
		</g>
	</g>
</g>
</svg>
