<?xml version="1.0" encoding="utf-8"?>
<!-- Generator: Adobe Illustrator 16.0.0, SVG Export Plug-In . SVG Version: 6.00 Build 0)  -->
<!DOCTYPE svg PUBLIC "-//W3C//DTD SVG 1.1//EN" "http://www.w3.org/Graphics/SVG/1.1/DTD/svg11.dtd">
<svg version="1.1" id="Capa_1" xmlns="http://www.w3.org/2000/svg" xmlns:xlink="http://www.w3.org/1999/xlink" x="0px" y="0px"
	 width="600px" height="600px" viewBox="0 0 600 600" enable-background="new 0 0 600 600" xml:space="preserve">
<circle fill="none" stroke="#2980B9" stroke-width="9" stroke-miterlimit="10" cx="300" cy="300" r="286"/>
<g>
	<g>
		<path fill="none" stroke="#2980B9" stroke-width="9" stroke-miterlimit="10" d="M222.901,232.922
			c0.824,4.968,2.74,8.108,4.633,10.091c4.5,29.982,29.559,57.805,52.48,57.805c26.708,0,51.032-30.117,55.709-57.738
			c1.938-1.961,3.877-5.124,4.723-10.158c1.516-5.613,3.476-15.369,0.045-19.958c-0.178-0.223-0.379-0.468-0.557-0.646
			c3.229-11.783,7.306-36.152-7.284-52.747c-1.292-1.648-9.489-11.427-26.976-16.595l-8.353-2.874
			c-13.766-4.254-22.409-5.212-22.787-5.257c-0.624-0.044-1.27,0-1.872,0.156c-0.468,0.134-2.116,0.58-3.386,0.401
			c-3.296-0.467-8.242,1.225-9.11,1.559c-1.136,0.468-27.799,11.138-35.885,35.975c-0.757,2.005-3.987,12.563,0.312,38.446
			c-0.646,0.446-1.225,0.98-1.715,1.626C219.404,217.553,221.365,227.309,222.901,232.922z"/>
		<path fill="none" stroke="#2980B9" stroke-width="9" stroke-miterlimit="10" d="M383.817,322.736c0,0-5.436-7.418-18.333-12.363
			c0,0-1.091-0.334-2.762-0.891c-11.472-5.369-22.364-8.82-22.364-8.82c-2.339-0.847-4.388-1.67-6.237-2.473
			c-7.738-3.825-14.175-8.133-15.578-12.205c-0.009,0.008-0.018,0.016-0.026,0.024c0.219,2.436,3.359,43.463-33.579,44.458
			l-5.302-0.246c-30.452-2.713-35.814-35.229-36.654-42.829c-0.107-0.371-0.221-0.741-0.321-1.112
			c-4.637,11.228-46.824,24.048-46.824,24.048c-12.897,4.945-18.355,12.387-18.355,12.387
			c-19.067,28.289-21.317,91.238-21.317,91.238c0.245,14.391,6.46,15.883,6.46,15.883c43.859,19.578,112.667,23.031,112.667,23.031
			c3.72,0.09,7.173-0.111,10.625-0.311l0.089,0.355c0,0,33.591-1.715,68.808-9.422l-4.299-5.635
			c-3.497-4.611-11.315-10.559-20.961-15.949c-4.922-2.764-10.27-5.414-15.971-7.932c-2.763-1.225-5.568-2.383-8.354-3.475
			c-2.183-0.824-4.767-1.893-6.571-2.361l-26.418-7.127l49.429-100.64l21.184,13.365c4.477,2.807,7.773,5.191,11.383,7.842
			l0.757,0.557c3.587,2.65,7.106,5.369,10.559,8.176c7.507,6.059,14.145,11.982,20.315,18.109c0.467,0.467,0.912,0.891,1.381,1.359
			c2.071-2.295,4.098-4.344,6.125-6.551C390.789,335.545,387.648,328.438,383.817,322.736z"/>
		<path display="none" fill="none" stroke="#2980B9" stroke-width="9" stroke-miterlimit="10" d="M317.036,287.742
			c0.468-0.601,0.98-1.203,1.47-1.871c-0.111-0.4-0.133-0.602-0.133-0.602C317.95,286.138,317.459,286.874,317.036,287.742z"/>
		<path display="none" fill="none" stroke="#2980B9" stroke-width="9" stroke-miterlimit="10" d="M243.038,285.737l-0.111-0.468
			l-0.089,0.49c0.022-0.089,0.111-0.178,0.133-0.268C242.994,285.515,243.016,285.603,243.038,285.737z"/>
		<path fill="none" stroke="#2980B9" stroke-width="9" stroke-miterlimit="10" d="M465.389,305.941
			c-12.496,8.82-24.146,18.799-35.239,29.291c-11.115,10.559-21.651,21.674-31.786,33.146c-3.766,4.275-7.418,8.598-11.049,12.941
			c-0.045-0.066-0.09-0.135-0.111-0.201c-5.346-7.127-11.138-13.477-17.152-19.424c-6.014-5.926-12.251-11.404-18.666-16.617
			c-3.23-2.584-6.482-5.123-9.801-7.617c-3.453-2.496-6.482-4.746-10.715-7.418l-26.329,53.57c2.405,0.646,5.902,2.006,8.865,3.164
			c3.141,1.203,6.215,2.494,9.289,3.854c6.147,2.717,12.14,5.68,17.864,8.865c11.316,6.326,21.852,14.033,27.867,21.896
			l20.247,26.553l11.65-25.26c5.858-12.652,12.875-25.885,20.069-38.492c7.262-12.697,15.014-25.148,23.412-37.154
			c8.397-12.008,17.396-23.613,27.465-34.305c10.068-10.625,21.184-20.515,34.438-27.532
			C491.317,289.479,477.863,297.208,465.389,305.941z"/>
	</g>
</g>
</svg>
