<?xml version="1.0" encoding="utf-8"?>
<!-- Generator: Adobe Illustrator 16.0.0, SVG Export Plug-In . SVG Version: 6.00 Build 0)  -->
<!DOCTYPE svg PUBLIC "-//W3C//DTD SVG 1.1//EN" "http://www.w3.org/Graphics/SVG/1.1/DTD/svg11.dtd">
<svg version="1.1" id="Capa_1" xmlns="http://www.w3.org/2000/svg" xmlns:xlink="http://www.w3.org/1999/xlink" x="0px" y="0px"
	 width="600px" height="600px" viewBox="0 0 600 600" enable-background="new 0 0 600 600" xml:space="preserve">
<circle fill="none" stroke="#2980B9" stroke-width="9" stroke-miterlimit="10" cx="300" cy="300" r="286"/>
<g>
	<g>
		<g>
			<path fill="#2980B9" d="M339.718,289.5c0.821,1.936-0.08,4.182-2.013,5.001c-1.936,0.82-4.184-0.08-5.002-2.014
				c-1.054-2.47-2.351-4.85-3.854-7.08c-1.522-2.254-3.26-4.348-5.146-6.244l-0.009,0.008c-1.918-1.918-4.013-3.655-6.244-5.153
				c-2.243-1.521-4.607-2.819-7.046-3.854c-1.936-0.813-2.843-3.05-2.032-4.985c0.813-1.935,3.053-2.842,4.987-2.03
				c2.977,1.267,5.788,2.796,8.368,4.54c2.675,1.799,5.153,3.846,7.382,6.076l-0.009,0.008l0.009,0.007
				c2.254,2.254,4.3,4.732,6.068,7.359C336.932,283.742,338.461,286.545,339.718,289.5z"/>
			<path fill="#2980B9" d="M363.998,290.01c0.543,2.04-0.668,4.133-2.706,4.674s-4.133-0.668-4.675-2.706
				c-1.473-5.457-3.664-10.68-6.475-15.53c-2.809-4.85-6.29-9.366-10.32-13.403c-4.038-4.038-8.553-7.517-13.403-10.328
				c-4.843-2.811-10.064-5.001-15.529-6.466c-2.038-0.542-3.249-2.637-2.707-4.675c0.541-2.039,2.636-3.25,4.676-2.708
				c6.1,1.648,11.943,4.102,17.377,7.247c5.478,3.178,10.525,7.056,14.995,11.523c4.466,4.468,8.345,9.517,11.514,14.996
				C359.899,278.064,362.35,283.909,363.998,290.01z"/>
			<path fill="#2980B9" d="M387.491,290.265c0.398,2.07-0.946,4.078-3.018,4.476c-2.072,0.398-4.079-0.948-4.477-3.019
				c-1.68-8.457-4.61-16.58-8.655-24.122l-0.104-0.199c-4.03-7.47-9.166-14.382-15.274-20.491l-0.017-0.016
				c-6.153-6.148-13.14-11.332-20.68-15.369c-7.526-4.03-15.666-6.968-24.13-8.657c-2.069-0.398-3.417-2.413-3.019-4.475
				c0.406-2.071,2.413-3.417,4.477-3.019c9.188,1.824,18.028,5.034,26.256,9.429c8.226,4.412,15.814,10.042,22.481,16.699
				l0.015,0.016c6.603,6.61,12.185,14.12,16.581,22.258l0.119,0.215C382.467,272.212,385.661,281.059,387.491,290.265z"/>
			<path fill="#2980B9" d="M407.298,393.895c1.697,1.241,2.062,3.632,0.819,5.328c-1.242,1.697-3.63,2.063-5.326,0.821
				l-59.586-43.673l-3.862,3.86l-6.171,6.173c-14.686,14.686-36.713,11.213-56.987-1.131c-7.605-4.627-14.973-10.503-21.558-17.09
				c-6.579-6.586-12.463-13.95-17.09-21.559c-12.359-20.282-15.871-42.301-1.273-56.891l10.145-10.145l-41.044-56.017
				l-18.532,18.396l0.007,0.009l-0.159,0.158c-14.55,14.549-18.365,33.846-10.911,57.259c7.74,24.313,27.435,53,59.608,85.409
				l1.297,1.306l0.009-0.007c2.198,2.197,4.005,3.988,5.415,5.352c31.241,30.293,59.009,48.847,82.568,56.055
				c22.688,6.943,41.419,3.186,55.474-10.878l0.19-0.182l0.455-0.455l4.905-5.064c1.466-1.506,3.888-1.54,5.392-0.073
				c1.504,1.464,1.537,3.888,0.071,5.392l-4.906,5.064l-0.015,0.017l-0.469,0.472l-0.216,0.236
				c-16.189,16.2-37.493,20.595-63.096,12.759c-24.728-7.566-53.547-26.733-85.673-57.879c-2.213-2.143-4.054-3.959-5.502-5.408
				l0.007-0.008l-0.007-0.009l-1.307-1.313c-33.042-33.287-53.349-63.015-61.464-88.482c-8.394-26.369-3.935-48.268,12.766-64.968
				l0.159-0.159l0.008,0.009l0.008-0.009l21.678-21.518c0.135-0.135,0.279-0.255,0.43-0.366c1.696-1.243,4.085-0.876,5.328,0.82
				l45.439,61.989c1.29,1.498,1.227,3.775-0.19,5.193L241.67,275.15c-11.61,11.611-8.218,30.118,2.381,47.511
				c4.285,7.039,9.779,13.912,15.991,20.124c6.211,6.211,13.084,11.707,20.116,15.982c17.392,10.592,35.907,13.938,47.607,2.239
				l6.171-6.171l6.173-6.173l0.006,0.008c1.308-1.307,3.408-1.506,4.945-0.381L407.298,393.895z"/>
			<path fill="#2980B9" d="M390.686,410.515c1.697,1.24,2.062,3.63,0.819,5.327c-1.24,1.696-3.63,2.063-5.327,0.82l-15.561-11.395
				l-15.561-11.405l-15.562-11.405c-1.696-1.239-2.063-3.63-0.82-5.326c1.241-1.696,3.632-2.062,5.328-0.821l15.562,11.405
				l15.561,11.403L390.686,410.515z"/>
			<path fill="#2980B9" d="M186.124,216.617c-1.243-1.696-0.876-4.086,0.82-5.328c1.696-1.242,4.085-0.876,5.327,0.821l11.396,15.56
				l11.404,15.554l11.404,15.561c1.242,1.696,0.875,4.085-0.821,5.328s-4.085,0.876-5.327-0.82l-11.397-15.569l-11.404-15.553
				L186.124,216.617z"/>
		</g>
	</g>
</g>
</svg>
