<?xml version="1.0" encoding="utf-8"?>
<!-- Generator: Adobe Illustrator 16.0.0, SVG Export Plug-In . SVG Version: 6.00 Build 0)  -->
<!DOCTYPE svg PUBLIC "-//W3C//DTD SVG 1.1//EN" "http://www.w3.org/Graphics/SVG/1.1/DTD/svg11.dtd">
<svg version="1.1" id="Capa_1" xmlns="http://www.w3.org/2000/svg" xmlns:xlink="http://www.w3.org/1999/xlink" x="0px" y="0px"
	 width="600px" height="600px" viewBox="0 0 600 600" enable-background="new 0 0 600 600" xml:space="preserve">
<circle fill="none" stroke="#2980B9" stroke-width="9" stroke-miterlimit="10" cx="300" cy="300" r="286"/>
<g>
	<g>
		<path fill="none" stroke="#2980B9" stroke-width="9" stroke-miterlimit="10" d="M426.227,189.422h-16.363v-5.677
			c0-2.767-2.24-5.009-5.008-5.009s-5.009,2.242-5.009,5.009v5.677H383.15v-5.677c0-2.767-2.242-5.009-5.009-5.009
			s-5.009,2.242-5.009,5.009v5.677h-16.697v-5.677c0-2.767-2.241-5.009-5.008-5.009c-2.768,0-5.009,2.242-5.009,5.009v5.677h-16.696
			v-5.677c0-2.767-2.242-5.009-5.009-5.009s-5.009,2.242-5.009,5.009v5.677h-16.697v-5.677c0-2.767-2.241-5.009-5.008-5.009
			c-2.767,0-5.009,2.242-5.009,5.009v5.677h-16.696v-5.677c0-2.767-2.242-5.009-5.009-5.009c-2.767,0-5.009,2.242-5.009,5.009v5.677
			h-16.696v-5.677c0-2.767-2.242-5.009-5.009-5.009c-2.767,0-5.009,2.242-5.009,5.009v5.677h-16.696v-5.677
			c0-2.767-2.242-5.009-5.009-5.009s-5.009,2.242-5.009,5.009v5.677h-16.696v-5.677c0-2.767-2.242-5.009-5.009-5.009
			s-5.009,2.242-5.009,5.009v5.677h-16.362c-14.545,0-26.38,11.834-26.38,26.38v192.34c0,14.546,11.834,26.38,26.38,26.38h57.566
			c13.372,25.39,40.025,42.742,70.66,42.742s57.287-17.353,70.66-42.742h57.566c14.545,0,26.379-11.834,26.379-26.38v-192.34
			C452.605,201.256,440.771,189.422,426.227,189.422z M426.227,424.504h-53.141c3.054-8.45,4.721-17.559,4.721-27.048
			c0-13.641-3.441-26.491-9.499-37.733h4.491c2.768,0,5.008-2.242,5.008-5.009s-2.24-5.009-5.008-5.009h-10.686
			c-0.066,0-0.132,0.008-0.197,0.01c-14.568-19.454-37.797-32.066-63.916-32.066c-26.119,0-49.348,12.612-63.916,32.066
			c-0.066-0.002-0.131-0.01-0.198-0.01h-10.686c-2.767,0-5.009,2.242-5.009,5.009s2.242,5.009,5.009,5.009h4.491
			c-6.057,11.242-9.5,24.093-9.5,37.733c0,9.489,1.669,18.598,4.722,27.048h-53.141c-9.022,0-16.362-7.34-16.362-16.362V231.496
			h289.178v176.646C442.589,417.164,435.249,424.504,426.227,424.504z"/>
		<path fill="#2980B9" d="M244.572,296.277h-21.371c-2.767,0-5.009,2.242-5.009,5.009s2.242,5.009,5.009,5.009h21.371
			c2.767,0,5.009-2.242,5.009-5.009S247.339,296.277,244.572,296.277z"/>
		<path fill="#2980B9" d="M201.83,296.277h-21.371c-2.767,0-5.009,2.242-5.009,5.009s2.242,5.009,5.009,5.009h21.371
			c2.767,0,5.009-2.242,5.009-5.009S204.597,296.277,201.83,296.277z"/>
		<path fill="#2980B9" d="M287.314,296.277h-21.371c-2.767,0-5.009,2.242-5.009,5.009s2.242,5.009,5.009,5.009h21.371
			c2.767,0,5.009-2.242,5.009-5.009S290.082,296.277,287.314,296.277z"/>
		<path fill="#2980B9" d="M372.799,296.277h-21.371c-2.768,0-5.009,2.242-5.009,5.009s2.241,5.009,5.009,5.009h21.371
			c2.768,0,5.008-2.242,5.008-5.009S375.566,296.277,372.799,296.277z"/>
		<path fill="#2980B9" d="M415.541,296.277H394.17c-2.768,0-5.009,2.242-5.009,5.009s2.241,5.009,5.009,5.009h21.371
			c2.768,0,5.008-2.242,5.008-5.009S418.309,296.277,415.541,296.277z"/>
		<path fill="#2980B9" d="M330.057,296.277h-21.371c-2.768,0-5.009,2.242-5.009,5.009s2.241,5.009,5.009,5.009h21.371
			c2.767,0,5.008-2.242,5.008-5.009S332.823,296.277,330.057,296.277z"/>
		<path fill="#2980B9" d="M244.572,269.563h-21.371c-2.767,0-5.009,2.242-5.009,5.009c0,2.767,2.242,5.009,5.009,5.009h21.371
			c2.767,0,5.009-2.242,5.009-5.009C249.581,271.806,247.339,269.563,244.572,269.563z"/>
		<path fill="#2980B9" d="M201.83,269.563h-21.371c-2.767,0-5.009,2.242-5.009,5.009c0,2.767,2.242,5.009,5.009,5.009h21.371
			c2.767,0,5.009-2.242,5.009-5.009C206.839,271.806,204.597,269.563,201.83,269.563z"/>
		<path fill="#2980B9" d="M287.314,269.563h-21.371c-2.767,0-5.009,2.242-5.009,5.009c0,2.767,2.242,5.009,5.009,5.009h21.371
			c2.767,0,5.009-2.242,5.009-5.009C292.323,271.806,290.082,269.563,287.314,269.563z"/>
		<path fill="#2980B9" d="M372.799,269.563h-21.371c-2.768,0-5.009,2.242-5.009,5.009c0,2.767,2.241,5.009,5.009,5.009h21.371
			c2.768,0,5.008-2.242,5.008-5.009C377.807,271.806,375.566,269.563,372.799,269.563z"/>
		<path fill="#2980B9" d="M415.541,269.563H394.17c-2.768,0-5.009,2.242-5.009,5.009c0,2.767,2.241,5.009,5.009,5.009h21.371
			c2.768,0,5.008-2.242,5.008-5.009C420.549,271.806,418.309,269.563,415.541,269.563z"/>
		<path fill="#2980B9" d="M330.057,269.563h-21.371c-2.768,0-5.009,2.242-5.009,5.009c0,2.767,2.241,5.009,5.009,5.009h21.371
			c2.767,0,5.008-2.242,5.008-5.009C335.064,271.806,332.823,269.563,330.057,269.563z"/>
		<path fill="#2980B9" d="M244.572,322.991h-21.371c-2.767,0-5.009,2.241-5.009,5.009s2.242,5.009,5.009,5.009h21.371
			c2.767,0,5.009-2.241,5.009-5.009S247.339,322.991,244.572,322.991z"/>
		<path fill="#2980B9" d="M201.83,322.991h-21.371c-2.767,0-5.009,2.241-5.009,5.009s2.242,5.009,5.009,5.009h21.371
			c2.767,0,5.009-2.241,5.009-5.009S204.597,322.991,201.83,322.991z"/>
		<path fill="#2980B9" d="M372.799,322.991h-21.371c-2.768,0-5.009,2.241-5.009,5.009s2.241,5.009,5.009,5.009h21.371
			c2.768,0,5.008-2.241,5.008-5.009S375.566,322.991,372.799,322.991z"/>
		<path fill="#2980B9" d="M415.541,322.991H394.17c-2.768,0-5.009,2.241-5.009,5.009s2.241,5.009,5.009,5.009h21.371
			c2.768,0,5.008-2.241,5.008-5.009S418.309,322.991,415.541,322.991z"/>
		<path fill="#2980B9" d="M201.83,349.705h-21.371c-2.767,0-5.009,2.242-5.009,5.009s2.242,5.009,5.009,5.009h21.371
			c2.767,0,5.009-2.242,5.009-5.009S204.597,349.705,201.83,349.705z"/>
		<path fill="#2980B9" d="M415.541,349.705H394.17c-2.768,0-5.009,2.242-5.009,5.009s2.241,5.009,5.009,5.009h21.371
			c2.768,0,5.008-2.242,5.008-5.009S418.309,349.705,415.541,349.705z"/>
		<path fill="#2980B9" d="M201.83,376.419h-21.371c-2.767,0-5.009,2.241-5.009,5.009s2.242,5.009,5.009,5.009h21.371
			c2.767,0,5.009-2.241,5.009-5.009S204.597,376.419,201.83,376.419z"/>
		<path fill="#2980B9" d="M415.541,376.419H394.17c-2.768,0-5.009,2.241-5.009,5.009s2.241,5.009,5.009,5.009h21.371
			c2.768,0,5.008-2.241,5.008-5.009S418.309,376.419,415.541,376.419z"/>
		<path fill="none" stroke="#2980B9" stroke-width="9" stroke-miterlimit="10" d="M338.941,363.599c1.957-1.956,1.957-5.128,0-7.083
			s-5.127-1.955-7.084,0l-26.887,26.886c-2.102-1.046-4.468-1.639-6.971-1.639c-6.903,0-12.775,4.481-14.87,10.686h-6.501
			c-2.767,0-5.009,2.241-5.009,5.009c0,2.767,2.242,5.009,5.009,5.009h6.501c0.229,0.675,0.5,1.331,0.814,1.963l-8.755,8.755
			c-1.956,1.957-1.956,5.128,0,7.084c0.979,0.979,2.26,1.467,3.542,1.467s2.564-0.488,3.542-1.467l8.755-8.756
			c2.102,1.047,4.469,1.64,6.972,1.64c6.902,0,12.775-4.481,14.871-10.686h22.528c2.767,0,5.009-2.242,5.009-5.009
			c0-2.768-2.242-5.009-5.009-5.009h-22.528c-0.229-0.677-0.501-1.331-0.814-1.963L338.941,363.599z M298,403.133
			c-3.13,0-5.677-2.547-5.677-5.677s2.546-5.677,5.677-5.677c3.131,0,5.677,2.547,5.677,5.677S301.131,403.133,298,403.133z"/>
	</g>
</g>
</svg>
