<?xml version="1.0" encoding="utf-8"?>
<!-- Generator: Adobe Illustrator 16.0.0, SVG Export Plug-In . SVG Version: 6.00 Build 0)  -->
<!DOCTYPE svg PUBLIC "-//W3C//DTD SVG 1.1//EN" "http://www.w3.org/Graphics/SVG/1.1/DTD/svg11.dtd">
<svg version="1.1" id="Capa_1" xmlns="http://www.w3.org/2000/svg" xmlns:xlink="http://www.w3.org/1999/xlink" x="0px" y="0px"
	 width="600px" height="600px" viewBox="0 0 600 600" enable-background="new 0 0 600 600" xml:space="preserve">
<circle fill="none" stroke="#2980B9" stroke-width="9" stroke-miterlimit="10" cx="300" cy="300" r="286"/>
<g>
	<g>
		<path fill="#2980B9" d="M439.922,239.688c2.991,0,4.985-1.994,4.985-4.985v-69.793c0-2.991-1.994-4.985-4.985-4.985H330.246
			c-2.99,0-4.984,1.994-4.984,4.985v29.911h-59.823v-29.911c0-2.991-1.994-4.985-4.985-4.985H150.778
			c-2.991,0-4.985,1.994-4.985,4.985v69.793c0,2.991,1.994,4.985,4.985,4.985h44.867v24.927h-44.867
			c-2.991,0-4.985,1.994-4.985,4.984v69.794c0,2.991,1.994,4.985,4.985,4.985h89.734v-9.971h-84.749v-59.823h104.69v-9.97h-54.838
			v-24.927h54.838c2.991,0,4.985-1.994,4.985-4.985v-29.911h59.823v29.911c0,2.991,1.994,4.985,4.984,4.985H380.1v24.927h-49.854
			v9.97h104.69v59.823h-84.749v9.971h89.734c2.991,0,4.985-1.994,4.985-4.985v-69.794c0-2.99-1.994-4.984-4.985-4.984h-49.853
			v-24.927H439.922z M255.468,229.717h-99.705v-59.822h99.705V229.717z M335.232,169.895h99.704v59.822h-99.704V169.895z"/>
		<path fill="#2980B9" d="M320.276,354.348h-49.853c-19.442,0-34.896,15.455-34.896,34.897v69.793h9.97v-69.793
			c0-13.959,10.968-24.927,24.926-24.927h6.481l13.958,36.891c0.499,1.496,2.492,2.991,4.486,2.991s3.988-1.495,5.484-2.991
			l13.959-36.891h5.483c13.958,0,24.927,10.968,24.927,24.927v69.793h9.97v-69.793C355.173,369.803,339.719,354.348,320.276,354.348
			z M295.849,385.257l-7.977-20.938h15.953L295.849,385.257z"/>
		<rect x="290.365" y="414.171" fill="#2980B9" width="9.971" height="9.971"/>
		<rect x="290.365" y="434.112" fill="#2980B9" width="9.971" height="9.97"/>
		<path fill="#2980B9" d="M290.365,349.363h9.971c13.958,0,24.926-10.968,24.926-24.927v-14.955
			c0-13.959-10.968-24.927-24.926-24.927h-9.971c-13.958,0-24.926,10.968-24.926,24.927v14.955
			C265.438,338.396,276.406,349.363,290.365,349.363z M275.409,309.481c0-8.476,6.481-14.956,14.956-14.956h9.971
			c8.475,0,14.955,6.48,14.955,14.956v14.955c0,8.475-6.48,14.956-14.955,14.956h-9.971c-8.475,0-14.956-6.481-14.956-14.956
			V309.481z"/>
		<rect x="260.454" y="404.2" fill="#2980B9" width="9.97" height="54.838"/>
		<rect x="320.276" y="404.2" fill="#2980B9" width="9.97" height="54.838"/>
		<rect x="170.719" y="184.85" fill="#2980B9" width="49.852" height="9.971"/>
		<rect x="170.719" y="204.791" fill="#2980B9" width="69.793" height="9.971"/>
		<rect x="350.188" y="289.54" fill="#2980B9" width="49.853" height="9.971"/>
		<rect x="350.188" y="309.481" fill="#2980B9" width="69.794" height="9.97"/>
		<rect x="350.188" y="184.85" fill="#2980B9" width="9.971" height="9.971"/>
		<rect x="370.129" y="184.85" fill="#2980B9" width="9.971" height="9.971"/>
		<rect x="390.069" y="184.85" fill="#2980B9" width="9.971" height="9.971"/>
		<rect x="410.011" y="184.85" fill="#2980B9" width="9.971" height="9.971"/>
		<rect x="350.188" y="204.791" fill="#2980B9" width="9.971" height="9.971"/>
		<rect x="370.129" y="204.791" fill="#2980B9" width="9.971" height="9.971"/>
		<rect x="390.069" y="204.791" fill="#2980B9" width="9.971" height="9.971"/>
		<rect x="410.011" y="204.791" fill="#2980B9" width="9.971" height="9.971"/>
		<rect x="170.719" y="289.54" fill="#2980B9" width="9.97" height="9.971"/>
		<rect x="190.66" y="289.54" fill="#2980B9" width="9.97" height="9.971"/>
		<rect x="210.601" y="289.54" fill="#2980B9" width="9.97" height="9.971"/>
		<rect x="230.542" y="289.54" fill="#2980B9" width="9.971" height="9.971"/>
		<rect x="170.719" y="309.481" fill="#2980B9" width="9.97" height="9.97"/>
		<rect x="190.66" y="309.481" fill="#2980B9" width="9.97" height="9.97"/>
		<rect x="210.601" y="309.481" fill="#2980B9" width="9.97" height="9.97"/>
		<rect x="230.542" y="309.481" fill="#2980B9" width="9.971" height="9.97"/>
	</g>
</g>
</svg>
