<?xml version="1.0" encoding="utf-8"?>
<!-- Generator: Adobe Illustrator 16.0.0, SVG Export Plug-In . SVG Version: 6.00 Build 0)  -->
<!DOCTYPE svg PUBLIC "-//W3C//DTD SVG 1.1//EN" "http://www.w3.org/Graphics/SVG/1.1/DTD/svg11.dtd">
<svg version="1.1" id="Capa_1" xmlns="http://www.w3.org/2000/svg" xmlns:xlink="http://www.w3.org/1999/xlink" x="0px" y="0px"
	 width="600px" height="600px" viewBox="0 0 600 600" enable-background="new 0 0 600 600" xml:space="preserve">
<circle fill="none" stroke="#FFFFFF" stroke-width="9" stroke-miterlimit="10" cx="300" cy="300" r="286"/>
<g>
	<path fill="#FFFFFF" d="M311.297,241.737h64.049c4.168,0,7.548-3.379,7.548-7.548s-3.38-7.548-7.548-7.548h-64.049
		c-4.167,0-7.547,3.379-7.547,7.548S307.129,241.737,311.297,241.737z"/>
	<path fill="#FFFFFF" d="M311.297,271.928h64.049c4.168,0,7.548-3.379,7.548-7.548s-3.38-7.548-7.548-7.548h-64.049
		c-4.167,0-7.547,3.379-7.547,7.548S307.129,271.928,311.297,271.928z"/>
	<path fill="#FFFFFF" d="M413.085,408.809c-4.168,0-7.548,3.379-7.548,7.547v7.549H196.463v-7.549c0-4.168-3.38-7.547-7.548-7.547
		s-7.548,3.379-7.548,7.547v15.096c0,4.17,3.38,7.549,7.548,7.549h224.17c4.168,0,7.548-3.379,7.548-7.549v-15.096
		C420.633,412.188,417.254,408.809,413.085,408.809z"/>
	<path fill="#FFFFFF" d="M413.085,371.07c-4.168,0-7.548,3.379-7.548,7.547v7.547H196.463v-7.547c0-4.168-3.38-7.547-7.548-7.547
		s-7.548,3.379-7.548,7.547v15.096c0,4.168,3.38,7.547,7.548,7.547h224.17c4.168,0,7.548-3.379,7.548-7.547v-15.096
		C420.633,374.449,417.254,371.07,413.085,371.07z"/>
	<path fill="#FFFFFF" d="M413.085,333.33c-4.168,0-7.548,3.379-7.548,7.547v7.549H196.463v-7.549c0-4.168-3.38-7.547-7.548-7.547
		s-7.548,3.379-7.548,7.547v15.096c0,4.17,3.38,7.549,7.548,7.549h224.17c4.168,0,7.548-3.379,7.548-7.549v-15.096
		C420.633,336.709,417.254,333.33,413.085,333.33z"/>
	<path fill="#FFFFFF" d="M226.654,283.25h48.306c4.168,0,7.548-3.379,7.548-7.548c0-4.168-3.38-7.548-7.548-7.548h-48.306
		c-4.168,0-7.548,3.38-7.548,7.548C219.106,279.871,222.486,283.25,226.654,283.25z"/>
	<path fill="#FFFFFF" d="M250.807,260.606c12.485,0,22.643-10.157,22.643-22.643c0-12.486-10.158-22.644-22.643-22.644
		c-12.486,0-22.644,10.157-22.644,22.644C228.164,250.449,238.321,260.606,250.807,260.606z M250.807,230.416
		c4.162,0,7.548,3.386,7.548,7.548c0,4.161-3.386,7.548-7.548,7.548c-4.162,0-7.548-3.387-7.548-7.548
		C243.259,233.801,246.645,230.416,250.807,230.416z"/>
	<path fill="#FFFFFF" d="M413.085,172.787h-224.17c-4.168,0-7.548,3.379-7.548,7.548v137.9c0,4.168,3.38,7.549,7.548,7.549h224.17
		c4.168,0,7.548-3.381,7.548-7.549v-137.9C420.633,176.166,417.254,172.787,413.085,172.787z M405.537,310.688H196.463V187.882
		h209.074V310.688z"/>
</g>
</svg>
