<?xml version="1.0" encoding="utf-8"?>
<!-- Generator: Adobe Illustrator 16.0.0, SVG Export Plug-In . SVG Version: 6.00 Build 0)  -->
<!DOCTYPE svg PUBLIC "-//W3C//DTD SVG 1.1//EN" "http://www.w3.org/Graphics/SVG/1.1/DTD/svg11.dtd">
<svg version="1.1" id="Capa_1" xmlns="http://www.w3.org/2000/svg" xmlns:xlink="http://www.w3.org/1999/xlink" x="0px" y="0px"
	 width="600px" height="600px" viewBox="0 0 600 600" enable-background="new 0 0 600 600" xml:space="preserve">
<path display="none" fill="#2980B9" stroke="#2980B9" stroke-width="3" stroke-miterlimit="10" d="M455.192,188.88h-84.066V173.18
	c4.917-1.68,8.917-5.659,10.466-10.798c1.262-4.193,0.816-8.626-1.255-12.484c-2.073-3.858-5.524-6.679-9.717-7.941
	c-19.314-5.815-42.179-8.888-66.12-8.888s-46.806,3.073-66.12,8.888c-4.193,1.262-7.644,4.083-9.716,7.941
	c-2.072,3.858-2.518,8.292-1.255,12.487c1.267,4.201,4.093,7.655,7.959,9.728c0.812,0.435,1.65,0.792,2.506,1.082v15.687h-84.067
	c-15.195,0-27.557,12.362-27.557,27.557v97.119c0,8.827,4.235,16.957,11.163,22.122v92.845c0,15.195,12.362,27.558,27.557,27.558
	H444.03c15.194,0,27.558-12.362,27.558-27.558v-92.845c6.928-5.165,11.162-13.295,11.162-22.122v-97.119
	C482.75,201.243,470.388,188.88,455.192,188.88z M237.884,154.849c0.749-1.396,1.997-2.416,3.513-2.872
	c18.349-5.524,40.169-8.445,63.103-8.445c22.935,0,44.755,2.92,63.104,8.445c1.518,0.456,2.764,1.476,3.515,2.872
	c0.749,1.395,0.91,3,0.454,4.515c-0.75,2.487-3.082,4.225-5.673,4.225c-0.579,0-1.154-0.085-1.715-0.255
	c-17.249-5.194-37.887-7.941-59.685-7.941c-21.797,0-42.436,2.747-59.691,7.942c-1.51,0.457-3.106,0.298-4.497-0.448
	c-1.4-0.75-2.424-2.002-2.883-3.522C236.972,157.849,237.133,156.244,237.884,154.849z M248.339,173.208
	c16.183-4.807,35.584-7.349,56.161-7.349c20.578,0,39.981,2.543,56.16,7.349v15.673H248.339V173.208z M444.03,445.615H164.97
	c-9.424,0-17.092-7.668-17.092-17.092v-87.546c42.979,17.697,88.226,27.907,134.646,30.382v1.352
	c0,12.117,9.858,21.976,21.976,21.976c12.118,0,21.977-9.858,21.977-21.976v-1.353c46.421-2.475,91.667-12.684,134.646-30.381
	v87.546C461.123,437.947,453.455,445.615,444.03,445.615z M360.66,357.543c-11.313,1.595-22.721,2.708-34.201,3.335
	c-0.356-11.809-10.066-21.305-21.959-21.305c-11.892,0-21.602,9.496-21.959,21.305c-11.48-0.627-22.886-1.74-34.201-3.335v-46.226
	c0-6.346,5.164-11.51,11.511-11.51h89.3c6.346,0,11.51,5.164,11.51,11.51V357.543z M316.012,361.549v11.162
	c0,6.348-5.164,11.512-11.512,11.512c-6.347,0-11.512-5.164-11.512-11.512v-11.162c0-6.348,5.165-11.512,11.512-11.512
	C310.848,350.037,316.012,355.201,316.012,361.549z M472.285,313.557c0,6.881-4.162,13.1-10.603,15.844
	c-29.206,12.442-59.514,21.31-90.557,26.528v-44.611c0-12.117-9.858-21.976-21.976-21.976h-89.3
	c-12.118,0-21.976,9.858-21.976,21.976v44.611c-31.044-5.218-61.351-14.086-90.557-26.528c-6.442-2.744-10.604-8.963-10.604-15.844
	v-97.119c0-9.425,7.668-17.092,17.093-17.092h301.385c9.425,0,17.093,7.667,17.093,17.092V313.557z"/>
<g id="Layer_2">
</g>
<circle fill="none" stroke="#2980B9" stroke-width="14" stroke-miterlimit="10" cx="300.981" cy="300.309" r="286"/>
<g display="none">
	<g display="inline">
		<path fill="#2980B9" stroke="#2980B9" stroke-miterlimit="10" d="M300.514,513.803c-116.943,0-212.072-95.104-212.072-212.007
			c0-116.956,95.129-212.098,212.072-212.098c116.93,0,212.046,95.143,212.046,212.098
			C512.546,418.699,417.431,513.803,300.514,513.803z M300.514,102.605c-109.818,0-199.165,89.359-199.165,199.19
			c0,109.792,89.347,199.112,199.165,199.112c109.805,0,199.139-89.32,199.139-199.112
			C499.64,191.965,410.318,102.605,300.514,102.605z"/>
	</g>
	<path display="inline" fill="#2980B9" stroke="#2980B9" stroke-miterlimit="10" d="M362.147,382.713
		c-1.858,0-3.692-0.801-4.97-2.348l-61.635-74.479c-0.954-1.148-1.483-2.607-1.483-4.104V178.037c0-3.563,2.892-6.454,6.454-6.454
		c3.562,0,6.454,2.891,6.454,6.454v121.435l60.148,72.684c2.284,2.736,1.885,6.801-0.852,9.072
		C365.064,382.223,363.593,382.713,362.147,382.713z"/>
</g>
<g display="none">
	<path display="inline" fill="#2980B9" stroke="#2980B9" stroke-miterlimit="10" d="M417.186,209.841H361.38
		c-3.722-33.709-19.387-57.996-39.623-72.837h95.431c4.545,0,8.244-3.699,8.244-8.245c-0.002-4.546-3.699-8.245-8.246-8.245H182.61
		c-4.547,0-8.245,3.699-8.245,8.245s3.698,8.245,8.245,8.245h99.715c26.642,4.923,56.984,27.09,62.59,72.837H182.61
		c-4.547,0-8.245,3.699-8.245,8.246c0,4.546,3.698,8.244,8.245,8.244h163.364c-0.329,22.921-8.174,41.507-23.556,55.217
		c-43.604,38.751-132.624,28.856-133.495,28.786c-3.298-0.329-6.666,1.318-8.245,4.335c-1.602,2.989-1.178,6.665,1.037,9.257
		l156.533,181.222c1.627,1.886,3.934,2.851,6.242,2.851c1.91,0,3.842-0.66,5.395-2.003c3.441-2.969,3.817-8.174,0.849-11.638
		L207.037,328.001c31,0.802,90.411-2.19,126.311-34.109c19.058-16.938,28.786-39.716,29.116-67.561h54.724
		c4.545,0,8.244-3.698,8.244-8.244C425.43,213.54,421.758,209.841,417.186,209.841z"/>
</g>
<path id="Graduate_1_" display="none" fill="#2980B9" stroke="#2980B9" stroke-miterlimit="10" d="M512.075,430.047l-22.262-44.537
	V258.643c0-1.391-0.525-2.609-1.254-3.679c-0.069-0.116-0.15-0.221-0.226-0.333c-0.22-0.285-0.401-0.584-0.662-0.829
	c-0.479-0.516-1.012-0.986-1.645-1.335L291.1,145.246c-2.003-1.1-4.425-1.1-6.429,0L89.751,252.467
	c-2.075,1.143-3.39,3.311-3.449,5.681c-0.052,2.376,1.158,4.598,3.182,5.838l88.376,54.13c0,0.022-0.011,0.037-0.011,0.037v103.392
	c0,2.313,1.197,4.462,3.169,5.675c35.7,21.995,71.524,32.993,107.23,32.993c35.72-0.004,71.315-11.008,106.541-33.016
	c1.945-1.217,3.13-3.354,3.13-5.652V318.173c0,0-0.012-0.034-0.012-0.055l78.576-48.126V385.51l-22.274,44.537
	c-1.034,2.065-0.924,4.519,0.293,6.484c1.21,1.962,3.356,3.16,5.669,3.16h45.941c2.311,0,4.452-1.194,5.669-3.16
	C512.999,434.565,513.109,432.112,512.075,430.047z M384.593,417.822c-64.579,39.113-127.924,39.104-193.415-0.029v-91.521
	l93.226,57.103c1.067,0.658,2.277,0.983,3.482,0.983c1.203,0,2.414-0.329,3.482-0.983l93.225-57.102V417.822z M287.886,369.878
	L106.229,258.613l181.657-99.926l181.663,99.926L287.886,369.878z M470.954,426.364l12.195-24.381l12.183,24.381H470.954z"/>
<path display="none" fill="#2980B9" stroke="#2980B9" stroke-miterlimit="10" d="M427.616,383.239l-48.715-21.1
	c-1.147-0.572-2.418-1.973-3.51-3.844l32.525-0.023c0.567,0.055,13.978,1.281,24.729-3.34c4.072-1.754,7.104-5.219,8.32-9.506
	c1.226-4.328,0.448-8.908-2.123-12.576c-9.297-13.23-30.996-47.799-31.674-82.862c-0.015-0.602-1.979-60.229-60.863-60.714
	c-8.668,0.07-16.684,1.541-23.977,4.252c-1.59-4.052-3.933-8.28-7.417-12.258c-10.233-11.684-26.847-17.606-49.383-17.606
	c-22.536,0-39.15,5.922-49.389,17.596c-11.804,13.464-10.707,29.789-10.428,32.525v26.514c-3.19,3.633-4.985,8.284-4.985,13.085
	v19.939c0,6.066,2.756,11.724,7.462,15.497c4.565,18.08,14.122,31.703,17.461,36.074v16.496c0,4.824-2.632,9.25-6.864,11.563
	l-44.469,24.258c-14.461,7.895-23.438,23.02-23.438,39.488v21.125h219.327h9.971h69.785v-18.43
	C449.963,403.981,441.399,390.134,427.616,383.239z M370.207,427.854H160.85v-11.156c0-12.816,6.989-24.594,18.239-30.727
	l44.468-24.254c7.443-4.064,12.063-11.854,12.063-20.324V321.36l-1.162-1.385c-0.12-0.145-12.337-14.925-16.998-35.218l-0.453-1.974
	l-1.7-1.098c-2.887-1.864-4.611-4.989-4.611-8.358v-19.939c0-2.796,1.187-5.403,3.34-7.353l1.645-1.48v-31.044l-0.045-0.653
	c-0.015-0.135-1.71-13.952,8-25.028c8.26-9.421,22.356-14.196,41.892-14.196c19.465,0,33.532,4.74,41.802,14.097
	c4.111,4.646,6.18,9.834,7.212,14.291c0.08,0.349,0.154,0.692,0.224,1.037c0.07,0.354,0.146,0.708,0.201,1.046
	c0.063,0.389,0.119,0.758,0.174,1.127c0.039,0.264,0.08,0.533,0.109,0.788c0.074,0.618,0.135,1.216,0.174,1.77
	c0.006,0.045,0.006,0.085,0.006,0.129c0.035,0.539,0.06,1.047,0.074,1.511c0,0.09,0,0.165,0.005,0.254
	c0.011,0.414,0.011,0.808,0.005,1.152c0,0.05,0,0.099,0,0.149c-0.02,1.171-0.1,1.87-0.1,1.885l-0.039,31.688l1.645,1.485
	c2.154,1.944,3.34,4.552,3.34,7.348v19.939c0,4.352-2.852,8.16-7.088,9.466l-2.482,0.763l-0.799,2.468
	c-3.334,10.373-8.084,19.953-14.125,28.477c-1.481,2.1-2.921,3.957-4.173,5.379l-1.241,1.416v20.563c0,1.26,0.125,2.496,0.319,3.713
	c0.039,0.26,0.109,0.508,0.159,0.768c0.194,1.002,0.454,1.984,0.772,2.941c0.075,0.223,0.155,0.438,0.239,0.662
	c0.388,1.041,0.842,2.049,1.371,3.016c0.06,0.111,0.116,0.225,0.174,0.334c0.724,1.277,1.556,2.488,2.512,3.604l1.137,1.4h0.195
	c1.708,1.686,3.673,3.152,5.906,4.268l47.619,23.807c11.938,5.963,19.351,17.955,19.351,31.299V427.854z M439.993,427.854h-59.815
	v-10.186c0-17.143-9.527-32.549-24.854-40.215l-34.186-17.1c0.843-1.922,0.951-4.127,0.215-6.25
	c-1.222-3.514-4.412-5.781-8.125-5.781h-11.052c-0.229-0.404-0.378-0.848-0.563-1.277c-0.249-0.572-0.544-1.137-0.708-1.74
	c-0.305-1.105-0.484-2.262-0.484-3.447v-16.854c1.143-1.396,2.344-2.986,3.585-4.742c6.176-8.723,11.126-18.433,14.725-28.906
	c7.033-3.225,11.599-10.179,11.599-18.029v-19.939c0-4.8-1.794-9.451-4.984-13.084V213.79c0.13-1.246,0.41-5.329-0.418-10.662
	c6.42-2.522,13.612-3.824,21.384-3.888c49.055,0.403,50.844,48.905,50.894,50.949c0.733,37.799,23.658,74.406,33.483,88.39
	c0.842,1.193,1.096,2.699,0.692,4.121c-0.229,0.818-0.887,2.303-2.667,3.066c-8.374,3.604-19.734,2.58-20.317,2.557h-34.31
	c-3.206,0-6.126,1.629-7.816,4.355c-1.685,2.717-1.844,6.037-0.429,8.889c1.561,3.145,4.316,7.346,8.848,9.605l48.587,21.045
	c10.313,5.209,16.718,15.607,16.718,27.176V427.854z"/>
<g display="none">
	<path display="inline" fill="#2980B9" stroke="#2980B9" stroke-miterlimit="10" d="M308.933,278.984
		c21.131,0,38.319-17.194,38.319-38.319c0-21.124-17.188-38.318-38.319-38.318c-21.129,0-38.318,17.194-38.318,38.318
		C270.614,261.79,287.803,278.984,308.933,278.984z M308.933,213.295c15.093,0,27.371,12.278,27.371,27.37
		c0,15.093-12.278,27.371-27.371,27.371c-15.091,0-27.37-12.278-27.37-27.371C281.563,225.573,293.841,213.295,308.933,213.295z"/>
	<path display="inline" fill="#2980B9" stroke="#2980B9" stroke-miterlimit="10" d="M307.964,436.404l83.979-121.291
		c31.498-41.998,26.938-111.015-9.749-147.702c-19.827-19.833-46.19-30.754-74.229-30.754c-28.038,0-54.401,10.921-74.229,30.748
		c-36.693,36.688-41.253,105.716-9.875,147.538L307.964,436.404z M241.476,175.146c17.758-17.758,41.374-27.54,66.488-27.54
		c25.115,0,48.726,9.782,66.489,27.54c33.112,33.113,37.19,95.452,8.61,133.563l-75.1,108.458l-75.22-108.622
		C204.279,270.598,208.357,208.259,241.476,175.146z"/>
	<path display="inline" fill="#2980B9" stroke="#2980B9" stroke-miterlimit="10" d="M142.771,451.891l-3.87,3.869
		c-2.14,2.141-2.14,5.601,0,7.741c1.067,1.066,2.469,1.604,3.87,1.604s2.803-0.537,3.87-1.604l3.871-3.871
		c2.14-2.14,2.14-5.6,0-7.739C148.372,449.75,144.912,449.75,142.771,451.891z"/>
	<path display="inline" fill="#2980B9" stroke="#2980B9" stroke-miterlimit="10" d="M184.462,421.312
		c-3.021,0-5.474,2.446-5.474,5.474s2.453,5.475,5.474,5.475h9.963c3.022,0,5.474-2.447,5.474-5.475s-2.452-5.474-5.474-5.474
		H184.462z"/>
	<path display="inline" fill="#2980B9" stroke="#2980B9" stroke-miterlimit="10" d="M171.647,430.754c-2.14-2.14-5.6-2.14-7.74,0
		l-7.045,7.046c-2.141,2.141-2.141,5.6,0,7.74c1.067,1.067,2.469,1.604,3.87,1.604s2.803-0.537,3.87-1.604l7.045-7.046
		C173.788,436.354,173.788,432.89,171.647,430.754z"/>
	<path display="inline" fill="#2980B9" stroke="#2980B9" stroke-miterlimit="10" d="M244.256,421.312
		c-3.021,0-5.474,2.446-5.474,5.474s2.453,5.475,5.474,5.475h9.963c3.021,0,5.474-2.447,5.474-5.475s-2.453-5.474-5.474-5.474
		H244.256z"/>
	<path display="inline" fill="#2980B9" stroke="#2980B9" stroke-miterlimit="10" d="M214.357,421.312
		c-3.022,0-5.474,2.446-5.474,5.474s2.452,5.475,5.474,5.475h9.968c3.021,0,5.474-2.447,5.474-5.475s-2.453-5.474-5.474-5.474
		H214.357z"/>
	<path display="inline" fill="#2980B9" stroke="#2980B9" stroke-miterlimit="10" d="M274.15,421.312
		c-3.021,0-5.474,2.446-5.474,5.474s2.453,5.475,5.474,5.475h5.474c3.022,0,5.474-2.447,5.474-5.475s-2.452-5.474-5.474-5.474
		H274.15z"/>
	<path display="inline" fill="#2980B9" stroke="#2980B9" stroke-miterlimit="10" d="M142.771,430.935
		c1.401,0,2.803-0.536,3.87-1.604l21.218-21.218c0.52-0.52,1.089-0.985,1.911-1.489l1.057-0.569c0.191-0.114,0.377-0.229,0.58-0.317
		l2.047-0.629c0.717-0.137,1.44-0.22,2.162-0.22h82.112c3.022,0,5.474-2.446,5.474-5.474s-2.452-5.475-5.474-5.475h-82.112
		c-1.401,0-2.841,0.143-4.33,0.433c-0.525,0.115-1.029,0.269-1.527,0.433l-0.717,0.214c-0.613,0.164-1.226,0.351-1.785,0.58
		c-0.651,0.268-1.265,0.597-1.872,0.947l-0.52,0.284c-0.465,0.235-0.925,0.477-1.407,0.8c-1.21,0.805-2.332,1.729-3.345,2.742
		l-21.218,21.218c-2.141,2.141-2.141,5.6,0,7.74C139.969,430.398,141.37,430.935,142.771,430.935z"/>
	<path display="inline" fill="#2980B9" stroke="#2980B9" stroke-miterlimit="10" d="M456.401,403.285c1.4,0,2.803-0.536,3.869-1.604
		l3.871-3.869c2.141-2.141,2.141-5.601,0-7.741s-5.602-2.141-7.74,0l-3.871,3.87c-2.141,2.141-2.141,5.601,0,7.74
		C453.599,402.749,454.999,403.285,456.401,403.285z"/>
	<path display="inline" fill="#2980B9" stroke="#2980B9" stroke-miterlimit="10" d="M435.999,410.473l-8.266,8.266
		c-2.141,2.141-2.141,5.601,0,7.741c1.066,1.066,2.469,1.604,3.869,1.604c1.402,0,2.803-0.537,3.871-1.604l8.266-8.267
		c2.141-2.141,2.141-5.6,0-7.74S438.14,408.332,435.999,410.473z"/>
	<path display="inline" fill="#2980B9" stroke="#2980B9" stroke-miterlimit="10" d="M398.276,421.312
		c-3.027,0-5.475,2.446-5.475,5.474s2.447,5.475,5.475,5.475h11.688c3.027,0,5.475-2.447,5.475-5.475s-2.447-5.474-5.475-5.474
		H398.276z"/>
	<path display="inline" fill="#2980B9" stroke="#2980B9" stroke-miterlimit="10" d="M363.215,421.312
		c-3.022,0-5.474,2.446-5.474,5.474s2.451,5.475,5.474,5.475h11.687c3.022,0,5.475-2.447,5.475-5.475s-2.452-5.474-5.475-5.474
		H363.215z"/>
	<path display="inline" fill="#2980B9" stroke="#2980B9" stroke-miterlimit="10" d="M334.366,421.312
		c-3.021,0-5.475,2.446-5.475,5.474s2.453,5.475,5.475,5.475h5.475c3.021,0,5.474-2.447,5.474-5.475s-2.452-5.474-5.474-5.474
		H334.366z"/>
	<path display="inline" fill="#2980B9" stroke="#2980B9" stroke-miterlimit="10" d="M456.401,424.24l-21.219,21.218
		c-0.514,0.515-1.078,0.974-1.898,1.483l-1.029,0.559c-0.219,0.12-0.434,0.257-0.652,0.345c-0.17,0.07-0.35,0.109-0.531,0.158
		l-1.521,0.46c-0.695,0.143-1.406,0.219-2.123,0.219H180.488l-8.304,6.685c-2.354,1.899-2.731,5.349-0.832,7.696
		c1.079,1.341,2.666,2.042,4.264,2.042c1.205,0,2.419-0.394,3.427-1.21l5.305-4.265h243.079c1.422,0,2.867-0.142,4.264-0.427
		c0.559-0.109,1.084-0.268,1.615-0.443l0.684-0.202c0.613-0.17,1.221-0.351,1.834-0.608c0.641-0.268,1.242-0.591,1.846-0.936
		l0.541-0.296c0.471-0.235,0.932-0.481,1.352-0.766c1.211-0.806,2.344-1.73,3.361-2.754l21.219-21.218c2.141-2.141,2.141-5.6,0-7.74
		S458.54,422.105,456.401,424.24z"/>
	<path display="inline" fill="#2980B9" stroke="#2980B9" stroke-miterlimit="10" d="M350.788,399.415
		c0,3.027,2.453,5.474,5.475,5.474h66.631l18.027-18.025c2.139-2.141,2.139-5.601,0-7.741c-2.141-2.141-5.602-2.141-7.742,0
		L418.36,393.94h-62.098C353.241,393.94,350.788,396.388,350.788,399.415z"/>
</g>
<g display="none">
	<path display="inline" fill="#2980B9" stroke="#2980B9" stroke-miterlimit="10" d="M306.235,150.479
		c0-3.174-2.574-5.748-5.746-5.748H169.662c-3.173,0-5.746,2.574-5.746,5.748v294.167h-26.444c-3.174,0-5.747,2.573-5.747,5.746
		c0,3.175,2.573,5.748,5.747,5.748h32.19h36.901h57.026h36.901h36.904h57.025h36.905h32.19c3.174,0,5.747-2.573,5.747-5.748
		c0-3.173-2.573-5.746-5.747-5.746H437.07V201.069c0-3.174-2.573-5.747-5.746-5.747H306.235V150.479z M212.309,444.646v-63.835
		h45.533v63.835H212.309z M263.59,369.317h-57.027c-3.174,0-5.747,2.573-5.747,5.746v69.583h-25.407V156.225h119.333v44.844v243.578
		h-25.408v-69.583C269.335,371.891,266.763,369.317,263.59,369.317z M343.14,444.646v-63.835h45.534v63.835H343.14z
		 M425.579,206.816v237.831h-25.413v-69.583c0-3.173-2.573-5.746-5.745-5.746h-57.026c-3.174,0-5.747,2.573-5.747,5.746v69.583
		h-25.41V206.816H425.579z"/>
	<path display="inline" fill="#2980B9" stroke="#2980B9" stroke-miterlimit="10" d="M286.28,337.568
		c0-3.173-2.574-5.746-5.748-5.746h-39.71v-40.894h39.71c3.174,0,5.748-2.573,5.748-5.747s-2.574-5.747-5.748-5.747h-39.71v-40.899
		h39.71c3.174,0,5.748-2.573,5.748-5.747c0-3.173-2.574-5.747-5.748-5.747h-39.71v-40.894h39.71c3.174,0,5.748-2.572,5.748-5.746
		s-2.574-5.748-5.748-5.748h-45.458h-45.458c-3.173,0-5.746,2.574-5.746,5.748s2.573,5.746,5.746,5.746h39.711v40.894h-39.711
		c-3.173,0-5.746,2.574-5.746,5.747c0,3.174,2.573,5.747,5.746,5.747h39.711v40.899h-39.711c-3.173,0-5.746,2.574-5.746,5.747
		s2.573,5.747,5.746,5.747h39.711v40.894h-39.711c-3.173,0-5.746,2.573-5.746,5.746c0,3.175,2.573,5.745,5.746,5.745h45.458h45.458
		C283.706,343.313,286.28,340.743,286.28,337.568z"/>
	<path display="inline" fill="#2980B9" stroke="#2980B9" stroke-miterlimit="10" d="M320.444,331.822
		c-3.173,0-5.746,2.573-5.746,5.746c0,3.175,2.573,5.745,5.746,5.745h45.463h45.462c3.173,0,5.746-2.57,5.746-5.745
		c0-3.173-2.573-5.746-5.746-5.746h-39.716v-40.894h39.716c3.173,0,5.746-2.573,5.746-5.747s-2.573-5.747-5.746-5.747h-39.716
		v-40.899h39.716c3.173,0,5.746-2.573,5.746-5.747c0-3.173-2.573-5.747-5.746-5.747h-45.462h-45.463
		c-3.173,0-5.746,2.574-5.746,5.747c0,3.174,2.573,5.747,5.746,5.747h39.717v40.899h-39.717c-3.173,0-5.746,2.574-5.746,5.747
		s2.573,5.747,5.746,5.747h39.717v40.894H320.444L320.444,331.822z"/>
</g>
<g>
	<path fill="#2980B9" stroke="#2980B9" stroke-miterlimit="10" d="M371.445,132.473H230.518c-13.583,0-24.644,11.061-24.644,24.644
		v286.379c0,13.588,11.061,24.648,24.644,24.648h140.921c13.589,0,24.648-11.061,24.648-24.644V157.117
		C396.088,143.534,385.028,132.473,371.445,132.473z M217.063,177.229h167.836v212.592H217.063V177.229z M230.518,143.662h140.921
		c7.423,0,13.46,6.037,13.46,13.455v8.923H217.063v-8.923C217.063,149.699,223.1,143.662,230.518,143.662z M371.445,456.956H230.518
		c-7.418,0-13.455-6.037-13.455-13.455V401.01h167.836v42.491C384.899,450.919,378.862,456.956,371.445,456.956z"/>
	<path fill="#2980B9" stroke="#2980B9" stroke-miterlimit="10" d="M300.98,406.604c-12.341,0-22.377,10.037-22.377,22.378
		c0,12.342,10.036,22.378,22.377,22.378c12.343,0,22.379-10.036,22.379-22.378C323.359,416.642,313.323,406.604,300.98,406.604z
		 M300.98,440.172c-6.169,0-11.188-5.019-11.188-11.189s5.019-11.188,11.188-11.188c6.173,0,11.19,5.018,11.19,11.188
		S307.153,440.172,300.98,440.172z"/>
	<path fill="#2980B9" stroke="#2980B9" stroke-miterlimit="10" d="M278.603,160.446h22.377c3.095,0,5.595-2.501,5.595-5.595
		s-2.5-5.595-5.595-5.595h-22.377c-3.093,0-5.595,2.501-5.595,5.595S275.51,160.446,278.603,160.446z"/>
	<path fill="#2980B9" stroke="#2980B9" stroke-miterlimit="10" d="M317.766,160.446h5.594c3.095,0,5.595-2.501,5.595-5.595
		s-2.5-5.595-5.595-5.595h-5.594c-3.095,0-5.595,2.501-5.595,5.595S314.671,160.446,317.766,160.446z"/>
</g>
</svg>
