<?xml version="1.0" encoding="utf-8"?>
<!-- Generator: Adobe Illustrator 16.0.0, SVG Export Plug-In . SVG Version: 6.00 Build 0)  -->
<!DOCTYPE svg PUBLIC "-//W3C//DTD SVG 1.1//EN" "http://www.w3.org/Graphics/SVG/1.1/DTD/svg11.dtd">
<svg version="1.1" id="Capa_1" xmlns="http://www.w3.org/2000/svg" xmlns:xlink="http://www.w3.org/1999/xlink" x="0px" y="0px"
	 width="600px" height="600px" viewBox="0 0 600 600" enable-background="new 0 0 600 600" xml:space="preserve">
<circle fill="none" stroke="#FFFFFF" stroke-width="9" stroke-miterlimit="10" cx="299" cy="300" r="286"/>
<g>
	<g>
		<path fill="#FFFFFF" d="M382.328,226.964c15.715,0,28.498-12.785,28.498-28.505c0-15.72-12.783-28.506-28.498-28.506
			c-15.729,0-28.526,12.786-28.526,28.506C353.802,214.179,366.599,226.964,382.328,226.964z M382.328,178.751
			c10.863,0,19.7,8.842,19.7,19.708c0,10.865-8.837,19.707-19.7,19.707c-10.878,0-19.729-8.842-19.729-19.707
			C362.6,187.593,371.45,178.751,382.328,178.751z"/>
		<path fill="#FFFFFF" d="M213.872,226.27c15.718,0,28.506-12.786,28.506-28.506c0-15.716-12.788-28.499-28.506-28.499
			c-15.729,0-28.525,12.783-28.525,28.499C185.347,213.483,198.143,226.27,213.872,226.27z M213.872,178.063
			c10.865,0,19.708,8.84,19.708,19.701c0,10.866-8.842,19.707-19.708,19.707c-10.876,0-19.727-8.841-19.727-19.707
			C194.145,186.902,202.996,178.063,213.872,178.063z"/>
		<path fill="#FFFFFF" d="M238.311,364.203h-0.833c-8.752,0-16.367-7.84-16.367-16.59v-99.355c0-3.309,0.82-6.713,1.946-10.122
			c0.444-1.342,0.341-2.875-0.486-4.021c-0.826-1.144-2.027-1.883-3.44-1.883h-34.417c-13.711,0.002-25.188,12.505-25.188,23.154
			v80.499c0,2.428,2.809,4.127,5.239,4.127h12.356v90.676c0,2.428,2.314,3.9,4.742,3.9h56.448c2.428,0,4.794-1.473,4.794-3.9
			v-62.805C243.105,365.453,240.741,364.203,238.311,364.203z M234.308,425.791h-48.389v-89.908c0-2.428-1.625-4.67-4.056-4.67
			h-13.54v-75.826c0-5.73,7.371-14.353,16.391-14.353h28.754c-0.438,2.2-1.155,4.879-1.155,7.226v99.355
			c0,12.391,8.798,22.68,21.995,24.41V425.791L234.308,425.791z"/>
		<path fill="#FFFFFF" d="M364.078,347.613v-99.355c0-12.962-12.899-27.021-30.01-27.021h-71.957
			c-16.351,0-30.003,14.349-30.003,27.021v99.355c0,2.43,2.94,3.395,5.369,3.395h16.626v113.611c0,2.428,2.054,5.162,4.482,5.162
			h79.015c2.429,0,4.482-2.73,4.482-5.162V351.008h16.619C361.131,351.008,364.078,350.043,364.078,347.613z M355.28,342.209h-17.68
			c-2.429,0-4.315,2.975-4.315,5.404v113.369h-70.384V347.613c0-2.43-1.885-5.404-4.315-5.404h-17.68v-93.951
			c0-7.492,9.467-18.223,21.206-18.223h71.959c12.353,0,21.212,10.637,21.212,18.223v93.951H355.28z"/>
		<path fill="#FFFFFF" d="M298.102,204.521c18.826,0,34.139-15.317,34.139-34.145c0-18.834-15.314-34.158-34.139-34.158
			c-18.845,0-34.175,15.323-34.175,34.155C263.926,189.204,279.256,204.521,298.102,204.521z M298.102,145.016
			c13.974,0,25.34,11.376,25.34,25.357c0,13.976-11.366,25.348-25.34,25.348c-13.993,0-25.377-11.371-25.377-25.348
			C272.724,156.392,284.109,145.016,298.102,145.016z"/>
		<path fill="#FFFFFF" d="M411.467,232.234h-34.159c-1.39,0-2.697,1.063-3.527,2.177c-0.83,1.116-0.832,2.759-0.434,4.091
			c0.979,3.278,1.729,6.693,1.729,9.755v99.355c0,8.752-7.624,16.59-16.373,16.59h-0.826c-2.429,0-4.795,1.248-4.795,3.68v63.492
			c0,2.428,2.364,5.412,4.795,5.412h56.454c2.428,0,4.735-2.98,4.735-5.412V340.01h12.357c2.428,0,5.238-1.008,5.238-3.436v-80.488
			C436.662,245.187,425.818,232.234,411.467,232.234z M427.864,331.211H414.33c-2.429,0-4.063,2.932-4.063,5.363v91.414h-48.389
			v-55.967c13.197-1.734,21.995-12.02,21.995-24.408v-99.355c0-2.104-0.684-5.026-1.04-7.226h28.634
			c9.496,0,16.396,9.245,16.396,15.053L427.864,331.211L427.864,331.211z"/>
	</g>
</g>
</svg>
