<?xml version="1.0" encoding="iso-8859-1"?>
<!-- Generator: Adobe Illustrator 19.0.0, SVG Export Plug-In . SVG Version: 6.00 Build 0)  -->
<svg version="1.1" id="Layer_1" xmlns="http://www.w3.org/2000/svg" xmlns:xlink="http://www.w3.org/1999/xlink" x="0px" y="0px"
	 viewBox="0 0 508 508" style="enable-background:new 0 0 508 508;" xml:space="preserve">
<circle style="fill:#54C0EB;" cx="254" cy="254" r="254"/>
<path style="fill:#FFFFFF;" d="M429.8,279.8l14.4-14.4c6.3-6.3,6.3-16.5,0-22.8l-14.4-14.4c-4.6-4.6-6-11.6-3.5-17.6l7.8-18.8
	c3.4-8.2-0.5-17.7-8.7-21.1l-18.8-7.8c-6-2.5-10-8.4-10-14.9v-20.4c0-8.9-7.2-16.2-16.2-16.2H360c-6.5,0-12.4-3.9-14.9-10l-7.8-18.8
	c-3.4-8.2-12.9-12.2-21.1-8.7l-18.8,7.8c-6,2.5-13,1.1-17.6-3.5l-14.4-14.4c-6.3-6.3-16.5-6.3-22.8,0l-14.4,14.4
	c-4.6,4.6-11.6,6-17.6,3.5l-18.8-7.8c-8.2-3.4-17.7,0.5-21.1,8.7l-7.8,18.8c-2.5,6-8.4,10-14.9,10h-20.4c-8.9,0-16.2,7.2-16.2,16.2
	V148c0,6.5-3.9,12.4-10,14.9l-18.8,7.8c-8.2,3.4-12.2,12.9-8.7,21.1l7.8,18.8c2.5,6,1.1,13-3.5,17.6l-14.4,14.4
	c-6.3,6.3-6.3,16.5,0,22.8l14.4,14.4c4.6,4.6,6,11.6,3.5,17.6l-7.8,18.8c-3.4,8.2,0.5,17.7,8.7,21.1l18.8,7.8c6,2.5,10,8.4,10,14.9
	v20.4c0,8.9,7.2,16.2,16.2,16.2H148c6.5,0,12.4,3.9,14.9,10l7.8,18.8c3.4,8.2,12.9,12.2,21.1,8.7l18.8-7.8c6-2.5,13-1.1,17.6,3.5
	l14.4,14.4c6.3,6.3,16.5,6.3,22.8,0l14.4-14.4c4.6-4.6,11.6-6,17.6-3.5l18.8,7.8c8.2,3.4,17.7-0.5,21.1-8.7l7.8-18.8
	c2.5-6,8.4-10,14.9-10h20.4c8.9,0,16.2-7.2,16.2-16.2V360c0-6.5,3.9-12.4,10-14.9l18.8-7.8c8.2-3.4,12.2-12.9,8.7-21.1l-7.8-18.8
	C423.8,291.4,425.2,284.4,429.8,279.8z"/>
<circle style="fill:#E6E9EE;" cx="254" cy="254" r="141.7"/>
<circle style="fill:#FFFFFF;" cx="254" cy="254" r="126.5"/>
<path style="fill:#FF7058;" d="M212.8,314.8c-2.5,0-4.9-1-6.7-2.8l-37.8-39.2c-3.6-3.7-3.4-9.6,0.2-13.1c3.7-3.6,9.6-3.4,13.1,0.2
	l30.3,31.5c19.7-25.4,75.2-92.5,113.4-98c5.1-0.7,9.8,2.8,10.5,7.8c0.7,5.1-2.8,9.8-7.8,10.5c-31.4,4.6-88.5,73.3-107.9,99.4
	c-1.6,2.2-4.1,3.6-6.9,3.7C213.2,314.8,213,314.8,212.8,314.8z"/>
<g>
</g>
<g>
</g>
<g>
</g>
<g>
</g>
<g>
</g>
<g>
</g>
<g>
</g>
<g>
</g>
<g>
</g>
<g>
</g>
<g>
</g>
<g>
</g>
<g>
</g>
<g>
</g>
<g>
</g>
</svg>
