<?xml version="1.0" encoding="iso-8859-1"?>
<!-- Generator: Adobe Illustrator 19.0.0, SVG Export Plug-In . SVG Version: 6.00 Build 0)  -->
<svg xmlns="http://www.w3.org/2000/svg" xmlns:xlink="http://www.w3.org/1999/xlink" version="1.1" id="Layer_1" x="0px" y="0px" viewBox="0 0 512 512" style="enable-background:new 0 0 512 512;" xml:space="preserve" width="512px" height="512px">
<g>
	<g>
		<path d="M256,0C114.842,0,0,114.842,0,256s114.842,256,256,256s256-114.842,256-256S397.158,0,256,0z M256,487.619    C128.284,487.619,24.381,383.716,24.381,256S128.284,24.381,256,24.381S487.619,128.284,487.619,256S383.716,487.619,256,487.619z    " fill="#FFFFFF"/>
	</g>
</g>
<g>
	<g>
		<path d="M256,48.762C141.729,48.762,48.762,141.729,48.762,256S141.729,463.238,256,463.238S463.238,370.271,463.238,256    S370.271,48.762,256,48.762z M256,438.857c-100.827,0-182.857-82.03-182.857-182.857S155.173,73.143,256,73.143    S438.857,155.173,438.857,256S356.827,438.857,256,438.857z" fill="#FFFFFF"/>
	</g>
</g>
<g>
	<g>
		<path d="M358.884,222.503l-93.87-110.387c-2.316-2.723-5.711-4.294-9.287-4.294c-3.575,0-6.971,1.57-9.287,4.294l-93.87,110.387    c-3.256,3.829-3.828,9.263-1.441,13.687c2.387,4.423,7.242,6.93,12.232,6.307l45.096-5.611v106.885    c0,6.733,5.458,12.19,12.19,12.19h73.143c6.733,0,12.19-5.458,12.19-12.19V236.978l42.033,5.509    c5.001,0.655,9.884-1.833,12.292-6.262C362.714,231.797,362.15,226.343,358.884,222.503z M295.374,210.999    c-3.478-0.457-6.986,0.609-9.624,2.923c-2.637,2.315-4.15,5.654-4.15,9.164v108.495h-48.762V223.086    c0-3.495-1.501-6.823-4.12-9.137c-2.62-2.314-6.112-3.391-9.574-2.96l-27.708,3.447l64.293-75.605l64.095,75.372L295.374,210.999z    " fill="#FFFFFF"/>
	</g>
</g>
<g>
	<g>
		<path d="M309.638,380.343H202.362c-6.733,0-12.19,5.458-12.19,12.19c0,6.733,5.458,12.19,12.19,12.19h107.276    c6.733,0,12.19-5.458,12.19-12.19C321.829,385.801,316.371,380.343,309.638,380.343z" fill="#FFFFFF"/>
	</g>
</g>
<g>
</g>
<g>
</g>
<g>
</g>
<g>
</g>
<g>
</g>
<g>
</g>
<g>
</g>
<g>
</g>
<g>
</g>
<g>
</g>
<g>
</g>
<g>
</g>
<g>
</g>
<g>
</g>
<g>
</g>
</svg>
