<?xml version="1.0" encoding="utf-8"?>
<!-- Generator: Adobe Illustrator 16.0.0, SVG Export Plug-In . SVG Version: 6.00 Build 0)  -->
<!DOCTYPE svg PUBLIC "-//W3C//DTD SVG 1.1//EN" "http://www.w3.org/Graphics/SVG/1.1/DTD/svg11.dtd">
<svg version="1.1" id="Capa_1" xmlns="http://www.w3.org/2000/svg" xmlns:xlink="http://www.w3.org/1999/xlink" x="0px" y="0px"
	 width="600px" height="600px" viewBox="0 0 600 600" enable-background="new 0 0 600 600" xml:space="preserve">
<circle fill="none" stroke="#2980B9" stroke-width="9" stroke-miterlimit="10" cx="300" cy="300" r="286"/>
<g>
	<path fill="none" stroke="#2980B9" stroke-width="9" stroke-miterlimit="10" d="M318.918,233.336l-33.62-33.56l6.03-6.029
		c2.923-2.924,2.923-7.613,0-10.537c-2.924-2.923-7.613-2.923-10.537,0l-24.667,24.667l-40.807-40.807
		c-2.924-2.924-7.613-2.924-10.537,0c-2.924,2.923-2.924,7.613,0,10.536l40.808,40.808l-38.128,38.127l-40.807-40.807
		c-2.924-2.924-7.613-2.924-10.537,0c-2.923,2.923-2.923,7.613,0,10.536l40.808,40.808l-24.667,24.667
		c-2.924,2.923-2.924,7.613,0,10.536c1.461,1.462,3.35,2.193,5.299,2.193c1.948,0,3.837-0.731,5.299-2.193l6.029-6.029l33.56,33.56
		c13.277,13.277,30.757,19.916,48.237,19.916c7.187,0,14.435-1.219,21.317-3.472l19.185,19.186
		c3.533,3.472,8.102,5.237,12.729,5.237c4.629,0,9.197-1.766,12.73-5.237l3.715-3.716l2.254,2.254
		c12.607,12.607,33.072,12.607,45.68,0l19.125-19.125c6.76-6.76,17.783-6.76,24.605,0c6.76,6.761,6.76,17.785,0,24.606
		l-19.125,19.186c-6.09,6.091-9.439,14.191-9.439,22.84s3.35,16.749,9.439,22.84c1.463,1.462,3.35,2.192,5.299,2.192
		s3.838-0.73,5.299-2.192c2.924-2.924,2.924-7.613,0-10.537c-3.289-3.289-5.115-7.674-5.115-12.303s1.826-9.015,5.115-12.303
		l19.125-19.186c12.607-12.607,12.607-33.072,0-45.68s-33.072-12.607-45.68,0l-19.125,19.124c-6.76,6.761-17.783,6.761-24.605,0
		l-2.254-2.253l3.715-3.716c3.412-3.41,5.238-7.918,5.238-12.729s-1.889-9.318-5.238-12.729l-19.186-19.185
		C343.16,279.198,337.678,252.156,318.918,233.336z"/>
</g>
</svg>
