<?xml version="1.0" encoding="utf-8"?>
<!-- Generator: Adobe Illustrator 16.0.0, SVG Export Plug-In . SVG Version: 6.00 Build 0)  -->
<!DOCTYPE svg PUBLIC "-//W3C//DTD SVG 1.1//EN" "http://www.w3.org/Graphics/SVG/1.1/DTD/svg11.dtd">
<svg version="1.1" id="Capa_1" xmlns="http://www.w3.org/2000/svg" xmlns:xlink="http://www.w3.org/1999/xlink" x="0px" y="0px"
	 width="600px" height="600px" viewBox="0 0 600 600" enable-background="new 0 0 600 600" xml:space="preserve">
<circle fill="none" stroke="#2980B9" stroke-width="9" stroke-miterlimit="10" cx="301" cy="300" r="286"/>
<g>
	<path fill="#2980B9" d="M276.675,210.619c6.621,9.675,17.744,16.039,30.325,16.039c12.6,0,23.734-6.379,30.353-16.073
		c15.177-8.183,14.999-22.104,14.916-28.092c-0.338-24.698-18.798-43.404-43.894-44.48c-13.236-0.569-20.907,5.882-23.252,8.242
		c-2.05,0.465-6.608,1.854-11.168,5.653c-5.424,4.518-11.962,13.466-12.309,30.438C261.521,188.357,261.245,202.346,276.675,210.619
		z M307,220.831c-17.039,0-30.901-13.863-30.901-30.902v-8.607c7.989-3.03,12.913-11.452,15.332-16.827
		c6.586,6.932,22.778,20.94,46.472,21.666v3.768C337.903,206.969,324.04,220.831,307,220.831z M267.469,182.465
		c0.567-27.673,18.751-30.535,19.508-30.641c0.726-0.093,1.401-0.469,1.872-1.029c0.258-0.307,6.461-7.51,19.276-6.961
		c21.908,0.939,38.023,17.23,38.317,38.738c0.053,3.938,0.133,10.17-3.704,15.799c0.642-2.713,0.99-5.537,0.99-8.442v-3.998
		c1.141-0.438,1.93-1.558,1.869-2.846c-0.076-1.606-1.447-2.858-3.047-2.771c-30.676,1.463-49.577-22.875-49.763-23.118
		l-0.006,0.005c-0.357-0.474-0.854-0.846-1.465-1.032c-1.536-0.471-3.167,0.395-3.638,1.934
		c-0.052,0.173-5.614,17.399-16.599,18.475c-1.602,0.157-2.772,1.583-2.614,3.184c0.109,1.116,0.836,2.02,1.807,2.415v7.751
		c0,2.991,0.368,5.895,1.045,8.68C267.895,193.741,267.354,188.072,267.469,182.465z"/>
	<path fill="#2980B9" d="M308.017,197.684h-3.697c-7.041,0-12.77,5.729-12.77,12.77v3.82c0,1.609,1.304,2.913,2.913,2.913
		c1.61,0,2.914-1.304,2.914-2.913v-3.82c0-3.829,3.115-6.944,6.944-6.944h3.697c3.829,0,6.944,3.115,6.944,6.944v3.82
		c0,1.609,1.303,2.913,2.912,2.913s2.914-1.304,2.914-2.913v-3.82C320.787,203.412,315.059,197.684,308.017,197.684z"/>
	<path fill="#2980B9" d="M309.602,208.97h-6.867c-1.609,0-2.912,1.305-2.912,2.913s1.303,2.913,2.912,2.913h6.867
		c1.609,0,2.913-1.305,2.913-2.913C312.515,210.274,311.211,208.97,309.602,208.97z"/>
	<path fill="#2980B9" d="M442.414,325.432c-7.438-12.383-15.996-20.663-24.777-24.17c4.053-2.391,6.695-6.271,6.695-10.646
		c0-1.608-1.303-2.913-2.913-2.913h-17.615l-37.2-37.565l8.954-10.004c1.073-1.198,0.971-3.04-0.228-4.113
		c-1.198-1.071-3.04-0.971-4.114,0.228l-8.72,9.741c0,0-9.528-9.695-12.754-12.88c-0.01-0.009-0.02-0.015-0.029-0.023
		c-3.347-3.345-7.967-5.412-13.061-5.412h-15.404c-1.488,0-2.737,1.122-2.896,2.602c-0.385,3.581-5.855,6.603-9.087,6.603
		s-8.702-3.021-9.087-6.603c-0.16-1.479-1.409-2.602-2.897-2.602l-26.334,0.001c-0.061-0.001-0.121-0.001-0.182-0.001
		c-6.802,0-12.841,4.585-14.695,11.226c-0.093,0.333-9.246,33.474-12.311,44.451c-2.252,8.07,3.182,17.522,11.401,19.832
		c2.037,0.572,4.924,1.382,8.219,2.307v25.236c0,1.35,0.921,2.473,2.166,2.805v20.774l-33.506,37.432
		c-5.646-4.749-12.71-7.342-20.175-7.342c-8.313,0-16.135,3.209-22.049,9.04l-31.31,22.96c-0.686,0.502-1.117,1.279-1.182,2.127
		c-0.065,0.847,0.243,1.682,0.844,2.282l48.697,48.698c0.549,0.548,1.29,0.853,2.06,0.853c0.073,0,0.148-0.002,0.222-0.008
		c0.847-0.065,1.625-0.497,2.127-1.183l22.959-31.31c11.356-11.521,11.992-29.702,1.913-41.971l29.398-32.844v87.654
		c0,11.735,9.548,21.284,21.284,21.284s21.284-9.548,21.284-21.284v-76.843h1.924v76.843c0,11.735,9.549,21.284,21.285,21.284
		s21.283-9.548,21.283-21.284V333.602c1.434-0.184,2.543-1.394,2.543-2.875v-45.262l27.778,27.571
		c-3.13,3.505-6.146,7.648-8.997,12.396c-7.987,13.3-13.566,29.964-13.566,40.528c0,20.731,21.447,37.6,47.809,37.6
		s47.809-16.868,47.809-37.6C455.979,355.396,450.401,338.731,442.414,325.432z M229.955,433.895
		c-0.105,0.104-0.202,0.217-0.291,0.338l-2.293,3.127l-31.496-31.588c-1.136-1.139-2.98-1.141-4.12-0.006
		c-1.139,1.136-1.142,2.981-0.006,4.12l32.136,32.229l-15.301,20.864l-7.333-7.334l12.099-12.173
		c1.134-1.142,1.128-2.985-0.013-4.119c-1.141-1.134-2.984-1.128-4.12,0.012l-12.087,12.16l-17.491-17.491l6.635-6.668
		c1.134-1.141,1.13-2.985-0.01-4.119c-1.141-1.136-2.986-1.132-4.121,0.01l-6.625,6.657l-2.408-2.408l9.73-9.73
		c1.138-1.138,1.138-2.982,0-4.12c-1.137-1.138-2.983-1.138-4.119,0l-9.73,9.73l-4.302-4.302l28.248-20.715l29.457,29.566
		c0.569,0.57,1.316,0.856,2.064,0.856c0.743,0,1.487-0.282,2.056-0.849c1.139-1.136,1.143-2.98,0.007-4.119l-29.059-29.168
		c4.212-2.882,9.188-4.436,14.402-4.436c6.833,0,13.259,2.661,18.09,7.493C239.929,407.688,239.929,423.919,229.955,433.895z
		 M408.172,297.938c-4.151,0-7.825-1.841-9.45-4.409h18.899C415.996,296.097,412.322,297.938,408.172,297.938z M398.705,301.262
		c-3.972,1.586-7.896,4.145-11.693,7.622l-29.269-29.053l15.105-15.106l22.755,22.978h-0.681c-1.609,0-2.913,1.305-2.913,2.913
		C392.01,294.99,394.652,298.871,398.705,301.262z M324.035,321.298h25.287v6.515h-52.247l52.247-58.37v46.029h-25.287
		c-1.609,0-2.912,1.304-2.912,2.913C321.123,319.993,322.426,321.298,324.035,321.298z M269.205,327.813v-20.689
		c11.655,3.27,24.959,7,24.958,6.999c2.348,0.66,4.764,0.74,7.091,0.286l-11.998,13.404H269.205z M368.75,260.584l-13.603,13.603
		v-11.253l7.563-8.448L368.75,260.584z M355.147,254.198v-7.351l3.456,3.49L355.147,254.198z M261.681,240.464
		c1.168-4.151,4.952-7.004,9.23-6.964h24.117c2.244,5.692,9.387,9.203,14.236,9.203c4.848,0,11.991-3.511,14.235-9.203h13.152
		c6.986,0,12.671,5.684,12.671,12.67v14.537l-35.677,39.857c0.583-7.177-3.972-14.015-11.158-16.037l-25.24-7.1l5.516-17.826
		c0.475-1.537-0.385-3.168-1.922-3.644c-1.535-0.476-3.168,0.386-3.644,1.922l-4.458,14.41h-19.861
		C256.711,258.455,261.616,240.697,261.681,240.464z M256.735,297.572c-5.194-1.458-8.773-7.609-7.365-12.655
		c0.493-1.769,1.146-4.113,1.892-6.801h19.673l-0.138,0.445c-0.231,0.751-0.151,1.563,0.225,2.254
		c0.375,0.69,1.014,1.198,1.77,1.412l28.119,7.909c2.453,0.69,4.492,2.295,5.74,4.52c1.247,2.224,1.554,4.8,0.863,7.255
		c-0.69,2.453-2.295,4.492-4.52,5.739c-2.223,1.247-4.798,1.555-7.256,0.862C295.738,308.513,266.484,300.312,256.735,297.572z
		 M271.371,333.639h12.67l-12.67,14.156V333.639z M286.829,466.151c-8.524,0-15.458-6.935-15.458-15.458v-1.906h30.916v1.906
		C302.287,459.217,295.353,466.151,286.829,466.151z M305.2,368.024c-1.609,0-2.913,1.305-2.913,2.913v72.023h-30.916V356.53
		l20.49-22.891h54.918v15.545l-10.261-10.261c-1.136-1.137-2.982-1.137-4.119,0c-1.138,1.138-1.138,2.982,0,4.12l14.379,14.38
		v75.954h-4.946c-1.609,0-2.912,1.305-2.912,2.914c0,1.608,1.303,2.913,2.912,2.913h4.946v3.757h-30.915v-72.024
		c0-1.608-1.304-2.913-2.913-2.913H305.2z M331.321,466.151c-8.524,0-15.458-6.935-15.458-15.458v-1.906h30.914v1.906
		C346.778,459.217,339.845,466.151,331.321,466.151z M408.172,397.733c-23.149,0-41.982-14.254-41.982-31.773
		c0-6.34,2.287-15.211,5.989-24.099h15.602c1.609,0,2.912-1.305,2.912-2.913s-1.303-2.913-2.912-2.913h-12.973
		c1.271-2.603,2.648-5.16,4.115-7.603c5.215-8.682,15.947-23.246,29.249-23.246c13.3,0,24.033,14.564,29.248,23.246
		c2.998,4.992,5.625,10.453,7.71,15.827h-18.28c-1.609,0-2.913,1.305-2.913,2.914c0,1.608,1.304,2.912,2.913,2.912h20.337
		c1.275,4.032,2.179,7.883,2.63,11.31h-32.563c-1.608,0-2.913,1.305-2.913,2.913s1.305,2.913,2.913,2.913h32.858
		C449.231,384.157,430.761,397.733,408.172,397.733z"/>
	<path fill="#2980B9" d="M280.853,366.879c-1.609,0-2.913,1.304-2.913,2.912v67.857c0,1.608,1.304,2.913,2.913,2.913
		s2.913-1.305,2.913-2.913v-67.857C283.766,368.183,282.462,366.879,280.853,366.879z"/>
	<path fill="#2980B9" d="M320.608,260.295h13.023c1.608,0,2.913-1.305,2.913-2.913s-1.305-2.913-2.913-2.913h-13.023
		c-1.609,0-2.913,1.305-2.913,2.913C317.695,258.991,318.999,260.295,320.608,260.295z"/>
</g>
</svg>
