<?xml version="1.0" encoding="utf-8"?>
<!-- Generator: Adobe Illustrator 16.0.0, SVG Export Plug-In . SVG Version: 6.00 Build 0)  -->
<!DOCTYPE svg PUBLIC "-//W3C//DTD SVG 1.1//EN" "http://www.w3.org/Graphics/SVG/1.1/DTD/svg11.dtd">
<svg version="1.1" id="Capa_1" xmlns="http://www.w3.org/2000/svg" xmlns:xlink="http://www.w3.org/1999/xlink" x="0px" y="0px"
	 width="600px" height="600px" viewBox="0 0 600 600" enable-background="new 0 0 600 600" xml:space="preserve">
<circle fill="none" stroke="#2980B9" stroke-width="9" stroke-miterlimit="10" cx="301" cy="300" r="286"/>
<path fill="#2980B9" d="M463.674,420.743l-79.21-79.208l-1.185-5.939c-1.355-6.789-6.313-12.252-12.937-14.26
	c-6.627-2.008-13.781-0.215-18.675,4.681l-7.279,7.279l-22.141-22.142l68.705-68.705c5.854-5.857,13.255-10.337,21.399-12.959
	c7.146-2.3,13.744-6.337,19.081-11.674c9.218-9.218,14.182-21.475,13.977-34.513c-0.205-13.037-5.563-25.142-15.089-34.085
	c-1.708-1.604-4.12-2.216-6.388-1.62c-2.267,0.597-4.065,2.316-4.765,4.553l-7.729,24.776c-0.899,2.882-2.867,5.24-5.54,6.643
	c-2.672,1.401-5.73,1.679-8.613,0.779c-2.883-0.898-5.241-2.866-6.643-5.539c-1.401-2.673-1.679-5.732-0.78-8.613l7.641-24.492
	c0.702-2.251,0.189-4.706-1.358-6.487c-1.546-1.781-3.904-2.635-6.23-2.254c-8.848,1.441-17.051,5.304-23.723,11.169
	c-11.736,10.319-17.711,25.734-15.98,41.233c1.726,15.452-3.788,30.816-15.125,42.154l-46.238,46.238l-95.387-95.396l1.433-19.955
	c0.188-2.61-1.139-5.096-3.411-6.394l-28.835-16.478c-2.665-1.522-6.017-1.073-8.187,1.096l-12.357,12.358
	c-2.169,2.169-2.618,5.522-1.096,8.186l16.477,28.834c1.217,2.13,3.478,3.428,5.906,3.428c0.162,0,0.325-0.006,0.488-0.018
	l19.962-1.433l95.385,95.393l-68.702,68.703c-5.856,5.855-13.256,10.336-21.4,12.958c-7.146,2.301-13.745,6.337-19.081,11.674
	c-9.219,9.218-14.183,21.476-13.977,34.513c0.206,13.037,5.564,25.143,15.089,34.085c1.708,1.604,4.121,2.217,6.388,1.619
	c2.267-0.597,4.066-2.316,4.764-4.553l7.73-24.776c1.856-5.948,8.203-9.281,14.153-7.421c2.881,0.898,5.239,2.866,6.642,5.538
	c1.401,2.673,1.679,5.733,0.78,8.613l-7.641,24.493c-0.703,2.252-0.189,4.705,1.358,6.487c1.303,1.501,3.184,2.343,5.136,2.343
	c0.363,0,0.729-0.029,1.095-0.089c8.848-1.441,17.05-5.303,23.722-11.169c11.737-10.318,17.711-25.734,15.98-41.232
	c-1.725-15.452,3.788-30.817,15.125-42.154l46.235-46.235l22.142,22.143l-7.276,7.275c-4.895,4.896-6.688,12.051-4.682,18.676
	c2.008,6.624,7.472,11.582,14.26,12.935l5.939,1.186l79.209,79.21c5.716,5.715,13.221,8.572,20.728,8.572
	c7.505-0.002,15.013-2.857,20.727-8.572C475.102,450.771,475.102,432.174,463.674,420.743z M180.089,178.614l-12.912,0.927
	l-11.774-20.605l5.008-5.008l20.605,11.775L180.089,178.614z M256.769,357.389c-14.279,14.279-21.214,33.7-19.027,53.285
	c1.237,11.088-3.04,22.116-11.441,29.504c-1.65,1.449-3.432,2.729-5.32,3.821l3.623-11.614c1.981-6.35,1.371-13.094-1.719-18.985
	c-3.089-5.892-8.289-10.228-14.64-12.209c-2.449-0.764-4.954-1.143-7.448-1.143c-3.975,0-7.918,0.962-11.538,2.861
	c-5.892,3.09-10.229,8.29-12.209,14.641l-3.8,12.184c-2.26-4.515-3.492-9.514-3.574-14.72c-0.146-9.323,3.402-18.086,9.993-24.678
	c3.871-3.871,8.457-6.678,13.629-8.342c10.19-3.281,19.477-8.913,26.853-16.29l124.563-124.562
	c14.277-14.278,21.213-33.7,19.025-53.285c-1.236-11.087,3.04-22.117,11.441-29.504c1.65-1.45,3.432-2.728,5.32-3.822l-3.625,11.615
	c-1.981,6.351-1.369,13.093,1.721,18.986c3.089,5.892,8.288,10.228,14.64,12.208c6.353,1.98,13.095,1.37,18.986-1.719
	c5.892-3.09,10.228-8.289,12.209-14.641l3.801-12.183c2.26,4.515,3.493,9.514,3.574,14.721c0.146,9.322-3.401,18.085-9.992,24.676
	c-3.872,3.872-8.457,6.678-13.63,8.343c-10.19,3.28-19.477,8.914-26.853,16.29L256.769,357.389z M339.731,368.46
	c-2.716-0.542-3.632-2.654-3.899-3.538c-0.268-0.883-0.678-3.147,1.28-5.106l24.177-24.177c1.199-1.198,2.512-1.51,3.553-1.51
	c0.661,0,1.213,0.126,1.555,0.23c0.883,0.268,2.996,1.183,3.539,3.899l0.877,4.394l-26.687,26.686L339.731,368.46L339.731,368.46z
	 M454.052,452.577c-6.124,6.124-16.087,6.122-22.211,0l-75.856-75.856l22.211-22.211l75.857,75.856
	c2.966,2.966,4.599,6.91,4.599,11.105C458.651,445.666,457.018,449.61,454.052,452.577z"/>
</svg>
