<?xml version="1.0" encoding="utf-8"?>
<!-- Generator: Adobe Illustrator 16.0.0, SVG Export Plug-In . SVG Version: 6.00 Build 0)  -->
<!DOCTYPE svg PUBLIC "-//W3C//DTD SVG 1.1//EN" "http://www.w3.org/Graphics/SVG/1.1/DTD/svg11.dtd">
<svg version="1.1" id="Capa_1" xmlns="http://www.w3.org/2000/svg" xmlns:xlink="http://www.w3.org/1999/xlink" x="0px" y="0px"
	 width="600px" height="600px" viewBox="0 0 600 600" enable-background="new 0 0 600 600" xml:space="preserve">
<circle fill="none" stroke="#2980B9" stroke-width="9" stroke-miterlimit="10" cx="301" cy="300" r="286"/>
<g>
	<g>
		<path fill="#2980B9" d="M445.563,185.629H421.79v-33.336c0-3.498-2.836-6.334-6.334-6.334H169.639
			c-3.498,0-6.334,2.836-6.334,6.334v79.341c0,3.498,2.836,6.335,6.334,6.335h245.817c3.499,0,6.335-2.837,6.335-6.335v-33.336
			h17.438v71.625l-148.246,37.749c-2.806,0.714-4.771,3.242-4.771,6.138v43.962h-12.612c-3.499,0-6.334,2.836-6.334,6.335v93.51
			c0,3.497,2.835,6.335,6.334,6.335h37.894c3.498,0,6.334-2.838,6.334-6.335v-93.51c0-3.498-2.836-6.334-6.334-6.334h-12.612v-39.04
			l148.245-37.748c2.807-0.714,4.771-3.242,4.771-6.138v-82.883C451.898,188.466,449.063,185.629,445.563,185.629z M409.122,225.3
			H175.974v-66.672h233.148V225.3z M305.16,370.44v80.841h-25.224V370.44H305.16z"/>
	</g>
</g>
<g>
	<g>
		<path fill="#2980B9" d="M254.294,195.339h-7.084c-3.499,0-6.335,2.837-6.335,6.335c0,3.497,2.836,6.334,6.335,6.334h7.084
			c3.498,0,6.334-2.837,6.334-6.334C260.628,198.176,257.792,195.339,254.294,195.339z"/>
	</g>
</g>
<g>
	<g>
		<path fill="#2980B9" d="M391.725,195.339H281.213c-3.499,0-6.335,2.837-6.335,6.335c0,3.497,2.836,6.334,6.335,6.334h110.511
			c3.498,0,6.334-2.837,6.334-6.334C398.059,198.176,395.223,195.339,391.725,195.339z"/>
	</g>
</g>
</svg>
