<?xml version="1.0" encoding="utf-8"?>
<!-- Generator: Adobe Illustrator 16.0.0, SVG Export Plug-In . SVG Version: 6.00 Build 0)  -->
<!DOCTYPE svg PUBLIC "-//W3C//DTD SVG 1.1//EN" "http://www.w3.org/Graphics/SVG/1.1/DTD/svg11.dtd">
<svg version="1.1" id="Capa_1" xmlns="http://www.w3.org/2000/svg" xmlns:xlink="http://www.w3.org/1999/xlink" x="0px" y="0px"
	 width="600px" height="600px" viewBox="0 0 600 600" enable-background="new 0 0 600 600" xml:space="preserve">
<circle fill="none" stroke="#2980B9" stroke-width="9" stroke-miterlimit="10" cx="301" cy="300" r="286"/>
<g>
	<path fill="none" stroke="#2980B9" stroke-width="4" stroke-miterlimit="10" d="M303.637,166.23
		c-13.131,0-23.815,10.684-23.815,23.816s10.684,23.816,23.815,23.816c13.134,0,23.816-10.684,23.816-23.816
		S316.77,166.23,303.637,166.23z M303.637,202.521c-6.877,0-12.475-5.597-12.475-12.475c0-6.879,5.598-12.475,12.475-12.475
		c6.879,0,12.477,5.596,12.477,12.475C316.113,196.924,310.516,202.521,303.637,202.521z"/>
	<path fill="none" stroke="#2980B9" stroke-width="4" stroke-miterlimit="10" d="M388.494,445.593
		c4.873-2.646,7.328-8.479,5.543-13.933l-5.644-17.246c-0.975-2.975-3.048-5.394-5.84-6.808c-2.792-1.417-5.97-1.659-8.944-0.685
		l-0.357,0.116l-31.634-96.654c2.306-0.72,3.98-2.871,3.98-5.414v-12.098c0-9.798-7.97-17.769-17.768-17.769h-3.917
		c2.242-3.631,3.539-7.903,3.539-12.474c0-4.651-1.345-8.992-3.658-12.661c5.506-0.959,9.707-5.759,9.707-11.534v-6.426h18.524
		c9.798,0,17.767-7.971,17.767-17.768v-48.389c0-9.797-7.969-17.767-17.767-17.767h-19.835c-0.164,0-0.308-0.105-0.358-0.259
		l-1.913-5.738c-2.422-7.266-9.196-12.149-16.855-12.149h-18.854c-7.66,0-14.434,4.883-16.856,12.149l-1.913,5.738
		c-0.051,0.155-0.195,0.259-0.358,0.259h-19.834c-9.797,0-17.768,7.97-17.768,17.767v48.389c0,9.797,7.97,17.768,17.768,17.768
		h18.523v6.426c0,1.392,0.257,2.722,0.705,3.961l-17.384,6.209c-1.68-2.132-3.829-3.874-6.355-5.067
		c-4.291-2.028-9.111-2.262-13.563-0.664l-36.292,12.963c-9.224,3.295-14.049,13.482-10.754,22.708
		c2.519,7.055,9.243,11.795,16.732,11.795c2.042,0,4.054-0.351,5.978-1.04l36.292-12.963c7.356-2.628,11.908-9.641,11.781-17.054
		l21.653-7.732c-1.748,3.312-2.743,7.08-2.743,11.079c0,4.57,1.297,8.844,3.539,12.475h-3.917c-9.797,0-17.767,7.971-17.767,17.768
		v12.098c0,2.543,1.674,4.695,3.98,5.414l-31.633,96.655l-0.358-0.116c-2.976-0.974-6.151-0.732-8.944,0.684
		c-2.792,1.415-4.867,3.834-5.84,6.809l-5.644,17.245c-0.974,2.976-0.73,6.152,0.684,8.943c1.09,2.15,2.779,3.869,4.854,4.991
		c-6.732,2.529-11.537,9.032-11.537,16.639v12.097c0,3.132,2.539,5.671,5.67,5.671h24.195c3.131,0,5.67-2.539,5.67-5.671v-12.097
		c0-4.486-1.674-8.587-4.428-11.718c0.968-0.21,1.918-0.534,2.824-0.994c2.792-1.415,4.866-3.833,5.84-6.808l3.633-11.103h35.227
		v12.476c0,3.099,1.216,5.912,3.188,8.009c-2.007,2.878-3.188,6.371-3.188,10.138v12.097c0,3.132,2.538,5.671,5.671,5.671h24.193
		c3.133,0,5.671-2.539,5.671-5.671v-12.097c0-3.767-1.182-7.26-3.188-10.138c1.971-2.097,3.188-4.91,3.188-8.009V431.61h35.228
		l3.634,11.102c0.973,2.975,3.046,5.394,5.839,6.809c0.907,0.46,1.856,0.784,2.823,0.994c-2.753,3.131-4.427,7.231-4.427,11.718
		v12.097c0,3.132,2.537,5.671,5.67,5.671h24.194c3.132,0,5.671-2.539,5.671-5.671v-12.097
		C400.037,454.624,395.229,448.122,388.494,445.593z M355.306,416.523c-0.604,1.194-0.982,2.459-1.155,3.747h-34.217
		c-2.001-3.603-5.843-6.048-10.248-6.048h-0.377V310.64h20.461l32.704,99.926l-0.36,0.118
		C359.139,411.657,356.722,413.731,355.306,416.523z M297.589,444.465c-0.208,0-0.378-0.17-0.378-0.379v-18.145
		c0-0.209,0.17-0.379,0.378-0.379h12.099c0.207,0,0.377,0.17,0.377,0.379v18.145c0,0.209-0.17,0.379-0.377,0.379H297.589z
		 M273.017,190.046c0-16.885,13.737-30.622,30.62-30.622c16.887,0,30.622,13.736,30.622,30.622
		c0,16.884-13.735,30.621-30.622,30.621C286.754,220.667,273.017,206.931,273.017,190.046z M358.452,165.852v48.389
		c0,3.544-2.882,6.427-6.426,6.427h-19.741c8.186-7.663,13.314-18.551,13.314-30.621c0-12.07-5.129-22.959-13.314-30.622h19.741
		C355.57,159.425,358.452,162.308,358.452,165.852z M288.114,145.674c0.876-2.629,3.325-4.395,6.097-4.395h18.854
		c2.771,0,5.221,1.766,6.096,4.395l1.913,5.738c0.066,0.198,0.144,0.388,0.22,0.58c-5.37-2.501-11.351-3.908-17.656-3.908
		c-6.304,0-12.283,1.406-17.654,3.909c0.074-0.192,0.153-0.383,0.219-0.581L288.114,145.674z M248.823,214.24v-48.389
		c0-3.544,2.883-6.427,6.426-6.427h19.741c-8.186,7.662-13.314,18.551-13.314,30.622c0,12.07,5.129,22.958,13.314,30.621h-19.741
		C251.706,220.667,248.823,217.784,248.823,214.24z M322.161,232.008v6.426c0,0.209-0.17,0.378-0.378,0.378h-36.291
		c-0.209,0-0.379-0.169-0.379-0.378v-6.426H322.161z M245.314,265.655l-36.296,12.965c-0.698,0.25-1.424,0.377-2.158,0.377
		c-2.708,0-5.14-1.715-6.051-4.268c-1.192-3.338,0.553-7.022,3.89-8.214l36.299-12.965c0.705-0.252,1.433-0.378,2.16-0.378
		c0.933,0,1.864,0.207,2.734,0.618c1.556,0.736,2.732,2.032,3.311,3.652C250.395,260.779,248.65,264.464,245.314,265.655z
		 M291.162,262.63c0-6.88,5.598-12.476,12.475-12.476c6.879,0,12.477,5.596,12.477,12.476c0,6.878-5.598,12.474-12.477,12.474
		C296.76,275.104,291.162,269.508,291.162,262.63z M273.017,292.872c0-3.544,2.883-6.427,6.426-6.427h48.389
		c3.544,0,6.427,2.883,6.427,6.427v6.427h-0.434c-0.014,0-0.027,0-0.042,0h-60.291c-0.015,0-0.028,0-0.043,0h-0.433V292.872z
		 M277.506,310.64h20.461v103.583h-0.378c-4.405,0-8.246,2.445-10.249,6.048h-34.215c-0.173-1.288-0.55-2.553-1.155-3.747
		c-1.416-2.792-3.834-4.866-6.809-5.84l-0.359-0.118L277.506,310.64z M231.433,468.659H218.58v-6.427
		c0-3.544,2.883-6.427,6.426-6.427c3.544,0,6.427,2.883,6.427,6.427V468.659z M241.875,421.939l-5.644,17.245
		c-0.013,0.037-0.048,0.149-0.189,0.221c-0.14,0.07-0.251,0.033-0.288,0.021l-11.496-3.762l0,0c-0.037-0.014-0.149-0.05-0.22-0.189
		c-0.071-0.14-0.034-0.252-0.021-0.289l5.644-17.245c0.012-0.038,0.049-0.149,0.188-0.221c0.063-0.032,0.123-0.042,0.17-0.042
		c0.057,0,0.099,0.014,0.119,0.021l5.748,1.881l0.001,0.002l0,0l5.749,1.881c0.037,0.012,0.149,0.048,0.219,0.188
		C241.924,421.79,241.888,421.902,241.875,421.939z M310.064,468.659h-12.854v-6.427c0-3.544,2.883-6.427,6.426-6.427
		c3.545,0,6.428,2.883,6.428,6.427V468.659z M365.4,421.939c-0.065-0.198,0.043-0.412,0.241-0.477l11.497-3.764
		c0.039-0.013,0.078-0.018,0.117-0.018c0.159,0,0.308,0.101,0.359,0.26l5.645,17.245c0.064,0.198-0.044,0.412-0.241,0.479
		l-11.497,3.762c-0.037,0.012-0.149,0.049-0.288-0.021c-0.141-0.07-0.177-0.182-0.188-0.221L365.4,421.939z M388.696,468.659
		h-12.854v-6.427c0-3.544,2.883-6.427,6.426-6.427c3.544,0,6.428,2.883,6.428,6.427V468.659z"/>
</g>
<g display="none">
	<path display="inline" fill="#FFFFFF" d="M276.675,210.619c6.621,9.675,17.744,16.039,30.325,16.039
		c12.6,0,23.734-6.379,30.353-16.073c15.177-8.183,14.999-22.104,14.916-28.092c-0.338-24.698-18.798-43.404-43.894-44.48
		c-13.236-0.569-20.907,5.882-23.252,8.242c-2.05,0.465-6.608,1.854-11.168,5.653c-5.424,4.518-11.962,13.466-12.309,30.438
		C261.521,188.357,261.245,202.346,276.675,210.619z M307,220.831c-17.039,0-30.901-13.863-30.901-30.902v-8.607
		c7.989-3.03,12.913-11.452,15.332-16.827c6.586,6.932,22.778,20.94,46.472,21.666v3.768
		C337.903,206.969,324.04,220.831,307,220.831z M267.469,182.465c0.567-27.673,18.751-30.535,19.508-30.641
		c0.726-0.093,1.401-0.469,1.872-1.029c0.258-0.307,6.461-7.51,19.276-6.961c21.908,0.939,38.023,17.23,38.317,38.738
		c0.053,3.938,0.133,10.17-3.704,15.799c0.642-2.713,0.99-5.537,0.99-8.442v-3.998c1.141-0.438,1.93-1.558,1.869-2.846
		c-0.076-1.606-1.447-2.858-3.047-2.771c-30.676,1.463-49.577-22.875-49.763-23.118l-0.006,0.005
		c-0.357-0.474-0.854-0.846-1.465-1.032c-1.536-0.471-3.167,0.395-3.638,1.934c-0.052,0.173-5.614,17.399-16.599,18.475
		c-1.602,0.157-2.772,1.583-2.614,3.184c0.109,1.116,0.836,2.02,1.807,2.415v7.751c0,2.991,0.368,5.895,1.045,8.68
		C267.895,193.741,267.354,188.072,267.469,182.465z"/>
	<path display="inline" fill="#FFFFFF" d="M308.017,197.684h-3.697c-7.041,0-12.77,5.729-12.77,12.77v3.82
		c0,1.609,1.304,2.913,2.913,2.913c1.61,0,2.914-1.304,2.914-2.913v-3.82c0-3.829,3.115-6.944,6.944-6.944h3.697
		c3.829,0,6.944,3.115,6.944,6.944v3.82c0,1.609,1.303,2.913,2.912,2.913s2.914-1.304,2.914-2.913v-3.82
		C320.787,203.412,315.059,197.684,308.017,197.684z"/>
	<path display="inline" fill="#FFFFFF" d="M309.602,208.97h-6.867c-1.609,0-2.912,1.305-2.912,2.913s1.303,2.913,2.912,2.913h6.867
		c1.609,0,2.913-1.305,2.913-2.913C312.515,210.274,311.211,208.97,309.602,208.97z"/>
	<path display="inline" fill="#FFFFFF" d="M442.414,325.432c-7.438-12.383-15.996-20.663-24.777-24.17
		c4.053-2.391,6.695-6.271,6.695-10.646c0-1.608-1.303-2.913-2.913-2.913h-17.615l-37.2-37.565l8.954-10.004
		c1.073-1.198,0.971-3.04-0.228-4.113c-1.198-1.071-3.04-0.971-4.114,0.228l-8.72,9.741c0,0-9.528-9.695-12.754-12.88
		c-0.01-0.009-0.02-0.015-0.029-0.023c-3.347-3.345-7.967-5.412-13.061-5.412h-15.404c-1.488,0-2.737,1.122-2.896,2.602
		c-0.385,3.581-5.855,6.603-9.087,6.603s-8.702-3.021-9.087-6.603c-0.16-1.479-1.409-2.602-2.897-2.602l-26.334,0.001
		c-0.061-0.001-0.121-0.001-0.182-0.001c-6.802,0-12.841,4.585-14.695,11.226c-0.093,0.333-9.246,33.474-12.311,44.451
		c-2.252,8.07,3.182,17.522,11.401,19.832c2.037,0.572,4.924,1.382,8.219,2.307v25.236c0,1.35,0.921,2.473,2.166,2.805v20.774
		l-33.506,37.432c-5.646-4.749-12.71-7.342-20.175-7.342c-8.313,0-16.135,3.209-22.049,9.04l-31.31,22.96
		c-0.686,0.502-1.117,1.279-1.182,2.127c-0.065,0.847,0.243,1.682,0.844,2.282l48.697,48.698c0.549,0.548,1.29,0.853,2.06,0.853
		c0.073,0,0.148-0.002,0.222-0.008c0.847-0.065,1.625-0.497,2.127-1.183l22.959-31.31c11.356-11.521,11.992-29.702,1.913-41.971
		l29.398-32.844v87.654c0,11.735,9.548,21.284,21.284,21.284s21.284-9.548,21.284-21.284v-76.843h1.924v76.843
		c0,11.735,9.549,21.284,21.285,21.284s21.283-9.548,21.283-21.284V333.602c1.434-0.184,2.543-1.394,2.543-2.875v-45.262
		l27.778,27.571c-3.13,3.505-6.146,7.648-8.997,12.396c-7.987,13.3-13.566,29.964-13.566,40.528c0,20.731,21.447,37.6,47.809,37.6
		s47.809-16.868,47.809-37.6C455.979,355.396,450.401,338.731,442.414,325.432z M229.955,433.895
		c-0.105,0.104-0.202,0.217-0.291,0.338l-2.293,3.127l-31.496-31.588c-1.136-1.139-2.98-1.141-4.12-0.006
		c-1.139,1.136-1.142,2.981-0.006,4.12l32.136,32.229l-15.301,20.864l-7.333-7.334l12.099-12.173
		c1.134-1.142,1.128-2.985-0.013-4.119c-1.141-1.134-2.984-1.128-4.12,0.012l-12.087,12.16l-17.491-17.491l6.635-6.668
		c1.134-1.141,1.13-2.985-0.01-4.119c-1.141-1.136-2.986-1.132-4.121,0.01l-6.625,6.657l-2.408-2.408l9.73-9.73
		c1.138-1.138,1.138-2.982,0-4.12c-1.137-1.138-2.983-1.138-4.119,0l-9.73,9.73l-4.302-4.302l28.248-20.715l29.457,29.566
		c0.569,0.57,1.316,0.856,2.064,0.856c0.743,0,1.487-0.282,2.056-0.849c1.139-1.136,1.143-2.98,0.007-4.119l-29.059-29.168
		c4.212-2.882,9.188-4.436,14.402-4.436c6.833,0,13.259,2.661,18.09,7.493C239.929,407.688,239.929,423.919,229.955,433.895z
		 M408.172,297.938c-4.151,0-7.825-1.841-9.45-4.409h18.899C415.996,296.097,412.322,297.938,408.172,297.938z M398.705,301.262
		c-3.972,1.586-7.896,4.145-11.693,7.622l-29.269-29.053l15.105-15.106l22.755,22.978h-0.681c-1.609,0-2.913,1.305-2.913,2.913
		C392.01,294.99,394.652,298.871,398.705,301.262z M324.035,321.298h25.287v6.515h-52.247l52.247-58.37v46.029h-25.287
		c-1.609,0-2.912,1.304-2.912,2.913C321.123,319.993,322.426,321.298,324.035,321.298z M269.205,327.813v-20.689
		c11.655,3.27,24.959,7,24.958,6.999c2.348,0.66,4.764,0.74,7.091,0.286l-11.998,13.404H269.205z M368.75,260.584l-13.603,13.603
		v-11.253l7.563-8.448L368.75,260.584z M355.147,254.198v-7.351l3.456,3.49L355.147,254.198z M261.681,240.464
		c1.168-4.151,4.952-7.004,9.23-6.964h24.117c2.244,5.692,9.387,9.203,14.236,9.203c4.848,0,11.991-3.511,14.235-9.203h13.152
		c6.986,0,12.671,5.684,12.671,12.67v14.537l-35.677,39.857c0.583-7.177-3.972-14.015-11.158-16.037l-25.24-7.1l5.516-17.826
		c0.475-1.537-0.385-3.168-1.922-3.644c-1.535-0.476-3.168,0.386-3.644,1.922l-4.458,14.41h-19.861
		C256.711,258.455,261.616,240.697,261.681,240.464z M256.735,297.572c-5.194-1.458-8.773-7.609-7.365-12.655
		c0.493-1.769,1.146-4.113,1.892-6.801h19.673l-0.138,0.445c-0.231,0.751-0.151,1.563,0.225,2.254
		c0.375,0.69,1.014,1.198,1.77,1.412l28.119,7.909c2.453,0.69,4.492,2.295,5.74,4.52c1.247,2.224,1.554,4.8,0.863,7.255
		c-0.69,2.453-2.295,4.492-4.52,5.739c-2.223,1.247-4.798,1.555-7.256,0.862C295.738,308.513,266.484,300.312,256.735,297.572z
		 M271.371,333.639h12.67l-12.67,14.156V333.639z M286.829,466.151c-8.524,0-15.458-6.935-15.458-15.458v-1.906h30.916v1.906
		C302.287,459.217,295.353,466.151,286.829,466.151z M305.2,368.024c-1.609,0-2.913,1.305-2.913,2.913v72.023h-30.916V356.53
		l20.49-22.891h54.918v15.545l-10.261-10.261c-1.136-1.137-2.982-1.137-4.119,0c-1.138,1.138-1.138,2.982,0,4.12l14.379,14.38
		v75.954h-4.946c-1.609,0-2.912,1.305-2.912,2.914c0,1.608,1.303,2.913,2.912,2.913h4.946v3.757h-30.915v-72.024
		c0-1.608-1.304-2.913-2.913-2.913H305.2z M331.321,466.151c-8.524,0-15.458-6.935-15.458-15.458v-1.906h30.914v1.906
		C346.778,459.217,339.845,466.151,331.321,466.151z M408.172,397.733c-23.149,0-41.982-14.254-41.982-31.773
		c0-6.34,2.287-15.211,5.989-24.099h15.602c1.609,0,2.912-1.305,2.912-2.913s-1.303-2.913-2.912-2.913h-12.973
		c1.271-2.603,2.648-5.16,4.115-7.603c5.215-8.682,15.947-23.246,29.249-23.246c13.3,0,24.033,14.564,29.248,23.246
		c2.998,4.992,5.625,10.453,7.71,15.827h-18.28c-1.609,0-2.913,1.305-2.913,2.914c0,1.608,1.304,2.912,2.913,2.912h20.337
		c1.275,4.032,2.179,7.883,2.63,11.31h-32.563c-1.608,0-2.913,1.305-2.913,2.913s1.305,2.913,2.913,2.913h32.858
		C449.231,384.157,430.761,397.733,408.172,397.733z"/>
	<path display="inline" fill="#FFFFFF" d="M280.853,366.879c-1.609,0-2.913,1.304-2.913,2.912v67.857
		c0,1.608,1.304,2.913,2.913,2.913s2.913-1.305,2.913-2.913v-67.857C283.766,368.183,282.462,366.879,280.853,366.879z"/>
	<path display="inline" fill="#FFFFFF" d="M320.608,260.295h13.023c1.608,0,2.913-1.305,2.913-2.913s-1.305-2.913-2.913-2.913
		h-13.023c-1.609,0-2.913,1.305-2.913,2.913C317.695,258.991,318.999,260.295,320.608,260.295z"/>
</g>
</svg>
