<?xml version="1.0" encoding="utf-8"?>
<!-- Generator: Adobe Illustrator 16.0.0, SVG Export Plug-In . SVG Version: 6.00 Build 0)  -->
<!DOCTYPE svg PUBLIC "-//W3C//DTD SVG 1.1//EN" "http://www.w3.org/Graphics/SVG/1.1/DTD/svg11.dtd">
<svg version="1.1" id="Capa_1" xmlns="http://www.w3.org/2000/svg" xmlns:xlink="http://www.w3.org/1999/xlink" x="0px" y="0px"
	 width="600px" height="600px" viewBox="0 0 600 600" enable-background="new 0 0 600 600" xml:space="preserve">
<circle fill="none" stroke="#2980B9" stroke-width="9" stroke-miterlimit="10" cx="300" cy="300" r="286"/>
<g>
	<g>
		<path fill="none" stroke="#2980B9" stroke-width="9" stroke-miterlimit="10" d="M243.669,240.412
			c0.819,4.991,2.749,8.129,4.64,10.138c4.504,30.026,29.655,57.907,52.604,57.907c26.769,0,51.141-30.162,55.858-57.849
			c1.912-1.969,3.881-5.147,4.719-10.177c1.521-5.634,3.51-15.422,0.04-19.985c-0.195-0.234-0.391-0.448-0.566-0.663
			c3.237-11.815,7.351-36.226-7.312-52.857c-1.287-1.677-9.476-11.464-27.042-16.65l-8.325-2.905
			c-13.805-4.27-22.5-5.206-22.851-5.264c-0.604-0.059-1.268,0-1.872,0.156c-0.487,0.136-2.106,0.565-3.393,0.41
			c-3.295-0.468-8.247,1.228-9.125,1.56c-1.17,0.448-27.881,11.172-35.992,36.05c-0.76,2.028-3.997,12.595,0.312,38.546
			c-0.643,0.43-1.228,0.956-1.716,1.619C240.179,225.009,242.129,234.777,243.669,240.412z"/>
		<path fill="none" stroke="#2980B9" stroke-width="9" stroke-miterlimit="10" d="M397.563,324.64
			c-14.391-9.495-36.168-16.378-36.168-16.378c-21.856-7.721-22.013-15.402-22.013-15.402c-42.952,84.696-75.572,0.272-75.572,0.272
			c-3.002,11.426-47.242,24.84-47.242,24.84c-12.927,4.951-18.386,12.399-18.386,12.399c-19.107,28.35-21.369,91.423-21.369,91.423
			c0.253,14.409,6.473,15.91,6.473,15.91c43.947,19.614,112.928,23.104,112.928,23.104c19.205,0.409,36.928-0.917,52.662-3.002
			c-15.071-14.097-24.605-34.082-24.605-56.289C324.252,360.3,356.812,326.628,397.563,324.64z"/>
		<path fill="none" stroke="#2980B9" stroke-width="9" stroke-miterlimit="10" d="M398.438,336.338
			c-34.471,0-62.528,28.037-62.528,62.528c0,34.529,28.058,62.527,62.528,62.527c34.511,0,62.528-28.019,62.528-62.527
			C460.967,364.395,432.93,336.338,398.438,336.338z M391.967,408.01 M371.436,387.323 M443.788,380.148l-49.464,49.465
			c-1.325,1.306-3.469,1.306-4.795,0l-30.085-30.318 M443.788,375.313 M431.838,368.158"/>
	</g>
</g>
</svg>
