<?xml version="1.0" encoding="utf-8"?>
<!-- Generator: Adobe Illustrator 16.0.0, SVG Export Plug-In . SVG Version: 6.00 Build 0)  -->
<!DOCTYPE svg PUBLIC "-//W3C//DTD SVG 1.1//EN" "http://www.w3.org/Graphics/SVG/1.1/DTD/svg11.dtd">
<svg version="1.1" id="Capa_1" xmlns="http://www.w3.org/2000/svg" xmlns:xlink="http://www.w3.org/1999/xlink" x="0px" y="0px"
	 width="600px" height="600px" viewBox="0 0 600 600" enable-background="new 0 0 600 600" xml:space="preserve">
<circle fill="none" stroke="#2980B9" stroke-width="9" stroke-miterlimit="10" cx="301" cy="300" r="286"/>
<g>
	<g id="Layer_2_13_">
		<path fill="none" stroke="#3391C4" stroke-width="9" stroke-miterlimit="10" d="M422.697,325.258c0,0,5.903-29.14,7.6-51.629
			c2.22-29.501,39.335-71.583,23.022-71.583c-28.716,0-55.072-8.277-78.919-18.314C350.555,173.696,329.763,133,307.019,133
			c-0.197,0-0.973,0-1.168,0c-22.744,0-43.535,40.694-67.384,50.731c-23.85,10.038-50.202,18.314-78.919,18.314
			c-16.312,0,20.801,42.081,23.023,71.583c1.693,22.489,7.597,51.629,7.597,51.629s-10.739,4.902-10.739,24.616
			c3.766,49.466,23.438,28.146,27.497,49.818c6.748,36.026,38.646,62.089,58.504,71.09c13.098,5.935,26.636,8.537,41.004,8.055
			c14.368,0.482,27.905-2.118,41.005-8.055c19.857-9.001,51.755-35.063,58.502-71.09c4.059-21.673,23.732-0.353,27.499-49.818
			C433.438,330.16,422.697,325.258,422.697,325.258z M335.019,215.256c0,13.637-18.782,27.911-28.584,27.911
			s-28.584-14.274-28.584-27.911c0-5.739,0-14.493,0-19.279c0-0.094,0.018-0.178,0.02-0.27c0-0.028-0.003-0.055-0.003-0.083
			c0-4.565,3.583-8.281,8.089-8.519c0.104-0.027,0.178-0.046,0.178-0.046h20.177h0.249l19.922,0.025
			c0.129-0.007,0.25-0.02,0.38-0.02c4.277,0,7.49,3.132,8.052,7.234c0.017,0.075,0.021,0.152,0.031,0.228
			c0.016,0.137,0.026,0.277,0.036,0.417c0.013,0.15,0.04,0.294,0.04,0.449C335.019,200.42,335.019,208.987,335.019,215.256z"/>
	</g>
</g>
</svg>
