<?xml version="1.0" encoding="utf-8"?>
<!-- Generator: Adobe Illustrator 16.0.0, SVG Export Plug-In . SVG Version: 6.00 Build 0)  -->
<!DOCTYPE svg PUBLIC "-//W3C//DTD SVG 1.1//EN" "http://www.w3.org/Graphics/SVG/1.1/DTD/svg11.dtd">
<svg version="1.1" id="Capa_1" xmlns="http://www.w3.org/2000/svg" xmlns:xlink="http://www.w3.org/1999/xlink" x="0px" y="0px"
	 width="600px" height="600px" viewBox="0 0 600 600" enable-background="new 0 0 600 600" xml:space="preserve">
<circle fill="none" stroke="#2980B9" stroke-width="9" stroke-miterlimit="10" cx="300" cy="300" r="286"/>
<g>
	<path fill="#2980B9" d="M339.686,311.47l-55-35c-1.54-0.976-3.49-1.04-5.095-0.165c-1.595,0.88-2.59,2.56-2.59,4.385v70
		c0,1.825,0.995,3.505,2.595,4.385c0.75,0.41,1.575,0.615,2.405,0.615c0.935,0,1.87-0.265,2.685-0.78l55-35
		c1.439-0.92,2.314-2.51,2.314-4.22S341.125,312.39,339.686,311.47z M287,341.585v-51.79l40.685,25.895L287,341.585z"/>
	<path fill="#2980B9" d="M442,200.689h-50H212h-50c-2.76,0-5,2.235-5,5v55v55v55v55c0,2.765,2.24,5,5,5h50h180h50
		c2.76,0,5-2.235,5-5v-55v-55v-55v-55C447,202.925,444.76,200.689,442,200.689z M207,310.689h-40v-45h40V310.689z M167,320.689h40
		v45h-40V320.689z M217,370.689v-55v-55v-50h170v50v55v55v50H217V370.689z M437,310.689h-40v-45h40V310.689z M397,320.689h40v45h-40
		V320.689z M437,210.689v45h-40v-45H437z M167,210.689h40v45h-40V210.689z M167,420.689v-45h40v45H167z M437,420.689h-40v-45h40
		V420.689z"/>
</g>
</svg>