<?xml version="1.0" encoding="utf-8"?>
<!-- Generator: Adobe Illustrator 16.0.0, SVG Export Plug-In . SVG Version: 6.00 Build 0)  -->
<!DOCTYPE svg PUBLIC "-//W3C//DTD SVG 1.1//EN" "http://www.w3.org/Graphics/SVG/1.1/DTD/svg11.dtd">
<svg version="1.1" id="Capa_1" xmlns="http://www.w3.org/2000/svg" xmlns:xlink="http://www.w3.org/1999/xlink" x="0px" y="0px"
	 width="600px" height="600px" viewBox="0 0 600 600" enable-background="new 0 0 600 600" xml:space="preserve">
<circle fill="none" stroke="#2980B9" stroke-width="9" stroke-miterlimit="10" cx="300" cy="300" r="286"/>
<path fill="#2980B9" d="M234.212,216.51c21.305,4.761,43.175,7.177,65.008,7.177c21.83,0,43.7-2.412,64.926-7.16
	c2.161-0.436,3.635-2.438,3.408-4.629c-3.053-29.27-23.898-53.283-50.457-60.91v-5.081c0-2.356-1.913-4.27-4.27-4.27
	c-2.357,0-4.27,1.914-4.27,4.27v3.275c-3.075-0.453-6.185-0.759-9.351-0.759c-3.16,0-6.259,0.307-9.33,0.755v-3.271
	c0-2.356-1.913-4.27-4.27-4.27c-2.357,0-4.27,1.914-4.27,4.27v5.077c-26.549,7.623-47.404,31.641-50.453,60.914
	C230.659,214.051,232.097,216.036,234.212,216.51z M281.337,159.934v13.225c0,2.355,1.913,4.269,4.27,4.269
	c2.357,0,4.27-1.913,4.27-4.269v-15.369c3.061-0.517,6.179-0.832,9.351-0.832c3.163,0,6.272,0.315,9.33,0.828v15.367
	c0,2.357,1.912,4.271,4.27,4.271c2.356,0,4.27-1.914,4.27-4.271v-13.223c21.038,7.002,37.597,25.871,41.446,49.068
	c-38.944,8.156-79.546,8.181-118.657,0C243.741,185.805,260.295,166.941,281.337,159.934z M325.652,204.35
	c-8.658,1.938-17.556,2.92-26.438,2.92c-8.871,0-17.766-0.981-26.434-2.92c-2.301-0.518-3.749-2.797-3.236-5.099
	c0.516-2.301,2.813-3.74,5.094-3.236c16.14,3.604,33.064,3.599,49.153,0c2.308-0.508,4.581,0.935,5.099,3.236
	C329.408,201.553,327.954,203.832,325.652,204.35z M228.016,235.806c0.081-2.771,0.328-11.208,6.382-13.493
	c5.983-2.254,12.089,3.822,13.249,5.063c1.611,1.726,1.52,4.428-0.2,6.038c-1.726,1.605-4.427,1.521-6.038-0.201
	c-1.183-1.251-2.955-2.502-3.898-2.793c-0.291,0.551-0.854,2.071-0.961,5.641c-0.437,14.82,11.051,18.818,11.166,18.858
	c1.35,0.449,2.387,1.542,2.767,2.914l0.184,0.67c0.072,0.256,0.115,0.521,0.141,0.786c3.266,38.924,34.026,51.516,48.412,51.516
	c14.385,0,45.145-12.592,48.41-51.516c0.021-0.261,0.069-0.521,0.137-0.772l0.184-0.671c0.376-1.375,1.417-2.473,2.768-2.926
	c0.444-0.158,11.592-4.243,11.165-18.858c-0.104-3.566-0.667-5.082-0.957-5.636c-0.947,0.299-2.77,1.583-3.901,2.792
	c-1.609,1.726-4.313,1.811-6.039,0.201c-1.724-1.609-1.81-4.313-0.2-6.038c1.158-1.245,7.252-7.326,13.25-5.063
	c6.055,2.289,6.304,10.722,6.385,13.493c0.434,14.74-8.209,22.942-14.467,26.132c-4.267,39.569-35.513,57.395-56.733,57.395
	c-21.226,0-52.472-17.822-56.734-57.39C236.226,258.747,227.58,250.545,228.016,235.806z M305.744,234.981
	c-1.246,0-2.43,0.542-3.242,1.49c-0.219,0.256-0.315,0.572-0.465,0.866h-5.64c-0.149-0.294-0.248-0.61-0.466-0.866
	c-0.81-0.944-1.992-1.49-3.24-1.49h-33.654c-1.145,0-2.243,0.461-3.044,1.276c-0.803,0.815-1.244,1.922-1.226,3.066
	c0.073,3.992,0.754,17.384,6.626,22.152c3.744,3.044,9.594,4.937,15.268,4.937c5.423,0,9.97-1.717,12.815-4.835
	c3.077-3.373,5.128-10.447,6.296-15.704h6.887c1.17,5.257,3.221,12.331,6.3,15.704c2.847,3.118,7.397,4.835,12.816,4.835
	c5.671,0,11.521-1.893,15.271-4.937c5.865-4.769,6.553-18.16,6.626-22.152c0.017-1.144-0.423-2.25-1.227-3.066
	c-0.803-0.815-1.9-1.276-3.044-1.276H305.744z M283.17,255.823c-1.192,1.305-3.563,2.048-6.509,2.048
	c-3.685,0-7.656-1.213-9.881-3.023c-1.472-1.195-2.676-6.246-3.202-11.332h23.963C286.435,248.528,284.773,254.063,283.17,255.823z
	 M331.657,254.854c-2.224,1.805-6.195,3.022-9.881,3.022c-2.947,0-5.32-0.748-6.512-2.053c-1.601-1.76-3.267-7.294-4.367-12.298
	h23.963C334.334,248.605,333.13,253.653,331.657,254.854z M437.994,320.851c-42.544,13.906-86.734,21.315-131.495,22.041v102.866
	c0,2.356-1.912,4.268-4.27,4.268s-4.27-1.911-4.27-4.268v-87.409c-32.536-0.081-64.791-3.717-96.388-10.807
	c-0.337-0.029-0.67-0.103-0.999-0.216c-13.445-3.051-26.789-6.653-39.961-10.954l2.403,33.027c0.171,2.352-1.597,4.397-3.949,4.569
	c-0.107,0.005-0.209,0.009-0.316,0.009c-2.22,0-4.091-1.714-4.257-3.959l-2.865-39.419c-0.103-1.43,0.516-2.819,1.652-3.693
	c1.136-0.879,2.634-1.123,3.987-0.656c14.074,4.819,28.357,8.813,42.764,12.163c9.082-14.453,23.834-25.427,43.953-32.669
	l-0.265-4.465c-0.141-2.354,1.656-4.373,4.01-4.514c2.331-0.205,4.376,1.652,4.512,4.01l1.097,18.498l12.758-4.569
	c2.234-0.795,4.667,0.358,5.462,2.579c0.793,2.219-0.358,4.666-2.581,5.459l-18.124,6.495c-0.47,0.167-0.956,0.253-1.439,0.253
	c-0.824,0-1.648-0.239-2.353-0.709c-1.124-0.744-1.827-1.969-1.909-3.31l-0.641-10.815c-16.081,6.145-27.87,14.615-35.67,25.776
	c29.261,6.173,59.077,9.292,89.121,9.376v-11.132c0-2.348,1.891-4.252,4.24-4.27c25.217-0.17,50.247-2.57,74.918-7.028
	c-6.226-4.99-13.962-9.371-22.644-12.762l-0.645,10.854c-0.079,1.34-0.784,2.57-1.907,3.31c-0.71,0.465-1.529,0.709-2.354,0.709
	c-0.487,0-0.974-0.086-1.438-0.253l-18.122-6.495c-2.22-0.793-3.374-3.24-2.579-5.459c0.795-2.221,3.225-3.383,5.462-2.579
	l12.753,4.569l1.099-18.498c0.136-2.357,2.152-4.211,4.513-4.01c2.353,0.141,4.151,2.16,4.009,4.514l-0.264,4.439
	c13.095,4.757,24.529,11.628,32.673,19.638c18.073-3.728,35.935-8.565,53.496-14.577c1.336-0.452,2.817-0.222,3.945,0.624
	c1.132,0.849,1.769,2.202,1.7,3.616l-2.713,57.355c-0.11,2.357-2.087,4.159-4.467,4.066c-2.356-0.111-4.175-2.114-4.063-4.468
	L437.994,320.851z M458.626,387.2c-3.813-3.831-9.782-5.695-18.25-5.695c-8.469,0-14.441,1.864-18.25,5.695
	c-5.099,5.127-5.06,12.322-5.024,18.673l0.003,29.632c0,12.831,10.44,23.271,23.271,23.271c12.83,0,23.271-10.44,23.271-23.271
	l0.005-29.632C463.685,399.522,463.727,392.327,458.626,387.2z M455.115,405.825l-0.005,29.68c0,8.121-6.609,14.732-14.731,14.732
	c-5.985,0-11.126-3.604-13.433-8.746h8.698c2.357,0,4.27-1.912,4.27-4.27s-1.912-4.27-4.27-4.27h-10v-7.208h10
	c2.357,0,4.27-1.913,4.27-4.271c0-2.355-1.912-4.27-4.27-4.27h-10.003v-7.775h10.003c2.357,0,4.27-1.912,4.27-4.27
	c0-2.355-1.912-4.271-4.27-4.271h-9.928c0.175-3.163,0.73-5.921,2.464-7.664c2.097-2.109,6.2-3.182,12.195-3.182
	c5.993,0,10.097,1.068,12.194,3.182C455.166,395.829,455.141,400.685,455.115,405.825z M160.697,378.694
	c-9.064,0-15.44,1.982-19.497,6.06c-5.414,5.444-5.371,13.15-5.337,19.949l0.005,32.054c0,13.689,11.135,24.824,24.824,24.824
	c13.688,0,24.825-11.135,24.825-24.824l0.004-32.06c0.038-6.796,0.081-14.504-5.338-19.943
	C176.137,380.677,169.758,378.694,160.697,378.694z M160.697,453.041c-8.979,0-16.285-7.306-16.285-16.284l-0.004-32.102
	c-0.03-5.631-0.061-10.956,2.848-13.882c2.336-2.348,6.857-3.543,13.441-3.543c6.584,0,11.106,1.19,13.441,3.543
	c2.025,2.034,2.614,5.235,2.784,8.887h-11.105c-2.357,0-4.27,1.912-4.27,4.27s1.913,4.271,4.27,4.271h11.169v9.109h-11.169
	c-2.357,0-4.27,1.915-4.27,4.271c0,2.357,1.913,4.271,4.27,4.271h11.166v8.497h-11.166c-2.357,0-4.27,1.912-4.27,4.27
	c0,2.356,1.913,4.27,4.27,4.27h9.944C173.336,448.832,167.507,453.041,160.697,453.041z"/>
</svg>
