<?xml version="1.0" encoding="utf-8"?>
<!-- Generator: Adobe Illustrator 16.0.0, SVG Export Plug-In . SVG Version: 6.00 Build 0)  -->
<!DOCTYPE svg PUBLIC "-//W3C//DTD SVG 1.1//EN" "http://www.w3.org/Graphics/SVG/1.1/DTD/svg11.dtd">
<svg version="1.1" id="Capa_1" xmlns="http://www.w3.org/2000/svg" xmlns:xlink="http://www.w3.org/1999/xlink" x="0px" y="0px"
	 width="600px" height="600px" viewBox="0 0 600 600" enable-background="new 0 0 600 600" xml:space="preserve">
<circle fill="none" stroke="#2980B9" stroke-width="9" stroke-miterlimit="10" cx="300" cy="300" r="286"/>
<g>
	<path fill="#2980B9" d="M313.183,277.228l5.624,6.007c4.988-4.671,10.103-9.353,15.197-13.912l-5.488-6.131
		C323.375,267.792,318.217,272.514,313.183,277.228z"/>
	<path fill="#2980B9" d="M230.066,365.938l6.359,5.221c21.762-26.508,45.267-52.07,69.859-75.979l-5.735-5.899
		C275.737,313.401,252.022,339.192,230.066,365.938z"/>
	<path fill="#2980B9" d="M450.987,235.509c-0.175-5.024-2.403-9.759-5.958-13.314l-10.525-10.525
		c-7.567-7.567-19.879-7.567-27.446,0l-11.326,11.326l-0.539-0.54c-5.438-5.438-14.023-6.329-20.339-1.939
		c-0.01,0.007-0.02,0.014-0.03,0.021l-20.059,14.182c-6.879,4.863-15.79,6.286-23.846,3.804c-1.977-0.616-4.136,0.333-4.993,2.282
		c-0.698,1.586-0.247,3.446,0.977,4.671l0.486,0.486c-7.534,6.58-14.964,13.276-22.28,20.096l-12.355-12.356
		c-7.788-7.788-19.198-10.381-29.768-7.278c-2.049,0.602-4.161,0.906-6.277,0.906c-5.443,0-10.692-1.991-14.78-5.607l-60.954-53.992
		c-0.002-0.003-0.005-0.005-0.009-0.008c-0.989-0.869-2.019-1.69-2.95-2.621l-9.764-9.765c-1.607-1.606-4.212-1.606-5.818,0
		l-20.752,20.752c-1.606,1.606-1.606,4.211,0,5.818l9.745,9.744c0.935,0.935,1.763,1.966,2.631,2.964
		c0.006,0.007,0.012,0.014,0.018,0.021l53.992,60.953c5.121,5.78,6.878,13.653,4.699,21.064c-0.822,2.811-1.239,5.702-1.239,8.597
		c0,8.035,3.259,15.902,8.943,21.587l13.399,13.399c-18.541,21.571-36.097,43.989-52.582,67.174
		c-5.951,8.37-4.963,19.821,2.299,27.084l38.906,38.906c4.093,4.093,9.476,6.191,14.898,6.191c4.251,0,8.525-1.289,12.223-3.919
		c23.172-16.478,45.578-34.025,67.137-52.555l45.173,45.172c2.566,2.566,5.953,4.23,9.578,4.445c4.196,0.25,8.182-1.27,11.123-4.211
		l52.243-52.243c5.651-5.651,5.651-14.815,0-20.467l-43.94-43.939c6.819-7.316,13.517-14.746,20.096-22.28l0.563,0.564
		c0.793,0.793,1.847,1.204,2.911,1.204c0.819,0,1.646-0.244,2.364-0.748c1.479-1.035,2.051-2.965,1.53-4.692
		c-2.41-8.006-0.973-16.848,3.855-23.677l14.201-20.085c0.008-0.01,0.015-0.021,0.021-0.03c4.391-6.315,3.5-14.9-1.938-20.338
		l-0.54-0.54l11.326-11.326C449.145,246.098,451.176,240.951,450.987,235.509z M165.342,184.064l6.917,6.917l-14.933,14.934
		l-6.918-6.918L165.342,184.064z M162.801,212.078l15.618-15.618l58.057,51.427c5.596,4.949,12.782,7.674,20.234,7.674
		c2.903,0,5.797-0.417,8.601-1.241c7.831-2.299,16.279-0.144,22.049,5.626l5.406,5.406H209.99L162.801,212.078z M226.286,321.018
		c-4.151-4.152-6.532-9.898-6.532-15.769c0-2.111,0.306-4.226,0.907-6.28c2.568-8.738,1.129-17.945-3.8-25.39h80.283
		c-20.185,19.261-39.499,39.431-57.871,60.426L226.286,321.018z M429.047,401.633c1.179,1.179,1.827,2.746,1.827,4.414
		c0,1.669-0.648,3.236-1.827,4.416l-52.242,52.242c-1.179,1.179-2.746,1.828-4.416,1.828c-1.669,0-3.236-0.649-4.415-1.828
		l-44.994-44.994c21.679-18.97,42.478-38.941,62.306-59.841L429.047,401.633z M244.844,468.967
		c-5.129,3.648-12.083,3.065-16.534-1.386l-38.905-38.905c-4.45-4.45-5.033-11.404-1.386-16.533
		c41.89-58.908,90.732-112.835,145.205-160.347l71.966,71.967C357.677,378.236,303.75,427.078,244.844,468.967z M429.686,277.471
		l-14.159,20.024c-3.867,5.471-6.063,11.933-6.446,18.522l-68.128-68.127c6.604-0.377,13.081-2.573,18.564-6.449l19.999-14.14
		c3.125-2.028,7.294-1.591,9.936,1.05l39.185,39.185C431.275,270.177,431.714,274.345,429.686,277.471z M401.551,228.814
		l5.564-5.563l26.62,26.62l-5.564,5.563L401.551,228.814z M439.55,244.05l-26.615-26.614c4.363-4.302,11.411-4.287,15.751,0.053
		l10.812,10.812C443.837,232.639,443.853,239.687,439.55,244.05z"/>
	<path fill="#2980B9" d="M415.168,406.205c0.803,0.804,1.856,1.205,2.91,1.205c1.053,0,2.105-0.401,2.909-1.205
		c1.606-1.606,1.606-4.211,0-5.817l-29.036-29.036c-1.606-1.606-4.212-1.606-5.818,0s-1.606,4.212,0,5.818L415.168,406.205z"/>
	<path fill="#2980B9" d="M191.7,211.451c-1.666-1.545-4.27-1.446-5.814,0.219c-1.544,1.667-1.446,4.27,0.22,5.814l4.544,4.214
		c0.792,0.734,1.795,1.097,2.796,1.097c1.105,0,2.207-0.443,3.018-1.316c1.545-1.667,1.446-4.27-0.22-5.814L191.7,211.451z"/>
	<path fill="#2980B9" d="M214.704,244.001c0.792,0.734,1.796,1.097,2.796,1.097c1.105,0,2.208-0.442,3.019-1.316
		c1.545-1.666,1.446-4.27-0.22-5.814l-14.275-13.237c-1.666-1.545-4.27-1.446-5.814,0.219c-1.545,1.667-1.446,4.27,0.22,5.814
		L214.704,244.001z"/>
</g>
</svg>
