<?xml version="1.0" encoding="utf-8"?>
<!-- Generator: Adobe Illustrator 16.0.0, SVG Export Plug-In . SVG Version: 6.00 Build 0)  -->
<!DOCTYPE svg PUBLIC "-//W3C//DTD SVG 1.1//EN" "http://www.w3.org/Graphics/SVG/1.1/DTD/svg11.dtd">
<svg version="1.1" id="Capa_1" xmlns="http://www.w3.org/2000/svg" xmlns:xlink="http://www.w3.org/1999/xlink" x="0px" y="0px"
	 width="600px" height="600px" viewBox="0 0 600 600" enable-background="new 0 0 600 600" xml:space="preserve">
<circle fill="none" stroke="#2980B9" stroke-width="9" stroke-miterlimit="10" cx="300" cy="300" r="286"/>
<g>
	<g>
		<path fill="none" stroke="#2980B9" stroke-width="9" stroke-miterlimit="10" d="M441.546,394.479
			c-39.625-32.595-82.418-54.164-91.102-58.436c-0.964-0.482-1.585-1.448-1.585-2.55v-61.745
			c7.787-5.169,12.887-13.989,12.887-24.051v-64.018c0-31.837-25.841-57.679-57.678-57.679h-6.892h-6.892
			c-31.837,0-57.678,25.842-57.678,57.679v64.018c0,9.992,5.098,18.813,12.886,24.051v61.676c0,1.102-0.621,2.067-1.585,2.549
			c-8.683,4.273-51.477,25.843-91.101,58.437c-7.167,5.858-11.302,14.68-11.302,23.982v43.896H276.71l13.368-61.194
			c-27.013-37.625,1.999-39.485,7.099-39.485l0,0l0,0c5.03,0.068,34.042,1.86,7.098,39.485l13.369,61.194h135.204v-43.896
			C452.848,409.157,448.714,400.337,441.546,394.479z"/>
	</g>
</g>
</svg>
