<?xml version="1.0" encoding="utf-8"?>
<!-- Generator: Adobe Illustrator 16.0.0, SVG Export Plug-In . SVG Version: 6.00 Build 0)  -->
<!DOCTYPE svg PUBLIC "-//W3C//DTD SVG 1.1//EN" "http://www.w3.org/Graphics/SVG/1.1/DTD/svg11.dtd">
<svg version="1.1" id="Capa_1" xmlns="http://www.w3.org/2000/svg" xmlns:xlink="http://www.w3.org/1999/xlink" x="0px" y="0px"
	 width="600px" height="600px" viewBox="0 0 600 600" enable-background="new 0 0 600 600" xml:space="preserve">
<circle fill="none" stroke="#2980B9" stroke-width="9" stroke-miterlimit="10" cx="300" cy="300" r="286"/>
<g>
	<g>
		<path fill="#2980B9" d="M400.97,161.384c-0.869-1.795-2.746-2.873-4.736-2.716c-7.353,0.586-16.581,6.668-28.21,18.597
			c-8.974,9.204-19.433,21.939-31.09,37.853c-19.452,26.557-38.404,56.865-45.782,69.733c-11.53,20.112-2.493,43.421,1.052,51.018
			l-11.384,19.855h-38.264c-9.65,0-17.5,7.852-17.5,17.501c0,3.34,0.941,6.463,2.572,9.122c-6.395,2.606-10.914,8.89-10.914,16.211
			v33.942c0,9.651,7.852,17.501,17.501,17.501h76.308c9.651,0,17.501-7.851,17.501-17.501v-33.942
			c0-7.321-4.52-13.604-10.913-16.211c1.629-2.659,2.57-5.782,2.57-9.122c0-9.651-7.85-17.501-17.5-17.501h-10.214l8.628-15.044
			c8.344-0.777,33.029-4.751,44.562-24.864c7.377-12.865,23.96-44.535,37.052-74.738c7.848-18.097,13.553-33.558,16.965-45.952
			C403.592,179.061,404.179,168.025,400.97,161.384z M318.354,432.499c0,4.318-3.514,7.831-7.831,7.831h-76.308
			c-4.318,0-7.831-3.513-7.831-7.831v-21.777h91.97V432.499z M318.353,398.554v2.497h-91.97v-2.497c0-4.318,3.514-7.83,7.831-7.83
			h8.342h59.624h8.342C314.839,390.724,318.353,394.237,318.353,398.554z M302.18,365.392c4.318,0,7.833,3.512,7.833,7.83
			s-3.515,7.833-7.833,7.833h-59.623c-4.317,0-7.831-3.515-7.831-7.833s3.514-7.83,7.831-7.83H302.18z M373.338,237.229
			c-12.937,29.843-29.298,61.088-36.569,73.774c-6.973,12.16-20.793,17.013-30.021,18.939l77.089-134.449
			c1.329-2.315,0.528-5.27-1.788-6.599c-2.315-1.328-5.272-0.527-6.6,1.79l-77.087,134.446c-3-8.939-5.791-23.314,1.179-35.472
			c7.274-12.686,25.977-42.59,45.196-68.829c27.271-37.235,41.611-48.313,48.48-51.414
			C394.011,176.91,391.694,194.883,373.338,237.229z"/>
	</g>
</g>
</svg>
