<?xml version="1.0" encoding="utf-8"?>
<!-- Generator: Adobe Illustrator 16.0.0, SVG Export Plug-In . SVG Version: 6.00 Build 0)  -->
<!DOCTYPE svg PUBLIC "-//W3C//DTD SVG 1.1//EN" "http://www.w3.org/Graphics/SVG/1.1/DTD/svg11.dtd">
<svg version="1.1" id="Capa_1" xmlns="http://www.w3.org/2000/svg" xmlns:xlink="http://www.w3.org/1999/xlink" x="0px" y="0px"
	 width="600px" height="600px" viewBox="0 0 600 600" enable-background="new 0 0 600 600" xml:space="preserve">
<circle fill="none" stroke="#2980B9" stroke-width="9" stroke-miterlimit="10" cx="300" cy="300" r="286"/>
<g>
	<g>
		<path fill="#2980B9" stroke="#FFFFFF" stroke-width="3" stroke-miterlimit="10" d="M378.3,348.111l-41.201-9.157v-13.02
			c15.922-11.492,26.344-30.153,26.344-51.25v-14.209l8.499-12.75c8.23-12.34,12.576-26.703,12.576-41.533
			c0-18.662-13.936-34.132-31.943-36.554c-2.42-18.006-17.891-31.941-36.55-31.941h-31.613c-37.766,0-68.493,30.729-68.493,68.494
			c0,14.831,4.346,29.193,12.576,41.534l8.498,12.749v14.209c0,21.096,10.422,39.758,26.345,51.25v13.021l-41.201,9.15
			c-31.581,7.024-53.635,34.51-53.635,66.866v49.39h263.437v-49.39C431.936,382.616,409.882,355.129,378.3,348.111z
			 M236.998,241.446c-6.894-10.512-10.544-22.678-10.544-35.253c0-31.955,26.001-57.956,57.957-57.956h31.61
			c14.526,0,26.345,11.817,26.345,26.342v5.27h5.269c14.527,0,26.345,11.818,26.345,26.344c0,12.576-3.651,24.743-10.537,35.252
			v-14.177h-10.537v12.549l-25.103-12.549h-16.354l10.539,15.806h-12.767c-21.234,0-42.477-4.831-61.687-13.899v-1.906h-10.537
			V241.446z M247.53,274.685v-33.904c19.404,8.404,40.554,12.83,61.686,12.83h32.462l-7.63-11.444l18.857,9.431v23.086
			c0,29.052-23.636,52.689-52.688,52.689S247.53,303.738,247.53,274.685z M326.561,332.09v12.791l-22.086,8.837h-8.51l-22.09-8.837
			v-12.797c8.029,3.704,16.932,5.826,26.342,5.826S318.53,335.788,326.561,332.09z M263.335,357.285c0-2.419,2.624-4.223,4.891-3.31
			l25.712,10.279h12.564l25.701-10.279c2.298-0.913,4.896,0.891,4.896,3.31v19.209c0,2.419-2.619,4.22-4.892,3.31l-25.71-10.279
			h-12.566l-25.7,10.279c-2.293,0.906-4.896-0.891-4.896-3.31V357.285z M319.801,386.192l-4.072,18.326
			c-2.555,11.512-7.881,22.128-15.512,31.027c-7.629-8.894-12.956-19.516-15.511-31.027l-4.071-18.326l15.325-6.132h8.509
			L319.801,386.192z M226.454,427.479h-5.269v26.345h-42.151v-38.854c0-27.368,18.663-50.637,45.386-56.569l7.303-1.629v65.438
			C231.724,425.12,229.358,427.479,226.454,427.479z M368.71,453.824H231.724v-16.709c6.132-2.175,10.536-8.034,10.536-14.904
			v-67.777l11.635-2.587c-0.7,1.675-1.096,3.509-1.096,5.437v19.21c0,7.776,6.327,14.105,14.103,14.105
			c1.292,0,2.55-0.239,3.784-0.587l3.73,16.787c3.393,15.258,11.021,29.162,22.07,40.21l3.729,3.726l3.725-3.726
			c11.05-11.048,18.683-24.946,22.071-40.21l3.73-16.787c1.237,0.348,2.496,0.587,3.787,0.587c7.776,0,14.104-6.329,14.104-14.105
			v-19.21c0-1.928-0.396-3.763-1.096-5.437l11.632,2.587v67.777c0.004,6.87,4.409,12.729,10.54,14.904V453.824z M421.398,453.821
			h-42.151v-26.342h-5.268c-2.904,0-5.27-2.362-5.27-5.27v-65.438l7.303,1.623c26.723,5.938,45.386,29.208,45.386,56.576V453.821z"
			/>
	</g>
</g>
</svg>
