<?xml version="1.0" encoding="utf-8"?>
<!-- Generator: Adobe Illustrator 16.0.0, SVG Export Plug-In . SVG Version: 6.00 Build 0)  -->
<!DOCTYPE svg PUBLIC "-//W3C//DTD SVG 1.1//EN" "http://www.w3.org/Graphics/SVG/1.1/DTD/svg11.dtd">
<svg version="1.1" id="Capa_1" xmlns="http://www.w3.org/2000/svg" xmlns:xlink="http://www.w3.org/1999/xlink" x="0px" y="0px"
	 width="600px" height="600px" viewBox="0 0 600 600" enable-background="new 0 0 600 600" xml:space="preserve">
<circle fill="none" stroke="#2980B9" stroke-width="9" stroke-miterlimit="10" cx="300" cy="300" r="286"/>
<g>
	<g>
		<g>
			<path fill="#2980B9" d="M400.908,340.063c-1.064,0-2.133,0.031-3.203,0.095c0.242-2.31,0.365-4.638,0.365-6.967
				c0-24.171-12.908-45.93-33.89-57.531v-85.773c0-8.712-7.091-15.8-15.807-15.8h-95.512c-8.712,0-15.799,7.087-15.799,15.8V290.28
				c-11.187,2.661-21.344,8.8-28.94,17.592c-7.864,9.101-12.51,20.518-13.278,32.472c-12.745,1.256-24.555,6.86-33.669,16.065
				c-10.273,10.378-15.933,24.138-15.933,38.745c0,30.378,24.715,55.092,55.092,55.092h200.573
				c30.377,0,55.092-24.714,55.092-55.092C456,364.777,431.286,340.063,400.908,340.063z M247.08,189.887
				c0-3.189,2.594-5.783,5.783-5.783h95.512c3.192,0,5.79,2.594,5.79,5.783v6.745H247.08V189.887z M247.08,206.647h107.084v124.892
				c-7.627-5.068-16.769-8.03-26.593-8.03c-14.853,0-28.886,6.964-37.948,18.517c-6.988-5.947-15.882-9.266-25.201-9.266
				c-6.229,0-12.116,1.479-17.343,4.091V206.647z M400.908,440.229H200.335c-24.854,0-45.075-20.221-45.075-45.075
				c0-24.571,19.994-44.786,44.569-45.062c1.348-0.015,2.631-0.571,3.562-1.544c0.932-0.973,1.432-2.281,1.388-3.627l-0.012-0.334
				c-0.01-0.235-0.019-0.472-0.019-0.71c0-10.82,3.891-21.28,10.954-29.456c5.689-6.585,13.128-11.358,21.359-13.788v43.394
				c-7.137,7.062-11.566,16.851-11.566,27.657c0,2.767,2.242,5.009,5.008,5.009c2.767,0,5.008-2.242,5.008-5.009
				c0-15.939,12.968-28.908,28.909-28.908c8.53,0,16.586,3.749,22.1,10.283c1.047,1.241,2.633,1.896,4.25,1.76
				c1.619-0.137,3.071-1.05,3.894-2.449c6.839-11.622,19.45-18.844,32.905-18.844c21.042,0,38.159,17.118,38.159,38.158
				c0,2.767,2.241,5.009,5.009,5.009c2.766,0,5.007-2.242,5.007-5.009c0-11.922-4.363-22.84-11.564-31.262v-52.99
				c14.9,10.328,23.873,27.207,23.873,45.759c0,3.942-0.411,7.875-1.226,11.691c-0.349,1.636,0.144,3.34,1.311,4.538
				c1.17,1.199,2.856,1.735,4.504,1.43c2.747-0.512,5.527-0.771,8.266-0.771c24.854,0,45.075,20.22,45.075,45.075
				S425.763,440.229,400.908,440.229z"/>
			<path fill="#2980B9" d="M262.512,232.022h29.382c2.766,0,5.008-2.242,5.008-5.007c0-2.766-2.242-5.009-5.008-5.009h-29.382
				c-2.767,0-5.008,2.243-5.008,5.009C257.503,229.782,259.746,232.022,262.512,232.022z"/>
			<path fill="#2980B9" d="M262.512,245.378h66.777c2.767,0,5.009-2.242,5.009-5.008c0-2.766-2.242-5.008-5.009-5.008h-66.777
				c-2.767,0-5.008,2.242-5.008,5.008C257.503,243.137,259.746,245.378,262.512,245.378z"/>
			<path fill="#2980B9" d="M262.512,268.083h29.382c2.766,0,5.008-2.242,5.008-5.009c0-2.765-2.242-5.008-5.008-5.008h-29.382
				c-2.767,0-5.008,2.243-5.008,5.008C257.503,265.842,259.746,268.083,262.512,268.083z"/>
			<path fill="#2980B9" d="M334.298,276.431c0-2.767-2.242-5.009-5.009-5.009h-66.777c-2.767,0-5.008,2.242-5.008,5.009
				c0,2.766,2.242,5.008,5.008,5.008h66.777C332.056,281.439,334.298,279.197,334.298,276.431z"/>
		</g>
	</g>
</g>
</svg>
