<?xml version="1.0" encoding="utf-8"?>
<!-- Generator: Adobe Illustrator 16.0.0, SVG Export Plug-In . SVG Version: 6.00 Build 0)  -->
<!DOCTYPE svg PUBLIC "-//W3C//DTD SVG 1.1//EN" "http://www.w3.org/Graphics/SVG/1.1/DTD/svg11.dtd">
<svg version="1.1" id="Capa_1" xmlns="http://www.w3.org/2000/svg" xmlns:xlink="http://www.w3.org/1999/xlink" x="0px" y="0px"
	 width="600px" height="600px" viewBox="0 0 600 600" enable-background="new 0 0 600 600" xml:space="preserve">
<circle fill="none" stroke="#2980B9" stroke-width="9" stroke-miterlimit="10" cx="300" cy="300" r="286"/>
<g>
	<path fill="#2980B9" stroke="#FFFFFF" stroke-width="4" stroke-miterlimit="10" d="M417.15,328.1
		c-24.84,0-45.36,18.666-48.379,42.7H301.25v-37.362c6.344-1.58,11.828-5.6,15.286-11.425l78.813-133.292
		c4.611-7.777,4.69-17.117,0.214-24.974c-4.478-7.856-12.548-12.547-21.595-12.547h-13.858c-3.44-7.186-10.725-12.2-19.209-12.2
		c-9.736,0-33.551,7.485-33.551,21.35s23.814,21.35,33.551,21.35c10.724,0,19.544-7.979,21.039-18.3h12.022
		c4.606,0,8.717,2.391,10.992,6.393c2.282,3.996,2.239,8.753-0.109,12.718l-78.813,133.292c-2.299,3.88-6.368,6.197-10.882,6.197
		c-4.515,0-8.583-2.317-10.926-6.259l-81.014-133.236c-2.349-3.959-2.392-8.717-0.11-12.712c2.282-4.002,6.394-6.393,10.993-6.393
		h14.262c1.5,10.321,10.32,18.3,21.045,18.3c9.735,0,33.55-7.485,33.55-21.35S259.136,139,249.4,139
		c-8.485,0-15.769,5.014-19.209,12.2h-16.098c-9.047,0-17.117,4.697-21.595,12.554c-4.477,7.857-4.398,17.19,0.25,25.028
		l81.02,133.236c3.453,5.825,8.937,9.839,15.28,11.419V370.8H234.15c-36.997,0-67.101,30.104-67.101,67.101
		c0,36.996,30.104,67.1,67.101,67.1c36.996,0,67.1-30.104,67.1-67.1V383h67.521c3.019,24.034,23.539,42.7,48.379,42.7
		c26.906,0,48.8-21.894,48.8-48.8C465.95,349.993,444.057,328.1,417.15,328.1z M340.9,169.5c-7.527,0-20.484-6.033-21.338-9.15
		c0.854-3.117,13.811-9.15,21.338-9.15c5.044,0,9.149,4.105,9.149,9.15C350.05,165.395,345.944,169.5,340.9,169.5z M249.4,151.2
		c7.527,0,20.483,6.033,21.338,9.15c-0.854,3.117-13.811,9.15-21.338,9.15c-5.045,0-9.15-4.105-9.15-9.15
		C240.25,155.305,244.355,151.2,249.4,151.2z M289.05,437.9c0,30.273-24.632,54.899-54.899,54.899
		c-30.269,0-54.9-24.626-54.9-54.899c0-30.274,24.632-54.9,54.9-54.9h54.899V437.9z M417.15,413.5
		c-20.186,0-36.601-16.415-36.601-36.6c0-20.186,16.415-36.601,36.601-36.601c20.185,0,36.6,16.415,36.6,36.601
		C453.75,397.085,437.335,413.5,417.15,413.5z"/>
	<path fill="#2980B9" stroke="#FFFFFF" stroke-width="4" stroke-miterlimit="10" d="M417.15,352.5c-13.457,0-24.4,10.943-24.4,24.4
		c0,13.456,10.943,24.399,24.4,24.399c13.456,0,24.399-10.943,24.399-24.399C441.55,363.443,430.606,352.5,417.15,352.5z
		 M417.15,389.1c-6.729,0-12.2-5.471-12.2-12.199s5.472-12.2,12.2-12.2s12.199,5.472,12.199,12.2S423.879,389.1,417.15,389.1z"/>
</g>
</svg>
