<?xml version="1.0" encoding="utf-8"?>
<!-- Generator: Adobe Illustrator 16.0.0, SVG Export Plug-In . SVG Version: 6.00 Build 0)  -->
<!DOCTYPE svg PUBLIC "-//W3C//DTD SVG 1.1//EN" "http://www.w3.org/Graphics/SVG/1.1/DTD/svg11.dtd">
<svg version="1.1" id="Capa_1" xmlns="http://www.w3.org/2000/svg" xmlns:xlink="http://www.w3.org/1999/xlink" x="0px" y="0px"
	 width="600px" height="600px" viewBox="0 0 600 600" enable-background="new 0 0 600 600" xml:space="preserve">
<circle fill="none" stroke="#2980B9" stroke-width="9" stroke-miterlimit="10" cx="300" cy="300" r="286"/>
<path fill="#2980B9" stroke="#FFFFFF" stroke-width="5" stroke-miterlimit="10" d="M474.264,270.8l-29.916-29.136
	c-2.577-2.513-6.67-2.577-9.33-0.15l-15.208,13.887c-3.782-3.848-9.387-5.052-14.573-2.964c-5.889,2.381-9.229,8.203-8.311,14.485
	c0.559,3.834,1.482,7.944,2.372,11.919c1.68,7.478,3.582,15.952,2.46,20.921c-1.246,5.511-0.525,11.363,1.09,16.861
	c-6.567,14.29-23.184,24.358-33.279,26.259c-4.667,0.88-11.028,1.726-17.763,2.622c-5.063,0.675-10.511,1.399-16.049,2.24
	c4.829-25.26-4.452-51.632-24.829-68.248l-6.593-5.375c0.159-0.713,0.317-1.428,0.481-2.149
	c5.317-23.555,1.657-48.077-10.308-69.046c-0.481-0.845-1.144-1.832-2.022-3.013c-15.107-20.341-41.688-29.109-66.142-21.819
	l-11.263,3.357c-24.342,7.262-41.772,29.037-43.384,54.201c-1.675,26.127,8.948,51.549,28.509,68.554
	c-2.08,11.822-2.47,29.983,4.75,54.652c9.824,33.567,31.154,70.293,63.396,109.159c0.121,0.146,0.25,0.288,0.382,0.423
	c5.419,5.521,12.759,8.131,21.818,7.758c5.478-0.226,11.234-1.548,16.99-3.56c12.583-4.399,25.147-12.096,34.726-18.833
	c17.207-12.103,34.36-27.801,47.063-43.067c29.414-35.345,69.611-79.833,70.014-80.279c0.673-0.745,1.174-1.627,1.465-2.588
	l15.218-50.231C476.765,275.21,476.084,272.573,474.264,270.8z M448.232,322.475c-6.487,7.199-42.395,47.169-69.356,79.565
	c-23.675,28.458-65.038,59.588-88.885,60.568c-5.009,0.208-8.733-0.944-11.373-3.517c-61.156-73.811-67.896-122.524-65.818-146.359
	c1.852,1.168,3.676,2.388,5.447,3.66c3.05,2.193,7.298,1.497,9.491-1.552c2.192-3.05,1.498-7.3-1.552-9.491
	c-3.07-2.207-6.278-4.291-9.534-6.197c-3.657-2.139-5.21-3.275-5.809-3.764c-17.464-14.213-27.024-36.217-25.573-58.865
	c1.251-19.507,14.801-36.406,33.699-42.037l11.262-3.357c18.995-5.663,39.625,1.127,51.338,16.895
	c0.736,0.989,1.031,1.476,1.126,1.642c10.277,18.013,13.422,39.077,8.854,59.312c-1.889,8.361-3.503,16.221-4.801,23.364
	c-0.671,3.695,1.78,7.235,5.476,7.906c1.198,0.218,2.382,0.106,3.453-0.268c2.237-0.781,3.999-2.711,4.454-5.209
	c0.332-1.836,0.689-3.727,1.066-5.66l1.137,0.927c17.84,14.547,25.146,38.347,18.84,60.231c-7.608,1.519-14.909,3.367-21.131,5.732
	c-3.511,1.333-5.275,5.259-3.941,8.771c1.332,3.513,5.273,5.279,8.771,3.943c13.146-5,32.878-7.622,48.728-9.729
	c7.223-0.96,13.461-1.79,18.487-2.737c1.913-0.36,4.003-0.931,6.212-1.702c10.151-3.549,22.727-11.376,31.268-22.796
	c2.604,4.468,4.96,7.602,5.592,8.419c1.836,2.374,4.934,3.199,7.619,2.26c0.67-0.235,1.315-0.58,1.91-1.036
	c2.971-2.293,3.524-6.563,1.235-9.536c-0.035-0.046-3.62-4.733-6.733-10.958c-3.671-7.339-5.151-13.781-4.164-18.139
	c1.797-7.959-3.364-23.587-5.455-32.899c-0.838-3.73-0.736-4.696,1.264-3.529c10.989,15.588,13.588,37.731,13.618,37.964
	c0.458,3.724,3.851,6.372,7.576,5.914c3.726-0.461,6.379-3.853,5.92-7.579c-0.042-0.345-0.399-3.146-1.278-7.395l8.919-13.543
	c2.065-3.137,1.197-7.354-1.94-9.418c-3.137-2.066-7.354-1.199-9.42,1.939l-2.422,3.678c-1.276-3.546-2.801-7.214-4.605-10.819
	l12.253-11.19l22.356,21.773L448.232,322.475z"/>
</svg>
