<?xml version="1.0" encoding="utf-8"?>
<!-- Generator: Adobe Illustrator 16.0.0, SVG Export Plug-In . SVG Version: 6.00 Build 0)  -->
<!DOCTYPE svg PUBLIC "-//W3C//DTD SVG 1.1//EN" "http://www.w3.org/Graphics/SVG/1.1/DTD/svg11.dtd">
<svg version="1.1" id="Capa_1" xmlns="http://www.w3.org/2000/svg" xmlns:xlink="http://www.w3.org/1999/xlink" x="0px" y="0px"
	 width="600px" height="600px" viewBox="0 0 600 600" enable-background="new 0 0 600 600" xml:space="preserve">
<circle fill="none" stroke="#2980B9" stroke-width="9" stroke-miterlimit="10" cx="300" cy="300" r="286"/>
<g>
	<g>
		<g>
			<path fill="#2980B9" d="M322.883,459.763c-26.927,0-51.001-9.627-71.554-28.616c-1.448-1.337-1.537-3.594-0.2-5.039
				c1.336-1.447,3.593-1.538,5.04-0.2c19.193,17.73,41.639,26.722,66.712,26.722c54.609,0,98.248-53.727,104.746-103.907
				c0.254-1.951,2.033-3.33,3.996-3.079c1.953,0.255,3.332,2.044,3.078,3.997C427.818,402.82,381.242,459.763,322.883,459.763z"/>
		</g>
		<path fill="#2980B9" d="M349.221,398.804c-1.969,0-3.566,1.598-3.566,3.567c0,5.464-4.443,9.91-9.904,9.91h-17.6
			c-5.463,0-9.908-4.444-9.908-9.91c0-5.464,4.445-9.909,9.908-9.909h17.6c1.971,0,3.568-1.597,3.568-3.566
			c0-1.971-1.598-3.567-3.568-3.567h-17.6c-8.168,0-15.006,5.778-16.656,13.461c-65.58-0.641-130.906-21.048-130.906-59.496
			c0-92.779,39.676-191.92,151.025-191.92c1.973,0,3.568-1.598,3.568-3.568s-1.596-3.566-3.568-3.566
			c-56.153,0-98.632,23.227-126.249,69.036c-27.765,46.052-31.91,101.228-31.91,130.02c0,20.825,15.657,38.252,45.277,50.392
			c24.819,10.173,57.651,15.895,92.75,16.222c1.633,7.706,8.482,13.51,16.668,13.51h17.6c9.398,0,17.039-7.645,17.039-17.044
			C352.789,400.402,351.191,398.804,349.221,398.804z"/>
		<g>
			<path fill="#2980B9" d="M216.97,361.31c-1.321,0-2.591-0.738-3.209-2.005c-8.187-16.799-9.356-49.653,3.035-73.442
				c7.481-14.36,18.821-23.12,32.793-25.331c16.909-2.672,25.906-17.484,33.847-30.552c5.354-8.813,10.411-17.136,17.42-20.965
				c2.556-1.398,4.997-1.752,7.251-1.043c4.299,1.346,6.636,6.016,9.596,11.927c7.115,14.216,17.865,35.701,61.402,37.205
				c3.664,0.126,7.078,0.221,10.256,0.31c34.021,0.943,44.287,1.229,47.172,34.384c0.172,1.963-1.279,3.692-3.242,3.862
				c-1.988,0.186-3.691-1.281-3.863-3.244c-2.332-26.817-6.65-26.938-40.264-27.869c-3.191-0.088-6.621-0.185-10.305-0.313
				c-47.771-1.651-60.629-27.341-67.535-41.143c-1.849-3.69-3.941-7.873-5.346-8.312c-0.322-0.102-0.938,0.081-1.7,0.497
				c-5.326,2.909-9.9,10.438-14.742,18.408c-8.31,13.68-18.656,30.705-38.829,33.896c-11.814,1.868-21.093,9.129-27.58,21.58
				c-11.007,21.13-10.411,51.712-2.949,67.019c0.864,1.771,0.128,3.907-1.642,4.771C218.027,361.193,217.494,361.31,216.97,361.31z"
				/>
		</g>
	</g>
</g>
</svg>
