<?xml version="1.0" encoding="utf-8"?>
<!-- Generator: Adobe Illustrator 16.0.0, SVG Export Plug-In . SVG Version: 6.00 Build 0)  -->
<!DOCTYPE svg PUBLIC "-//W3C//DTD SVG 1.1//EN" "http://www.w3.org/Graphics/SVG/1.1/DTD/svg11.dtd">
<svg version="1.1" id="Capa_1" xmlns="http://www.w3.org/2000/svg" xmlns:xlink="http://www.w3.org/1999/xlink" x="0px" y="0px"
	 width="600px" height="600px" viewBox="0 0 600 600" enable-background="new 0 0 600 600" xml:space="preserve">
<circle fill="none" stroke="#2980B9" stroke-width="9" stroke-miterlimit="10" cx="300" cy="300" r="286"/>
<g>
	<g>
		<path fill="#2980B9" stroke="#FFFFFF" stroke-width="3" stroke-miterlimit="10" d="M453.157,408.922l-13.889,3.474l-20.436-44.956
			l-6.387-57.489l9.454,1.351c0.627,0.093,1.254,0.134,1.87,0.134c5.576,0,10.637-3.556,12.445-8.982
			c1.233-3.704,0.767-7.737-1.29-11.058c-2.05-3.319-5.446-5.545-9.312-6.095l-11.797-1.686V178.693
			c0-14.167-11.525-25.693-25.693-25.693H172.309c-14.166,0-25.691,11.526-25.691,25.693c0,12.403,8.843,22.783,20.554,25.174
			v267.719h205.334L372.91,473l9.882-2.826l-8.817-30.861l2.878-0.72l66.743-16.685l2.82-0.704l8.771,26.318l9.748-3.252
			L453.157,408.922z M413.514,293.954l10.652,1.521c1.146,0.158,1.758,0.894,2.02,1.319c0.263,0.426,0.647,1.306,0.283,2.405
			c-0.438,1.311-1.773,2.081-3.109,1.927l-10.802-1.541L413.514,293.954z M388.124,163.276c8.499,0,15.416,6.917,15.416,15.417
			v91.681l-10.277-5.997v-70.27h-5.139c-8.499,0-15.415-6.917-15.415-15.416C372.709,170.193,379.625,163.276,388.124,163.276z
			 M335.629,288.594l-24.746-3.535l-2.271-4.537c-0.292-0.586-0.616-1.151-0.966-1.691l24.393,3.484v0.006l67.391,9.614l3.905,0.561
			l-0.956,5.631l-15.924-2.271L335.629,288.594z M345.748,306.296l-9.491,9.491l-16.017-12.014l-3.766-7.539l25.615,3.658
			L345.748,306.296z M288.953,266.283l-16.546,5.519c-0.802,0.113-1.613,0.2-2.405,0.338c-0.016-0.317-0.062-0.632-0.062-0.956
			c0-10.971,3.858-21.053,10.267-28.991c4.367,5.402,7.543,11.824,9.125,18.932c-0.015,0.052-0.046,0.097-0.056,0.148
			C288.859,262.938,288.818,264.618,288.953,266.283z M276.768,290.155l0.797,6.393c-2.878-4.348-4.984-9.141-6.238-14.218
			c0.715-0.139,1.45-0.211,2.174-0.318l3.428,3.427C276.68,286.99,276.568,288.568,276.768,290.155z M272.91,307.433
			c-8.099,6.418-18.14,10-28.663,10c-3.042,0-6.011-0.313-8.889-0.879c3.427-13.973,13.128-25.432,26.175-31.14
			C263.63,293.502,267.489,301.005,272.91,307.433z M259.878,274.956c-17.003,6.485-29.788,20.812-34.335,38.482
			C209.342,306.24,198,290.022,198,271.185c0-25.497,20.75-46.245,46.246-46.245c10.709,0,20.688,3.72,28.632,9.994
			c-8.235,9.819-13.216,22.46-13.216,36.251C259.662,272.454,259.796,273.702,259.878,274.956z M234.017,326.731
			c3.325,0.612,6.731,0.978,10.23,0.978c13.13,0,25.626-4.585,35.625-12.729l0.606,4.841l36.19,36.175
			c-8.752,11.278-22.06,17.96-36.453,17.96c-25.497,0-46.245-20.75-46.245-46.247C233.971,327.379,234.011,327.061,234.017,326.731z
			 M287.553,234.938c7.889-6.243,17.82-9.999,28.632-9.999c12.313,0,23.837,5.01,32.316,13.328l-6.114-3.566l-43.359,15.766
			c-0.662,0.242-1.242,0.627-1.859,0.95C294.896,245.334,291.618,239.784,287.553,234.938z M299.25,263.774
			c0.427-1.712,1.634-3.037,3.305-3.644l38.832-14.121l57.333,33.448l0.227,2.029l-25.543-3.648l-34.931-4.989l-4.178-7.323
			l-21.721,3.622l-13.016-1.86C299.061,266.21,298.942,264.987,299.25,263.774z M156.893,178.693c0-8.5,6.917-15.416,15.416-15.416
			h195.396c-3.263,4.306-5.272,9.609-5.272,15.416c0,5.807,2.01,11.108,5.272,15.415H172.309
			C163.81,194.107,156.893,187.191,156.893,178.693z M361.168,431.922l8.401,29.387H177.447V204.385h205.539v54l-14.532-8.478
			c-8.622-21.146-29.362-35.245-52.269-35.245c-13.652,0-26.187,4.866-35.97,12.954c-9.851-8.134-22.444-12.954-35.969-12.954
			c-31.165,0-56.522,25.358-56.522,56.522c0,23.977,15.034,44.464,36.148,52.665c-0.082,1.28-0.18,2.559-0.18,3.859
			c0,31.164,25.358,56.522,56.522,56.522c17.163,0,33.097-7.733,43.785-20.908l4.255,4.255l34.89,29.906l10.447,31.328
			L361.168,431.922z M407.163,420.421l-23.576,5.894l-11.593-34.781l-36.761-31.489l-44.998-44.998l-3.272-26.165
			c-0.107-0.874-0.031-1.731,0.189-2.543l0.242-0.627c0.498-1.284,1.341-2.339,2.4-3.078c2.677-1.737,6.556-1.228,8.699,1.131
			c0.35,0.406,0.673,0.843,0.919,1.342l4.681,9.356l8.032,16.067l25.091,18.817l21.34-21.34l-3.587-6.274l46.96,6.711l6.772,60.938
			l20.427,45.548L407.163,420.421z"/>
	</g>
</g>
</svg>
