<?xml version="1.0" encoding="utf-8"?>
<!-- Generator: Adobe Illustrator 16.0.0, SVG Export Plug-In . SVG Version: 6.00 Build 0)  -->
<!DOCTYPE svg PUBLIC "-//W3C//DTD SVG 1.1//EN" "http://www.w3.org/Graphics/SVG/1.1/DTD/svg11.dtd">
<svg version="1.1" id="Capa_1" xmlns="http://www.w3.org/2000/svg" xmlns:xlink="http://www.w3.org/1999/xlink" x="0px" y="0px"
	 width="600px" height="600px" viewBox="0 0 600 600" enable-background="new 0 0 600 600" xml:space="preserve">
<circle fill="none" stroke="#2980B9" stroke-width="9" stroke-miterlimit="10" cx="300" cy="300" r="286"/>
<g>
	<g>
		<path fill="#2980B9" d="M375.11,206.108H230.772c-15.148,0-27.495,12.335-27.495,27.495v144.343
			c0,15.17,12.346,27.499,27.495,27.499H375.11c15.159,0,27.495-12.329,27.495-27.499V233.597
			C402.609,218.444,390.27,206.108,375.11,206.108z M375.11,396.557H230.772c-10.26,0-18.616-8.352-18.616-18.616V233.597
			c0-10.264,8.358-18.616,18.616-18.616H375.11c10.271,0,18.622,8.352,18.622,18.616V377.94
			C393.732,388.205,385.381,396.557,375.11,396.557z"/>
		<path fill="#2980B9" d="M417.963,249.222h26.584c2.455,0,4.449-1.989,4.449-4.445s-1.994-4.449-4.449-4.449h-26.584
			c-2.443,0-4.438,1.995-4.438,4.449C413.52,247.232,415.514,249.222,417.963,249.222z"/>
		<path fill="#2980B9" d="M444.547,264.543h-26.584c-2.443,0-4.438,1.988-4.438,4.449c0,2.444,1.994,4.438,4.438,4.438h26.584
			c2.455,0,4.449-1.994,4.449-4.438C448.998,266.533,447.003,264.543,444.547,264.543z"/>
		<path fill="#2980B9" d="M444.547,289.214h-26.584c-2.443,0-4.438,2.001-4.438,4.444c0,2.455,1.994,4.46,4.438,4.46h26.584
			c2.455,0,4.449-2.005,4.449-4.46C448.998,291.215,447.003,289.214,444.547,289.214z"/>
		<path fill="#2980B9" d="M444.547,313.424h-26.584c-2.443,0-4.438,1.995-4.438,4.455c0,2.444,1.994,4.438,4.438,4.438h26.584
			c2.455,0,4.449-1.994,4.449-4.438C448.998,315.419,447.003,313.424,444.547,313.424z"/>
		<path fill="#2980B9" d="M444.547,335.764h-26.584c-2.443,0-4.438,1.994-4.438,4.444c0,2.445,1.994,4.438,4.438,4.438h26.584
			c2.455,0,4.449-1.993,4.449-4.438C448.998,337.758,447.003,335.764,444.547,335.764z"/>
		<path fill="#2980B9" d="M444.547,359.975h-26.584c-2.443,0-4.438,1.994-4.438,4.455c0,2.444,1.994,4.422,4.438,4.422h26.584
			c2.455,0,4.449-1.978,4.449-4.422C448.998,361.969,447.003,359.975,444.547,359.975z"/>
		<path fill="#2980B9" d="M182.028,240.328h-26.583c-2.451,0-4.445,1.995-4.445,4.449c0,2.455,1.994,4.445,4.445,4.445h26.583
			c2.445,0,4.439-1.989,4.439-4.445S184.473,240.328,182.028,240.328z"/>
		<path fill="#2980B9" d="M182.028,264.543h-26.583c-2.451,0-4.445,1.99-4.445,4.451c0,2.443,1.994,4.438,4.445,4.438h26.583
			c2.445,0,4.439-1.995,4.439-4.438C186.467,266.533,184.473,264.543,182.028,264.543z"/>
		<path fill="#2980B9" d="M182.028,289.214h-26.583c-2.451,0-4.445,2.001-4.445,4.444c0,2.455,1.994,4.46,4.445,4.46h26.583
			c2.445,0,4.439-2.005,4.439-4.46C186.467,291.215,184.473,289.214,182.028,289.214z"/>
		<path fill="#2980B9" d="M182.028,313.424h-26.583c-2.451,0-4.445,1.995-4.445,4.455c0,2.444,1.994,4.438,4.445,4.438h26.583
			c2.445,0,4.439-1.994,4.439-4.438C186.467,315.419,184.473,313.424,182.028,313.424z"/>
		<path fill="#2980B9" d="M182.028,335.764h-26.583c-2.451,0-4.445,1.994-4.445,4.444c0,2.445,1.994,4.438,4.445,4.438h26.583
			c2.445,0,4.439-1.993,4.439-4.438C186.467,337.758,184.473,335.764,182.028,335.764z"/>
		<path fill="#2980B9" d="M182.028,359.975h-26.583c-2.451,0-4.445,1.994-4.445,4.455c0,2.444,1.994,4.422,4.445,4.422h26.583
			c2.445,0,4.439-1.978,4.439-4.422C186.467,361.969,184.473,359.975,182.028,359.975z"/>
		<path fill="#2980B9" d="M362.77,421.525c-2.444,0-4.439,2.001-4.439,4.444v26.584c0,2.444,1.995,4.438,4.439,4.438
			c2.455,0,4.448-1.994,4.448-4.438V425.97C367.218,423.524,365.225,421.525,362.77,421.525z"/>
		<path fill="#2980B9" d="M338.555,421.525c-2.438,0-4.434,2.001-4.434,4.444v26.584c0,2.444,1.994,4.438,4.434,4.438
			c2.45,0,4.449-1.994,4.449-4.438V425.97C343.011,423.524,341.004,421.525,338.555,421.525z"/>
		<path fill="#2980B9" d="M313.895,421.525c-2.461,0-4.449,2.001-4.449,4.444v26.584c0,2.444,1.988,4.438,4.449,4.438
			c2.438,0,4.433-1.994,4.433-4.438V425.97C318.333,423.524,316.339,421.525,313.895,421.525z"/>
		<path fill="#2980B9" d="M289.685,421.525c-2.455,0-4.449,2.001-4.449,4.444v26.584c0,2.444,1.994,4.438,4.449,4.438
			c2.443,0,4.433-1.994,4.433-4.438V425.97C294.118,423.524,292.128,421.525,289.685,421.525z"/>
		<path fill="#2980B9" d="M267.34,421.525c-2.455,0-4.449,2.001-4.449,4.444v26.584c0,2.444,2,4.438,4.449,4.438
			c2.444,0,4.434-1.994,4.434-4.438V425.97C271.772,423.524,269.784,421.525,267.34,421.525z"/>
		<path fill="#2980B9" d="M243.134,421.525c-2.46,0-4.449,2.001-4.449,4.444v26.584c0,2.444,1.989,4.438,4.449,4.438
			c2.444,0,4.434-1.994,4.434-4.438V425.97C247.568,423.524,245.58,421.525,243.134,421.525z"/>
		<path fill="#2980B9" d="M362.77,194.461c2.455,0,4.448-1.988,4.448-4.422v-26.595c0-2.455-1.993-4.445-4.448-4.445
			c-2.444,0-4.439,1.989-4.439,4.445v26.594C358.33,192.473,360.325,194.461,362.77,194.461z"/>
		<path fill="#2980B9" d="M338.555,194.461c2.45,0,4.449-1.988,4.449-4.422v-26.595c0-2.455-2-4.445-4.449-4.445
			c-2.438,0-4.434,1.989-4.434,4.445v26.594C334.121,192.473,336.115,194.461,338.555,194.461z"/>
		<path fill="#2980B9" d="M313.895,194.461c2.438,0,4.433-1.988,4.433-4.422v-26.595c0-2.455-1.994-4.445-4.433-4.445
			c-2.461,0-4.449,1.989-4.449,4.445v26.594C309.445,192.473,311.434,194.461,313.895,194.461z"/>
		<path fill="#2980B9" d="M289.685,194.461c2.443,0,4.433-1.988,4.433-4.422v-26.595c0-2.455-1.989-4.445-4.433-4.445
			c-2.455,0-4.449,1.989-4.449,4.445v26.594C285.235,192.473,287.229,194.461,289.685,194.461z"/>
		<path fill="#2980B9" d="M267.34,194.461c2.444,0,4.434-1.988,4.434-4.422v-26.595c0-2.455-1.988-4.445-4.434-4.445
			c-2.455,0-4.449,1.989-4.449,4.445v26.594C262.89,192.473,264.884,194.461,267.34,194.461z"/>
		<path fill="#2980B9" d="M243.134,194.461c2.444,0,4.434-1.988,4.434-4.422v-26.595c0-2.455-1.989-4.445-4.434-4.445
			c-2.46,0-4.449,1.989-4.449,4.445v26.594C238.685,192.473,240.675,194.461,243.134,194.461z"/>
	</g>
</g>
</svg>
