<?xml version="1.0" encoding="utf-8"?>
<!-- Generator: Adobe Illustrator 16.0.0, SVG Export Plug-In . SVG Version: 6.00 Build 0)  -->
<!DOCTYPE svg PUBLIC "-//W3C//DTD SVG 1.1//EN" "http://www.w3.org/Graphics/SVG/1.1/DTD/svg11.dtd">
<svg version="1.1" id="Capa_1" xmlns="http://www.w3.org/2000/svg" xmlns:xlink="http://www.w3.org/1999/xlink" x="0px" y="0px"
	 width="600px" height="600px" viewBox="0 0 600 600" enable-background="new 0 0 600 600" xml:space="preserve">
<circle fill="none" stroke="#2980B9" stroke-width="9" stroke-miterlimit="10" cx="300" cy="300" r="286"/>
<g>
	<path fill="#FFFFFF" stroke="#2980B9" stroke-width="9" stroke-miterlimit="10" d="M478.761,431.678h-78.013
		c5.364-6.773,7.517-15.477,5.896-23.99l-15.986-83.934c-2.013-10.559-9.597-19.23-19.794-22.631l-40.769-13.588
		c-0.719-0.239-1.45-0.323-2.161-0.275v-10.832c7.779-8.741,12.036-19.856,12.036-31.686v-13.34
		c6.988-2.361,12.035-8.975,12.035-16.75v-30.09c0-19.703-16.028-35.733-35.731-35.733H268.13c-7.962,0-14.712,5.291-16.917,12.542
		c-10.732,2.256-18.815,11.797-18.815,23.191v30.09c0,7.774,5.048,14.388,12.037,16.75v11.575c0,12.434,4.561,23.918,12.036,32.691
		v11.591c-0.711-0.048-1.442,0.036-2.161,0.275l-40.769,13.59c-10.197,3.398-17.782,12.07-19.793,22.629l-15.986,83.936
		c-1.622,8.512,0.531,17.215,5.895,23.99h-78.013c-3.115,0-5.642,2.525-5.642,5.641c0,3.117,2.526,5.643,5.642,5.643h101.307h1.001
		h12.036h144.434h12.037h0.999h101.306c3.117,0,5.644-2.525,5.644-5.643C484.404,434.205,481.878,431.678,478.761,431.678
		L478.761,431.678z M219.985,431.678c-0.208,0-0.376-0.168-0.376-0.375v-78.234c0-0.207,0.168-0.377,0.376-0.377h144.434
		c0.208,0,0.377,0.17,0.377,0.377v78.234c0,0.207-0.169,0.375-0.377,0.375H219.985z"/>
	<path fill="#FFFFFF" stroke="#2980B9" stroke-width="9" stroke-miterlimit="10" d="M292.202,377.518
		c-9.748,0-17.678,7.928-17.678,17.676c0,9.75,7.93,17.678,17.678,17.678c9.747,0,17.679-7.928,17.679-17.678
		C309.881,385.445,301.949,377.518,292.202,377.518z"/>
</g>
</svg>
