<?xml version="1.0" encoding="utf-8"?>
<!-- Generator: Adobe Illustrator 16.0.0, SVG Export Plug-In . SVG Version: 6.00 Build 0)  -->
<!DOCTYPE svg PUBLIC "-//W3C//DTD SVG 1.1//EN" "http://www.w3.org/Graphics/SVG/1.1/DTD/svg11.dtd">
<svg version="1.1" id="Capa_1" xmlns="http://www.w3.org/2000/svg" xmlns:xlink="http://www.w3.org/1999/xlink" x="0px" y="0px"
	 width="600px" height="600px" viewBox="0 0 600 600" enable-background="new 0 0 600 600" xml:space="preserve">
<circle fill="none" stroke="#2980B9" stroke-width="9" stroke-miterlimit="10" cx="300" cy="300" r="286"/>
<g>
	<path fill="#2980B9" d="M424,384.802V190.5H167.5v194.302h100.142l-18.527,51.284h-19.46V447h132.188v-10.914h-19.463
		l-18.526-51.284H424z M178.415,201.415h234.67v172.471h-234.67V201.415z M330.775,436.085h-70.054l18.528-51.284h32.998
		L330.775,436.085z"/>
	<path fill="#2980B9" d="M345.568,257.114l28.782,31.242l-27.48,29.829l-8.026-7.397l20.662-22.431l-21.964-23.845L345.568,257.114z
		 M245.929,257.114l-28.777,31.242l27.478,29.829l8.025-7.397l-20.665-22.431l21.966-23.845L245.929,257.114z M276.88,330.499
		l10.606,2.579l21.47-88.278l-10.605-2.58L276.88,330.499z"/>
</g>
</svg>
