<?xml version="1.0" encoding="utf-8"?>
<!-- Generator: Adobe Illustrator 16.0.0, SVG Export Plug-In . SVG Version: 6.00 Build 0)  -->
<!DOCTYPE svg PUBLIC "-//W3C//DTD SVG 1.1//EN" "http://www.w3.org/Graphics/SVG/1.1/DTD/svg11.dtd">
<svg version="1.1" id="Capa_1" xmlns="http://www.w3.org/2000/svg" xmlns:xlink="http://www.w3.org/1999/xlink" x="0px" y="0px"
	 width="600px" height="600px" viewBox="0 0 600 600" enable-background="new 0 0 600 600" xml:space="preserve">
<circle fill="none" stroke="#2980B9" stroke-width="9" stroke-miterlimit="10" cx="300" cy="300" r="286"/>
<g>
	<g>
		<path fill="#2980B9" d="M353.949,337.478h-2.359c-2.412,0-4.367,1.954-4.367,4.366c0,2.411,1.955,4.366,4.367,4.366h2.359
			c2.41,0,4.365-1.955,4.365-4.366C358.314,339.432,356.359,337.478,353.949,337.478z"/>
	</g>
</g>
<g>
	<g>
		<g>
			<path fill="#2980B9" d="M414.198,185.175H191.144c-5.466,0-9.914,4.447-9.914,9.914v223.054c0,5.467,4.447,9.914,9.914,9.914
				h223.054c5.467,0,9.914-4.447,9.914-9.914V195.088C424.112,189.622,419.665,185.175,414.198,185.175z M414.198,418.143H191.144
				V229.786h223.054V418.143z M414.198,219.873H191.144v-24.784h223.054V219.873z"/>
			<rect x="201.058" y="202.523" fill="#2980B9" width="17.349" height="9.914"/>
			<rect x="225.841" y="202.523" fill="#2980B9" width="17.349" height="9.914"/>
			<rect x="386.936" y="202.523" fill="#2980B9" width="17.35" height="9.914"/>
			<path fill="#2980B9" d="M240.712,333.879h8.521c0.497,1.354,1.035,2.668,1.613,3.936l-6.006,6.041
				c-1.871,1.871-2.902,4.357-2.902,7s1.031,5.129,2.902,6.999l14.027,14.028c1.872,1.871,4.357,2.9,7,2.9
				c2.643,0,5.129-1.029,6.989-2.891l6.052-6.016c1.268,0.576,2.581,1.115,3.936,1.611v8.521c0,5.467,4.447,9.914,9.913,9.914
				h19.827c5.466,0,9.913-4.447,9.914-9.914v-8.521c1.354-0.496,2.667-1.035,3.936-1.613l6.042,6.006
				c1.87,1.871,4.356,2.902,7,2.902c2.643,0,5.128-1.031,6.999-2.902l14.026-14.026c1.872-1.871,2.902-4.357,2.902-6.999
				c0-2.645-1.03-5.13-2.892-6.99l-6.017-6.053c0.577-1.268,1.115-2.58,1.613-3.936h8.521c5.467,0,9.914-4.447,9.914-9.913v-19.827
				c0-5.466-4.447-9.914-9.914-9.914h-8.521c-0.498-1.354-1.036-2.668-1.613-3.936l6.006-6.041c1.871-1.872,2.902-4.357,2.902-7
				c0-2.643-1.031-5.128-2.902-6.999l-14.027-14.027c-1.871-1.872-4.357-2.902-7-2.902s-5.129,1.03-6.989,2.892l-6.052,6.016
				c-1.268-0.577-2.58-1.115-3.936-1.612v-8.522c0-5.466-4.447-9.914-9.914-9.914h-19.826c-5.467,0-9.914,4.447-9.914,9.914v8.522
				c-1.354,0.497-2.667,1.036-3.936,1.613l-6.042-6.006c-1.872-1.871-4.357-2.902-7-2.902s-5.128,1.031-7,2.902l-14.027,14.027
				c-1.871,1.871-2.901,4.357-2.901,7c0,2.643,1.031,5.129,2.892,6.989l6.017,6.052c-0.577,1.268-1.116,2.581-1.613,3.936h-8.522
				c-5.467,0-9.914,4.447-9.914,9.915v19.826C230.798,329.432,235.245,333.879,240.712,333.879z M240.712,304.137h12.096
				c2.188,0,4.118-1.436,4.747-3.533c0.978-3.258,2.21-6.255,3.663-8.905c1.057-1.927,0.718-4.319-0.831-5.878l-8.536-8.563
				l14.016-14.018l8.575,8.525c1.559,1.549,3.951,1.887,5.878,0.832c2.65-1.453,5.646-2.685,8.905-3.663
				c2.097-0.628,3.533-2.559,3.533-4.748v-12.094h19.827v12.095c0,2.189,1.437,4.119,3.533,4.748
				c3.259,0.978,6.256,2.21,8.905,3.663c1.927,1.057,4.318,0.718,5.878-0.832l8.563-8.536l14.018,14.016l-8.525,8.575
				c-1.549,1.559-1.889,3.951-0.831,5.878c1.453,2.65,2.685,5.646,3.663,8.906c0.629,2.098,2.559,3.533,4.748,3.533h12.094v19.826
				h-12.094c-2.189,0-4.119,1.436-4.748,3.533c-0.979,3.259-2.21,6.255-3.663,8.905c-1.058,1.927-0.718,4.319,0.831,5.878
				l8.535,8.563l-14.016,14.017l-8.575-8.525c-1.56-1.549-3.951-1.887-5.878-0.83c-2.649,1.453-5.646,2.686-8.905,3.663
				c-2.097,0.628-3.533,2.559-3.533,4.747v12.094h-19.827v-12.094c0-2.189-1.436-4.119-3.533-4.748
				c-3.259-0.979-6.255-2.211-8.905-3.663c-0.749-0.411-1.568-0.61-2.382-0.61c-1.279,0-2.543,0.494-3.497,1.441l-8.563,8.535
				l-14.018-14.016l8.525-8.576c1.549-1.559,1.888-3.949,0.831-5.877c-1.453-2.65-2.685-5.646-3.663-8.906
				c-0.628-2.097-2.559-3.532-4.748-3.532h-12.094V304.137z"/>
			<path fill="#2980B9" d="M302.672,338.834c13.665,0,24.783-11.117,24.783-24.783c0-13.666-11.118-24.784-24.783-24.784
				c-13.666,0-24.784,11.118-24.784,24.784C277.888,327.717,289.006,338.834,302.672,338.834z M302.672,299.181
				c8.199,0,14.869,6.671,14.869,14.87s-6.67,14.871-14.869,14.871c-8.2,0-14.871-6.672-14.871-14.871
				S294.472,299.181,302.672,299.181z"/>
			<rect x="369.588" y="259.526" fill="#2980B9" width="9.914" height="9.914"/>
			<rect x="384.459" y="259.526" fill="#2980B9" width="9.912" height="9.914"/>
			<rect x="399.328" y="259.526" fill="#2980B9" width="9.914" height="9.914"/>
			<rect x="196.101" y="358.662" fill="#2980B9" width="9.914" height="9.913"/>
			<rect x="210.971" y="358.662" fill="#2980B9" width="9.914" height="9.913"/>
			<rect x="225.841" y="358.662" fill="#2980B9" width="9.914" height="9.913"/>
			<rect x="213.45" y="398.316" fill="#2980B9" width="178.443" height="9.913"/>
		</g>
	</g>
</g>
</svg>
