<?xml version="1.0" encoding="utf-8"?>
<!-- Generator: Adobe Illustrator 16.0.0, SVG Export Plug-In . SVG Version: 6.00 Build 0)  -->
<!DOCTYPE svg PUBLIC "-//W3C//DTD SVG 1.1//EN" "http://www.w3.org/Graphics/SVG/1.1/DTD/svg11.dtd">
<svg version="1.1" id="Capa_1" xmlns="http://www.w3.org/2000/svg" xmlns:xlink="http://www.w3.org/1999/xlink" x="0px" y="0px"
	 width="600px" height="600px" viewBox="0 0 600 600" enable-background="new 0 0 600 600" xml:space="preserve">
<circle fill="none" stroke="#2980B9" stroke-width="9" stroke-miterlimit="10" cx="300" cy="300" r="286"/>
<g>
	<g>
		<path fill="#2980B9" stroke="#FFFFFF" stroke-width="3" stroke-miterlimit="10" d="M437.199,193.569H157.554
			c-3.204,0-5.802,2.597-5.802,5.802v183.498c0,3.204,2.598,5.802,5.802,5.802h102.304v30.02h-20.58
			c-3.204,0-5.802,2.599-5.802,5.803s2.598,5.802,5.802,5.802h116.197l0,0c3.204,0,5.802-2.597,5.802-5.801
			c0-3.205-2.598-5.802-5.802-5.802h-20.58v-30.021h102.305c3.203,0,5.801-2.598,5.801-5.802V199.371
			C443,196.167,440.402,193.569,437.199,193.569z M323.291,418.692h-51.83v-30.021h51.83V418.692z M431.396,377.067H163.355V205.172
			h268.04L431.396,377.067L431.396,377.067z"/>
	</g>
</g>
<g>
	<g>
		<path fill="#2980B9" d="M260.333,237.738H182.03c-2.412,0-4.366,1.955-4.366,4.367v56.431c0,2.411,1.955,4.366,4.366,4.366h78.304
			c2.411,0,4.366-1.955,4.366-4.366v-56.431C264.7,239.693,262.745,237.738,260.333,237.738z M192.774,294.17l13.876-13.876
			l13.875,13.876H192.774z M255.967,294.171h-23.145v-0.001c-0.111-0.145-0.229-0.284-0.362-0.417l-7.501-7.501l16.989-16.988
			l14.021,14.021L255.967,294.171L255.967,294.171z M255.967,270.935l-10.933-10.934c-1.706-1.705-4.47-1.705-6.175,0
			l-20.075,20.076l-9.047-9.045c-1.705-1.705-4.469-1.705-6.175,0l-17.167,17.167v-41.727h69.572V270.935z"/>
	</g>
</g>
<g>
	<g>
		<path fill="#2980B9" d="M357.342,245.603l-7.902-7.904c-4.023-4.023-10.569-4.022-14.592,0l-56.658,56.658
			c-0.526,0.527-0.89,1.155-1.091,1.823h0l0,0.004c-0.003,0.01-0.007,0.021-0.01,0.032l-6.132,20.266H182.03
			c-2.412,0-4.366,1.955-4.366,4.366s1.955,4.365,4.366,4.365h92.162c0.001,0,0.003,0,0.004,0c0.001,0,0.001,0,0.003,0h0.133
			c0.641,0,1.248-0.141,1.796-0.389l22.733-6.881l0.001-0.001c0.681-0.205,1.31-0.577,1.821-1.09l56.658-56.658
			c1.949-1.949,3.022-4.54,3.022-7.296S359.291,247.55,357.342,245.603z M280.737,314.305l2.607-8.618l6.011,6.01L280.737,314.305z
			 M297.597,307.59l-10.145-10.146l44.324-44.326l10.146,10.146L297.597,307.59z M351.168,254.019l-3.07,3.071l-10.146-10.146
			l3.072-3.071c0.617-0.618,1.623-0.618,2.241,0l7.903,7.904c0.403,0.404,0.465,0.876,0.465,1.121
			C351.633,253.144,351.572,253.615,351.168,254.019z"/>
	</g>
</g>
<g>
	<g>
		<path fill="#2980B9" d="M334.562,337.478H182.03c-2.412,0-4.366,1.954-4.366,4.366c0,2.411,1.955,4.366,4.366,4.366h152.532
			c2.411,0,4.366-1.955,4.366-4.366C338.928,339.432,336.973,337.478,334.562,337.478z"/>
	</g>
</g>
<g>
	<g>
		<path fill="#2980B9" d="M353.949,337.478h-2.359c-2.412,0-4.367,1.954-4.367,4.366c0,2.411,1.955,4.366,4.367,4.366h2.359
			c2.41,0,4.365-1.955,4.365-4.366C358.314,339.432,356.359,337.478,353.949,337.478z"/>
	</g>
</g>
</svg>
