<?xml version="1.0" encoding="utf-8"?>
<!-- Generator: Adobe Illustrator 16.0.0, SVG Export Plug-In . SVG Version: 6.00 Build 0)  -->
<!DOCTYPE svg PUBLIC "-//W3C//DTD SVG 1.1//EN" "http://www.w3.org/Graphics/SVG/1.1/DTD/svg11.dtd">
<svg version="1.1" id="Capa_1" xmlns="http://www.w3.org/2000/svg" xmlns:xlink="http://www.w3.org/1999/xlink" x="0px" y="0px"
	 width="600px" height="600px" viewBox="0 0 600 600" enable-background="new 0 0 600 600" xml:space="preserve">
<circle fill="none" stroke="#2980B9" stroke-width="9" stroke-miterlimit="10" cx="300" cy="300" r="286"/>
<g>
	<g>

			<rect x="187.89" y="324.55" fill="none" stroke="#2980B9" stroke-width="9" stroke-miterlimit="10" width="207.726" height="140.749"/>
		<path fill="none" stroke="#2980B9" stroke-width="9" stroke-miterlimit="10" d="M415.262,297.758
			c7.511-49.708-32.548-74.36-47.654-83.625c-0.633-0.388-1.308-0.666-1.969-0.949c-4.228-2.822-8.974-4.9-13.822-6.088
			l-9.451,9.516l-9.166-9.623c-0.034,0.008-0.063,0.008-0.096,0.017c-4.936,1.183-9.773,3.299-14.071,6.178
			c-1.155,0.493-2.284,1.084-3.32,1.895c-31.333,24.482-45.269,11.347-46.929,10.192c-5.484-3.881-12.677-3.417-17.673,0.584
			l-23.521-22.146l4.707-5.638c1.97-2.36,2.913-5.237,2.902-8.089l-14.697-12.263c-2.812,0.496-5.468,1.943-7.441,4.303
			l-13.649,16.366c-1.87,2.235-2.812,4.927-2.897,7.628l15.141,12.631c2.64-0.568,5.119-1.975,6.983-4.208l4.938-5.919
			l23.379,22.146l0.404-0.289c-3.468,6.462-1.717,14.62,4.422,18.96c1.638,1.158,32.576,17.792,51.744,3.517v44.901h-76.573
			c2.504,0,4.533-2.032,4.533-4.538c0-2.506-2.029-4.54-4.533-4.54h-0.356c0-4.457-3.617-8.072-8.072-8.072h-33.292
			c-4.457,0-8.073,3.615-8.073,8.072h-0.354c-2.506,0-4.535,2.034-4.535,4.54c0,2.506,2.029,4.538,4.535,4.538h-16.417v16.484
			h265.057v-16.484L415.262,297.758L415.262,297.758z M342.279,218.026h0.176l9.155,61.174l-9.155,12.526h-0.176l-9.151-12.526
			L342.279,218.026z M381.211,265.432c4.923,8.578,6.95,19.047,4.044,32.329h-4.044V265.432z"/>
		<path fill="none" stroke="#2980B9" stroke-width="9" stroke-miterlimit="10" d="M342.373,129c20.959,0,37.946,16.99,37.946,37.947
			c0,20.959-16.987,37.948-37.946,37.948c-20.96,0-37.95-16.989-37.95-37.948C304.423,145.99,321.413,129,342.373,129z"/>
	</g>
</g>
</svg>
