<?xml version="1.0" encoding="utf-8"?>
<!-- Generator: Adobe Illustrator 16.0.0, SVG Export Plug-In . SVG Version: 6.00 Build 0)  -->
<!DOCTYPE svg PUBLIC "-//W3C//DTD SVG 1.1//EN" "http://www.w3.org/Graphics/SVG/1.1/DTD/svg11.dtd">
<svg version="1.1" id="Capa_1" xmlns="http://www.w3.org/2000/svg" xmlns:xlink="http://www.w3.org/1999/xlink" x="0px" y="0px"
	 width="600px" height="600px" viewBox="0 0 600 600" enable-background="new 0 0 600 600" xml:space="preserve">
<circle fill="none" stroke="#2980B9" stroke-width="9" stroke-miterlimit="10" cx="300" cy="300" r="286"/>
<g>
	<path fill="#2980B9" d="M318.907,253.485c2.388,0,4.323-1.936,4.323-4.325c0-2.387-1.936-4.323-4.323-4.323h-0.362v-18.559
		c0-6.321-5.142-11.462-11.462-11.462H178.197c-6.32,0-11.463,5.142-11.463,11.462v18.559h-0.361c-2.388,0-4.324,1.936-4.324,4.323
		c0,2.389,1.936,4.325,4.324,4.325h10.636v10.329l-5.305,3.038c-5.414,3.101-9.655,10.811-9.655,17.554v136.994
		c0,10.257,8.344,18.601,18.602,18.601h123.979c10.256,0,18.6-8.344,18.6-18.602V284.406c0-6.743-4.239-14.454-9.654-17.554
		l-5.306-3.037v-10.33H318.907L318.907,253.485z M314.583,421.398c0,5.489-4.464,9.954-9.953,9.954H180.651
		c-5.489,0-9.955-4.465-9.955-9.954v-9.953h143.886V421.398z M314.583,402.799H170.697v-83.693h143.886V402.799z M309.278,274.355
		c2.776,1.59,5.305,6.379,5.305,10.049v26.053H170.697v-26.052c0-3.67,2.529-8.459,5.305-10.05l7.48-4.283
		c1.345-0.77,2.175-2.201,2.175-3.752v-12.835h113.966v12.835c0,1.551,0.829,2.982,2.175,3.752L309.278,274.355z M175.383,244.837
		v-18.559c0-1.526,1.288-2.815,2.814-2.815h17.17v8.404c0,2.388,1.936,4.324,4.323,4.324c2.389,0,4.325-1.936,4.325-4.324v-8.404
		H224v8.404c0,2.388,1.936,4.324,4.325,4.324c2.387,0,4.323-1.936,4.323-4.324v-8.404h19.985v8.404c0,2.388,1.936,4.324,4.324,4.324
		c2.388,0,4.324-1.936,4.324-4.324v-8.404h19.985v8.404c0,2.388,1.935,4.324,4.322,4.324c2.389,0,4.325-1.936,4.325-4.324v-8.404
		h17.17c1.526,0,2.815,1.29,2.815,2.815v18.559H175.383z"/>
	<path fill="#2980B9" d="M216.774,387.165h51.732c14.454,0,26.213-11.759,26.213-26.213s-11.759-26.213-26.213-26.213h-51.732
		c-14.454,0-26.214,11.759-26.214,26.213S202.32,387.165,216.774,387.165z M246.964,343.386h21.542
		c9.686,0,17.566,7.881,17.566,17.566c0,9.687-7.88,17.566-17.566,17.566h-21.542V343.386z M216.774,343.386h21.542v35.133h-21.542
		c-9.687,0-17.566-7.88-17.566-17.566C199.208,351.267,207.087,343.386,216.774,343.386z"/>
	<path fill="#2980B9" d="M286.652,261.997h-53.435c-2.388,0-4.324,1.935-4.324,4.323c0,2.388,1.936,4.324,4.324,4.324h53.435
		c2.388,0,4.324-1.936,4.324-4.324C290.976,263.932,289.04,261.997,286.652,261.997z"/>
	<path fill="#2980B9" d="M215.923,261.997h-17.295c-2.389,0-4.324,1.935-4.324,4.323c0,2.388,1.935,4.324,4.324,4.324h17.295
		c2.387,0,4.323-1.936,4.323-4.324C220.247,263.932,218.311,261.997,215.923,261.997z"/>
	<path fill="#2980B9" d="M338.492,418.382c0,2.387,1.936,4.323,4.324,4.323c2.388,0,4.323-1.937,4.323-4.323v-34.589
		c0-2.389-1.936-4.325-4.323-4.325c-2.389,0-4.324,1.937-4.324,4.325V418.382z"/>
	<path fill="#2980B9" d="M342.816,370.821c2.388,0,4.323-1.937,4.323-4.323v-175.83c0-2.388-1.936-4.324-4.323-4.324
		c-2.389,0-4.324,1.936-4.324,4.324v175.83C338.492,368.885,340.428,370.821,342.816,370.821z"/>
	<path fill="#2980B9" d="M400.428,169.05H285.204c-17.96,0-32.572,14.612-32.572,32.571c0,2.388,1.936,4.324,4.324,4.324
		c2.388,0,4.324-1.936,4.324-4.324c0-13.191,10.732-23.924,23.924-23.924h115.224c13.193,0,23.926,10.733,23.926,23.924v205.807
		c0,13.192-10.732,23.925-23.926,23.925h-67.581c-2.389,0-4.325,1.936-4.325,4.324c0,2.388,1.937,4.323,4.325,4.323h67.581
		C418.389,440,433,425.388,433,407.428V201.621C433,183.662,418.389,169.05,400.428,169.05z"/>
	<path fill="#2980B9" d="M385.746,236.871c11.639,0,21.107-9.468,21.107-21.107c0-11.638-9.468-21.106-21.107-21.106
		c-11.639,0-21.106,9.468-21.106,21.106C364.64,227.402,374.107,236.871,385.746,236.871z M385.746,203.305
		c6.87,0,12.461,5.589,12.461,12.459c0,6.871-5.59,12.46-12.461,12.46s-12.46-5.589-12.46-12.46
		C373.286,208.894,378.876,203.305,385.746,203.305z"/>
	<path fill="#2980B9" d="M385.746,296.044c11.639,0,21.107-9.468,21.107-21.107c0-11.638-9.468-21.106-21.107-21.106
		c-11.639,0-21.106,9.468-21.106,21.106C364.64,286.576,374.107,296.044,385.746,296.044L385.746,296.044z M385.746,262.479
		c6.87,0,12.461,5.589,12.461,12.459c0,6.871-5.59,12.46-12.461,12.46s-12.46-5.589-12.46-12.46
		C373.286,268.068,378.876,262.479,385.746,262.479z"/>
	<path fill="#2980B9" d="M385.746,355.219c11.639,0,21.107-9.469,21.107-21.106c0-11.639-9.468-21.107-21.107-21.107
		c-11.639,0-21.106,9.469-21.106,21.107C364.64,345.75,374.107,355.219,385.746,355.219z M385.746,321.652
		c6.87,0,12.461,5.59,12.461,12.46c0,6.869-5.59,12.459-12.461,12.459s-12.46-5.59-12.46-12.459
		C373.286,327.242,378.876,321.652,385.746,321.652z"/>
	<path fill="#2980B9" d="M385.746,414.393c11.639,0,21.107-9.469,21.107-21.106c0-11.639-9.468-21.107-21.107-21.107
		c-11.639,0-21.106,9.469-21.106,21.107C364.64,404.924,374.107,414.393,385.746,414.393z M385.746,380.826
		c6.87,0,12.461,5.59,12.461,12.46c0,6.869-5.59,12.459-12.461,12.459s-12.46-5.59-12.46-12.459
		C373.286,386.416,378.876,380.826,385.746,380.826z"/>
	<path fill="#2980B9" d="M292.926,205.428c2.058-1.39,4.465-2.124,6.961-2.124c2.548,0,4.996,0.762,7.08,2.205
		c0.75,0.52,1.607,0.769,2.455,0.769c1.371,0,2.721-0.65,3.56-1.863c1.359-1.964,0.869-4.658-1.095-6.017
		c-3.536-2.448-7.686-3.742-12-3.742c-4.227,0-8.308,1.246-11.798,3.604c-1.979,1.336-2.501,4.023-1.165,6.003
		C288.26,206.243,290.948,206.765,292.926,205.428L292.926,205.428z"/>
</g>
</svg>
