<?xml version="1.0" encoding="utf-8"?>
<!-- Generator: Adobe Illustrator 16.0.0, SVG Export Plug-In . SVG Version: 6.00 Build 0)  -->
<!DOCTYPE svg PUBLIC "-//W3C//DTD SVG 1.1//EN" "http://www.w3.org/Graphics/SVG/1.1/DTD/svg11.dtd">
<svg version="1.1" id="Capa_1" xmlns="http://www.w3.org/2000/svg" xmlns:xlink="http://www.w3.org/1999/xlink" x="0px" y="0px"
	 width="600px" height="600px" viewBox="0 0 600 600" enable-background="new 0 0 600 600" xml:space="preserve">
<circle fill="none" stroke="#2980B9" stroke-width="9" stroke-miterlimit="10" cx="300" cy="300" r="286"/>
<g>
	<g id="Layer_2_16_">
		<g>
			<path fill="none" stroke="#2980B9" stroke-width="9" stroke-miterlimit="10" d="M230.665,234.782
				c2.118,27.823,13.184,15.831,15.467,28.023c3.796,20.267,21.738,34.925,32.908,39.989c6.517,2.952,13.228,4.434,20.282,4.552
				v0.007c0.025,0,0.05-0.004,0.074-0.004s0.048,0.004,0.073,0.004v-0.007c7.055-0.118,13.765-1.6,20.282-4.552
				c11.17-5.063,29.113-19.722,32.909-39.989c2.282-12.191,13.348-0.2,15.467-28.023c0-11.088-6.042-13.847-6.042-13.847
				s3.071-16.412,4.274-29.041c1.49-15.739-9.188-56.396-66.142-56.396c-0.249,0-0.479,0.014-0.723,0.016c-0.009,0-0.017,0-0.026,0
				v-0.002c-0.023,0-0.048,0.001-0.072,0.001c-0.025,0-0.05,0-0.073-0.001v0.003c-0.01,0.001-0.018,0.001-0.026,0.001
				c-0.243-0.003-0.474-0.017-0.723-0.017c-56.954,0-67.632,40.657-66.142,56.396c1.202,12.629,4.274,29.041,4.274,29.041
				S230.665,223.694,230.665,234.782z"/>
			<path fill="none" stroke="#2980B9" stroke-width="9" stroke-miterlimit="10" d="M428.594,371.365
				c-28.728-14.614-70.365-32.868-72.363-33.513c-0.022-0.008-0.039-0.009-0.062-0.016c-1.169-0.416-2.425-0.647-3.737-0.647
				c-4.881,0-9.021,3.126-10.557,7.482c-0.008-0.005-0.016-0.008-0.023-0.013c-7.415,17.867-21.035,49.718-29.492,65.076
				l-2.037-43.058c0,0,12.7-26.956,14.091-29.426c3.272-5.789,0.325-10.717-5.811-10.717c-3.043,0-10.657,0-18.283,0
				c-0.009,0-0.017,0-0.025,0c-0.049,0-0.098,0-0.146,0c-0.009,0-0.018,0-0.026,0c-0.104,0-0.209,0-0.313,0s-0.209,0-0.313,0
				c-0.009,0-0.017,0-0.025,0c-0.049,0-0.099,0-0.147,0c-0.009,0-0.018,0-0.025,0c-7.625,0-15.238,0-18.283,0
				c-6.135,0-9.082,4.928-5.81,10.717c1.39,2.47,14.091,29.426,14.091,29.426l-2.037,43.058
				c-8.457-15.358-22.077-47.206-29.492-65.076c-0.008,0.005-0.016,0.008-0.024,0.013c-1.535-4.354-5.676-7.482-10.556-7.482
				c-1.313,0-2.569,0.231-3.737,0.647c-0.022,0.008-0.039,0.01-0.062,0.016c-1.998,0.645-43.636,18.898-72.363,33.513
				c-12.901,6.563-20.688,14.727-20.688,23.317c0,28.4,0,67.615,0,67.615h148.856h0.129h0.072h0.004h0.072h0.13h0.209h0.211h0.129
				h0.071h0.005h0.07h0.13h148.857c0,0,0-39.215,0-67.615C449.28,386.092,441.494,377.929,428.594,371.365z"/>
		</g>
	</g>
</g>
</svg>
