<?xml version="1.0" encoding="utf-8"?>
<!-- Generator: Adobe Illustrator 16.0.0, SVG Export Plug-In . SVG Version: 6.00 Build 0)  -->
<!DOCTYPE svg PUBLIC "-//W3C//DTD SVG 1.1//EN" "http://www.w3.org/Graphics/SVG/1.1/DTD/svg11.dtd">
<svg version="1.1" id="Capa_1" xmlns="http://www.w3.org/2000/svg" xmlns:xlink="http://www.w3.org/1999/xlink" x="0px" y="0px"
	 width="600px" height="600px" viewBox="0 0 600 600" enable-background="new 0 0 600 600" xml:space="preserve">
<circle fill="none" stroke="#2980B9" stroke-width="9" stroke-miterlimit="10" cx="300" cy="300" r="286"/>
<g>
	<path fill="#2980B9" d="M318.971,226.608c6.146,8.98,16.47,14.888,28.15,14.888c11.693,0,22.028-5.921,28.172-14.92
		c14.088-7.596,13.921-20.518,13.845-26.074c-0.313-22.925-17.448-40.289-40.743-41.286c-12.291-0.529-19.404,5.459-21.582,7.649
		c-1.902,0.432-6.134,1.721-10.367,5.248c-5.034,4.193-11.102,12.499-11.425,28.253C304.906,205.945,304.65,218.93,318.971,226.608z
		 M347.121,236.088c-15.816,0-28.684-12.867-28.684-28.684v-7.989c7.416-2.813,11.986-10.63,14.23-15.619
		c6.113,6.434,21.143,19.438,43.136,20.11v3.498C375.804,223.221,362.936,236.088,347.121,236.088z M310.428,200.477
		c0.525-25.687,17.404-28.344,18.107-28.441c0.673-0.087,1.301-0.437,1.737-0.956c0.239-0.285,5.985-6.969,17.892-6.461
		c20.336,0.871,35.294,15.993,35.566,35.958c0.05,3.655,0.125,9.441-3.438,14.666c0.595-2.519,0.919-5.14,0.919-7.837v-3.711
		c1.059-0.407,1.792-1.446,1.735-2.642c-0.07-1.49-1.336-2.642-2.829-2.571c-28.49,1.354-46.018-21.231-46.189-21.458l-0.006,0.004
		c-0.332-0.438-0.793-0.781-1.357-0.955c-1.425-0.438-2.938,0.363-3.379,1.79c-0.049,0.162-5.088,16.141-15.406,17.152
		c-1.486,0.146-2.574,1.468-2.428,2.954c0.102,1.036,0.775,1.874,1.677,2.24v7.197c0,2.774,0.341,5.471,0.97,8.056
		C310.821,210.942,310.32,205.681,310.428,200.477z"/>
	<path fill="#2980B9" d="M348.063,214.603h-3.43c-6.536,0-11.854,5.317-11.854,11.853v3.546c0,1.493,1.21,2.703,2.704,2.703
		c1.493,0,2.704-1.21,2.704-2.703v-3.546c0-3.554,2.891-6.445,6.445-6.445h3.43c3.555,0,6.445,2.892,6.445,6.445v3.546
		c0,1.493,1.211,2.703,2.705,2.703s2.703-1.21,2.703-2.703v-3.546C359.916,219.92,354.6,214.603,348.063,214.603z"/>
	<path fill="#2980B9" d="M349.535,225.078h-6.374c-1.494,0-2.704,1.21-2.704,2.704c0,1.493,1.21,2.704,2.704,2.704h6.374
		c1.493,0,2.703-1.211,2.703-2.704S351.027,225.078,349.535,225.078z"/>
	<path fill="#2980B9" d="M439.412,300.587c0,0-39.377-38.147-51.662-51.663c-3.479-3.827-8.273-6.533-13.838-6.533h-15.061
		c-1.383,0-2.541,1.041-2.689,2.415c-0.42,3.912-4.385,6.978-9.025,6.978c-4.642,0-8.607-3.064-9.027-6.978
		c-0.148-1.374-1.309-2.415-2.689-2.415h-15.061c-5.221,0-9.781,2.385-13.209,5.816c-0.015,0.015-0.034,0.024-0.05,0.039
		c-8.117,7.835-32.385,31.427-32.385,31.427v-4.605c0-4.999-4.068-9.066-9.066-9.066h-98.932c-4.999,0-9.066,4.067-9.066,9.066
		v94.796c0,4.999,4.067,9.066,9.066,9.066h98.932c4.999,0,9.066-4.067,9.066-9.066v-47.334l27.706-26.682v47.147
		c0,1.494,1.21,2.704,2.703,2.704h1.605v106.93c0,10.894,8.863,19.756,19.757,19.756s19.757-8.862,19.757-19.756v-71.325h1.785
		v71.325c0,10.894,8.863,19.756,19.756,19.756c10.895,0,19.758-8.862,19.758-19.756v-106.93h1.604c1.494,0,2.704-1.21,2.704-2.704
		v-46.862l26.074,25.942c2.961,2.962,6.852,4.443,10.742,4.443c3.893,0,7.783-1.481,10.746-4.443
		C445.338,316.151,445.338,306.512,439.412,300.587z M391.852,260.673l12.449,12.449l-12.449,12.449V260.673z M347.137,257.19
		c6.561,0,12.129-3.897,13.893-9.393h12.883c6.91,0,12.531,5.62,12.531,12.53v79.963H307.83v-15.287
		c0.461,0.363,1.033,0.589,1.666,0.589h17.178c1.494,0,2.704-1.21,2.704-2.704s-1.21-2.703-2.704-2.703h-17.178
		c-0.633,0-1.206,0.225-1.666,0.589v-60.446c0-6.625,5.172-12.051,11.687-12.487v35.284c0,1.494,1.21,2.704,2.704,2.704
		s2.703-1.21,2.703-2.704v-35.327h8.32C335.008,253.293,340.574,257.19,347.137,257.19z M302.422,260.328v26.301l-13.351-13.351
		l13.351-12.956C302.422,260.324,302.422,260.326,302.422,260.328z M269.308,369.862c0,2.018-1.641,3.659-3.658,3.659h-98.932
		c-2.018,0-3.658-1.642-3.658-3.659v-94.796c0-2.018,1.641-3.658,3.658-3.658h98.932c2.018,0,3.658,1.641,3.658,3.658V369.862z
		 M274.716,287.207l10.474-10.164l14.208,14.208l-24.682,23.769V287.207z M382.135,358.409l-9.524-9.525
		c-1.055-1.056-2.769-1.056-3.823,0c-1.057,1.056-1.057,2.769,0,3.824l13.348,13.348v70.501h-4.594c-1.493,0-2.703,1.21-2.703,2.704
		s1.21,2.704,2.703,2.704h4.594v4.572h-19.261c-1.493,0-2.704,1.21-2.704,2.704c0,1.493,1.211,2.704,2.704,2.704h19.261v0.685
		c0,7.911-6.438,14.348-14.35,14.348c-7.91,0-14.348-6.436-14.348-14.348V378.6c0-1.493-1.211-2.704-2.705-2.704h-7.193
		c-1.494,0-2.703,1.211-2.703,2.704v74.029c0,7.911-6.438,14.348-14.349,14.348c-7.913,0-14.349-6.436-14.349-14.348v-0.685h19.332
		c1.492,0,2.703-1.21,2.703-2.704s-1.211-2.704-2.703-2.704h-19.332v-80.637l13.191-13.191c1.057-1.056,1.057-2.769,0-3.824
		c-1.055-1.056-2.769-1.056-3.823,0l-9.369,9.369v-12.554h69.995v12.71H382.135z M435.59,318.252
		c-1.85,1.848-4.307,2.865-6.92,2.865c-2.615,0-5.073-1.018-6.926-2.871l-27.529-27.392l13.909-13.909l27.464,27.465
		C439.404,308.228,439.404,314.436,435.59,318.252z"/>
	<path fill="#2980B9" d="M362.389,288.848h13.324c1.494,0,2.704-1.21,2.704-2.703c0-1.494-1.21-2.704-2.704-2.704h-13.324
		c-1.494,0-2.705,1.21-2.705,2.704C359.684,287.638,360.895,288.848,362.389,288.848z"/>
	<path fill="#2980B9" d="M330.491,265.152c1.494,0,2.704-1.21,2.704-2.704v-5.09c0-1.494-1.21-2.704-2.704-2.704
		c-1.493,0-2.704,1.21-2.704,2.704v5.09C327.787,263.941,328.998,265.152,330.491,265.152z"/>
	<path fill="#2980B9" d="M330.491,284.346c1.494,0,2.704-1.21,2.704-2.704v-5.09c0-1.494-1.21-2.704-2.704-2.704
		c-1.493,0-2.704,1.21-2.704,2.704v5.09C327.787,283.136,328.998,284.346,330.491,284.346z"/>
	<path fill="#2980B9" d="M240.585,324.395c-1.476-0.199-2.842,0.836-3.042,2.317c-0.199,1.479,0.838,2.842,2.318,3.042
		c10.707,1.445,15.03,3.429,16.255,4.412c-2.447,2.093-14.947,5.55-37.228,5.812v-15.167c8.854-0.127,17.114-0.878,23.494-2.149
		c8.857-1.764,12.808-4.158,12.808-7.765c0-2.66-1.897-6.453-18.302-8.67c-1.485-0.202-2.842,0.838-3.041,2.317
		c-0.2,1.48,0.837,2.842,2.317,3.042c7.874,1.064,11.624,2.479,13.066,3.325c-2.845,1.706-13.153,4.247-30.342,4.492v-15.868
		c6.074-0.123,11.726-0.657,16.137-1.536c4.544-0.905,9.761-2.439,9.761-6.3c0-3.526-4.233-5.671-13.727-6.954
		c-1.474-0.202-2.842,0.838-3.042,2.318c-0.2,1.479,0.837,2.842,2.317,3.042c3.676,0.496,6.055,1.102,7.499,1.606
		c-3.011,1.038-9.423,2.22-18.944,2.412v-12.242c0-1.494-1.21-2.704-2.704-2.704c-1.494,0-2.704,1.21-2.704,2.704v12.242
		c-9.523-0.192-15.935-1.375-18.946-2.413c1.518-0.53,4.066-1.17,8.061-1.68c1.481-0.188,2.53-1.543,2.341-3.024
		c-0.188-1.48-1.538-2.527-3.024-2.34c-12.701,1.618-14.329,4.607-14.329,7.031c0,3.86,5.216,5.396,9.76,6.3
		c4.413,0.88,10.063,1.414,16.137,1.536v15.868c-17.189-0.245-27.5-2.788-30.343-4.493c1.494-0.88,5.452-2.357,13.863-3.429
		c1.481-0.189,2.529-1.543,2.34-3.024c-0.188-1.481-1.536-2.532-3.024-2.341c-17.153,2.187-19.137,6.058-19.137,8.78
		c0,3.605,3.95,6.001,12.808,7.765c6.379,1.271,14.64,2.021,23.493,2.148v15.168c-22.284-0.262-34.785-3.72-37.229-5.813
		c1.264-1.02,5.818-3.085,17.198-4.535c1.481-0.188,2.53-1.543,2.341-3.023c-0.189-1.481-1.538-2.528-3.024-2.341
		c-22.186,2.826-22.186,8.141-22.186,9.888c0,3.928,4.684,6.69,14.741,8.694c7.627,1.519,17.541,2.406,28.158,2.536v11.907
		c-9.523-0.192-15.935-1.374-18.946-2.412c1.518-0.53,4.066-1.171,8.061-1.681c1.481-0.188,2.529-1.542,2.34-3.023
		s-1.538-2.53-3.024-2.341c-12.701,1.619-14.329,4.608-14.329,7.032c0,3.86,5.216,5.395,9.761,6.299
		c5.06,1.009,11.752,1.564,18.841,1.564c7.09,0,13.78-0.556,18.841-1.564c4.544-0.905,9.761-2.438,9.761-6.299
		c0-3.526-4.234-5.671-13.728-6.954c-1.473-0.199-2.842,0.837-3.042,2.318c-0.2,1.479,0.837,2.842,2.318,3.041
		c3.676,0.497,6.055,1.103,7.498,1.607c-3.011,1.038-9.423,2.219-18.944,2.412v-11.905c10.617-0.13,20.533-1.018,28.159-2.536
		c10.056-2.004,14.74-4.767,14.74-8.695C261.787,331.193,259.589,326.962,240.585,324.395z"/>
	<path fill="#2980B9" d="M195.96,203.38c0,7.175,5.837,13.012,13.012,13.012s13.013-5.837,13.013-13.012
		c0-7.176-5.837-13.013-13.015-13.013C201.797,190.367,195.96,196.204,195.96,203.38z M208.973,195.775
		c4.193,0,7.604,3.411,7.604,7.604s-3.412,7.604-7.605,7.604c-4.193,0-7.604-3.411-7.604-7.604S204.779,195.775,208.973,195.775z"/>
	<path fill="#2980B9" d="M217.1,189.299c5.017,2.902,8.133,8.298,8.133,14.08c0,0.718,0.284,1.405,0.792,1.912
		c0.508,0.507,1.195,0.792,1.913,0.792l22.558,0.001c0.717,0,1.404-0.285,1.912-0.792c0.507-0.508,0.792-1.195,0.792-1.912
		c0-15.729-8.473-30.403-22.111-38.295c-0.622-0.359-1.358-0.456-2.053-0.272c-0.694,0.186-1.285,0.64-1.643,1.261l-11.278,19.533
		C215.366,186.898,215.807,188.551,217.1,189.299z M230.673,171.203c9.876,6.679,16.185,17.603,17.022,29.473H230.47
		c-0.731-5.766-3.775-11.035-8.408-14.558L230.673,171.203z"/>
	<path fill="#2980B9" d="M219.152,217.188c-0.693-0.186-1.43-0.087-2.053,0.271c-2.463,1.425-5.273,2.179-8.126,2.179
		c-2.852,0-5.663-0.753-8.127-2.179c-0.621-0.359-1.359-0.457-2.053-0.271c-0.693,0.185-1.285,0.639-1.643,1.26l-11.278,19.533
		c-0.746,1.292-0.305,2.945,0.987,3.692c6.705,3.88,14.352,5.931,22.113,5.931s15.408-2.051,22.113-5.931
		c1.292-0.747,1.734-2.399,0.987-3.692l-11.277-19.533C220.437,217.827,219.845,217.373,219.152,217.188z M208.973,242.197
		c-5.907,0-11.737-1.354-17.019-3.935l8.612-14.915c5.303,2.233,11.513,2.233,16.815,0l8.611,14.915
		C220.709,240.844,214.879,242.197,208.973,242.197z"/>
	<path fill="#2980B9" d="M167.452,206.084l22.557-0.001c0.717,0,1.405-0.285,1.913-0.792c0.507-0.507,0.792-1.194,0.792-1.912
		c-0.001-5.783,3.115-11.178,8.132-14.08c1.292-0.748,1.734-2.4,0.988-3.693l-11.276-19.533c-0.358-0.621-0.95-1.074-1.644-1.26
		c-0.692-0.186-1.43-0.089-2.053,0.271c-13.639,7.893-22.112,22.566-22.112,38.296c0,0.717,0.285,1.404,0.792,1.912
		C166.047,205.799,166.735,206.084,167.452,206.084z M187.274,171.203l8.61,14.914c-4.633,3.523-7.677,8.793-8.408,14.559h-17.225
		C171.088,188.806,177.397,177.882,187.274,171.203z"/>
</g>
</svg>
