<?xml version="1.0" encoding="utf-8"?>
<!-- Generator: Adobe Illustrator 16.0.0, SVG Export Plug-In . SVG Version: 6.00 Build 0)  -->
<!DOCTYPE svg PUBLIC "-//W3C//DTD SVG 1.1//EN" "http://www.w3.org/Graphics/SVG/1.1/DTD/svg11.dtd">
<svg version="1.1" id="Capa_1" xmlns="http://www.w3.org/2000/svg" xmlns:xlink="http://www.w3.org/1999/xlink" x="0px" y="0px"
	 width="600px" height="600px" viewBox="0 0 600 600" enable-background="new 0 0 600 600" xml:space="preserve">
<circle fill="none" stroke="#2980B9" stroke-width="9" stroke-miterlimit="10" cx="300" cy="300" r="286"/>
<g>
	<g>
		<path fill="#2980B9" d="M439.301,241.923h20.711v-31.067h-16.667l-5.179-20.711H160.834l-5.177,20.711h-16.669v31.067H159.7
			v56.956v25.891v72.488h-20.712v31.066h321.023v-31.066h-20.711v-68.756l5.576,1.859l15.135-7.57v-20.389l-21.006-29.411h0.295
			V241.923z M168.921,200.5h261.157l2.59,10.356H166.333L168.921,200.5z M149.345,231.567v-10.355h3.722h292.866h3.723v10.355
			h-10.356h-10.354h-258.89H159.7H149.345z M428.945,241.923v20.711H278.789h-8.047H170.056v-20.711H428.945z M423.767,315.863
			l-10.355,3.453l-10.355-3.453v-7.564l-13.239-35.308h15.217l18.733,37.466V315.863z M252.9,397.256v-69.289l4.779,2.393
			l10.754-3.586v70.484H252.9V397.256z M252.9,310.721l23.58-37.731h2.31h7.155l-17.512,35.022v7.85l-9.956,3.32l-5.576-2.793
			v-1.979L252.9,310.721L252.9,310.721z M242.545,314.412h-56.956h-15.533v-5.178h72.489V314.412z M195.944,324.768h46.601v72.488
			h-46.601V324.768z M278.789,310.457l18.732-37.467h15.218L299.5,308.291v7.564l-10.355,3.455l-10.355-3.455V310.457
			L278.789,310.457z M378.757,272.99l13.943,37.188v5.686l-10.355,3.453l-10.356-3.453v-6.629l-4.494-36.245H378.757z
			 M357.062,272.99l4.571,36.571v6.303l-10.355,3.453l-10.355-3.453v-6.303l4.572-36.571H357.062z M330.608,308.594l-0.025,7.264
			l-10.371,3.455l-10.355-3.455v-5.686l13.943-37.181h11.257L330.608,308.594z M304.678,325.047l15.533,5.178l15.533-5.178
			l15.532,5.178l15.533-5.178l15.532,5.178l15.533-5.178l5.178,1.725v44.596h-98.375V325.047z M170.056,272.99h94.215
			l-16.181,25.889h-78.034V272.99z M170.056,324.768h15.533v72.488h-15.533V324.768z M449.656,417.969H149.345v-10.357H159.7h10.355
			h15.533h67.311h196.757V417.969z M428.945,397.256H278.789v-70.484l10.355,3.453l5.177-1.723v53.223H413.41v-51.5l15.532-5.178
			v72.209H428.945L428.945,397.256z M449.656,316.391l-5.576,2.785l-9.957-3.318v-7.85l-17.511-35.018h9.667l23.378,32.723
			L449.656,316.391L449.656,316.391z"/>
	</g>
</g>
</svg>
