<?xml version="1.0" encoding="utf-8"?>
<!-- Generator: Adobe Illustrator 16.0.0, SVG Export Plug-In . SVG Version: 6.00 Build 0)  -->
<!DOCTYPE svg PUBLIC "-//W3C//DTD SVG 1.1//EN" "http://www.w3.org/Graphics/SVG/1.1/DTD/svg11.dtd">
<svg version="1.1" id="Capa_1" xmlns="http://www.w3.org/2000/svg" xmlns:xlink="http://www.w3.org/1999/xlink" x="0px" y="0px"
	 width="600px" height="600px" viewBox="0 0 600 600" enable-background="new 0 0 600 600" xml:space="preserve">
<circle fill="none" stroke="#2980B9" stroke-width="9" stroke-miterlimit="10" cx="300" cy="300" r="286"/>
<path fill="none" stroke="#2980B9" stroke-width="9" stroke-miterlimit="10" d="M426.018,353.925l-51.615-12.876
	c-0.193-0.291-0.404-0.57-0.657-0.823l-14.335-14.341c16.639-17.539,27.177-43.407,27.177-72.212c0-5.277-0.358-10.483-1.056-15.605
	c0.015-0.057,0.033-0.109,0.047-0.166c0.271-1.212,6.653-29.987,6.653-57.591c0-20.678-11.222-38.238-28.587-44.739
	c-20.386-7.632-38.608-11.342-55.711-11.342c-10.245,0-35.432,1.686-52.84,16.931h-1.971c-9.282,0-18.23,3.895-24.551,10.684
	c-6.302,6.77-9.537,15.938-8.876,25.154c1.174,16.38,4.139,37.677,7.006,58.272c0.866,6.22,1.76,12.645,2.584,18.788
	c0.094,28.649,10.609,54.366,27.172,71.826l-14.335,14.341c-0.246,0.246-0.454,0.518-0.643,0.8l-51.632,12.9
	c-19.978,4.994-33.93,22.864-33.93,43.456v36.876c0,9.141,7.437,16.577,16.577,16.577h270.878c9.141,0,16.577-7.437,16.577-16.577
	v-36.877C459.95,376.79,445.997,358.92,426.018,353.925L426.018,353.925z M307.934,378.54l11.639,7.76v8.455
	c0,3.306-2.688,5.996-5.995,5.996h-11.286c-3.307,0-5.997-2.69-5.997-5.996V386.3L307.934,378.54z M330.507,265.313
	 M353.433,259.316 M347.438,247.677 M291.357,259.316 M302.291,411.332h11.286c0.356,0,0.71-0.016,1.062-0.037l4.213,28.959h-21.834
	l4.212-28.959C301.581,411.316,301.934,411.332,302.291,411.332z M340.128,386.864c-0.021,0.04-0.067,0.122-0.197,0.153
	c-0.149,0.037-0.257-0.034-0.292-0.058l-11.811-7.873c-0.005-0.004-0.011-0.008-0.017-0.012l-11.573-7.715l36.842-36.842
	l10.37,10.374C359.95,351.207,351.732,365.998,340.128,386.864L340.128,386.864z M262.788,334.519l36.842,36.841l-11.576,7.717
	c-0.004,0.003-0.009,0.006-0.014,0.01l-11.812,7.874c-0.034,0.023-0.142,0.095-0.292,0.058c-0.13-0.03-0.175-0.113-0.197-0.152
	c-11.604-20.867-19.823-35.658-23.322-41.973L262.788,334.519L262.788,334.519z"/>
</svg>
