<?xml version="1.0" encoding="utf-8"?>
<!-- Generator: Adobe Illustrator 16.0.0, SVG Export Plug-In . SVG Version: 6.00 Build 0)  -->
<!DOCTYPE svg PUBLIC "-//W3C//DTD SVG 1.1//EN" "http://www.w3.org/Graphics/SVG/1.1/DTD/svg11.dtd">
<svg version="1.1" id="Capa_1" xmlns="http://www.w3.org/2000/svg" xmlns:xlink="http://www.w3.org/1999/xlink" x="0px" y="0px"
	 width="600px" height="600px" viewBox="0 0 600 600" enable-background="new 0 0 600 600" xml:space="preserve">
<circle fill="none" stroke="#2980B9" stroke-width="9" stroke-miterlimit="10" cx="300" cy="300" r="286"/>
<g>
	<g>
		<g>
			<rect x="228.258" y="434.032" fill="#2980B9" width="8.968" height="8.968"/>
			<rect x="326.902" y="200.871" fill="#2980B9" width="8.969" height="8.968"/>
			<path fill="#2980B9" d="M300,353.322c-19.779,0-35.871,16.093-35.871,35.871s16.092,35.871,35.871,35.871
				c19.779,0,35.871-16.093,35.871-35.871S319.779,353.322,300,353.322z M300,416.096c-14.837,0-26.903-12.065-26.903-26.902
				s12.066-26.902,26.903-26.902s26.902,12.065,26.902,26.902S314.837,416.096,300,416.096z"/>
			<path fill="#2980B9" d="M326.902,308.484V281.58h19.385l8.968,22.42h29.938V179.829l-2.906-1.094
				C380.791,178.173,345.131,165,300,165s-80.791,13.173-82.288,13.734l-2.906,1.094V304h29.938l8.968-22.42h19.384v26.904
				c0,12.792,0,20.644-15.864,44.838h-28.975v71.742h33.759C272.07,436.809,285.158,443,300,443s27.93-6.191,37.982-17.936h33.758
				v-71.742h-28.975C326.902,329.128,326.902,321.276,326.902,308.484z M300.001,173.968c36.271,0,66.899,9.088,76.226,12.165
				v14.738h-31.388v8.968h31.388v8.968H223.775v-8.968h94.16v-8.968h-94.16v-14.738
				C233.101,183.056,263.731,173.968,300.001,173.968z M247.642,272.612l-8.968,22.42h-14.898v-67.258h152.451v67.258h-14.9
				l-8.968-22.42H247.642z M362.772,384.709h-17.934v8.969h17.934v22.42h-29.06l-1.35,1.689
				c-8.586,10.779-19.479,16.245-32.364,16.245s-23.778-5.465-32.364-16.245l-1.349-1.689h-29.06v-22.42h17.936v-8.969h-17.936
				v-22.418h24.819l1.331-1.996c18.689-28.033,18.689-38.01,18.689-51.811V281.58h35.869v26.904c0,13.801,0,23.777,18.689,51.811
				l1.332,1.996h24.817V384.709z"/>
			<path fill="#2980B9" d="M200.041,403.96c-10.438-10.438-16.652-24.339-16.621-37.176c0.031-12.712,6.398-26.966,16.621-37.194
				l-6.34-6.34c-12.021,12.025-19.213,28.289-19.249,43.516c-0.036,15.169,7.161,31.445,19.249,43.534L200.041,403.96z"/>
			<path fill="#2980B9" d="M169.968,384.709H161C161,416.851,187.149,443,219.291,443v-8.968
				C192.096,434.032,169.968,411.904,169.968,384.709z"/>
			<path fill="#2980B9" d="M406.3,410.3c12.088-12.089,19.284-28.365,19.249-43.534c-0.035-15.222-7.228-31.49-19.249-43.516
				l-6.34,6.34c10.224,10.229,16.59,24.482,16.621,37.194c0.032,12.837-6.183,26.737-16.621,37.176L406.3,410.3z"/>
			<path fill="#2980B9" d="M430.032,384.709c0,27.195-22.128,49.323-49.323,49.323V443C412.851,443,439,416.851,439,384.709H430.032
				z"/>
			<rect x="291.032" y="290.548" fill="#2980B9" width="8.968" height="8.968"/>
			<rect x="291.032" y="308.484" fill="#2980B9" width="8.968" height="8.968"/>
		</g>
	</g>
</g>
</svg>
