<?xml version="1.0" encoding="utf-8"?>
<!-- Generator: Adobe Illustrator 16.0.0, SVG Export Plug-In . SVG Version: 6.00 Build 0)  -->
<!DOCTYPE svg PUBLIC "-//W3C//DTD SVG 1.1//EN" "http://www.w3.org/Graphics/SVG/1.1/DTD/svg11.dtd">
<svg version="1.1" id="Capa_1" xmlns="http://www.w3.org/2000/svg" xmlns:xlink="http://www.w3.org/1999/xlink" x="0px" y="0px"
	 width="600px" height="600px" viewBox="0 0 600 600" enable-background="new 0 0 600 600" xml:space="preserve">
<circle fill="none" stroke="#2980B9" stroke-width="9" stroke-miterlimit="10" cx="300" cy="300" r="286"/>
<g>
	<path fill="#2980B9" d="M440.891,378.73c0-16.911-11.41-31.772-27.748-36.14l-50.962-13.623c-0.483-4.547-2.91-8.831-6.949-11.524
		l-8.258-5.504c-0.954-0.637-2.06-0.9-3.141-0.827v-4.623c16.396-12.775,26.961-32.701,26.961-55.049v-17.063
		c1.333,0.247,2.044,0.404,2.117,0.421c0.377,0.086,0.759,0.13,1.137,0.13c1.413,0,2.782-0.594,3.753-1.668
		c2.506-2.777,3.776-5.73,3.776-8.78c0-4.205-2.146-7.99-6.401-11.335l-3.363-36.992c-0.816-8.983-7.244-16.488-15.994-18.676
		l-49.635-12.409c-3.367-0.842-6.93-0.842-10.299,0l-49.635,12.41c-8.751,2.188-15.178,9.693-15.994,18.676l-3.364,36.992
		c-4.257,3.346-6.403,7.131-6.403,11.337c0,3.048,1.271,6.002,3.777,8.779c1.228,1.361,3.1,1.95,4.886,1.54
		c0.04-0.008,0.753-0.168,2.122-0.421v17.062c0,22.349,10.564,42.274,26.96,55.049v4.624c-1.081-0.072-2.186,0.189-3.141,0.826
		l-8.257,5.506c-4.039,2.691-6.464,6.975-6.949,11.522l-50.963,13.624c-16.337,4.367-27.747,19.229-27.747,36.139v22.813
		c0,5.35,2.003,10.326,5.391,14.127v19.101c0,11.706,9.525,21.231,21.232,21.231h26.96h172.546h26.961
		c11.706,0,21.23-9.525,21.23-21.231v-19.101c3.39-3.801,5.393-8.777,5.393-14.127V378.73z M430.781,378.73v22.813
		c0,4.795-3.057,9.034-7.604,10.551l-30.814,10.271v-14.171c0-5.853,2.278-11.354,6.416-15.49l28.069-28.069
		C429.356,368.79,430.781,373.632,430.781,378.73z M344.814,322.65l4.81,3.206c2.398,1.6,3.236,4.747,1.95,7.323
		c-9.591,19.193-16.17,32.356-19.682,39.371c-8.67-7.623-16.57-12.302-21.991-14.987L344.814,322.65z M236.119,223.324l0.399-4.398
		c2.799-1.531,6.822-3.206,12.526-4.835c13.818-3.949,32.282-6.124,51.99-6.124s38.171,2.174,51.989,6.124
		c5.705,1.629,9.726,3.305,12.526,4.835l0.399,4.398c-11.107-1.631-32.396-3.898-64.915-3.898S247.227,221.693,236.119,223.324z
		 M240.324,177.068c0.427-4.705,3.793-8.636,8.378-9.783l49.636-12.409c1.763-0.441,3.63-0.441,5.394,0l49.636,12.409
		c4.583,1.146,7.95,5.078,8.378,9.783l2.749,30.232c-2.603-1.042-5.501-2.02-8.691-2.932c-13.49-3.854-30.986-6.112-49.713-6.459
		v-27.349c0-2.792-2.264-5.055-5.055-5.055c-2.793,0-5.055,2.263-5.055,5.055v27.349c-18.728,0.347-36.224,2.606-49.712,6.459
		c-3.192,0.912-6.09,1.89-8.692,2.932L240.324,177.068z M241.384,251.44v-18.615c11.52-1.494,31.262-3.29,59.65-3.29
		c28.384,0,48.129,1.796,59.649,3.29v18.615c0,32.89-26.758,59.649-59.649,59.649S241.384,284.332,241.384,251.44z M301.034,321.2
		c11.805,0,22.932-2.951,32.688-8.149v6.392l-32.688,32.69l-32.69-32.69v-6.392C278.102,318.249,289.229,321.2,301.034,321.2z
		 M252.445,325.856l4.808-3.206l34.915,34.913c-5.42,2.686-13.322,7.364-21.992,14.987c-3.51-7.015-10.089-20.178-19.68-39.371
		C249.208,330.604,250.046,327.456,252.445,325.856z M191.535,352.358l50.496-13.498l21.463,42.927
		c0.978,1.952,1.824,3.638,4.377,4.052c0.27,0.044,0.542,0.064,0.81,0.064c1.319,0,2.598-0.516,3.552-1.456
		c9.301-9.179,18.061-14.567,23.746-17.467v51.613c0,2.792,2.263,5.055,5.056,5.055c2.792,0,5.056-2.263,5.056-5.055V366.98
		c5.688,2.9,14.445,8.289,23.745,17.467c0.954,0.94,2.233,1.456,3.55,1.456c0.271,0,0.542-0.021,0.813-0.064
		c2.553-0.414,3.397-2.1,4.377-4.052l21.462-42.929l50.496,13.5c3.55,0.947,6.778,2.581,9.566,4.726l-28.471,28.471
		c-6.046,6.046-9.378,14.086-9.378,22.638v21.272c0,0.006,0,0.014,0,0.018v16.408H219.815v-16.408c0-0.004,0-0.012,0-0.018v-21.272
		c0-8.552-3.33-16.593-9.376-22.638l-28.471-28.471C184.756,354.94,187.984,353.309,191.535,352.358z M171.287,378.73
		c0-5.099,1.426-9.94,3.935-14.095l28.069,28.069c4.138,4.137,6.417,9.638,6.417,15.49v14.171l-30.814-10.271
		c-4.549-1.517-7.604-5.756-7.604-10.551V378.73H171.287z M176.68,434.771v-12.758l33.026,11.009v12.869h-21.905
		C181.669,445.892,176.68,440.904,176.68,434.771z M414.268,445.892h-21.905v-12.869l33.026-11.009v12.758
		C425.389,440.904,420.398,445.892,414.268,445.892z"/>
	<path fill="#2980B9" d="M266.228,289.579c4.876,3.093,11.146,4.662,18.63,4.662c6.695,0,12.009-2.043,15.795-6.074
		c0.136-0.144,0.254-0.295,0.383-0.442c0.129,0.148,0.244,0.298,0.381,0.442c3.785,4.03,9.1,6.074,15.795,6.074
		c7.483,0,13.753-1.568,18.631-4.662c4.166-2.642,7.036-6.316,7.873-10.082c0.604-2.724-1.114-5.425-3.839-6.031
		c-2.727-0.607-5.427,1.114-6.03,3.839c-0.121,0.539-0.809,1.727-2.375,2.964c-1.863,0.332-2.609-0.227-5.328-4.809
		c-1.561-2.625-3.327-5.601-6.18-7.802c-6.625-5.112-14.084-4.413-18.457-2.263c-0.161,0.079-0.316,0.162-0.471,0.246
		c-0.153-0.083-0.309-0.167-0.469-0.246c-4.374-2.149-11.832-2.849-18.458,2.263c-2.852,2.201-4.62,5.177-6.178,7.802
		c-2.72,4.582-3.467,5.141-5.329,4.809c-1.567-1.237-2.254-2.425-2.375-2.964c-0.605-2.725-3.302-4.445-6.031-3.839
		c-2.725,0.606-4.445,3.306-3.839,6.031C259.191,283.262,262.06,286.937,266.228,289.579z M313.785,275.663
		c1.322,1.021,2.459,2.935,3.662,4.959c0.613,1.035,1.326,2.234,2.189,3.435c-0.771,0.048-1.579,0.073-2.426,0.073
		c-3.763,0-6.584-0.955-8.383-2.84c-2.088-2.187-2.598-5.286-2.716-6.897C307.481,273.796,310.68,273.268,313.785,275.663z
		 M284.621,280.622c1.203-2.024,2.339-3.938,3.662-4.959c3.107-2.395,6.304-1.867,7.673-1.271c-0.12,1.603-0.625,4.674-2.671,6.852
		c-1.8,1.916-4.634,2.887-8.427,2.887c-0.847,0-1.656-0.025-2.426-0.073C283.293,282.858,284.007,281.657,284.621,280.622z"/>
</g>
</svg>
