<?xml version="1.0" encoding="utf-8"?>
<!-- Generator: Adobe Illustrator 16.0.0, SVG Export Plug-In . SVG Version: 6.00 Build 0)  -->
<!DOCTYPE svg PUBLIC "-//W3C//DTD SVG 1.1//EN" "http://www.w3.org/Graphics/SVG/1.1/DTD/svg11.dtd">
<svg version="1.1" id="Capa_1" xmlns="http://www.w3.org/2000/svg" xmlns:xlink="http://www.w3.org/1999/xlink" x="0px" y="0px"
	 width="600px" height="600px" viewBox="0 0 600 600" enable-background="new 0 0 600 600" xml:space="preserve">
<circle fill="none" stroke="#2980B9" stroke-width="9" stroke-miterlimit="10" cx="301" cy="300" r="286"/>
<g>
	<g>
		<g>
			<path fill="#2980B9" d="M445.595,402h0.404v-30c0-0.646-0.059-15.99-5.404-31.971L424.294,302h-13.296h-13.294l-16.45,38.419
				c-5.195,15.591-5.255,30.935-5.255,31.58v9.999h-15c-8.27,0-15-6.729-15-14.999v-20.825c23.87-13.859,40-39.64,40-69.175v-0.709
				c8.599-2.235,15-9.995,15-19.29c0-8.985-3.386-14.661-5.281-17.14c0.171-0.926,0.281-1.871,0.281-2.86v-10.001
				C395.999,177.375,355.625,137,306,137s-90,40.375-90,89.999V237c0,0.989,0.11,1.935,0.28,2.859
				c-1.896,2.48-5.28,8.155-5.28,17.14c0,9.295,6.4,17.055,15,19.29v0.709c0,29.535,16.13,55.315,40,69.175v20.825
				c0,8.27-6.73,14.999-15,14.999h-25.001v-7.045c9.831-5.96,15-15.56,15-27.955c0-12.169-8.209-26.34-23.9-29.879l-6.1-1.377
				v26.256h-10v-26.264l-6.11,1.385c-15.685,3.569-23.89,17.729-23.89,29.879c0,12.396,5.171,21.99,15,27.955v12.576
				c-20.62,9.5-35,30.314-35,54.471v5h10v-5c0-25.881,19.771-47.23,45-49.744V447h10v-55h15v55h10v-55H251
				c2.04,0,3.99-0.314,5.89-0.775C261.235,414.396,281.585,432,306,432c24.414,0,44.764-17.605,49.108-40.775
				c1.901,0.461,3.851,0.775,5.891,0.775h10v55H381v-55h15v55h10v-54.745c25.23,2.519,45,23.864,45,49.744v5h10v-5
				C460.999,426.623,455.14,412.63,445.595,402z M218.774,367.52l-2.775,1.38v13.099h-5c-5.186,0-10.196,0.73-15,1.976v-15.074
				l-2.774-1.38C185,363.435,181,356.725,181,346.999c0-6.424,3.415-13.685,10-17.674v22.674h30v-22.685
				c6.585,3.979,10,11.249,10,17.685C231,356.725,226.999,363.435,218.774,367.52z M386,252.711c1.39-0.911,2.67-1.87,3.805-2.895
				c0.656,1.815,1.195,4.194,1.195,7.185c-0.001,3.685-2.026,6.874-5,8.61V252.711z M300.999,147.256V182H311v-34.744
				c40.904,2.55,73.515,35.9,74.864,77.115c-17.796-9.484-55.145-12.37-79.864-12.37c-24.721,0-62.07,2.885-79.865,12.365
				C227.485,183.155,260.095,149.799,300.999,147.256z M226,265.605c-2.976-1.73-5-4.92-5-8.604c0-2.995,0.539-5.375,1.195-7.19
				c1.135,1.03,2.415,1.99,3.805,2.895V265.605z M226.005,237.015c0.979-5.1,30.064-15.015,79.994-15.015
				c49.96,0,79.055,9.925,80,15C386,246.83,356.075,257,305.999,257C255.949,257,226.029,246.84,226.005,237.015z M236,276.999
				v-19.325c22.044,8.399,56.209,9.325,70,9.325c13.79,0,47.953-0.926,70-9.325v19.325c0,38.6-31.401,70-70,70
				C267.399,346.999,236,315.599,236,276.999z M306,421.999c-20.486,0-37.406-15.489-39.71-35.369C272.155,382.055,276,375,276,367
				v-15.89c9.275,3.769,19.391,5.891,30,5.891c10.608,0,20.725-2.12,29.999-5.891V367c0,8,3.845,15.055,9.71,19.63
				C343.404,406.509,326.485,421.999,306,421.999z M399.899,382H386v-10c0-0.14,0.055-14.351,4.595-28.03l13.7-31.97H406v45.919
				c-5.806,2.07-10,7.571-10,14.081C396,375.855,397.504,379.339,399.899,382z M410.999,377c-2.755,0-5-2.239-5-5s2.245-5,5-5
				s5.001,2.239,5.001,5C416,374.76,413.754,377,410.999,377z M435.999,393.364c-5.169-3.729-10.92-6.706-17.134-8.65
				c4.265-2.645,7.134-7.335,7.134-12.715c0-6.511-4.194-12.01-9.999-14.081v-45.919h1.704l13.551,31.581
				c4.67,13.999,4.744,28.278,4.744,28.424V393.364z"/>
			<rect x="235.999" y="203" fill="#2980B9" width="10.001" height="10"/>
			<rect x="256" y="198" fill="#2980B9" width="10" height="10.001"/>
		</g>
	</g>
</g>
</svg>
