<?xml version="1.0" encoding="utf-8"?>
<!-- Generator: Adobe Illustrator 16.0.0, SVG Export Plug-In . SVG Version: 6.00 Build 0)  -->
<!DOCTYPE svg PUBLIC "-//W3C//DTD SVG 1.1//EN" "http://www.w3.org/Graphics/SVG/1.1/DTD/svg11.dtd">
<svg version="1.1" id="Capa_1" xmlns="http://www.w3.org/2000/svg" xmlns:xlink="http://www.w3.org/1999/xlink" x="0px" y="0px"
	 width="600px" height="600px" viewBox="0 0 600 600" enable-background="new 0 0 600 600" xml:space="preserve">
<circle fill="none" stroke="#2980B9" stroke-width="9" stroke-miterlimit="10" cx="300" cy="300" r="286"/>
<g>
	<g>
		<path fill="none" stroke="#2980B9" stroke-width="9" stroke-miterlimit="10" d="M195.777,310.652
			c21.912,0,39.657-17.761,39.657-39.657c0-1.298-0.071-2.5-0.174-3.801c-0.076-0.78-0.171-1.726-0.421-2.75
			c-0.685-3.456-2.421-7.934-4.825-13.194c-7.317-15.951-21.307-38.372-34.237-55.692c-19.816,25.083-29.814,44.398-34.811,56.551
			c-0.089,0.166-0.089,0.346-0.185,0.511c-2.236,5.526-3.356,9.491-3.967,11.824c-0.084,0.25-0.084,0.424-0.163,0.589
			c-0.087,0.696-0.176,1.476-0.266,2.161c-0.09,1.296-0.17,2.5-0.17,3.801C156.208,292.892,173.976,310.652,195.777,310.652
			L195.777,310.652z"/>
		<path fill="none" stroke="#2980B9" stroke-width="9" stroke-miterlimit="10" d="M483.213,294.919
			c-0.136-0.291-0.287-0.533-0.439-0.872c-0.065-0.12-0.12-0.216-0.186-0.344c-4.074-9.158-13.237-10.84-17.933-11.084
			c-27.92,0-101.475,0-116.342,0c-18.431,0-27.822,6.156-27.822,6.156l-97.7,73.418c-2.581,1.946-9.477,13.594-3.429,24.39
			c6.026,10.788,26.728,2.577,26.728,2.577s68.583-44.431,73.75-47.447c5.183-2.993,12.52-2.575,18.116,5.188
			c6.477,12.936-9.9,22.431-9.9,22.431l-57.101,37.239c-11.131,7.267-20.986,8.722-25.896,8.955l-80.488,0.383
			c-15.098-0.002-27.178,3.443-27.178,16.376c0,16.84,18.986,18.551,18.986,18.551h129.524c4.223-0.054,20.21-0.902,35.462-10.932
			l86.716-57.149c0.288-0.185,8.313-5.489,22.915-5.56c7.857-0.076,18.818-0.098,32.776,0.087c0,0,0.175,0,0.229,0
			c0.168,0,0.369,0.022,0.543,0.022c2.957,0.021,14.025-0.686,19.361-11.143C498.906,335.953,490.717,309.591,483.213,294.919
			L483.213,294.919z"/>
	</g>
</g>
</svg>
