<?xml version="1.0" encoding="utf-8"?>
<!-- Generator: Adobe Illustrator 16.0.0, SVG Export Plug-In . SVG Version: 6.00 Build 0)  -->
<!DOCTYPE svg PUBLIC "-//W3C//DTD SVG 1.1//EN" "http://www.w3.org/Graphics/SVG/1.1/DTD/svg11.dtd">
<svg version="1.1" id="Capa_1" xmlns="http://www.w3.org/2000/svg" xmlns:xlink="http://www.w3.org/1999/xlink" x="0px" y="0px"
	 width="600px" height="600px" viewBox="0 0 600 600" enable-background="new 0 0 600 600" xml:space="preserve">
<circle fill="none" stroke="#2980B9" stroke-width="9" stroke-miterlimit="10" cx="301" cy="300" r="286"/>
<g>
	<path fill="#2980B9" d="M441.271,426.818c-1.387-24.135-17.162-44.475-38.856-52.56c9.859-35.021,11.547-72.963,4.858-109.983
		c-5.377-29.765-14.523-49.99-16.799-54.02l22.517-22.517c2.923-2.923,4.494-6.972,4.31-11.106
		c-0.183-4.096-2.082-7.948-5.212-10.564c-29.601-24.751-67.1-38.383-105.59-38.383c-38.49,0-75.989,13.632-105.588,38.383
		c-3.13,2.617-5.03,6.467-5.212,10.564c-0.184,4.135,1.387,8.183,4.31,11.107l23.006,23.004
		c-2.651,4.983-11.346,24.817-16.533,53.532c-6.671,36.933-5.007,74.78,4.79,109.733c-22.046,7.908-38.14,28.422-39.543,52.811
		c-0.065,0.312-0.1,0.634-0.1,0.965v2.504c0,0.822,0.211,1.597,0.584,2.27c2.139,8.57,9.905,14.94,19.13,14.94h72.512
		c0.021,0,0.042,0.005,0.064,0.005c0.023,0,0.048-0.004,0.072-0.005h84.73c0.026,0,0.052,0.005,0.077,0.005
		c0.021,0,0.043-0.004,0.063-0.005h72.795c9.227,0,16.991-6.37,19.131-14.941c0.372-0.673,0.584-1.446,0.584-2.27v-2.503
		C441.371,427.453,441.338,427.131,441.271,426.818z M398.036,265.944c4.519,25.008,7.272,63.393-4.652,105.741
		c-3.661-0.734-7.44-1.132-11.306-1.161c-1.12-2.127-3.006-3.799-5.285-4.634l-24.545-8.927c-0.919-0.336-1.873-0.52-2.828-0.57
		c-2.898-5.792-2.906-13.326-2.906-20.063c0-0.351-0.041-0.691-0.114-1.02c3.476-3.289,6.867-6.946,10.122-10.943
		c15.509-19.06,24.769-42.165,24.769-61.809c0-15.061-6.477-23.315-23.099-29.439c-9.425-3.473-20.272-4.06-31.757-4.682
		c-21.492-1.165-43.696-2.378-60.089-22.34c12.481-5.848,26.143-8.942,40.153-8.942c24.094,0,47.16,9.133,64.951,25.718
		c0.901,0.842,2.052,1.261,3.2,1.261c1.202,0,2.404-0.46,3.319-1.375l5.521-5.521C386.61,223.906,393.645,241.638,398.036,265.944z
		 M330.882,438.11c7.119-27.055,14.532-57.177,17.724-72.101c0.008-0.04,0.031-0.147,0.153-0.215
		c0.12-0.065,0.218-0.031,0.269-0.013l24.546,8.928c0.125,0.046,0.187,0.133,0.216,0.198c0.044,0.1,0.02,0.156,0.009,0.183
		c-7.665,18.679-17.679,42.489-27.896,63.02H330.882z M290.897,438.11c-5.106-19.318-10.429-40.489-14.277-56.671
		c7.928,6.277,18.531,10.044,29.878,10.044c10.813,0,20.952-3.419,28.744-9.173c-3.831,16.065-9.055,36.825-14.07,55.8H290.897z
		 M266.776,438.11c-8.83-17.248-18.41-38.425-28.503-63.02c-0.011-0.026-0.035-0.083,0.01-0.183
		c0.028-0.065,0.089-0.152,0.204-0.195l24.566-8.934c0.042-0.016,0.139-0.05,0.259,0.016c0.123,0.067,0.146,0.175,0.154,0.214
		c3.189,14.925,10.604,45.047,17.723,72.102H266.776z M241.098,223.24c0.155-0.113,0.307-0.232,0.451-0.367
		c5.058-4.714,10.542-8.825,16.355-12.296c19.109,24.578,45.09,25.992,68.022,27.234c10.759,0.583,20.92,1.134,29.018,4.117
		c14.419,5.312,16.957,10.885,16.957,20.629c0,17.553-8.472,38.444-22.662,55.883c-13.573,16.682-29.95,27.043-42.74,27.043
		c-12.79,0-29.166-10.361-42.739-27.043c-14.19-17.438-22.662-38.329-22.662-55.883V223.24z M306.499,354.871
		c9.613,0,20.31-4.239,30.719-11.868c0.215,5.565,0.958,11.492,3.459,16.864c-0.438,0.474-0.785,1.041-1.003,1.691
		c-4.036,12.092-17.679,20.538-33.174,20.538s-29.138-8.446-33.174-20.538c-0.188-0.563-0.477-1.064-0.833-1.496
		c2.552-5.362,3.325-11.289,3.553-16.865C286.371,350.704,296.967,354.871,306.499,354.871z M205.077,177.05
		c0.066-1.492,0.726-2.835,1.855-3.78c27.915-23.342,63.275-36.197,99.567-36.197s71.654,12.855,99.568,36.197
		c1.13,0.945,1.789,2.288,1.855,3.78c0.068,1.531-0.49,2.97-1.57,4.05l-31.883,31.884c-19.034-16.294-42.996-25.216-67.971-25.216
		c-24.974,0-48.936,8.921-67.969,25.217L206.646,181.1C205.565,180.02,205.009,178.581,205.077,177.05z M215.719,265.944
		c4.282-23.703,11.078-41.152,14.307-48.188l1.684,1.684v43.118c0,19.644,9.259,42.749,24.768,61.809
		c3.326,4.087,6.796,7.817,10.351,11.162c-0.043,0.258-0.071,0.521-0.071,0.79c0,6.742-0.009,14.282-2.923,20.078
		c-1.345-0.093-2.708,0.092-4.001,0.564l-24.566,8.934c-2.273,0.833-4.16,2.509-5.28,4.641c-3.291,0.077-6.515,0.424-9.655,1.015
		C208.451,329.253,211.206,290.925,215.719,265.944z M181.044,428.563c0.897-26.561,22.457-47.956,49.073-48.624
		c9.181,22.302,17.953,41.829,26.134,58.172h-64.91C185.91,438.11,181.444,433.895,181.044,428.563z M421.657,438.11h-65.293
		c9.399-19.318,18.463-40.828,25.6-58.195c27.039,0.192,49.085,21.783,49.99,48.647C431.555,433.895,427.09,438.11,421.657,438.11z"
		/>
	<path fill="#2980B9" d="M291.479,167.114h10.328v10.327c0,2.592,2.101,4.694,4.692,4.694c2.593,0,4.693-2.102,4.693-4.694v-10.327
		h10.327c2.593,0,4.694-2.101,4.694-4.694c0-2.592-2.102-4.694-4.694-4.694h-10.327v-10.327c0-2.592-2.101-4.693-4.693-4.693
		c-2.592,0-4.692,2.102-4.692,4.693v10.327h-10.328c-2.592,0-4.693,2.102-4.693,4.694
		C286.786,165.013,288.887,167.114,291.479,167.114z"/>
</g>
</svg>
