<?xml version="1.0" encoding="utf-8"?>
<!-- Generator: Adobe Illustrator 16.0.0, SVG Export Plug-In . SVG Version: 6.00 Build 0)  -->
<!DOCTYPE svg PUBLIC "-//W3C//DTD SVG 1.1//EN" "http://www.w3.org/Graphics/SVG/1.1/DTD/svg11.dtd">
<svg version="1.1" id="Capa_1" xmlns="http://www.w3.org/2000/svg" xmlns:xlink="http://www.w3.org/1999/xlink" x="0px" y="0px"
	 width="600px" height="600px" viewBox="0 0 600 600" enable-background="new 0 0 600 600" xml:space="preserve">
<circle fill="none" stroke="#2980B9" stroke-width="9" stroke-miterlimit="10" cx="300" cy="300" r="286"/>
<g>
	<g>
		<path fill="#FFFFFF" stroke="#2980B9" stroke-width="9" stroke-miterlimit="10" d="M300.056,133.573
			c0,0-115.1-5.126-101.914,173.035c0,0-0.724,145.891,64.522,159.096c0,0-28.587-32.994-20.528-56.473
			c0,0,35.927-6.604,30.804-61.561c0,0-30.065-26.4-33.734-44.723c0,0,0-57.197,5.139-64.527c0,0,28.596,2.2,31.519,0
			c0,0,23.471-21.264,28.597-32.252c0,0,4.397,19.051-6.587,30.805h30.045c0,0,9.534-9.535,10.982-19.799
			c0,0,2.933,18.333-1.445,20.511h17.603c0,0,9.527,50.59,7.322,65.262c0,0-16.855,37.373-33.733,43.965
			c0,0-5.873,56.473,35.188,63.781c0,0-3.67,50.6-28.604,52.793c0,0,41.803,11,66.009-78.445c0,0,11.729-124.625-3.923-165.192
			C397.336,219.859,382.188,143.108,300.056,133.573z"/>
	</g>
</g>
</svg>
