<?xml version="1.0" encoding="utf-8"?>
<!-- Generator: Adobe Illustrator 16.0.0, SVG Export Plug-In . SVG Version: 6.00 Build 0)  -->
<!DOCTYPE svg PUBLIC "-//W3C//DTD SVG 1.1//EN" "http://www.w3.org/Graphics/SVG/1.1/DTD/svg11.dtd">
<svg version="1.1" id="Capa_1" xmlns="http://www.w3.org/2000/svg" xmlns:xlink="http://www.w3.org/1999/xlink" x="0px" y="0px"
	 width="600px" height="600px" viewBox="0 0 600 600" enable-background="new 0 0 600 600" xml:space="preserve">
<circle fill="none" stroke="#2980B9" stroke-width="9" stroke-miterlimit="10" cx="301" cy="300" r="286"/>
<g>
	<path fill="none" stroke="#2980B9" stroke-width="6" stroke-miterlimit="10" d="M301.602,210.39
		c-12.722,0-23.069,10.348-23.069,23.068s10.348,23.068,23.069,23.068c12.719,0,23.066-10.348,23.066-23.068
		S314.318,210.39,301.602,210.39L301.602,210.39z M301.602,242.887c-5.2,0-9.43-4.229-9.43-9.428s4.229-9.428,9.43-9.428
		c5.197,0,9.426,4.229,9.426,9.428S306.799,242.887,301.602,242.887z"/>
	<path fill="none" stroke="#2980B9" stroke-width="6" stroke-miterlimit="10" d="M495.18,213.458h-23.213
		c-0.558-21.532-18.231-38.878-39.896-38.878h-20.797v-14.76c0-3.767-3.053-6.82-6.819-6.82c-3.768,0-6.82,3.054-6.82,6.82v14.758
		H190.359V159.82c0-3.767-3.053-6.82-6.82-6.82s-6.82,3.054-6.82,6.82v14.758h-20.797C133.909,174.579,116,192.488,116,214.501
		v85.963c0,13.116,10.671,23.788,23.788,23.788h11.093v3.154h-9.974c-3.768,0-6.82,3.054-6.82,6.819c0,3.767,3.053,6.819,6.82,6.819
		h9.975v8.322h-11.094c-13.116,0-23.788,10.671-23.788,23.787v72.174c0,3.768,3.053,6.82,6.82,6.82h342.353
		c3.77,0,6.82-3.054,6.82-6.82V322.574h23.187c3.769,0,6.82-3.055,6.82-6.82v-95.477C502,216.51,498.947,213.457,495.18,213.458
		L495.18,213.458z M164.521,341.047h9.975c3.768,0,6.82-3.055,6.82-6.82c0-3.768-3.053-6.819-6.82-6.819h-9.975v-3.154h9.802
		c13.116,0,23.787-10.672,23.787-23.788v-3.299c0-6.436,5.235-11.67,11.67-11.67h114.171c6.436,0,11.672,5.235,11.672,11.67v40.533
		c0,6.435-5.236,11.67-11.672,11.67h-159.43V341.047L164.521,341.047z M458.354,438.51H129.64v-65.354
		c0-5.597,4.552-10.148,10.147-10.148h184.164c13.957,0,25.313-11.354,25.313-25.31v-40.533c0-13.957-11.354-25.311-25.313-25.311
		h-114.17c-13.957,0-25.312,11.354-25.312,25.311v3.299c0,5.595-4.552,10.147-10.146,10.147h-34.537
		c-5.595,0-10.147-4.554-10.147-10.147V214.5c0-14.493,11.791-26.282,26.282-26.282H432.07c14.492,0,26.283,11.79,26.283,26.282
		V438.51L458.354,438.51z M488.359,308.934h-16.366v-81.836h16.366V308.934L488.359,308.934z"/>
	<path fill="none" stroke="#2980B9" stroke-width="6" stroke-miterlimit="10" d="M432.316,265.196h-44.334
		c-3.769,0-6.819,3.053-6.819,6.82s3.052,6.82,6.819,6.82h44.334c3.768,0,6.819-3.053,6.819-6.82
		C439.137,268.249,436.083,265.196,432.316,265.196z"/>
	<path fill="none" stroke="#2980B9" stroke-width="6" stroke-miterlimit="10" d="M432.316,240.736h-44.334
		c-3.769,0-6.819,3.053-6.819,6.82s3.052,6.82,6.819,6.82h44.334c3.768,0,6.819-3.054,6.819-6.82S436.083,240.736,432.316,240.736z"
		/>
	<path fill="none" stroke="#2980B9" stroke-width="6" stroke-miterlimit="10" d="M432.316,216.276h-44.334
		c-3.769,0-6.819,3.054-6.819,6.82c0,3.767,3.052,6.82,6.819,6.82h44.334c3.768,0,6.819-3.053,6.819-6.82
		C439.137,219.33,436.083,216.276,432.316,216.276z"/>
	<path fill="none" stroke="#2980B9" stroke-width="6" stroke-miterlimit="10" d="M258.687,211.279
		c-0.005-0.005-0.012-0.01-0.017-0.015c-5.922-5.915-13.792-9.172-22.163-9.172c-8.379,0-16.256,3.263-22.179,9.187
		c-5.926,5.925-9.188,13.801-9.188,22.18c0,8.378,3.262,16.254,9.187,22.179c5.924,5.924,13.801,9.187,22.18,9.187
		c8.377,0,16.254-3.263,22.179-9.187c0.001,0,0.001,0,0.001,0c12.223-12.224,12.229-32.108,0.017-44.339
		C258.698,211.292,258.693,211.286,258.687,211.279L258.687,211.279z M223.974,220.924c3.348-3.349,7.798-5.192,12.534-5.192
		c2.354,0,4.638,0.458,6.752,1.329l-23.15,23.15c-0.871-2.114-1.328-4.397-1.328-6.753
		C218.781,228.724,220.625,224.272,223.974,220.924z M249.042,245.993c-3.349,3.348-7.8,5.191-12.534,5.191
		c-2.355,0-4.639-0.458-6.753-1.328l23.142-23.142C255.527,233.132,254.245,240.79,249.042,245.993L249.042,245.993z"/>
</g>
</svg>
