<?xml version="1.0" encoding="utf-8"?>
<!-- Generator: Adobe Illustrator 16.0.0, SVG Export Plug-In . SVG Version: 6.00 Build 0)  -->
<!DOCTYPE svg PUBLIC "-//W3C//DTD SVG 1.1//EN" "http://www.w3.org/Graphics/SVG/1.1/DTD/svg11.dtd">
<svg version="1.1" id="Capa_1" xmlns="http://www.w3.org/2000/svg" xmlns:xlink="http://www.w3.org/1999/xlink" x="0px" y="0px"
	 width="600px" height="600px" viewBox="0 0 600 600" enable-background="new 0 0 600 600" xml:space="preserve">
<circle fill="none" stroke="#2980B9" stroke-width="9" stroke-miterlimit="10" cx="300" cy="300" r="286"/>
<g>
	<path fill="#2980B9" d="M428.316,332.175l-28.946-90.183c-0.037-0.115-0.08-0.229-0.131-0.339
		c-9.226-20.579-25.924-30.432-42.542-25.095l-5.277,1.694c-14.839,4.764-25.388,20.258-25.652,37.679
		c-0.003,0.197,0.02,0.389,0.05,0.577l-44.86,54.221c-2.753,3.326-4.318,7.363-4.541,11.598l-0.834-0.834
		c2.252-7.482,0.26-15.61-5.357-21.228c-4.03-4.029-9.39-6.249-15.092-6.249c-1.555,0-3.112,0.17-4.629,0.505
		c-1.166,0.258-2.099,1.13-2.433,2.276c-0.334,1.146-0.017,2.383,0.827,3.228l8.688,8.687l1.798,6.712l-4.197,4.196l-6.71-1.798
		l-8.688-8.688c-0.844-0.845-2.081-1.162-3.228-0.826c-1.146,0.334-2.018,1.267-2.276,2.433c-1.584,7.169,0.563,14.54,5.745,19.721
		c4.031,4.031,9.391,6.251,15.093,6.251c2.096,0,4.15-0.301,6.133-0.895l28.999,29c1.587,1.586,3.695,2.46,5.938,2.46
		c2.244,0,4.354-0.874,5.939-2.46l2.449-2.448c1.587-1.588,2.46-3.696,2.46-5.939s-0.874-4.352-2.46-5.939l-7.218-7.219
		c5.543-0.299,10.688-2.878,14.248-7.181l25.731-31.1l13.899,51.757c0.231,0.864,0.808,1.595,1.593,2.022
		c0.484,0.264,1.022,0.398,1.563,0.398c0.336,0,0.673-0.052,0.999-0.156l1.801-0.578v113.747c0,13.2,10.738,23.939,23.938,23.939
		c13.201,0,23.94-10.739,23.94-23.939V343.067l21.125-6.781C427.922,335.735,428.867,333.895,428.316,332.175z M353.418,224.478
		l5.276-1.694c16.011-5.141,28.572,8.27,34.505,21.383l23.191,72.256L366.343,332.8l-13.378-46.692l20.763-25.095
		c3.388-4.094,4.978-9.262,4.478-14.552c-0.5-5.291-3.03-10.068-7.125-13.457c-3.559-2.944-8.059-4.566-12.672-4.566
		c-5.954,0-11.543,2.629-15.336,7.212l-9.532,11.521C336.398,236.446,343.928,227.524,353.418,224.478z M300.502,356.43
		c0,0.497-0.193,0.965-0.545,1.315l-2.448,2.449c-0.703,0.701-1.929,0.703-2.631,0l-30.459-30.461
		c-0.626-0.625-1.461-0.957-2.313-0.957c-0.425,0-0.852,0.082-1.26,0.253c-1.817,0.759-3.743,1.145-5.723,1.145
		c-3.956,0-7.673-1.54-10.469-4.337c-1.804-1.804-3.078-3.991-3.76-6.353l3.58,3.58c0.406,0.404,0.911,0.697,1.465,0.846
		l9.379,2.514c1.128,0.303,2.332-0.02,3.158-0.846l6.866-6.866c0.826-0.826,1.148-2.03,0.846-3.157l-2.514-9.38
		c-0.148-0.556-0.44-1.061-0.846-1.466l-3.577-3.577c2.376,0.685,4.553,1.962,6.351,3.758c4.267,4.268,5.519,10.624,3.191,16.193
		c-0.512,1.224-0.233,2.635,0.705,3.573l11.584,11.584c0.708,0.836,1.488,1.617,2.338,2.339l16.537,16.537
		C300.309,355.466,300.502,355.933,300.502,356.43z M306.573,331.922c-2.546,3.078-6.3,4.843-10.298,4.843
		c-3.064,0-6.055-1.071-8.433-3.012l-1.947-1.947c-1.644-2.023-2.655-4.485-2.907-7.14c-0.335-3.552,0.732-7.021,3.006-9.77
		l62.118-75.079c2.546-3.077,6.3-4.842,10.298-4.842c3.095,0,6.115,1.09,8.506,3.065c2.748,2.274,4.446,5.482,4.782,9.034
		c0.336,3.551-0.732,7.02-3.006,9.769L306.573,331.922z M381.137,489.583c-9.595,0-17.4-7.806-17.4-17.4v-7.937h33.078
		c0.636,0,1.223-0.189,1.725-0.503v8.439C398.539,481.777,390.732,489.583,381.137,489.583z M398.539,458.21
		c-0.502-0.313-1.089-0.503-1.725-0.503h-33.078v-8.114h5.314c1.807,0,3.271-1.463,3.271-3.269c0-1.805-1.464-3.27-3.271-3.27
		h-5.314v-86.718l34.803-11.171V458.21L398.539,458.21z M356.666,351.739l-14.215-52.926l5.463-6.601l13.078,45.647
		c0.245,0.854,0.826,1.572,1.611,1.988c0.477,0.253,1.004,0.382,1.532,0.382c0.341,0,0.685-0.055,1.017-0.163l53.237-17.421
		l2.701,8.413L356.666,351.739z"/>
	<path fill="#2980B9" d="M389.085,407.117c1.806,0,3.269-1.464,3.269-3.269v-45.625c0-1.806-1.463-3.27-3.269-3.27
		c-1.807,0-3.27,1.464-3.27,3.27v45.625C385.815,405.654,387.278,407.117,389.085,407.117z"/>
	<path fill="#2980B9" d="M256.071,188.126c0.331,0,0.668-0.051,1-0.157l36.411-11.687c-0.531,5.263,0.084,10.738,1.882,16.337
		c3.292,10.256,10.38,18.615,19.959,23.539c5.787,2.976,12.064,4.481,18.39,4.481c4.143,0,8.309-0.646,12.367-1.949
		c9.756-3.131,17.065-8.35,21.748-15.504c1.928-1.878,11.525-12.108,12.194-30.256c0.33-8.938-1.383-16.864-5.079-23.613
		c0.495-0.789,0.664-1.776,0.357-2.732c-5.511-17.172-21.887-28.708-40.752-28.708c-4.772,0-9.528,0.75-14.135,2.229
		c-22.086,7.089-35.016,29.188-30.083,50.319l-35.258,11.316c-1.72,0.553-2.666,2.394-2.114,4.112
		C253.404,187.242,254.688,188.126,256.071,188.126z M344.082,212.463c-7.549,2.423-15.527,2.134-22.797-0.769
		c0.961-0.832,1.387-2.185,0.974-3.471c-0.552-1.72-2.394-2.664-4.112-2.114l-4.396,1.411c-1.646-1.204-3.172-2.546-4.56-4.012
		l5.79-1.859c1.78-0.571,3.674-0.415,5.335,0.439c1.662,0.854,2.891,2.304,3.462,4.084l1.216,3.787
		c0.445,1.387,1.73,2.271,3.113,2.271c0.33,0,0.667-0.051,1-0.158c1.719-0.553,2.666-2.393,2.113-4.112l-1.217-3.785
		c-1.104-3.442-3.482-6.249-6.697-7.9c-3.217-1.653-6.881-1.955-10.323-0.851l-8.013,2.572c-1.4-2.287-2.541-4.756-3.381-7.375
		c-1.883-5.862-2.262-11.283-1.176-16.563l15.449-4.959c0.198,0.057,0.404,0.097,0.617,0.115c15.168,1.264,18.6,12.855,20.625,23.62
		c0.361,1.921,0.623,3.309,1.043,4.373c0.633,1.602,2.4,2.436,4.04,1.91l8.666-2.782c1.719-0.552,2.665-2.393,2.113-4.111
		l-4.271-13.308c-0.502-1.566-0.366-3.233,0.387-4.696c0.751-1.462,2.027-2.545,3.594-3.047c3.236-1.04,6.705,0.75,7.742,3.98
		c0.82,2.559-0.093,5.327-2.274,6.888c-0.825,0.592-1.33,1.532-1.364,2.548c-0.073,2.179-0.135,11.809,4.149,17.005
		C357.06,206.46,351.407,210.111,344.082,212.463z M373.488,172.688c-0.438,11.898-5.372,19.883-8.269,23.58
		c-1.223-2.45-1.85-6.615-1.911-10.032c3.506-3.322,4.848-8.376,3.336-13.084c-2.139-6.665-9.305-10.344-15.967-8.208
		c-3.229,1.037-5.86,3.268-7.411,6.284c-1.55,3.016-1.833,6.455-0.796,9.684l3.271,10.195l-2.178,0.699
		c-0.012-0.061-0.022-0.121-0.034-0.183c-1.237-6.578-3.823-20.301-16.126-26.23l41.58-13.347
		C372.263,157.835,373.78,164.768,373.488,172.688z M322.412,126.331c3.96-1.271,8.044-1.916,12.137-1.916
		c14.852,0,27.865,8.357,33.376,21.104l-71.356,22.904c-0.507-2.335-0.746-4.682-0.751-7.013l27.468-8.805
		c1.719-0.551,2.666-2.391,2.115-4.111c-0.553-1.719-2.393-2.666-4.111-2.115l-24.732,7.927c0.465-2.21,1.145-4.374,2.024-6.463
		l9.8-3.206c1.717-0.562,2.652-2.408,2.091-4.124s-2.411-2.653-4.123-2.091l-2.729,0.893
		C308.221,133.468,314.654,128.821,322.412,126.331z"/>
	<path fill="#2980B9" d="M219.88,429.461h-0.885V313.179h0.885c6.044,0,10.961-4.918,10.961-10.961v-0.514
		c0-6.044-4.917-10.961-10.961-10.961h-0.885v-116.28h0.885c6.044,0,10.961-4.917,10.961-10.961v-0.513
		c0-6.044-4.917-10.961-10.961-10.961h-0.885v-29.294c0-1.805-1.464-3.27-3.269-3.27h-19.382c-1.806,0-3.269,1.464-3.269,3.27
		v29.294h-0.886c-6.044,0-10.961,4.917-10.961,10.961v0.513c0,6.044,4.917,10.961,10.961,10.961h0.885v116.28h-0.885
		c-6.044,0-10.961,4.918-10.961,10.962v0.513c0,6.044,4.917,10.962,10.961,10.962h0.885v116.281h-0.885
		c-6.044,0-10.961,4.917-10.961,10.961v0.513c0,6.043,4.917,10.961,10.961,10.961h0.885v29.295c0,1.806,1.464,3.27,3.269,3.27
		h19.382c1.805,0,3.269-1.464,3.269-3.27v-29.295h0.885c6.044,0,10.961-4.918,10.961-10.961v-0.513
		C230.842,434.377,225.924,429.461,219.88,429.461z M199.612,126.002h12.844v26.025h-12.844V126.002z M187.766,163.502v-0.513
		c0-2.439,1.984-4.423,4.423-4.423h27.692c2.438,0,4.423,1.984,4.423,4.423v0.513c0,2.438-1.985,4.423-4.423,4.423h-27.692
		C189.749,167.925,187.766,165.94,187.766,163.502z M199.612,174.463h12.844v116.28h-12.844V174.463z M187.766,302.218v-0.514
		c0-2.438,1.984-4.423,4.423-4.423h27.692c2.438,0,4.423,1.984,4.423,4.423v0.514c0,2.438-1.985,4.422-4.423,4.422h-27.692
		C189.749,306.64,187.766,304.656,187.766,302.218z M199.612,313.179h12.844V429.46h-12.844V313.179z M212.456,477.922h-12.844
		v-26.026h12.844V477.922z M224.304,440.934c0,2.438-1.985,4.423-4.423,4.423h-27.692c-2.438,0-4.423-1.984-4.423-4.423v-0.512
		c0-2.438,1.984-4.424,4.423-4.424h27.692c2.438,0,4.423,1.985,4.423,4.424V440.934z"/>
	<path fill="#2980B9" d="M368.609,310.467c0.469,1.353,1.735,2.2,3.091,2.2c0.354,0,0.715-0.059,1.069-0.181l20-6.923
		c1.706-0.591,2.61-2.452,2.021-4.158c-0.591-1.706-2.451-2.61-4.159-2.021l-20,6.923
		C368.925,306.898,368.02,308.761,368.609,310.467z"/>
	<path fill="#2980B9" d="M228.625,199.591c-1.806,0-3.27,1.464-3.27,3.27v59.229c0,1.806,1.464,3.27,3.27,3.27
		c1.805,0,3.269-1.464,3.269-3.27V202.86C231.894,201.054,230.43,199.591,228.625,199.591z"/>
	<path fill="#2980B9" d="M227.855,361.127c-1.805,0-3.269,1.464-3.269,3.27v46.922c0,1.806,1.464,3.27,3.269,3.27
		c1.806,0,3.269-1.464,3.269-3.27v-46.922C231.125,362.591,229.661,361.127,227.855,361.127z"/>
</g>
</svg>
