<?xml version="1.0" encoding="utf-8"?>
<!-- Generator: Adobe Illustrator 16.0.0, SVG Export Plug-In . SVG Version: 6.00 Build 0)  -->
<!DOCTYPE svg PUBLIC "-//W3C//DTD SVG 1.1//EN" "http://www.w3.org/Graphics/SVG/1.1/DTD/svg11.dtd">
<svg version="1.1" id="Capa_1" xmlns="http://www.w3.org/2000/svg" xmlns:xlink="http://www.w3.org/1999/xlink" x="0px" y="0px"
	 width="600px" height="600px" viewBox="0 0 600 600" enable-background="new 0 0 600 600" xml:space="preserve">
<circle fill="none" stroke="#2980B9" stroke-width="9" stroke-miterlimit="10" cx="300" cy="300" r="286"/>
<g>
	<path fill="#2980B9" d="M245.024,212.681v54.995H355.43v-61.951c10.452-9.437,16.411-22.778,16.411-36.908
		c0-27.421-22.319-49.729-49.74-49.729c-19.399,0-37.126,11.489-45.174,28.936c-2.289-0.43-4.619-0.652-6.957-0.652
		c-20.635,0-37.423,16.792-37.423,37.429C232.554,195.527,237.067,205.573,245.024,212.681z M269.977,155.574
		c2.784,0,5.559,0.4,8.24,1.187l3.658,1.076l1.34-3.572c6.037-16.132,21.671-26.972,38.893-26.972
		c22.902,0,41.533,18.626,41.533,41.524c0,12.343-5.45,23.964-14.932,31.892l-1.475,1.229v57.53H253.23v-50.648l-1.537-1.234
		c-6.95-5.583-10.935-13.887-10.935-22.785C240.759,168.687,253.86,155.574,269.977,155.574z M317.131,323.586h-4.969
		c23.327-5.341,40.749-26.179,40.749-51.128H247.919c0,24.946,17.422,45.783,40.742,51.128h-11.474
		c-8.681,0-17.104,1.704-25.042,5.066c-23.896,10.129-39.338,33.411-39.338,59.32v48.865l0.576,3.926l5.795,1.811
		c28.475,8.897,56.464,13.402,83.179,13.402c44.566,0,70.597-12.457,73.438-13.878l2.269-1.151h3.452v-52.969
		C381.517,352.47,352.636,323.586,317.131,323.586z M289.018,447.349c-21.827-1.24-44.425-5.437-67.398-12.608l-0.61-0.193v-46.574
		c0-22.605,13.476-42.926,34.334-51.765c6.922-2.924,14.271-4.419,21.841-4.419h11.834V447.349z M373.307,434.149l-1.221,0.63
		c-1.053,0.526-26.327,12.994-69.728,12.994c-1.72,0-3.466-0.07-5.197-0.104V331.783h19.97c30.981,0,56.182,25.21,56.182,56.189
		L373.307,434.149L373.307,434.149z M312.268,350.334c0,2.828-2.309,5.123-5.137,5.123c-2.829,0-5.124-2.295-5.124-5.123
		c0-2.837,2.295-5.135,5.124-5.135C309.959,345.199,312.268,347.491,312.268,350.334z M312.268,377.122
		c0,2.828-2.309,5.131-5.137,5.131c-2.829,0-5.124-2.303-5.124-5.131s2.295-5.131,5.124-5.131
		C309.959,371.991,312.268,374.294,312.268,377.122z M312.268,403.316c0,2.826-2.309,5.128-5.137,5.128
		c-2.829,0-5.124-2.302-5.124-5.128c0-2.831,2.295-5.131,5.124-5.131C309.959,398.186,312.268,400.485,312.268,403.316z"/>
</g>
</svg>
