<?xml version="1.0" encoding="utf-8"?>
<!-- Generator: Adobe Illustrator 16.0.0, SVG Export Plug-In . SVG Version: 6.00 Build 0)  -->
<!DOCTYPE svg PUBLIC "-//W3C//DTD SVG 1.1//EN" "http://www.w3.org/Graphics/SVG/1.1/DTD/svg11.dtd">
<svg version="1.1" id="Capa_1" xmlns="http://www.w3.org/2000/svg" xmlns:xlink="http://www.w3.org/1999/xlink" x="0px" y="0px"
	 width="600px" height="600px" viewBox="0 0 600 600" enable-background="new 0 0 600 600" xml:space="preserve">
<circle fill="none" stroke="#2980B9" stroke-width="9" stroke-miterlimit="10" cx="300" cy="300" r="286"/>
<g>
	<path fill="#2980B9" d="M433.613,152.73H171.327c-9.133,0-16.564,7.431-16.564,16.563v260.208c0,9.133,7.431,16.564,16.564,16.564
		h262.287c9.133,0,16.564-7.432,16.564-16.564V169.293C450.176,160.161,442.746,152.73,433.613,152.73z M171.327,160.935h262.287
		c4.609,0,8.359,3.75,8.359,8.359v66.854H162.968v-66.855C162.968,164.685,166.718,160.935,171.327,160.935z M433.613,437.861
		H171.327c-4.609,0-8.359-3.75-8.359-8.359V244.354h279.003v185.148C441.971,434.111,438.223,437.861,433.613,437.861z"/>
	<path fill="#2980B9" d="M180.909,225.208h243.123c2.265,0,4.103-1.836,4.103-4.103v-42.394c0-2.265-1.838-4.103-4.103-4.103
		H180.909c-2.266,0-4.103,1.837-4.103,4.103v42.394C176.806,223.372,178.643,225.208,180.909,225.208z M185.011,182.815h234.917
		v34.188H185.011V182.815z"/>
	<path fill="#2980B9" d="M191.784,268.287h-14.357c-5.556,0-10.075,4.519-10.075,10.074v12.422c0,5.556,4.52,10.075,10.075,10.075
		h14.358c5.556,0,10.074-4.519,10.074-10.075v-12.422C201.858,272.805,197.339,268.287,191.784,268.287z M193.653,290.783
		c0,1.031-0.839,1.868-1.87,1.868h-14.357c-1.031,0-1.87-0.839-1.87-1.868v-12.422c0-1.031,0.839-1.87,1.87-1.87h14.358
		c1.031,0,1.869,0.84,1.869,1.87L193.653,290.783L193.653,290.783z"/>
	<path fill="#2980B9" d="M231.072,268.287h-14.357c-5.556,0-10.075,4.519-10.075,10.074v12.422c0,5.556,4.52,10.075,10.075,10.075
		h14.357c5.555,0,10.074-4.519,10.074-10.075v-12.422C241.146,272.805,236.627,268.287,231.072,268.287z M232.941,290.783
		c0,1.031-0.839,1.868-1.869,1.868h-14.357c-1.031,0-1.87-0.839-1.87-1.868v-12.422c0-1.031,0.839-1.87,1.87-1.87h14.357
		c1.031,0,1.869,0.84,1.869,1.87V290.783z"/>
	<path fill="#2980B9" d="M270.36,268.287h-14.357c-5.555,0-10.074,4.519-10.074,10.074v12.422c0,5.556,4.52,10.075,10.074,10.075
		h14.357c5.556,0,10.075-4.519,10.075-10.075v-12.422C280.435,272.805,275.916,268.287,270.36,268.287z M272.229,290.783
		c0,1.031-0.839,1.868-1.87,1.868h-14.357c-1.031,0-1.869-0.839-1.869-1.868v-12.422c0-1.031,0.839-1.87,1.869-1.87h14.357
		c1.031,0,1.87,0.84,1.87,1.87V290.783z"/>
	<path fill="#2980B9" d="M309.649,268.287h-14.358c-5.556,0-10.075,4.519-10.075,10.074v12.422c0,5.556,4.52,10.075,10.075,10.075
		h14.358c5.555,0,10.074-4.519,10.074-10.075v-12.422C319.724,272.805,315.204,268.287,309.649,268.287z M311.519,290.783
		c0,1.031-0.84,1.868-1.869,1.868h-14.358c-1.031,0-1.87-0.839-1.87-1.868v-12.422c0-1.031,0.839-1.87,1.87-1.87h14.358
		c1.03,0,1.869,0.84,1.869,1.87V290.783z"/>
	<path fill="#2980B9" d="M191.784,310.99h-14.357c-5.556,0-10.075,4.52-10.075,10.076v12.42c0,5.557,4.52,10.076,10.075,10.076
		h14.358c5.556,0,10.074-4.52,10.074-10.076v-12.42C201.858,315.51,197.339,310.99,191.784,310.99z M193.653,333.486
		c0,1.031-0.839,1.871-1.87,1.871h-14.357c-1.031,0-1.87-0.842-1.87-1.871v-12.42c0-1.031,0.839-1.871,1.87-1.871h14.358
		c1.031,0,1.869,0.84,1.869,1.871L193.653,333.486L193.653,333.486z"/>
	<path fill="#2980B9" d="M231.072,310.99h-14.357c-5.556,0-10.075,4.52-10.075,10.076v12.42c0,5.557,4.52,10.076,10.075,10.076
		h14.357c5.555,0,10.074-4.52,10.074-10.076v-12.42C241.146,315.51,236.627,310.99,231.072,310.99z M232.941,333.486
		c0,1.031-0.839,1.871-1.869,1.871h-14.357c-1.031,0-1.87-0.842-1.87-1.871v-12.42c0-1.031,0.839-1.871,1.87-1.871h14.357
		c1.031,0,1.869,0.84,1.869,1.871V333.486z"/>
	<path fill="#2980B9" d="M270.36,310.99h-14.357c-5.555,0-10.074,4.52-10.074,10.076v12.42c0,5.557,4.52,10.076,10.074,10.076
		h14.357c5.556,0,10.075-4.52,10.075-10.076v-12.42C280.435,315.51,275.916,310.99,270.36,310.99z M272.229,333.486
		c0,1.031-0.839,1.871-1.87,1.871h-14.357c-1.031,0-1.869-0.842-1.869-1.871v-12.42c0-1.031,0.839-1.871,1.869-1.871h14.357
		c1.031,0,1.87,0.84,1.87,1.871V333.486z"/>
	<path fill="#2980B9" d="M309.649,310.99h-14.358c-5.556,0-10.075,4.52-10.075,10.076v12.42c0,5.557,4.52,10.076,10.075,10.076
		h14.358c5.555,0,10.074-4.52,10.074-10.076v-12.42C319.724,315.51,315.204,310.99,309.649,310.99z M311.519,333.486
		c0,1.031-0.84,1.871-1.869,1.871h-14.358c-1.031,0-1.87-0.842-1.87-1.871v-12.42c0-1.031,0.839-1.871,1.87-1.871h14.358
		c1.03,0,1.869,0.84,1.869,1.871V333.486z"/>
	<path fill="#2980B9" d="M354.2,318.201h-12.596c-5.555,0-10.074,4.52-10.074,10.076v5.209c0,5.557,4.52,10.076,10.074,10.076H354.2
		c5.555,0,10.074-4.52,10.074-10.076v-5.209C364.274,322.721,359.755,318.201,354.2,318.201z M356.069,333.486
		c0,1.031-0.838,1.871-1.869,1.871h-12.595c-1.03,0-1.869-0.842-1.869-1.871v-5.209c0-1.031,0.839-1.871,1.869-1.871H354.2
		c1.031,0,1.869,0.84,1.869,1.871V333.486z"/>
	<path fill="#2980B9" d="M390.856,318.201h-12.595c-5.556,0-10.075,4.52-10.075,10.076v5.209c0,5.557,4.52,10.076,10.075,10.076
		h12.595c5.556,0,10.074-4.52,10.074-10.076v-5.209C400.932,322.721,396.412,318.201,390.856,318.201z M392.727,333.486
		c0,1.031-0.839,1.871-1.869,1.871h-12.595c-1.031,0-1.869-0.842-1.869-1.871v-5.209c0-1.031,0.839-1.871,1.869-1.871h12.595
		c1.03,0,1.869,0.84,1.869,1.871V333.486z"/>
	<path fill="#2980B9" d="M427.514,318.201h-12.595c-5.557,0-10.075,4.52-10.075,10.076v5.209c0,5.557,4.52,10.076,10.075,10.076
		h12.595c5.556,0,10.075-4.52,10.075-10.076v-5.209C437.589,322.721,433.067,318.201,427.514,318.201z M429.383,333.486
		c0,1.031-0.839,1.871-1.869,1.871h-12.595c-1.031,0-1.87-0.842-1.87-1.871v-5.209c0-1.031,0.84-1.871,1.87-1.871h12.595
		c1.03,0,1.869,0.84,1.869,1.871V333.486z"/>
	<path fill="#2980B9" d="M390.856,360.908h-12.595c-5.556,0-10.075,4.518-10.075,10.072v5.211c0,5.557,4.52,10.074,10.075,10.074
		h12.595c5.556,0,10.074-4.518,10.074-10.074v-5.211C400.932,365.426,396.412,360.908,390.856,360.908z M392.727,376.191
		c0,1.031-0.839,1.869-1.869,1.869h-12.595c-1.031,0-1.869-0.838-1.869-1.869v-5.211c0-1.031,0.839-1.867,1.869-1.867h12.595
		c1.03,0,1.869,0.838,1.869,1.867V376.191z"/>
	<path fill="#2980B9" d="M427.514,360.908h-12.595c-5.557,0-10.075,4.518-10.075,10.072v5.211c0,5.557,4.52,10.074,10.075,10.074
		h12.595c5.556,0,10.075-4.518,10.075-10.074v-5.211C437.589,365.426,433.067,360.908,427.514,360.908z M429.383,376.191
		c0,1.031-0.839,1.869-1.869,1.869h-12.595c-1.031,0-1.87-0.838-1.87-1.869v-5.211c0-1.031,0.84-1.867,1.87-1.867h12.595
		c1.03,0,1.869,0.838,1.869,1.867V376.191z"/>
	<path fill="#2980B9" d="M390.856,403.611h-12.595c-5.556,0-10.075,4.518-10.075,10.074v5.211c0,5.555,4.52,10.074,10.075,10.074
		h12.595c5.556,0,10.074-4.52,10.074-10.074v-5.211C400.932,408.129,396.412,403.611,390.856,403.611z M392.727,418.896
		c0,1.031-0.839,1.867-1.869,1.867h-12.595c-1.031,0-1.869-0.838-1.869-1.867v-5.211c0-1.031,0.839-1.869,1.869-1.869h12.595
		c1.03,0,1.869,0.838,1.869,1.869V418.896z"/>
	<path fill="#2980B9" d="M427.514,403.611h-12.595c-5.557,0-10.075,4.518-10.075,10.074v5.211c0,5.555,4.52,10.074,10.075,10.074
		h12.595c5.556,0,10.075-4.52,10.075-10.074v-5.211C437.589,408.129,433.067,403.611,427.514,403.611z M429.383,418.896
		c0,1.031-0.839,1.867-1.869,1.867h-12.595c-1.031,0-1.87-0.838-1.87-1.867v-5.211c0-1.031,0.84-1.869,1.87-1.869h12.595
		c1.03,0,1.869,0.838,1.869,1.869V418.896z"/>
	<path fill="#2980B9" d="M354.2,275.496h-12.596c-5.555,0-10.074,4.519-10.074,10.075v5.21c0,5.558,4.52,10.075,10.074,10.075H354.2
		c5.555,0,10.074-4.517,10.074-10.075v-5.21C364.274,280.015,359.755,275.496,354.2,275.496z M356.069,290.783
		c0,1.031-0.838,1.868-1.869,1.868h-12.595c-1.03,0-1.869-0.839-1.869-1.868v-5.212c0-1.031,0.839-1.869,1.869-1.869H354.2
		c1.031,0,1.869,0.84,1.869,1.869V290.783z"/>
	<path fill="#2980B9" d="M390.856,275.496h-12.595c-5.556,0-10.075,4.519-10.075,10.075v5.21c0,5.558,4.52,10.075,10.075,10.075
		h12.595c5.556,0,10.074-4.517,10.074-10.075v-5.21C400.932,280.015,396.412,275.496,390.856,275.496z M392.727,290.783
		c0,1.031-0.839,1.868-1.869,1.868h-12.595c-1.031,0-1.869-0.839-1.869-1.868v-5.212c0-1.031,0.839-1.869,1.869-1.869h12.595
		c1.03,0,1.869,0.84,1.869,1.869V290.783z"/>
	<path fill="#2980B9" d="M427.514,275.496h-12.595c-5.557,0-10.075,4.519-10.075,10.075v5.21c0,5.558,4.52,10.075,10.075,10.075
		h12.595c5.556,0,10.075-4.517,10.075-10.075v-5.21C437.589,280.015,433.067,275.496,427.514,275.496z M429.383,290.783
		c0,1.031-0.839,1.868-1.869,1.868h-12.595c-1.031,0-1.87-0.839-1.87-1.868v-5.212c0-1.031,0.84-1.869,1.87-1.869h12.595
		c1.03,0,1.869,0.84,1.869,1.869V290.783z"/>
	<path fill="#2980B9" d="M191.784,353.697h-14.357c-5.556,0-10.075,4.518-10.075,10.074v12.42c0,5.557,4.52,10.074,10.075,10.074
		h14.358c5.556,0,10.074-4.518,10.074-10.074v-12.42C201.858,358.215,197.339,353.697,191.784,353.697z M193.653,376.191
		c0,1.031-0.839,1.869-1.87,1.869h-14.357c-1.031,0-1.87-0.838-1.87-1.869v-12.42c0-1.031,0.839-1.869,1.87-1.869h14.358
		c1.031,0,1.869,0.838,1.869,1.869L193.653,376.191L193.653,376.191z"/>
	<path fill="#2980B9" d="M231.072,353.697h-14.357c-5.556,0-10.075,4.518-10.075,10.074v12.42c0,5.557,4.52,10.074,10.075,10.074
		h14.357c5.555,0,10.074-4.518,10.074-10.074v-12.42C241.146,358.215,236.627,353.697,231.072,353.697z M232.941,376.191
		c0,1.031-0.839,1.869-1.869,1.869h-14.357c-1.031,0-1.87-0.838-1.87-1.869v-12.42c0-1.031,0.839-1.869,1.87-1.869h14.357
		c1.031,0,1.869,0.838,1.869,1.869V376.191z"/>
	<path fill="#2980B9" d="M270.36,353.697h-14.357c-5.555,0-10.074,4.518-10.074,10.074v12.42c0,5.557,4.52,10.074,10.074,10.074
		h14.357c5.556,0,10.075-4.518,10.075-10.074v-12.42C280.435,358.215,275.916,353.697,270.36,353.697z M272.229,376.191
		c0,1.031-0.839,1.869-1.87,1.869h-14.357c-1.031,0-1.869-0.838-1.869-1.869v-12.42c0-1.031,0.839-1.869,1.869-1.869h14.357
		c1.031,0,1.87,0.838,1.87,1.869V376.191z"/>
	<path fill="#2980B9" d="M309.649,353.697h-14.358c-5.556,0-10.075,4.518-10.075,10.074v12.42c0,5.557,4.52,10.074,10.075,10.074
		h14.358c5.555,0,10.074-4.518,10.074-10.074v-12.42C319.724,358.215,315.204,353.697,309.649,353.697z M311.519,376.191
		c0,1.031-0.84,1.869-1.869,1.869h-14.358c-1.031,0-1.87-0.838-1.87-1.869v-12.42c0-1.031,0.839-1.869,1.87-1.869h14.358
		c1.03,0,1.869,0.838,1.869,1.869V376.191z"/>
	<path fill="#2980B9" d="M191.784,396.4h-14.357c-5.556,0-10.075,4.52-10.075,10.074v12.422c0,5.555,4.52,10.074,10.075,10.074
		h14.358c5.556,0,10.074-4.52,10.074-10.074v-12.422C201.858,400.92,197.339,396.4,191.784,396.4z M193.653,418.896
		c0,1.031-0.839,1.867-1.87,1.867h-14.357c-1.031,0-1.87-0.838-1.87-1.867v-12.422c0-1.031,0.839-1.869,1.87-1.869h14.358
		c1.031,0,1.869,0.84,1.869,1.869L193.653,418.896L193.653,418.896z"/>
	<path fill="#2980B9" d="M231.072,396.4h-14.357c-5.556,0-10.075,4.52-10.075,10.074v12.422c0,5.555,4.52,10.074,10.075,10.074
		h14.357c5.555,0,10.074-4.52,10.074-10.074v-12.422C241.146,400.92,236.627,396.4,231.072,396.4z M232.941,418.896
		c0,1.031-0.839,1.867-1.869,1.867h-14.357c-1.031,0-1.87-0.838-1.87-1.867v-12.422c0-1.031,0.839-1.869,1.87-1.869h14.357
		c1.031,0,1.869,0.84,1.869,1.869V418.896z"/>
	<path fill="#2980B9" d="M270.36,396.4h-14.357c-5.555,0-10.074,4.52-10.074,10.074v12.422c0,5.555,4.52,10.074,10.074,10.074
		h14.357c5.556,0,10.075-4.52,10.075-10.074v-12.422C280.435,400.92,275.916,396.4,270.36,396.4z M272.229,418.896
		c0,1.031-0.839,1.867-1.87,1.867h-14.357c-1.031,0-1.869-0.838-1.869-1.867v-12.422c0-1.031,0.839-1.869,1.869-1.869h14.357
		c1.031,0,1.87,0.84,1.87,1.869V418.896z"/>
	<path fill="#2980B9" d="M309.649,396.4h-14.358c-5.556,0-10.075,4.52-10.075,10.074v12.422c0,5.555,4.52,10.074,10.075,10.074
		h14.358c5.555,0,10.074-4.52,10.074-10.074v-12.422C319.724,400.92,315.204,396.4,309.649,396.4z M311.519,418.896
		c0,1.031-0.84,1.867-1.869,1.867h-14.358c-1.031,0-1.87-0.838-1.87-1.867v-12.422c0-1.031,0.839-1.869,1.87-1.869h14.358
		c1.03,0,1.869,0.84,1.869,1.869V418.896z"/>
	<path fill="#2980B9" d="M354.2,353.697h-12.596c-5.555,0-10.074,4.518-10.074,10.074v55.125c0,5.555,4.52,10.074,10.074,10.074
		H354.2c5.555,0,10.074-4.52,10.074-10.074v-55.125C364.274,358.215,359.755,353.697,354.2,353.697z M356.069,418.896
		c0,1.031-0.838,1.867-1.869,1.867h-12.595c-1.03,0-1.869-0.838-1.869-1.867v-55.125c0-1.031,0.839-1.869,1.869-1.869H354.2
		c1.031,0,1.869,0.838,1.869,1.869V418.896z"/>
	<path fill="#2980B9" d="M315.62,253.927H171.454c-2.265,0-4.103,1.837-4.103,4.103s1.838,4.103,4.103,4.103H315.62
		c2.267,0,4.104-1.837,4.104-4.103S317.887,253.927,315.62,253.927z"/>
	<path fill="#2980B9" d="M433.485,253.927h-32.212c-2.264,0-4.102,1.837-4.102,4.103s1.838,4.103,4.102,4.103h32.212
		c2.266,0,4.104-1.837,4.104-4.103S435.751,253.927,433.485,253.927z"/>
	<path fill="#2980B9" d="M371.946,258.03c0-2.266-1.837-4.103-4.104-4.103h-32.209c-2.267,0-4.104,1.837-4.104,4.103
		s1.837,4.103,4.104,4.103h32.209C370.109,262.132,371.946,260.295,371.946,258.03z"/>
</g>
</svg>
