<?xml version="1.0" encoding="utf-8"?>
<!-- Generator: Adobe Illustrator 16.0.0, SVG Export Plug-In . SVG Version: 6.00 Build 0)  -->
<!DOCTYPE svg PUBLIC "-//W3C//DTD SVG 1.1//EN" "http://www.w3.org/Graphics/SVG/1.1/DTD/svg11.dtd">
<svg version="1.1" id="Capa_1" xmlns="http://www.w3.org/2000/svg" xmlns:xlink="http://www.w3.org/1999/xlink" x="0px" y="0px"
	 width="600px" height="600px" viewBox="0 0 600 600" enable-background="new 0 0 600 600" xml:space="preserve">
<circle fill="none" stroke="#2980B9" stroke-width="9" stroke-miterlimit="10" cx="300" cy="300" r="286"/>
<g id="beautician" display="none">
	<g display="inline">
		<path fill="none" stroke="#2980B9" stroke-width="10" stroke-miterlimit="10" d="M429.195,251.701
			c0.214-3.276-3.606-11.573-10.251-22.188c2.771-10.256,5.23-22.57,4.148-31.008c-2.177-17.005-13.971-49.562-40.114-54.075
			c-11.619-1.999-27,2.085-40.255,7.072c-12.109-6.958-24.507-11.425-36.495-11.425c-15.885,0-29.617,8.289-39.464,16.669
			c-7.379-2.428-13.721-3.22-18.533-1.851c-10.164,2.897-18.034,16.828-22.08,25.622c-4.984-1.927-9.065-2.596-11.933-1.636
			c-15.05,5.055-25.733,47.094-27.042,54.504c-0.161,0.859,1.987,3.422,5.798,7.202c-5.13,18.063-5.478,31.616-4.61,35.109
			c1.354,5.371,7.161,8.339,7.038,15.418c-0.251,14.231-25.132,37.778-25.132,47.886c0,7.561,20.073,10.32,20.073,10.32
			s1.665,4.66-1.694,13.695c-3.35,9.057,6.236,19.553,9.117,23.223c2.835,3.646,0.561,25.262,2.887,31.631
			c2.344,6.346,8.851,10.006,20.982,5.855c13.184-4.498,29.427-11.109,35.3-9.371c12.811,30.148-18.064,45.568-18.064,45.568
			h162.402c0,0-47.125-37.873-46.134-79.389c0.071-3.064,0.973-6.225,2.401-9.564c10.149-0.193,33.716-8.514,35.904-25.08
			c0.215-1.678-0.604-4.24-2.126-7.398c13.708-7.584,37.876-23.178,37.876-38.825c0-3.546-3.465-9.817-9.453-17.824
			C423.788,272.35,428.695,259.497,429.195,251.701z M312.57,287.597c-1.601-21.611-16.954-30.653-16.954-30.653
			s-7.731,25.816,3.862,36.48c-9.974,5.34-38.446-4.385-38.595-14.818c-0.128-10.42,26.412-24.958,26.412-24.958
			s-37.099,1.378-36.71,11.354c-10.624-5.525-13.721-22.96,1.309-33.444c11.046-7.717,34.385,12.65,34.385,12.65
			s-17.211-27.348-29.174-20.899c5.334-16.276,30.307-28.867,50.149-18.003c-24.636,6.03-12.13,36.348-12.13,36.348
			s4.9-26.931,15.615-30.436c15.918-5.223,31.923,16.18,24.166,29.097c-11.948-4.792-34.748,9.5-34.748,9.5
			s31.324,1.886,36.934,11.419C342.684,270.771,324.326,286.728,312.57,287.597z"/>
	</g>
</g>
<g display="none">
	<path display="inline" fill="#2980B9" d="M433.613,152.73H171.327c-9.133,0-16.564,7.431-16.564,16.563v260.208
		c0,9.133,7.431,16.564,16.564,16.564h262.287c9.133,0,16.564-7.432,16.564-16.564V169.293
		C450.176,160.161,442.746,152.73,433.613,152.73z M171.327,160.935h262.287c4.609,0,8.359,3.75,8.359,8.359v66.854H162.968v-66.855
		C162.968,164.685,166.718,160.935,171.327,160.935z M433.613,437.861H171.327c-4.609,0-8.359-3.75-8.359-8.359V244.354h279.003
		v185.148C441.971,434.111,438.223,437.861,433.613,437.861z"/>
	<path display="inline" fill="#2980B9" d="M180.909,225.208h243.123c2.265,0,4.103-1.836,4.103-4.103v-42.394
		c0-2.265-1.838-4.103-4.103-4.103H180.909c-2.266,0-4.103,1.837-4.103,4.103v42.394
		C176.806,223.372,178.643,225.208,180.909,225.208z M185.011,182.815h234.917v34.188H185.011V182.815z"/>
	<path display="inline" fill="#2980B9" d="M191.784,268.287h-14.357c-5.556,0-10.075,4.519-10.075,10.074v12.422
		c0,5.556,4.52,10.075,10.075,10.075h14.358c5.556,0,10.074-4.519,10.074-10.075v-12.422
		C201.858,272.805,197.339,268.287,191.784,268.287z M193.653,290.783c0,1.031-0.839,1.868-1.87,1.868h-14.357
		c-1.031,0-1.87-0.839-1.87-1.868v-12.422c0-1.031,0.839-1.87,1.87-1.87h14.358c1.031,0,1.869,0.84,1.869,1.87L193.653,290.783
		L193.653,290.783z"/>
	<path display="inline" fill="#2980B9" d="M231.072,268.287h-14.357c-5.556,0-10.075,4.519-10.075,10.074v12.422
		c0,5.556,4.52,10.075,10.075,10.075h14.357c5.555,0,10.074-4.519,10.074-10.075v-12.422
		C241.146,272.805,236.627,268.287,231.072,268.287z M232.941,290.783c0,1.031-0.839,1.868-1.869,1.868h-14.357
		c-1.031,0-1.87-0.839-1.87-1.868v-12.422c0-1.031,0.839-1.87,1.87-1.87h14.357c1.031,0,1.869,0.84,1.869,1.87V290.783z"/>
	<path display="inline" fill="#2980B9" d="M270.36,268.287h-14.357c-5.555,0-10.074,4.519-10.074,10.074v12.422
		c0,5.556,4.52,10.075,10.074,10.075h14.357c5.556,0,10.075-4.519,10.075-10.075v-12.422
		C280.435,272.805,275.916,268.287,270.36,268.287z M272.229,290.783c0,1.031-0.839,1.868-1.87,1.868h-14.357
		c-1.031,0-1.869-0.839-1.869-1.868v-12.422c0-1.031,0.839-1.87,1.869-1.87h14.357c1.031,0,1.87,0.84,1.87,1.87V290.783z"/>
	<path display="inline" fill="#2980B9" d="M309.649,268.287h-14.358c-5.556,0-10.075,4.519-10.075,10.074v12.422
		c0,5.556,4.52,10.075,10.075,10.075h14.358c5.555,0,10.074-4.519,10.074-10.075v-12.422
		C319.724,272.805,315.204,268.287,309.649,268.287z M311.519,290.783c0,1.031-0.84,1.868-1.869,1.868h-14.358
		c-1.031,0-1.87-0.839-1.87-1.868v-12.422c0-1.031,0.839-1.87,1.87-1.87h14.358c1.03,0,1.869,0.84,1.869,1.87V290.783z"/>
	<path display="inline" fill="#2980B9" d="M191.784,310.99h-14.357c-5.556,0-10.075,4.52-10.075,10.076v12.42
		c0,5.557,4.52,10.076,10.075,10.076h14.358c5.556,0,10.074-4.52,10.074-10.076v-12.42
		C201.858,315.51,197.339,310.99,191.784,310.99z M193.653,333.486c0,1.031-0.839,1.871-1.87,1.871h-14.357
		c-1.031,0-1.87-0.842-1.87-1.871v-12.42c0-1.031,0.839-1.871,1.87-1.871h14.358c1.031,0,1.869,0.84,1.869,1.871L193.653,333.486
		L193.653,333.486z"/>
	<path display="inline" fill="#2980B9" d="M231.072,310.99h-14.357c-5.556,0-10.075,4.52-10.075,10.076v12.42
		c0,5.557,4.52,10.076,10.075,10.076h14.357c5.555,0,10.074-4.52,10.074-10.076v-12.42
		C241.146,315.51,236.627,310.99,231.072,310.99z M232.941,333.486c0,1.031-0.839,1.871-1.869,1.871h-14.357
		c-1.031,0-1.87-0.842-1.87-1.871v-12.42c0-1.031,0.839-1.871,1.87-1.871h14.357c1.031,0,1.869,0.84,1.869,1.871V333.486z"/>
	<path display="inline" fill="#2980B9" d="M270.36,310.99h-14.357c-5.555,0-10.074,4.52-10.074,10.076v12.42
		c0,5.557,4.52,10.076,10.074,10.076h14.357c5.556,0,10.075-4.52,10.075-10.076v-12.42C280.435,315.51,275.916,310.99,270.36,310.99
		z M272.229,333.486c0,1.031-0.839,1.871-1.87,1.871h-14.357c-1.031,0-1.869-0.842-1.869-1.871v-12.42
		c0-1.031,0.839-1.871,1.869-1.871h14.357c1.031,0,1.87,0.84,1.87,1.871V333.486z"/>
	<path display="inline" fill="#2980B9" d="M309.649,310.99h-14.358c-5.556,0-10.075,4.52-10.075,10.076v12.42
		c0,5.557,4.52,10.076,10.075,10.076h14.358c5.555,0,10.074-4.52,10.074-10.076v-12.42
		C319.724,315.51,315.204,310.99,309.649,310.99z M311.519,333.486c0,1.031-0.84,1.871-1.869,1.871h-14.358
		c-1.031,0-1.87-0.842-1.87-1.871v-12.42c0-1.031,0.839-1.871,1.87-1.871h14.358c1.03,0,1.869,0.84,1.869,1.871V333.486z"/>
	<path display="inline" fill="#2980B9" d="M354.2,318.201h-12.596c-5.555,0-10.074,4.52-10.074,10.076v5.209
		c0,5.557,4.52,10.076,10.074,10.076H354.2c5.555,0,10.074-4.52,10.074-10.076v-5.209
		C364.274,322.721,359.755,318.201,354.2,318.201z M356.069,333.486c0,1.031-0.838,1.871-1.869,1.871h-12.595
		c-1.03,0-1.869-0.842-1.869-1.871v-5.209c0-1.031,0.839-1.871,1.869-1.871H354.2c1.031,0,1.869,0.84,1.869,1.871V333.486z"/>
	<path display="inline" fill="#2980B9" d="M390.856,318.201h-12.595c-5.556,0-10.075,4.52-10.075,10.076v5.209
		c0,5.557,4.52,10.076,10.075,10.076h12.595c5.556,0,10.074-4.52,10.074-10.076v-5.209
		C400.932,322.721,396.412,318.201,390.856,318.201z M392.727,333.486c0,1.031-0.839,1.871-1.869,1.871h-12.595
		c-1.031,0-1.869-0.842-1.869-1.871v-5.209c0-1.031,0.839-1.871,1.869-1.871h12.595c1.03,0,1.869,0.84,1.869,1.871V333.486z"/>
	<path display="inline" fill="#2980B9" d="M427.514,318.201h-12.595c-5.557,0-10.075,4.52-10.075,10.076v5.209
		c0,5.557,4.52,10.076,10.075,10.076h12.595c5.556,0,10.075-4.52,10.075-10.076v-5.209
		C437.589,322.721,433.067,318.201,427.514,318.201z M429.383,333.486c0,1.031-0.839,1.871-1.869,1.871h-12.595
		c-1.031,0-1.87-0.842-1.87-1.871v-5.209c0-1.031,0.84-1.871,1.87-1.871h12.595c1.03,0,1.869,0.84,1.869,1.871V333.486z"/>
	<path display="inline" fill="#2980B9" d="M390.856,360.908h-12.595c-5.556,0-10.075,4.518-10.075,10.072v5.211
		c0,5.557,4.52,10.074,10.075,10.074h12.595c5.556,0,10.074-4.518,10.074-10.074v-5.211
		C400.932,365.426,396.412,360.908,390.856,360.908z M392.727,376.191c0,1.031-0.839,1.869-1.869,1.869h-12.595
		c-1.031,0-1.869-0.838-1.869-1.869v-5.211c0-1.031,0.839-1.867,1.869-1.867h12.595c1.03,0,1.869,0.838,1.869,1.867V376.191z"/>
	<path display="inline" fill="#2980B9" d="M427.514,360.908h-12.595c-5.557,0-10.075,4.518-10.075,10.072v5.211
		c0,5.557,4.52,10.074,10.075,10.074h12.595c5.556,0,10.075-4.518,10.075-10.074v-5.211
		C437.589,365.426,433.067,360.908,427.514,360.908z M429.383,376.191c0,1.031-0.839,1.869-1.869,1.869h-12.595
		c-1.031,0-1.87-0.838-1.87-1.869v-5.211c0-1.031,0.84-1.867,1.87-1.867h12.595c1.03,0,1.869,0.838,1.869,1.867V376.191z"/>
	<path display="inline" fill="#2980B9" d="M390.856,403.611h-12.595c-5.556,0-10.075,4.518-10.075,10.074v5.211
		c0,5.555,4.52,10.074,10.075,10.074h12.595c5.556,0,10.074-4.52,10.074-10.074v-5.211
		C400.932,408.129,396.412,403.611,390.856,403.611z M392.727,418.896c0,1.031-0.839,1.867-1.869,1.867h-12.595
		c-1.031,0-1.869-0.838-1.869-1.867v-5.211c0-1.031,0.839-1.869,1.869-1.869h12.595c1.03,0,1.869,0.838,1.869,1.869V418.896z"/>
	<path display="inline" fill="#2980B9" d="M427.514,403.611h-12.595c-5.557,0-10.075,4.518-10.075,10.074v5.211
		c0,5.555,4.52,10.074,10.075,10.074h12.595c5.556,0,10.075-4.52,10.075-10.074v-5.211
		C437.589,408.129,433.067,403.611,427.514,403.611z M429.383,418.896c0,1.031-0.839,1.867-1.869,1.867h-12.595
		c-1.031,0-1.87-0.838-1.87-1.867v-5.211c0-1.031,0.84-1.869,1.87-1.869h12.595c1.03,0,1.869,0.838,1.869,1.869V418.896z"/>
	<path display="inline" fill="#2980B9" d="M354.2,275.496h-12.596c-5.555,0-10.074,4.519-10.074,10.075v5.21
		c0,5.558,4.52,10.075,10.074,10.075H354.2c5.555,0,10.074-4.517,10.074-10.075v-5.21
		C364.274,280.015,359.755,275.496,354.2,275.496z M356.069,290.783c0,1.031-0.838,1.868-1.869,1.868h-12.595
		c-1.03,0-1.869-0.839-1.869-1.868v-5.212c0-1.031,0.839-1.869,1.869-1.869H354.2c1.031,0,1.869,0.84,1.869,1.869V290.783z"/>
	<path display="inline" fill="#2980B9" d="M390.856,275.496h-12.595c-5.556,0-10.075,4.519-10.075,10.075v5.21
		c0,5.558,4.52,10.075,10.075,10.075h12.595c5.556,0,10.074-4.517,10.074-10.075v-5.21
		C400.932,280.015,396.412,275.496,390.856,275.496z M392.727,290.783c0,1.031-0.839,1.868-1.869,1.868h-12.595
		c-1.031,0-1.869-0.839-1.869-1.868v-5.212c0-1.031,0.839-1.869,1.869-1.869h12.595c1.03,0,1.869,0.84,1.869,1.869V290.783z"/>
	<path display="inline" fill="#2980B9" d="M427.514,275.496h-12.595c-5.557,0-10.075,4.519-10.075,10.075v5.21
		c0,5.558,4.52,10.075,10.075,10.075h12.595c5.556,0,10.075-4.517,10.075-10.075v-5.21
		C437.589,280.015,433.067,275.496,427.514,275.496z M429.383,290.783c0,1.031-0.839,1.868-1.869,1.868h-12.595
		c-1.031,0-1.87-0.839-1.87-1.868v-5.212c0-1.031,0.84-1.869,1.87-1.869h12.595c1.03,0,1.869,0.84,1.869,1.869V290.783z"/>
	<path display="inline" fill="#2980B9" d="M191.784,353.697h-14.357c-5.556,0-10.075,4.518-10.075,10.074v12.42
		c0,5.557,4.52,10.074,10.075,10.074h14.358c5.556,0,10.074-4.518,10.074-10.074v-12.42
		C201.858,358.215,197.339,353.697,191.784,353.697z M193.653,376.191c0,1.031-0.839,1.869-1.87,1.869h-14.357
		c-1.031,0-1.87-0.838-1.87-1.869v-12.42c0-1.031,0.839-1.869,1.87-1.869h14.358c1.031,0,1.869,0.838,1.869,1.869L193.653,376.191
		L193.653,376.191z"/>
	<path display="inline" fill="#2980B9" d="M231.072,353.697h-14.357c-5.556,0-10.075,4.518-10.075,10.074v12.42
		c0,5.557,4.52,10.074,10.075,10.074h14.357c5.555,0,10.074-4.518,10.074-10.074v-12.42
		C241.146,358.215,236.627,353.697,231.072,353.697z M232.941,376.191c0,1.031-0.839,1.869-1.869,1.869h-14.357
		c-1.031,0-1.87-0.838-1.87-1.869v-12.42c0-1.031,0.839-1.869,1.87-1.869h14.357c1.031,0,1.869,0.838,1.869,1.869V376.191z"/>
	<path display="inline" fill="#2980B9" d="M270.36,353.697h-14.357c-5.555,0-10.074,4.518-10.074,10.074v12.42
		c0,5.557,4.52,10.074,10.074,10.074h14.357c5.556,0,10.075-4.518,10.075-10.074v-12.42
		C280.435,358.215,275.916,353.697,270.36,353.697z M272.229,376.191c0,1.031-0.839,1.869-1.87,1.869h-14.357
		c-1.031,0-1.869-0.838-1.869-1.869v-12.42c0-1.031,0.839-1.869,1.869-1.869h14.357c1.031,0,1.87,0.838,1.87,1.869V376.191z"/>
	<path display="inline" fill="#2980B9" d="M309.649,353.697h-14.358c-5.556,0-10.075,4.518-10.075,10.074v12.42
		c0,5.557,4.52,10.074,10.075,10.074h14.358c5.555,0,10.074-4.518,10.074-10.074v-12.42
		C319.724,358.215,315.204,353.697,309.649,353.697z M311.519,376.191c0,1.031-0.84,1.869-1.869,1.869h-14.358
		c-1.031,0-1.87-0.838-1.87-1.869v-12.42c0-1.031,0.839-1.869,1.87-1.869h14.358c1.03,0,1.869,0.838,1.869,1.869V376.191z"/>
	<path display="inline" fill="#2980B9" d="M191.784,396.4h-14.357c-5.556,0-10.075,4.52-10.075,10.074v12.422
		c0,5.555,4.52,10.074,10.075,10.074h14.358c5.556,0,10.074-4.52,10.074-10.074v-12.422C201.858,400.92,197.339,396.4,191.784,396.4
		z M193.653,418.896c0,1.031-0.839,1.867-1.87,1.867h-14.357c-1.031,0-1.87-0.838-1.87-1.867v-12.422
		c0-1.031,0.839-1.869,1.87-1.869h14.358c1.031,0,1.869,0.84,1.869,1.869L193.653,418.896L193.653,418.896z"/>
	<path display="inline" fill="#2980B9" d="M231.072,396.4h-14.357c-5.556,0-10.075,4.52-10.075,10.074v12.422
		c0,5.555,4.52,10.074,10.075,10.074h14.357c5.555,0,10.074-4.52,10.074-10.074v-12.422C241.146,400.92,236.627,396.4,231.072,396.4
		z M232.941,418.896c0,1.031-0.839,1.867-1.869,1.867h-14.357c-1.031,0-1.87-0.838-1.87-1.867v-12.422
		c0-1.031,0.839-1.869,1.87-1.869h14.357c1.031,0,1.869,0.84,1.869,1.869V418.896z"/>
	<path display="inline" fill="#2980B9" d="M270.36,396.4h-14.357c-5.555,0-10.074,4.52-10.074,10.074v12.422
		c0,5.555,4.52,10.074,10.074,10.074h14.357c5.556,0,10.075-4.52,10.075-10.074v-12.422C280.435,400.92,275.916,396.4,270.36,396.4z
		 M272.229,418.896c0,1.031-0.839,1.867-1.87,1.867h-14.357c-1.031,0-1.869-0.838-1.869-1.867v-12.422
		c0-1.031,0.839-1.869,1.869-1.869h14.357c1.031,0,1.87,0.84,1.87,1.869V418.896z"/>
	<path display="inline" fill="#2980B9" d="M309.649,396.4h-14.358c-5.556,0-10.075,4.52-10.075,10.074v12.422
		c0,5.555,4.52,10.074,10.075,10.074h14.358c5.555,0,10.074-4.52,10.074-10.074v-12.422C319.724,400.92,315.204,396.4,309.649,396.4
		z M311.519,418.896c0,1.031-0.84,1.867-1.869,1.867h-14.358c-1.031,0-1.87-0.838-1.87-1.867v-12.422
		c0-1.031,0.839-1.869,1.87-1.869h14.358c1.03,0,1.869,0.84,1.869,1.869V418.896z"/>
	<path display="inline" fill="#2980B9" d="M354.2,353.697h-12.596c-5.555,0-10.074,4.518-10.074,10.074v55.125
		c0,5.555,4.52,10.074,10.074,10.074H354.2c5.555,0,10.074-4.52,10.074-10.074v-55.125
		C364.274,358.215,359.755,353.697,354.2,353.697z M356.069,418.896c0,1.031-0.838,1.867-1.869,1.867h-12.595
		c-1.03,0-1.869-0.838-1.869-1.867v-55.125c0-1.031,0.839-1.869,1.869-1.869H354.2c1.031,0,1.869,0.838,1.869,1.869V418.896z"/>
	<path display="inline" fill="#2980B9" d="M315.62,253.927H171.454c-2.265,0-4.103,1.837-4.103,4.103s1.838,4.103,4.103,4.103
		H315.62c2.267,0,4.104-1.837,4.104-4.103S317.887,253.927,315.62,253.927z"/>
	<path display="inline" fill="#2980B9" d="M433.485,253.927h-32.212c-2.264,0-4.102,1.837-4.102,4.103s1.838,4.103,4.102,4.103
		h32.212c2.266,0,4.104-1.837,4.104-4.103S435.751,253.927,433.485,253.927z"/>
	<path display="inline" fill="#2980B9" d="M371.946,258.03c0-2.266-1.837-4.103-4.104-4.103h-32.209
		c-2.267,0-4.104,1.837-4.104,4.103s1.837,4.103,4.104,4.103h32.209C370.109,262.132,371.946,260.295,371.946,258.03z"/>
</g>
<g>
	<g>
		<g>
			<path fill="#2980B9" d="M322.883,459.763c-26.927,0-51.001-9.627-71.554-28.616c-1.448-1.337-1.537-3.594-0.2-5.039
				c1.336-1.447,3.593-1.538,5.04-0.2c19.193,17.73,41.639,26.722,66.712,26.722c54.609,0,98.248-53.727,104.746-103.907
				c0.254-1.951,2.033-3.33,3.996-3.079c1.953,0.255,3.332,2.044,3.078,3.997C427.818,402.82,381.242,459.763,322.883,459.763z"/>
		</g>
		<path fill="#2980B9" d="M349.221,398.804c-1.969,0-3.566,1.598-3.566,3.567c0,5.464-4.443,9.91-9.904,9.91h-17.6
			c-5.463,0-9.908-4.444-9.908-9.91c0-5.464,4.445-9.909,9.908-9.909h17.6c1.971,0,3.568-1.597,3.568-3.566
			c0-1.971-1.598-3.567-3.568-3.567h-17.6c-8.168,0-15.006,5.778-16.656,13.461c-65.58-0.641-130.906-21.048-130.906-59.496
			c0-92.779,39.676-191.92,151.025-191.92c1.973,0,3.568-1.598,3.568-3.568s-1.596-3.566-3.568-3.566
			c-56.153,0-98.632,23.227-126.249,69.036c-27.765,46.052-31.91,101.228-31.91,130.02c0,20.825,15.657,38.252,45.277,50.392
			c24.819,10.173,57.651,15.895,92.75,16.222c1.633,7.706,8.482,13.51,16.668,13.51h17.6c9.398,0,17.039-7.645,17.039-17.044
			C352.789,400.402,351.191,398.804,349.221,398.804z"/>
		<g>
			<path fill="#2980B9" d="M216.97,361.31c-1.321,0-2.591-0.738-3.209-2.005c-8.187-16.799-9.356-49.653,3.035-73.442
				c7.481-14.36,18.821-23.12,32.793-25.331c16.909-2.672,25.906-17.484,33.847-30.552c5.354-8.813,10.411-17.136,17.42-20.965
				c2.556-1.398,4.997-1.752,7.251-1.043c4.299,1.346,6.636,6.016,9.596,11.927c7.115,14.216,17.865,35.701,61.402,37.205
				c3.664,0.126,7.078,0.221,10.256,0.31c34.021,0.943,44.287,1.229,47.172,34.384c0.172,1.963-1.279,3.692-3.242,3.862
				c-1.988,0.186-3.691-1.281-3.863-3.244c-2.332-26.817-6.65-26.938-40.264-27.869c-3.191-0.088-6.621-0.185-10.305-0.313
				c-47.771-1.651-60.629-27.341-67.535-41.143c-1.849-3.69-3.941-7.873-5.346-8.312c-0.322-0.102-0.938,0.081-1.7,0.497
				c-5.326,2.909-9.9,10.438-14.742,18.408c-8.31,13.68-18.656,30.705-38.829,33.896c-11.814,1.868-21.093,9.129-27.58,21.58
				c-11.007,21.13-10.411,51.712-2.949,67.019c0.864,1.771,0.128,3.907-1.642,4.771C218.027,361.193,217.494,361.31,216.97,361.31z"
				/>
		</g>
	</g>
</g>
<g display="none">
	<path display="inline" fill="#FCFCFC" stroke="#2980B9" stroke-width="9" stroke-miterlimit="10" d="M298,494.108
		c-106.967,0-193.989-87.024-193.989-193.989c0-106.966,87.022-193.989,193.989-193.989c106.965,0,193.988,87.022,193.988,193.989
		S404.965,494.108,298,494.108z"/>
	<path display="inline" fill="#FCFCFC" stroke="#2980B9" stroke-width="9" stroke-miterlimit="10" d="M350.211,300.119
		c0-28.789-23.422-52.212-52.211-52.212s-52.212,23.423-52.212,52.212S269.21,352.331,298,352.331
		C326.789,352.331,350.211,328.908,350.211,300.119z"/>
	<path display="inline" fill="#FCFCFC" stroke="#2980B9" stroke-width="9" stroke-miterlimit="10" d="M460.107,337.57
		c-0.002-0.001-0.01-0.003-0.01-0.003c-40.945-10.926-84.98,0.877-114.916,30.813c-25.766,25.766-38.188,61.33-34.08,97.573
		c0,0.001,0,0.002,0,0.004c0,0.001,0,0.002,0,0.004c0.355,3.094,2.977,5.373,6.016,5.373c0.232,0,0.465-0.015,0.699-0.041
		c34.529-3.96,66.705-18.133,93.041-40.985c26.094-22.64,44.604-52.14,53.529-85.311C465.258,341.766,463.342,338.44,460.107,337.57
		z"/>
	<path display="inline" fill="#FCFCFC" stroke="#2980B9" stroke-width="9" stroke-miterlimit="10" d="M135.901,337.567
		c-0.001,0-0.002,0.001-0.002,0.001c-0.003,0.001-0.006,0.001-0.009,0.002c-3.233,0.87-5.149,4.195-4.279,7.43
		c8.925,33.169,27.435,62.668,53.529,85.311c26.337,22.851,58.511,37.023,93.041,40.984c0.235,0.025,0.468,0.04,0.699,0.04
		c3.038,0,5.661-2.28,6.015-5.373c0-0.001,0-0.002,0-0.004c0-0.001,0.001-0.001,0.001-0.003c4.107-36.243-8.313-71.808-34.08-97.574
		C220.881,338.444,176.85,326.638,135.901,337.567z"/>
	<path display="inline" fill="#FCFCFC" stroke="#2980B9" stroke-width="9" stroke-miterlimit="10" d="M419.002,177.467
		c-32.445-32.014-75.42-49.645-121.004-49.645c-45.583,0-88.556,17.631-121.003,49.645c-32.414,31.981-50.623,74.648-51.271,120.14
		c-0.036,2.574,1.556,4.891,3.973,5.777c0.683,0.251,1.389,0.372,2.088,0.372c1.775,0,3.504-0.779,4.678-2.206
		c36.133-43.813,96.521-69.969,161.536-69.969c65.014,0,125.4,26.156,161.535,69.969c1.639,1.986,4.35,2.719,6.768,1.832
		c2.416-0.886,4.008-3.201,3.971-5.776C469.625,252.115,451.416,209.448,419.002,177.467z"/>
</g>
</svg>
