<?xml version="1.0" encoding="utf-8"?>
<!-- Generator: Adobe Illustrator 16.0.0, SVG Export Plug-In . SVG Version: 6.00 Build 0)  -->
<!DOCTYPE svg PUBLIC "-//W3C//DTD SVG 1.1//EN" "http://www.w3.org/Graphics/SVG/1.1/DTD/svg11.dtd">
<svg version="1.1" id="Capa_1" xmlns="http://www.w3.org/2000/svg" xmlns:xlink="http://www.w3.org/1999/xlink" x="0px" y="0px"
	 width="600px" height="600px" viewBox="0 0 600 600" enable-background="new 0 0 600 600" xml:space="preserve">
<circle fill="none" stroke="#2980B9" stroke-width="9" stroke-miterlimit="10" cx="300" cy="300" r="286"/>
<g>
	<g>
		<path fill="#2980B9" d="M239.652,361.347c-1.374-1.184-3.447-1.029-4.633,0.344c-1.184,1.373-1.03,3.447,0.344,4.631
			c18.526,15.967,45.836,27.119,66.41,27.119c24.37,0,49.094-12.328,67.831-33.822c18.116-20.783,28.508-47.213,28.508-72.514
			c0-1.814-1.47-3.284-3.285-3.284c-1.814,0-3.284,1.47-3.284,3.284c0,46.137-39.213,99.768-89.771,99.768
			C282.94,386.872,256.813,376.136,239.652,361.347z"/>
		<path fill="#2980B9" d="M244.045,271.266c4.769-0.064,10.174-0.139,16.264-0.315c41.654-1.208,51.061-20.029,57.286-32.482
			c3.219-6.436,8.202-8.868,11.225-8.868c1.814,0,3.285-1.47,3.285-3.284c0-1.814-1.471-3.285-3.285-3.285
			c-7.369,0-13.887,6.073-17.101,12.502c-5.854,11.714-13.874,27.758-51.601,28.852c-6.039,0.176-11.417,0.249-16.163,0.314
			c-30.042,0.409-39.109,0.533-39.438,27.399c-0.119,9.759,2.01,19.749,6.331,29.69c0.537,1.238,1.746,1.979,3.015,1.979
			c0.437,0,0.88-0.088,1.307-0.275c1.665-0.721,2.426-2.656,1.705-4.32c-3.948-9.086-5.896-18.169-5.787-26.995
			C211.336,271.712,213.807,271.679,244.045,271.266z"/>
		<path fill="#2980B9" d="M435.42,303.99c-2.231-39.754-11.034-95.174-40.294-133.425c-22.824-29.838-54.597-44.967-94.433-44.967
			c-37.388,0-68.096,12.158-91.268,36.139c-29.238,30.256-45.596,80.294-43.761,133.851c1.319,38.452,61.364,56.319,117.683,56.911
			c1.492,6.574,7.372,11.504,14.392,11.504h14.996c8.143,0,14.767-6.625,14.767-14.77c0-1.814-1.47-3.285-3.284-3.285
			s-3.285,1.471-3.285,3.285c0,4.521-3.678,8.201-8.197,8.201H297.74c-4.521,0-8.2-3.68-8.2-8.201s3.679-8.199,8.2-8.199h14.996
			c1.816,0,3.285-1.471,3.285-3.285c0-1.813-1.469-3.283-3.285-3.283H297.74c-7.006,0-12.878,4.908-14.383,11.469
			c-54.862-0.592-110.008-17.934-111.127-50.568c-1.777-51.814,13.893-100.062,41.917-129.063
			c21.887-22.649,51.005-34.134,86.544-34.134c37.684,0,67.699,14.262,89.217,42.389c28.245,36.925,36.773,90.967,38.953,129.801
			c2.446,43.569-2.269,82.778-5.336,94.093c-4.401,16.232-18.962,29.953-42.108,39.676c-21.758,9.139-50.102,14.172-79.812,14.172
			c-67.877,0-127.95-26.807-131.181-58.533c-0.184-1.805-1.791-3.117-3.602-2.936c-1.804,0.186-3.119,1.797-2.935,3.602
			c3.618,35.533,65.396,64.438,137.715,64.438c55.921,0,117.268-18.15,128.262-58.699
			C432.711,389.685,438.055,350.911,435.42,303.99z"/>
	</g>
</g>
</svg>
