<?xml version="1.0" encoding="utf-8"?>
<!-- Generator: Adobe Illustrator 16.0.0, SVG Export Plug-In . SVG Version: 6.00 Build 0)  -->
<!DOCTYPE svg PUBLIC "-//W3C//DTD SVG 1.1//EN" "http://www.w3.org/Graphics/SVG/1.1/DTD/svg11.dtd">
<svg version="1.1" id="Capa_1" xmlns="http://www.w3.org/2000/svg" xmlns:xlink="http://www.w3.org/1999/xlink" x="0px" y="0px"
	 width="600px" height="600px" viewBox="0 0 600 600" enable-background="new 0 0 600 600" xml:space="preserve">
<circle fill="none" stroke="#2980B9" stroke-width="9" stroke-miterlimit="10" cx="300" cy="300" r="286"/>
<g>
	<path fill="#2980B9" d="M434.174,403.615v-10.008c5.538-0.5,9.908-5.117,9.908-10.785V241.099c0-6-4.88-10.879-10.879-10.879
		h-8.105c-0.461,0-0.832-0.372-0.832-0.833v-33.014c0-5.921-4.82-10.741-10.74-10.741H306.198c-5.92,0-10.74,4.82-10.74,10.741
		v33.014c0,0.461-0.372,0.833-0.832,0.833h-48.709v-9.909h31.146c4.677,0,8.486-3.81,8.486-8.491v-47.421
		c0-4.682-3.81-8.491-8.486-8.491h-92.019c-4.677,0-8.486,3.81-8.486,8.491v47.421c0,4.682,3.81,8.491,8.486,8.491h31.146v9.909
		h-38.662c-5.999,0-10.879,4.879-10.879,10.879v141.723c0,5.668,4.369,10.279,9.908,10.785v10.008h-19.816v49.541H453.99v-49.541
		H434.174z M176.559,241.099c0-0.535,0.436-0.971,0.971-0.971h38.662v14.862c0,2.739,2.22,4.954,4.954,4.954
		c2.735,0,4.954-2.215,4.954-4.954v-14.862v-4.954v-24.771h-39.633v-44.587h89.175v44.587h-39.634v24.771v4.954v14.862
		c0,2.739,2.221,4.954,4.955,4.954s4.954-2.215,4.954-4.954v-14.862h48.709c5.92,0,10.74-4.821,10.74-10.741v-33.014
		c0-0.461,0.372-0.833,0.832-0.833h107.327c0.46,0,0.832,0.372,0.832,0.833v33.014c0,5.92,4.82,10.741,10.74,10.741h8.105
		c0.535,0,0.971,0.436,0.971,0.971v141.723c0,0.539-0.436,0.977-0.971,0.977H177.529c-0.535,0-0.971-0.438-0.971-0.973V241.099z
		 M186.467,393.707h237.799v9.908H186.467V393.707z M444.082,443.248H166.65v-29.725h9.908h257.615h9.908V443.248z"/>
	<path fill="#2980B9" d="M255.825,423.432h-69.358c-2.734,0-4.954,2.213-4.954,4.953s2.22,4.955,4.954,4.955h69.358
		c2.734,0,4.954-2.215,4.954-4.955S258.56,423.432,255.825,423.432z"/>
	<path fill="#2980B9" d="M429.22,423.432h-4.954c-2.734,0-4.954,2.213-4.954,4.953s2.22,4.955,4.954,4.955h4.954
		c2.734,0,4.954-2.215,4.954-4.955S431.954,423.432,429.22,423.432z"/>
	<path fill="#2980B9" d="M409.403,200.495H310.32v64.404h99.083V200.495z M399.495,254.991h-79.267v-44.588h79.267V254.991z"/>
	<path fill="#2980B9" d="M340.045,274.807H310.32v29.724h29.725V274.807z M330.137,294.624h-9.908v-9.908h9.908V294.624z"/>
	<path fill="#2980B9" d="M344.999,304.531h29.726v-29.724h-29.726V304.531z M354.907,284.715h9.908v9.908h-9.908V284.715z"/>
	<path fill="#2980B9" d="M379.678,304.531h29.726v-29.724h-29.726V304.531z M389.587,284.715h9.908v9.908h-9.908V284.715z"/>
	<path fill="#2980B9" d="M340.045,309.486H310.32v29.725h29.725V309.486z M330.137,329.303h-9.908v-9.908h9.908V329.303z"/>
	<path fill="#2980B9" d="M344.999,339.211h29.726v-29.725h-29.726V339.211z M354.907,319.395h9.908v9.908h-9.908V319.395z"/>
	<path fill="#2980B9" d="M379.678,339.211h29.726v-29.725h-29.726V339.211z M389.587,319.395h9.908v9.908h-9.908V319.395z"/>
	<path fill="#2980B9" d="M340.045,344.164H310.32v29.725h29.725V344.164z M330.137,363.98h-9.908v-9.908h9.908V363.98z"/>
	<path fill="#2980B9" d="M344.999,373.889h29.726v-29.725h-29.726V373.889z M354.907,354.072h9.908v9.908h-9.908V354.072z"/>
	<path fill="#2980B9" d="M379.678,373.889h29.726v-29.725h-29.726V373.889z M389.587,354.072h9.908v9.908h-9.908V354.072z"/>
	<path fill="#2980B9" d="M203.222,171.152c-1.209-0.501-2.576-0.501-3.784,0c-0.609,0.253-1.155,0.614-1.615,1.075l-4.949,4.949
		c-1.938,1.937-1.938,5.067,0,7.005c0.966,0.966,2.234,1.451,3.502,1.451v14.862c0,2.74,2.22,4.954,4.954,4.954
		c2.735,0,4.954-2.214,4.954-4.954v-24.771c0-0.644-0.134-1.288-0.381-1.893C205.401,172.618,204.436,171.652,203.222,171.152z"/>
	<path fill="#2980B9" d="M229.603,192.039c-1.937-1.938-5.068-1.938-7.005,0l-4.954,4.954c-1.938,1.937-1.938,5.067,0,7.005
		c0.966,0.966,2.234,1.451,3.502,1.451c1.269,0,2.537-0.485,3.503-1.451l4.954-4.954C231.54,197.106,231.54,193.975,229.603,192.039
		z"/>
	<path fill="#2980B9" d="M240.963,185.632v14.862c0,2.74,2.219,4.954,4.954,4.954c2.734,0,4.954-2.214,4.954-4.954v-24.771
		c0-0.644-0.134-1.288-0.382-1.893c-0.5-1.214-1.467-2.18-2.68-2.68c-1.209-0.501-2.576-0.501-3.786,0
		c-0.608,0.253-1.154,0.614-1.614,1.075l-4.949,4.949c-1.938,1.937-1.938,5.067,0,7.005
		C238.426,185.147,239.694,185.632,240.963,185.632z"/>
	<path fill="#2980B9" d="M260.779,185.632v14.862c0,2.74,2.22,4.954,4.954,4.954s4.954-2.214,4.954-4.954v-24.771
		c0-0.644-0.134-1.288-0.382-1.893c-0.5-1.214-1.467-2.18-2.68-2.68c-1.209-0.501-2.576-0.501-3.785,0
		c-0.609,0.253-1.154,0.614-1.615,1.075l-4.949,4.949c-1.938,1.937-1.938,5.067,0,7.005
		C258.242,185.147,259.511,185.632,260.779,185.632z"/>
	<path fill="#2980B9" d="M186.467,368.936h4.954h79.267h4.954c2.734,0,4.954-2.215,4.954-4.955c0-2.738-2.22-4.953-4.954-4.953
		h-4.954v-89.174h-79.267v89.174h-4.954c-2.734,0-4.954,2.215-4.954,4.953C181.513,366.721,183.732,368.936,186.467,368.936z
		 M201.329,279.761h59.45v79.266h-59.45V279.761z"/>
	<path fill="#2980B9" d="M295.458,378.844c2.734,0,4.954-2.215,4.954-4.955V250.037c0-2.739-2.22-4.954-4.954-4.954
		s-4.954,2.215-4.954,4.954v123.852C290.504,376.629,292.724,378.844,295.458,378.844z"/>
	<path fill="#2980B9" d="M236.008,339.211h-24.771c-2.734,0-4.954,2.215-4.954,4.953c0,2.74,2.22,4.955,4.954,4.955h24.771
		c2.735,0,4.955-2.215,4.955-4.955C240.963,341.426,238.743,339.211,236.008,339.211z"/>
	<path fill="#2980B9" d="M247.354,340.648c-0.893,0.936-1.437,2.229-1.437,3.516c0,1.289,0.544,2.576,1.437,3.518
		c0.941,0.893,2.229,1.438,3.518,1.438c1.287,0,2.576-0.545,3.517-1.438c0.893-0.941,1.438-2.229,1.438-3.518
		c0-1.287-0.545-2.58-1.438-3.516C252.556,338.814,249.236,338.814,247.354,340.648z"/>
	<path fill="#2980B9" d="M250.871,289.669H226.1c-2.734,0-4.954,2.215-4.954,4.954c0,2.74,2.22,4.955,4.954,4.955h24.771
		c2.734,0,4.954-2.215,4.954-4.955C255.825,291.884,253.605,289.669,250.871,289.669z"/>
	<path fill="#2980B9" d="M250.871,314.439h-4.954c-2.735,0-4.954,2.215-4.954,4.955s2.219,4.953,4.954,4.953h4.954
		c2.734,0,4.954-2.213,4.954-4.953S253.605,314.439,250.871,314.439z"/>
	<path fill="#2980B9" d="M211.237,324.348h4.954c2.735,0,4.954-2.213,4.954-4.953s-2.219-4.955-4.954-4.955h-4.954
		c-2.734,0-4.954,2.215-4.954,4.955S208.503,324.348,211.237,324.348z"/>
	<path fill="#2980B9" d="M211.237,299.578c1.288,0,2.576-0.545,3.518-1.438c0.892-0.941,1.437-2.18,1.437-3.517
		c0-1.288-0.545-2.581-1.437-3.518c-1.883-1.833-5.201-1.833-7.035,0c-0.892,0.937-1.437,2.229-1.437,3.518
		c0,1.337,0.545,2.576,1.437,3.517C208.661,299.033,209.949,299.578,211.237,299.578z"/>
	<path fill="#2980B9" d="M234.571,322.912c0.893-0.941,1.437-2.23,1.437-3.518c0-1.289-0.544-2.582-1.437-3.518
		c-1.882-1.834-5.151-1.834-7.034,0c-0.893,0.936-1.438,2.174-1.438,3.518c0,1.287,0.545,2.576,1.438,3.518
		c0.94,0.891,2.229,1.436,3.518,1.436C232.342,324.348,233.631,323.803,234.571,322.912z"/>
</g>
</svg>
