<?xml version="1.0" encoding="utf-8"?>
<!-- Generator: Adobe Illustrator 16.0.0, SVG Export Plug-In . SVG Version: 6.00 Build 0)  -->
<!DOCTYPE svg PUBLIC "-//W3C//DTD SVG 1.1//EN" "http://www.w3.org/Graphics/SVG/1.1/DTD/svg11.dtd">
<svg version="1.1" id="Capa_1" xmlns="http://www.w3.org/2000/svg" xmlns:xlink="http://www.w3.org/1999/xlink" x="0px" y="0px"
	 width="600px" height="600px" viewBox="0 0 600 600" enable-background="new 0 0 600 600" xml:space="preserve">
<circle fill="none" stroke="#2980B9" stroke-width="9" stroke-miterlimit="10" cx="300" cy="300" r="286"/>
<g display="none">
	<g display="inline">
		<g>
			<path fill="#2980B9" d="M322.883,459.763c-26.927,0-51.001-9.627-71.554-28.616c-1.448-1.337-1.537-3.594-0.2-5.039
				c1.336-1.447,3.593-1.538,5.04-0.2c19.193,17.73,41.639,26.722,66.712,26.722c54.609,0,98.248-53.727,104.746-103.907
				c0.254-1.951,2.033-3.33,3.996-3.079c1.953,0.255,3.332,2.044,3.078,3.997C427.818,402.82,381.242,459.763,322.883,459.763z"/>
		</g>
		<path fill="#2980B9" d="M349.221,398.804c-1.969,0-3.566,1.598-3.566,3.567c0,5.464-4.443,9.91-9.904,9.91h-17.6
			c-5.463,0-9.908-4.444-9.908-9.91c0-5.464,4.445-9.909,9.908-9.909h17.6c1.971,0,3.568-1.597,3.568-3.566
			c0-1.971-1.598-3.567-3.568-3.567h-17.6c-8.168,0-15.006,5.778-16.656,13.461c-65.58-0.641-130.906-21.048-130.906-59.496
			c0-92.779,39.676-191.92,151.025-191.92c1.973,0,3.568-1.598,3.568-3.568s-1.596-3.566-3.568-3.566
			c-56.153,0-98.632,23.227-126.249,69.036c-27.765,46.052-31.91,101.228-31.91,130.02c0,20.825,15.657,38.252,45.277,50.392
			c24.819,10.173,57.651,15.895,92.75,16.222c1.633,7.706,8.482,13.51,16.668,13.51h17.6c9.398,0,17.039-7.645,17.039-17.044
			C352.789,400.402,351.191,398.804,349.221,398.804z"/>
		<g>
			<path fill="#2980B9" d="M216.97,361.31c-1.321,0-2.591-0.738-3.209-2.005c-8.187-16.799-9.356-49.653,3.035-73.442
				c7.481-14.36,18.821-23.12,32.793-25.331c16.909-2.672,25.906-17.484,33.847-30.552c5.354-8.813,10.411-17.136,17.42-20.965
				c2.556-1.398,4.997-1.752,7.251-1.043c4.299,1.346,6.636,6.016,9.596,11.927c7.115,14.216,17.865,35.701,61.402,37.205
				c3.664,0.126,7.078,0.221,10.256,0.31c34.021,0.943,44.287,1.229,47.172,34.384c0.172,1.963-1.279,3.692-3.242,3.862
				c-1.988,0.186-3.691-1.281-3.863-3.244c-2.332-26.817-6.65-26.938-40.264-27.869c-3.191-0.088-6.621-0.185-10.305-0.313
				c-47.771-1.651-60.629-27.341-67.535-41.143c-1.849-3.69-3.941-7.873-5.346-8.312c-0.322-0.102-0.938,0.081-1.7,0.497
				c-5.326,2.909-9.9,10.438-14.742,18.408c-8.31,13.68-18.656,30.705-38.829,33.896c-11.814,1.868-21.093,9.129-27.58,21.58
				c-11.007,21.13-10.411,51.712-2.949,67.019c0.864,1.771,0.128,3.907-1.642,4.771C218.027,361.193,217.494,361.31,216.97,361.31z"
				/>
		</g>
	</g>
</g>
<g display="none">
	<path display="inline" fill="#FCFCFC" stroke="#2980B9" stroke-width="9" stroke-miterlimit="10" d="M298,494.108
		c-106.967,0-193.989-87.024-193.989-193.989c0-106.966,87.022-193.989,193.989-193.989c106.965,0,193.988,87.022,193.988,193.989
		S404.965,494.108,298,494.108z"/>
	<path display="inline" fill="#FCFCFC" stroke="#2980B9" stroke-width="9" stroke-miterlimit="10" d="M350.211,300.119
		c0-28.789-23.422-52.212-52.211-52.212s-52.212,23.423-52.212,52.212S269.21,352.331,298,352.331
		C326.789,352.331,350.211,328.908,350.211,300.119z"/>
	<path display="inline" fill="#FCFCFC" stroke="#2980B9" stroke-width="9" stroke-miterlimit="10" d="M460.107,337.57
		c-0.002-0.001-0.01-0.003-0.01-0.003c-40.945-10.926-84.98,0.877-114.916,30.813c-25.766,25.766-38.188,61.33-34.08,97.573
		c0,0.001,0,0.002,0,0.004c0,0.001,0,0.002,0,0.004c0.355,3.094,2.977,5.373,6.016,5.373c0.232,0,0.465-0.015,0.699-0.041
		c34.529-3.96,66.705-18.133,93.041-40.985c26.094-22.64,44.604-52.14,53.529-85.311C465.258,341.766,463.342,338.44,460.107,337.57
		z"/>
	<path display="inline" fill="#FCFCFC" stroke="#2980B9" stroke-width="9" stroke-miterlimit="10" d="M135.901,337.567
		c-0.001,0-0.002,0.001-0.002,0.001c-0.003,0.001-0.006,0.001-0.009,0.002c-3.233,0.87-5.149,4.195-4.279,7.43
		c8.925,33.169,27.435,62.668,53.529,85.311c26.337,22.851,58.511,37.023,93.041,40.984c0.235,0.025,0.468,0.04,0.699,0.04
		c3.038,0,5.661-2.28,6.015-5.373c0-0.001,0-0.002,0-0.004c0-0.001,0.001-0.001,0.001-0.003c4.107-36.243-8.313-71.808-34.08-97.574
		C220.881,338.444,176.85,326.638,135.901,337.567z"/>
	<path display="inline" fill="#FCFCFC" stroke="#2980B9" stroke-width="9" stroke-miterlimit="10" d="M419.002,177.467
		c-32.445-32.014-75.42-49.645-121.004-49.645c-45.583,0-88.556,17.631-121.003,49.645c-32.414,31.981-50.623,74.648-51.271,120.14
		c-0.036,2.574,1.556,4.891,3.973,5.777c0.683,0.251,1.389,0.372,2.088,0.372c1.775,0,3.504-0.779,4.678-2.206
		c36.133-43.813,96.521-69.969,161.536-69.969c65.014,0,125.4,26.156,161.535,69.969c1.639,1.986,4.35,2.719,6.768,1.832
		c2.416-0.886,4.008-3.201,3.971-5.776C469.625,252.115,451.416,209.448,419.002,177.467z"/>
</g>
<g display="none">
	<path display="inline" fill="#FFFFFF" stroke="#2980B9" stroke-width="9" stroke-miterlimit="10" d="M478.761,431.678h-78.013
		c5.364-6.773,7.517-15.477,5.896-23.99l-15.986-83.934c-2.013-10.559-9.597-19.23-19.794-22.631l-40.769-13.588
		c-0.719-0.239-1.45-0.323-2.161-0.275v-10.832c7.779-8.741,12.036-19.856,12.036-31.686v-13.34
		c6.988-2.361,12.035-8.975,12.035-16.75v-30.09c0-19.703-16.028-35.733-35.731-35.733H268.13c-7.962,0-14.712,5.291-16.917,12.542
		c-10.732,2.256-18.815,11.797-18.815,23.191v30.09c0,7.774,5.048,14.388,12.037,16.75v11.575c0,12.434,4.561,23.918,12.036,32.691
		v11.591c-0.711-0.048-1.442,0.036-2.161,0.275l-40.769,13.59c-10.197,3.398-17.782,12.07-19.793,22.629l-15.986,83.936
		c-1.622,8.512,0.531,17.215,5.895,23.99h-78.013c-3.115,0-5.642,2.525-5.642,5.641c0,3.117,2.526,5.643,5.642,5.643h101.307h1.001
		h12.036h144.434h12.037h0.999h101.306c3.117,0,5.644-2.525,5.644-5.643C484.404,434.205,481.878,431.678,478.761,431.678
		L478.761,431.678z M219.985,431.678c-0.208,0-0.376-0.168-0.376-0.375v-78.234c0-0.207,0.168-0.377,0.376-0.377h144.434
		c0.208,0,0.377,0.17,0.377,0.377v78.234c0,0.207-0.169,0.375-0.377,0.375H219.985z"/>
	<path display="inline" fill="#FFFFFF" stroke="#2980B9" stroke-width="9" stroke-miterlimit="10" d="M292.202,377.518
		c-9.748,0-17.678,7.928-17.678,17.676c0,9.75,7.93,17.678,17.678,17.678c9.747,0,17.679-7.928,17.679-17.678
		C309.881,385.445,301.949,377.518,292.202,377.518z"/>
</g>
<g display="none">
	<g display="inline">
		<path fill="#FFFFFF" stroke="#2980B9" stroke-width="9" stroke-miterlimit="10" d="M300.056,133.573
			c0,0-115.1-5.126-101.914,173.035c0,0-0.724,145.891,64.522,159.096c0,0-28.587-32.994-20.528-56.473
			c0,0,35.927-6.604,30.804-61.561c0,0-30.065-26.4-33.734-44.723c0,0,0-57.197,5.139-64.527c0,0,28.596,2.2,31.519,0
			c0,0,23.471-21.264,28.597-32.252c0,0,4.397,19.051-6.587,30.805h30.045c0,0,9.534-9.535,10.982-19.799
			c0,0,2.933,18.333-1.445,20.511h17.603c0,0,9.527,50.59,7.322,65.262c0,0-16.855,37.373-33.733,43.965
			c0,0-5.873,56.473,35.188,63.781c0,0-3.67,50.6-28.604,52.793c0,0,41.803,11,66.009-78.445c0,0,11.729-124.625-3.923-165.192
			C397.336,219.859,382.188,143.108,300.056,133.573z"/>
	</g>
</g>
<g display="none">
	<path display="inline" fill="#2980B9" d="M210.389,207.169c7.213,10.539,19.331,17.472,33.039,17.472
		c13.725,0,25.855-6.949,33.065-17.511c16.535-8.914,16.34-24.082,16.251-30.604c-0.369-26.906-20.48-47.286-47.821-48.458
		c-14.431-0.621-22.776,6.408-25.332,8.979c-2.233,0.506-7.199,2.02-12.167,6.158c-5.909,4.922-13.032,14.671-13.411,33.162
		C193.881,182.916,193.581,198.156,210.389,207.169z M243.428,218.294c-18.563,0-33.667-15.104-33.667-33.667v-9.376
		c8.704-3.301,14.068-12.478,16.705-18.333c7.176,7.552,24.814,22.813,50.628,23.604v4.104
		C277.094,203.192,261.992,218.294,243.428,218.294z M200.36,176.497c0.618-30.147,20.428-33.267,21.253-33.382
		c0.791-0.102,1.527-0.512,2.04-1.121c0.282-0.335,7.033-8.192,21-7.584c23.868,1.023,41.425,18.773,41.745,42.205
		c0.059,4.29,0.145,11.08-4.036,17.212c0.699-2.955,1.079-6.031,1.079-9.196v-4.355c1.243-0.478,2.103-1.697,2.036-3.1
		c-0.083-1.75-1.567-3.099-3.32-3.019c-33.429,1.594-54.012-24.921-54.213-25.187l-0.006,0.005
		c-0.389-0.515-0.932-0.921-1.597-1.124c-1.674-0.514-3.45,0.431-3.963,2.107c-0.058,0.189-6.118,18.955-18.084,20.128
		c-1.745,0.171-3.02,1.725-2.848,3.469c0.119,1.215,0.91,2.199,1.968,2.629v8.444c0,3.257,0.4,6.421,1.138,9.454
		C200.824,188.779,200.236,182.604,200.36,176.497z"/>
	<path display="inline" fill="#2980B9" d="M244.535,193.077h-4.027c-7.671,0-13.913,6.24-13.913,13.912v4.161
		c0,1.754,1.42,3.174,3.174,3.174c1.753,0,3.174-1.42,3.174-3.174v-4.161c0-4.172,3.394-7.565,7.565-7.565h4.027
		c4.171,0,7.565,3.394,7.565,7.565v4.161c0,1.754,1.42,3.174,3.173,3.174c1.754,0,3.174-1.42,3.174-3.174v-4.161
		C258.447,199.317,252.206,193.077,244.535,193.077z"/>
	<path display="inline" fill="#2980B9" d="M246.262,205.372h-7.482c-1.753,0-3.173,1.421-3.173,3.174
		c0,1.754,1.42,3.174,3.173,3.174h7.482c1.753,0,3.173-1.42,3.173-3.174C249.435,206.792,248.015,205.372,246.262,205.372z"/>
	<path display="inline" fill="#2980B9" d="M212.02,225.691c-5.822,0-11.032,2.444-14.915,6.208c-0.021,0.021-0.048,0.035-0.07,0.057
		c-15.665,15.668-62.646,62.676-62.646,62.676c-3.369,3.369-5.224,7.847-5.224,12.611c0,4.766,1.855,9.242,5.223,12.611
		c3.369,3.369,7.848,5.223,12.612,5.223c4.763,0,9.242-1.854,12.61-5.223l31.355-31.328v60.289h-79.099
		c-1.036,0-2.006,0.504-2.599,1.354c-0.594,0.85-0.736,1.934-0.383,2.906l8.467,23.24c0.456,1.254,1.648,2.088,2.981,2.088h13.943
		l7.089,112.023c0.106,1.672,1.492,2.975,3.167,2.975H440.62c1.675,0,3.062-1.303,3.167-2.975l7.09-112.023h13.943
		c1.333,0,2.525-0.834,2.981-2.088l8.466-23.24c0.355-0.975,0.213-2.059-0.382-2.908c-0.594-0.848-1.564-1.354-2.6-1.354H295.929
		v-60.044l30.603,30.449c3.476,3.479,8.043,5.217,12.61,5.217s9.135-1.738,12.611-5.217c6.954-6.951,6.954-18.266,0-25.219
		c0,0-45.736-45.217-60.637-60.637c-4.218-4.366-9.71-7.67-16.242-7.67h-17.677c-1.621,0-2.981,1.222-3.155,2.834
		c-0.494,4.593-5.148,8.191-10.596,8.191s-10.101-3.598-10.594-8.191c-0.173-1.612-1.535-2.834-3.156-2.834H212.02L212.02,225.691z
		 M295.929,247.15l47.719,47.719l-16.254,16.254l-31.465-31.309V247.15z M347.266,314.73c-2.17,2.17-5.055,3.363-8.123,3.363
		c-2.652,0-5.166-0.895-7.203-2.541l16.148-16.147c1.645,2.036,2.541,4.549,2.541,7.204
		C350.629,309.676,349.436,312.561,347.266,314.73z M289.582,246.746v71.682H279.27c-1.754,0-3.174,1.42-3.174,3.174
		c0,1.752,1.42,3.174,3.174,3.174h10.312v24.037h-27.538l0-49.331l21.773-24.061c0.862-0.953,1.065-2.332,0.513-3.493l-6.778-14.246
		l5.982-3.501c1.484-0.869,2.006-2.76,1.179-4.268l-9.816-17.876C282.997,232.051,289.582,238.643,289.582,246.746z
		 M267.939,255.957l3.113-17.733l6.611,12.041L267.939,255.957z M272.055,260.902l5.631,11.837l-15.642,17.285v-0.492l4.455-25.377
		L272.055,260.902z M248.208,298.456l-4.761,4.974l-4.761-4.974l2.323-44.062h4.874L248.208,298.456z M247.871,242.535l-1.489,5.512
		h-5.867l-1.49-5.512c1.412,0.341,2.893,0.528,4.423,0.528C244.977,243.063,246.458,242.875,247.871,242.535z M231.363,238.52
		l3.454,12.773l-2.542,48.196c-0.046,0.875,0.271,1.729,0.876,2.36l8.002,8.365c0.599,0.627,1.427,0.98,2.293,0.98
		s1.695-0.354,2.293-0.98l8.002-8.365c0.605-0.631,0.921-1.485,0.875-2.36l-2.54-48.193l3.453-12.776
		c1.946-1.778,3.421-3.987,4.222-6.482h5.94l-9.948,56.669c-0.032,0.181-0.047,0.365-0.047,0.549l-0.001,59.557h-24.356v-59.557
		c0-0.184-0.016-0.368-0.047-0.549l-9.949-56.669h5.798C227.942,234.533,229.417,236.742,231.363,238.52z M219.104,255.987
		l-9.733-5.718l6.615-12.047L219.104,255.987z M220.544,264.195l4.449,25.337v0.492l-15.649-17.293l5.575-11.841L220.544,264.195z
		 M147,318.729c-3.068,0-5.953-1.195-8.123-3.365c-2.169-2.168-3.364-5.053-3.364-8.121s1.195-5.953,3.365-8.123l1.198-1.198
		l16.252,16.239l-1.204,1.203C152.952,317.535,150.068,318.729,147,318.729z M160.817,309.674l-16.254-16.242l46.402-46.424v32.544
		L160.817,309.674z M197.312,324.775h9.884c1.754,0,3.174-1.422,3.174-3.174c0-1.754-1.42-3.174-3.174-3.174h-9.884v-71.682
		c0-8.109,6.598-14.708,14.708-14.708h0.119l-9.816,17.878c-0.826,1.506-0.305,3.395,1.175,4.264l5.928,3.482l-6.724,14.279
		c-0.546,1.158-0.342,2.532,0.518,3.48l21.774,24.063v49.331h-27.681V324.775z M439.012,465.396H341.86
		c-1.753,0-3.173,1.42-3.173,3.174s1.42,3.174,3.173,3.174h96.749l-0.968,15.309H147.51l-6.875-108.65h24.81v65.525
		c0,1.754,1.42,3.174,3.174,3.174c1.753,0,3.173-1.42,3.173-3.174v-65.525h9.334v16.986c0,1.754,1.42,3.174,3.174,3.174
		s3.174-1.42,3.174-3.174v-16.986h213.94v40.883c0,1.754,1.42,3.174,3.174,3.174c1.753,0,3.173-1.42,3.173-3.174v-40.883h12.321
		v11.76c0,1.754,1.421,3.174,3.174,3.174s3.174-1.42,3.174-3.174v-11.76h18.089L439.012,465.396z M462.598,372.055H122.553
		l-6.154-16.895h352.353L462.598,372.055z"/>
	<path display="inline" fill="#2980B9" d="M393.385,305.086c-1.753,0-3.173,1.422-3.173,3.174v3.977
		c-10.958,1.547-19.415,10.982-19.415,22.361c0,1.752,1.42,3.174,3.174,3.174h38.83c0.005,0,0.011,0,0.015,0
		c1.754,0,3.174-1.422,3.174-3.174c0-0.113-0.007-0.225-0.017-0.334c-0.164-11.229-8.563-20.496-19.413-22.029v-3.975
		C396.559,306.508,395.139,305.086,393.385,305.086z M409.315,331.424h-31.86c1.479-7.443,8.061-13.068,15.93-13.068
		C401.256,318.355,407.836,323.98,409.315,331.424z"/>
	<path display="inline" fill="#2980B9" d="M360.343,342.543c0,1.754,1.42,3.174,3.173,3.174h58.246c1.753,0,3.174-1.42,3.174-3.174
		c0-1.752-1.421-3.172-3.174-3.172h-58.246C361.763,339.371,360.343,340.791,360.343,342.543z"/>
	<path display="inline" fill="#2980B9" d="M390.648,252.452c30.571,0,55.445-24.873,55.445-55.444
		c0-30.572-24.874-55.445-55.445-55.445c-30.573,0-55.445,24.873-55.445,55.445C335.203,227.579,360.075,252.452,390.648,252.452z
		 M390.648,147.909c27.072,0,49.098,22.025,49.098,49.099c0,27.072-22.025,49.098-49.098,49.098
		c-27.073,0-49.099-22.025-49.099-49.098C341.55,169.934,363.575,147.909,390.648,147.909z"/>
	<path display="inline" fill="#2980B9" d="M387.475,237.455c0,1.753,1.42,3.174,3.174,3.174c24.053,0,43.621-19.568,43.621-43.621
		c0-1.754-1.42-3.174-3.174-3.174s-3.174,1.42-3.174,3.174c0,20.552-16.722,37.273-37.273,37.273
		C388.895,234.281,387.475,235.702,387.475,237.455z"/>
	<path display="inline" fill="#2980B9" d="M368.992,221.835c0.813,0,1.625-0.31,2.244-0.929l21.651-21.652
		c0.576-0.575,0.934-1.368,0.934-2.247v-40.822c0-1.753-1.42-3.174-3.173-3.174c-1.754,0-3.174,1.421-3.174,3.174v39.508
		l-20.727,20.726c-1.239,1.238-1.239,3.249,0,4.488C367.367,221.526,368.181,221.835,368.992,221.835z"/>
	<path display="inline" fill="#2980B9" d="M326.18,465.396h-47.045c-1.753,0-3.174,1.42-3.174,3.174s1.42,3.174,3.174,3.174h47.045
		c1.752,0,3.173-1.42,3.173-3.174C329.353,466.818,327.932,465.396,326.18,465.396z"/>
</g>
<g display="none">
	<g display="inline">
		<path fill="#2980B9" d="M239.652,361.347c-1.374-1.184-3.447-1.029-4.633,0.344c-1.184,1.373-1.03,3.447,0.344,4.631
			c18.526,15.967,45.836,27.119,66.41,27.119c24.37,0,49.094-12.328,67.831-33.822c18.116-20.783,28.508-47.213,28.508-72.514
			c0-1.814-1.47-3.284-3.285-3.284c-1.814,0-3.284,1.47-3.284,3.284c0,46.137-39.213,99.768-89.771,99.768
			C282.94,386.872,256.813,376.136,239.652,361.347z"/>
		<path fill="#2980B9" d="M244.045,271.266c4.769-0.064,10.174-0.139,16.264-0.315c41.654-1.208,51.061-20.029,57.286-32.482
			c3.219-6.436,8.202-8.868,11.225-8.868c1.814,0,3.285-1.47,3.285-3.284c0-1.814-1.471-3.285-3.285-3.285
			c-7.369,0-13.887,6.073-17.101,12.502c-5.854,11.714-13.874,27.758-51.601,28.852c-6.039,0.176-11.417,0.249-16.163,0.314
			c-30.042,0.409-39.109,0.533-39.438,27.399c-0.119,9.759,2.01,19.749,6.331,29.69c0.537,1.238,1.746,1.979,3.015,1.979
			c0.437,0,0.88-0.088,1.307-0.275c1.665-0.721,2.426-2.656,1.705-4.32c-3.948-9.086-5.896-18.169-5.787-26.995
			C211.336,271.712,213.807,271.679,244.045,271.266z"/>
		<path fill="#2980B9" d="M435.42,303.99c-2.231-39.754-11.034-95.174-40.294-133.425c-22.824-29.838-54.597-44.967-94.433-44.967
			c-37.388,0-68.096,12.158-91.268,36.139c-29.238,30.256-45.596,80.294-43.761,133.851c1.319,38.452,61.364,56.319,117.683,56.911
			c1.492,6.574,7.372,11.504,14.392,11.504h14.996c8.143,0,14.767-6.625,14.767-14.77c0-1.814-1.47-3.285-3.284-3.285
			s-3.285,1.471-3.285,3.285c0,4.521-3.678,8.201-8.197,8.201H297.74c-4.521,0-8.2-3.68-8.2-8.201s3.679-8.199,8.2-8.199h14.996
			c1.816,0,3.285-1.471,3.285-3.285c0-1.813-1.469-3.283-3.285-3.283H297.74c-7.006,0-12.878,4.908-14.383,11.469
			c-54.862-0.592-110.008-17.934-111.127-50.568c-1.777-51.814,13.893-100.062,41.917-129.063
			c21.887-22.649,51.005-34.134,86.544-34.134c37.684,0,67.699,14.262,89.217,42.389c28.245,36.925,36.773,90.967,38.953,129.801
			c2.446,43.569-2.269,82.778-5.336,94.093c-4.401,16.232-18.962,29.953-42.108,39.676c-21.758,9.139-50.102,14.172-79.812,14.172
			c-67.877,0-127.95-26.807-131.181-58.533c-0.184-1.805-1.791-3.117-3.602-2.936c-1.804,0.186-3.119,1.797-2.935,3.602
			c3.618,35.533,65.396,64.438,137.715,64.438c55.921,0,117.268-18.15,128.262-58.699
			C432.711,389.685,438.055,350.911,435.42,303.99z"/>
	</g>
</g>
<g display="none">
	<path display="inline" fill="#2980B9" d="M245.024,212.681v54.995H355.43v-61.951c10.452-9.437,16.411-22.778,16.411-36.908
		c0-27.421-22.319-49.729-49.74-49.729c-19.399,0-37.126,11.489-45.174,28.936c-2.289-0.43-4.619-0.652-6.957-0.652
		c-20.635,0-37.423,16.792-37.423,37.429C232.554,195.527,237.067,205.573,245.024,212.681z M269.977,155.574
		c2.784,0,5.559,0.4,8.24,1.187l3.658,1.076l1.34-3.572c6.037-16.132,21.671-26.972,38.893-26.972
		c22.902,0,41.533,18.626,41.533,41.524c0,12.343-5.45,23.964-14.932,31.892l-1.475,1.229v57.53H253.23v-50.648l-1.537-1.234
		c-6.95-5.583-10.935-13.887-10.935-22.785C240.759,168.687,253.86,155.574,269.977,155.574z M317.131,323.586h-4.969
		c23.327-5.341,40.749-26.179,40.749-51.128H247.919c0,24.946,17.422,45.783,40.742,51.128h-11.474
		c-8.681,0-17.104,1.704-25.042,5.066c-23.896,10.129-39.338,33.411-39.338,59.32v48.865l0.576,3.926l5.795,1.811
		c28.475,8.897,56.464,13.402,83.179,13.402c44.566,0,70.597-12.457,73.438-13.878l2.269-1.151h3.452v-52.969
		C381.517,352.47,352.636,323.586,317.131,323.586z M289.018,447.349c-21.827-1.24-44.425-5.437-67.398-12.608l-0.61-0.193v-46.574
		c0-22.605,13.476-42.926,34.334-51.765c6.922-2.924,14.271-4.419,21.841-4.419h11.834V447.349z M373.307,434.149l-1.221,0.63
		c-1.053,0.526-26.327,12.994-69.728,12.994c-1.72,0-3.466-0.07-5.197-0.104V331.783h19.97c30.981,0,56.182,25.21,56.182,56.189
		L373.307,434.149L373.307,434.149z M312.268,350.334c0,2.828-2.309,5.123-5.137,5.123c-2.829,0-5.124-2.295-5.124-5.123
		c0-2.837,2.295-5.135,5.124-5.135C309.959,345.199,312.268,347.491,312.268,350.334z M312.268,377.122
		c0,2.828-2.309,5.131-5.137,5.131c-2.829,0-5.124-2.303-5.124-5.131s2.295-5.131,5.124-5.131
		C309.959,371.991,312.268,374.294,312.268,377.122z M312.268,403.316c0,2.826-2.309,5.128-5.137,5.128
		c-2.829,0-5.124-2.302-5.124-5.128c0-2.831,2.295-5.131,5.124-5.131C309.959,398.186,312.268,400.485,312.268,403.316z"/>
</g>
<path display="none" fill="none" stroke="#2980B9" stroke-width="9" stroke-miterlimit="10" d="M426.018,353.925l-51.615-12.876
	c-0.193-0.291-0.404-0.57-0.657-0.823l-14.335-14.341c16.639-17.539,27.177-43.407,27.177-72.212c0-5.277-0.358-10.483-1.056-15.605
	c0.015-0.057,0.033-0.109,0.047-0.166c0.271-1.212,6.653-29.987,6.653-57.591c0-20.678-11.222-38.238-28.587-44.739
	c-20.386-7.632-38.608-11.342-55.711-11.342c-10.245,0-35.432,1.686-52.84,16.931h-1.971c-9.282,0-18.23,3.895-24.551,10.684
	c-6.302,6.77-9.537,15.938-8.876,25.154c1.174,16.38,4.139,37.677,7.006,58.272c0.866,6.22,1.76,12.645,2.584,18.788
	c0.094,28.649,10.609,54.366,27.172,71.826l-14.335,14.341c-0.246,0.246-0.454,0.518-0.643,0.8l-51.632,12.9
	c-19.978,4.994-33.93,22.864-33.93,43.456v36.876c0,9.141,7.437,16.577,16.577,16.577h270.878c9.141,0,16.577-7.437,16.577-16.577
	v-36.877C459.95,376.79,445.997,358.92,426.018,353.925L426.018,353.925z M307.934,378.54l11.639,7.76v8.455
	c0,3.306-2.688,5.996-5.995,5.996h-11.286c-3.307,0-5.997-2.69-5.997-5.996V386.3L307.934,378.54z M330.507,265.313
	 M353.433,259.316 M347.438,247.677 M291.357,259.316 M302.291,411.332h11.286c0.356,0,0.71-0.016,1.062-0.037l4.213,28.959h-21.834
	l4.212-28.959C301.581,411.316,301.934,411.332,302.291,411.332z M340.128,386.864c-0.021,0.04-0.067,0.122-0.197,0.153
	c-0.149,0.037-0.257-0.034-0.292-0.058l-11.811-7.873c-0.005-0.004-0.011-0.008-0.017-0.012l-11.573-7.715l36.842-36.842
	l10.37,10.374C359.95,351.207,351.732,365.998,340.128,386.864L340.128,386.864z M262.788,334.519l36.842,36.841l-11.576,7.717
	c-0.004,0.003-0.009,0.006-0.014,0.01l-11.812,7.874c-0.034,0.023-0.142,0.095-0.292,0.058c-0.13-0.03-0.175-0.113-0.197-0.152
	c-11.604-20.867-19.823-35.658-23.322-41.973L262.788,334.519L262.788,334.519z"/>
<g display="none">
	<g display="inline">
		<path fill="none" stroke="#2980B9" stroke-width="9" stroke-miterlimit="10" d="M195.777,310.652
			c21.912,0,39.657-17.761,39.657-39.657c0-1.298-0.071-2.5-0.174-3.801c-0.076-0.78-0.171-1.726-0.421-2.75
			c-0.685-3.456-2.421-7.934-4.825-13.194c-7.317-15.951-21.307-38.372-34.237-55.692c-19.816,25.083-29.814,44.398-34.811,56.551
			c-0.089,0.166-0.089,0.346-0.185,0.511c-2.236,5.526-3.356,9.491-3.967,11.824c-0.084,0.25-0.084,0.424-0.163,0.589
			c-0.087,0.696-0.176,1.476-0.266,2.161c-0.09,1.296-0.17,2.5-0.17,3.801C156.208,292.892,173.976,310.652,195.777,310.652
			L195.777,310.652z"/>
		<path fill="none" stroke="#2980B9" stroke-width="9" stroke-miterlimit="10" d="M483.213,294.919
			c-0.136-0.291-0.287-0.533-0.439-0.872c-0.065-0.12-0.12-0.216-0.186-0.344c-4.074-9.158-13.237-10.84-17.933-11.084
			c-27.92,0-101.475,0-116.342,0c-18.431,0-27.822,6.156-27.822,6.156l-97.7,73.418c-2.581,1.946-9.477,13.594-3.429,24.39
			c6.026,10.788,26.728,2.577,26.728,2.577s68.583-44.431,73.75-47.447c5.183-2.993,12.52-2.575,18.116,5.188
			c6.477,12.936-9.9,22.431-9.9,22.431l-57.101,37.239c-11.131,7.267-20.986,8.722-25.896,8.955l-80.488,0.383
			c-15.098-0.002-27.178,3.443-27.178,16.376c0,16.84,18.986,18.551,18.986,18.551h129.524c4.223-0.054,20.21-0.902,35.462-10.932
			l86.716-57.149c0.288-0.185,8.313-5.489,22.915-5.56c7.857-0.076,18.818-0.098,32.776,0.087c0,0,0.175,0,0.229,0
			c0.168,0,0.369,0.022,0.543,0.022c2.957,0.021,14.025-0.686,19.361-11.143C498.906,335.953,490.717,309.591,483.213,294.919
			L483.213,294.919z"/>
	</g>
</g>
<g display="none">
	<path display="inline" fill="#2980B9" d="M428.316,332.175l-28.946-90.183c-0.037-0.115-0.08-0.229-0.131-0.339
		c-9.226-20.579-25.924-30.432-42.542-25.095l-5.277,1.694c-14.839,4.764-25.388,20.258-25.652,37.679
		c-0.003,0.197,0.02,0.389,0.05,0.577l-44.86,54.221c-2.753,3.326-4.318,7.363-4.541,11.598l-0.834-0.834
		c2.252-7.482,0.26-15.61-5.357-21.228c-4.03-4.029-9.39-6.249-15.092-6.249c-1.555,0-3.112,0.17-4.629,0.505
		c-1.166,0.258-2.099,1.13-2.433,2.276c-0.334,1.146-0.017,2.383,0.827,3.228l8.688,8.687l1.798,6.712l-4.197,4.196l-6.71-1.798
		l-8.688-8.688c-0.844-0.845-2.081-1.162-3.228-0.826c-1.146,0.334-2.018,1.267-2.276,2.433c-1.584,7.169,0.563,14.54,5.745,19.721
		c4.031,4.031,9.391,6.251,15.093,6.251c2.096,0,4.15-0.301,6.133-0.895l28.999,29c1.587,1.586,3.695,2.46,5.938,2.46
		c2.244,0,4.354-0.874,5.939-2.46l2.449-2.448c1.587-1.588,2.46-3.696,2.46-5.939s-0.874-4.352-2.46-5.939l-7.218-7.219
		c5.543-0.299,10.688-2.878,14.248-7.181l25.731-31.1l13.899,51.757c0.231,0.864,0.808,1.595,1.593,2.022
		c0.484,0.264,1.022,0.398,1.563,0.398c0.336,0,0.673-0.052,0.999-0.156l1.801-0.578v113.747c0,13.2,10.738,23.939,23.938,23.939
		c13.201,0,23.94-10.739,23.94-23.939V343.067l21.125-6.781C427.922,335.735,428.867,333.895,428.316,332.175z M353.418,224.478
		l5.276-1.694c16.011-5.141,28.572,8.27,34.505,21.383l23.191,72.256L366.343,332.8l-13.378-46.692l20.763-25.095
		c3.388-4.094,4.978-9.262,4.478-14.552c-0.5-5.291-3.03-10.068-7.125-13.457c-3.559-2.944-8.059-4.566-12.672-4.566
		c-5.954,0-11.543,2.629-15.336,7.212l-9.532,11.521C336.398,236.446,343.928,227.524,353.418,224.478z M300.502,356.43
		c0,0.497-0.193,0.965-0.545,1.315l-2.448,2.449c-0.703,0.701-1.929,0.703-2.631,0l-30.459-30.461
		c-0.626-0.625-1.461-0.957-2.313-0.957c-0.425,0-0.852,0.082-1.26,0.253c-1.817,0.759-3.743,1.145-5.723,1.145
		c-3.956,0-7.673-1.54-10.469-4.337c-1.804-1.804-3.078-3.991-3.76-6.353l3.58,3.58c0.406,0.404,0.911,0.697,1.465,0.846
		l9.379,2.514c1.128,0.303,2.332-0.02,3.158-0.846l6.866-6.866c0.826-0.826,1.148-2.03,0.846-3.157l-2.514-9.38
		c-0.148-0.556-0.44-1.061-0.846-1.466l-3.577-3.577c2.376,0.685,4.553,1.962,6.351,3.758c4.267,4.268,5.519,10.624,3.191,16.193
		c-0.512,1.224-0.233,2.635,0.705,3.573l11.584,11.584c0.708,0.836,1.488,1.617,2.338,2.339l16.537,16.537
		C300.309,355.466,300.502,355.933,300.502,356.43z M306.573,331.922c-2.546,3.078-6.3,4.843-10.298,4.843
		c-3.064,0-6.055-1.071-8.433-3.012l-1.947-1.947c-1.644-2.023-2.655-4.485-2.907-7.14c-0.335-3.552,0.732-7.021,3.006-9.77
		l62.118-75.079c2.546-3.077,6.3-4.842,10.298-4.842c3.095,0,6.115,1.09,8.506,3.065c2.748,2.274,4.446,5.482,4.782,9.034
		c0.336,3.551-0.732,7.02-3.006,9.769L306.573,331.922z M381.137,489.583c-9.595,0-17.4-7.806-17.4-17.4v-7.937h33.078
		c0.636,0,1.223-0.189,1.725-0.503v8.439C398.539,481.777,390.732,489.583,381.137,489.583z M398.539,458.21
		c-0.502-0.313-1.089-0.503-1.725-0.503h-33.078v-8.114h5.314c1.807,0,3.271-1.463,3.271-3.269c0-1.805-1.464-3.27-3.271-3.27
		h-5.314v-86.718l34.803-11.171V458.21L398.539,458.21z M356.666,351.739l-14.215-52.926l5.463-6.601l13.078,45.647
		c0.245,0.854,0.826,1.572,1.611,1.988c0.477,0.253,1.004,0.382,1.532,0.382c0.341,0,0.685-0.055,1.017-0.163l53.237-17.421
		l2.701,8.413L356.666,351.739z"/>
	<path display="inline" fill="#2980B9" d="M389.085,407.117c1.806,0,3.269-1.464,3.269-3.269v-45.625c0-1.806-1.463-3.27-3.269-3.27
		c-1.807,0-3.27,1.464-3.27,3.27v45.625C385.815,405.654,387.278,407.117,389.085,407.117z"/>
	<path display="inline" fill="#2980B9" d="M256.071,188.126c0.331,0,0.668-0.051,1-0.157l36.411-11.687
		c-0.531,5.263,0.084,10.738,1.882,16.337c3.292,10.256,10.38,18.615,19.959,23.539c5.787,2.976,12.064,4.481,18.39,4.481
		c4.143,0,8.309-0.646,12.367-1.949c9.756-3.131,17.065-8.35,21.748-15.504c1.928-1.878,11.525-12.108,12.194-30.256
		c0.33-8.938-1.383-16.864-5.079-23.613c0.495-0.789,0.664-1.776,0.357-2.732c-5.511-17.172-21.887-28.708-40.752-28.708
		c-4.772,0-9.528,0.75-14.135,2.229c-22.086,7.089-35.016,29.188-30.083,50.319l-35.258,11.316c-1.72,0.553-2.666,2.394-2.114,4.112
		C253.404,187.242,254.688,188.126,256.071,188.126z M344.082,212.463c-7.549,2.423-15.527,2.134-22.797-0.769
		c0.961-0.832,1.387-2.185,0.974-3.471c-0.552-1.72-2.394-2.664-4.112-2.114l-4.396,1.411c-1.646-1.204-3.172-2.546-4.56-4.012
		l5.79-1.859c1.78-0.571,3.674-0.415,5.335,0.439c1.662,0.854,2.891,2.304,3.462,4.084l1.216,3.787
		c0.445,1.387,1.73,2.271,3.113,2.271c0.33,0,0.667-0.051,1-0.158c1.719-0.553,2.666-2.393,2.113-4.112l-1.217-3.785
		c-1.104-3.442-3.482-6.249-6.697-7.9c-3.217-1.653-6.881-1.955-10.323-0.851l-8.013,2.572c-1.4-2.287-2.541-4.756-3.381-7.375
		c-1.883-5.862-2.262-11.283-1.176-16.563l15.449-4.959c0.198,0.057,0.404,0.097,0.617,0.115c15.168,1.264,18.6,12.855,20.625,23.62
		c0.361,1.921,0.623,3.309,1.043,4.373c0.633,1.602,2.4,2.436,4.04,1.91l8.666-2.782c1.719-0.552,2.665-2.393,2.113-4.111
		l-4.271-13.308c-0.502-1.566-0.366-3.233,0.387-4.696c0.751-1.462,2.027-2.545,3.594-3.047c3.236-1.04,6.705,0.75,7.742,3.98
		c0.82,2.559-0.093,5.327-2.274,6.888c-0.825,0.592-1.33,1.532-1.364,2.548c-0.073,2.179-0.135,11.809,4.149,17.005
		C357.06,206.46,351.407,210.111,344.082,212.463z M373.488,172.688c-0.438,11.898-5.372,19.883-8.269,23.58
		c-1.223-2.45-1.85-6.615-1.911-10.032c3.506-3.322,4.848-8.376,3.336-13.084c-2.139-6.665-9.305-10.344-15.967-8.208
		c-3.229,1.037-5.86,3.268-7.411,6.284c-1.55,3.016-1.833,6.455-0.796,9.684l3.271,10.195l-2.178,0.699
		c-0.012-0.061-0.022-0.121-0.034-0.183c-1.237-6.578-3.823-20.301-16.126-26.23l41.58-13.347
		C372.263,157.835,373.78,164.768,373.488,172.688z M322.412,126.331c3.96-1.271,8.044-1.916,12.137-1.916
		c14.852,0,27.865,8.357,33.376,21.104l-71.356,22.904c-0.507-2.335-0.746-4.682-0.751-7.013l27.468-8.805
		c1.719-0.551,2.666-2.391,2.115-4.111c-0.553-1.719-2.393-2.666-4.111-2.115l-24.732,7.927c0.465-2.21,1.145-4.374,2.024-6.463
		l9.8-3.206c1.717-0.562,2.652-2.408,2.091-4.124s-2.411-2.653-4.123-2.091l-2.729,0.893
		C308.221,133.468,314.654,128.821,322.412,126.331z"/>
	<path display="inline" fill="#2980B9" d="M219.88,429.461h-0.885V313.179h0.885c6.044,0,10.961-4.918,10.961-10.961v-0.514
		c0-6.044-4.917-10.961-10.961-10.961h-0.885v-116.28h0.885c6.044,0,10.961-4.917,10.961-10.961v-0.513
		c0-6.044-4.917-10.961-10.961-10.961h-0.885v-29.294c0-1.805-1.464-3.27-3.269-3.27h-19.382c-1.806,0-3.269,1.464-3.269,3.27
		v29.294h-0.886c-6.044,0-10.961,4.917-10.961,10.961v0.513c0,6.044,4.917,10.961,10.961,10.961h0.885v116.28h-0.885
		c-6.044,0-10.961,4.918-10.961,10.962v0.513c0,6.044,4.917,10.962,10.961,10.962h0.885v116.281h-0.885
		c-6.044,0-10.961,4.917-10.961,10.961v0.513c0,6.043,4.917,10.961,10.961,10.961h0.885v29.295c0,1.806,1.464,3.27,3.269,3.27
		h19.382c1.805,0,3.269-1.464,3.269-3.27v-29.295h0.885c6.044,0,10.961-4.918,10.961-10.961v-0.513
		C230.842,434.377,225.924,429.461,219.88,429.461z M199.612,126.002h12.844v26.025h-12.844V126.002z M187.766,163.502v-0.513
		c0-2.439,1.984-4.423,4.423-4.423h27.692c2.438,0,4.423,1.984,4.423,4.423v0.513c0,2.438-1.985,4.423-4.423,4.423h-27.692
		C189.749,167.925,187.766,165.94,187.766,163.502z M199.612,174.463h12.844v116.28h-12.844V174.463z M187.766,302.218v-0.514
		c0-2.438,1.984-4.423,4.423-4.423h27.692c2.438,0,4.423,1.984,4.423,4.423v0.514c0,2.438-1.985,4.422-4.423,4.422h-27.692
		C189.749,306.64,187.766,304.656,187.766,302.218z M199.612,313.179h12.844V429.46h-12.844V313.179z M212.456,477.922h-12.844
		v-26.026h12.844V477.922z M224.304,440.934c0,2.438-1.985,4.423-4.423,4.423h-27.692c-2.438,0-4.423-1.984-4.423-4.423v-0.512
		c0-2.438,1.984-4.424,4.423-4.424h27.692c2.438,0,4.423,1.985,4.423,4.424V440.934z"/>
	<path display="inline" fill="#2980B9" d="M368.609,310.467c0.469,1.353,1.735,2.2,3.091,2.2c0.354,0,0.715-0.059,1.069-0.181
		l20-6.923c1.706-0.591,2.61-2.452,2.021-4.158c-0.591-1.706-2.451-2.61-4.159-2.021l-20,6.923
		C368.925,306.898,368.02,308.761,368.609,310.467z"/>
	<path display="inline" fill="#2980B9" d="M228.625,199.591c-1.806,0-3.27,1.464-3.27,3.27v59.229c0,1.806,1.464,3.27,3.27,3.27
		c1.805,0,3.269-1.464,3.269-3.27V202.86C231.894,201.054,230.43,199.591,228.625,199.591z"/>
	<path display="inline" fill="#2980B9" d="M227.855,361.127c-1.805,0-3.269,1.464-3.269,3.27v46.922c0,1.806,1.464,3.27,3.269,3.27
		c1.806,0,3.269-1.464,3.269-3.27v-46.922C231.125,362.591,229.661,361.127,227.855,361.127z"/>
</g>
<path display="none" fill="none" stroke="#2980B9" stroke-width="9" stroke-miterlimit="10" d="M309.03,240.16
	c1.679,0,3.247,0.831,4.182,2.214c0.936,1.384,1.115,3.139,0.479,4.682l-2.95,7.159l1.234,3.525l9.037-24.809
	c0.463-1.276,1.431-2.308,2.676-2.863c1.246-0.553,2.664-0.585,3.932-0.08l38.403,15.254c12.038,4.78,19.819,16.189,19.819,29.067
	v25.785h82.471c2.782,0,5.037,2.24,5.037,5.003c0,2.761-2.255,5.001-5.037,5.001h-9.971V463.21c0,2.763-2.254,5-5.036,5H141.364
	c-2.782,0-5.037-2.239-5.037-5.002V310.097h-9.972c-2.782,0-5.037-2.238-5.037-5.001c0-2.764,2.255-5.002,5.037-5.002h87.103V274.31
	c0-12.878,7.779-24.287,19.819-29.067l38.402-15.254c1.266-0.507,2.685-0.475,3.932,0.08c1.246,0.555,2.211,1.587,2.676,2.863
	l9.036,24.809l1.234-3.525l-2.95-7.159c-0.635-1.543-0.455-3.298,0.48-4.682s2.503-2.214,4.182-2.214 M299.649,233.911
	c-4.355,0-8.71-0.815-12.858-2.451c-3.222-1.269-5.91-2.886-7.987-4.812c-4.99-4.625-9.955-13.674-12.339-18.372
	c-4.903-0.738-11.154-4.363-13.907-14.817c-1.646-6.25-1.208-11.369,1.299-15.215c1.045-1.601,2.28-2.727,3.462-3.514
	c0.012-1.117,0.061-2.452,0.179-3.947c-2.245-3.82-5.721-12.898,1.432-25.498c5.415-9.542,13.051-11.542,18.614-11.019
	c2.912-3.808,9.483-8.253,24.162-8.108c10.376,0.111,18.647,3.856,23.828,7.042c9.962,4.882,16.072,15.061,17.583,20.356v0.002
	c2.207,7.759,0.246,17.283-0.818,21.396c1.083,0.774,2.191,1.837,3.141,3.293c2.51,3.848,2.945,8.967,1.299,15.217
	c-2.751,10.451-9.002,14.074-13.906,14.816c-2.385,4.696-7.349,13.745-12.341,18.372c-2.073,1.922-4.762,3.541-7.984,4.812
	C308.361,233.096,304.006,233.911,299.649,233.911z"/>
<g display="none">
	<g display="inline">
		<path fill="none" stroke="#2980B9" stroke-width="9" stroke-miterlimit="10" d="M388.615,327.351
			c-39.916-13.039-56.51-29.251-56.51-29.251l-1.336,1.272c-11.854,11.157-24.964,17.717-36.908,17.717h-1.127
			c-11.943,0-25.054-6.561-36.908-17.717l-1.336-1.272c0,0-16.592,16.212-56.51,29.251c-58.926,22.012-41.232,111.594-41.25,112.289
			c1.856,9.977,2.938,13.406,3.88,13.791c59.175,26.344,206.202,26.344,265.377,0c0.941-0.385,2.023-3.814,3.879-13.791
			C429.852,438.944,447.779,349.718,388.615,327.351z"/>
		<path fill="none" stroke="#2980B9" stroke-width="9" stroke-miterlimit="10" d="M355.184,213.066l-0.494-0.536
			c-3.316-3.036-3.057-2.862-3.057-2.862s5.783-29.179,1.145-42.979c-7.279-22.037-50.765-36.807-59.486-38.523
			c0.001-0.017-5.305-1.078-5.644-1.08c0,0-6.86-1.387-14.812,2.081c-5.178,1.992-32.251,14.27-39.936,37.522
			c-4.637,13.8,1.146,42.979,1.146,42.979s0.259-0.174-3.057,2.862l-0.494,0.536c-2.243,2.547-1.689,10.516,0.763,18.807
			c2.222,8.307,5.117,10.539,5.812,12.484c7.033,33.024,31.491,61.221,56.415,61.221c24.923,0,48.089-28.197,55.123-61.221
			c0.695-1.945,3.59-4.178,5.813-12.484C356.871,223.581,357.49,215.065,355.184,213.066z"/>
	</g>
</g>
<g display="none">
	<path display="inline" fill="#2980B9" d="M182.252,206.64c6.211,5.033,14.21,7.591,23.793,7.591
		c20.779,0,37.684-16.905,37.684-37.685c0-9.886-3.244-18.275-9.628-24.99c1.13-1.511,1.757-3.059,1.908-4.676
		c0.512-5.483-4.717-9.581-8.695-12.187c-7.304-4.783-15.211-7.209-23.503-7.209c-4.884,0-9.907,0.854-14.93,2.538
		c-8.583,2.876-19.773,10.134-25.444,21.874c-4.559,9.44-4.792,19.967-0.692,31.288C168.541,199.188,180.04,205.541,182.252,206.64z
		 M236.918,184.233h-7.987c-6.926,0-12.56,5.634-12.56,12.56v3.73c0,1.619,1.313,2.933,2.934,2.933c1.62,0,2.933-1.313,2.933-2.933
		v-3.73c0-3.69,3.002-6.693,6.693-6.693h5.892c-0.86,1.82-1.89,3.544-3.065,5.156h-4.375c-1.62,0-2.933,1.313-2.933,2.934
		c0,1.284,0.832,2.365,1.982,2.761c-5.525,4.623-12.636,7.413-20.387,7.413c-7.287,0-13.437-1.667-18.324-4.961
		c2.393-5.821-0.439-14.454-1.13-16.381c-0.308-0.858-0.997-1.523-1.864-1.802c-2.451-0.788-4.098-3.049-4.098-5.626
		c0-3.257,2.649-5.906,5.907-5.906s5.907,2.649,5.907,5.906v13.108c0,1.619,1.313,2.933,2.933,2.933h8.536
		c1.543,0,2.824-1.197,2.927-2.737c0.07-1.059-0.093-2.369-0.32-4.182c-1.282-10.241-1.539-21.63,11.728-27.142
		c4.929-2.047,8.74-4.03,11.559-6.029c5.412,5.651,8.058,12.542,8.058,21.001C237.863,179.196,237.532,181.771,236.918,184.233z
		 M168.719,154.448c4.879-10.101,14.577-16.368,22.026-18.864c4.42-1.483,8.817-2.233,13.066-2.233
		c7.131,0,13.957,2.103,20.289,6.249c4.07,2.666,6.225,5.058,6.068,6.735c-0.115,1.23-1.726,4.652-14.173,9.822
		c-18.504,7.687-16.258,25.627-15.299,33.288c0.014,0.107,0.027,0.216,0.041,0.323h-2.429v-10.175
		c0-6.491-5.282-11.773-11.773-11.773c-6.492,0-11.773,5.282-11.773,11.773c0,4.606,2.642,8.705,6.711,10.634
		c0.963,3.167,1.614,7.239,1.148,9.822c-3.628-2.423-10.49-8.173-14.362-18.864C164.719,171.407,164.873,162.411,168.719,154.448z"
		/>
	<path display="inline" fill="#2980B9" d="M468.829,339.569h-2.858c0.76-1.394,1.19-2.991,1.19-4.688v-22.544
		c0-5.423-4.411-9.835-9.834-9.835h-27.549v-10.984c0-5.422-4.412-9.835-9.834-9.835h-3.394v-5.329
		c3.45-1.528,5.866-4.98,5.866-8.991v-68.669c0-5.422-4.412-9.834-9.834-9.834h-10.007c-5.423,0-9.835,4.412-9.835,9.834v60.128
		l-2.512,1.366l-3.74-6.67c-0.793-1.413-2.581-1.915-3.994-1.124l-9.932,5.569c-0.679,0.381-1.178,1.016-1.39,1.765
		c-0.21,0.749-0.114,1.551,0.266,2.229l3.634,6.48l-2.67,1.453l-3.75-6.688c-0.793-1.413-2.58-1.915-3.993-1.124l-9.932,5.569
		c-0.679,0.381-1.179,1.015-1.389,1.764c-0.212,0.749-0.116,1.551,0.265,2.229l3.644,6.498l-2.726,1.482l-3.567-6.359
		c-0.791-1.412-2.58-1.916-3.992-1.124l-9.932,5.569c-0.679,0.38-1.179,1.015-1.389,1.764c-0.211,0.749-0.115,1.551,0.266,2.229
		l3.459,6.17l-5.138,2.796c-0.942,0.514-1.53,1.502-1.53,2.577v46.325h-41.376c-4.867-5.172-6.024-10.004-6.118-13.195l1.186,0.717
		c0.461,0.28,0.987,0.423,1.518,0.423c0.235,0,0.47-0.027,0.702-0.085c0.755-0.186,1.405-0.664,1.808-1.329l9.166-15.158l12.8,7.741
		c0.665,0.403,1.464,0.525,2.22,0.338c0.755-0.187,1.405-0.665,1.809-1.33l9.285-15.354c2.805-4.641,1.313-10.699-3.327-13.505
		l-14.395-8.704c-2.284-1.449-4.765-1.917-7.175-1.354c-2.037,0.475-3.992,1.711-5.63,3.488c-1.264-1.635-2.823-3.086-4.662-4.263
		l-55.645-35.587c-0.024-0.19-0.067-0.381-0.13-0.57c-5.211-15.428-19.021-26.204-33.581-26.204h-5.199
		c-16.296,0-28.333,13.536-30.665,34.485c-0.012,0.107-0.018,0.216-0.018,0.324v89.124h-20.809c-5.422,0-9.834,4.411-9.834,9.834
		v4.141c0,5.423,4.412,9.835,9.834,9.835h1.122v102.4c0,1.619,1.313,2.933,2.933,2.933H469.52c1.62,0,2.934-1.313,2.934-2.933
		V362.682c3.633-1.447,6.211-4.992,6.211-9.135v-4.141C478.664,343.981,474.252,339.569,468.829,339.569z M382.806,258.946
		l1.358,2.422l-4.815,2.7l-1.357-2.422L382.806,258.946z M364.972,268.631l1.357,2.422l-4.814,2.701l-1.358-2.422L364.972,268.631z
		 M347.274,278.69l1.358,2.422l-4.814,2.7l-1.359-2.421L347.274,278.69z M461.296,312.338v22.544c0,2.188-1.781,3.969-3.969,3.969
		h-1.955v-15.758c0-1.62-1.313-2.934-2.934-2.934s-2.933,1.313-2.933,2.934v15.758H421.67c-2.188,0-3.968-1.78-3.968-3.969v-22.544
		c0-2.188,1.78-3.969,3.968-3.969h35.657C459.516,308.369,461.296,310.149,461.296,312.338z M398.973,339.569
		c-2.205,0-4.62-2.137-4.62-4.342v-33.99h10.984c1.62,0,2.933-1.313,2.933-2.933s-1.313-2.934-2.933-2.934h-10.984v-3.853
		c0-2.188,1.78-3.969,3.968-3.969h21.624c2.188,0,3.969,1.781,3.969,3.969v10.984h-2.243c-5.422,0-9.834,4.412-9.834,9.835v22.544
		c0,1.696,0.432,3.294,1.19,4.688H398.973z M398.607,198.694c0-2.188,1.78-3.969,3.969-3.969h3.05v58.835
		c0,1.619,1.313,2.934,2.933,2.934s2.934-1.314,2.934-2.934v-58.835h1.091c2.188,0,3.968,1.781,3.968,3.969v68.669
		c0,2.188-1.78,3.969-3.968,3.969h-10.007c-2.188,0-3.969-1.78-3.969-3.969V198.694z M338.564,294.986l54.177-29.486v1.862
		c0,5.423,4.412,9.835,9.835,9.835h8.108v4.486h-12.365c-5.422,0-9.834,4.411-9.834,9.834v43.709c0,1.546,0.379,3.019,1.033,4.343
		h-8.601c0.927-1.5,1.472-3.259,1.472-5.147V323.38c0-5.423-4.413-9.835-9.835-9.835h-17.254c-5.422,0-9.834,4.412-9.834,9.835
		v11.042c0,1.889,0.544,3.648,1.471,5.147h-8.373V294.986z M364.445,328.269h12.077v6.154c0,2.188-1.779,3.968-3.968,3.968h-17.254
		c-2.188,0-3.969-1.78-3.969-3.968V323.38c0-2.188,1.781-3.968,3.969-3.968h17.254c1.851,0,3.404,1.274,3.842,2.99h-11.951
		c-1.619,0-2.933,1.313-2.933,2.934C361.513,326.955,362.826,328.269,364.445,328.269z M240.789,339.569l-2.359-50.901l32.118,20.54
		c2.154,1.378,4.547,2.278,7.038,2.679c-0.769,3.576-0.36,7.793,2.056,10.626c-0.564,3.162-0.831,9.738,4.162,17.057H240.789
		L240.789,339.569z M320.678,299.299l-7.768,12.846l-3.578-2.165l9.518-16.423l0.486,0.293
		C321.207,294.982,321.809,297.427,320.678,299.299z M298.344,287.746c1.032-1.707,2.484-2.957,3.789-3.262
		c0.557-0.13,1.443-0.207,2.717,0.605c0.021,0.013,0.041,0.025,0.062,0.038l8.917,5.393l-9.518,16.424l-4.2-2.541
		c-0.666-0.403-1.464-0.525-2.22-0.338c-0.755,0.186-1.406,0.664-1.808,1.33l-9.167,15.157l-2.408-1.456
		c-1.731-1.302-1.705-4.92-0.824-7.245c5.092-0.873,9.606-3.823,12.45-8.269c3.081-4.819,3.645-10.538,2.033-15.604
		C298.227,287.901,298.291,287.83,298.344,287.746z M291.191,300.422c-2.34,3.657-6.331,5.84-10.679,5.84
		c-2.41,0-4.762-0.69-6.804-1.996l-76.989-49.238c-5.879-3.761-7.603-11.604-3.843-17.482c2.339-3.657,6.33-5.841,10.678-5.841
		c2.41,0,4.763,0.69,6.805,1.997l76.989,49.239C293.227,286.7,294.952,294.543,291.191,300.422z M171.138,250.61
		c1.543-13.465,8.953-29.108,24.816-29.108h5.198c9.571,0,19.072,6.058,24.683,15.135l-12.316-7.878
		c-2.988-1.91-6.433-2.92-9.965-2.92c-6.358,0-12.197,3.194-15.62,8.546c-5.503,8.604-2.979,20.081,5.625,25.585l38.82,24.827
		l1.119,24.148h-9.158c-1.62,0-2.934,1.314-2.934,2.934c0,1.62,1.313,2.933,2.934,2.933h9.43l1.148,24.758h-63.78V250.61z
		 M151.45,462.847v-31.402h136.562c1.62,0,2.933-1.313,2.933-2.933s-1.313-2.933-2.933-2.933H151.45v-15.528h37.182
		c1.62,0,2.933-1.313,2.933-2.934c0-1.619-1.313-2.933-2.933-2.933H151.45V363.38h259.234v23.724c0,1.619,1.313,2.933,2.934,2.933
		s2.933-1.313,2.933-2.933V363.38h19.669v64.442c0,1.619,1.314,2.933,2.934,2.933c1.62,0,2.934-1.313,2.934-2.933V363.38h24.5
		v99.467H151.45z M472.798,353.545c0,2.188-1.78,3.969-3.969,3.969H144.462c-2.188,0-3.968-1.781-3.968-3.969v-4.141
		c0-2.188,1.781-3.969,3.968-3.969h324.367c2.188,0,3.969,1.781,3.969,3.969V353.545z"/>
</g>
<g display="none">
	<path display="inline" fill="none" stroke="#2980B9" stroke-width="9" stroke-miterlimit="10" d="M318.918,233.336l-33.62-33.56
		l6.03-6.029c2.923-2.924,2.923-7.613,0-10.537c-2.924-2.923-7.613-2.923-10.537,0l-24.667,24.667l-40.807-40.807
		c-2.924-2.924-7.613-2.924-10.537,0c-2.924,2.923-2.924,7.613,0,10.536l40.808,40.808l-38.128,38.127l-40.807-40.807
		c-2.924-2.924-7.613-2.924-10.537,0c-2.923,2.923-2.923,7.613,0,10.536l40.808,40.808l-24.667,24.667
		c-2.924,2.923-2.924,7.613,0,10.536c1.461,1.462,3.35,2.193,5.299,2.193c1.948,0,3.837-0.731,5.299-2.193l6.029-6.029l33.56,33.56
		c13.277,13.277,30.757,19.916,48.237,19.916c7.187,0,14.435-1.219,21.317-3.472l19.185,19.186
		c3.533,3.472,8.102,5.237,12.729,5.237c4.629,0,9.197-1.766,12.73-5.237l3.715-3.716l2.254,2.254
		c12.607,12.607,33.072,12.607,45.68,0l19.125-19.125c6.76-6.76,17.783-6.76,24.605,0c6.76,6.761,6.76,17.785,0,24.606
		l-19.125,19.186c-6.09,6.091-9.439,14.191-9.439,22.84s3.35,16.749,9.439,22.84c1.463,1.462,3.35,2.192,5.299,2.192
		s3.838-0.73,5.299-2.192c2.924-2.924,2.924-7.613,0-10.537c-3.289-3.289-5.115-7.674-5.115-12.303s1.826-9.015,5.115-12.303
		l19.125-19.186c12.607-12.607,12.607-33.072,0-45.68s-33.072-12.607-45.68,0l-19.125,19.124c-6.76,6.761-17.783,6.761-24.605,0
		l-2.254-2.253l3.715-3.716c3.412-3.41,5.238-7.918,5.238-12.729s-1.889-9.318-5.238-12.729l-19.186-19.185
		C343.16,279.198,337.678,252.156,318.918,233.336z"/>
</g>
<g display="none">
	<rect x="228.47" y="240.88" display="inline" fill="#FFFFFF" width="17.707" height="17.708"/>
	<rect x="228.47" y="290.461" display="inline" fill="#FFFFFF" width="17.707" height="17.707"/>
	<rect x="228.47" y="340.042" display="inline" fill="#FFFFFF" width="17.707" height="17.706"/>
	<rect x="228.47" y="389.622" display="inline" fill="#FFFFFF" width="17.707" height="17.707"/>
	<path display="inline" fill="#FFFFFF" d="M352.421,398.476c0-2.934,2.379-5.313,5.313-5.313h61.976V148.802H185.972v311.65h166.449
		V398.476z M382.523,354.207H272.737c-2.934,0-5.312-2.377-5.312-5.312s2.378-5.313,5.312-5.313h109.786
		c2.934,0,5.313,2.378,5.313,5.313S385.457,354.207,382.523,354.207z M382.523,304.627H272.737c-2.934,0-5.312-2.378-5.312-5.313
		s2.378-5.312,5.312-5.312h109.786c2.934,0,5.313,2.377,5.313,5.312S385.457,304.627,382.523,304.627z M280.68,194.841h101.844
		c2.934,0,5.313,2.378,5.313,5.313s-2.379,5.312-5.313,5.312H280.68c-2.934,0-5.312-2.377-5.312-5.312
		S277.746,194.841,280.68,194.841z M382.523,244.422c2.934,0,5.313,2.378,5.313,5.313c0,2.934-2.379,5.312-5.313,5.312H272.737
		c-2.934,0-5.312-2.378-5.312-5.312c0-2.935,2.378-5.313,5.312-5.313H382.523z M222.942,199.938c2.075-2.074,5.438-2.074,7.513,0
		l6.868,6.868l24.575-24.575c2.075-2.074,5.438-2.074,7.513,0c2.074,2.075,2.074,5.438,0,7.513l-28.332,28.332
		c-1.037,1.037-2.396,1.555-3.756,1.555s-2.72-0.518-3.757-1.555l-10.624-10.625C220.868,205.376,220.868,202.013,222.942,199.938z
		 M256.801,412.642c0,2.935-2.378,5.313-5.312,5.313h-28.332c-2.934,0-5.313-2.378-5.313-5.313V384.31
		c0-2.935,2.379-5.312,5.313-5.312h28.332c2.934,0,5.312,2.377,5.312,5.312V412.642z M256.801,363.062
		c0,2.935-2.378,5.312-5.312,5.312h-28.332c-2.934,0-5.313-2.377-5.313-5.312v-28.332c0-2.935,2.379-5.313,5.313-5.313h28.332
		c2.934,0,5.312,2.378,5.312,5.313V363.062z M256.801,313.48c0,2.935-2.378,5.312-5.312,5.312h-28.332
		c-2.934,0-5.313-2.377-5.313-5.312v-28.332c0-2.935,2.379-5.313,5.313-5.313h28.332c2.934,0,5.312,2.378,5.312,5.313V313.48z
		 M256.801,263.899c0,2.935-2.378,5.313-5.312,5.313h-28.332c-2.934,0-5.313-2.378-5.313-5.313v-28.332
		c0-2.934,2.379-5.313,5.313-5.313h28.332c2.934,0,5.312,2.379,5.312,5.313V263.899z M336.484,403.788h-63.747
		c-2.934,0-5.312-2.378-5.312-5.313c0-2.934,2.378-5.313,5.312-5.313h63.747c2.934,0,5.313,2.379,5.313,5.313
		C341.797,401.41,339.418,403.788,336.484,403.788z"/>
	<path display="inline" fill="#2980B9" d="M429.203,401.744c0.081-0.103,0.16-0.206,0.233-0.315c0.021-0.029,0.035-0.061,0.055-0.09
		c0.075-0.116,0.148-0.234,0.213-0.357c0.013-0.021,0.021-0.044,0.032-0.066c0.068-0.133,0.134-0.266,0.19-0.402
		c0.007-0.017,0.011-0.032,0.018-0.048c0.058-0.144,0.112-0.291,0.158-0.44c0.005-0.019,0.008-0.037,0.014-0.055
		c0.043-0.147,0.082-0.296,0.112-0.448c0.009-0.042,0.013-0.086,0.02-0.129c0.022-0.129,0.045-0.256,0.058-0.386
		c0.019-0.177,0.027-0.353,0.027-0.531V143.489c0-2.935-2.379-5.313-5.313-5.313H180.659c-2.933,0-5.312,2.378-5.312,5.313v322.274
		c0,2.935,2.378,5.313,5.312,5.313h177.074c0.178,0,0.354-0.009,0.53-0.027c0.132-0.014,0.261-0.035,0.389-0.058
		c0.042-0.007,0.085-0.011,0.126-0.019c0.152-0.03,0.3-0.07,0.447-0.111c0.018-0.006,0.037-0.01,0.056-0.016
		c0.147-0.044,0.291-0.098,0.432-0.154c0.02-0.008,0.038-0.014,0.058-0.021c0.134-0.056,0.263-0.119,0.391-0.185
		c0.026-0.015,0.054-0.025,0.079-0.039c0.117-0.063,0.229-0.133,0.341-0.203c0.035-0.021,0.072-0.042,0.106-0.065
		c0.104-0.069,0.202-0.146,0.3-0.222c0.039-0.03,0.08-0.058,0.118-0.089c0.119-0.098,0.234-0.203,0.345-0.311
		c0.012-0.014,0.027-0.023,0.04-0.037l67.288-67.288c0.011-0.01,0.02-0.021,0.029-0.032c0.111-0.113,0.219-0.229,0.319-0.353
		C429.153,401.814,429.177,401.778,429.203,401.744z M185.972,148.802h233.737v244.361h-61.976c-2.934,0-5.313,2.379-5.313,5.313
		v61.977H185.972V148.802z M363.046,403.788h49.151l-49.151,49.151V403.788z"/>
	<path display="inline" fill="#2980B9" d="M280.68,205.465h101.844c2.934,0,5.313-2.377,5.313-5.312s-2.379-5.313-5.313-5.313
		H280.68c-2.934,0-5.312,2.378-5.312,5.313S277.746,205.465,280.68,205.465z"/>
	<path display="inline" fill="#2980B9" d="M233.566,218.075c1.037,1.037,2.397,1.556,3.757,1.556s2.719-0.519,3.756-1.556
		l28.332-28.331c2.074-2.075,2.074-5.438,0-7.514c-2.075-2.073-5.438-2.073-7.513,0l-24.575,24.576l-6.868-6.868
		c-2.075-2.074-5.438-2.074-7.513,0c-2.074,2.075-2.074,5.438,0,7.513L233.566,218.075z"/>
	<path display="inline" fill="#2980B9" d="M267.426,249.734c0,2.934,2.378,5.312,5.312,5.312h109.786
		c2.934,0,5.313-2.378,5.313-5.312c0-2.935-2.379-5.313-5.313-5.313H272.737C269.804,244.422,267.426,246.8,267.426,249.734z"/>
	<path display="inline" fill="#2980B9" d="M251.489,230.255h-28.332c-2.934,0-5.313,2.379-5.313,5.313v28.332
		c0,2.935,2.379,5.313,5.313,5.313h28.332c2.934,0,5.312-2.378,5.312-5.313v-28.332
		C256.801,232.634,254.423,230.255,251.489,230.255z M246.177,258.588H228.47V240.88h17.707V258.588z"/>
	<path display="inline" fill="#2980B9" d="M382.523,294.003H272.737c-2.934,0-5.312,2.377-5.312,5.312s2.378,5.313,5.312,5.313
		h109.786c2.934,0,5.313-2.378,5.313-5.313S385.457,294.003,382.523,294.003z"/>
	<path display="inline" fill="#2980B9" d="M251.489,279.836h-28.332c-2.934,0-5.313,2.378-5.313,5.313v28.332
		c0,2.935,2.379,5.312,5.313,5.312h28.332c2.934,0,5.312-2.377,5.312-5.312v-28.332
		C256.801,282.214,254.423,279.836,251.489,279.836z M246.177,308.168H228.47v-17.707h17.707V308.168z"/>
	<path display="inline" fill="#2980B9" d="M382.523,343.583H272.737c-2.934,0-5.312,2.378-5.312,5.313s2.378,5.312,5.312,5.312
		h109.786c2.934,0,5.313-2.377,5.313-5.312S385.457,343.583,382.523,343.583z"/>
	<path display="inline" fill="#2980B9" d="M251.489,329.417h-28.332c-2.934,0-5.313,2.378-5.313,5.313v28.332
		c0,2.935,2.379,5.312,5.313,5.312h28.332c2.934,0,5.312-2.377,5.312-5.312v-28.332
		C256.801,331.795,254.423,329.417,251.489,329.417z M246.177,357.748H228.47v-17.706h17.707V357.748z"/>
	<path display="inline" fill="#2980B9" d="M336.484,393.163h-63.747c-2.934,0-5.312,2.379-5.312,5.313
		c0,2.935,2.378,5.313,5.312,5.313h63.747c2.934,0,5.313-2.378,5.313-5.313C341.797,395.542,339.418,393.163,336.484,393.163z"/>
	<path display="inline" fill="#2980B9" d="M251.489,378.998h-28.332c-2.934,0-5.313,2.377-5.313,5.312v28.332
		c0,2.935,2.379,5.313,5.313,5.313h28.332c2.934,0,5.312-2.378,5.312-5.313V384.31C256.801,381.375,254.423,378.998,251.489,378.998
		z M246.177,407.329H228.47v-17.707h17.707V407.329z"/>
</g>
<g>
	<g>
		<path fill="#2980B9" d="M448.018,412.213l-3.547-13.782l-135.98,35.205c-6.004-20.264-24.835-35.205-47.077-35.205
			c-5.186,0-10.234,0.818-14.942,2.319l-44.826-190.768l-59.7-47.691l-9.279,10.644l56.22,44.826l44.826,189.267
			c-12.895,8.869-21.424,23.675-21.424,40.459c0,27.019,22.038,49.057,49.057,49.057c27.632,0,48.92-21.901,49.056-48.783
			L448.018,412.213L448.018,412.213z M261.413,483.102c-19.923,0-35.547-16.374-35.547-35.547c0-19.923,16.375-35.547,35.547-35.547
			c19.922,0,35.547,15.624,35.547,35.547S280.653,483.102,261.413,483.102z"/>
		<path fill="#2980B9" d="M279.221,293.153l29.884,117.354l122.334-31.249l-29.884-117.354l-25.313,6.482l-20.947-82.557
			l-96.748,24.835l20.946,82.42L279.221,293.153L279.221,293.153z M345.334,203.569l17.057,68.297l-69.729,17.808l-17.057-68.297
			L345.334,203.569L345.334,203.569z M414.381,369.297l-95.314,24.152l-22.789-90.334l95.316-24.153L414.381,369.297
			L414.381,369.297z"/>
	</g>
</g>
</svg>
