<?xml version="1.0" encoding="utf-8"?>
<!-- Generator: Adobe Illustrator 16.0.0, SVG Export Plug-In . SVG Version: 6.00 Build 0)  -->
<!DOCTYPE svg PUBLIC "-//W3C//DTD SVG 1.1//EN" "http://www.w3.org/Graphics/SVG/1.1/DTD/svg11.dtd">
<svg version="1.1" id="Capa_1" xmlns="http://www.w3.org/2000/svg" xmlns:xlink="http://www.w3.org/1999/xlink" x="0px" y="0px"
	 width="600px" height="600px" viewBox="0 0 600 600" enable-background="new 0 0 600 600" xml:space="preserve">
<circle fill="none" stroke="#2980B9" stroke-width="9" stroke-miterlimit="10" cx="300" cy="300" r="286"/>
<path fill="#2980B9" d="M391.773,376.052l-37.386-9.347l-11.219-11.219c-1.956-1.956-4.559-2.93-7.164-2.918v-9.049
	c1.696-1.188,3.347-2.461,4.952-3.807c2.014-0.402,15.843-3.255,29.907-8.374c21.944-7.987,32.612-17.052,32.612-27.711
	c0-62.067-14.399-106.555-42.799-132.226C338.394,151.258,313.096,148.25,300,148.25c-13.096,0-38.394,3.008-60.678,23.152
	c-28.399,25.671-42.799,70.158-42.799,132.226c0,10.659,10.667,19.724,32.612,27.711c14.064,5.119,27.894,7.972,29.906,8.374
	c1.607,1.346,3.257,2.619,4.953,3.807v9.049c-2.605-0.012-5.208,0.962-7.164,2.918l-11.219,11.219l-37.384,9.347
	c-16.059,4.014-27.274,18.378-27.274,34.931v22.397c0,8.406,6.839,15.245,15.246,15.245h207.603c8.406,0,15.245-6.839,15.245-15.245
	v-22.397C419.047,394.43,407.832,380.065,391.773,376.052z M336.288,362.367l9.258,9.258l-20.369,28.516
	c-0.022,0.031-0.081,0.113-0.22,0.133c-0.14,0.02-0.217-0.044-0.247-0.067l-17.082-13.666l28.22-24.188
	C335.975,362.24,336.169,362.248,336.288,362.367z M237.395,267.297c0-11.394,2.036-22.71,5.918-33.033
	c10.98,5.168,29.256,11.014,50.608,16.118c24.326,5.815,49.014,9.81,68.615,11.134c0.041,2.298,0.068,4.781,0.068,5.781
	c0,23.46-8.319,44.537-21.466,58.879c-4.899,0.021-10.322-0.74-16.255-2.286c0.48-1.479,0.742-3.055,0.742-4.691
	c0-8.407-6.84-15.246-15.246-15.246s-15.246,6.839-15.246,15.246c0,8.406,6.839,15.245,15.245,15.245
	c2.937,0,5.681-0.837,8.01-2.281c4.442,1.349,8.687,2.333,12.727,2.953c-9.171,6.587-19.798,10.357-31.116,10.357
	C265.479,345.473,237.395,310.403,237.395,267.297L237.395,267.297z M229.772,288.382h-7.623c-0.179,0-0.324-0.146-0.324-0.324
	v-25.95c0-0.179,0.146-0.325,0.324-0.325h5.66c-0.096,1.836-0.146,3.675-0.146,5.515
	C227.664,274.563,228.398,281.625,229.772,288.382z M359.431,320.929c-1.115,0.792-2.294,1.489-3.533,2.103
	c5.003-7.396,9.03-15.801,11.848-24.918h4.648C371.296,304.277,368.189,314.711,359.431,320.929z M378.175,288.058
	c0,0.179-0.145,0.324-0.324,0.324h-7.622c1.373-6.757,2.107-13.818,2.107-21.085c0-0.879-0.023-3.092-0.06-5.319h5.574
	c0.18,0,0.324,0.146,0.324,0.324V288.058z M310.38,324.713c-3.04,0-5.515-2.474-5.515-5.515s2.475-5.515,5.515-5.515
	c3.041,0,5.515,2.474,5.515,5.515S313.421,324.713,310.38,324.713z M206.255,303.628c0-59.2,13.321-101.258,39.593-125.007
	c19.866-17.958,42.455-20.64,54.152-20.64s34.286,2.682,54.152,20.64c26.272,23.749,39.593,65.807,39.593,125.007
	c0,5.481-8.403,11.12-19.572,15.912c5.693-8.27,7.597-17.53,8.229-22.526c3.262-1.664,5.505-5.05,5.505-8.955v-25.756
	c0-5.545-4.511-10.056-10.056-10.056h-9.225c-0.357-0.103-0.729-0.171-1.114-0.189c-42.074-2.019-105.652-17.913-124.226-28.76
	c-1.194-0.696-2.627-0.853-3.944-0.43c-1.316,0.424-2.39,1.387-2.953,2.649c-3.699,8.292-6.26,17.279-7.61,26.534h-6.629
	c-5.544,0-10.055,4.511-10.055,10.056v25.95c0,5.545,4.511,10.056,10.055,10.056h10.106c3.306,10.698,8.281,20.412,14.538,28.671
	C227.117,321.294,206.255,312.266,206.255,303.628L206.255,303.628z M300,355.204c9.265,0,18.126-2.13,26.274-6.004v8.538
	L300,380.26l-26.275-22.521V349.2C281.874,353.074,290.735,355.204,300,355.204L300,355.204z M263.711,362.367
	c0.119-0.119,0.313-0.127,0.441-0.017l28.22,24.189l-17.082,13.666c-0.03,0.023-0.109,0.087-0.249,0.067
	c-0.138-0.02-0.197-0.102-0.219-0.133l-20.369-28.517L263.711,362.367L263.711,362.367z M210.586,385.492l35.479-8.869l20.84,29.175
	c1.599,2.237,4.076,3.737,6.8,4.115c0.456,0.063,0.912,0.095,1.369,0.095c2.271,0,4.507-0.772,6.294-2.203l13.766-11.012v26.206
	c0,2.688,2.178,4.866,4.865,4.866c2.688,0,4.865-2.179,4.865-4.866v-26.206l13.766,11.012c1.788,1.431,4.023,2.202,6.295,2.202
	c0.455,0,0.914-0.031,1.369-0.095c2.723-0.378,5.201-1.878,6.8-4.115l20.84-29.174l35.479,8.869
	c1.043,0.261,2.058,0.585,3.043,0.962l-18.722,22.466c-3.83,4.597-5.939,10.423-5.939,16.405v13.568H232.205v-13.568
	c0-5.983-2.109-11.81-5.939-16.405l-18.722-22.467C208.528,386.077,209.542,385.753,210.586,385.492L210.586,385.492z
	 M190.685,433.38v-22.397c0-7.569,3.214-14.511,8.499-19.36l19.607,23.527c2.375,2.852,3.684,6.466,3.684,10.176v13.568h-26.275
	C193.158,438.894,190.685,436.42,190.685,433.38L190.685,433.38z M409.315,433.38c0,3.04-2.474,5.514-5.514,5.514h-26.275v-13.568
	c0-3.711,1.309-7.325,3.685-10.176l19.606-23.528c5.283,4.85,8.499,11.791,8.499,19.36L409.315,433.38L409.315,433.38z"/>
</svg>
