<?xml version="1.0" encoding="utf-8"?>
<!-- Generator: Adobe Illustrator 16.0.0, SVG Export Plug-In . SVG Version: 6.00 Build 0)  -->
<!DOCTYPE svg PUBLIC "-//W3C//DTD SVG 1.1//EN" "http://www.w3.org/Graphics/SVG/1.1/DTD/svg11.dtd">
<svg version="1.1" id="Capa_1" xmlns="http://www.w3.org/2000/svg" xmlns:xlink="http://www.w3.org/1999/xlink" x="0px" y="0px"
	 width="600px" height="600px" viewBox="0 0 600 600" enable-background="new 0 0 600 600" xml:space="preserve">
<circle fill="none" stroke="#2980B9" stroke-width="9" stroke-miterlimit="10" cx="300" cy="300" r="286"/>
<g>
	<path fill="#2980B9" d="M266.497,149.481l-3.252,1.206l0.028,0.125c-30.346,12.543-52.977,39.592-59.892,71.675l-0.084,0.032
		l-0.427,2.215l-1.343,7.036l0.358-0.133c-0.491,4.024-0.824,8.053-0.824,12.053c0,37.614,20.785,70.453,51.46,87.68
		c-48.429,12.105-80.479,41.196-81.573,74.007l-0.028,51.437h265.335v-52.265h-0.024c-1.161-32.163-34.844-61.174-83.957-73.46
		c29.764-17.468,49.809-50.13,49.809-87.064c0-6.529-0.688-13.252-1.966-19.712l0.093-0.121l-0.809-3.493l-1.045-4.459l-0.178,0.057
		c-12.189-43.243-51.23-73.11-96.604-73.11c-9.786,0-19.391,1.472-28.677,4.237l0.067-0.361l-2.42,0.904l-0.024-0.093
		L266.497,149.481z M261.89,160.168c-0.249,0.884-0.506,1.769-0.779,2.645c-0.173,0.551-0.33,1.11-0.515,1.656
		c-0.579,1.726-1.206,3.438-1.886,5.118c-0.088,0.229-0.201,0.45-0.294,0.68c-0.603,1.459-1.237,2.902-1.913,4.322
		c-0.27,0.57-0.566,1.125-0.845,1.688c-0.538,1.073-1.089,2.139-1.664,3.191c-0.334,0.611-0.684,1.215-1.033,1.817
		c-0.579,0.997-1.174,1.986-1.789,2.963c-0.366,0.579-0.731,1.162-1.105,1.733c-0.68,1.025-1.383,2.026-2.099,3.023
		c-0.346,0.482-0.684,0.973-1.037,1.447c-1.073,1.431-2.18,2.838-3.329,4.205c-0.016,0.016-0.028,0.036-0.044,0.052
		c-1.166,1.388-2.385,2.73-3.631,4.045c-0.401,0.422-0.816,0.828-1.226,1.242c-0.873,0.885-1.753,1.761-2.658,2.609
		c-0.49,0.462-0.993,0.913-1.491,1.358c-0.876,0.784-1.761,1.552-2.661,2.304c-0.523,0.435-1.046,0.864-1.576,1.291
		c-0.961,0.764-1.942,1.503-2.936,2.231c-0.482,0.354-0.96,0.72-1.451,1.065c-1.335,0.937-2.693,1.841-4.08,2.71
		c-0.165,0.104-0.322,0.217-0.486,0.321c-1.561,0.965-3.152,1.873-4.769,2.746c-0.475,0.257-0.965,0.49-1.443,0.739
		c-0.849,0.435-1.704,0.853-2.569,1.263C219.777,193.11,237.917,171.605,261.89,160.168z M301.575,344.199
		c13.504,0,26.386-2.693,38.165-7.55c8.061,1.487,15.691,3.474,22.92,5.81l-18.871,18.867v-17.087h-16.081l-16.074,16.082h-7.32
		l-0.729-0.273l-0.728,0.273h-7.305l-16.09-16.082h-16.081v17.099l-19.201-19.201c6.376-2.047,13.082-3.783,20.105-5.146
		C275.824,341.623,288.404,344.199,301.575,344.199z M227.198,448.772v-12.061h-8.04v12.061h-40.204v-42.33
		c0-24.975,22.269-47.355,56.764-60.647l30.317,102.981h-38.837V448.772z M274.426,448.772l-26.815-91.161l15.771,15.104v19.769
		h16.081l16.09-16.082h16.081l16.074,16.082h16.081v-19.785l15.566-14.891l-27.588,90.964H274.426z M428.216,406.442v42.33h-40.203
		v-12.061h-8.041v12.061h-39.797l31.134-102.579C405.923,359.613,428.216,381.798,428.216,406.442z M301.575,336.158
		c-50.99,0-92.469-41.481-92.469-92.468c0-5.062,0.427-10.191,1.278-15.273c0.845-0.338,1.665-0.724,2.497-1.09
		c0.623-0.269,1.259-0.53,1.878-0.815c1.52-0.7,3.015-1.439,4.49-2.212c0.298-0.156,0.607-0.297,0.904-0.454
		c1.766-0.944,3.498-1.945,5.198-2.991c0.483-0.297,0.945-0.614,1.424-0.921c1.206-0.768,2.404-1.552,3.57-2.371
		c0.599-0.423,1.189-0.86,1.776-1.295c1.029-0.752,2.043-1.516,3.036-2.308c0.603-0.479,1.193-0.957,1.78-1.447
		c0.969-0.805,1.922-1.629,2.854-2.469c0.56-0.498,1.109-0.989,1.657-1.499c1.005-0.941,1.981-1.914,2.946-2.896
		c0.422-0.43,0.864-0.848,1.278-1.286c1.355-1.423,2.67-2.883,3.937-4.382c0.245-0.29,0.47-0.596,0.711-0.885
		c1.018-1.23,2.015-2.48,2.972-3.759c0.426-0.571,0.832-1.154,1.246-1.733c0.748-1.037,1.476-2.082,2.183-3.144
		c0.427-0.651,0.845-1.307,1.259-1.966c0.655-1.037,1.286-2.087,1.905-3.152c0.395-0.676,0.78-1.347,1.158-2.03
		c0.615-1.121,1.202-2.26,1.773-3.405c0.317-0.635,0.646-1.267,0.952-1.909c0.7-1.468,1.351-2.955,1.975-4.459
		c0.141-0.334,0.297-0.659,0.43-0.997c0.691-1.704,1.335-3.429,1.926-5.178c0.229,0.595,0.511,1.161,0.752,1.753
		c0.426,1.062,0.88,2.103,1.343,3.147c0.644,1.447,1.318,2.875,2.03,4.282c0.507,1.009,1.021,2.01,1.56,2.995
		c0.76,1.398,1.568,2.762,2.393,4.112c0.57,0.929,1.126,1.861,1.725,2.771c0.9,1.375,1.854,2.705,2.814,4.028
		c0.599,0.82,1.174,1.656,1.793,2.456c1.109,1.432,2.283,2.803,3.465,4.169c0.543,0.627,1.058,1.282,1.612,1.894
		c3.551,3.896,7.397,7.498,11.503,10.774c0.651,0.519,1.339,0.993,2.002,1.496c1.427,1.081,2.862,2.155,4.35,3.16
		c0.832,0.563,1.693,1.081,2.541,1.616c1.379,0.872,2.758,1.732,4.174,2.532c0.933,0.527,1.885,1.021,2.834,1.521
		c1.391,0.731,2.79,1.438,4.222,2.103c1.001,0.466,2.014,0.908,3.03,1.347c1.432,0.607,2.879,1.186,4.343,1.732
		c1.045,0.39,2.095,0.769,3.151,1.122c1.496,0.498,3.012,0.948,4.539,1.383c1.062,0.302,2.119,0.607,3.196,0.872
		c1.597,0.395,3.217,0.72,4.837,1.038c1.037,0.204,2.066,0.43,3.111,0.599c1.801,0.293,3.627,0.503,5.455,0.699
		c0.897,0.097,1.778,0.233,2.683,0.31c2.745,0.221,5.512,0.35,8.306,0.35c2.826,0,5.637-0.141,8.435-0.374
		c0.909-0.076,1.798-0.213,2.702-0.313c1.889-0.209,3.774-0.438,5.645-0.756c1.049-0.177,2.091-0.401,3.128-0.611
		c1.717-0.345,3.425-0.723,5.122-1.157c1.065-0.273,2.122-0.575,3.184-0.885c0.796-0.233,1.604-0.414,2.396-0.667
		c1.029,5.568,1.552,11.209,1.552,16.821C394.043,294.677,352.565,336.158,301.575,336.158z M390.654,218.917
		c-0.824,0.27-1.645,0.551-2.477,0.796c-1.037,0.31-2.079,0.619-3.12,0.893c-1.535,0.397-3.083,0.728-4.632,1.045
		c-0.988,0.201-1.978,0.427-2.979,0.6c-1.721,0.293-3.453,0.502-5.194,0.695c-0.849,0.093-1.688,0.229-2.537,0.302
		c-2.593,0.217-5.206,0.346-7.831,0.346c-2.662,0-5.295-0.116-7.904-0.334c-0.872-0.076-1.721-0.225-2.585-0.321
		c-1.725-0.193-3.454-0.374-5.15-0.659c-1.021-0.173-2.014-0.427-3.023-0.632c-1.508-0.305-3.027-0.587-4.507-0.969
		c-1.069-0.273-2.099-0.623-3.147-0.933c-1.396-0.406-2.795-0.796-4.157-1.267c-1.062-0.365-2.087-0.804-3.128-1.21
		c-1.311-0.507-2.634-0.997-3.92-1.563c-1.037-0.459-2.042-0.985-3.06-1.479c-1.242-0.604-2.488-1.187-3.699-1.842
		c-1.008-0.551-1.981-1.162-2.971-1.745c-1.161-0.691-2.336-1.366-3.465-2.106c-0.97-0.635-1.897-1.322-2.843-1.994
		c-1.09-0.775-2.195-1.54-3.257-2.364c-0.917-0.711-1.793-1.475-2.682-2.223c-1.021-0.856-2.05-1.709-3.031-2.609
		c-0.864-0.792-1.685-1.624-2.517-2.448c-0.94-0.937-1.894-1.869-2.794-2.847c-0.796-0.86-1.556-1.761-2.32-2.653
		c-0.868-1.009-1.736-2.022-2.557-3.075c-0.731-0.929-1.419-1.894-2.11-2.851c-0.78-1.082-1.564-2.167-2.296-3.285
		c-0.655-0.993-1.271-2.018-1.894-3.039c-0.691-1.15-1.379-2.3-2.026-3.481c-0.578-1.058-1.113-2.139-1.652-3.225
		c-0.595-1.206-1.186-2.42-1.736-3.662c-0.495-1.118-0.953-2.26-1.407-3.401c-0.499-1.259-0.981-2.529-1.428-3.819
		c-0.405-1.178-0.779-2.376-1.142-3.578c-0.221-0.724-0.414-1.464-0.611-2.195c9.255-3.023,18.9-4.559,28.722-4.559
		C343.487,151.223,379.603,178.874,390.654,218.917z"/>
	<path fill="#2980B9" d="M247.301,239.714v8.041h7.035c0,4.021,3.603,8.041,8.041,8.041s8.04-4.021,8.04-8.041h9.046v-8.041H247.301
		z"/>
	<rect x="287.504" y="308.061" fill="#2980B9" width="32.163" height="8.04"/>
	<polygon fill="#2980B9" points="408.114,412.59 408.114,404.549 400.074,404.549 400.074,387.125 367.911,404.549 359.87,404.549 
		359.87,412.59 	"/>
	<path fill="#2980B9" d="M327.708,239.714v8.041h7.035c0,4.021,3.602,8.041,8.04,8.041s8.041-4.021,8.041-8.041h9.046v-8.041
		H327.708z"/>
	<circle fill="#2980B9" cx="303.585" cy="399.186" r="6.03"/>
	<circle fill="#2980B9" cx="303.585" cy="431.349" r="6.03"/>
</g>
</svg>
